%MOIN*%
%OFA0B0*%
%FSLAX46Y46*%
%IPPOS*%
%LPD*%
%ADD10C,0.0019685039370078744*%
%ADD21C,0.0019685039370078744*%
%ADD22C,0.0019685039370078744*%
%ADD23C,0.0019685039370078744*%
%ADD24C,0.0019685039370078744*%
D10*
X0000192716Y0003773976D02*
X0001239960Y0003773976D01*
X0000153346Y0002085000D02*
X0000153346Y0003734606D01*
X0001239960Y0003773976D02*
G75*
G02X0001897440Y0003116496J-0000657480D01*
G01*
X0000192716Y0002045629D02*
G75*
G02X0000153346Y0002085000J0000039370D01*
G01*
X0001897440Y0002085000D02*
G75*
G02X0001858070Y0002045629I-0000039370D01*
G01*
X0000153346Y0003734606D02*
G75*
G02X0000192716Y0003773976I0000039370D01*
G01*
X0001897440Y0003116496D02*
X0001897440Y0002085000D01*
X0000192716Y0002045629D02*
X0001858070Y0002045629D01*
X0000244960Y0001873543D02*
X0001831574Y0001873543D01*
X0001831574Y0001873543D02*
G75*
G02X0001910314Y0001794803J-0000078740D01*
G01*
X0000244960Y0001294803D02*
X0001831574Y0001294803D01*
X0000166220Y0001794803D02*
G75*
G02X0000244960Y0001873543I0000078740D01*
G01*
X0001910314Y0001794803D02*
X0001910314Y0001373543D01*
X0000244960Y0001294803D02*
G75*
G02X0000166220Y0001373543I-0000000078J0000078661D01*
G01*
X0001910314Y0001373543D02*
G75*
G02X0001831574Y0001294803I-0000078740D01*
G01*
X0000166220Y0001794803D02*
X0000166220Y0001373543D01*
X0003746850Y0002694566D02*
G75*
G02X0003089370Y0002037047I-0000657480J-0000000039D01*
G01*
X0003707480Y0003765393D02*
X0002042125Y0003765393D01*
X0003707480Y0003765393D02*
G75*
G02X0003746850Y0003726023J-0000039370D01*
G01*
X0003746850Y0003726023D02*
X0003746850Y0002694566D01*
X0002002755Y0003726023D02*
G75*
G02X0002042125Y0003765393I0000039370D01*
G01*
X0002042125Y0002037047D02*
X0003089370Y0002037047D01*
X0002042125Y0002037047D02*
G75*
G02X0002002755Y0002076417J0000039370D01*
G01*
X0002002755Y0003726023D02*
X0002002755Y0002076417D01*
G04 next file*
G04 #@! TF.GenerationSoftware,KiCad,Pcbnew,(5.1.2)-1*
G04 #@! TF.CreationDate,2019-11-15T00:39:08+05:30*
G04 #@! TF.ProjectId,NodesCombined,4e6f6465-7343-46f6-9d62-696e65642e6b,rev?*
G04 #@! TF.SameCoordinates,Original*
G04 #@! TF.FileFunction,Profile,NP*
G04 Gerber Fmt 4.6, Leading zero omitted, Abs format (unit mm)*
G04 Created by KiCad (PCBNEW (5.1.2)-1) date 2019-11-15 00:39:08*
G04 APERTURE LIST*
G04 APERTURE END LIST*
D21*
X0003766220Y0001430511D02*
X0003766141Y0001140196D01*
X0003549309Y0001104921D02*
G75*
G02X0003513876Y0001140354J0000035433D01*
G01*
X0003766220Y0001430511D02*
G75*
G02X0003730787Y0001465944J0000035433D01*
G01*
X0003513955Y0001430657D02*
G75*
G02X0003550472Y0001465944I0000035296J0000000011D01*
G01*
X0003766141Y0001140208D02*
G75*
G02X0003729624Y0001104921I-0000035296J-0000000011D01*
G01*
X0002942380Y0001105196D02*
G75*
G02X0002906947Y0001140629J0000035433D01*
G01*
X0003462677Y0001140365D02*
G75*
G02X0003426160Y0001105078I-0000035296J-0000000011D01*
G01*
X0003159291Y0001430787D02*
G75*
G02X0003123858Y0001466220J0000035433D01*
G01*
X0003159212Y0001140483D02*
X0003210393Y0001140483D01*
X0002907026Y0001430933D02*
G75*
G02X0002943543Y0001466220I0000035296J0000000011D01*
G01*
X0003159291Y0001430787D02*
X0003210472Y0001430787D01*
X0003550472Y0001465944D02*
X0003730787Y0001465944D01*
X0003729624Y0001104921D02*
X0003549309Y0001104921D01*
X0003462755Y0001430669D02*
G75*
G02X0003427322Y0001466102J0000035433D01*
G01*
X0003159212Y0001140483D02*
G75*
G02X0003122695Y0001105196I-0000035296J-0000000011D01*
G01*
X0003462755Y0001430669D02*
X0003513936Y0001430669D01*
X0003462677Y0001140365D02*
X0003513858Y0001140365D01*
X0003426160Y0001105078D02*
X0003245845Y0001105078D01*
X0003122695Y0001105196D02*
X0002942380Y0001105196D01*
X0003247007Y0001466102D02*
X0003427322Y0001466102D01*
X0002943543Y0001466220D02*
X0003123858Y0001466220D01*
X0003245845Y0001105078D02*
G75*
G02X0003210411Y0001140511J0000035433D01*
G01*
X0003210490Y0001430815D02*
G75*
G02X0003247007Y0001466102I0000035296J0000000011D01*
G01*
X0002861102Y0001594105D02*
X0002912283Y0001594105D01*
X0002861181Y0001884409D02*
X0002912362Y0001884409D01*
X0002638915Y0001105354D02*
G75*
G02X0002603482Y0001140787J0000035433D01*
G01*
X0002855826Y0001430944D02*
G75*
G02X0002820393Y0001466377J0000035433D01*
G01*
X0002855748Y0001140641D02*
X0002906929Y0001140641D01*
X0002603561Y0001431090D02*
G75*
G02X0002640078Y0001466377I0000035296J0000000011D01*
G01*
X0002855826Y0001430944D02*
X0002907007Y0001430944D01*
X0002855748Y0001140641D02*
G75*
G02X0002819230Y0001105354I-0000035296J-0000000011D01*
G01*
X0002819230Y0001105354D02*
X0002638915Y0001105354D01*
X0002640078Y0001466377D02*
X0002820393Y0001466377D01*
X0002552283Y0001140798D02*
X0002603464Y0001140798D01*
X0002552362Y0001431102D02*
X0002603543Y0001431102D01*
X0002248818Y0001140916D02*
X0002299999Y0001140916D01*
X0002248897Y0001431220D02*
X0002300078Y0001431220D01*
X0002335451Y0001105511D02*
G75*
G02X0002300018Y0001140944J0000035433D01*
G01*
X0002552362Y0001431102D02*
G75*
G02X0002516929Y0001466535J0000035433D01*
G01*
X0002300096Y0001431248D02*
G75*
G02X0002336614Y0001466535I0000035296J0000000011D01*
G01*
X0002552283Y0001140798D02*
G75*
G02X0002515766Y0001105511I-0000035296J-0000000011D01*
G01*
X0002515766Y0001105511D02*
X0002335451Y0001105511D01*
X0002336614Y0001466535D02*
X0002516929Y0001466535D01*
X0003468031Y0001593869D02*
X0003519212Y0001593869D01*
X0003252362Y0001919606D02*
X0003432677Y0001919606D01*
X0003431514Y0001558582D02*
X0003251199Y0001558582D01*
X0003164566Y0001593987D02*
X0003215748Y0001593987D01*
X0003468110Y0001884173D02*
G75*
G02X0003432677Y0001919606J0000035433D01*
G01*
X0003468031Y0001593869D02*
G75*
G02X0003431514Y0001558582I-0000035296J-0000000011D01*
G01*
X0003215845Y0001884319D02*
G75*
G02X0003252362Y0001919606I0000035296J0000000011D01*
G01*
X0003251199Y0001558582D02*
G75*
G02X0003215766Y0001594015J0000035433D01*
G01*
X0003555826Y0001919448D02*
X0003736141Y0001919448D01*
X0003554663Y0001558425D02*
G75*
G02X0003519230Y0001593858J0000035433D01*
G01*
X0003468110Y0001884173D02*
X0003519291Y0001884173D01*
X0003734978Y0001558425D02*
X0003554663Y0001558425D01*
X0003771574Y0001884015D02*
G75*
G02X0003736141Y0001919448J0000035433D01*
G01*
X0003771496Y0001593712D02*
G75*
G02X0003734978Y0001558425I-0000035296J-0000000011D01*
G01*
X0003771574Y0001884015D02*
X0003771496Y0001593700D01*
X0003519309Y0001884161D02*
G75*
G02X0003555826Y0001919448I0000035296J0000000011D01*
G01*
X0003164645Y0001884291D02*
G75*
G02X0003129212Y0001919724J0000035433D01*
G01*
X0003164645Y0001884291D02*
X0003215826Y0001884291D01*
X0002912380Y0001884437D02*
G75*
G02X0002948897Y0001919724I0000035296J0000000011D01*
G01*
X0002947734Y0001558700D02*
G75*
G02X0002912301Y0001594133J0000035433D01*
G01*
X0003128049Y0001558700D02*
X0002947734Y0001558700D01*
X0003164566Y0001593987D02*
G75*
G02X0003128049Y0001558700I-0000035296J-0000000011D01*
G01*
X0002948897Y0001919724D02*
X0003129212Y0001919724D01*
X0002557637Y0001594263D02*
X0002608818Y0001594263D01*
X0002557716Y0001884566D02*
X0002608897Y0001884566D01*
X0002254173Y0001594381D02*
X0002305354Y0001594381D01*
X0002254251Y0001884685D02*
X0002305433Y0001884685D01*
X0002001986Y0001884831D02*
X0002001908Y0001594527D01*
X0002217656Y0001559094D02*
X0002037341Y0001559094D01*
X0002037341Y0001559094D02*
G75*
G02X0002001908Y0001594527J0000035433D01*
G01*
X0002254173Y0001594381D02*
G75*
G02X0002217656Y0001559094I-0000035296J-0000000011D01*
G01*
X0002038503Y0001920118D02*
X0002218818Y0001920118D01*
X0002001986Y0001884831D02*
G75*
G02X0002038503Y0001920118I0000035296J0000000011D01*
G01*
X0002254251Y0001884685D02*
G75*
G02X0002218818Y0001920118J0000035433D01*
G01*
X0002521120Y0001558976D02*
X0002340805Y0001558976D01*
X0002340805Y0001558976D02*
G75*
G02X0002305372Y0001594409J0000035433D01*
G01*
X0002557637Y0001594263D02*
G75*
G02X0002521120Y0001558976I-0000035296J-0000000011D01*
G01*
X0002341968Y0001920000D02*
X0002522283Y0001920000D01*
X0002305451Y0001884713D02*
G75*
G02X0002341968Y0001920000I0000035296J0000000011D01*
G01*
X0002557716Y0001884566D02*
G75*
G02X0002522283Y0001920000J0000035433D01*
G01*
X0002824585Y0001558818D02*
X0002644270Y0001558818D01*
X0002644270Y0001558818D02*
G75*
G02X0002608837Y0001594251J0000035433D01*
G01*
X0002861102Y0001594105D02*
G75*
G02X0002824585Y0001558818I-0000035296J-0000000011D01*
G01*
X0002645433Y0001919842D02*
X0002825748Y0001919842D01*
X0002608915Y0001884555D02*
G75*
G02X0002645433Y0001919842I0000035296J0000000011D01*
G01*
X0002861181Y0001884409D02*
G75*
G02X0002825748Y0001919842J0000035433D01*
G01*
X0001996632Y0001431366D02*
X0001996553Y0001141062D01*
X0002212301Y0001105629D02*
X0002031986Y0001105629D01*
X0002031986Y0001105629D02*
G75*
G02X0001996553Y0001141062J0000035433D01*
G01*
X0002248818Y0001140916D02*
G75*
G02X0002212301Y0001105629I-0000035296J-0000000011D01*
G01*
X0002033149Y0001466653D02*
X0002213464Y0001466653D01*
X0001996632Y0001431366D02*
G75*
G02X0002033149Y0001466653I0000035296J0000000011D01*
G01*
X0002248897Y0001431220D02*
G75*
G02X0002213464Y0001466653J0000035433D01*
G01*
G04 next file*
G04 #@! TF.GenerationSoftware,KiCad,Pcbnew,(5.1.2)-1*
G04 #@! TF.CreationDate,2019-11-15T00:39:08+05:30*
G04 #@! TF.ProjectId,NodesCombined,4e6f6465-7343-46f6-9d62-696e65642e6b,rev?*
G04 #@! TF.SameCoordinates,Original*
G04 #@! TF.FileFunction,Profile,NP*
G04 Gerber Fmt 4.6, Leading zero omitted, Abs format (unit mm)*
G04 Created by KiCad (PCBNEW (5.1.2)-1) date 2019-11-15 00:39:08*
G04 APERTURE LIST*
G04 APERTURE END LIST*
D22*
X0003766220Y0000485629D02*
X0003766141Y0000195314D01*
X0003549309Y0000160039D02*
G75*
G02X0003513876Y0000195472J0000035433D01*
G01*
X0003766220Y0000485629D02*
G75*
G02X0003730787Y0000521062J0000035433D01*
G01*
X0003513955Y0000485776D02*
G75*
G02X0003550472Y0000521062I0000035296J0000000011D01*
G01*
X0003766141Y0000195326D02*
G75*
G02X0003729624Y0000160039I-0000035296J-0000000011D01*
G01*
X0002942380Y0000160314D02*
G75*
G02X0002906947Y0000195747J0000035433D01*
G01*
X0003462677Y0000195483D02*
G75*
G02X0003426160Y0000160196I-0000035296J-0000000011D01*
G01*
X0003159291Y0000485905D02*
G75*
G02X0003123858Y0000521338J0000035433D01*
G01*
X0003159212Y0000195601D02*
X0003210393Y0000195601D01*
X0002907026Y0000486051D02*
G75*
G02X0002943543Y0000521338I0000035296J0000000011D01*
G01*
X0003159291Y0000485905D02*
X0003210472Y0000485905D01*
X0003550472Y0000521062D02*
X0003730787Y0000521062D01*
X0003729624Y0000160039D02*
X0003549309Y0000160039D01*
X0003462755Y0000485787D02*
G75*
G02X0003427322Y0000521220J0000035433D01*
G01*
X0003159212Y0000195601D02*
G75*
G02X0003122695Y0000160314I-0000035296J-0000000011D01*
G01*
X0003462755Y0000485787D02*
X0003513936Y0000485787D01*
X0003462677Y0000195483D02*
X0003513858Y0000195483D01*
X0003426160Y0000160196D02*
X0003245845Y0000160196D01*
X0003122695Y0000160314D02*
X0002942380Y0000160314D01*
X0003247007Y0000521220D02*
X0003427322Y0000521220D01*
X0002943543Y0000521338D02*
X0003123858Y0000521338D01*
X0003245845Y0000160196D02*
G75*
G02X0003210411Y0000195629J0000035433D01*
G01*
X0003210490Y0000485933D02*
G75*
G02X0003247007Y0000521220I0000035296J0000000011D01*
G01*
X0002861102Y0000649223D02*
X0002912283Y0000649223D01*
X0002861181Y0000939527D02*
X0002912362Y0000939527D01*
X0002638915Y0000160472D02*
G75*
G02X0002603482Y0000195905J0000035433D01*
G01*
X0002855826Y0000486062D02*
G75*
G02X0002820393Y0000521496J0000035433D01*
G01*
X0002855748Y0000195759D02*
X0002906929Y0000195759D01*
X0002603561Y0000486209D02*
G75*
G02X0002640078Y0000521496I0000035296J0000000011D01*
G01*
X0002855826Y0000486062D02*
X0002907007Y0000486062D01*
X0002855748Y0000195759D02*
G75*
G02X0002819230Y0000160472I-0000035296J-0000000011D01*
G01*
X0002819230Y0000160472D02*
X0002638915Y0000160472D01*
X0002640078Y0000521496D02*
X0002820393Y0000521496D01*
X0002552283Y0000195916D02*
X0002603464Y0000195916D01*
X0002552362Y0000486220D02*
X0002603543Y0000486220D01*
X0002248818Y0000196034D02*
X0002299999Y0000196034D01*
X0002248897Y0000486338D02*
X0002300078Y0000486338D01*
X0002335451Y0000160629D02*
G75*
G02X0002300018Y0000196062J0000035433D01*
G01*
X0002552362Y0000486220D02*
G75*
G02X0002516929Y0000521653J0000035433D01*
G01*
X0002300096Y0000486366D02*
G75*
G02X0002336614Y0000521653I0000035296J0000000011D01*
G01*
X0002552283Y0000195916D02*
G75*
G02X0002515766Y0000160629I-0000035296J-0000000011D01*
G01*
X0002515766Y0000160629D02*
X0002335451Y0000160629D01*
X0002336614Y0000521653D02*
X0002516929Y0000521653D01*
X0003468031Y0000648987D02*
X0003519212Y0000648987D01*
X0003252362Y0000974724D02*
X0003432677Y0000974724D01*
X0003431514Y0000613700D02*
X0003251199Y0000613700D01*
X0003164566Y0000649105D02*
X0003215748Y0000649105D01*
X0003468110Y0000939291D02*
G75*
G02X0003432677Y0000974724J0000035433D01*
G01*
X0003468031Y0000648987D02*
G75*
G02X0003431514Y0000613700I-0000035296J-0000000011D01*
G01*
X0003215845Y0000939437D02*
G75*
G02X0003252362Y0000974724I0000035296J0000000011D01*
G01*
X0003251199Y0000613700D02*
G75*
G02X0003215766Y0000649133J0000035433D01*
G01*
X0003555826Y0000974566D02*
X0003736141Y0000974566D01*
X0003554663Y0000613543D02*
G75*
G02X0003519230Y0000648976J0000035433D01*
G01*
X0003468110Y0000939291D02*
X0003519291Y0000939291D01*
X0003734978Y0000613543D02*
X0003554663Y0000613543D01*
X0003771574Y0000939133D02*
G75*
G02X0003736141Y0000974566J0000035433D01*
G01*
X0003771496Y0000648830D02*
G75*
G02X0003734978Y0000613543I-0000035296J-0000000011D01*
G01*
X0003771574Y0000939133D02*
X0003771496Y0000648818D01*
X0003519309Y0000939279D02*
G75*
G02X0003555826Y0000974566I0000035296J0000000011D01*
G01*
X0003164645Y0000939409D02*
G75*
G02X0003129212Y0000974842J0000035433D01*
G01*
X0003164645Y0000939409D02*
X0003215826Y0000939409D01*
X0002912380Y0000939555D02*
G75*
G02X0002948897Y0000974842I0000035296J0000000011D01*
G01*
X0002947734Y0000613818D02*
G75*
G02X0002912301Y0000649251J0000035433D01*
G01*
X0003128049Y0000613818D02*
X0002947734Y0000613818D01*
X0003164566Y0000649105D02*
G75*
G02X0003128049Y0000613818I-0000035296J-0000000011D01*
G01*
X0002948897Y0000974842D02*
X0003129212Y0000974842D01*
X0002557637Y0000649381D02*
X0002608818Y0000649381D01*
X0002557716Y0000939685D02*
X0002608897Y0000939685D01*
X0002254173Y0000649499D02*
X0002305354Y0000649499D01*
X0002254251Y0000939803D02*
X0002305433Y0000939803D01*
X0002001986Y0000939949D02*
X0002001908Y0000649645D01*
X0002217656Y0000614212D02*
X0002037341Y0000614212D01*
X0002037341Y0000614212D02*
G75*
G02X0002001908Y0000649645J0000035433D01*
G01*
X0002254173Y0000649499D02*
G75*
G02X0002217656Y0000614212I-0000035296J-0000000011D01*
G01*
X0002038503Y0000975236D02*
X0002218818Y0000975236D01*
X0002001986Y0000939949D02*
G75*
G02X0002038503Y0000975236I0000035296J0000000011D01*
G01*
X0002254251Y0000939803D02*
G75*
G02X0002218818Y0000975236J0000035433D01*
G01*
X0002521120Y0000614094D02*
X0002340805Y0000614094D01*
X0002340805Y0000614094D02*
G75*
G02X0002305372Y0000649527J0000035433D01*
G01*
X0002557637Y0000649381D02*
G75*
G02X0002521120Y0000614094I-0000035296J-0000000011D01*
G01*
X0002341968Y0000975118D02*
X0002522283Y0000975118D01*
X0002305451Y0000939831D02*
G75*
G02X0002341968Y0000975118I0000035296J0000000011D01*
G01*
X0002557716Y0000939685D02*
G75*
G02X0002522283Y0000975118J0000035433D01*
G01*
X0002824585Y0000613936D02*
X0002644270Y0000613936D01*
X0002644270Y0000613936D02*
G75*
G02X0002608837Y0000649370J0000035433D01*
G01*
X0002861102Y0000649223D02*
G75*
G02X0002824585Y0000613936I-0000035296J-0000000011D01*
G01*
X0002645433Y0000974960D02*
X0002825748Y0000974960D01*
X0002608915Y0000939673D02*
G75*
G02X0002645433Y0000974960I0000035296J0000000011D01*
G01*
X0002861181Y0000939527D02*
G75*
G02X0002825748Y0000974960J0000035433D01*
G01*
X0001996632Y0000486484D02*
X0001996553Y0000196181D01*
X0002212301Y0000160747D02*
X0002031986Y0000160747D01*
X0002031986Y0000160747D02*
G75*
G02X0001996553Y0000196181J0000035433D01*
G01*
X0002248818Y0000196034D02*
G75*
G02X0002212301Y0000160747I-0000035296J-0000000011D01*
G01*
X0002033149Y0000521771D02*
X0002213464Y0000521771D01*
X0001996632Y0000486484D02*
G75*
G02X0002033149Y0000521771I0000035296J0000000011D01*
G01*
X0002248897Y0000486338D02*
G75*
G02X0002213464Y0000521771J0000035433D01*
G01*
G04 next file*
G04 #@! TF.GenerationSoftware,KiCad,Pcbnew,(5.1.2)-1*
G04 #@! TF.CreationDate,2019-11-15T00:39:08+05:30*
G04 #@! TF.ProjectId,NodesCombined,4e6f6465-7343-46f6-9d62-696e65642e6b,rev?*
G04 #@! TF.SameCoordinates,Original*
G04 #@! TF.FileFunction,Profile,NP*
G04 Gerber Fmt 4.6, Leading zero omitted, Abs format (unit mm)*
G04 Created by KiCad (PCBNEW (5.1.2)-1) date 2019-11-15 00:39:08*
G04 APERTURE LIST*
G04 APERTURE END LIST*
D23*
X0001915826Y0000564370D02*
X0001915748Y0000274055D01*
X0001698915Y0000238779D02*
G75*
G02X0001663482Y0000274212J0000035433D01*
G01*
X0001915826Y0000564370D02*
G75*
G02X0001880393Y0000599803J0000035433D01*
G01*
X0001663561Y0000564516D02*
G75*
G02X0001700078Y0000599803I0000035296J0000000011D01*
G01*
X0001915748Y0000274066D02*
G75*
G02X0001879230Y0000238779I-0000035296J-0000000011D01*
G01*
X0001091986Y0000239055D02*
G75*
G02X0001056553Y0000274488J0000035433D01*
G01*
X0001612283Y0000274223D02*
G75*
G02X0001575766Y0000238937I-0000035296J-0000000011D01*
G01*
X0001308897Y0000564645D02*
G75*
G02X0001273464Y0000600078J0000035433D01*
G01*
X0001308818Y0000274342D02*
X0001359999Y0000274342D01*
X0001056632Y0000564791D02*
G75*
G02X0001093149Y0000600078I0000035296J0000000011D01*
G01*
X0001308897Y0000564645D02*
X0001360078Y0000564645D01*
X0001700078Y0000599803D02*
X0001880393Y0000599803D01*
X0001879230Y0000238779D02*
X0001698915Y0000238779D01*
X0001612362Y0000564527D02*
G75*
G02X0001576929Y0000599960J0000035433D01*
G01*
X0001308818Y0000274342D02*
G75*
G02X0001272301Y0000239055I-0000035296J-0000000011D01*
G01*
X0001612362Y0000564527D02*
X0001663543Y0000564527D01*
X0001612283Y0000274223D02*
X0001663464Y0000274223D01*
X0001575766Y0000238937D02*
X0001395451Y0000238937D01*
X0001272301Y0000239055D02*
X0001091986Y0000239055D01*
X0001396614Y0000599960D02*
X0001576929Y0000599960D01*
X0001093149Y0000600078D02*
X0001273464Y0000600078D01*
X0001395451Y0000238937D02*
G75*
G02X0001360018Y0000274370J0000035433D01*
G01*
X0001360096Y0000564673D02*
G75*
G02X0001396614Y0000599960I0000035296J0000000011D01*
G01*
X0001010708Y0000727964D02*
X0001061889Y0000727964D01*
X0001010787Y0001018267D02*
X0001061968Y0001018267D01*
X0000788522Y0000239212D02*
G75*
G02X0000753089Y0000274645J0000035433D01*
G01*
X0001005433Y0000564803D02*
G75*
G02X0000970000Y0000600236J0000035433D01*
G01*
X0001005354Y0000274499D02*
X0001056535Y0000274499D01*
X0000753167Y0000564949D02*
G75*
G02X0000789685Y0000600236I0000035296J0000000011D01*
G01*
X0001005433Y0000564803D02*
X0001056614Y0000564803D01*
X0001005354Y0000274499D02*
G75*
G02X0000968837Y0000239212I-0000035296J-0000000011D01*
G01*
X0000968837Y0000239212D02*
X0000788522Y0000239212D01*
X0000789685Y0000600236D02*
X0000970000Y0000600236D01*
X0000701889Y0000274657D02*
X0000753070Y0000274657D01*
X0000701968Y0000564960D02*
X0000753149Y0000564960D01*
X0000398425Y0000274775D02*
X0000449606Y0000274775D01*
X0000398503Y0000565078D02*
X0000449685Y0000565078D01*
X0000485057Y0000239370D02*
G75*
G02X0000449624Y0000274803J0000035433D01*
G01*
X0000701968Y0000564960D02*
G75*
G02X0000666535Y0000600393J0000035433D01*
G01*
X0000449703Y0000565106D02*
G75*
G02X0000486220Y0000600393I0000035296J0000000011D01*
G01*
X0000701889Y0000274657D02*
G75*
G02X0000665372Y0000239370I-0000035296J-0000000011D01*
G01*
X0000665372Y0000239370D02*
X0000485057Y0000239370D01*
X0000486220Y0000600393D02*
X0000666535Y0000600393D01*
X0001617637Y0000727727D02*
X0001668818Y0000727727D01*
X0001401968Y0001053464D02*
X0001582283Y0001053464D01*
X0001581120Y0000692440D02*
X0001400805Y0000692440D01*
X0001314173Y0000727846D02*
X0001365354Y0000727846D01*
X0001617716Y0001018031D02*
G75*
G02X0001582283Y0001053464J0000035433D01*
G01*
X0001617637Y0000727727D02*
G75*
G02X0001581120Y0000692440I-0000035296J-0000000011D01*
G01*
X0001365451Y0001018177D02*
G75*
G02X0001401968Y0001053464I0000035296J0000000011D01*
G01*
X0001400805Y0000692440D02*
G75*
G02X0001365372Y0000727874J0000035433D01*
G01*
X0001705433Y0001053307D02*
X0001885747Y0001053307D01*
X0001704270Y0000692283D02*
G75*
G02X0001668837Y0000727716J0000035433D01*
G01*
X0001617716Y0001018031D02*
X0001668897Y0001018031D01*
X0001884585Y0000692283D02*
X0001704270Y0000692283D01*
X0001921181Y0001017874D02*
G75*
G02X0001885747Y0001053307J0000035433D01*
G01*
X0001921102Y0000727570D02*
G75*
G02X0001884585Y0000692283I-0000035296J-0000000011D01*
G01*
X0001921181Y0001017874D02*
X0001921102Y0000727559D01*
X0001668915Y0001018020D02*
G75*
G02X0001705433Y0001053307I0000035296J0000000011D01*
G01*
X0001314251Y0001018149D02*
G75*
G02X0001278818Y0001053582J0000035433D01*
G01*
X0001314251Y0001018149D02*
X0001365433Y0001018149D01*
X0001061986Y0001018295D02*
G75*
G02X0001098503Y0001053582I0000035296J0000000011D01*
G01*
X0001097341Y0000692559D02*
G75*
G02X0001061908Y0000727992J0000035433D01*
G01*
X0001277656Y0000692559D02*
X0001097341Y0000692559D01*
X0001314173Y0000727846D02*
G75*
G02X0001277656Y0000692559I-0000035296J-0000000011D01*
G01*
X0001098503Y0001053582D02*
X0001278818Y0001053582D01*
X0000707244Y0000728121D02*
X0000758425Y0000728121D01*
X0000707322Y0001018425D02*
X0000758503Y0001018425D01*
X0000403779Y0000728239D02*
X0000454960Y0000728239D01*
X0000403858Y0001018543D02*
X0000455039Y0001018543D01*
X0000151593Y0001018689D02*
X0000151514Y0000728385D01*
X0000367262Y0000692952D02*
X0000186947Y0000692952D01*
X0000186947Y0000692952D02*
G75*
G02X0000151514Y0000728385J0000035433D01*
G01*
X0000403779Y0000728239D02*
G75*
G02X0000367262Y0000692952I-0000035296J-0000000011D01*
G01*
X0000188110Y0001053976D02*
X0000368425Y0001053976D01*
X0000151593Y0001018689D02*
G75*
G02X0000188110Y0001053976I0000035296J0000000011D01*
G01*
X0000403858Y0001018543D02*
G75*
G02X0000368425Y0001053976J0000035433D01*
G01*
X0000670726Y0000692834D02*
X0000490411Y0000692834D01*
X0000490411Y0000692834D02*
G75*
G02X0000454978Y0000728267J0000035433D01*
G01*
X0000707244Y0000728121D02*
G75*
G02X0000670726Y0000692834I-0000035296J-0000000011D01*
G01*
X0000491574Y0001053858D02*
X0000671889Y0001053858D01*
X0000455057Y0001018571D02*
G75*
G02X0000491574Y0001053858I0000035296J0000000011D01*
G01*
X0000707322Y0001018425D02*
G75*
G02X0000671889Y0001053858J0000035433D01*
G01*
X0000974191Y0000692677D02*
X0000793876Y0000692677D01*
X0000793876Y0000692677D02*
G75*
G02X0000758443Y0000728110J0000035433D01*
G01*
X0001010708Y0000727964D02*
G75*
G02X0000974191Y0000692677I-0000035296J-0000000011D01*
G01*
X0000795039Y0001053700D02*
X0000975354Y0001053700D01*
X0000758522Y0001018413D02*
G75*
G02X0000795039Y0001053700I0000035296J0000000011D01*
G01*
X0001010787Y0001018267D02*
G75*
G02X0000975354Y0001053700J0000035433D01*
G01*
X0000146238Y0000565224D02*
X0000146160Y0000274921D01*
X0000361908Y0000239488D02*
X0000181593Y0000239488D01*
X0000181593Y0000239488D02*
G75*
G02X0000146160Y0000274921J0000035433D01*
G01*
X0000398425Y0000274775D02*
G75*
G02X0000361908Y0000239488I-0000035296J-0000000011D01*
G01*
X0000182755Y0000600511D02*
X0000363070Y0000600511D01*
X0000146238Y0000565224D02*
G75*
G02X0000182755Y0000600511I0000035296J0000000011D01*
G01*
X0000398503Y0000565078D02*
G75*
G02X0000363070Y0000600511J0000035433D01*
G01*
G04 next file*
G04 #@! TF.GenerationSoftware,KiCad,Pcbnew,(5.1.2)-1*
G04 #@! TF.CreationDate,2019-11-15T00:47:22+05:30*
G04 #@! TF.ProjectId,NodeFrame,4e6f6465-4672-4616-9d65-2e6b69636164,rev?*
G04 #@! TF.SameCoordinates,Original*
G04 #@! TF.FileFunction,Profile,NP*
G04 Gerber Fmt 4.6, Leading zero omitted, Abs format (unit mm)*
G04 Created by KiCad (PCBNEW (5.1.2)-1) date 2019-11-15 00:47:22*
G04 APERTURE LIST*
G04 APERTURE END LIST*
D24*
X0003860196Y0000080315D02*
X0003860196Y0003859842D01*
X0000080669Y0000080315D02*
X0000080669Y0003859842D01*
X0000080669Y0000080315D02*
X0003860196Y0000080315D01*
X0000080669Y0003859842D02*
X0003860196Y0003859842D01*
X0000001929Y0000001574D02*
X0000001929Y0003938582D01*
X0003938937Y0000001574D02*
X0003938937Y0003938582D01*
X0000001929Y0000001574D02*
X0003938937Y0000001574D01*
X0000001929Y0003938582D02*
X0003938937Y0003938582D01*
M02*