%MOIN*%
%OFA0B0*%
%FSLAX46Y46*%
%IPPOS*%
%LPD*%
%ADD10R,0.047244094488188976X0.01968503937007874*%
%ADD11R,0.01968503937007874X0.047244094488188976*%
%ADD12C,0.0039370078740157488*%
%ADD13C,0.037401574803149609*%
%ADD14R,0.090157480314960639X0.05*%
%ADD15C,0.023622047244094488*%
%ADD16C,0.059055118110236227*%
%ADD17R,0.14960629921259844X0.07874015748031496*%
%ADD18R,0.059055118110236227X0.07874015748031496*%
%ADD29R,0.01968503937007874X0.07874015748031496*%
%ADD30R,0.01968503937007874X0.07874015748031496*%
%ADD31R,0.01968503937007874X0.07874015748031496*%
D10*
X-0005118110Y0005039370D02*
X0000621850Y0003645433D03*
X0000621850Y0003615905D03*
X0000621850Y0003586377D03*
X0000621850Y0003556850D03*
X0000621850Y0003527322D03*
X0000621850Y0003497795D03*
X0000621850Y0003468267D03*
X0000621850Y0003438740D03*
X0000621850Y0003409212D03*
X0000621850Y0003379685D03*
X0000621850Y0003350157D03*
X0000621850Y0003320629D03*
X0000621850Y0003291102D03*
X0000621850Y0003261574D03*
X0000621850Y0003232047D03*
X0000621850Y0003202519D03*
D11*
X0000576574Y0003184803D03*
X0000547047Y0003184803D03*
X0000517519Y0003184803D03*
X0000487992Y0003184803D03*
X0000458464Y0003184803D03*
X0000428937Y0003184803D03*
X0000399409Y0003184803D03*
X0000369881Y0003184803D03*
X0000340354Y0003184803D03*
X0000310826Y0003184803D03*
X0000281299Y0003184803D03*
D10*
X0000236023Y0003202519D03*
X0000236023Y0003232047D03*
X0000236023Y0003261574D03*
X0000236023Y0003291102D03*
X0000236023Y0003320629D03*
X0000236023Y0003350157D03*
X0000236023Y0003379685D03*
X0000236023Y0003409212D03*
X0000236023Y0003438740D03*
X0000236023Y0003468267D03*
X0000236023Y0003497795D03*
X0000236023Y0003527322D03*
D12*
G36*
X0000837825Y0003028891D02*
G01*
X0000838733Y0003028757D01*
X0000839623Y0003028534D01*
X0000840487Y0003028225D01*
X0000841317Y0003027832D01*
X0000842104Y0003027361D01*
X0000842841Y0003026814D01*
X0000843521Y0003026198D01*
X0000844137Y0003025518D01*
X0000844683Y0003024781D01*
X0000845155Y0003023994D01*
X0000845548Y0003023164D01*
X0000845857Y0003022300D01*
X0000846080Y0003021410D01*
X0000846214Y0003020503D01*
X0000846259Y0003019586D01*
X0000846259Y0003000885D01*
X0000846214Y0002999969D01*
X0000846080Y0002999061D01*
X0000845857Y0002998171D01*
X0000845548Y0002997307D01*
X0000845155Y0002996478D01*
X0000844683Y0002995691D01*
X0000844137Y0002994954D01*
X0000843521Y0002994274D01*
X0000842841Y0002993657D01*
X0000842104Y0002993111D01*
X0000841317Y0002992639D01*
X0000840487Y0002992247D01*
X0000839623Y0002991938D01*
X0000838733Y0002991715D01*
X0000837825Y0002991580D01*
X0000836909Y0002991535D01*
X0000814271Y0002991535D01*
X0000813355Y0002991580D01*
X0000812447Y0002991715D01*
X0000811557Y0002991938D01*
X0000810693Y0002992247D01*
X0000809863Y0002992639D01*
X0000809076Y0002993111D01*
X0000808339Y0002993657D01*
X0000807659Y0002994274D01*
X0000807043Y0002994954D01*
X0000806497Y0002995691D01*
X0000806025Y0002996478D01*
X0000805632Y0002997307D01*
X0000805323Y0002998171D01*
X0000805100Y0002999061D01*
X0000804966Y0002999969D01*
X0000804921Y0003000885D01*
X0000804921Y0003019586D01*
X0000804966Y0003020503D01*
X0000805100Y0003021410D01*
X0000805323Y0003022300D01*
X0000805632Y0003023164D01*
X0000806025Y0003023994D01*
X0000806497Y0003024781D01*
X0000807043Y0003025518D01*
X0000807659Y0003026198D01*
X0000808339Y0003026814D01*
X0000809076Y0003027361D01*
X0000809863Y0003027832D01*
X0000810693Y0003028225D01*
X0000811557Y0003028534D01*
X0000812447Y0003028757D01*
X0000813355Y0003028891D01*
X0000814271Y0003028937D01*
X0000836909Y0003028937D01*
X0000837825Y0003028891D01*
X0000837825Y0003028891D01*
G37*
D13*
X0000825590Y0003010236D03*
D12*
G36*
X0000906723Y0003028891D02*
G01*
X0000907631Y0003028757D01*
X0000908521Y0003028534D01*
X0000909385Y0003028225D01*
X0000910214Y0003027832D01*
X0000911001Y0003027361D01*
X0000911738Y0003026814D01*
X0000912418Y0003026198D01*
X0000913035Y0003025518D01*
X0000913581Y0003024781D01*
X0000914053Y0003023994D01*
X0000914445Y0003023164D01*
X0000914754Y0003022300D01*
X0000914977Y0003021410D01*
X0000915112Y0003020503D01*
X0000915157Y0003019586D01*
X0000915157Y0003000885D01*
X0000915112Y0002999969D01*
X0000914977Y0002999061D01*
X0000914754Y0002998171D01*
X0000914445Y0002997307D01*
X0000914053Y0002996478D01*
X0000913581Y0002995691D01*
X0000913035Y0002994954D01*
X0000912418Y0002994274D01*
X0000911738Y0002993657D01*
X0000911001Y0002993111D01*
X0000910214Y0002992639D01*
X0000909385Y0002992247D01*
X0000908521Y0002991938D01*
X0000907631Y0002991715D01*
X0000906723Y0002991580D01*
X0000905807Y0002991535D01*
X0000883169Y0002991535D01*
X0000882252Y0002991580D01*
X0000881345Y0002991715D01*
X0000880454Y0002991938D01*
X0000879591Y0002992247D01*
X0000878761Y0002992639D01*
X0000877974Y0002993111D01*
X0000877237Y0002993657D01*
X0000876557Y0002994274D01*
X0000875941Y0002994954D01*
X0000875394Y0002995691D01*
X0000874922Y0002996478D01*
X0000874530Y0002997307D01*
X0000874221Y0002998171D01*
X0000873998Y0002999061D01*
X0000873863Y0002999969D01*
X0000873818Y0003000885D01*
X0000873818Y0003019586D01*
X0000873863Y0003020503D01*
X0000873998Y0003021410D01*
X0000874221Y0003022300D01*
X0000874530Y0003023164D01*
X0000874922Y0003023994D01*
X0000875394Y0003024781D01*
X0000875941Y0003025518D01*
X0000876557Y0003026198D01*
X0000877237Y0003026814D01*
X0000877974Y0003027361D01*
X0000878761Y0003027832D01*
X0000879591Y0003028225D01*
X0000880454Y0003028534D01*
X0000881345Y0003028757D01*
X0000882252Y0003028891D01*
X0000883169Y0003028937D01*
X0000905807Y0003028937D01*
X0000906723Y0003028891D01*
X0000906723Y0003028891D01*
G37*
D13*
X0000894488Y0003010236D03*
D12*
G36*
X0001264400Y0003032317D02*
G01*
X0001265308Y0003032182D01*
X0001266198Y0003031959D01*
X0001267062Y0003031650D01*
X0001267891Y0003031258D01*
X0001268679Y0003030786D01*
X0001269416Y0003030239D01*
X0001270095Y0003029623D01*
X0001270712Y0003028943D01*
X0001271258Y0003028206D01*
X0001271730Y0003027419D01*
X0001272122Y0003026590D01*
X0001272431Y0003025726D01*
X0001272654Y0003024835D01*
X0001272789Y0003023928D01*
X0001272834Y0003023011D01*
X0001272834Y0003000373D01*
X0001272789Y0002999457D01*
X0001272654Y0002998549D01*
X0001272431Y0002997659D01*
X0001272122Y0002996795D01*
X0001271730Y0002995966D01*
X0001271258Y0002995179D01*
X0001270712Y0002994442D01*
X0001270095Y0002993762D01*
X0001269416Y0002993146D01*
X0001268679Y0002992599D01*
X0001267891Y0002992127D01*
X0001267062Y0002991735D01*
X0001266198Y0002991426D01*
X0001265308Y0002991203D01*
X0001264400Y0002991068D01*
X0001263484Y0002991023D01*
X0001244783Y0002991023D01*
X0001243866Y0002991068D01*
X0001242959Y0002991203D01*
X0001242069Y0002991426D01*
X0001241205Y0002991735D01*
X0001240375Y0002992127D01*
X0001239588Y0002992599D01*
X0001238851Y0002993146D01*
X0001238171Y0002993762D01*
X0001237555Y0002994442D01*
X0001237008Y0002995179D01*
X0001236537Y0002995966D01*
X0001236144Y0002996795D01*
X0001235835Y0002997659D01*
X0001235612Y0002998549D01*
X0001235478Y0002999457D01*
X0001235433Y0003000373D01*
X0001235433Y0003023011D01*
X0001235478Y0003023928D01*
X0001235612Y0003024835D01*
X0001235835Y0003025726D01*
X0001236144Y0003026590D01*
X0001236537Y0003027419D01*
X0001237008Y0003028206D01*
X0001237555Y0003028943D01*
X0001238171Y0003029623D01*
X0001238851Y0003030239D01*
X0001239588Y0003030786D01*
X0001240375Y0003031258D01*
X0001241205Y0003031650D01*
X0001242069Y0003031959D01*
X0001242959Y0003032182D01*
X0001243866Y0003032317D01*
X0001244783Y0003032362D01*
X0001263484Y0003032362D01*
X0001264400Y0003032317D01*
X0001264400Y0003032317D01*
G37*
D13*
X0001254133Y0003011692D03*
D12*
G36*
X0001264400Y0002963419D02*
G01*
X0001265308Y0002963284D01*
X0001266198Y0002963061D01*
X0001267062Y0002962752D01*
X0001267891Y0002962360D01*
X0001268679Y0002961888D01*
X0001269416Y0002961342D01*
X0001270095Y0002960725D01*
X0001270712Y0002960045D01*
X0001271258Y0002959308D01*
X0001271730Y0002958521D01*
X0001272122Y0002957692D01*
X0001272431Y0002956828D01*
X0001272654Y0002955938D01*
X0001272789Y0002955030D01*
X0001272834Y0002954114D01*
X0001272834Y0002931476D01*
X0001272789Y0002930559D01*
X0001272654Y0002929652D01*
X0001272431Y0002928762D01*
X0001272122Y0002927898D01*
X0001271730Y0002927068D01*
X0001271258Y0002926281D01*
X0001270712Y0002925544D01*
X0001270095Y0002924864D01*
X0001269416Y0002924248D01*
X0001268679Y0002923701D01*
X0001267891Y0002923230D01*
X0001267062Y0002922837D01*
X0001266198Y0002922528D01*
X0001265308Y0002922305D01*
X0001264400Y0002922170D01*
X0001263484Y0002922125D01*
X0001244783Y0002922125D01*
X0001243866Y0002922170D01*
X0001242959Y0002922305D01*
X0001242069Y0002922528D01*
X0001241205Y0002922837D01*
X0001240375Y0002923230D01*
X0001239588Y0002923701D01*
X0001238851Y0002924248D01*
X0001238171Y0002924864D01*
X0001237555Y0002925544D01*
X0001237008Y0002926281D01*
X0001236537Y0002927068D01*
X0001236144Y0002927898D01*
X0001235835Y0002928762D01*
X0001235612Y0002929652D01*
X0001235478Y0002930559D01*
X0001235433Y0002931476D01*
X0001235433Y0002954114D01*
X0001235478Y0002955030D01*
X0001235612Y0002955938D01*
X0001235835Y0002956828D01*
X0001236144Y0002957692D01*
X0001236537Y0002958521D01*
X0001237008Y0002959308D01*
X0001237555Y0002960045D01*
X0001238171Y0002960725D01*
X0001238851Y0002961342D01*
X0001239588Y0002961888D01*
X0001240375Y0002962360D01*
X0001241205Y0002962752D01*
X0001242069Y0002963061D01*
X0001242959Y0002963284D01*
X0001243866Y0002963419D01*
X0001244783Y0002963464D01*
X0001263484Y0002963464D01*
X0001264400Y0002963419D01*
X0001264400Y0002963419D01*
G37*
D13*
X0001254133Y0002942795D03*
D14*
X0001391338Y0002824094D03*
X0001391338Y0002724094D03*
X0001391338Y0002624094D03*
X0001192519Y0002824094D03*
X0001192519Y0002724094D03*
X0001192519Y0002624094D03*
D12*
G36*
X0000982983Y0003031490D02*
G01*
X0000983891Y0003031355D01*
X0000984781Y0003031132D01*
X0000985645Y0003030823D01*
X0000986474Y0003030431D01*
X0000987261Y0003029959D01*
X0000987998Y0003029412D01*
X0000988678Y0003028796D01*
X0000989294Y0003028116D01*
X0000989841Y0003027379D01*
X0000990313Y0003026592D01*
X0000990705Y0003025763D01*
X0000991014Y0003024899D01*
X0000991237Y0003024009D01*
X0000991372Y0003023101D01*
X0000991417Y0003022185D01*
X0000991417Y0003003484D01*
X0000991372Y0003002567D01*
X0000991237Y0003001660D01*
X0000991014Y0003000769D01*
X0000990705Y0002999905D01*
X0000990313Y0002999076D01*
X0000989841Y0002998289D01*
X0000989294Y0002997552D01*
X0000988678Y0002996872D01*
X0000987998Y0002996256D01*
X0000987261Y0002995709D01*
X0000986474Y0002995237D01*
X0000985645Y0002994845D01*
X0000984781Y0002994536D01*
X0000983891Y0002994313D01*
X0000982983Y0002994178D01*
X0000982066Y0002994133D01*
X0000959429Y0002994133D01*
X0000958512Y0002994178D01*
X0000957604Y0002994313D01*
X0000956714Y0002994536D01*
X0000955850Y0002994845D01*
X0000955021Y0002995237D01*
X0000954234Y0002995709D01*
X0000953497Y0002996256D01*
X0000952817Y0002996872D01*
X0000952201Y0002997552D01*
X0000951654Y0002998289D01*
X0000951182Y0002999076D01*
X0000950790Y0002999905D01*
X0000950481Y0003000769D01*
X0000950258Y0003001660D01*
X0000950123Y0003002567D01*
X0000950078Y0003003484D01*
X0000950078Y0003022185D01*
X0000950123Y0003023101D01*
X0000950258Y0003024009D01*
X0000950481Y0003024899D01*
X0000950790Y0003025763D01*
X0000951182Y0003026592D01*
X0000951654Y0003027379D01*
X0000952201Y0003028116D01*
X0000952817Y0003028796D01*
X0000953497Y0003029412D01*
X0000954234Y0003029959D01*
X0000955021Y0003030431D01*
X0000955850Y0003030823D01*
X0000956714Y0003031132D01*
X0000957604Y0003031355D01*
X0000958512Y0003031490D01*
X0000959429Y0003031535D01*
X0000982066Y0003031535D01*
X0000982983Y0003031490D01*
X0000982983Y0003031490D01*
G37*
D13*
X0000970748Y0003012834D03*
D12*
G36*
X0001051881Y0003031490D02*
G01*
X0001052788Y0003031355D01*
X0001053678Y0003031132D01*
X0001054542Y0003030823D01*
X0001055372Y0003030431D01*
X0001056159Y0003029959D01*
X0001056896Y0003029412D01*
X0001057576Y0003028796D01*
X0001058192Y0003028116D01*
X0001058739Y0003027379D01*
X0001059210Y0003026592D01*
X0001059603Y0003025763D01*
X0001059912Y0003024899D01*
X0001060135Y0003024009D01*
X0001060269Y0003023101D01*
X0001060314Y0003022185D01*
X0001060314Y0003003484D01*
X0001060269Y0003002567D01*
X0001060135Y0003001660D01*
X0001059912Y0003000769D01*
X0001059603Y0002999905D01*
X0001059210Y0002999076D01*
X0001058739Y0002998289D01*
X0001058192Y0002997552D01*
X0001057576Y0002996872D01*
X0001056896Y0002996256D01*
X0001056159Y0002995709D01*
X0001055372Y0002995237D01*
X0001054542Y0002994845D01*
X0001053678Y0002994536D01*
X0001052788Y0002994313D01*
X0001051881Y0002994178D01*
X0001050964Y0002994133D01*
X0001028326Y0002994133D01*
X0001027410Y0002994178D01*
X0001026502Y0002994313D01*
X0001025612Y0002994536D01*
X0001024748Y0002994845D01*
X0001023919Y0002995237D01*
X0001023131Y0002995709D01*
X0001022394Y0002996256D01*
X0001021715Y0002996872D01*
X0001021098Y0002997552D01*
X0001020552Y0002998289D01*
X0001020080Y0002999076D01*
X0001019688Y0002999905D01*
X0001019378Y0003000769D01*
X0001019155Y0003001660D01*
X0001019021Y0003002567D01*
X0001018976Y0003003484D01*
X0001018976Y0003022185D01*
X0001019021Y0003023101D01*
X0001019155Y0003024009D01*
X0001019378Y0003024899D01*
X0001019688Y0003025763D01*
X0001020080Y0003026592D01*
X0001020552Y0003027379D01*
X0001021098Y0003028116D01*
X0001021715Y0003028796D01*
X0001022394Y0003029412D01*
X0001023131Y0003029959D01*
X0001023919Y0003030431D01*
X0001024748Y0003030823D01*
X0001025612Y0003031132D01*
X0001026502Y0003031355D01*
X0001027410Y0003031490D01*
X0001028326Y0003031535D01*
X0001050964Y0003031535D01*
X0001051881Y0003031490D01*
X0001051881Y0003031490D01*
G37*
D13*
X0001039645Y0003012834D03*
D14*
X0001392086Y0002468070D03*
X0001392086Y0002368070D03*
X0001193267Y0002468070D03*
X0001193267Y0002368070D03*
D12*
G36*
X0000840070Y0002958143D02*
G01*
X0000840977Y0002958009D01*
X0000841867Y0002957786D01*
X0000842731Y0002957477D01*
X0000843561Y0002957084D01*
X0000844348Y0002956613D01*
X0000845085Y0002956066D01*
X0000845765Y0002955450D01*
X0000846381Y0002954770D01*
X0000846928Y0002954033D01*
X0000847399Y0002953246D01*
X0000847792Y0002952416D01*
X0000848101Y0002951552D01*
X0000848324Y0002950662D01*
X0000848458Y0002949755D01*
X0000848503Y0002948838D01*
X0000848503Y0002930137D01*
X0000848458Y0002929221D01*
X0000848324Y0002928313D01*
X0000848101Y0002927423D01*
X0000847792Y0002926559D01*
X0000847399Y0002925730D01*
X0000846928Y0002924942D01*
X0000846381Y0002924205D01*
X0000845765Y0002923526D01*
X0000845085Y0002922909D01*
X0000844348Y0002922363D01*
X0000843561Y0002921891D01*
X0000842731Y0002921499D01*
X0000841867Y0002921190D01*
X0000840977Y0002920967D01*
X0000840070Y0002920832D01*
X0000839153Y0002920787D01*
X0000816515Y0002920787D01*
X0000815599Y0002920832D01*
X0000814691Y0002920967D01*
X0000813801Y0002921190D01*
X0000812937Y0002921499D01*
X0000812107Y0002921891D01*
X0000811320Y0002922363D01*
X0000810583Y0002922909D01*
X0000809904Y0002923526D01*
X0000809287Y0002924205D01*
X0000808741Y0002924942D01*
X0000808269Y0002925730D01*
X0000807877Y0002926559D01*
X0000807567Y0002927423D01*
X0000807345Y0002928313D01*
X0000807210Y0002929221D01*
X0000807165Y0002930137D01*
X0000807165Y0002948838D01*
X0000807210Y0002949755D01*
X0000807345Y0002950662D01*
X0000807567Y0002951552D01*
X0000807877Y0002952416D01*
X0000808269Y0002953246D01*
X0000808741Y0002954033D01*
X0000809287Y0002954770D01*
X0000809904Y0002955450D01*
X0000810583Y0002956066D01*
X0000811320Y0002956613D01*
X0000812107Y0002957084D01*
X0000812937Y0002957477D01*
X0000813801Y0002957786D01*
X0000814691Y0002958009D01*
X0000815599Y0002958143D01*
X0000816515Y0002958188D01*
X0000839153Y0002958188D01*
X0000840070Y0002958143D01*
X0000840070Y0002958143D01*
G37*
D13*
X0000827834Y0002939488D03*
D12*
G36*
X0000908967Y0002958143D02*
G01*
X0000909875Y0002958009D01*
X0000910765Y0002957786D01*
X0000911629Y0002957477D01*
X0000912458Y0002957084D01*
X0000913245Y0002956613D01*
X0000913982Y0002956066D01*
X0000914662Y0002955450D01*
X0000915279Y0002954770D01*
X0000915825Y0002954033D01*
X0000916297Y0002953246D01*
X0000916689Y0002952416D01*
X0000916998Y0002951552D01*
X0000917221Y0002950662D01*
X0000917356Y0002949755D01*
X0000917401Y0002948838D01*
X0000917401Y0002930137D01*
X0000917356Y0002929221D01*
X0000917221Y0002928313D01*
X0000916998Y0002927423D01*
X0000916689Y0002926559D01*
X0000916297Y0002925730D01*
X0000915825Y0002924942D01*
X0000915279Y0002924205D01*
X0000914662Y0002923526D01*
X0000913982Y0002922909D01*
X0000913245Y0002922363D01*
X0000912458Y0002921891D01*
X0000911629Y0002921499D01*
X0000910765Y0002921190D01*
X0000909875Y0002920967D01*
X0000908967Y0002920832D01*
X0000908051Y0002920787D01*
X0000885413Y0002920787D01*
X0000884496Y0002920832D01*
X0000883589Y0002920967D01*
X0000882699Y0002921190D01*
X0000881835Y0002921499D01*
X0000881005Y0002921891D01*
X0000880218Y0002922363D01*
X0000879481Y0002922909D01*
X0000878801Y0002923526D01*
X0000878185Y0002924205D01*
X0000877638Y0002924942D01*
X0000877167Y0002925730D01*
X0000876774Y0002926559D01*
X0000876465Y0002927423D01*
X0000876242Y0002928313D01*
X0000876107Y0002929221D01*
X0000876062Y0002930137D01*
X0000876062Y0002948838D01*
X0000876107Y0002949755D01*
X0000876242Y0002950662D01*
X0000876465Y0002951552D01*
X0000876774Y0002952416D01*
X0000877167Y0002953246D01*
X0000877638Y0002954033D01*
X0000878185Y0002954770D01*
X0000878801Y0002955450D01*
X0000879481Y0002956066D01*
X0000880218Y0002956613D01*
X0000881005Y0002957084D01*
X0000881835Y0002957477D01*
X0000882699Y0002957786D01*
X0000883589Y0002958009D01*
X0000884496Y0002958143D01*
X0000885413Y0002958188D01*
X0000908051Y0002958188D01*
X0000908967Y0002958143D01*
X0000908967Y0002958143D01*
G37*
D13*
X0000896732Y0002939488D03*
D12*
G36*
X0001199515Y0003361428D02*
G01*
X0001200089Y0003361343D01*
X0001200651Y0003361202D01*
X0001201196Y0003361007D01*
X0001201720Y0003360759D01*
X0001202217Y0003360461D01*
X0001202683Y0003360116D01*
X0001203112Y0003359727D01*
X0001203502Y0003359297D01*
X0001203847Y0003358832D01*
X0001204145Y0003358335D01*
X0001204392Y0003357811D01*
X0001204588Y0003357265D01*
X0001204729Y0003356703D01*
X0001204814Y0003356130D01*
X0001204842Y0003355551D01*
X0001204842Y0003343740D01*
X0001204814Y0003343161D01*
X0001204729Y0003342588D01*
X0001204588Y0003342025D01*
X0001204392Y0003341480D01*
X0001204145Y0003340956D01*
X0001203847Y0003340459D01*
X0001203502Y0003339993D01*
X0001203112Y0003339564D01*
X0001202683Y0003339175D01*
X0001202217Y0003338829D01*
X0001201720Y0003338531D01*
X0001201196Y0003338284D01*
X0001200651Y0003338088D01*
X0001200089Y0003337948D01*
X0001199515Y0003337863D01*
X0001198937Y0003337834D01*
X0001130039Y0003337834D01*
X0001129460Y0003337863D01*
X0001128887Y0003337948D01*
X0001128325Y0003338088D01*
X0001127779Y0003338284D01*
X0001127255Y0003338531D01*
X0001126758Y0003338829D01*
X0001126292Y0003339175D01*
X0001125863Y0003339564D01*
X0001125474Y0003339993D01*
X0001125129Y0003340459D01*
X0001124831Y0003340956D01*
X0001124583Y0003341480D01*
X0001124388Y0003342025D01*
X0001124247Y0003342588D01*
X0001124162Y0003343161D01*
X0001124133Y0003343740D01*
X0001124133Y0003355551D01*
X0001124162Y0003356130D01*
X0001124247Y0003356703D01*
X0001124388Y0003357265D01*
X0001124583Y0003357811D01*
X0001124831Y0003358335D01*
X0001125129Y0003358832D01*
X0001125474Y0003359297D01*
X0001125863Y0003359727D01*
X0001126292Y0003360116D01*
X0001126758Y0003360461D01*
X0001127255Y0003360759D01*
X0001127779Y0003361007D01*
X0001128325Y0003361202D01*
X0001128887Y0003361343D01*
X0001129460Y0003361428D01*
X0001130039Y0003361456D01*
X0001198937Y0003361456D01*
X0001199515Y0003361428D01*
X0001199515Y0003361428D01*
G37*
D15*
X0001164488Y0003349645D03*
D12*
G36*
X0001199515Y0003411428D02*
G01*
X0001200089Y0003411343D01*
X0001200651Y0003411202D01*
X0001201196Y0003411007D01*
X0001201720Y0003410759D01*
X0001202217Y0003410461D01*
X0001202683Y0003410116D01*
X0001203112Y0003409727D01*
X0001203502Y0003409297D01*
X0001203847Y0003408832D01*
X0001204145Y0003408335D01*
X0001204392Y0003407811D01*
X0001204588Y0003407265D01*
X0001204729Y0003406703D01*
X0001204814Y0003406130D01*
X0001204842Y0003405551D01*
X0001204842Y0003393740D01*
X0001204814Y0003393161D01*
X0001204729Y0003392588D01*
X0001204588Y0003392025D01*
X0001204392Y0003391480D01*
X0001204145Y0003390956D01*
X0001203847Y0003390459D01*
X0001203502Y0003389993D01*
X0001203112Y0003389564D01*
X0001202683Y0003389175D01*
X0001202217Y0003388829D01*
X0001201720Y0003388531D01*
X0001201196Y0003388284D01*
X0001200651Y0003388088D01*
X0001200089Y0003387948D01*
X0001199515Y0003387863D01*
X0001198937Y0003387834D01*
X0001130039Y0003387834D01*
X0001129460Y0003387863D01*
X0001128887Y0003387948D01*
X0001128325Y0003388088D01*
X0001127779Y0003388284D01*
X0001127255Y0003388531D01*
X0001126758Y0003388829D01*
X0001126292Y0003389175D01*
X0001125863Y0003389564D01*
X0001125474Y0003389993D01*
X0001125129Y0003390459D01*
X0001124831Y0003390956D01*
X0001124583Y0003391480D01*
X0001124388Y0003392025D01*
X0001124247Y0003392588D01*
X0001124162Y0003393161D01*
X0001124133Y0003393740D01*
X0001124133Y0003405551D01*
X0001124162Y0003406130D01*
X0001124247Y0003406703D01*
X0001124388Y0003407265D01*
X0001124583Y0003407811D01*
X0001124831Y0003408335D01*
X0001125129Y0003408832D01*
X0001125474Y0003409297D01*
X0001125863Y0003409727D01*
X0001126292Y0003410116D01*
X0001126758Y0003410461D01*
X0001127255Y0003410759D01*
X0001127779Y0003411007D01*
X0001128325Y0003411202D01*
X0001128887Y0003411343D01*
X0001129460Y0003411428D01*
X0001130039Y0003411456D01*
X0001198937Y0003411456D01*
X0001199515Y0003411428D01*
X0001199515Y0003411428D01*
G37*
D15*
X0001164488Y0003399645D03*
D12*
G36*
X0001199515Y0003461428D02*
G01*
X0001200089Y0003461343D01*
X0001200651Y0003461202D01*
X0001201196Y0003461007D01*
X0001201720Y0003460759D01*
X0001202217Y0003460461D01*
X0001202683Y0003460116D01*
X0001203112Y0003459727D01*
X0001203502Y0003459297D01*
X0001203847Y0003458832D01*
X0001204145Y0003458335D01*
X0001204392Y0003457811D01*
X0001204588Y0003457265D01*
X0001204729Y0003456703D01*
X0001204814Y0003456130D01*
X0001204842Y0003455551D01*
X0001204842Y0003443740D01*
X0001204814Y0003443161D01*
X0001204729Y0003442587D01*
X0001204588Y0003442025D01*
X0001204392Y0003441480D01*
X0001204145Y0003440956D01*
X0001203847Y0003440459D01*
X0001203502Y0003439993D01*
X0001203112Y0003439564D01*
X0001202683Y0003439175D01*
X0001202217Y0003438829D01*
X0001201720Y0003438531D01*
X0001201196Y0003438284D01*
X0001200651Y0003438088D01*
X0001200089Y0003437948D01*
X0001199515Y0003437863D01*
X0001198937Y0003437834D01*
X0001130039Y0003437834D01*
X0001129460Y0003437863D01*
X0001128887Y0003437948D01*
X0001128325Y0003438088D01*
X0001127779Y0003438284D01*
X0001127255Y0003438531D01*
X0001126758Y0003438829D01*
X0001126292Y0003439175D01*
X0001125863Y0003439564D01*
X0001125474Y0003439993D01*
X0001125129Y0003440459D01*
X0001124831Y0003440956D01*
X0001124583Y0003441480D01*
X0001124388Y0003442025D01*
X0001124247Y0003442587D01*
X0001124162Y0003443161D01*
X0001124133Y0003443740D01*
X0001124133Y0003455551D01*
X0001124162Y0003456130D01*
X0001124247Y0003456703D01*
X0001124388Y0003457265D01*
X0001124583Y0003457811D01*
X0001124831Y0003458335D01*
X0001125129Y0003458832D01*
X0001125474Y0003459297D01*
X0001125863Y0003459727D01*
X0001126292Y0003460116D01*
X0001126758Y0003460461D01*
X0001127255Y0003460759D01*
X0001127779Y0003461007D01*
X0001128325Y0003461202D01*
X0001128887Y0003461343D01*
X0001129460Y0003461428D01*
X0001130039Y0003461456D01*
X0001198937Y0003461456D01*
X0001199515Y0003461428D01*
X0001199515Y0003461428D01*
G37*
D15*
X0001164488Y0003449645D03*
D12*
G36*
X0001199515Y0003511428D02*
G01*
X0001200089Y0003511343D01*
X0001200651Y0003511202D01*
X0001201196Y0003511007D01*
X0001201720Y0003510759D01*
X0001202217Y0003510461D01*
X0001202683Y0003510116D01*
X0001203112Y0003509727D01*
X0001203502Y0003509297D01*
X0001203847Y0003508832D01*
X0001204145Y0003508335D01*
X0001204392Y0003507811D01*
X0001204588Y0003507265D01*
X0001204729Y0003506703D01*
X0001204814Y0003506130D01*
X0001204842Y0003505551D01*
X0001204842Y0003493740D01*
X0001204814Y0003493161D01*
X0001204729Y0003492588D01*
X0001204588Y0003492025D01*
X0001204392Y0003491480D01*
X0001204145Y0003490956D01*
X0001203847Y0003490459D01*
X0001203502Y0003489993D01*
X0001203112Y0003489564D01*
X0001202683Y0003489175D01*
X0001202217Y0003488829D01*
X0001201720Y0003488531D01*
X0001201196Y0003488284D01*
X0001200651Y0003488088D01*
X0001200089Y0003487948D01*
X0001199515Y0003487863D01*
X0001198937Y0003487834D01*
X0001130039Y0003487834D01*
X0001129460Y0003487863D01*
X0001128887Y0003487948D01*
X0001128325Y0003488088D01*
X0001127779Y0003488284D01*
X0001127255Y0003488531D01*
X0001126758Y0003488829D01*
X0001126292Y0003489175D01*
X0001125863Y0003489564D01*
X0001125474Y0003489993D01*
X0001125129Y0003490459D01*
X0001124831Y0003490956D01*
X0001124583Y0003491480D01*
X0001124388Y0003492025D01*
X0001124247Y0003492588D01*
X0001124162Y0003493161D01*
X0001124133Y0003493740D01*
X0001124133Y0003505551D01*
X0001124162Y0003506130D01*
X0001124247Y0003506703D01*
X0001124388Y0003507265D01*
X0001124583Y0003507811D01*
X0001124831Y0003508335D01*
X0001125129Y0003508832D01*
X0001125474Y0003509297D01*
X0001125863Y0003509727D01*
X0001126292Y0003510116D01*
X0001126758Y0003510461D01*
X0001127255Y0003510759D01*
X0001127779Y0003511007D01*
X0001128325Y0003511202D01*
X0001128887Y0003511343D01*
X0001129460Y0003511428D01*
X0001130039Y0003511456D01*
X0001198937Y0003511456D01*
X0001199515Y0003511428D01*
X0001199515Y0003511428D01*
G37*
D15*
X0001164488Y0003499645D03*
D12*
G36*
X0001199515Y0003561428D02*
G01*
X0001200089Y0003561343D01*
X0001200651Y0003561202D01*
X0001201196Y0003561007D01*
X0001201720Y0003560759D01*
X0001202217Y0003560461D01*
X0001202683Y0003560116D01*
X0001203112Y0003559727D01*
X0001203502Y0003559297D01*
X0001203847Y0003558832D01*
X0001204145Y0003558335D01*
X0001204392Y0003557811D01*
X0001204588Y0003557265D01*
X0001204729Y0003556703D01*
X0001204814Y0003556130D01*
X0001204842Y0003555551D01*
X0001204842Y0003543740D01*
X0001204814Y0003543161D01*
X0001204729Y0003542588D01*
X0001204588Y0003542025D01*
X0001204392Y0003541480D01*
X0001204145Y0003540956D01*
X0001203847Y0003540459D01*
X0001203502Y0003539993D01*
X0001203112Y0003539564D01*
X0001202683Y0003539175D01*
X0001202217Y0003538829D01*
X0001201720Y0003538531D01*
X0001201196Y0003538284D01*
X0001200651Y0003538088D01*
X0001200089Y0003537948D01*
X0001199515Y0003537863D01*
X0001198937Y0003537834D01*
X0001130039Y0003537834D01*
X0001129460Y0003537863D01*
X0001128887Y0003537948D01*
X0001128325Y0003538088D01*
X0001127779Y0003538284D01*
X0001127255Y0003538531D01*
X0001126758Y0003538829D01*
X0001126292Y0003539175D01*
X0001125863Y0003539564D01*
X0001125474Y0003539993D01*
X0001125129Y0003540459D01*
X0001124831Y0003540956D01*
X0001124583Y0003541480D01*
X0001124388Y0003542025D01*
X0001124247Y0003542588D01*
X0001124162Y0003543161D01*
X0001124133Y0003543740D01*
X0001124133Y0003555551D01*
X0001124162Y0003556130D01*
X0001124247Y0003556703D01*
X0001124388Y0003557265D01*
X0001124583Y0003557811D01*
X0001124831Y0003558335D01*
X0001125129Y0003558832D01*
X0001125474Y0003559297D01*
X0001125863Y0003559727D01*
X0001126292Y0003560116D01*
X0001126758Y0003560461D01*
X0001127255Y0003560759D01*
X0001127779Y0003561007D01*
X0001128325Y0003561202D01*
X0001128887Y0003561343D01*
X0001129460Y0003561428D01*
X0001130039Y0003561456D01*
X0001198937Y0003561456D01*
X0001199515Y0003561428D01*
X0001199515Y0003561428D01*
G37*
D15*
X0001164488Y0003549645D03*
D12*
G36*
X0001199515Y0003611428D02*
G01*
X0001200089Y0003611343D01*
X0001200651Y0003611202D01*
X0001201196Y0003611007D01*
X0001201720Y0003610759D01*
X0001202217Y0003610461D01*
X0001202683Y0003610116D01*
X0001203112Y0003609727D01*
X0001203502Y0003609297D01*
X0001203847Y0003608832D01*
X0001204145Y0003608335D01*
X0001204392Y0003607811D01*
X0001204588Y0003607265D01*
X0001204729Y0003606703D01*
X0001204814Y0003606130D01*
X0001204842Y0003605551D01*
X0001204842Y0003593740D01*
X0001204814Y0003593161D01*
X0001204729Y0003592588D01*
X0001204588Y0003592025D01*
X0001204392Y0003591480D01*
X0001204145Y0003590956D01*
X0001203847Y0003590459D01*
X0001203502Y0003589993D01*
X0001203112Y0003589564D01*
X0001202683Y0003589175D01*
X0001202217Y0003588829D01*
X0001201720Y0003588531D01*
X0001201196Y0003588284D01*
X0001200651Y0003588088D01*
X0001200089Y0003587948D01*
X0001199515Y0003587863D01*
X0001198937Y0003587834D01*
X0001130039Y0003587834D01*
X0001129460Y0003587863D01*
X0001128887Y0003587948D01*
X0001128325Y0003588088D01*
X0001127779Y0003588284D01*
X0001127255Y0003588531D01*
X0001126758Y0003588829D01*
X0001126292Y0003589175D01*
X0001125863Y0003589564D01*
X0001125474Y0003589993D01*
X0001125129Y0003590459D01*
X0001124831Y0003590956D01*
X0001124583Y0003591480D01*
X0001124388Y0003592025D01*
X0001124247Y0003592588D01*
X0001124162Y0003593161D01*
X0001124133Y0003593740D01*
X0001124133Y0003605551D01*
X0001124162Y0003606130D01*
X0001124247Y0003606703D01*
X0001124388Y0003607265D01*
X0001124583Y0003607811D01*
X0001124831Y0003608335D01*
X0001125129Y0003608832D01*
X0001125474Y0003609297D01*
X0001125863Y0003609727D01*
X0001126292Y0003610116D01*
X0001126758Y0003610461D01*
X0001127255Y0003610759D01*
X0001127779Y0003611007D01*
X0001128325Y0003611202D01*
X0001128887Y0003611343D01*
X0001129460Y0003611428D01*
X0001130039Y0003611456D01*
X0001198937Y0003611456D01*
X0001199515Y0003611428D01*
X0001199515Y0003611428D01*
G37*
D15*
X0001164488Y0003599645D03*
D12*
G36*
X0001199515Y0003661428D02*
G01*
X0001200089Y0003661343D01*
X0001200651Y0003661202D01*
X0001201196Y0003661007D01*
X0001201720Y0003660759D01*
X0001202217Y0003660461D01*
X0001202683Y0003660116D01*
X0001203112Y0003659727D01*
X0001203502Y0003659297D01*
X0001203847Y0003658832D01*
X0001204145Y0003658335D01*
X0001204392Y0003657811D01*
X0001204588Y0003657265D01*
X0001204729Y0003656703D01*
X0001204814Y0003656130D01*
X0001204842Y0003655551D01*
X0001204842Y0003643740D01*
X0001204814Y0003643161D01*
X0001204729Y0003642588D01*
X0001204588Y0003642025D01*
X0001204392Y0003641480D01*
X0001204145Y0003640956D01*
X0001203847Y0003640459D01*
X0001203502Y0003639993D01*
X0001203112Y0003639564D01*
X0001202683Y0003639175D01*
X0001202217Y0003638829D01*
X0001201720Y0003638531D01*
X0001201196Y0003638284D01*
X0001200651Y0003638088D01*
X0001200089Y0003637948D01*
X0001199515Y0003637863D01*
X0001198937Y0003637834D01*
X0001130039Y0003637834D01*
X0001129460Y0003637863D01*
X0001128887Y0003637948D01*
X0001128325Y0003638088D01*
X0001127779Y0003638284D01*
X0001127255Y0003638531D01*
X0001126758Y0003638829D01*
X0001126292Y0003639175D01*
X0001125863Y0003639564D01*
X0001125474Y0003639993D01*
X0001125129Y0003640459D01*
X0001124831Y0003640956D01*
X0001124583Y0003641480D01*
X0001124388Y0003642025D01*
X0001124247Y0003642588D01*
X0001124162Y0003643161D01*
X0001124133Y0003643740D01*
X0001124133Y0003655551D01*
X0001124162Y0003656130D01*
X0001124247Y0003656703D01*
X0001124388Y0003657265D01*
X0001124583Y0003657811D01*
X0001124831Y0003658335D01*
X0001125129Y0003658832D01*
X0001125474Y0003659297D01*
X0001125863Y0003659727D01*
X0001126292Y0003660116D01*
X0001126758Y0003660461D01*
X0001127255Y0003660759D01*
X0001127779Y0003661007D01*
X0001128325Y0003661202D01*
X0001128887Y0003661343D01*
X0001129460Y0003661428D01*
X0001130039Y0003661456D01*
X0001198937Y0003661456D01*
X0001199515Y0003661428D01*
X0001199515Y0003661428D01*
G37*
D15*
X0001164488Y0003649645D03*
D12*
G36*
X0001199515Y0003711428D02*
G01*
X0001200089Y0003711343D01*
X0001200651Y0003711202D01*
X0001201196Y0003711007D01*
X0001201720Y0003710759D01*
X0001202217Y0003710461D01*
X0001202683Y0003710116D01*
X0001203112Y0003709727D01*
X0001203502Y0003709297D01*
X0001203847Y0003708832D01*
X0001204145Y0003708335D01*
X0001204392Y0003707811D01*
X0001204588Y0003707265D01*
X0001204729Y0003706703D01*
X0001204814Y0003706130D01*
X0001204842Y0003705551D01*
X0001204842Y0003693740D01*
X0001204814Y0003693161D01*
X0001204729Y0003692588D01*
X0001204588Y0003692025D01*
X0001204392Y0003691480D01*
X0001204145Y0003690956D01*
X0001203847Y0003690459D01*
X0001203502Y0003689993D01*
X0001203112Y0003689564D01*
X0001202683Y0003689175D01*
X0001202217Y0003688829D01*
X0001201720Y0003688531D01*
X0001201196Y0003688284D01*
X0001200651Y0003688088D01*
X0001200089Y0003687948D01*
X0001199515Y0003687863D01*
X0001198937Y0003687834D01*
X0001130039Y0003687834D01*
X0001129460Y0003687863D01*
X0001128887Y0003687948D01*
X0001128325Y0003688088D01*
X0001127779Y0003688284D01*
X0001127255Y0003688531D01*
X0001126758Y0003688829D01*
X0001126292Y0003689175D01*
X0001125863Y0003689564D01*
X0001125474Y0003689993D01*
X0001125129Y0003690459D01*
X0001124831Y0003690956D01*
X0001124583Y0003691480D01*
X0001124388Y0003692025D01*
X0001124247Y0003692588D01*
X0001124162Y0003693161D01*
X0001124133Y0003693740D01*
X0001124133Y0003705551D01*
X0001124162Y0003706130D01*
X0001124247Y0003706703D01*
X0001124388Y0003707265D01*
X0001124583Y0003707811D01*
X0001124831Y0003708335D01*
X0001125129Y0003708832D01*
X0001125474Y0003709297D01*
X0001125863Y0003709727D01*
X0001126292Y0003710116D01*
X0001126758Y0003710461D01*
X0001127255Y0003710759D01*
X0001127779Y0003711007D01*
X0001128325Y0003711202D01*
X0001128887Y0003711343D01*
X0001129460Y0003711428D01*
X0001130039Y0003711456D01*
X0001198937Y0003711456D01*
X0001199515Y0003711428D01*
X0001199515Y0003711428D01*
G37*
D15*
X0001164488Y0003699645D03*
D12*
G36*
X0000833374Y0003711428D02*
G01*
X0000833947Y0003711343D01*
X0000834509Y0003711202D01*
X0000835055Y0003711007D01*
X0000835579Y0003710759D01*
X0000836076Y0003710461D01*
X0000836541Y0003710116D01*
X0000836971Y0003709727D01*
X0000837360Y0003709297D01*
X0000837705Y0003708832D01*
X0000838003Y0003708335D01*
X0000838251Y0003707811D01*
X0000838446Y0003707265D01*
X0000838587Y0003706703D01*
X0000838672Y0003706130D01*
X0000838700Y0003705551D01*
X0000838700Y0003693740D01*
X0000838672Y0003693161D01*
X0000838587Y0003692588D01*
X0000838446Y0003692025D01*
X0000838251Y0003691480D01*
X0000838003Y0003690956D01*
X0000837705Y0003690459D01*
X0000837360Y0003689993D01*
X0000836971Y0003689564D01*
X0000836541Y0003689175D01*
X0000836076Y0003688829D01*
X0000835579Y0003688531D01*
X0000835055Y0003688284D01*
X0000834509Y0003688088D01*
X0000833947Y0003687948D01*
X0000833374Y0003687863D01*
X0000832795Y0003687834D01*
X0000763897Y0003687834D01*
X0000763318Y0003687863D01*
X0000762745Y0003687948D01*
X0000762183Y0003688088D01*
X0000761637Y0003688284D01*
X0000761113Y0003688531D01*
X0000760616Y0003688829D01*
X0000760151Y0003689175D01*
X0000759721Y0003689564D01*
X0000759332Y0003689993D01*
X0000758987Y0003690459D01*
X0000758689Y0003690956D01*
X0000758441Y0003691480D01*
X0000758246Y0003692025D01*
X0000758105Y0003692588D01*
X0000758020Y0003693161D01*
X0000757992Y0003693740D01*
X0000757992Y0003705551D01*
X0000758020Y0003706130D01*
X0000758105Y0003706703D01*
X0000758246Y0003707265D01*
X0000758441Y0003707811D01*
X0000758689Y0003708335D01*
X0000758987Y0003708832D01*
X0000759332Y0003709297D01*
X0000759721Y0003709727D01*
X0000760151Y0003710116D01*
X0000760616Y0003710461D01*
X0000761113Y0003710759D01*
X0000761637Y0003711007D01*
X0000762183Y0003711202D01*
X0000762745Y0003711343D01*
X0000763318Y0003711428D01*
X0000763897Y0003711456D01*
X0000832795Y0003711456D01*
X0000833374Y0003711428D01*
X0000833374Y0003711428D01*
G37*
D15*
X0000798346Y0003699645D03*
D12*
G36*
X0000833374Y0003661428D02*
G01*
X0000833947Y0003661343D01*
X0000834509Y0003661202D01*
X0000835055Y0003661007D01*
X0000835579Y0003660759D01*
X0000836076Y0003660461D01*
X0000836541Y0003660116D01*
X0000836971Y0003659727D01*
X0000837360Y0003659297D01*
X0000837705Y0003658832D01*
X0000838003Y0003658335D01*
X0000838251Y0003657811D01*
X0000838446Y0003657265D01*
X0000838587Y0003656703D01*
X0000838672Y0003656130D01*
X0000838700Y0003655551D01*
X0000838700Y0003643740D01*
X0000838672Y0003643161D01*
X0000838587Y0003642588D01*
X0000838446Y0003642025D01*
X0000838251Y0003641480D01*
X0000838003Y0003640956D01*
X0000837705Y0003640459D01*
X0000837360Y0003639993D01*
X0000836971Y0003639564D01*
X0000836541Y0003639175D01*
X0000836076Y0003638829D01*
X0000835579Y0003638531D01*
X0000835055Y0003638284D01*
X0000834509Y0003638088D01*
X0000833947Y0003637948D01*
X0000833374Y0003637863D01*
X0000832795Y0003637834D01*
X0000763897Y0003637834D01*
X0000763318Y0003637863D01*
X0000762745Y0003637948D01*
X0000762183Y0003638088D01*
X0000761637Y0003638284D01*
X0000761113Y0003638531D01*
X0000760616Y0003638829D01*
X0000760151Y0003639175D01*
X0000759721Y0003639564D01*
X0000759332Y0003639993D01*
X0000758987Y0003640459D01*
X0000758689Y0003640956D01*
X0000758441Y0003641480D01*
X0000758246Y0003642025D01*
X0000758105Y0003642588D01*
X0000758020Y0003643161D01*
X0000757992Y0003643740D01*
X0000757992Y0003655551D01*
X0000758020Y0003656130D01*
X0000758105Y0003656703D01*
X0000758246Y0003657265D01*
X0000758441Y0003657811D01*
X0000758689Y0003658335D01*
X0000758987Y0003658832D01*
X0000759332Y0003659297D01*
X0000759721Y0003659727D01*
X0000760151Y0003660116D01*
X0000760616Y0003660461D01*
X0000761113Y0003660759D01*
X0000761637Y0003661007D01*
X0000762183Y0003661202D01*
X0000762745Y0003661343D01*
X0000763318Y0003661428D01*
X0000763897Y0003661456D01*
X0000832795Y0003661456D01*
X0000833374Y0003661428D01*
X0000833374Y0003661428D01*
G37*
D15*
X0000798346Y0003649645D03*
D12*
G36*
X0000833374Y0003611428D02*
G01*
X0000833947Y0003611343D01*
X0000834509Y0003611202D01*
X0000835055Y0003611007D01*
X0000835579Y0003610759D01*
X0000836076Y0003610461D01*
X0000836541Y0003610116D01*
X0000836971Y0003609727D01*
X0000837360Y0003609297D01*
X0000837705Y0003608832D01*
X0000838003Y0003608335D01*
X0000838251Y0003607811D01*
X0000838446Y0003607265D01*
X0000838587Y0003606703D01*
X0000838672Y0003606130D01*
X0000838700Y0003605551D01*
X0000838700Y0003593740D01*
X0000838672Y0003593161D01*
X0000838587Y0003592588D01*
X0000838446Y0003592025D01*
X0000838251Y0003591480D01*
X0000838003Y0003590956D01*
X0000837705Y0003590459D01*
X0000837360Y0003589993D01*
X0000836971Y0003589564D01*
X0000836541Y0003589175D01*
X0000836076Y0003588829D01*
X0000835579Y0003588531D01*
X0000835055Y0003588284D01*
X0000834509Y0003588088D01*
X0000833947Y0003587948D01*
X0000833374Y0003587863D01*
X0000832795Y0003587834D01*
X0000763897Y0003587834D01*
X0000763318Y0003587863D01*
X0000762745Y0003587948D01*
X0000762183Y0003588088D01*
X0000761637Y0003588284D01*
X0000761113Y0003588531D01*
X0000760616Y0003588829D01*
X0000760151Y0003589175D01*
X0000759721Y0003589564D01*
X0000759332Y0003589993D01*
X0000758987Y0003590459D01*
X0000758689Y0003590956D01*
X0000758441Y0003591480D01*
X0000758246Y0003592025D01*
X0000758105Y0003592588D01*
X0000758020Y0003593161D01*
X0000757992Y0003593740D01*
X0000757992Y0003605551D01*
X0000758020Y0003606130D01*
X0000758105Y0003606703D01*
X0000758246Y0003607265D01*
X0000758441Y0003607811D01*
X0000758689Y0003608335D01*
X0000758987Y0003608832D01*
X0000759332Y0003609297D01*
X0000759721Y0003609727D01*
X0000760151Y0003610116D01*
X0000760616Y0003610461D01*
X0000761113Y0003610759D01*
X0000761637Y0003611007D01*
X0000762183Y0003611202D01*
X0000762745Y0003611343D01*
X0000763318Y0003611428D01*
X0000763897Y0003611456D01*
X0000832795Y0003611456D01*
X0000833374Y0003611428D01*
X0000833374Y0003611428D01*
G37*
D15*
X0000798346Y0003599645D03*
D12*
G36*
X0000833374Y0003561428D02*
G01*
X0000833947Y0003561343D01*
X0000834509Y0003561202D01*
X0000835055Y0003561007D01*
X0000835579Y0003560759D01*
X0000836076Y0003560461D01*
X0000836541Y0003560116D01*
X0000836971Y0003559727D01*
X0000837360Y0003559297D01*
X0000837705Y0003558832D01*
X0000838003Y0003558335D01*
X0000838251Y0003557811D01*
X0000838446Y0003557265D01*
X0000838587Y0003556703D01*
X0000838672Y0003556130D01*
X0000838700Y0003555551D01*
X0000838700Y0003543740D01*
X0000838672Y0003543161D01*
X0000838587Y0003542588D01*
X0000838446Y0003542025D01*
X0000838251Y0003541480D01*
X0000838003Y0003540956D01*
X0000837705Y0003540459D01*
X0000837360Y0003539993D01*
X0000836971Y0003539564D01*
X0000836541Y0003539175D01*
X0000836076Y0003538829D01*
X0000835579Y0003538531D01*
X0000835055Y0003538284D01*
X0000834509Y0003538088D01*
X0000833947Y0003537948D01*
X0000833374Y0003537863D01*
X0000832795Y0003537834D01*
X0000763897Y0003537834D01*
X0000763318Y0003537863D01*
X0000762745Y0003537948D01*
X0000762183Y0003538088D01*
X0000761637Y0003538284D01*
X0000761113Y0003538531D01*
X0000760616Y0003538829D01*
X0000760151Y0003539175D01*
X0000759721Y0003539564D01*
X0000759332Y0003539993D01*
X0000758987Y0003540459D01*
X0000758689Y0003540956D01*
X0000758441Y0003541480D01*
X0000758246Y0003542025D01*
X0000758105Y0003542588D01*
X0000758020Y0003543161D01*
X0000757992Y0003543740D01*
X0000757992Y0003555551D01*
X0000758020Y0003556130D01*
X0000758105Y0003556703D01*
X0000758246Y0003557265D01*
X0000758441Y0003557811D01*
X0000758689Y0003558335D01*
X0000758987Y0003558832D01*
X0000759332Y0003559297D01*
X0000759721Y0003559727D01*
X0000760151Y0003560116D01*
X0000760616Y0003560461D01*
X0000761113Y0003560759D01*
X0000761637Y0003561007D01*
X0000762183Y0003561202D01*
X0000762745Y0003561343D01*
X0000763318Y0003561428D01*
X0000763897Y0003561456D01*
X0000832795Y0003561456D01*
X0000833374Y0003561428D01*
X0000833374Y0003561428D01*
G37*
D15*
X0000798346Y0003549645D03*
D12*
G36*
X0000833374Y0003511428D02*
G01*
X0000833947Y0003511343D01*
X0000834509Y0003511202D01*
X0000835055Y0003511007D01*
X0000835579Y0003510759D01*
X0000836076Y0003510461D01*
X0000836541Y0003510116D01*
X0000836971Y0003509727D01*
X0000837360Y0003509297D01*
X0000837705Y0003508832D01*
X0000838003Y0003508335D01*
X0000838251Y0003507811D01*
X0000838446Y0003507265D01*
X0000838587Y0003506703D01*
X0000838672Y0003506130D01*
X0000838700Y0003505551D01*
X0000838700Y0003493740D01*
X0000838672Y0003493161D01*
X0000838587Y0003492588D01*
X0000838446Y0003492025D01*
X0000838251Y0003491480D01*
X0000838003Y0003490956D01*
X0000837705Y0003490459D01*
X0000837360Y0003489993D01*
X0000836971Y0003489564D01*
X0000836541Y0003489175D01*
X0000836076Y0003488829D01*
X0000835579Y0003488531D01*
X0000835055Y0003488284D01*
X0000834509Y0003488088D01*
X0000833947Y0003487948D01*
X0000833374Y0003487863D01*
X0000832795Y0003487834D01*
X0000763897Y0003487834D01*
X0000763318Y0003487863D01*
X0000762745Y0003487948D01*
X0000762183Y0003488088D01*
X0000761637Y0003488284D01*
X0000761113Y0003488531D01*
X0000760616Y0003488829D01*
X0000760151Y0003489175D01*
X0000759721Y0003489564D01*
X0000759332Y0003489993D01*
X0000758987Y0003490459D01*
X0000758689Y0003490956D01*
X0000758441Y0003491480D01*
X0000758246Y0003492025D01*
X0000758105Y0003492588D01*
X0000758020Y0003493161D01*
X0000757992Y0003493740D01*
X0000757992Y0003505551D01*
X0000758020Y0003506130D01*
X0000758105Y0003506703D01*
X0000758246Y0003507265D01*
X0000758441Y0003507811D01*
X0000758689Y0003508335D01*
X0000758987Y0003508832D01*
X0000759332Y0003509297D01*
X0000759721Y0003509727D01*
X0000760151Y0003510116D01*
X0000760616Y0003510461D01*
X0000761113Y0003510759D01*
X0000761637Y0003511007D01*
X0000762183Y0003511202D01*
X0000762745Y0003511343D01*
X0000763318Y0003511428D01*
X0000763897Y0003511456D01*
X0000832795Y0003511456D01*
X0000833374Y0003511428D01*
X0000833374Y0003511428D01*
G37*
D15*
X0000798346Y0003499645D03*
D12*
G36*
X0000833374Y0003461428D02*
G01*
X0000833947Y0003461343D01*
X0000834509Y0003461202D01*
X0000835055Y0003461007D01*
X0000835579Y0003460759D01*
X0000836076Y0003460461D01*
X0000836541Y0003460116D01*
X0000836971Y0003459727D01*
X0000837360Y0003459297D01*
X0000837705Y0003458832D01*
X0000838003Y0003458335D01*
X0000838251Y0003457811D01*
X0000838446Y0003457265D01*
X0000838587Y0003456703D01*
X0000838672Y0003456130D01*
X0000838700Y0003455551D01*
X0000838700Y0003443740D01*
X0000838672Y0003443161D01*
X0000838587Y0003442587D01*
X0000838446Y0003442025D01*
X0000838251Y0003441480D01*
X0000838003Y0003440956D01*
X0000837705Y0003440459D01*
X0000837360Y0003439993D01*
X0000836971Y0003439564D01*
X0000836541Y0003439175D01*
X0000836076Y0003438829D01*
X0000835579Y0003438531D01*
X0000835055Y0003438284D01*
X0000834509Y0003438088D01*
X0000833947Y0003437948D01*
X0000833374Y0003437863D01*
X0000832795Y0003437834D01*
X0000763897Y0003437834D01*
X0000763318Y0003437863D01*
X0000762745Y0003437948D01*
X0000762183Y0003438088D01*
X0000761637Y0003438284D01*
X0000761113Y0003438531D01*
X0000760616Y0003438829D01*
X0000760151Y0003439175D01*
X0000759721Y0003439564D01*
X0000759332Y0003439993D01*
X0000758987Y0003440459D01*
X0000758689Y0003440956D01*
X0000758441Y0003441480D01*
X0000758246Y0003442025D01*
X0000758105Y0003442587D01*
X0000758020Y0003443161D01*
X0000757992Y0003443740D01*
X0000757992Y0003455551D01*
X0000758020Y0003456130D01*
X0000758105Y0003456703D01*
X0000758246Y0003457265D01*
X0000758441Y0003457811D01*
X0000758689Y0003458335D01*
X0000758987Y0003458832D01*
X0000759332Y0003459297D01*
X0000759721Y0003459727D01*
X0000760151Y0003460116D01*
X0000760616Y0003460461D01*
X0000761113Y0003460759D01*
X0000761637Y0003461007D01*
X0000762183Y0003461202D01*
X0000762745Y0003461343D01*
X0000763318Y0003461428D01*
X0000763897Y0003461456D01*
X0000832795Y0003461456D01*
X0000833374Y0003461428D01*
X0000833374Y0003461428D01*
G37*
D15*
X0000798346Y0003449645D03*
D12*
G36*
X0000833374Y0003411428D02*
G01*
X0000833947Y0003411343D01*
X0000834509Y0003411202D01*
X0000835055Y0003411007D01*
X0000835579Y0003410759D01*
X0000836076Y0003410461D01*
X0000836541Y0003410116D01*
X0000836971Y0003409727D01*
X0000837360Y0003409297D01*
X0000837705Y0003408832D01*
X0000838003Y0003408335D01*
X0000838251Y0003407811D01*
X0000838446Y0003407265D01*
X0000838587Y0003406703D01*
X0000838672Y0003406130D01*
X0000838700Y0003405551D01*
X0000838700Y0003393740D01*
X0000838672Y0003393161D01*
X0000838587Y0003392588D01*
X0000838446Y0003392025D01*
X0000838251Y0003391480D01*
X0000838003Y0003390956D01*
X0000837705Y0003390459D01*
X0000837360Y0003389993D01*
X0000836971Y0003389564D01*
X0000836541Y0003389175D01*
X0000836076Y0003388829D01*
X0000835579Y0003388531D01*
X0000835055Y0003388284D01*
X0000834509Y0003388088D01*
X0000833947Y0003387948D01*
X0000833374Y0003387863D01*
X0000832795Y0003387834D01*
X0000763897Y0003387834D01*
X0000763318Y0003387863D01*
X0000762745Y0003387948D01*
X0000762183Y0003388088D01*
X0000761637Y0003388284D01*
X0000761113Y0003388531D01*
X0000760616Y0003388829D01*
X0000760151Y0003389175D01*
X0000759721Y0003389564D01*
X0000759332Y0003389993D01*
X0000758987Y0003390459D01*
X0000758689Y0003390956D01*
X0000758441Y0003391480D01*
X0000758246Y0003392025D01*
X0000758105Y0003392588D01*
X0000758020Y0003393161D01*
X0000757992Y0003393740D01*
X0000757992Y0003405551D01*
X0000758020Y0003406130D01*
X0000758105Y0003406703D01*
X0000758246Y0003407265D01*
X0000758441Y0003407811D01*
X0000758689Y0003408335D01*
X0000758987Y0003408832D01*
X0000759332Y0003409297D01*
X0000759721Y0003409727D01*
X0000760151Y0003410116D01*
X0000760616Y0003410461D01*
X0000761113Y0003410759D01*
X0000761637Y0003411007D01*
X0000762183Y0003411202D01*
X0000762745Y0003411343D01*
X0000763318Y0003411428D01*
X0000763897Y0003411456D01*
X0000832795Y0003411456D01*
X0000833374Y0003411428D01*
X0000833374Y0003411428D01*
G37*
D15*
X0000798346Y0003399645D03*
D12*
G36*
X0000833374Y0003361428D02*
G01*
X0000833947Y0003361343D01*
X0000834509Y0003361202D01*
X0000835055Y0003361007D01*
X0000835579Y0003360759D01*
X0000836076Y0003360461D01*
X0000836541Y0003360116D01*
X0000836971Y0003359727D01*
X0000837360Y0003359297D01*
X0000837705Y0003358832D01*
X0000838003Y0003358335D01*
X0000838251Y0003357811D01*
X0000838446Y0003357265D01*
X0000838587Y0003356703D01*
X0000838672Y0003356130D01*
X0000838700Y0003355551D01*
X0000838700Y0003343740D01*
X0000838672Y0003343161D01*
X0000838587Y0003342588D01*
X0000838446Y0003342025D01*
X0000838251Y0003341480D01*
X0000838003Y0003340956D01*
X0000837705Y0003340459D01*
X0000837360Y0003339993D01*
X0000836971Y0003339564D01*
X0000836541Y0003339175D01*
X0000836076Y0003338829D01*
X0000835579Y0003338531D01*
X0000835055Y0003338284D01*
X0000834509Y0003338088D01*
X0000833947Y0003337948D01*
X0000833374Y0003337863D01*
X0000832795Y0003337834D01*
X0000763897Y0003337834D01*
X0000763318Y0003337863D01*
X0000762745Y0003337948D01*
X0000762183Y0003338088D01*
X0000761637Y0003338284D01*
X0000761113Y0003338531D01*
X0000760616Y0003338829D01*
X0000760151Y0003339175D01*
X0000759721Y0003339564D01*
X0000759332Y0003339993D01*
X0000758987Y0003340459D01*
X0000758689Y0003340956D01*
X0000758441Y0003341480D01*
X0000758246Y0003342025D01*
X0000758105Y0003342588D01*
X0000758020Y0003343161D01*
X0000757992Y0003343740D01*
X0000757992Y0003355551D01*
X0000758020Y0003356130D01*
X0000758105Y0003356703D01*
X0000758246Y0003357265D01*
X0000758441Y0003357811D01*
X0000758689Y0003358335D01*
X0000758987Y0003358832D01*
X0000759332Y0003359297D01*
X0000759721Y0003359727D01*
X0000760151Y0003360116D01*
X0000760616Y0003360461D01*
X0000761113Y0003360759D01*
X0000761637Y0003361007D01*
X0000762183Y0003361202D01*
X0000762745Y0003361343D01*
X0000763318Y0003361428D01*
X0000763897Y0003361456D01*
X0000832795Y0003361456D01*
X0000833374Y0003361428D01*
X0000833374Y0003361428D01*
G37*
D15*
X0000798346Y0003349645D03*
D12*
G36*
X0001049243Y0002959758D02*
G01*
X0001050150Y0002959623D01*
X0001051040Y0002959400D01*
X0001051904Y0002959091D01*
X0001052734Y0002958699D01*
X0001053521Y0002958227D01*
X0001054258Y0002957680D01*
X0001054938Y0002957064D01*
X0001055554Y0002956384D01*
X0001056101Y0002955647D01*
X0001056572Y0002954860D01*
X0001056965Y0002954031D01*
X0001057274Y0002953167D01*
X0001057497Y0002952276D01*
X0001057632Y0002951369D01*
X0001057677Y0002950452D01*
X0001057677Y0002931752D01*
X0001057632Y0002930835D01*
X0001057497Y0002929927D01*
X0001057274Y0002929037D01*
X0001056965Y0002928173D01*
X0001056572Y0002927344D01*
X0001056101Y0002926557D01*
X0001055554Y0002925820D01*
X0001054938Y0002925140D01*
X0001054258Y0002924524D01*
X0001053521Y0002923977D01*
X0001052734Y0002923505D01*
X0001051904Y0002923113D01*
X0001051040Y0002922804D01*
X0001050150Y0002922581D01*
X0001049243Y0002922446D01*
X0001048326Y0002922401D01*
X0001025688Y0002922401D01*
X0001024772Y0002922446D01*
X0001023864Y0002922581D01*
X0001022974Y0002922804D01*
X0001022110Y0002923113D01*
X0001021281Y0002923505D01*
X0001020494Y0002923977D01*
X0001019757Y0002924524D01*
X0001019077Y0002925140D01*
X0001018460Y0002925820D01*
X0001017914Y0002926557D01*
X0001017442Y0002927344D01*
X0001017050Y0002928173D01*
X0001016741Y0002929037D01*
X0001016518Y0002929927D01*
X0001016383Y0002930835D01*
X0001016338Y0002931752D01*
X0001016338Y0002950452D01*
X0001016383Y0002951369D01*
X0001016518Y0002952276D01*
X0001016741Y0002953167D01*
X0001017050Y0002954031D01*
X0001017442Y0002954860D01*
X0001017914Y0002955647D01*
X0001018460Y0002956384D01*
X0001019077Y0002957064D01*
X0001019757Y0002957680D01*
X0001020494Y0002958227D01*
X0001021281Y0002958699D01*
X0001022110Y0002959091D01*
X0001022974Y0002959400D01*
X0001023864Y0002959623D01*
X0001024772Y0002959758D01*
X0001025688Y0002959803D01*
X0001048326Y0002959803D01*
X0001049243Y0002959758D01*
X0001049243Y0002959758D01*
G37*
D13*
X0001037007Y0002941102D03*
D12*
G36*
X0000980345Y0002959758D02*
G01*
X0000981253Y0002959623D01*
X0000982143Y0002959400D01*
X0000983007Y0002959091D01*
X0000983836Y0002958699D01*
X0000984623Y0002958227D01*
X0000985360Y0002957680D01*
X0000986040Y0002957064D01*
X0000986657Y0002956384D01*
X0000987203Y0002955647D01*
X0000987675Y0002954860D01*
X0000988067Y0002954031D01*
X0000988376Y0002953167D01*
X0000988599Y0002952276D01*
X0000988734Y0002951369D01*
X0000988779Y0002950452D01*
X0000988779Y0002931752D01*
X0000988734Y0002930835D01*
X0000988599Y0002929927D01*
X0000988376Y0002929037D01*
X0000988067Y0002928173D01*
X0000987675Y0002927344D01*
X0000987203Y0002926557D01*
X0000986657Y0002925820D01*
X0000986040Y0002925140D01*
X0000985360Y0002924524D01*
X0000984623Y0002923977D01*
X0000983836Y0002923505D01*
X0000983007Y0002923113D01*
X0000982143Y0002922804D01*
X0000981253Y0002922581D01*
X0000980345Y0002922446D01*
X0000979429Y0002922401D01*
X0000956791Y0002922401D01*
X0000955874Y0002922446D01*
X0000954967Y0002922581D01*
X0000954076Y0002922804D01*
X0000953213Y0002923113D01*
X0000952383Y0002923505D01*
X0000951596Y0002923977D01*
X0000950859Y0002924524D01*
X0000950179Y0002925140D01*
X0000949563Y0002925820D01*
X0000949016Y0002926557D01*
X0000948544Y0002927344D01*
X0000948152Y0002928173D01*
X0000947843Y0002929037D01*
X0000947620Y0002929927D01*
X0000947485Y0002930835D01*
X0000947440Y0002931752D01*
X0000947440Y0002950452D01*
X0000947485Y0002951369D01*
X0000947620Y0002952276D01*
X0000947843Y0002953167D01*
X0000948152Y0002954031D01*
X0000948544Y0002954860D01*
X0000949016Y0002955647D01*
X0000949563Y0002956384D01*
X0000950179Y0002957064D01*
X0000950859Y0002957680D01*
X0000951596Y0002958227D01*
X0000952383Y0002958699D01*
X0000953213Y0002959091D01*
X0000954076Y0002959400D01*
X0000954967Y0002959623D01*
X0000955874Y0002959758D01*
X0000956791Y0002959803D01*
X0000979429Y0002959803D01*
X0000980345Y0002959758D01*
X0000980345Y0002959758D01*
G37*
D13*
X0000968110Y0002941102D03*
D12*
G36*
X0001121841Y0003028301D02*
G01*
X0001122749Y0003028166D01*
X0001123639Y0003027943D01*
X0001124503Y0003027634D01*
X0001125332Y0003027242D01*
X0001126119Y0003026770D01*
X0001126856Y0003026224D01*
X0001127536Y0003025607D01*
X0001128153Y0003024927D01*
X0001128699Y0003024190D01*
X0001129171Y0003023403D01*
X0001129563Y0003022574D01*
X0001129872Y0003021710D01*
X0001130095Y0003020820D01*
X0001130230Y0003019912D01*
X0001130275Y0003018996D01*
X0001130275Y0003000295D01*
X0001130230Y0002999378D01*
X0001130095Y0002998471D01*
X0001129872Y0002997580D01*
X0001129563Y0002996717D01*
X0001129171Y0002995887D01*
X0001128699Y0002995100D01*
X0001128153Y0002994363D01*
X0001127536Y0002993683D01*
X0001126856Y0002993067D01*
X0001126119Y0002992520D01*
X0001125332Y0002992048D01*
X0001124503Y0002991656D01*
X0001123639Y0002991347D01*
X0001122749Y0002991124D01*
X0001121841Y0002990989D01*
X0001120925Y0002990944D01*
X0001098287Y0002990944D01*
X0001097370Y0002990989D01*
X0001096463Y0002991124D01*
X0001095573Y0002991347D01*
X0001094709Y0002991656D01*
X0001093879Y0002992048D01*
X0001093092Y0002992520D01*
X0001092355Y0002993067D01*
X0001091675Y0002993683D01*
X0001091059Y0002994363D01*
X0001090512Y0002995100D01*
X0001090041Y0002995887D01*
X0001089648Y0002996717D01*
X0001089339Y0002997580D01*
X0001089116Y0002998471D01*
X0001088982Y0002999378D01*
X0001088936Y0003000295D01*
X0001088936Y0003018996D01*
X0001088982Y0003019912D01*
X0001089116Y0003020820D01*
X0001089339Y0003021710D01*
X0001089648Y0003022574D01*
X0001090041Y0003023403D01*
X0001090512Y0003024190D01*
X0001091059Y0003024927D01*
X0001091675Y0003025607D01*
X0001092355Y0003026224D01*
X0001093092Y0003026770D01*
X0001093879Y0003027242D01*
X0001094709Y0003027634D01*
X0001095573Y0003027943D01*
X0001096463Y0003028166D01*
X0001097370Y0003028301D01*
X0001098287Y0003028346D01*
X0001120925Y0003028346D01*
X0001121841Y0003028301D01*
X0001121841Y0003028301D01*
G37*
D13*
X0001109606Y0003009645D03*
D12*
G36*
X0001190739Y0003028301D02*
G01*
X0001191646Y0003028166D01*
X0001192537Y0003027943D01*
X0001193401Y0003027634D01*
X0001194230Y0003027242D01*
X0001195017Y0003026770D01*
X0001195754Y0003026224D01*
X0001196434Y0003025607D01*
X0001197050Y0003024927D01*
X0001197597Y0003024190D01*
X0001198069Y0003023403D01*
X0001198461Y0003022574D01*
X0001198770Y0003021710D01*
X0001198993Y0003020820D01*
X0001199128Y0003019912D01*
X0001199173Y0003018996D01*
X0001199173Y0003000295D01*
X0001199128Y0002999378D01*
X0001198993Y0002998471D01*
X0001198770Y0002997580D01*
X0001198461Y0002996717D01*
X0001198069Y0002995887D01*
X0001197597Y0002995100D01*
X0001197050Y0002994363D01*
X0001196434Y0002993683D01*
X0001195754Y0002993067D01*
X0001195017Y0002992520D01*
X0001194230Y0002992048D01*
X0001193401Y0002991656D01*
X0001192537Y0002991347D01*
X0001191646Y0002991124D01*
X0001190739Y0002990989D01*
X0001189822Y0002990944D01*
X0001167185Y0002990944D01*
X0001166268Y0002990989D01*
X0001165360Y0002991124D01*
X0001164470Y0002991347D01*
X0001163606Y0002991656D01*
X0001162777Y0002992048D01*
X0001161990Y0002992520D01*
X0001161253Y0002993067D01*
X0001160573Y0002993683D01*
X0001159957Y0002994363D01*
X0001159410Y0002995100D01*
X0001158938Y0002995887D01*
X0001158546Y0002996717D01*
X0001158237Y0002997580D01*
X0001158014Y0002998471D01*
X0001157879Y0002999378D01*
X0001157834Y0003000295D01*
X0001157834Y0003018996D01*
X0001157879Y0003019912D01*
X0001158014Y0003020820D01*
X0001158237Y0003021710D01*
X0001158546Y0003022574D01*
X0001158938Y0003023403D01*
X0001159410Y0003024190D01*
X0001159957Y0003024927D01*
X0001160573Y0003025607D01*
X0001161253Y0003026224D01*
X0001161990Y0003026770D01*
X0001162777Y0003027242D01*
X0001163606Y0003027634D01*
X0001164470Y0003027943D01*
X0001165360Y0003028166D01*
X0001166268Y0003028301D01*
X0001167185Y0003028346D01*
X0001189822Y0003028346D01*
X0001190739Y0003028301D01*
X0001190739Y0003028301D01*
G37*
D13*
X0001178503Y0003009645D03*
D12*
G36*
X0001121211Y0002961293D02*
G01*
X0001122119Y0002961158D01*
X0001123009Y0002960935D01*
X0001123873Y0002960626D01*
X0001124702Y0002960234D01*
X0001125490Y0002959762D01*
X0001126227Y0002959216D01*
X0001126906Y0002958599D01*
X0001127523Y0002957920D01*
X0001128069Y0002957182D01*
X0001128541Y0002956395D01*
X0001128933Y0002955566D01*
X0001129242Y0002954702D01*
X0001129465Y0002953812D01*
X0001129600Y0002952904D01*
X0001129645Y0002951988D01*
X0001129645Y0002933287D01*
X0001129600Y0002932370D01*
X0001129465Y0002931463D01*
X0001129242Y0002930573D01*
X0001128933Y0002929709D01*
X0001128541Y0002928879D01*
X0001128069Y0002928092D01*
X0001127523Y0002927355D01*
X0001126906Y0002926675D01*
X0001126227Y0002926059D01*
X0001125490Y0002925512D01*
X0001124702Y0002925041D01*
X0001123873Y0002924648D01*
X0001123009Y0002924339D01*
X0001122119Y0002924116D01*
X0001121211Y0002923982D01*
X0001120295Y0002923937D01*
X0001097657Y0002923937D01*
X0001096740Y0002923982D01*
X0001095833Y0002924116D01*
X0001094943Y0002924339D01*
X0001094079Y0002924648D01*
X0001093249Y0002925041D01*
X0001092462Y0002925512D01*
X0001091725Y0002926059D01*
X0001091045Y0002926675D01*
X0001090429Y0002927355D01*
X0001089882Y0002928092D01*
X0001089411Y0002928879D01*
X0001089018Y0002929709D01*
X0001088709Y0002930573D01*
X0001088486Y0002931463D01*
X0001088352Y0002932370D01*
X0001088307Y0002933287D01*
X0001088307Y0002951988D01*
X0001088352Y0002952904D01*
X0001088486Y0002953812D01*
X0001088709Y0002954702D01*
X0001089018Y0002955566D01*
X0001089411Y0002956395D01*
X0001089882Y0002957182D01*
X0001090429Y0002957920D01*
X0001091045Y0002958599D01*
X0001091725Y0002959216D01*
X0001092462Y0002959762D01*
X0001093249Y0002960234D01*
X0001094079Y0002960626D01*
X0001094943Y0002960935D01*
X0001095833Y0002961158D01*
X0001096740Y0002961293D01*
X0001097657Y0002961338D01*
X0001120295Y0002961338D01*
X0001121211Y0002961293D01*
X0001121211Y0002961293D01*
G37*
D13*
X0001108976Y0002942637D03*
D12*
G36*
X0001190109Y0002961293D02*
G01*
X0001191017Y0002961158D01*
X0001191907Y0002960935D01*
X0001192771Y0002960626D01*
X0001193600Y0002960234D01*
X0001194387Y0002959762D01*
X0001195124Y0002959216D01*
X0001195804Y0002958599D01*
X0001196420Y0002957920D01*
X0001196967Y0002957182D01*
X0001197439Y0002956395D01*
X0001197831Y0002955566D01*
X0001198140Y0002954702D01*
X0001198363Y0002953812D01*
X0001198498Y0002952904D01*
X0001198543Y0002951988D01*
X0001198543Y0002933287D01*
X0001198498Y0002932370D01*
X0001198363Y0002931463D01*
X0001198140Y0002930573D01*
X0001197831Y0002929709D01*
X0001197439Y0002928879D01*
X0001196967Y0002928092D01*
X0001196420Y0002927355D01*
X0001195804Y0002926675D01*
X0001195124Y0002926059D01*
X0001194387Y0002925512D01*
X0001193600Y0002925041D01*
X0001192771Y0002924648D01*
X0001191907Y0002924339D01*
X0001191017Y0002924116D01*
X0001190109Y0002923982D01*
X0001189192Y0002923937D01*
X0001166555Y0002923937D01*
X0001165638Y0002923982D01*
X0001164730Y0002924116D01*
X0001163840Y0002924339D01*
X0001162976Y0002924648D01*
X0001162147Y0002925041D01*
X0001161360Y0002925512D01*
X0001160623Y0002926059D01*
X0001159943Y0002926675D01*
X0001159327Y0002927355D01*
X0001158780Y0002928092D01*
X0001158308Y0002928879D01*
X0001157916Y0002929709D01*
X0001157607Y0002930573D01*
X0001157384Y0002931463D01*
X0001157249Y0002932370D01*
X0001157204Y0002933287D01*
X0001157204Y0002951988D01*
X0001157249Y0002952904D01*
X0001157384Y0002953812D01*
X0001157607Y0002954702D01*
X0001157916Y0002955566D01*
X0001158308Y0002956395D01*
X0001158780Y0002957182D01*
X0001159327Y0002957920D01*
X0001159943Y0002958599D01*
X0001160623Y0002959216D01*
X0001161360Y0002959762D01*
X0001162147Y0002960234D01*
X0001162976Y0002960626D01*
X0001163840Y0002960935D01*
X0001164730Y0002961158D01*
X0001165638Y0002961293D01*
X0001166555Y0002961338D01*
X0001189192Y0002961338D01*
X0001190109Y0002961293D01*
X0001190109Y0002961293D01*
G37*
D13*
X0001177874Y0002942637D03*
D12*
G36*
X0002515463Y0002303970D02*
G01*
X0002516371Y0002303836D01*
X0002517261Y0002303613D01*
X0002518125Y0002303303D01*
X0002518955Y0002302911D01*
X0002519742Y0002302439D01*
X0002520479Y0002301893D01*
X0002521158Y0002301277D01*
X0002521775Y0002300597D01*
X0002522321Y0002299860D01*
X0002522793Y0002299073D01*
X0002523185Y0002298243D01*
X0002523495Y0002297379D01*
X0002523717Y0002296489D01*
X0002523852Y0002295581D01*
X0002523897Y0002294665D01*
X0002523897Y0002272027D01*
X0002523852Y0002271111D01*
X0002523717Y0002270203D01*
X0002523495Y0002269313D01*
X0002523185Y0002268449D01*
X0002522793Y0002267619D01*
X0002522321Y0002266832D01*
X0002521775Y0002266095D01*
X0002521158Y0002265415D01*
X0002520479Y0002264799D01*
X0002519742Y0002264252D01*
X0002518955Y0002263781D01*
X0002518125Y0002263388D01*
X0002517261Y0002263079D01*
X0002516371Y0002262856D01*
X0002515463Y0002262722D01*
X0002514547Y0002262677D01*
X0002495846Y0002262677D01*
X0002494929Y0002262722D01*
X0002494022Y0002262856D01*
X0002493132Y0002263079D01*
X0002492268Y0002263388D01*
X0002491438Y0002263781D01*
X0002490651Y0002264252D01*
X0002489914Y0002264799D01*
X0002489234Y0002265415D01*
X0002488618Y0002266095D01*
X0002488071Y0002266832D01*
X0002487600Y0002267619D01*
X0002487207Y0002268449D01*
X0002486898Y0002269313D01*
X0002486675Y0002270203D01*
X0002486541Y0002271111D01*
X0002486496Y0002272027D01*
X0002486496Y0002294665D01*
X0002486541Y0002295581D01*
X0002486675Y0002296489D01*
X0002486898Y0002297379D01*
X0002487207Y0002298243D01*
X0002487600Y0002299073D01*
X0002488071Y0002299860D01*
X0002488618Y0002300597D01*
X0002489234Y0002301277D01*
X0002489914Y0002301893D01*
X0002490651Y0002302439D01*
X0002491438Y0002302911D01*
X0002492268Y0002303303D01*
X0002493132Y0002303613D01*
X0002494022Y0002303836D01*
X0002494929Y0002303970D01*
X0002495846Y0002304015D01*
X0002514547Y0002304015D01*
X0002515463Y0002303970D01*
X0002515463Y0002303970D01*
G37*
D13*
X0002505196Y0002283346D03*
D12*
G36*
X0002515463Y0002372868D02*
G01*
X0002516371Y0002372733D01*
X0002517261Y0002372510D01*
X0002518125Y0002372201D01*
X0002518955Y0002371809D01*
X0002519742Y0002371337D01*
X0002520479Y0002370790D01*
X0002521158Y0002370174D01*
X0002521775Y0002369494D01*
X0002522321Y0002368757D01*
X0002522793Y0002367970D01*
X0002523185Y0002367141D01*
X0002523495Y0002366277D01*
X0002523717Y0002365387D01*
X0002523852Y0002364479D01*
X0002523897Y0002363562D01*
X0002523897Y0002340925D01*
X0002523852Y0002340008D01*
X0002523717Y0002339101D01*
X0002523495Y0002338210D01*
X0002523185Y0002337346D01*
X0002522793Y0002336517D01*
X0002522321Y0002335730D01*
X0002521775Y0002334993D01*
X0002521158Y0002334313D01*
X0002520479Y0002333697D01*
X0002519742Y0002333150D01*
X0002518955Y0002332678D01*
X0002518125Y0002332286D01*
X0002517261Y0002331977D01*
X0002516371Y0002331754D01*
X0002515463Y0002331619D01*
X0002514547Y0002331574D01*
X0002495846Y0002331574D01*
X0002494929Y0002331619D01*
X0002494022Y0002331754D01*
X0002493132Y0002331977D01*
X0002492268Y0002332286D01*
X0002491438Y0002332678D01*
X0002490651Y0002333150D01*
X0002489914Y0002333697D01*
X0002489234Y0002334313D01*
X0002488618Y0002334993D01*
X0002488071Y0002335730D01*
X0002487600Y0002336517D01*
X0002487207Y0002337346D01*
X0002486898Y0002338210D01*
X0002486675Y0002339101D01*
X0002486541Y0002340008D01*
X0002486496Y0002340925D01*
X0002486496Y0002363562D01*
X0002486541Y0002364479D01*
X0002486675Y0002365387D01*
X0002486898Y0002366277D01*
X0002487207Y0002367141D01*
X0002487600Y0002367970D01*
X0002488071Y0002368757D01*
X0002488618Y0002369494D01*
X0002489234Y0002370174D01*
X0002489914Y0002370790D01*
X0002490651Y0002371337D01*
X0002491438Y0002371809D01*
X0002492268Y0002372201D01*
X0002493132Y0002372510D01*
X0002494022Y0002372733D01*
X0002494929Y0002372868D01*
X0002495846Y0002372913D01*
X0002514547Y0002372913D01*
X0002515463Y0002372868D01*
X0002515463Y0002372868D01*
G37*
D13*
X0002505196Y0002352244D03*
D12*
G36*
X0002288838Y0002593220D02*
G01*
X0002289794Y0002593078D01*
X0002290731Y0002592843D01*
X0002291640Y0002592518D01*
X0002292513Y0002592105D01*
X0002293342Y0002591608D01*
X0002294118Y0002591033D01*
X0002294833Y0002590384D01*
X0002295482Y0002589669D01*
X0002296057Y0002588893D01*
X0002296554Y0002588064D01*
X0002296967Y0002587191D01*
X0002297292Y0002586282D01*
X0002297527Y0002585345D01*
X0002297669Y0002584389D01*
X0002297716Y0002583425D01*
X0002297716Y0002510590D01*
X0002297669Y0002509625D01*
X0002297527Y0002508670D01*
X0002297292Y0002507733D01*
X0002296967Y0002506823D01*
X0002296554Y0002505950D01*
X0002296057Y0002505122D01*
X0002295482Y0002504346D01*
X0002294833Y0002503630D01*
X0002294118Y0002502982D01*
X0002293342Y0002502406D01*
X0002292513Y0002501910D01*
X0002291640Y0002501497D01*
X0002290731Y0002501171D01*
X0002289794Y0002500937D01*
X0002288838Y0002500795D01*
X0002287873Y0002500748D01*
X0002248503Y0002500748D01*
X0002247539Y0002500795D01*
X0002246583Y0002500937D01*
X0002245646Y0002501171D01*
X0002244737Y0002501497D01*
X0002243864Y0002501910D01*
X0002243035Y0002502406D01*
X0002242259Y0002502982D01*
X0002241544Y0002503630D01*
X0002240895Y0002504346D01*
X0002240320Y0002505122D01*
X0002239823Y0002505950D01*
X0002239410Y0002506823D01*
X0002239085Y0002507733D01*
X0002238850Y0002508670D01*
X0002238708Y0002509625D01*
X0002238661Y0002510590D01*
X0002238661Y0002583425D01*
X0002238708Y0002584389D01*
X0002238850Y0002585345D01*
X0002239085Y0002586282D01*
X0002239410Y0002587191D01*
X0002239823Y0002588064D01*
X0002240320Y0002588893D01*
X0002240895Y0002589669D01*
X0002241544Y0002590384D01*
X0002242259Y0002591033D01*
X0002243035Y0002591608D01*
X0002243864Y0002592105D01*
X0002244737Y0002592518D01*
X0002245646Y0002592843D01*
X0002246583Y0002593078D01*
X0002247539Y0002593220D01*
X0002248503Y0002593267D01*
X0002287873Y0002593267D01*
X0002288838Y0002593220D01*
X0002288838Y0002593220D01*
G37*
D16*
X0002268188Y0002547007D03*
D12*
G36*
X0002160885Y0002593220D02*
G01*
X0002161841Y0002593078D01*
X0002162778Y0002592843D01*
X0002163687Y0002592518D01*
X0002164560Y0002592105D01*
X0002165389Y0002591608D01*
X0002166165Y0002591033D01*
X0002166880Y0002590384D01*
X0002167529Y0002589669D01*
X0002168104Y0002588893D01*
X0002168601Y0002588064D01*
X0002169014Y0002587191D01*
X0002169339Y0002586282D01*
X0002169574Y0002585345D01*
X0002169716Y0002584389D01*
X0002169763Y0002583425D01*
X0002169763Y0002510590D01*
X0002169716Y0002509625D01*
X0002169574Y0002508670D01*
X0002169339Y0002507733D01*
X0002169014Y0002506823D01*
X0002168601Y0002505950D01*
X0002168104Y0002505122D01*
X0002167529Y0002504346D01*
X0002166880Y0002503630D01*
X0002166165Y0002502982D01*
X0002165389Y0002502406D01*
X0002164560Y0002501910D01*
X0002163687Y0002501497D01*
X0002162778Y0002501171D01*
X0002161841Y0002500937D01*
X0002160885Y0002500795D01*
X0002159921Y0002500748D01*
X0002120551Y0002500748D01*
X0002119586Y0002500795D01*
X0002118630Y0002500937D01*
X0002117694Y0002501171D01*
X0002116784Y0002501497D01*
X0002115911Y0002501910D01*
X0002115082Y0002502406D01*
X0002114307Y0002502982D01*
X0002113591Y0002503630D01*
X0002112942Y0002504346D01*
X0002112367Y0002505122D01*
X0002111870Y0002505950D01*
X0002111457Y0002506823D01*
X0002111132Y0002507733D01*
X0002110897Y0002508670D01*
X0002110756Y0002509625D01*
X0002110708Y0002510590D01*
X0002110708Y0002583425D01*
X0002110756Y0002584389D01*
X0002110897Y0002585345D01*
X0002111132Y0002586282D01*
X0002111457Y0002587191D01*
X0002111870Y0002588064D01*
X0002112367Y0002588893D01*
X0002112942Y0002589669D01*
X0002113591Y0002590384D01*
X0002114307Y0002591033D01*
X0002115082Y0002591608D01*
X0002115911Y0002592105D01*
X0002116784Y0002592518D01*
X0002117694Y0002592843D01*
X0002118630Y0002593078D01*
X0002119586Y0002593220D01*
X0002120551Y0002593267D01*
X0002159921Y0002593267D01*
X0002160885Y0002593220D01*
X0002160885Y0002593220D01*
G37*
D16*
X0002140236Y0002547007D03*
D12*
G36*
X0002514755Y0002168340D02*
G01*
X0002515662Y0002168206D01*
X0002516552Y0002167983D01*
X0002517416Y0002167674D01*
X0002518246Y0002167281D01*
X0002519033Y0002166810D01*
X0002519770Y0002166263D01*
X0002520450Y0002165647D01*
X0002521066Y0002164967D01*
X0002521613Y0002164230D01*
X0002522084Y0002163443D01*
X0002522477Y0002162613D01*
X0002522786Y0002161749D01*
X0002523009Y0002160859D01*
X0002523143Y0002159951D01*
X0002523188Y0002159035D01*
X0002523188Y0002136397D01*
X0002523143Y0002135481D01*
X0002523009Y0002134573D01*
X0002522786Y0002133683D01*
X0002522477Y0002132819D01*
X0002522084Y0002131989D01*
X0002521613Y0002131202D01*
X0002521066Y0002130465D01*
X0002520450Y0002129785D01*
X0002519770Y0002129169D01*
X0002519033Y0002128623D01*
X0002518246Y0002128151D01*
X0002517416Y0002127759D01*
X0002516552Y0002127449D01*
X0002515662Y0002127226D01*
X0002514755Y0002127092D01*
X0002513838Y0002127047D01*
X0002495137Y0002127047D01*
X0002494221Y0002127092D01*
X0002493313Y0002127226D01*
X0002492423Y0002127449D01*
X0002491559Y0002127759D01*
X0002490730Y0002128151D01*
X0002489942Y0002128623D01*
X0002489205Y0002129169D01*
X0002488526Y0002129785D01*
X0002487909Y0002130465D01*
X0002487363Y0002131202D01*
X0002486891Y0002131989D01*
X0002486499Y0002132819D01*
X0002486190Y0002133683D01*
X0002485967Y0002134573D01*
X0002485832Y0002135481D01*
X0002485787Y0002136397D01*
X0002485787Y0002159035D01*
X0002485832Y0002159951D01*
X0002485967Y0002160859D01*
X0002486190Y0002161749D01*
X0002486499Y0002162613D01*
X0002486891Y0002163443D01*
X0002487363Y0002164230D01*
X0002487909Y0002164967D01*
X0002488526Y0002165647D01*
X0002489205Y0002166263D01*
X0002489942Y0002166810D01*
X0002490730Y0002167281D01*
X0002491559Y0002167674D01*
X0002492423Y0002167983D01*
X0002493313Y0002168206D01*
X0002494221Y0002168340D01*
X0002495137Y0002168385D01*
X0002513838Y0002168385D01*
X0002514755Y0002168340D01*
X0002514755Y0002168340D01*
G37*
D13*
X0002504488Y0002147716D03*
D12*
G36*
X0002514755Y0002237238D02*
G01*
X0002515662Y0002237103D01*
X0002516552Y0002236880D01*
X0002517416Y0002236571D01*
X0002518246Y0002236179D01*
X0002519033Y0002235707D01*
X0002519770Y0002235161D01*
X0002520450Y0002234544D01*
X0002521066Y0002233864D01*
X0002521613Y0002233127D01*
X0002522084Y0002232340D01*
X0002522477Y0002231511D01*
X0002522786Y0002230647D01*
X0002523009Y0002229757D01*
X0002523143Y0002228849D01*
X0002523188Y0002227933D01*
X0002523188Y0002205295D01*
X0002523143Y0002204378D01*
X0002523009Y0002203471D01*
X0002522786Y0002202580D01*
X0002522477Y0002201717D01*
X0002522084Y0002200887D01*
X0002521613Y0002200100D01*
X0002521066Y0002199363D01*
X0002520450Y0002198683D01*
X0002519770Y0002198067D01*
X0002519033Y0002197520D01*
X0002518246Y0002197048D01*
X0002517416Y0002196656D01*
X0002516552Y0002196347D01*
X0002515662Y0002196124D01*
X0002514755Y0002195989D01*
X0002513838Y0002195944D01*
X0002495137Y0002195944D01*
X0002494221Y0002195989D01*
X0002493313Y0002196124D01*
X0002492423Y0002196347D01*
X0002491559Y0002196656D01*
X0002490730Y0002197048D01*
X0002489942Y0002197520D01*
X0002489205Y0002198067D01*
X0002488526Y0002198683D01*
X0002487909Y0002199363D01*
X0002487363Y0002200100D01*
X0002486891Y0002200887D01*
X0002486499Y0002201717D01*
X0002486190Y0002202580D01*
X0002485967Y0002203471D01*
X0002485832Y0002204378D01*
X0002485787Y0002205295D01*
X0002485787Y0002227933D01*
X0002485832Y0002228849D01*
X0002485967Y0002229757D01*
X0002486190Y0002230647D01*
X0002486499Y0002231511D01*
X0002486891Y0002232340D01*
X0002487363Y0002233127D01*
X0002487909Y0002233864D01*
X0002488526Y0002234544D01*
X0002489205Y0002235161D01*
X0002489942Y0002235707D01*
X0002490730Y0002236179D01*
X0002491559Y0002236571D01*
X0002492423Y0002236880D01*
X0002493313Y0002237103D01*
X0002494221Y0002237238D01*
X0002495137Y0002237283D01*
X0002513838Y0002237283D01*
X0002514755Y0002237238D01*
X0002514755Y0002237238D01*
G37*
D13*
X0002504488Y0002216614D03*
D12*
G36*
X0002160885Y0002737432D02*
G01*
X0002161841Y0002737291D01*
X0002162778Y0002737056D01*
X0002163687Y0002736731D01*
X0002164560Y0002736318D01*
X0002165389Y0002735821D01*
X0002166165Y0002735246D01*
X0002166880Y0002734597D01*
X0002167529Y0002733881D01*
X0002168104Y0002733106D01*
X0002168601Y0002732277D01*
X0002169014Y0002731404D01*
X0002169339Y0002730494D01*
X0002169574Y0002729557D01*
X0002169716Y0002728602D01*
X0002169763Y0002727637D01*
X0002169763Y0002654803D01*
X0002169716Y0002653838D01*
X0002169574Y0002652882D01*
X0002169339Y0002651946D01*
X0002169014Y0002651036D01*
X0002168601Y0002650163D01*
X0002168104Y0002649334D01*
X0002167529Y0002648559D01*
X0002166880Y0002647843D01*
X0002166165Y0002647194D01*
X0002165389Y0002646619D01*
X0002164560Y0002646122D01*
X0002163687Y0002645709D01*
X0002162778Y0002645384D01*
X0002161841Y0002645149D01*
X0002160885Y0002645008D01*
X0002159921Y0002644960D01*
X0002120551Y0002644960D01*
X0002119586Y0002645008D01*
X0002118630Y0002645149D01*
X0002117694Y0002645384D01*
X0002116784Y0002645709D01*
X0002115911Y0002646122D01*
X0002115082Y0002646619D01*
X0002114307Y0002647194D01*
X0002113591Y0002647843D01*
X0002112942Y0002648559D01*
X0002112367Y0002649334D01*
X0002111870Y0002650163D01*
X0002111457Y0002651036D01*
X0002111132Y0002651946D01*
X0002110897Y0002652882D01*
X0002110756Y0002653838D01*
X0002110708Y0002654803D01*
X0002110708Y0002727637D01*
X0002110756Y0002728602D01*
X0002110897Y0002729557D01*
X0002111132Y0002730494D01*
X0002111457Y0002731404D01*
X0002111870Y0002732277D01*
X0002112367Y0002733106D01*
X0002112942Y0002733881D01*
X0002113591Y0002734597D01*
X0002114307Y0002735246D01*
X0002115082Y0002735821D01*
X0002115911Y0002736318D01*
X0002116784Y0002736731D01*
X0002117694Y0002737056D01*
X0002118630Y0002737291D01*
X0002119586Y0002737432D01*
X0002120551Y0002737480D01*
X0002159921Y0002737480D01*
X0002160885Y0002737432D01*
X0002160885Y0002737432D01*
G37*
D16*
X0002140236Y0002691220D03*
D12*
G36*
X0002288838Y0002737432D02*
G01*
X0002289794Y0002737291D01*
X0002290731Y0002737056D01*
X0002291640Y0002736731D01*
X0002292513Y0002736318D01*
X0002293342Y0002735821D01*
X0002294118Y0002735246D01*
X0002294833Y0002734597D01*
X0002295482Y0002733881D01*
X0002296057Y0002733106D01*
X0002296554Y0002732277D01*
X0002296967Y0002731404D01*
X0002297292Y0002730494D01*
X0002297527Y0002729557D01*
X0002297669Y0002728602D01*
X0002297716Y0002727637D01*
X0002297716Y0002654803D01*
X0002297669Y0002653838D01*
X0002297527Y0002652882D01*
X0002297292Y0002651946D01*
X0002296967Y0002651036D01*
X0002296554Y0002650163D01*
X0002296057Y0002649334D01*
X0002295482Y0002648559D01*
X0002294833Y0002647843D01*
X0002294118Y0002647194D01*
X0002293342Y0002646619D01*
X0002292513Y0002646122D01*
X0002291640Y0002645709D01*
X0002290731Y0002645384D01*
X0002289794Y0002645149D01*
X0002288838Y0002645008D01*
X0002287873Y0002644960D01*
X0002248503Y0002644960D01*
X0002247539Y0002645008D01*
X0002246583Y0002645149D01*
X0002245646Y0002645384D01*
X0002244737Y0002645709D01*
X0002243864Y0002646122D01*
X0002243035Y0002646619D01*
X0002242259Y0002647194D01*
X0002241544Y0002647843D01*
X0002240895Y0002648559D01*
X0002240320Y0002649334D01*
X0002239823Y0002650163D01*
X0002239410Y0002651036D01*
X0002239085Y0002651946D01*
X0002238850Y0002652882D01*
X0002238708Y0002653838D01*
X0002238661Y0002654803D01*
X0002238661Y0002727637D01*
X0002238708Y0002728602D01*
X0002238850Y0002729557D01*
X0002239085Y0002730494D01*
X0002239410Y0002731404D01*
X0002239823Y0002732277D01*
X0002240320Y0002733106D01*
X0002240895Y0002733881D01*
X0002241544Y0002734597D01*
X0002242259Y0002735246D01*
X0002243035Y0002735821D01*
X0002243864Y0002736318D01*
X0002244737Y0002736731D01*
X0002245646Y0002737056D01*
X0002246583Y0002737291D01*
X0002247539Y0002737432D01*
X0002248503Y0002737480D01*
X0002287873Y0002737480D01*
X0002288838Y0002737432D01*
X0002288838Y0002737432D01*
G37*
D16*
X0002268188Y0002691220D03*
D17*
X0002239015Y0002413385D03*
D18*
X0002239015Y0002165354D03*
X0002329566Y0002165354D03*
X0002148464Y0002165354D03*
G04 next file*
G04 #@! TF.GenerationSoftware,KiCad,Pcbnew,(5.1.2)-1*
G04 #@! TF.CreationDate,2019-11-15T00:39:08+05:30*
G04 #@! TF.ProjectId,NodesCombined,4e6f6465-7343-46f6-9d62-696e65642e6b,rev?*
G04 #@! TF.SameCoordinates,Original*
G04 #@! TF.FileFunction,Paste,Top*
G04 #@! TF.FilePolarity,Positive*
G04 Gerber Fmt 4.6, Leading zero omitted, Abs format (unit mm)*
G04 Created by KiCad (PCBNEW (5.1.2)-1) date 2019-11-15 00:39:08*
G04 APERTURE LIST*
G04 APERTURE END LIST*
D29*
X-0003267716Y0005826771D02*
X0003709606Y0001343543D03*
X0003709606Y0001213622D03*
X0003670236Y0001343543D03*
X0003670236Y0001213622D03*
X0003630866Y0001343543D03*
X0003630866Y0001213622D03*
X0003591496Y0001343543D03*
X0003591496Y0001213622D03*
X0003406141Y0001343700D03*
X0003406141Y0001213779D03*
X0003366771Y0001343700D03*
X0003366771Y0001213779D03*
X0003327401Y0001343700D03*
X0003327401Y0001213779D03*
X0003288031Y0001343700D03*
X0003288031Y0001213779D03*
X0002984566Y0001213897D03*
X0002984566Y0001343818D03*
X0003023937Y0001213897D03*
X0003023937Y0001343818D03*
X0003063307Y0001213897D03*
X0003063307Y0001343818D03*
X0003102677Y0001213897D03*
X0003102677Y0001343818D03*
X0002681102Y0001214055D03*
X0002681102Y0001343976D03*
X0002720472Y0001214055D03*
X0002720472Y0001343976D03*
X0002759842Y0001214055D03*
X0002759842Y0001343976D03*
X0002799212Y0001214055D03*
X0002799212Y0001343976D03*
X0002377637Y0001214212D03*
X0002377637Y0001344133D03*
X0002417007Y0001214212D03*
X0002417007Y0001344133D03*
X0002456377Y0001214212D03*
X0002456377Y0001344133D03*
X0002495747Y0001214212D03*
X0002495747Y0001344133D03*
X0003293385Y0001667283D03*
X0003293385Y0001797204D03*
X0003332755Y0001667283D03*
X0003332755Y0001797204D03*
X0003372125Y0001667283D03*
X0003372125Y0001797204D03*
X0003411496Y0001667283D03*
X0003411496Y0001797204D03*
X0002989921Y0001667401D03*
X0002989921Y0001797322D03*
X0003029291Y0001667401D03*
X0003029291Y0001797322D03*
X0003068661Y0001667401D03*
X0003068661Y0001797322D03*
X0003108031Y0001667401D03*
X0003108031Y0001797322D03*
X0003596850Y0001667125D03*
X0003596850Y0001797047D03*
X0003636220Y0001667125D03*
X0003636220Y0001797047D03*
X0003675590Y0001667125D03*
X0003675590Y0001797047D03*
X0003714960Y0001667125D03*
X0003714960Y0001797047D03*
X0002197637Y0001797716D03*
X0002197637Y0001667795D03*
X0002158267Y0001797716D03*
X0002158267Y0001667795D03*
X0002118897Y0001797716D03*
X0002118897Y0001667795D03*
X0002079527Y0001797716D03*
X0002079527Y0001667795D03*
X0002501102Y0001797598D03*
X0002501102Y0001667677D03*
X0002461732Y0001797598D03*
X0002461732Y0001667677D03*
X0002422362Y0001797598D03*
X0002422362Y0001667677D03*
X0002382992Y0001797598D03*
X0002382992Y0001667677D03*
X0002804566Y0001797440D03*
X0002804566Y0001667519D03*
X0002765196Y0001797440D03*
X0002765196Y0001667519D03*
X0002725826Y0001797440D03*
X0002725826Y0001667519D03*
X0002686456Y0001797440D03*
X0002686456Y0001667519D03*
X0002192283Y0001344251D03*
X0002192283Y0001214330D03*
X0002152913Y0001344251D03*
X0002152913Y0001214330D03*
X0002113543Y0001344251D03*
X0002113543Y0001214330D03*
X0002074173Y0001344251D03*
X0002074173Y0001214330D03*
G04 next file*
G04 #@! TF.GenerationSoftware,KiCad,Pcbnew,(5.1.2)-1*
G04 #@! TF.CreationDate,2019-11-15T00:39:08+05:30*
G04 #@! TF.ProjectId,NodesCombined,4e6f6465-7343-46f6-9d62-696e65642e6b,rev?*
G04 #@! TF.SameCoordinates,Original*
G04 #@! TF.FileFunction,Paste,Top*
G04 #@! TF.FilePolarity,Positive*
G04 Gerber Fmt 4.6, Leading zero omitted, Abs format (unit mm)*
G04 Created by KiCad (PCBNEW (5.1.2)-1) date 2019-11-15 00:39:08*
G04 APERTURE LIST*
G04 APERTURE END LIST*
D30*
X-0003267716Y0004881889D02*
X0003709606Y0000398661D03*
X0003709606Y0000268740D03*
X0003670236Y0000398661D03*
X0003670236Y0000268740D03*
X0003630866Y0000398661D03*
X0003630866Y0000268740D03*
X0003591496Y0000398661D03*
X0003591496Y0000268740D03*
X0003406141Y0000398818D03*
X0003406141Y0000268897D03*
X0003366771Y0000398818D03*
X0003366771Y0000268897D03*
X0003327401Y0000398818D03*
X0003327401Y0000268897D03*
X0003288031Y0000398818D03*
X0003288031Y0000268897D03*
X0002984566Y0000269015D03*
X0002984566Y0000398936D03*
X0003023937Y0000269015D03*
X0003023937Y0000398936D03*
X0003063307Y0000269015D03*
X0003063307Y0000398936D03*
X0003102677Y0000269015D03*
X0003102677Y0000398936D03*
X0002681102Y0000269173D03*
X0002681102Y0000399094D03*
X0002720472Y0000269173D03*
X0002720472Y0000399094D03*
X0002759842Y0000269173D03*
X0002759842Y0000399094D03*
X0002799212Y0000269173D03*
X0002799212Y0000399094D03*
X0002377637Y0000269330D03*
X0002377637Y0000399251D03*
X0002417007Y0000269330D03*
X0002417007Y0000399251D03*
X0002456377Y0000269330D03*
X0002456377Y0000399251D03*
X0002495747Y0000269330D03*
X0002495747Y0000399251D03*
X0003293385Y0000722401D03*
X0003293385Y0000852322D03*
X0003332755Y0000722401D03*
X0003332755Y0000852322D03*
X0003372125Y0000722401D03*
X0003372125Y0000852322D03*
X0003411496Y0000722401D03*
X0003411496Y0000852322D03*
X0002989921Y0000722519D03*
X0002989921Y0000852440D03*
X0003029291Y0000722519D03*
X0003029291Y0000852440D03*
X0003068661Y0000722519D03*
X0003068661Y0000852440D03*
X0003108031Y0000722519D03*
X0003108031Y0000852440D03*
X0003596850Y0000722244D03*
X0003596850Y0000852165D03*
X0003636220Y0000722244D03*
X0003636220Y0000852165D03*
X0003675590Y0000722244D03*
X0003675590Y0000852165D03*
X0003714960Y0000722244D03*
X0003714960Y0000852165D03*
X0002197637Y0000852834D03*
X0002197637Y0000722913D03*
X0002158267Y0000852834D03*
X0002158267Y0000722913D03*
X0002118897Y0000852834D03*
X0002118897Y0000722913D03*
X0002079527Y0000852834D03*
X0002079527Y0000722913D03*
X0002501102Y0000852716D03*
X0002501102Y0000722795D03*
X0002461732Y0000852716D03*
X0002461732Y0000722795D03*
X0002422362Y0000852716D03*
X0002422362Y0000722795D03*
X0002382992Y0000852716D03*
X0002382992Y0000722795D03*
X0002804566Y0000852559D03*
X0002804566Y0000722637D03*
X0002765196Y0000852559D03*
X0002765196Y0000722637D03*
X0002725826Y0000852559D03*
X0002725826Y0000722637D03*
X0002686456Y0000852559D03*
X0002686456Y0000722637D03*
X0002192283Y0000399370D03*
X0002192283Y0000269448D03*
X0002152913Y0000399370D03*
X0002152913Y0000269448D03*
X0002113543Y0000399370D03*
X0002113543Y0000269448D03*
X0002074173Y0000399370D03*
X0002074173Y0000269448D03*
G04 next file*
G04 #@! TF.GenerationSoftware,KiCad,Pcbnew,(5.1.2)-1*
G04 #@! TF.CreationDate,2019-11-15T00:39:08+05:30*
G04 #@! TF.ProjectId,NodesCombined,4e6f6465-7343-46f6-9d62-696e65642e6b,rev?*
G04 #@! TF.SameCoordinates,Original*
G04 #@! TF.FileFunction,Paste,Top*
G04 #@! TF.FilePolarity,Positive*
G04 Gerber Fmt 4.6, Leading zero omitted, Abs format (unit mm)*
G04 Created by KiCad (PCBNEW (5.1.2)-1) date 2019-11-15 00:39:08*
G04 APERTURE LIST*
G04 APERTURE END LIST*
D31*
X-0005118110Y0004960629D02*
X0001859212Y0000477401D03*
X0001859212Y0000347480D03*
X0001819842Y0000477401D03*
X0001819842Y0000347480D03*
X0001780472Y0000477401D03*
X0001780472Y0000347480D03*
X0001741102Y0000477401D03*
X0001741102Y0000347480D03*
X0001555747Y0000477559D03*
X0001555747Y0000347637D03*
X0001516377Y0000477559D03*
X0001516377Y0000347637D03*
X0001477007Y0000477559D03*
X0001477007Y0000347637D03*
X0001437637Y0000477559D03*
X0001437637Y0000347637D03*
X0001134173Y0000347755D03*
X0001134173Y0000477677D03*
X0001173543Y0000347755D03*
X0001173543Y0000477677D03*
X0001212913Y0000347755D03*
X0001212913Y0000477677D03*
X0001252283Y0000347755D03*
X0001252283Y0000477677D03*
X0000830708Y0000347913D03*
X0000830708Y0000477834D03*
X0000870078Y0000347913D03*
X0000870078Y0000477834D03*
X0000909448Y0000347913D03*
X0000909448Y0000477834D03*
X0000948818Y0000347913D03*
X0000948818Y0000477834D03*
X0000527244Y0000348070D03*
X0000527244Y0000477992D03*
X0000566614Y0000348070D03*
X0000566614Y0000477992D03*
X0000605984Y0000348070D03*
X0000605984Y0000477992D03*
X0000645354Y0000348070D03*
X0000645354Y0000477992D03*
X0001442992Y0000801141D03*
X0001442992Y0000931062D03*
X0001482362Y0000801141D03*
X0001482362Y0000931062D03*
X0001521732Y0000801141D03*
X0001521732Y0000931062D03*
X0001561102Y0000801141D03*
X0001561102Y0000931062D03*
X0001139527Y0000801259D03*
X0001139527Y0000931181D03*
X0001178897Y0000801259D03*
X0001178897Y0000931181D03*
X0001218267Y0000801259D03*
X0001218267Y0000931181D03*
X0001257637Y0000801259D03*
X0001257637Y0000931181D03*
X0001746456Y0000800984D03*
X0001746456Y0000930905D03*
X0001785826Y0000800984D03*
X0001785826Y0000930905D03*
X0001825196Y0000800984D03*
X0001825196Y0000930905D03*
X0001864566Y0000800984D03*
X0001864566Y0000930905D03*
X0000347244Y0000931574D03*
X0000347244Y0000801653D03*
X0000307873Y0000931574D03*
X0000307873Y0000801653D03*
X0000268503Y0000931574D03*
X0000268503Y0000801653D03*
X0000229133Y0000931574D03*
X0000229133Y0000801653D03*
X0000650708Y0000931456D03*
X0000650708Y0000801535D03*
X0000611338Y0000931456D03*
X0000611338Y0000801535D03*
X0000571968Y0000931456D03*
X0000571968Y0000801535D03*
X0000532598Y0000931456D03*
X0000532598Y0000801535D03*
X0000954173Y0000931299D03*
X0000954173Y0000801377D03*
X0000914803Y0000931299D03*
X0000914803Y0000801377D03*
X0000875433Y0000931299D03*
X0000875433Y0000801377D03*
X0000836062Y0000931299D03*
X0000836062Y0000801377D03*
X0000341889Y0000478110D03*
X0000341889Y0000348188D03*
X0000302519Y0000478110D03*
X0000302519Y0000348188D03*
X0000263149Y0000478110D03*
X0000263149Y0000348188D03*
X0000223779Y0000478110D03*
X0000223779Y0000348188D03*
G04 next file*
G04 #@! TF.GenerationSoftware,KiCad,Pcbnew,(5.1.2)-1*
G04 #@! TF.CreationDate,2019-11-15T00:47:22+05:30*
G04 #@! TF.ProjectId,NodeFrame,4e6f6465-4672-4616-9d65-2e6b69636164,rev?*
G04 #@! TF.SameCoordinates,Original*
G04 #@! TF.FileFunction,Paste,Top*
G04 #@! TF.FilePolarity,Positive*
G04 Gerber Fmt 4.6, Leading zero omitted, Abs format (unit mm)*
G04 Created by KiCad (PCBNEW (5.1.2)-1) date 2019-11-15 00:47:22*
G04 APERTURE LIST*
G04 APERTURE END LIST*
M02*