%
M48
METRIC,000.000
T01C1.19
T02C2.00
T10C0.40
T11C0.80
T12C0.81
T13C0.90
T14C1.00
T15C1.20
T16C3.30
%
T01
X032834Y061419
X032815Y070462
X032815Y067922
T02
X042045Y088514
X043765Y086056
X045306Y081101
X044787Y084055
X040366Y090101
X037769Y091601
T10
X004681Y089025
X007552Y087270
X007651Y088064
X008003Y083933
X008044Y079789
X008800Y084007
X009211Y074995
X010025Y075734
X011194Y089616
X011223Y084102
X012010Y077545
X013173Y084102
X013244Y086497
X013275Y088827
X014324Y091688
X017122Y093771
X017508Y070262
X017942Y079590
X018282Y071491
X018551Y080346
X018657Y037352
X018764Y092663
X018901Y085301
X019080Y086420
X019549Y080190
X020074Y070890
X020316Y078988
X020944Y063982
X020955Y058057
X021348Y037123
X021613Y079482
X021820Y091065
X021872Y069632
X022233Y063931
X022240Y080070
X022479Y078565
X022895Y080682
X023764Y073549
X024758Y084523
X024800Y078718
X025479Y069481
X025525Y079314
X026257Y080941
X026383Y069139
X026971Y067614
X027330Y063676
X027869Y069920
X027989Y078251
X028008Y094055
X029323Y039024
X033019Y074029
X036122Y042774
X036714Y038968
X036970Y068696
X037054Y071863
X037313Y059495
X037313Y058566
X039882Y061584
X040562Y056652
X044008Y044438
X057611Y068357
X059287Y055150
X068597Y068253
X071913Y068112
X078378Y068246
X051258Y035221
X051394Y046739
X051432Y029619
X051568Y041137
X051657Y036041
X051718Y028787
X051794Y047559
X051854Y040305
X052861Y029239
X052997Y040757
X053479Y028638
X053615Y040157
X053670Y032348
X053806Y043867
X055079Y035888
X055215Y047407
X058966Y035218
X059102Y046736
X059140Y029616
X059276Y041134
X059366Y036038
X059426Y028784
X059502Y047556
X059562Y040302
X060569Y029236
X060705Y040754
X061187Y028635
X061323Y040154
X061378Y032345
X061514Y043864
X062787Y035885
X062923Y047404
X066674Y035215
X066810Y046733
X066848Y029611
X066985Y041129
X067074Y036034
X067134Y028780
X067210Y047552
X067270Y040298
X068277Y029232
X068413Y040750
X068895Y028632
X069031Y040150
X069086Y032342
X069223Y043860
X070495Y035882
X070631Y047400
X074382Y035211
X074518Y046730
X074556Y029608
X074693Y041126
X074782Y036030
X074842Y028775
X074918Y047549
X074979Y040295
X075985Y029227
X076122Y040747
X076603Y028628
X076739Y040147
X076794Y032337
X076931Y043857
X078203Y035878
X078339Y047397
X082090Y035208
X082226Y046727
X082264Y029605
X082401Y041123
X082490Y036027
X082550Y028772
X082626Y047546
X082687Y040292
X083693Y029224
X083830Y040744
X084311Y028625
X084447Y040144
X084502Y032334
X084639Y043854
X085911Y035875
X086047Y047394
X089798Y035203
X089934Y046723
X089973Y029601
X090109Y041120
X090198Y036022
X090258Y028769
X090334Y047542
X090395Y040288
X091401Y029221
X091538Y040739
X092019Y028620
X092155Y040140
X092211Y032331
X092347Y043849
X093619Y035870
X093755Y047390
X051258Y011221
X051394Y022739
X051432Y005619
X051568Y017137
X051657Y012040
X051718Y004787
X051794Y023558
X051854Y016305
X052861Y005239
X052997Y016757
X053479Y004638
X053615Y016155
X053670Y008349
X053806Y019867
X055079Y011888
X055215Y023406
X058966Y011218
X059102Y022736
X059140Y005616
X059276Y017134
X059366Y012037
X059426Y004784
X059502Y023555
X059562Y016302
X060569Y005236
X060705Y016754
X061187Y004635
X061323Y016152
X061378Y008346
X061514Y019864
X062787Y011885
X062923Y023403
X066674Y011215
X066810Y022733
X066848Y005611
X066985Y017129
X067074Y012034
X067134Y004780
X067210Y023552
X067270Y016297
X068277Y005231
X068413Y016750
X068895Y004632
X069031Y016149
X069086Y008341
X069223Y019860
X070495Y011882
X070631Y023400
X074382Y011210
X074518Y022730
X074556Y005608
X074693Y017126
X074782Y012030
X074842Y004775
X074918Y023549
X074979Y016295
X075985Y005227
X076122Y016747
X076603Y004628
X076739Y016146
X076794Y008337
X076931Y019857
X078203Y011878
X078339Y023397
X082090Y011207
X082226Y022727
X082264Y005605
X082401Y017123
X082490Y012027
X082550Y004772
X082626Y023546
X082687Y016292
X083693Y005224
X083830Y016744
X084311Y004625
X084447Y016143
X084502Y008334
X084639Y019854
X085911Y011875
X086047Y023394
X089798Y011203
X089934Y022723
X089973Y005600
X090109Y017120
X090198Y012022
X090258Y004769
X090334Y023542
X090395Y016286
X091401Y005221
X091538Y016739
X092019Y004620
X092155Y016140
X092211Y008331
X092347Y019849
X093619Y011870
X093755Y023390
X004258Y013221
X004394Y024739
X004432Y007619
X004568Y019137
X004657Y014040
X004718Y006787
X004794Y025558
X004854Y018305
X005861Y007239
X005997Y018757
X006479Y006638
X006615Y018156
X006670Y010349
X006806Y021867
X008079Y013888
X008215Y025406
X011966Y013218
X012102Y024736
X012140Y007616
X012276Y019134
X012366Y014037
X012426Y006784
X012502Y025555
X012562Y018302
X013569Y007236
X013705Y018754
X014187Y006635
X014323Y018153
X014378Y010346
X014514Y021864
X015787Y013885
X015923Y025403
X019674Y013215
X019810Y024733
X019848Y007611
X019985Y019129
X020074Y014034
X020134Y006780
X020210Y025552
X020270Y018298
X021277Y007231
X021413Y018750
X021895Y006632
X022031Y018150
X022086Y010341
X022223Y021860
X023495Y013882
X023631Y025400
X027382Y013210
X027518Y024730
X027556Y007608
X027693Y019126
X027782Y014030
X027842Y006775
X027918Y025549
X027979Y018295
X028985Y007227
X029122Y018747
X029603Y006628
X029739Y018147
X029794Y010337
X029931Y021857
X031203Y013878
X031339Y025397
X035090Y013207
X035226Y024727
X035264Y007605
X035401Y019123
X035490Y014027
X035550Y006772
X035626Y025546
X035687Y018292
X036693Y007224
X036830Y018744
X037311Y006625
X037447Y018144
X037502Y010334
X037639Y021854
X038911Y013875
X039047Y025394
X042798Y013203
X042934Y024723
X042973Y007600
X043109Y019120
X043198Y014022
X043258Y006769
X043334Y025542
X043395Y018287
X044401Y007221
X044538Y018739
X045019Y006620
X045155Y018140
X045211Y010331
X045347Y021849
X046619Y013870
X046754Y025390
T11
X013679Y041781
X013679Y038781
T12
X088089Y061187
X089339Y063352
X090589Y065516
T13
X083175Y057361
X085376Y058632
T14
X062681Y082220
X062681Y077220
X092082Y087420
X092082Y072020
X068562Y059867
X076163Y059867
X009222Y034678
X011762Y034678
X014301Y034678
X016842Y034678
X019382Y034678
X021921Y034678
X024461Y034678
X055870Y091851
X058410Y091851
X060949Y091851
X063490Y091851
X066030Y091851
X068570Y091851
X071110Y091851
X008895Y055748
X011435Y055748
X013974Y055748
X016514Y055748
X019055Y055748
X021595Y055748
X024134Y055748
X026675Y055748
X029215Y055748
X031754Y055748
X057402Y073944
X057413Y079024
X009222Y045798
X011762Y045798
X014301Y045798
X016842Y045798
X019382Y045798
X021921Y045798
X024461Y045798
X027002Y045798
X029542Y045798
X032081Y045798
T15
X057613Y087863
X057613Y082783
T16
X082520Y065890
X063520Y065890
M30