%MOIN*%
%OFA0B0*%
%FSLAX46Y46*%
%IPPOS*%
%LPD*%
%ADD10R,0.047244094488188976X0.01968503937007874*%
%ADD11R,0.01968503937007874X0.047244094488188976*%
%ADD12C,0.0039370078740157488*%
%ADD13C,0.037401574803149609*%
%ADD14R,0.090157480314960639X0.05*%
%ADD15C,0.023622047244094488*%
%ADD16C,0.059055118110236227*%
%ADD17R,0.14960629921259844X0.07874015748031496*%
%ADD18R,0.059055118110236227X0.07874015748031496*%
%ADD29R,0.01968503937007874X0.07874015748031496*%
%ADD30R,0.01968503937007874X0.07874015748031496*%
%ADD31R,0.01968503937007874X0.07874015748031496*%
%ADD32R,0.01968503937007874X0.07874015748031496*%
%ADD33R,0.01968503937007874X0.07874015748031496*%
%ADD34R,0.01968503937007874X0.07874015748031496*%
%ADD35R,0.01968503937007874X0.07874015748031496*%
%ADD36R,0.01968503937007874X0.07874015748031496*%
%ADD37R,0.01968503937007874X0.07874015748031496*%
%ADD38R,0.01968503937007874X0.07874015748031496*%
%ADD39R,0.01968503937007874X0.07874015748031496*%
%ADD40R,0.01968503937007874X0.07874015748031496*%
%ADD41R,0.01968503937007874X0.07874015748031496*%
%ADD42R,0.01968503937007874X0.07874015748031496*%
%ADD43R,0.01968503937007874X0.07874015748031496*%
%ADD44R,0.01968503937007874X0.07874015748031496*%
%ADD45R,0.01968503937007874X0.07874015748031496*%
%ADD46R,0.01968503937007874X0.07874015748031496*%
%ADD47R,0.01968503937007874X0.07874015748031496*%
%ADD48R,0.01968503937007874X0.07874015748031496*%
%ADD49R,0.01968503937007874X0.07874015748031496*%
%ADD50R,0.01968503937007874X0.07874015748031496*%
%ADD51R,0.01968503937007874X0.07874015748031496*%
%ADD52R,0.01968503937007874X0.07874015748031496*%
%ADD53R,0.01968503937007874X0.07874015748031496*%
%ADD54R,0.01968503937007874X0.07874015748031496*%
%ADD55R,0.01968503937007874X0.07874015748031496*%
%ADD56R,0.01968503937007874X0.07874015748031496*%
%ADD57R,0.01968503937007874X0.07874015748031496*%
%ADD58R,0.01968503937007874X0.07874015748031496*%
D10*
X-0005118110Y0005118110D02*
X0000621850Y0003724173D03*
X0000621850Y0003694645D03*
X0000621850Y0003665118D03*
X0000621850Y0003635590D03*
X0000621850Y0003606062D03*
X0000621850Y0003576535D03*
X0000621850Y0003547007D03*
X0000621850Y0003517480D03*
X0000621850Y0003487952D03*
X0000621850Y0003458425D03*
X0000621850Y0003428897D03*
X0000621850Y0003399370D03*
X0000621850Y0003369842D03*
X0000621850Y0003340314D03*
X0000621850Y0003310787D03*
X0000621850Y0003281259D03*
D11*
X0000576574Y0003263543D03*
X0000547047Y0003263543D03*
X0000517519Y0003263543D03*
X0000487992Y0003263543D03*
X0000458464Y0003263543D03*
X0000428937Y0003263543D03*
X0000399409Y0003263543D03*
X0000369881Y0003263543D03*
X0000340354Y0003263543D03*
X0000310826Y0003263543D03*
X0000281299Y0003263543D03*
D10*
X0000236023Y0003281259D03*
X0000236023Y0003310787D03*
X0000236023Y0003340314D03*
X0000236023Y0003369842D03*
X0000236023Y0003399370D03*
X0000236023Y0003428897D03*
X0000236023Y0003458425D03*
X0000236023Y0003487952D03*
X0000236023Y0003517480D03*
X0000236023Y0003547007D03*
X0000236023Y0003576535D03*
X0000236023Y0003606062D03*
D12*
G36*
X0000837825Y0003107632D02*
G01*
X0000838733Y0003107497D01*
X0000839623Y0003107274D01*
X0000840487Y0003106965D01*
X0000841317Y0003106573D01*
X0000842104Y0003106101D01*
X0000842841Y0003105554D01*
X0000843521Y0003104938D01*
X0000844137Y0003104258D01*
X0000844683Y0003103521D01*
X0000845155Y0003102734D01*
X0000845548Y0003101905D01*
X0000845857Y0003101041D01*
X0000846080Y0003100150D01*
X0000846214Y0003099243D01*
X0000846259Y0003098326D01*
X0000846259Y0003079625D01*
X0000846214Y0003078709D01*
X0000846080Y0003077801D01*
X0000845857Y0003076911D01*
X0000845548Y0003076047D01*
X0000845155Y0003075218D01*
X0000844683Y0003074431D01*
X0000844137Y0003073694D01*
X0000843521Y0003073014D01*
X0000842841Y0003072398D01*
X0000842104Y0003071851D01*
X0000841317Y0003071379D01*
X0000840487Y0003070987D01*
X0000839623Y0003070678D01*
X0000838733Y0003070455D01*
X0000837825Y0003070320D01*
X0000836909Y0003070275D01*
X0000814271Y0003070275D01*
X0000813355Y0003070320D01*
X0000812447Y0003070455D01*
X0000811557Y0003070678D01*
X0000810693Y0003070987D01*
X0000809863Y0003071379D01*
X0000809076Y0003071851D01*
X0000808339Y0003072398D01*
X0000807659Y0003073014D01*
X0000807043Y0003073694D01*
X0000806497Y0003074431D01*
X0000806025Y0003075218D01*
X0000805632Y0003076047D01*
X0000805323Y0003076911D01*
X0000805100Y0003077801D01*
X0000804966Y0003078709D01*
X0000804921Y0003079625D01*
X0000804921Y0003098326D01*
X0000804966Y0003099243D01*
X0000805100Y0003100150D01*
X0000805323Y0003101041D01*
X0000805632Y0003101905D01*
X0000806025Y0003102734D01*
X0000806497Y0003103521D01*
X0000807043Y0003104258D01*
X0000807659Y0003104938D01*
X0000808339Y0003105554D01*
X0000809076Y0003106101D01*
X0000809863Y0003106573D01*
X0000810693Y0003106965D01*
X0000811557Y0003107274D01*
X0000812447Y0003107497D01*
X0000813355Y0003107632D01*
X0000814271Y0003107677D01*
X0000836909Y0003107677D01*
X0000837825Y0003107632D01*
X0000837825Y0003107632D01*
G37*
D13*
X0000825590Y0003088976D03*
D12*
G36*
X0000906723Y0003107632D02*
G01*
X0000907631Y0003107497D01*
X0000908521Y0003107274D01*
X0000909385Y0003106965D01*
X0000910214Y0003106573D01*
X0000911001Y0003106101D01*
X0000911738Y0003105554D01*
X0000912418Y0003104938D01*
X0000913035Y0003104258D01*
X0000913581Y0003103521D01*
X0000914053Y0003102734D01*
X0000914445Y0003101905D01*
X0000914754Y0003101041D01*
X0000914977Y0003100150D01*
X0000915112Y0003099243D01*
X0000915157Y0003098326D01*
X0000915157Y0003079625D01*
X0000915112Y0003078709D01*
X0000914977Y0003077801D01*
X0000914754Y0003076911D01*
X0000914445Y0003076047D01*
X0000914053Y0003075218D01*
X0000913581Y0003074431D01*
X0000913035Y0003073694D01*
X0000912418Y0003073014D01*
X0000911738Y0003072398D01*
X0000911001Y0003071851D01*
X0000910214Y0003071379D01*
X0000909385Y0003070987D01*
X0000908521Y0003070678D01*
X0000907631Y0003070455D01*
X0000906723Y0003070320D01*
X0000905807Y0003070275D01*
X0000883169Y0003070275D01*
X0000882252Y0003070320D01*
X0000881345Y0003070455D01*
X0000880454Y0003070678D01*
X0000879591Y0003070987D01*
X0000878761Y0003071379D01*
X0000877974Y0003071851D01*
X0000877237Y0003072398D01*
X0000876557Y0003073014D01*
X0000875941Y0003073694D01*
X0000875394Y0003074431D01*
X0000874922Y0003075218D01*
X0000874530Y0003076047D01*
X0000874221Y0003076911D01*
X0000873998Y0003077801D01*
X0000873863Y0003078709D01*
X0000873818Y0003079625D01*
X0000873818Y0003098326D01*
X0000873863Y0003099243D01*
X0000873998Y0003100150D01*
X0000874221Y0003101041D01*
X0000874530Y0003101905D01*
X0000874922Y0003102734D01*
X0000875394Y0003103521D01*
X0000875941Y0003104258D01*
X0000876557Y0003104938D01*
X0000877237Y0003105554D01*
X0000877974Y0003106101D01*
X0000878761Y0003106573D01*
X0000879591Y0003106965D01*
X0000880454Y0003107274D01*
X0000881345Y0003107497D01*
X0000882252Y0003107632D01*
X0000883169Y0003107677D01*
X0000905807Y0003107677D01*
X0000906723Y0003107632D01*
X0000906723Y0003107632D01*
G37*
D13*
X0000894488Y0003088976D03*
D12*
G36*
X0001264400Y0003111057D02*
G01*
X0001265308Y0003110922D01*
X0001266198Y0003110699D01*
X0001267062Y0003110390D01*
X0001267891Y0003109998D01*
X0001268679Y0003109526D01*
X0001269416Y0003108979D01*
X0001270095Y0003108363D01*
X0001270712Y0003107683D01*
X0001271258Y0003106946D01*
X0001271730Y0003106159D01*
X0001272122Y0003105330D01*
X0001272431Y0003104466D01*
X0001272654Y0003103576D01*
X0001272789Y0003102668D01*
X0001272834Y0003101751D01*
X0001272834Y0003079114D01*
X0001272789Y0003078197D01*
X0001272654Y0003077289D01*
X0001272431Y0003076399D01*
X0001272122Y0003075535D01*
X0001271730Y0003074706D01*
X0001271258Y0003073919D01*
X0001270712Y0003073182D01*
X0001270095Y0003072502D01*
X0001269416Y0003071886D01*
X0001268679Y0003071339D01*
X0001267891Y0003070867D01*
X0001267062Y0003070475D01*
X0001266198Y0003070166D01*
X0001265308Y0003069943D01*
X0001264400Y0003069808D01*
X0001263484Y0003069763D01*
X0001244783Y0003069763D01*
X0001243866Y0003069808D01*
X0001242959Y0003069943D01*
X0001242069Y0003070166D01*
X0001241205Y0003070475D01*
X0001240375Y0003070867D01*
X0001239588Y0003071339D01*
X0001238851Y0003071886D01*
X0001238171Y0003072502D01*
X0001237555Y0003073182D01*
X0001237008Y0003073919D01*
X0001236537Y0003074706D01*
X0001236144Y0003075535D01*
X0001235835Y0003076399D01*
X0001235612Y0003077289D01*
X0001235478Y0003078197D01*
X0001235433Y0003079114D01*
X0001235433Y0003101751D01*
X0001235478Y0003102668D01*
X0001235612Y0003103576D01*
X0001235835Y0003104466D01*
X0001236144Y0003105330D01*
X0001236537Y0003106159D01*
X0001237008Y0003106946D01*
X0001237555Y0003107683D01*
X0001238171Y0003108363D01*
X0001238851Y0003108979D01*
X0001239588Y0003109526D01*
X0001240375Y0003109998D01*
X0001241205Y0003110390D01*
X0001242069Y0003110699D01*
X0001242959Y0003110922D01*
X0001243866Y0003111057D01*
X0001244783Y0003111102D01*
X0001263484Y0003111102D01*
X0001264400Y0003111057D01*
X0001264400Y0003111057D01*
G37*
D13*
X0001254133Y0003090433D03*
D12*
G36*
X0001264400Y0003042159D02*
G01*
X0001265308Y0003042025D01*
X0001266198Y0003041802D01*
X0001267062Y0003041492D01*
X0001267891Y0003041100D01*
X0001268679Y0003040628D01*
X0001269416Y0003040082D01*
X0001270095Y0003039466D01*
X0001270712Y0003038786D01*
X0001271258Y0003038049D01*
X0001271730Y0003037262D01*
X0001272122Y0003036432D01*
X0001272431Y0003035568D01*
X0001272654Y0003034678D01*
X0001272789Y0003033770D01*
X0001272834Y0003032854D01*
X0001272834Y0003010216D01*
X0001272789Y0003009300D01*
X0001272654Y0003008392D01*
X0001272431Y0003007502D01*
X0001272122Y0003006638D01*
X0001271730Y0003005808D01*
X0001271258Y0003005021D01*
X0001270712Y0003004284D01*
X0001270095Y0003003604D01*
X0001269416Y0003002988D01*
X0001268679Y0003002441D01*
X0001267891Y0003001970D01*
X0001267062Y0003001577D01*
X0001266198Y0003001268D01*
X0001265308Y0003001045D01*
X0001264400Y0003000911D01*
X0001263484Y0003000866D01*
X0001244783Y0003000866D01*
X0001243866Y0003000911D01*
X0001242959Y0003001045D01*
X0001242069Y0003001268D01*
X0001241205Y0003001577D01*
X0001240375Y0003001970D01*
X0001239588Y0003002441D01*
X0001238851Y0003002988D01*
X0001238171Y0003003604D01*
X0001237555Y0003004284D01*
X0001237008Y0003005021D01*
X0001236537Y0003005808D01*
X0001236144Y0003006638D01*
X0001235835Y0003007502D01*
X0001235612Y0003008392D01*
X0001235478Y0003009300D01*
X0001235433Y0003010216D01*
X0001235433Y0003032854D01*
X0001235478Y0003033770D01*
X0001235612Y0003034678D01*
X0001235835Y0003035568D01*
X0001236144Y0003036432D01*
X0001236537Y0003037262D01*
X0001237008Y0003038049D01*
X0001237555Y0003038786D01*
X0001238171Y0003039466D01*
X0001238851Y0003040082D01*
X0001239588Y0003040628D01*
X0001240375Y0003041100D01*
X0001241205Y0003041492D01*
X0001242069Y0003041802D01*
X0001242959Y0003042025D01*
X0001243866Y0003042159D01*
X0001244783Y0003042204D01*
X0001263484Y0003042204D01*
X0001264400Y0003042159D01*
X0001264400Y0003042159D01*
G37*
D13*
X0001254133Y0003021535D03*
D14*
X0001391338Y0002902834D03*
X0001391338Y0002802834D03*
X0001391338Y0002702834D03*
X0001192519Y0002902834D03*
X0001192519Y0002802834D03*
X0001192519Y0002702834D03*
D12*
G36*
X0000982983Y0003110230D02*
G01*
X0000983891Y0003110095D01*
X0000984781Y0003109872D01*
X0000985645Y0003109563D01*
X0000986474Y0003109171D01*
X0000987261Y0003108699D01*
X0000987998Y0003108153D01*
X0000988678Y0003107536D01*
X0000989294Y0003106856D01*
X0000989841Y0003106120D01*
X0000990313Y0003105332D01*
X0000990705Y0003104503D01*
X0000991014Y0003103639D01*
X0000991237Y0003102749D01*
X0000991372Y0003101841D01*
X0000991417Y0003100925D01*
X0000991417Y0003082224D01*
X0000991372Y0003081307D01*
X0000991237Y0003080400D01*
X0000991014Y0003079510D01*
X0000990705Y0003078646D01*
X0000990313Y0003077816D01*
X0000989841Y0003077029D01*
X0000989294Y0003076292D01*
X0000988678Y0003075612D01*
X0000987998Y0003074996D01*
X0000987261Y0003074449D01*
X0000986474Y0003073978D01*
X0000985645Y0003073585D01*
X0000984781Y0003073276D01*
X0000983891Y0003073053D01*
X0000982983Y0003072919D01*
X0000982066Y0003072874D01*
X0000959429Y0003072874D01*
X0000958512Y0003072919D01*
X0000957604Y0003073053D01*
X0000956714Y0003073276D01*
X0000955850Y0003073585D01*
X0000955021Y0003073978D01*
X0000954234Y0003074449D01*
X0000953497Y0003074996D01*
X0000952817Y0003075612D01*
X0000952201Y0003076292D01*
X0000951654Y0003077029D01*
X0000951182Y0003077816D01*
X0000950790Y0003078646D01*
X0000950481Y0003079510D01*
X0000950258Y0003080400D01*
X0000950123Y0003081307D01*
X0000950078Y0003082224D01*
X0000950078Y0003100925D01*
X0000950123Y0003101841D01*
X0000950258Y0003102749D01*
X0000950481Y0003103639D01*
X0000950790Y0003104503D01*
X0000951182Y0003105332D01*
X0000951654Y0003106120D01*
X0000952201Y0003106856D01*
X0000952817Y0003107536D01*
X0000953497Y0003108153D01*
X0000954234Y0003108699D01*
X0000955021Y0003109171D01*
X0000955850Y0003109563D01*
X0000956714Y0003109872D01*
X0000957604Y0003110095D01*
X0000958512Y0003110230D01*
X0000959429Y0003110275D01*
X0000982066Y0003110275D01*
X0000982983Y0003110230D01*
X0000982983Y0003110230D01*
G37*
D13*
X0000970748Y0003091574D03*
D12*
G36*
X0001051881Y0003110230D02*
G01*
X0001052788Y0003110095D01*
X0001053678Y0003109872D01*
X0001054542Y0003109563D01*
X0001055372Y0003109171D01*
X0001056159Y0003108699D01*
X0001056896Y0003108153D01*
X0001057576Y0003107536D01*
X0001058192Y0003106856D01*
X0001058739Y0003106120D01*
X0001059210Y0003105332D01*
X0001059603Y0003104503D01*
X0001059912Y0003103639D01*
X0001060135Y0003102749D01*
X0001060269Y0003101841D01*
X0001060314Y0003100925D01*
X0001060314Y0003082224D01*
X0001060269Y0003081307D01*
X0001060135Y0003080400D01*
X0001059912Y0003079510D01*
X0001059603Y0003078646D01*
X0001059210Y0003077816D01*
X0001058739Y0003077029D01*
X0001058192Y0003076292D01*
X0001057576Y0003075612D01*
X0001056896Y0003074996D01*
X0001056159Y0003074449D01*
X0001055372Y0003073978D01*
X0001054542Y0003073585D01*
X0001053678Y0003073276D01*
X0001052788Y0003073053D01*
X0001051881Y0003072919D01*
X0001050964Y0003072874D01*
X0001028326Y0003072874D01*
X0001027410Y0003072919D01*
X0001026502Y0003073053D01*
X0001025612Y0003073276D01*
X0001024748Y0003073585D01*
X0001023919Y0003073978D01*
X0001023131Y0003074449D01*
X0001022394Y0003074996D01*
X0001021715Y0003075612D01*
X0001021098Y0003076292D01*
X0001020552Y0003077029D01*
X0001020080Y0003077816D01*
X0001019688Y0003078646D01*
X0001019378Y0003079510D01*
X0001019155Y0003080400D01*
X0001019021Y0003081307D01*
X0001018976Y0003082224D01*
X0001018976Y0003100925D01*
X0001019021Y0003101841D01*
X0001019155Y0003102749D01*
X0001019378Y0003103639D01*
X0001019688Y0003104503D01*
X0001020080Y0003105332D01*
X0001020552Y0003106120D01*
X0001021098Y0003106856D01*
X0001021715Y0003107536D01*
X0001022394Y0003108153D01*
X0001023131Y0003108699D01*
X0001023919Y0003109171D01*
X0001024748Y0003109563D01*
X0001025612Y0003109872D01*
X0001026502Y0003110095D01*
X0001027410Y0003110230D01*
X0001028326Y0003110275D01*
X0001050964Y0003110275D01*
X0001051881Y0003110230D01*
X0001051881Y0003110230D01*
G37*
D13*
X0001039645Y0003091574D03*
D14*
X0001392086Y0002546810D03*
X0001392086Y0002446811D03*
X0001193267Y0002546810D03*
X0001193267Y0002446811D03*
D12*
G36*
X0000840070Y0003036884D02*
G01*
X0000840977Y0003036749D01*
X0000841867Y0003036526D01*
X0000842731Y0003036217D01*
X0000843561Y0003035825D01*
X0000844348Y0003035353D01*
X0000845085Y0003034806D01*
X0000845765Y0003034190D01*
X0000846381Y0003033510D01*
X0000846928Y0003032773D01*
X0000847399Y0003031986D01*
X0000847792Y0003031156D01*
X0000848101Y0003030293D01*
X0000848324Y0003029402D01*
X0000848458Y0003028495D01*
X0000848503Y0003027578D01*
X0000848503Y0003008877D01*
X0000848458Y0003007961D01*
X0000848324Y0003007053D01*
X0000848101Y0003006163D01*
X0000847792Y0003005299D01*
X0000847399Y0003004470D01*
X0000846928Y0003003683D01*
X0000846381Y0003002946D01*
X0000845765Y0003002266D01*
X0000845085Y0003001649D01*
X0000844348Y0003001103D01*
X0000843561Y0003000631D01*
X0000842731Y0003000239D01*
X0000841867Y0002999930D01*
X0000840977Y0002999707D01*
X0000840070Y0002999572D01*
X0000839153Y0002999527D01*
X0000816515Y0002999527D01*
X0000815599Y0002999572D01*
X0000814691Y0002999707D01*
X0000813801Y0002999930D01*
X0000812937Y0003000239D01*
X0000812107Y0003000631D01*
X0000811320Y0003001103D01*
X0000810583Y0003001649D01*
X0000809904Y0003002266D01*
X0000809287Y0003002946D01*
X0000808741Y0003003683D01*
X0000808269Y0003004470D01*
X0000807877Y0003005299D01*
X0000807567Y0003006163D01*
X0000807345Y0003007053D01*
X0000807210Y0003007961D01*
X0000807165Y0003008877D01*
X0000807165Y0003027578D01*
X0000807210Y0003028495D01*
X0000807345Y0003029402D01*
X0000807567Y0003030293D01*
X0000807877Y0003031156D01*
X0000808269Y0003031986D01*
X0000808741Y0003032773D01*
X0000809287Y0003033510D01*
X0000809904Y0003034190D01*
X0000810583Y0003034806D01*
X0000811320Y0003035353D01*
X0000812107Y0003035825D01*
X0000812937Y0003036217D01*
X0000813801Y0003036526D01*
X0000814691Y0003036749D01*
X0000815599Y0003036884D01*
X0000816515Y0003036929D01*
X0000839153Y0003036929D01*
X0000840070Y0003036884D01*
X0000840070Y0003036884D01*
G37*
D13*
X0000827834Y0003018228D03*
D12*
G36*
X0000908967Y0003036884D02*
G01*
X0000909875Y0003036749D01*
X0000910765Y0003036526D01*
X0000911629Y0003036217D01*
X0000912458Y0003035825D01*
X0000913245Y0003035353D01*
X0000913982Y0003034806D01*
X0000914662Y0003034190D01*
X0000915279Y0003033510D01*
X0000915825Y0003032773D01*
X0000916297Y0003031986D01*
X0000916689Y0003031156D01*
X0000916998Y0003030293D01*
X0000917221Y0003029402D01*
X0000917356Y0003028495D01*
X0000917401Y0003027578D01*
X0000917401Y0003008877D01*
X0000917356Y0003007961D01*
X0000917221Y0003007053D01*
X0000916998Y0003006163D01*
X0000916689Y0003005299D01*
X0000916297Y0003004470D01*
X0000915825Y0003003683D01*
X0000915279Y0003002946D01*
X0000914662Y0003002266D01*
X0000913982Y0003001649D01*
X0000913245Y0003001103D01*
X0000912458Y0003000631D01*
X0000911629Y0003000239D01*
X0000910765Y0002999930D01*
X0000909875Y0002999707D01*
X0000908967Y0002999572D01*
X0000908051Y0002999527D01*
X0000885413Y0002999527D01*
X0000884496Y0002999572D01*
X0000883589Y0002999707D01*
X0000882699Y0002999930D01*
X0000881835Y0003000239D01*
X0000881005Y0003000631D01*
X0000880218Y0003001103D01*
X0000879481Y0003001649D01*
X0000878801Y0003002266D01*
X0000878185Y0003002946D01*
X0000877638Y0003003683D01*
X0000877167Y0003004470D01*
X0000876774Y0003005299D01*
X0000876465Y0003006163D01*
X0000876242Y0003007053D01*
X0000876107Y0003007961D01*
X0000876062Y0003008877D01*
X0000876062Y0003027578D01*
X0000876107Y0003028495D01*
X0000876242Y0003029402D01*
X0000876465Y0003030293D01*
X0000876774Y0003031156D01*
X0000877167Y0003031986D01*
X0000877638Y0003032773D01*
X0000878185Y0003033510D01*
X0000878801Y0003034190D01*
X0000879481Y0003034806D01*
X0000880218Y0003035353D01*
X0000881005Y0003035825D01*
X0000881835Y0003036217D01*
X0000882699Y0003036526D01*
X0000883589Y0003036749D01*
X0000884496Y0003036884D01*
X0000885413Y0003036929D01*
X0000908051Y0003036929D01*
X0000908967Y0003036884D01*
X0000908967Y0003036884D01*
G37*
D13*
X0000896732Y0003018228D03*
D12*
G36*
X0001199515Y0003440168D02*
G01*
X0001200089Y0003440083D01*
X0001200651Y0003439942D01*
X0001201196Y0003439747D01*
X0001201720Y0003439499D01*
X0001202217Y0003439201D01*
X0001202683Y0003438856D01*
X0001203112Y0003438467D01*
X0001203502Y0003438037D01*
X0001203847Y0003437572D01*
X0001204145Y0003437075D01*
X0001204392Y0003436551D01*
X0001204588Y0003436005D01*
X0001204729Y0003435443D01*
X0001204814Y0003434870D01*
X0001204842Y0003434291D01*
X0001204842Y0003422480D01*
X0001204814Y0003421901D01*
X0001204729Y0003421328D01*
X0001204588Y0003420766D01*
X0001204392Y0003420220D01*
X0001204145Y0003419696D01*
X0001203847Y0003419199D01*
X0001203502Y0003418733D01*
X0001203112Y0003418304D01*
X0001202683Y0003417915D01*
X0001202217Y0003417570D01*
X0001201720Y0003417272D01*
X0001201196Y0003417024D01*
X0001200651Y0003416829D01*
X0001200089Y0003416688D01*
X0001199515Y0003416603D01*
X0001198937Y0003416574D01*
X0001130039Y0003416574D01*
X0001129460Y0003416603D01*
X0001128887Y0003416688D01*
X0001128325Y0003416829D01*
X0001127779Y0003417024D01*
X0001127255Y0003417272D01*
X0001126758Y0003417570D01*
X0001126292Y0003417915D01*
X0001125863Y0003418304D01*
X0001125474Y0003418733D01*
X0001125129Y0003419199D01*
X0001124831Y0003419696D01*
X0001124583Y0003420220D01*
X0001124388Y0003420766D01*
X0001124247Y0003421328D01*
X0001124162Y0003421901D01*
X0001124133Y0003422480D01*
X0001124133Y0003434291D01*
X0001124162Y0003434870D01*
X0001124247Y0003435443D01*
X0001124388Y0003436005D01*
X0001124583Y0003436551D01*
X0001124831Y0003437075D01*
X0001125129Y0003437572D01*
X0001125474Y0003438037D01*
X0001125863Y0003438467D01*
X0001126292Y0003438856D01*
X0001126758Y0003439201D01*
X0001127255Y0003439499D01*
X0001127779Y0003439747D01*
X0001128325Y0003439942D01*
X0001128887Y0003440083D01*
X0001129460Y0003440168D01*
X0001130039Y0003440196D01*
X0001198937Y0003440196D01*
X0001199515Y0003440168D01*
X0001199515Y0003440168D01*
G37*
D15*
X0001164488Y0003428385D03*
D12*
G36*
X0001199515Y0003490168D02*
G01*
X0001200089Y0003490083D01*
X0001200651Y0003489942D01*
X0001201196Y0003489747D01*
X0001201720Y0003489499D01*
X0001202217Y0003489201D01*
X0001202683Y0003488856D01*
X0001203112Y0003488467D01*
X0001203502Y0003488037D01*
X0001203847Y0003487572D01*
X0001204145Y0003487075D01*
X0001204392Y0003486551D01*
X0001204588Y0003486005D01*
X0001204729Y0003485443D01*
X0001204814Y0003484870D01*
X0001204842Y0003484291D01*
X0001204842Y0003472480D01*
X0001204814Y0003471901D01*
X0001204729Y0003471328D01*
X0001204588Y0003470766D01*
X0001204392Y0003470220D01*
X0001204145Y0003469696D01*
X0001203847Y0003469199D01*
X0001203502Y0003468733D01*
X0001203112Y0003468304D01*
X0001202683Y0003467915D01*
X0001202217Y0003467570D01*
X0001201720Y0003467272D01*
X0001201196Y0003467024D01*
X0001200651Y0003466829D01*
X0001200089Y0003466688D01*
X0001199515Y0003466603D01*
X0001198937Y0003466574D01*
X0001130039Y0003466574D01*
X0001129460Y0003466603D01*
X0001128887Y0003466688D01*
X0001128325Y0003466829D01*
X0001127779Y0003467024D01*
X0001127255Y0003467272D01*
X0001126758Y0003467570D01*
X0001126292Y0003467915D01*
X0001125863Y0003468304D01*
X0001125474Y0003468733D01*
X0001125129Y0003469199D01*
X0001124831Y0003469696D01*
X0001124583Y0003470220D01*
X0001124388Y0003470766D01*
X0001124247Y0003471328D01*
X0001124162Y0003471901D01*
X0001124133Y0003472480D01*
X0001124133Y0003484291D01*
X0001124162Y0003484870D01*
X0001124247Y0003485443D01*
X0001124388Y0003486005D01*
X0001124583Y0003486551D01*
X0001124831Y0003487075D01*
X0001125129Y0003487572D01*
X0001125474Y0003488037D01*
X0001125863Y0003488467D01*
X0001126292Y0003488856D01*
X0001126758Y0003489201D01*
X0001127255Y0003489499D01*
X0001127779Y0003489747D01*
X0001128325Y0003489942D01*
X0001128887Y0003490083D01*
X0001129460Y0003490168D01*
X0001130039Y0003490196D01*
X0001198937Y0003490196D01*
X0001199515Y0003490168D01*
X0001199515Y0003490168D01*
G37*
D15*
X0001164488Y0003478385D03*
D12*
G36*
X0001199515Y0003540168D02*
G01*
X0001200089Y0003540083D01*
X0001200651Y0003539942D01*
X0001201196Y0003539747D01*
X0001201720Y0003539499D01*
X0001202217Y0003539201D01*
X0001202683Y0003538856D01*
X0001203112Y0003538467D01*
X0001203502Y0003538037D01*
X0001203847Y0003537572D01*
X0001204145Y0003537075D01*
X0001204392Y0003536551D01*
X0001204588Y0003536005D01*
X0001204729Y0003535443D01*
X0001204814Y0003534870D01*
X0001204842Y0003534291D01*
X0001204842Y0003522480D01*
X0001204814Y0003521901D01*
X0001204729Y0003521328D01*
X0001204588Y0003520766D01*
X0001204392Y0003520220D01*
X0001204145Y0003519696D01*
X0001203847Y0003519199D01*
X0001203502Y0003518733D01*
X0001203112Y0003518304D01*
X0001202683Y0003517915D01*
X0001202217Y0003517570D01*
X0001201720Y0003517272D01*
X0001201196Y0003517024D01*
X0001200651Y0003516829D01*
X0001200089Y0003516688D01*
X0001199515Y0003516603D01*
X0001198937Y0003516574D01*
X0001130039Y0003516574D01*
X0001129460Y0003516603D01*
X0001128887Y0003516688D01*
X0001128325Y0003516829D01*
X0001127779Y0003517024D01*
X0001127255Y0003517272D01*
X0001126758Y0003517570D01*
X0001126292Y0003517915D01*
X0001125863Y0003518304D01*
X0001125474Y0003518733D01*
X0001125129Y0003519199D01*
X0001124831Y0003519696D01*
X0001124583Y0003520220D01*
X0001124388Y0003520766D01*
X0001124247Y0003521328D01*
X0001124162Y0003521901D01*
X0001124133Y0003522480D01*
X0001124133Y0003534291D01*
X0001124162Y0003534870D01*
X0001124247Y0003535443D01*
X0001124388Y0003536005D01*
X0001124583Y0003536551D01*
X0001124831Y0003537075D01*
X0001125129Y0003537572D01*
X0001125474Y0003538037D01*
X0001125863Y0003538467D01*
X0001126292Y0003538856D01*
X0001126758Y0003539201D01*
X0001127255Y0003539499D01*
X0001127779Y0003539747D01*
X0001128325Y0003539942D01*
X0001128887Y0003540083D01*
X0001129460Y0003540168D01*
X0001130039Y0003540196D01*
X0001198937Y0003540196D01*
X0001199515Y0003540168D01*
X0001199515Y0003540168D01*
G37*
D15*
X0001164488Y0003528385D03*
D12*
G36*
X0001199515Y0003590168D02*
G01*
X0001200089Y0003590083D01*
X0001200651Y0003589942D01*
X0001201196Y0003589747D01*
X0001201720Y0003589499D01*
X0001202217Y0003589201D01*
X0001202683Y0003588856D01*
X0001203112Y0003588467D01*
X0001203502Y0003588037D01*
X0001203847Y0003587572D01*
X0001204145Y0003587075D01*
X0001204392Y0003586551D01*
X0001204588Y0003586005D01*
X0001204729Y0003585443D01*
X0001204814Y0003584870D01*
X0001204842Y0003584291D01*
X0001204842Y0003572480D01*
X0001204814Y0003571901D01*
X0001204729Y0003571328D01*
X0001204588Y0003570766D01*
X0001204392Y0003570220D01*
X0001204145Y0003569696D01*
X0001203847Y0003569199D01*
X0001203502Y0003568733D01*
X0001203112Y0003568304D01*
X0001202683Y0003567915D01*
X0001202217Y0003567570D01*
X0001201720Y0003567272D01*
X0001201196Y0003567024D01*
X0001200651Y0003566829D01*
X0001200089Y0003566688D01*
X0001199515Y0003566603D01*
X0001198937Y0003566574D01*
X0001130039Y0003566574D01*
X0001129460Y0003566603D01*
X0001128887Y0003566688D01*
X0001128325Y0003566829D01*
X0001127779Y0003567024D01*
X0001127255Y0003567272D01*
X0001126758Y0003567570D01*
X0001126292Y0003567915D01*
X0001125863Y0003568304D01*
X0001125474Y0003568733D01*
X0001125129Y0003569199D01*
X0001124831Y0003569696D01*
X0001124583Y0003570220D01*
X0001124388Y0003570766D01*
X0001124247Y0003571328D01*
X0001124162Y0003571901D01*
X0001124133Y0003572480D01*
X0001124133Y0003584291D01*
X0001124162Y0003584870D01*
X0001124247Y0003585443D01*
X0001124388Y0003586005D01*
X0001124583Y0003586551D01*
X0001124831Y0003587075D01*
X0001125129Y0003587572D01*
X0001125474Y0003588037D01*
X0001125863Y0003588467D01*
X0001126292Y0003588856D01*
X0001126758Y0003589201D01*
X0001127255Y0003589499D01*
X0001127779Y0003589747D01*
X0001128325Y0003589942D01*
X0001128887Y0003590083D01*
X0001129460Y0003590168D01*
X0001130039Y0003590196D01*
X0001198937Y0003590196D01*
X0001199515Y0003590168D01*
X0001199515Y0003590168D01*
G37*
D15*
X0001164488Y0003578385D03*
D12*
G36*
X0001199515Y0003640168D02*
G01*
X0001200089Y0003640083D01*
X0001200651Y0003639942D01*
X0001201196Y0003639747D01*
X0001201720Y0003639499D01*
X0001202217Y0003639201D01*
X0001202683Y0003638856D01*
X0001203112Y0003638467D01*
X0001203502Y0003638037D01*
X0001203847Y0003637572D01*
X0001204145Y0003637075D01*
X0001204392Y0003636551D01*
X0001204588Y0003636005D01*
X0001204729Y0003635443D01*
X0001204814Y0003634870D01*
X0001204842Y0003634291D01*
X0001204842Y0003622480D01*
X0001204814Y0003621901D01*
X0001204729Y0003621328D01*
X0001204588Y0003620766D01*
X0001204392Y0003620220D01*
X0001204145Y0003619696D01*
X0001203847Y0003619199D01*
X0001203502Y0003618733D01*
X0001203112Y0003618304D01*
X0001202683Y0003617915D01*
X0001202217Y0003617570D01*
X0001201720Y0003617272D01*
X0001201196Y0003617024D01*
X0001200651Y0003616829D01*
X0001200089Y0003616688D01*
X0001199515Y0003616603D01*
X0001198937Y0003616574D01*
X0001130039Y0003616574D01*
X0001129460Y0003616603D01*
X0001128887Y0003616688D01*
X0001128325Y0003616829D01*
X0001127779Y0003617024D01*
X0001127255Y0003617272D01*
X0001126758Y0003617570D01*
X0001126292Y0003617915D01*
X0001125863Y0003618304D01*
X0001125474Y0003618733D01*
X0001125129Y0003619199D01*
X0001124831Y0003619696D01*
X0001124583Y0003620220D01*
X0001124388Y0003620766D01*
X0001124247Y0003621328D01*
X0001124162Y0003621901D01*
X0001124133Y0003622480D01*
X0001124133Y0003634291D01*
X0001124162Y0003634870D01*
X0001124247Y0003635443D01*
X0001124388Y0003636005D01*
X0001124583Y0003636551D01*
X0001124831Y0003637075D01*
X0001125129Y0003637572D01*
X0001125474Y0003638037D01*
X0001125863Y0003638467D01*
X0001126292Y0003638856D01*
X0001126758Y0003639201D01*
X0001127255Y0003639499D01*
X0001127779Y0003639747D01*
X0001128325Y0003639942D01*
X0001128887Y0003640083D01*
X0001129460Y0003640168D01*
X0001130039Y0003640196D01*
X0001198937Y0003640196D01*
X0001199515Y0003640168D01*
X0001199515Y0003640168D01*
G37*
D15*
X0001164488Y0003628385D03*
D12*
G36*
X0001199515Y0003690168D02*
G01*
X0001200089Y0003690083D01*
X0001200651Y0003689942D01*
X0001201196Y0003689747D01*
X0001201720Y0003689499D01*
X0001202217Y0003689201D01*
X0001202683Y0003688856D01*
X0001203112Y0003688467D01*
X0001203502Y0003688037D01*
X0001203847Y0003687572D01*
X0001204145Y0003687075D01*
X0001204392Y0003686551D01*
X0001204588Y0003686005D01*
X0001204729Y0003685443D01*
X0001204814Y0003684870D01*
X0001204842Y0003684291D01*
X0001204842Y0003672480D01*
X0001204814Y0003671901D01*
X0001204729Y0003671328D01*
X0001204588Y0003670766D01*
X0001204392Y0003670220D01*
X0001204145Y0003669696D01*
X0001203847Y0003669199D01*
X0001203502Y0003668733D01*
X0001203112Y0003668304D01*
X0001202683Y0003667915D01*
X0001202217Y0003667570D01*
X0001201720Y0003667272D01*
X0001201196Y0003667024D01*
X0001200651Y0003666829D01*
X0001200089Y0003666688D01*
X0001199515Y0003666603D01*
X0001198937Y0003666574D01*
X0001130039Y0003666574D01*
X0001129460Y0003666603D01*
X0001128887Y0003666688D01*
X0001128325Y0003666829D01*
X0001127779Y0003667024D01*
X0001127255Y0003667272D01*
X0001126758Y0003667570D01*
X0001126292Y0003667915D01*
X0001125863Y0003668304D01*
X0001125474Y0003668733D01*
X0001125129Y0003669199D01*
X0001124831Y0003669696D01*
X0001124583Y0003670220D01*
X0001124388Y0003670766D01*
X0001124247Y0003671328D01*
X0001124162Y0003671901D01*
X0001124133Y0003672480D01*
X0001124133Y0003684291D01*
X0001124162Y0003684870D01*
X0001124247Y0003685443D01*
X0001124388Y0003686005D01*
X0001124583Y0003686551D01*
X0001124831Y0003687075D01*
X0001125129Y0003687572D01*
X0001125474Y0003688037D01*
X0001125863Y0003688467D01*
X0001126292Y0003688856D01*
X0001126758Y0003689201D01*
X0001127255Y0003689499D01*
X0001127779Y0003689747D01*
X0001128325Y0003689942D01*
X0001128887Y0003690083D01*
X0001129460Y0003690168D01*
X0001130039Y0003690196D01*
X0001198937Y0003690196D01*
X0001199515Y0003690168D01*
X0001199515Y0003690168D01*
G37*
D15*
X0001164488Y0003678385D03*
D12*
G36*
X0001199515Y0003740168D02*
G01*
X0001200089Y0003740083D01*
X0001200651Y0003739942D01*
X0001201196Y0003739747D01*
X0001201720Y0003739499D01*
X0001202217Y0003739201D01*
X0001202683Y0003738856D01*
X0001203112Y0003738467D01*
X0001203502Y0003738037D01*
X0001203847Y0003737572D01*
X0001204145Y0003737075D01*
X0001204392Y0003736551D01*
X0001204588Y0003736005D01*
X0001204729Y0003735443D01*
X0001204814Y0003734870D01*
X0001204842Y0003734291D01*
X0001204842Y0003722480D01*
X0001204814Y0003721901D01*
X0001204729Y0003721328D01*
X0001204588Y0003720766D01*
X0001204392Y0003720220D01*
X0001204145Y0003719696D01*
X0001203847Y0003719199D01*
X0001203502Y0003718733D01*
X0001203112Y0003718304D01*
X0001202683Y0003717915D01*
X0001202217Y0003717570D01*
X0001201720Y0003717272D01*
X0001201196Y0003717024D01*
X0001200651Y0003716829D01*
X0001200089Y0003716688D01*
X0001199515Y0003716603D01*
X0001198937Y0003716574D01*
X0001130039Y0003716574D01*
X0001129460Y0003716603D01*
X0001128887Y0003716688D01*
X0001128325Y0003716829D01*
X0001127779Y0003717024D01*
X0001127255Y0003717272D01*
X0001126758Y0003717570D01*
X0001126292Y0003717915D01*
X0001125863Y0003718304D01*
X0001125474Y0003718733D01*
X0001125129Y0003719199D01*
X0001124831Y0003719696D01*
X0001124583Y0003720220D01*
X0001124388Y0003720766D01*
X0001124247Y0003721328D01*
X0001124162Y0003721901D01*
X0001124133Y0003722480D01*
X0001124133Y0003734291D01*
X0001124162Y0003734870D01*
X0001124247Y0003735443D01*
X0001124388Y0003736005D01*
X0001124583Y0003736551D01*
X0001124831Y0003737075D01*
X0001125129Y0003737572D01*
X0001125474Y0003738037D01*
X0001125863Y0003738467D01*
X0001126292Y0003738856D01*
X0001126758Y0003739201D01*
X0001127255Y0003739499D01*
X0001127779Y0003739747D01*
X0001128325Y0003739942D01*
X0001128887Y0003740083D01*
X0001129460Y0003740168D01*
X0001130039Y0003740196D01*
X0001198937Y0003740196D01*
X0001199515Y0003740168D01*
X0001199515Y0003740168D01*
G37*
D15*
X0001164488Y0003728385D03*
D12*
G36*
X0001199515Y0003790168D02*
G01*
X0001200089Y0003790083D01*
X0001200651Y0003789942D01*
X0001201196Y0003789747D01*
X0001201720Y0003789499D01*
X0001202217Y0003789201D01*
X0001202683Y0003788856D01*
X0001203112Y0003788467D01*
X0001203502Y0003788037D01*
X0001203847Y0003787572D01*
X0001204145Y0003787075D01*
X0001204392Y0003786551D01*
X0001204588Y0003786005D01*
X0001204729Y0003785443D01*
X0001204814Y0003784870D01*
X0001204842Y0003784291D01*
X0001204842Y0003772480D01*
X0001204814Y0003771901D01*
X0001204729Y0003771328D01*
X0001204588Y0003770766D01*
X0001204392Y0003770220D01*
X0001204145Y0003769696D01*
X0001203847Y0003769199D01*
X0001203502Y0003768733D01*
X0001203112Y0003768304D01*
X0001202683Y0003767915D01*
X0001202217Y0003767570D01*
X0001201720Y0003767272D01*
X0001201196Y0003767024D01*
X0001200651Y0003766829D01*
X0001200089Y0003766688D01*
X0001199515Y0003766603D01*
X0001198937Y0003766574D01*
X0001130039Y0003766574D01*
X0001129460Y0003766603D01*
X0001128887Y0003766688D01*
X0001128325Y0003766829D01*
X0001127779Y0003767024D01*
X0001127255Y0003767272D01*
X0001126758Y0003767570D01*
X0001126292Y0003767915D01*
X0001125863Y0003768304D01*
X0001125474Y0003768733D01*
X0001125129Y0003769199D01*
X0001124831Y0003769696D01*
X0001124583Y0003770220D01*
X0001124388Y0003770766D01*
X0001124247Y0003771328D01*
X0001124162Y0003771901D01*
X0001124133Y0003772480D01*
X0001124133Y0003784291D01*
X0001124162Y0003784870D01*
X0001124247Y0003785443D01*
X0001124388Y0003786005D01*
X0001124583Y0003786551D01*
X0001124831Y0003787075D01*
X0001125129Y0003787572D01*
X0001125474Y0003788037D01*
X0001125863Y0003788467D01*
X0001126292Y0003788856D01*
X0001126758Y0003789201D01*
X0001127255Y0003789499D01*
X0001127779Y0003789747D01*
X0001128325Y0003789942D01*
X0001128887Y0003790083D01*
X0001129460Y0003790168D01*
X0001130039Y0003790196D01*
X0001198937Y0003790196D01*
X0001199515Y0003790168D01*
X0001199515Y0003790168D01*
G37*
D15*
X0001164488Y0003778385D03*
D12*
G36*
X0000833374Y0003790168D02*
G01*
X0000833947Y0003790083D01*
X0000834509Y0003789942D01*
X0000835055Y0003789747D01*
X0000835579Y0003789499D01*
X0000836076Y0003789201D01*
X0000836541Y0003788856D01*
X0000836971Y0003788467D01*
X0000837360Y0003788037D01*
X0000837705Y0003787572D01*
X0000838003Y0003787075D01*
X0000838251Y0003786551D01*
X0000838446Y0003786005D01*
X0000838587Y0003785443D01*
X0000838672Y0003784870D01*
X0000838700Y0003784291D01*
X0000838700Y0003772480D01*
X0000838672Y0003771901D01*
X0000838587Y0003771328D01*
X0000838446Y0003770766D01*
X0000838251Y0003770220D01*
X0000838003Y0003769696D01*
X0000837705Y0003769199D01*
X0000837360Y0003768733D01*
X0000836971Y0003768304D01*
X0000836541Y0003767915D01*
X0000836076Y0003767570D01*
X0000835579Y0003767272D01*
X0000835055Y0003767024D01*
X0000834509Y0003766829D01*
X0000833947Y0003766688D01*
X0000833374Y0003766603D01*
X0000832795Y0003766574D01*
X0000763897Y0003766574D01*
X0000763318Y0003766603D01*
X0000762745Y0003766688D01*
X0000762183Y0003766829D01*
X0000761637Y0003767024D01*
X0000761113Y0003767272D01*
X0000760616Y0003767570D01*
X0000760151Y0003767915D01*
X0000759721Y0003768304D01*
X0000759332Y0003768733D01*
X0000758987Y0003769199D01*
X0000758689Y0003769696D01*
X0000758441Y0003770220D01*
X0000758246Y0003770766D01*
X0000758105Y0003771328D01*
X0000758020Y0003771901D01*
X0000757992Y0003772480D01*
X0000757992Y0003784291D01*
X0000758020Y0003784870D01*
X0000758105Y0003785443D01*
X0000758246Y0003786005D01*
X0000758441Y0003786551D01*
X0000758689Y0003787075D01*
X0000758987Y0003787572D01*
X0000759332Y0003788037D01*
X0000759721Y0003788467D01*
X0000760151Y0003788856D01*
X0000760616Y0003789201D01*
X0000761113Y0003789499D01*
X0000761637Y0003789747D01*
X0000762183Y0003789942D01*
X0000762745Y0003790083D01*
X0000763318Y0003790168D01*
X0000763897Y0003790196D01*
X0000832795Y0003790196D01*
X0000833374Y0003790168D01*
X0000833374Y0003790168D01*
G37*
D15*
X0000798346Y0003778385D03*
D12*
G36*
X0000833374Y0003740168D02*
G01*
X0000833947Y0003740083D01*
X0000834509Y0003739942D01*
X0000835055Y0003739747D01*
X0000835579Y0003739499D01*
X0000836076Y0003739201D01*
X0000836541Y0003738856D01*
X0000836971Y0003738467D01*
X0000837360Y0003738037D01*
X0000837705Y0003737572D01*
X0000838003Y0003737075D01*
X0000838251Y0003736551D01*
X0000838446Y0003736005D01*
X0000838587Y0003735443D01*
X0000838672Y0003734870D01*
X0000838700Y0003734291D01*
X0000838700Y0003722480D01*
X0000838672Y0003721901D01*
X0000838587Y0003721328D01*
X0000838446Y0003720766D01*
X0000838251Y0003720220D01*
X0000838003Y0003719696D01*
X0000837705Y0003719199D01*
X0000837360Y0003718733D01*
X0000836971Y0003718304D01*
X0000836541Y0003717915D01*
X0000836076Y0003717570D01*
X0000835579Y0003717272D01*
X0000835055Y0003717024D01*
X0000834509Y0003716829D01*
X0000833947Y0003716688D01*
X0000833374Y0003716603D01*
X0000832795Y0003716574D01*
X0000763897Y0003716574D01*
X0000763318Y0003716603D01*
X0000762745Y0003716688D01*
X0000762183Y0003716829D01*
X0000761637Y0003717024D01*
X0000761113Y0003717272D01*
X0000760616Y0003717570D01*
X0000760151Y0003717915D01*
X0000759721Y0003718304D01*
X0000759332Y0003718733D01*
X0000758987Y0003719199D01*
X0000758689Y0003719696D01*
X0000758441Y0003720220D01*
X0000758246Y0003720766D01*
X0000758105Y0003721328D01*
X0000758020Y0003721901D01*
X0000757992Y0003722480D01*
X0000757992Y0003734291D01*
X0000758020Y0003734870D01*
X0000758105Y0003735443D01*
X0000758246Y0003736005D01*
X0000758441Y0003736551D01*
X0000758689Y0003737075D01*
X0000758987Y0003737572D01*
X0000759332Y0003738037D01*
X0000759721Y0003738467D01*
X0000760151Y0003738856D01*
X0000760616Y0003739201D01*
X0000761113Y0003739499D01*
X0000761637Y0003739747D01*
X0000762183Y0003739942D01*
X0000762745Y0003740083D01*
X0000763318Y0003740168D01*
X0000763897Y0003740196D01*
X0000832795Y0003740196D01*
X0000833374Y0003740168D01*
X0000833374Y0003740168D01*
G37*
D15*
X0000798346Y0003728385D03*
D12*
G36*
X0000833374Y0003690168D02*
G01*
X0000833947Y0003690083D01*
X0000834509Y0003689942D01*
X0000835055Y0003689747D01*
X0000835579Y0003689499D01*
X0000836076Y0003689201D01*
X0000836541Y0003688856D01*
X0000836971Y0003688467D01*
X0000837360Y0003688037D01*
X0000837705Y0003687572D01*
X0000838003Y0003687075D01*
X0000838251Y0003686551D01*
X0000838446Y0003686005D01*
X0000838587Y0003685443D01*
X0000838672Y0003684870D01*
X0000838700Y0003684291D01*
X0000838700Y0003672480D01*
X0000838672Y0003671901D01*
X0000838587Y0003671328D01*
X0000838446Y0003670766D01*
X0000838251Y0003670220D01*
X0000838003Y0003669696D01*
X0000837705Y0003669199D01*
X0000837360Y0003668733D01*
X0000836971Y0003668304D01*
X0000836541Y0003667915D01*
X0000836076Y0003667570D01*
X0000835579Y0003667272D01*
X0000835055Y0003667024D01*
X0000834509Y0003666829D01*
X0000833947Y0003666688D01*
X0000833374Y0003666603D01*
X0000832795Y0003666574D01*
X0000763897Y0003666574D01*
X0000763318Y0003666603D01*
X0000762745Y0003666688D01*
X0000762183Y0003666829D01*
X0000761637Y0003667024D01*
X0000761113Y0003667272D01*
X0000760616Y0003667570D01*
X0000760151Y0003667915D01*
X0000759721Y0003668304D01*
X0000759332Y0003668733D01*
X0000758987Y0003669199D01*
X0000758689Y0003669696D01*
X0000758441Y0003670220D01*
X0000758246Y0003670766D01*
X0000758105Y0003671328D01*
X0000758020Y0003671901D01*
X0000757992Y0003672480D01*
X0000757992Y0003684291D01*
X0000758020Y0003684870D01*
X0000758105Y0003685443D01*
X0000758246Y0003686005D01*
X0000758441Y0003686551D01*
X0000758689Y0003687075D01*
X0000758987Y0003687572D01*
X0000759332Y0003688037D01*
X0000759721Y0003688467D01*
X0000760151Y0003688856D01*
X0000760616Y0003689201D01*
X0000761113Y0003689499D01*
X0000761637Y0003689747D01*
X0000762183Y0003689942D01*
X0000762745Y0003690083D01*
X0000763318Y0003690168D01*
X0000763897Y0003690196D01*
X0000832795Y0003690196D01*
X0000833374Y0003690168D01*
X0000833374Y0003690168D01*
G37*
D15*
X0000798346Y0003678385D03*
D12*
G36*
X0000833374Y0003640168D02*
G01*
X0000833947Y0003640083D01*
X0000834509Y0003639942D01*
X0000835055Y0003639747D01*
X0000835579Y0003639499D01*
X0000836076Y0003639201D01*
X0000836541Y0003638856D01*
X0000836971Y0003638467D01*
X0000837360Y0003638037D01*
X0000837705Y0003637572D01*
X0000838003Y0003637075D01*
X0000838251Y0003636551D01*
X0000838446Y0003636005D01*
X0000838587Y0003635443D01*
X0000838672Y0003634870D01*
X0000838700Y0003634291D01*
X0000838700Y0003622480D01*
X0000838672Y0003621901D01*
X0000838587Y0003621328D01*
X0000838446Y0003620766D01*
X0000838251Y0003620220D01*
X0000838003Y0003619696D01*
X0000837705Y0003619199D01*
X0000837360Y0003618733D01*
X0000836971Y0003618304D01*
X0000836541Y0003617915D01*
X0000836076Y0003617570D01*
X0000835579Y0003617272D01*
X0000835055Y0003617024D01*
X0000834509Y0003616829D01*
X0000833947Y0003616688D01*
X0000833374Y0003616603D01*
X0000832795Y0003616574D01*
X0000763897Y0003616574D01*
X0000763318Y0003616603D01*
X0000762745Y0003616688D01*
X0000762183Y0003616829D01*
X0000761637Y0003617024D01*
X0000761113Y0003617272D01*
X0000760616Y0003617570D01*
X0000760151Y0003617915D01*
X0000759721Y0003618304D01*
X0000759332Y0003618733D01*
X0000758987Y0003619199D01*
X0000758689Y0003619696D01*
X0000758441Y0003620220D01*
X0000758246Y0003620766D01*
X0000758105Y0003621328D01*
X0000758020Y0003621901D01*
X0000757992Y0003622480D01*
X0000757992Y0003634291D01*
X0000758020Y0003634870D01*
X0000758105Y0003635443D01*
X0000758246Y0003636005D01*
X0000758441Y0003636551D01*
X0000758689Y0003637075D01*
X0000758987Y0003637572D01*
X0000759332Y0003638037D01*
X0000759721Y0003638467D01*
X0000760151Y0003638856D01*
X0000760616Y0003639201D01*
X0000761113Y0003639499D01*
X0000761637Y0003639747D01*
X0000762183Y0003639942D01*
X0000762745Y0003640083D01*
X0000763318Y0003640168D01*
X0000763897Y0003640196D01*
X0000832795Y0003640196D01*
X0000833374Y0003640168D01*
X0000833374Y0003640168D01*
G37*
D15*
X0000798346Y0003628385D03*
D12*
G36*
X0000833374Y0003590168D02*
G01*
X0000833947Y0003590083D01*
X0000834509Y0003589942D01*
X0000835055Y0003589747D01*
X0000835579Y0003589499D01*
X0000836076Y0003589201D01*
X0000836541Y0003588856D01*
X0000836971Y0003588467D01*
X0000837360Y0003588037D01*
X0000837705Y0003587572D01*
X0000838003Y0003587075D01*
X0000838251Y0003586551D01*
X0000838446Y0003586005D01*
X0000838587Y0003585443D01*
X0000838672Y0003584870D01*
X0000838700Y0003584291D01*
X0000838700Y0003572480D01*
X0000838672Y0003571901D01*
X0000838587Y0003571328D01*
X0000838446Y0003570766D01*
X0000838251Y0003570220D01*
X0000838003Y0003569696D01*
X0000837705Y0003569199D01*
X0000837360Y0003568733D01*
X0000836971Y0003568304D01*
X0000836541Y0003567915D01*
X0000836076Y0003567570D01*
X0000835579Y0003567272D01*
X0000835055Y0003567024D01*
X0000834509Y0003566829D01*
X0000833947Y0003566688D01*
X0000833374Y0003566603D01*
X0000832795Y0003566574D01*
X0000763897Y0003566574D01*
X0000763318Y0003566603D01*
X0000762745Y0003566688D01*
X0000762183Y0003566829D01*
X0000761637Y0003567024D01*
X0000761113Y0003567272D01*
X0000760616Y0003567570D01*
X0000760151Y0003567915D01*
X0000759721Y0003568304D01*
X0000759332Y0003568733D01*
X0000758987Y0003569199D01*
X0000758689Y0003569696D01*
X0000758441Y0003570220D01*
X0000758246Y0003570766D01*
X0000758105Y0003571328D01*
X0000758020Y0003571901D01*
X0000757992Y0003572480D01*
X0000757992Y0003584291D01*
X0000758020Y0003584870D01*
X0000758105Y0003585443D01*
X0000758246Y0003586005D01*
X0000758441Y0003586551D01*
X0000758689Y0003587075D01*
X0000758987Y0003587572D01*
X0000759332Y0003588037D01*
X0000759721Y0003588467D01*
X0000760151Y0003588856D01*
X0000760616Y0003589201D01*
X0000761113Y0003589499D01*
X0000761637Y0003589747D01*
X0000762183Y0003589942D01*
X0000762745Y0003590083D01*
X0000763318Y0003590168D01*
X0000763897Y0003590196D01*
X0000832795Y0003590196D01*
X0000833374Y0003590168D01*
X0000833374Y0003590168D01*
G37*
D15*
X0000798346Y0003578385D03*
D12*
G36*
X0000833374Y0003540168D02*
G01*
X0000833947Y0003540083D01*
X0000834509Y0003539942D01*
X0000835055Y0003539747D01*
X0000835579Y0003539499D01*
X0000836076Y0003539201D01*
X0000836541Y0003538856D01*
X0000836971Y0003538467D01*
X0000837360Y0003538037D01*
X0000837705Y0003537572D01*
X0000838003Y0003537075D01*
X0000838251Y0003536551D01*
X0000838446Y0003536005D01*
X0000838587Y0003535443D01*
X0000838672Y0003534870D01*
X0000838700Y0003534291D01*
X0000838700Y0003522480D01*
X0000838672Y0003521901D01*
X0000838587Y0003521328D01*
X0000838446Y0003520766D01*
X0000838251Y0003520220D01*
X0000838003Y0003519696D01*
X0000837705Y0003519199D01*
X0000837360Y0003518733D01*
X0000836971Y0003518304D01*
X0000836541Y0003517915D01*
X0000836076Y0003517570D01*
X0000835579Y0003517272D01*
X0000835055Y0003517024D01*
X0000834509Y0003516829D01*
X0000833947Y0003516688D01*
X0000833374Y0003516603D01*
X0000832795Y0003516574D01*
X0000763897Y0003516574D01*
X0000763318Y0003516603D01*
X0000762745Y0003516688D01*
X0000762183Y0003516829D01*
X0000761637Y0003517024D01*
X0000761113Y0003517272D01*
X0000760616Y0003517570D01*
X0000760151Y0003517915D01*
X0000759721Y0003518304D01*
X0000759332Y0003518733D01*
X0000758987Y0003519199D01*
X0000758689Y0003519696D01*
X0000758441Y0003520220D01*
X0000758246Y0003520766D01*
X0000758105Y0003521328D01*
X0000758020Y0003521901D01*
X0000757992Y0003522480D01*
X0000757992Y0003534291D01*
X0000758020Y0003534870D01*
X0000758105Y0003535443D01*
X0000758246Y0003536005D01*
X0000758441Y0003536551D01*
X0000758689Y0003537075D01*
X0000758987Y0003537572D01*
X0000759332Y0003538037D01*
X0000759721Y0003538467D01*
X0000760151Y0003538856D01*
X0000760616Y0003539201D01*
X0000761113Y0003539499D01*
X0000761637Y0003539747D01*
X0000762183Y0003539942D01*
X0000762745Y0003540083D01*
X0000763318Y0003540168D01*
X0000763897Y0003540196D01*
X0000832795Y0003540196D01*
X0000833374Y0003540168D01*
X0000833374Y0003540168D01*
G37*
D15*
X0000798346Y0003528385D03*
D12*
G36*
X0000833374Y0003490168D02*
G01*
X0000833947Y0003490083D01*
X0000834509Y0003489942D01*
X0000835055Y0003489747D01*
X0000835579Y0003489499D01*
X0000836076Y0003489201D01*
X0000836541Y0003488856D01*
X0000836971Y0003488467D01*
X0000837360Y0003488037D01*
X0000837705Y0003487572D01*
X0000838003Y0003487075D01*
X0000838251Y0003486551D01*
X0000838446Y0003486005D01*
X0000838587Y0003485443D01*
X0000838672Y0003484870D01*
X0000838700Y0003484291D01*
X0000838700Y0003472480D01*
X0000838672Y0003471901D01*
X0000838587Y0003471328D01*
X0000838446Y0003470766D01*
X0000838251Y0003470220D01*
X0000838003Y0003469696D01*
X0000837705Y0003469199D01*
X0000837360Y0003468733D01*
X0000836971Y0003468304D01*
X0000836541Y0003467915D01*
X0000836076Y0003467570D01*
X0000835579Y0003467272D01*
X0000835055Y0003467024D01*
X0000834509Y0003466829D01*
X0000833947Y0003466688D01*
X0000833374Y0003466603D01*
X0000832795Y0003466574D01*
X0000763897Y0003466574D01*
X0000763318Y0003466603D01*
X0000762745Y0003466688D01*
X0000762183Y0003466829D01*
X0000761637Y0003467024D01*
X0000761113Y0003467272D01*
X0000760616Y0003467570D01*
X0000760151Y0003467915D01*
X0000759721Y0003468304D01*
X0000759332Y0003468733D01*
X0000758987Y0003469199D01*
X0000758689Y0003469696D01*
X0000758441Y0003470220D01*
X0000758246Y0003470766D01*
X0000758105Y0003471328D01*
X0000758020Y0003471901D01*
X0000757992Y0003472480D01*
X0000757992Y0003484291D01*
X0000758020Y0003484870D01*
X0000758105Y0003485443D01*
X0000758246Y0003486005D01*
X0000758441Y0003486551D01*
X0000758689Y0003487075D01*
X0000758987Y0003487572D01*
X0000759332Y0003488037D01*
X0000759721Y0003488467D01*
X0000760151Y0003488856D01*
X0000760616Y0003489201D01*
X0000761113Y0003489499D01*
X0000761637Y0003489747D01*
X0000762183Y0003489942D01*
X0000762745Y0003490083D01*
X0000763318Y0003490168D01*
X0000763897Y0003490196D01*
X0000832795Y0003490196D01*
X0000833374Y0003490168D01*
X0000833374Y0003490168D01*
G37*
D15*
X0000798346Y0003478385D03*
D12*
G36*
X0000833374Y0003440168D02*
G01*
X0000833947Y0003440083D01*
X0000834509Y0003439942D01*
X0000835055Y0003439747D01*
X0000835579Y0003439499D01*
X0000836076Y0003439201D01*
X0000836541Y0003438856D01*
X0000836971Y0003438467D01*
X0000837360Y0003438037D01*
X0000837705Y0003437572D01*
X0000838003Y0003437075D01*
X0000838251Y0003436551D01*
X0000838446Y0003436005D01*
X0000838587Y0003435443D01*
X0000838672Y0003434870D01*
X0000838700Y0003434291D01*
X0000838700Y0003422480D01*
X0000838672Y0003421901D01*
X0000838587Y0003421328D01*
X0000838446Y0003420766D01*
X0000838251Y0003420220D01*
X0000838003Y0003419696D01*
X0000837705Y0003419199D01*
X0000837360Y0003418733D01*
X0000836971Y0003418304D01*
X0000836541Y0003417915D01*
X0000836076Y0003417570D01*
X0000835579Y0003417272D01*
X0000835055Y0003417024D01*
X0000834509Y0003416829D01*
X0000833947Y0003416688D01*
X0000833374Y0003416603D01*
X0000832795Y0003416574D01*
X0000763897Y0003416574D01*
X0000763318Y0003416603D01*
X0000762745Y0003416688D01*
X0000762183Y0003416829D01*
X0000761637Y0003417024D01*
X0000761113Y0003417272D01*
X0000760616Y0003417570D01*
X0000760151Y0003417915D01*
X0000759721Y0003418304D01*
X0000759332Y0003418733D01*
X0000758987Y0003419199D01*
X0000758689Y0003419696D01*
X0000758441Y0003420220D01*
X0000758246Y0003420766D01*
X0000758105Y0003421328D01*
X0000758020Y0003421901D01*
X0000757992Y0003422480D01*
X0000757992Y0003434291D01*
X0000758020Y0003434870D01*
X0000758105Y0003435443D01*
X0000758246Y0003436005D01*
X0000758441Y0003436551D01*
X0000758689Y0003437075D01*
X0000758987Y0003437572D01*
X0000759332Y0003438037D01*
X0000759721Y0003438467D01*
X0000760151Y0003438856D01*
X0000760616Y0003439201D01*
X0000761113Y0003439499D01*
X0000761637Y0003439747D01*
X0000762183Y0003439942D01*
X0000762745Y0003440083D01*
X0000763318Y0003440168D01*
X0000763897Y0003440196D01*
X0000832795Y0003440196D01*
X0000833374Y0003440168D01*
X0000833374Y0003440168D01*
G37*
D15*
X0000798346Y0003428385D03*
D12*
G36*
X0001049243Y0003038498D02*
G01*
X0001050150Y0003038363D01*
X0001051040Y0003038140D01*
X0001051904Y0003037831D01*
X0001052734Y0003037439D01*
X0001053521Y0003036967D01*
X0001054258Y0003036420D01*
X0001054938Y0003035804D01*
X0001055554Y0003035124D01*
X0001056101Y0003034387D01*
X0001056572Y0003033600D01*
X0001056965Y0003032771D01*
X0001057274Y0003031907D01*
X0001057497Y0003031017D01*
X0001057632Y0003030109D01*
X0001057677Y0003029192D01*
X0001057677Y0003010492D01*
X0001057632Y0003009575D01*
X0001057497Y0003008667D01*
X0001057274Y0003007777D01*
X0001056965Y0003006913D01*
X0001056572Y0003006084D01*
X0001056101Y0003005297D01*
X0001055554Y0003004560D01*
X0001054938Y0003003880D01*
X0001054258Y0003003264D01*
X0001053521Y0003002717D01*
X0001052734Y0003002245D01*
X0001051904Y0003001853D01*
X0001051040Y0003001544D01*
X0001050150Y0003001321D01*
X0001049243Y0003001186D01*
X0001048326Y0003001141D01*
X0001025688Y0003001141D01*
X0001024772Y0003001186D01*
X0001023864Y0003001321D01*
X0001022974Y0003001544D01*
X0001022110Y0003001853D01*
X0001021281Y0003002245D01*
X0001020494Y0003002717D01*
X0001019757Y0003003264D01*
X0001019077Y0003003880D01*
X0001018460Y0003004560D01*
X0001017914Y0003005297D01*
X0001017442Y0003006084D01*
X0001017050Y0003006913D01*
X0001016741Y0003007777D01*
X0001016518Y0003008667D01*
X0001016383Y0003009575D01*
X0001016338Y0003010492D01*
X0001016338Y0003029192D01*
X0001016383Y0003030109D01*
X0001016518Y0003031017D01*
X0001016741Y0003031907D01*
X0001017050Y0003032771D01*
X0001017442Y0003033600D01*
X0001017914Y0003034387D01*
X0001018460Y0003035124D01*
X0001019077Y0003035804D01*
X0001019757Y0003036420D01*
X0001020494Y0003036967D01*
X0001021281Y0003037439D01*
X0001022110Y0003037831D01*
X0001022974Y0003038140D01*
X0001023864Y0003038363D01*
X0001024772Y0003038498D01*
X0001025688Y0003038543D01*
X0001048326Y0003038543D01*
X0001049243Y0003038498D01*
X0001049243Y0003038498D01*
G37*
D13*
X0001037007Y0003019842D03*
D12*
G36*
X0000980345Y0003038498D02*
G01*
X0000981253Y0003038363D01*
X0000982143Y0003038140D01*
X0000983007Y0003037831D01*
X0000983836Y0003037439D01*
X0000984623Y0003036967D01*
X0000985360Y0003036420D01*
X0000986040Y0003035804D01*
X0000986657Y0003035124D01*
X0000987203Y0003034387D01*
X0000987675Y0003033600D01*
X0000988067Y0003032771D01*
X0000988376Y0003031907D01*
X0000988599Y0003031017D01*
X0000988734Y0003030109D01*
X0000988779Y0003029192D01*
X0000988779Y0003010492D01*
X0000988734Y0003009575D01*
X0000988599Y0003008667D01*
X0000988376Y0003007777D01*
X0000988067Y0003006913D01*
X0000987675Y0003006084D01*
X0000987203Y0003005297D01*
X0000986657Y0003004560D01*
X0000986040Y0003003880D01*
X0000985360Y0003003264D01*
X0000984623Y0003002717D01*
X0000983836Y0003002245D01*
X0000983007Y0003001853D01*
X0000982143Y0003001544D01*
X0000981253Y0003001321D01*
X0000980345Y0003001186D01*
X0000979429Y0003001141D01*
X0000956791Y0003001141D01*
X0000955874Y0003001186D01*
X0000954967Y0003001321D01*
X0000954076Y0003001544D01*
X0000953213Y0003001853D01*
X0000952383Y0003002245D01*
X0000951596Y0003002717D01*
X0000950859Y0003003264D01*
X0000950179Y0003003880D01*
X0000949563Y0003004560D01*
X0000949016Y0003005297D01*
X0000948544Y0003006084D01*
X0000948152Y0003006913D01*
X0000947843Y0003007777D01*
X0000947620Y0003008667D01*
X0000947485Y0003009575D01*
X0000947440Y0003010492D01*
X0000947440Y0003029192D01*
X0000947485Y0003030109D01*
X0000947620Y0003031017D01*
X0000947843Y0003031907D01*
X0000948152Y0003032771D01*
X0000948544Y0003033600D01*
X0000949016Y0003034387D01*
X0000949563Y0003035124D01*
X0000950179Y0003035804D01*
X0000950859Y0003036420D01*
X0000951596Y0003036967D01*
X0000952383Y0003037439D01*
X0000953213Y0003037831D01*
X0000954076Y0003038140D01*
X0000954967Y0003038363D01*
X0000955874Y0003038498D01*
X0000956791Y0003038543D01*
X0000979429Y0003038543D01*
X0000980345Y0003038498D01*
X0000980345Y0003038498D01*
G37*
D13*
X0000968110Y0003019842D03*
D12*
G36*
X0001121841Y0003107041D02*
G01*
X0001122749Y0003106906D01*
X0001123639Y0003106683D01*
X0001124503Y0003106374D01*
X0001125332Y0003105982D01*
X0001126119Y0003105510D01*
X0001126856Y0003104964D01*
X0001127536Y0003104347D01*
X0001128153Y0003103668D01*
X0001128699Y0003102931D01*
X0001129171Y0003102143D01*
X0001129563Y0003101314D01*
X0001129872Y0003100450D01*
X0001130095Y0003099560D01*
X0001130230Y0003098652D01*
X0001130275Y0003097736D01*
X0001130275Y0003079035D01*
X0001130230Y0003078118D01*
X0001130095Y0003077211D01*
X0001129872Y0003076321D01*
X0001129563Y0003075457D01*
X0001129171Y0003074627D01*
X0001128699Y0003073840D01*
X0001128153Y0003073103D01*
X0001127536Y0003072423D01*
X0001126856Y0003071807D01*
X0001126119Y0003071260D01*
X0001125332Y0003070789D01*
X0001124503Y0003070396D01*
X0001123639Y0003070087D01*
X0001122749Y0003069864D01*
X0001121841Y0003069730D01*
X0001120925Y0003069685D01*
X0001098287Y0003069685D01*
X0001097370Y0003069730D01*
X0001096463Y0003069864D01*
X0001095573Y0003070087D01*
X0001094709Y0003070396D01*
X0001093879Y0003070789D01*
X0001093092Y0003071260D01*
X0001092355Y0003071807D01*
X0001091675Y0003072423D01*
X0001091059Y0003073103D01*
X0001090512Y0003073840D01*
X0001090041Y0003074627D01*
X0001089648Y0003075457D01*
X0001089339Y0003076321D01*
X0001089116Y0003077211D01*
X0001088982Y0003078118D01*
X0001088936Y0003079035D01*
X0001088936Y0003097736D01*
X0001088982Y0003098652D01*
X0001089116Y0003099560D01*
X0001089339Y0003100450D01*
X0001089648Y0003101314D01*
X0001090041Y0003102143D01*
X0001090512Y0003102931D01*
X0001091059Y0003103668D01*
X0001091675Y0003104347D01*
X0001092355Y0003104964D01*
X0001093092Y0003105510D01*
X0001093879Y0003105982D01*
X0001094709Y0003106374D01*
X0001095573Y0003106683D01*
X0001096463Y0003106906D01*
X0001097370Y0003107041D01*
X0001098287Y0003107086D01*
X0001120925Y0003107086D01*
X0001121841Y0003107041D01*
X0001121841Y0003107041D01*
G37*
D13*
X0001109606Y0003088385D03*
D12*
G36*
X0001190739Y0003107041D02*
G01*
X0001191646Y0003106906D01*
X0001192537Y0003106683D01*
X0001193401Y0003106374D01*
X0001194230Y0003105982D01*
X0001195017Y0003105510D01*
X0001195754Y0003104964D01*
X0001196434Y0003104347D01*
X0001197050Y0003103668D01*
X0001197597Y0003102931D01*
X0001198069Y0003102143D01*
X0001198461Y0003101314D01*
X0001198770Y0003100450D01*
X0001198993Y0003099560D01*
X0001199128Y0003098652D01*
X0001199173Y0003097736D01*
X0001199173Y0003079035D01*
X0001199128Y0003078118D01*
X0001198993Y0003077211D01*
X0001198770Y0003076321D01*
X0001198461Y0003075457D01*
X0001198069Y0003074627D01*
X0001197597Y0003073840D01*
X0001197050Y0003073103D01*
X0001196434Y0003072423D01*
X0001195754Y0003071807D01*
X0001195017Y0003071260D01*
X0001194230Y0003070789D01*
X0001193401Y0003070396D01*
X0001192537Y0003070087D01*
X0001191646Y0003069864D01*
X0001190739Y0003069730D01*
X0001189822Y0003069685D01*
X0001167185Y0003069685D01*
X0001166268Y0003069730D01*
X0001165360Y0003069864D01*
X0001164470Y0003070087D01*
X0001163606Y0003070396D01*
X0001162777Y0003070789D01*
X0001161990Y0003071260D01*
X0001161253Y0003071807D01*
X0001160573Y0003072423D01*
X0001159957Y0003073103D01*
X0001159410Y0003073840D01*
X0001158938Y0003074627D01*
X0001158546Y0003075457D01*
X0001158237Y0003076321D01*
X0001158014Y0003077211D01*
X0001157879Y0003078118D01*
X0001157834Y0003079035D01*
X0001157834Y0003097736D01*
X0001157879Y0003098652D01*
X0001158014Y0003099560D01*
X0001158237Y0003100450D01*
X0001158546Y0003101314D01*
X0001158938Y0003102143D01*
X0001159410Y0003102931D01*
X0001159957Y0003103668D01*
X0001160573Y0003104347D01*
X0001161253Y0003104964D01*
X0001161990Y0003105510D01*
X0001162777Y0003105982D01*
X0001163606Y0003106374D01*
X0001164470Y0003106683D01*
X0001165360Y0003106906D01*
X0001166268Y0003107041D01*
X0001167185Y0003107086D01*
X0001189822Y0003107086D01*
X0001190739Y0003107041D01*
X0001190739Y0003107041D01*
G37*
D13*
X0001178503Y0003088385D03*
D12*
G36*
X0001121211Y0003040033D02*
G01*
X0001122119Y0003039899D01*
X0001123009Y0003039676D01*
X0001123873Y0003039366D01*
X0001124702Y0003038974D01*
X0001125490Y0003038502D01*
X0001126227Y0003037956D01*
X0001126906Y0003037340D01*
X0001127523Y0003036660D01*
X0001128069Y0003035923D01*
X0001128541Y0003035136D01*
X0001128933Y0003034306D01*
X0001129242Y0003033442D01*
X0001129465Y0003032552D01*
X0001129600Y0003031644D01*
X0001129645Y0003030728D01*
X0001129645Y0003012027D01*
X0001129600Y0003011111D01*
X0001129465Y0003010203D01*
X0001129242Y0003009313D01*
X0001128933Y0003008449D01*
X0001128541Y0003007619D01*
X0001128069Y0003006832D01*
X0001127523Y0003006095D01*
X0001126906Y0003005415D01*
X0001126227Y0003004799D01*
X0001125490Y0003004252D01*
X0001124702Y0003003781D01*
X0001123873Y0003003388D01*
X0001123009Y0003003079D01*
X0001122119Y0003002856D01*
X0001121211Y0003002722D01*
X0001120295Y0003002677D01*
X0001097657Y0003002677D01*
X0001096740Y0003002722D01*
X0001095833Y0003002856D01*
X0001094943Y0003003079D01*
X0001094079Y0003003388D01*
X0001093249Y0003003781D01*
X0001092462Y0003004252D01*
X0001091725Y0003004799D01*
X0001091045Y0003005415D01*
X0001090429Y0003006095D01*
X0001089882Y0003006832D01*
X0001089411Y0003007619D01*
X0001089018Y0003008449D01*
X0001088709Y0003009313D01*
X0001088486Y0003010203D01*
X0001088352Y0003011111D01*
X0001088307Y0003012027D01*
X0001088307Y0003030728D01*
X0001088352Y0003031644D01*
X0001088486Y0003032552D01*
X0001088709Y0003033442D01*
X0001089018Y0003034306D01*
X0001089411Y0003035136D01*
X0001089882Y0003035923D01*
X0001090429Y0003036660D01*
X0001091045Y0003037340D01*
X0001091725Y0003037956D01*
X0001092462Y0003038502D01*
X0001093249Y0003038974D01*
X0001094079Y0003039366D01*
X0001094943Y0003039676D01*
X0001095833Y0003039899D01*
X0001096740Y0003040033D01*
X0001097657Y0003040078D01*
X0001120295Y0003040078D01*
X0001121211Y0003040033D01*
X0001121211Y0003040033D01*
G37*
D13*
X0001108976Y0003021377D03*
D12*
G36*
X0001190109Y0003040033D02*
G01*
X0001191017Y0003039899D01*
X0001191907Y0003039676D01*
X0001192771Y0003039366D01*
X0001193600Y0003038974D01*
X0001194387Y0003038502D01*
X0001195124Y0003037956D01*
X0001195804Y0003037340D01*
X0001196420Y0003036660D01*
X0001196967Y0003035923D01*
X0001197439Y0003035136D01*
X0001197831Y0003034306D01*
X0001198140Y0003033442D01*
X0001198363Y0003032552D01*
X0001198498Y0003031644D01*
X0001198543Y0003030728D01*
X0001198543Y0003012027D01*
X0001198498Y0003011111D01*
X0001198363Y0003010203D01*
X0001198140Y0003009313D01*
X0001197831Y0003008449D01*
X0001197439Y0003007619D01*
X0001196967Y0003006832D01*
X0001196420Y0003006095D01*
X0001195804Y0003005415D01*
X0001195124Y0003004799D01*
X0001194387Y0003004252D01*
X0001193600Y0003003781D01*
X0001192771Y0003003388D01*
X0001191907Y0003003079D01*
X0001191017Y0003002856D01*
X0001190109Y0003002722D01*
X0001189192Y0003002677D01*
X0001166555Y0003002677D01*
X0001165638Y0003002722D01*
X0001164730Y0003002856D01*
X0001163840Y0003003079D01*
X0001162976Y0003003388D01*
X0001162147Y0003003781D01*
X0001161360Y0003004252D01*
X0001160623Y0003004799D01*
X0001159943Y0003005415D01*
X0001159327Y0003006095D01*
X0001158780Y0003006832D01*
X0001158308Y0003007619D01*
X0001157916Y0003008449D01*
X0001157607Y0003009313D01*
X0001157384Y0003010203D01*
X0001157249Y0003011111D01*
X0001157204Y0003012027D01*
X0001157204Y0003030728D01*
X0001157249Y0003031644D01*
X0001157384Y0003032552D01*
X0001157607Y0003033442D01*
X0001157916Y0003034306D01*
X0001158308Y0003035136D01*
X0001158780Y0003035923D01*
X0001159327Y0003036660D01*
X0001159943Y0003037340D01*
X0001160623Y0003037956D01*
X0001161360Y0003038502D01*
X0001162147Y0003038974D01*
X0001162976Y0003039366D01*
X0001163840Y0003039676D01*
X0001164730Y0003039899D01*
X0001165638Y0003040033D01*
X0001166555Y0003040078D01*
X0001189192Y0003040078D01*
X0001190109Y0003040033D01*
X0001190109Y0003040033D01*
G37*
D13*
X0001177874Y0003021377D03*
D12*
G36*
X0002515463Y0002382710D02*
G01*
X0002516371Y0002382576D01*
X0002517261Y0002382353D01*
X0002518125Y0002382044D01*
X0002518955Y0002381651D01*
X0002519742Y0002381180D01*
X0002520479Y0002380633D01*
X0002521158Y0002380017D01*
X0002521775Y0002379337D01*
X0002522321Y0002378600D01*
X0002522793Y0002377813D01*
X0002523185Y0002376983D01*
X0002523495Y0002376119D01*
X0002523717Y0002375229D01*
X0002523852Y0002374322D01*
X0002523897Y0002373405D01*
X0002523897Y0002350767D01*
X0002523852Y0002349851D01*
X0002523717Y0002348943D01*
X0002523495Y0002348053D01*
X0002523185Y0002347189D01*
X0002522793Y0002346359D01*
X0002522321Y0002345572D01*
X0002521775Y0002344835D01*
X0002521158Y0002344155D01*
X0002520479Y0002343539D01*
X0002519742Y0002342993D01*
X0002518955Y0002342521D01*
X0002518125Y0002342129D01*
X0002517261Y0002341819D01*
X0002516371Y0002341596D01*
X0002515463Y0002341462D01*
X0002514547Y0002341417D01*
X0002495846Y0002341417D01*
X0002494929Y0002341462D01*
X0002494022Y0002341596D01*
X0002493132Y0002341819D01*
X0002492268Y0002342129D01*
X0002491438Y0002342521D01*
X0002490651Y0002342993D01*
X0002489914Y0002343539D01*
X0002489234Y0002344155D01*
X0002488618Y0002344835D01*
X0002488071Y0002345572D01*
X0002487600Y0002346359D01*
X0002487207Y0002347189D01*
X0002486898Y0002348053D01*
X0002486675Y0002348943D01*
X0002486541Y0002349851D01*
X0002486496Y0002350767D01*
X0002486496Y0002373405D01*
X0002486541Y0002374322D01*
X0002486675Y0002375229D01*
X0002486898Y0002376119D01*
X0002487207Y0002376983D01*
X0002487600Y0002377813D01*
X0002488071Y0002378600D01*
X0002488618Y0002379337D01*
X0002489234Y0002380017D01*
X0002489914Y0002380633D01*
X0002490651Y0002381180D01*
X0002491438Y0002381651D01*
X0002492268Y0002382044D01*
X0002493132Y0002382353D01*
X0002494022Y0002382576D01*
X0002494929Y0002382710D01*
X0002495846Y0002382755D01*
X0002514547Y0002382755D01*
X0002515463Y0002382710D01*
X0002515463Y0002382710D01*
G37*
D13*
X0002505196Y0002362086D03*
D12*
G36*
X0002515463Y0002451608D02*
G01*
X0002516371Y0002451473D01*
X0002517261Y0002451250D01*
X0002518125Y0002450941D01*
X0002518955Y0002450549D01*
X0002519742Y0002450077D01*
X0002520479Y0002449531D01*
X0002521158Y0002448914D01*
X0002521775Y0002448234D01*
X0002522321Y0002447497D01*
X0002522793Y0002446710D01*
X0002523185Y0002445881D01*
X0002523495Y0002445017D01*
X0002523717Y0002444127D01*
X0002523852Y0002443219D01*
X0002523897Y0002442303D01*
X0002523897Y0002419665D01*
X0002523852Y0002418748D01*
X0002523717Y0002417841D01*
X0002523495Y0002416951D01*
X0002523185Y0002416087D01*
X0002522793Y0002415257D01*
X0002522321Y0002414470D01*
X0002521775Y0002413733D01*
X0002521158Y0002413053D01*
X0002520479Y0002412437D01*
X0002519742Y0002411890D01*
X0002518955Y0002411419D01*
X0002518125Y0002411026D01*
X0002517261Y0002410717D01*
X0002516371Y0002410494D01*
X0002515463Y0002410360D01*
X0002514547Y0002410314D01*
X0002495846Y0002410314D01*
X0002494929Y0002410360D01*
X0002494022Y0002410494D01*
X0002493132Y0002410717D01*
X0002492268Y0002411026D01*
X0002491438Y0002411419D01*
X0002490651Y0002411890D01*
X0002489914Y0002412437D01*
X0002489234Y0002413053D01*
X0002488618Y0002413733D01*
X0002488071Y0002414470D01*
X0002487600Y0002415257D01*
X0002487207Y0002416087D01*
X0002486898Y0002416951D01*
X0002486675Y0002417841D01*
X0002486541Y0002418748D01*
X0002486496Y0002419665D01*
X0002486496Y0002442303D01*
X0002486541Y0002443219D01*
X0002486675Y0002444127D01*
X0002486898Y0002445017D01*
X0002487207Y0002445881D01*
X0002487600Y0002446710D01*
X0002488071Y0002447497D01*
X0002488618Y0002448234D01*
X0002489234Y0002448914D01*
X0002489914Y0002449531D01*
X0002490651Y0002450077D01*
X0002491438Y0002450549D01*
X0002492268Y0002450941D01*
X0002493132Y0002451250D01*
X0002494022Y0002451473D01*
X0002494929Y0002451608D01*
X0002495846Y0002451653D01*
X0002514547Y0002451653D01*
X0002515463Y0002451608D01*
X0002515463Y0002451608D01*
G37*
D13*
X0002505196Y0002430984D03*
D12*
G36*
X0002288838Y0002671960D02*
G01*
X0002289794Y0002671818D01*
X0002290731Y0002671584D01*
X0002291640Y0002671258D01*
X0002292513Y0002670845D01*
X0002293342Y0002670349D01*
X0002294118Y0002669773D01*
X0002294833Y0002669125D01*
X0002295482Y0002668409D01*
X0002296057Y0002667633D01*
X0002296554Y0002666805D01*
X0002296967Y0002665931D01*
X0002297292Y0002665022D01*
X0002297527Y0002664085D01*
X0002297669Y0002663130D01*
X0002297716Y0002662165D01*
X0002297716Y0002589330D01*
X0002297669Y0002588365D01*
X0002297527Y0002587410D01*
X0002297292Y0002586473D01*
X0002296967Y0002585564D01*
X0002296554Y0002584690D01*
X0002296057Y0002583862D01*
X0002295482Y0002583086D01*
X0002294833Y0002582370D01*
X0002294118Y0002581722D01*
X0002293342Y0002581146D01*
X0002292513Y0002580650D01*
X0002291640Y0002580237D01*
X0002290731Y0002579912D01*
X0002289794Y0002579677D01*
X0002288838Y0002579535D01*
X0002287873Y0002579488D01*
X0002248503Y0002579488D01*
X0002247539Y0002579535D01*
X0002246583Y0002579677D01*
X0002245646Y0002579912D01*
X0002244737Y0002580237D01*
X0002243864Y0002580650D01*
X0002243035Y0002581146D01*
X0002242259Y0002581722D01*
X0002241544Y0002582370D01*
X0002240895Y0002583086D01*
X0002240320Y0002583862D01*
X0002239823Y0002584690D01*
X0002239410Y0002585564D01*
X0002239085Y0002586473D01*
X0002238850Y0002587410D01*
X0002238708Y0002588365D01*
X0002238661Y0002589330D01*
X0002238661Y0002662165D01*
X0002238708Y0002663130D01*
X0002238850Y0002664085D01*
X0002239085Y0002665022D01*
X0002239410Y0002665931D01*
X0002239823Y0002666805D01*
X0002240320Y0002667633D01*
X0002240895Y0002668409D01*
X0002241544Y0002669125D01*
X0002242259Y0002669773D01*
X0002243035Y0002670349D01*
X0002243864Y0002670845D01*
X0002244737Y0002671258D01*
X0002245646Y0002671584D01*
X0002246583Y0002671818D01*
X0002247539Y0002671960D01*
X0002248503Y0002672007D01*
X0002287873Y0002672007D01*
X0002288838Y0002671960D01*
X0002288838Y0002671960D01*
G37*
D16*
X0002268188Y0002625748D03*
D12*
G36*
X0002160885Y0002671960D02*
G01*
X0002161841Y0002671818D01*
X0002162778Y0002671584D01*
X0002163687Y0002671258D01*
X0002164560Y0002670845D01*
X0002165389Y0002670349D01*
X0002166165Y0002669773D01*
X0002166880Y0002669125D01*
X0002167529Y0002668409D01*
X0002168104Y0002667633D01*
X0002168601Y0002666805D01*
X0002169014Y0002665931D01*
X0002169339Y0002665022D01*
X0002169574Y0002664085D01*
X0002169716Y0002663130D01*
X0002169763Y0002662165D01*
X0002169763Y0002589330D01*
X0002169716Y0002588365D01*
X0002169574Y0002587410D01*
X0002169339Y0002586473D01*
X0002169014Y0002585564D01*
X0002168601Y0002584690D01*
X0002168104Y0002583862D01*
X0002167529Y0002583086D01*
X0002166880Y0002582370D01*
X0002166165Y0002581722D01*
X0002165389Y0002581146D01*
X0002164560Y0002580650D01*
X0002163687Y0002580237D01*
X0002162778Y0002579912D01*
X0002161841Y0002579677D01*
X0002160885Y0002579535D01*
X0002159921Y0002579488D01*
X0002120551Y0002579488D01*
X0002119586Y0002579535D01*
X0002118630Y0002579677D01*
X0002117694Y0002579912D01*
X0002116784Y0002580237D01*
X0002115911Y0002580650D01*
X0002115082Y0002581146D01*
X0002114307Y0002581722D01*
X0002113591Y0002582370D01*
X0002112942Y0002583086D01*
X0002112367Y0002583862D01*
X0002111870Y0002584690D01*
X0002111457Y0002585564D01*
X0002111132Y0002586473D01*
X0002110897Y0002587410D01*
X0002110756Y0002588365D01*
X0002110708Y0002589330D01*
X0002110708Y0002662165D01*
X0002110756Y0002663130D01*
X0002110897Y0002664085D01*
X0002111132Y0002665022D01*
X0002111457Y0002665931D01*
X0002111870Y0002666805D01*
X0002112367Y0002667633D01*
X0002112942Y0002668409D01*
X0002113591Y0002669125D01*
X0002114307Y0002669773D01*
X0002115082Y0002670349D01*
X0002115911Y0002670845D01*
X0002116784Y0002671258D01*
X0002117694Y0002671584D01*
X0002118630Y0002671818D01*
X0002119586Y0002671960D01*
X0002120551Y0002672007D01*
X0002159921Y0002672007D01*
X0002160885Y0002671960D01*
X0002160885Y0002671960D01*
G37*
D16*
X0002140236Y0002625748D03*
D12*
G36*
X0002514755Y0002247080D02*
G01*
X0002515662Y0002246946D01*
X0002516552Y0002246723D01*
X0002517416Y0002246414D01*
X0002518246Y0002246021D01*
X0002519033Y0002245550D01*
X0002519770Y0002245003D01*
X0002520450Y0002244387D01*
X0002521066Y0002243707D01*
X0002521613Y0002242970D01*
X0002522084Y0002242183D01*
X0002522477Y0002241353D01*
X0002522786Y0002240489D01*
X0002523009Y0002239599D01*
X0002523143Y0002238692D01*
X0002523188Y0002237775D01*
X0002523188Y0002215137D01*
X0002523143Y0002214221D01*
X0002523009Y0002213313D01*
X0002522786Y0002212423D01*
X0002522477Y0002211559D01*
X0002522084Y0002210730D01*
X0002521613Y0002209942D01*
X0002521066Y0002209205D01*
X0002520450Y0002208526D01*
X0002519770Y0002207909D01*
X0002519033Y0002207363D01*
X0002518246Y0002206891D01*
X0002517416Y0002206499D01*
X0002516552Y0002206190D01*
X0002515662Y0002205967D01*
X0002514755Y0002205832D01*
X0002513838Y0002205787D01*
X0002495137Y0002205787D01*
X0002494221Y0002205832D01*
X0002493313Y0002205967D01*
X0002492423Y0002206190D01*
X0002491559Y0002206499D01*
X0002490730Y0002206891D01*
X0002489942Y0002207363D01*
X0002489205Y0002207909D01*
X0002488526Y0002208526D01*
X0002487909Y0002209205D01*
X0002487363Y0002209942D01*
X0002486891Y0002210730D01*
X0002486499Y0002211559D01*
X0002486190Y0002212423D01*
X0002485967Y0002213313D01*
X0002485832Y0002214221D01*
X0002485787Y0002215137D01*
X0002485787Y0002237775D01*
X0002485832Y0002238692D01*
X0002485967Y0002239599D01*
X0002486190Y0002240489D01*
X0002486499Y0002241353D01*
X0002486891Y0002242183D01*
X0002487363Y0002242970D01*
X0002487909Y0002243707D01*
X0002488526Y0002244387D01*
X0002489205Y0002245003D01*
X0002489942Y0002245550D01*
X0002490730Y0002246021D01*
X0002491559Y0002246414D01*
X0002492423Y0002246723D01*
X0002493313Y0002246946D01*
X0002494221Y0002247080D01*
X0002495137Y0002247125D01*
X0002513838Y0002247125D01*
X0002514755Y0002247080D01*
X0002514755Y0002247080D01*
G37*
D13*
X0002504488Y0002226456D03*
D12*
G36*
X0002514755Y0002315978D02*
G01*
X0002515662Y0002315843D01*
X0002516552Y0002315620D01*
X0002517416Y0002315311D01*
X0002518246Y0002314919D01*
X0002519033Y0002314447D01*
X0002519770Y0002313901D01*
X0002520450Y0002313284D01*
X0002521066Y0002312605D01*
X0002521613Y0002311867D01*
X0002522084Y0002311080D01*
X0002522477Y0002310251D01*
X0002522786Y0002309387D01*
X0002523009Y0002308497D01*
X0002523143Y0002307589D01*
X0002523188Y0002306673D01*
X0002523188Y0002284035D01*
X0002523143Y0002283118D01*
X0002523009Y0002282211D01*
X0002522786Y0002281321D01*
X0002522477Y0002280457D01*
X0002522084Y0002279627D01*
X0002521613Y0002278840D01*
X0002521066Y0002278103D01*
X0002520450Y0002277423D01*
X0002519770Y0002276807D01*
X0002519033Y0002276260D01*
X0002518246Y0002275789D01*
X0002517416Y0002275396D01*
X0002516552Y0002275087D01*
X0002515662Y0002274864D01*
X0002514755Y0002274730D01*
X0002513838Y0002274685D01*
X0002495137Y0002274685D01*
X0002494221Y0002274730D01*
X0002493313Y0002274864D01*
X0002492423Y0002275087D01*
X0002491559Y0002275396D01*
X0002490730Y0002275789D01*
X0002489942Y0002276260D01*
X0002489205Y0002276807D01*
X0002488526Y0002277423D01*
X0002487909Y0002278103D01*
X0002487363Y0002278840D01*
X0002486891Y0002279627D01*
X0002486499Y0002280457D01*
X0002486190Y0002281321D01*
X0002485967Y0002282211D01*
X0002485832Y0002283118D01*
X0002485787Y0002284035D01*
X0002485787Y0002306673D01*
X0002485832Y0002307589D01*
X0002485967Y0002308497D01*
X0002486190Y0002309387D01*
X0002486499Y0002310251D01*
X0002486891Y0002311080D01*
X0002487363Y0002311867D01*
X0002487909Y0002312605D01*
X0002488526Y0002313284D01*
X0002489205Y0002313901D01*
X0002489942Y0002314447D01*
X0002490730Y0002314919D01*
X0002491559Y0002315311D01*
X0002492423Y0002315620D01*
X0002493313Y0002315843D01*
X0002494221Y0002315978D01*
X0002495137Y0002316023D01*
X0002513838Y0002316023D01*
X0002514755Y0002315978D01*
X0002514755Y0002315978D01*
G37*
D13*
X0002504488Y0002295354D03*
D12*
G36*
X0002160885Y0002816173D02*
G01*
X0002161841Y0002816031D01*
X0002162778Y0002815796D01*
X0002163687Y0002815471D01*
X0002164560Y0002815058D01*
X0002165389Y0002814561D01*
X0002166165Y0002813986D01*
X0002166880Y0002813337D01*
X0002167529Y0002812621D01*
X0002168104Y0002811846D01*
X0002168601Y0002811017D01*
X0002169014Y0002810144D01*
X0002169339Y0002809235D01*
X0002169574Y0002808298D01*
X0002169716Y0002807342D01*
X0002169763Y0002806377D01*
X0002169763Y0002733543D01*
X0002169716Y0002732578D01*
X0002169574Y0002731623D01*
X0002169339Y0002730686D01*
X0002169014Y0002729776D01*
X0002168601Y0002728903D01*
X0002168104Y0002728075D01*
X0002167529Y0002727299D01*
X0002166880Y0002726583D01*
X0002166165Y0002725934D01*
X0002165389Y0002725359D01*
X0002164560Y0002724862D01*
X0002163687Y0002724450D01*
X0002162778Y0002724124D01*
X0002161841Y0002723889D01*
X0002160885Y0002723748D01*
X0002159921Y0002723700D01*
X0002120551Y0002723700D01*
X0002119586Y0002723748D01*
X0002118630Y0002723889D01*
X0002117694Y0002724124D01*
X0002116784Y0002724450D01*
X0002115911Y0002724862D01*
X0002115082Y0002725359D01*
X0002114307Y0002725934D01*
X0002113591Y0002726583D01*
X0002112942Y0002727299D01*
X0002112367Y0002728075D01*
X0002111870Y0002728903D01*
X0002111457Y0002729776D01*
X0002111132Y0002730686D01*
X0002110897Y0002731623D01*
X0002110756Y0002732578D01*
X0002110708Y0002733543D01*
X0002110708Y0002806377D01*
X0002110756Y0002807342D01*
X0002110897Y0002808298D01*
X0002111132Y0002809235D01*
X0002111457Y0002810144D01*
X0002111870Y0002811017D01*
X0002112367Y0002811846D01*
X0002112942Y0002812621D01*
X0002113591Y0002813337D01*
X0002114307Y0002813986D01*
X0002115082Y0002814561D01*
X0002115911Y0002815058D01*
X0002116784Y0002815471D01*
X0002117694Y0002815796D01*
X0002118630Y0002816031D01*
X0002119586Y0002816173D01*
X0002120551Y0002816220D01*
X0002159921Y0002816220D01*
X0002160885Y0002816173D01*
X0002160885Y0002816173D01*
G37*
D16*
X0002140236Y0002769960D03*
D12*
G36*
X0002288838Y0002816173D02*
G01*
X0002289794Y0002816031D01*
X0002290731Y0002815796D01*
X0002291640Y0002815471D01*
X0002292513Y0002815058D01*
X0002293342Y0002814561D01*
X0002294118Y0002813986D01*
X0002294833Y0002813337D01*
X0002295482Y0002812621D01*
X0002296057Y0002811846D01*
X0002296554Y0002811017D01*
X0002296967Y0002810144D01*
X0002297292Y0002809235D01*
X0002297527Y0002808298D01*
X0002297669Y0002807342D01*
X0002297716Y0002806377D01*
X0002297716Y0002733543D01*
X0002297669Y0002732578D01*
X0002297527Y0002731623D01*
X0002297292Y0002730686D01*
X0002296967Y0002729776D01*
X0002296554Y0002728903D01*
X0002296057Y0002728075D01*
X0002295482Y0002727299D01*
X0002294833Y0002726583D01*
X0002294118Y0002725934D01*
X0002293342Y0002725359D01*
X0002292513Y0002724862D01*
X0002291640Y0002724450D01*
X0002290731Y0002724124D01*
X0002289794Y0002723889D01*
X0002288838Y0002723748D01*
X0002287873Y0002723700D01*
X0002248503Y0002723700D01*
X0002247539Y0002723748D01*
X0002246583Y0002723889D01*
X0002245646Y0002724124D01*
X0002244737Y0002724450D01*
X0002243864Y0002724862D01*
X0002243035Y0002725359D01*
X0002242259Y0002725934D01*
X0002241544Y0002726583D01*
X0002240895Y0002727299D01*
X0002240320Y0002728075D01*
X0002239823Y0002728903D01*
X0002239410Y0002729776D01*
X0002239085Y0002730686D01*
X0002238850Y0002731623D01*
X0002238708Y0002732578D01*
X0002238661Y0002733543D01*
X0002238661Y0002806377D01*
X0002238708Y0002807342D01*
X0002238850Y0002808298D01*
X0002239085Y0002809235D01*
X0002239410Y0002810144D01*
X0002239823Y0002811017D01*
X0002240320Y0002811846D01*
X0002240895Y0002812621D01*
X0002241544Y0002813337D01*
X0002242259Y0002813986D01*
X0002243035Y0002814561D01*
X0002243864Y0002815058D01*
X0002244737Y0002815471D01*
X0002245646Y0002815796D01*
X0002246583Y0002816031D01*
X0002247539Y0002816173D01*
X0002248503Y0002816220D01*
X0002287873Y0002816220D01*
X0002288838Y0002816173D01*
X0002288838Y0002816173D01*
G37*
D16*
X0002268188Y0002769960D03*
D17*
X0002239015Y0002492125D03*
D18*
X0002239015Y0002244094D03*
X0002329566Y0002244094D03*
X0002148464Y0002244094D03*
G04 next file*
G04 #@! TF.GenerationSoftware,KiCad,Pcbnew,(5.1.2)-1*
G04 #@! TF.CreationDate,2019-11-08T15:09:15+05:30*
G04 #@! TF.ProjectId,FingerNode_one,46696e67-6572-44e6-9f64-655f6f6e652e,rev?*
G04 #@! TF.SameCoordinates,Original*
G04 #@! TF.FileFunction,Paste,Top*
G04 #@! TF.FilePolarity,Positive*
G04 Gerber Fmt 4.6, Leading zero omitted, Abs format (unit mm)*
G04 Created by KiCad (PCBNEW (5.1.2)-1) date 2019-11-08 15:09:15*
G04 APERTURE LIST*
G04 APERTURE END LIST*
D29*
X-0005157480Y0004566929D02*
X0000375669Y0001063385D03*
X0000375669Y0000933464D03*
X0000336299Y0001063385D03*
X0000336299Y0000933464D03*
X0000296929Y0001063385D03*
X0000296929Y0000933464D03*
X0000257559Y0001063385D03*
X0000257559Y0000933464D03*
G04 next file*
G04 #@! TF.GenerationSoftware,KiCad,Pcbnew,(5.1.2)-1*
G04 #@! TF.CreationDate,2019-11-08T15:10:02+05:30*
G04 #@! TF.ProjectId,FingerNode,46696e67-6572-44e6-9f64-652e6b696361,rev?*
G04 #@! TF.SameCoordinates,Original*
G04 #@! TF.FileFunction,Paste,Top*
G04 #@! TF.FilePolarity,Positive*
G04 Gerber Fmt 4.6, Leading zero omitted, Abs format (unit mm)*
G04 Created by KiCad (PCBNEW (5.1.2)-1) date 2019-11-08 15:10:02*
G04 APERTURE LIST*
G04 APERTURE END LIST*
D30*
X-0003503937Y0004370078D02*
X0002029212Y0000866535D03*
X0002029212Y0000736614D03*
X0001989842Y0000866535D03*
X0001989842Y0000736614D03*
X0001950472Y0000866535D03*
X0001950472Y0000736614D03*
X0001911102Y0000866535D03*
X0001911102Y0000736614D03*
G04 next file*
G04 #@! TF.GenerationSoftware,KiCad,Pcbnew,(5.1.2)-1*
G04 #@! TF.CreationDate,2019-11-08T15:10:02+05:30*
G04 #@! TF.ProjectId,FingerNode,46696e67-6572-44e6-9f64-652e6b696361,rev?*
G04 #@! TF.SameCoordinates,Original*
G04 #@! TF.FileFunction,Paste,Top*
G04 #@! TF.FilePolarity,Positive*
G04 Gerber Fmt 4.6, Leading zero omitted, Abs format (unit mm)*
G04 Created by KiCad (PCBNEW (5.1.2)-1) date 2019-11-08 15:10:02*
G04 APERTURE LIST*
G04 APERTURE END LIST*
D31*
X-0003149606Y0004370078D02*
X0002383543Y0000866535D03*
X0002383543Y0000736614D03*
X0002344173Y0000866535D03*
X0002344173Y0000736614D03*
X0002304803Y0000866535D03*
X0002304803Y0000736614D03*
X0002265433Y0000866535D03*
X0002265433Y0000736614D03*
G04 next file*
G04 #@! TF.GenerationSoftware,KiCad,Pcbnew,(5.1.2)-1*
G04 #@! TF.CreationDate,2019-11-08T15:10:02+05:30*
G04 #@! TF.ProjectId,FingerNode,46696e67-6572-44e6-9f64-652e6b696361,rev?*
G04 #@! TF.SameCoordinates,Original*
G04 #@! TF.FileFunction,Paste,Top*
G04 #@! TF.FilePolarity,Positive*
G04 Gerber Fmt 4.6, Leading zero omitted, Abs format (unit mm)*
G04 Created by KiCad (PCBNEW (5.1.2)-1) date 2019-11-08 15:10:02*
G04 APERTURE LIST*
G04 APERTURE END LIST*
D32*
X-0002795275Y0004370078D02*
X0002737874Y0000866535D03*
X0002737874Y0000736614D03*
X0002698503Y0000866535D03*
X0002698503Y0000736614D03*
X0002659133Y0000866535D03*
X0002659133Y0000736614D03*
X0002619763Y0000866535D03*
X0002619763Y0000736614D03*
G04 next file*
G04 #@! TF.GenerationSoftware,KiCad,Pcbnew,(5.1.2)-1*
G04 #@! TF.CreationDate,2019-11-08T15:10:02+05:30*
G04 #@! TF.ProjectId,FingerNode,46696e67-6572-44e6-9f64-652e6b696361,rev?*
G04 #@! TF.SameCoordinates,Original*
G04 #@! TF.FileFunction,Paste,Top*
G04 #@! TF.FilePolarity,Positive*
G04 Gerber Fmt 4.6, Leading zero omitted, Abs format (unit mm)*
G04 Created by KiCad (PCBNEW (5.1.2)-1) date 2019-11-08 15:10:02*
G04 APERTURE LIST*
G04 APERTURE END LIST*
D33*
X-0002440944Y0004370078D02*
X0003092204Y0000866535D03*
X0003092204Y0000736614D03*
X0003052834Y0000866535D03*
X0003052834Y0000736614D03*
X0003013464Y0000866535D03*
X0003013464Y0000736614D03*
X0002974094Y0000866535D03*
X0002974094Y0000736614D03*
G04 next file*
G04 #@! TF.GenerationSoftware,KiCad,Pcbnew,(5.1.2)-1*
G04 #@! TF.CreationDate,2019-11-08T15:10:02+05:30*
G04 #@! TF.ProjectId,FingerNode,46696e67-6572-44e6-9f64-652e6b696361,rev?*
G04 #@! TF.SameCoordinates,Original*
G04 #@! TF.FileFunction,Paste,Top*
G04 #@! TF.FilePolarity,Positive*
G04 Gerber Fmt 4.6, Leading zero omitted, Abs format (unit mm)*
G04 Created by KiCad (PCBNEW (5.1.2)-1) date 2019-11-08 15:10:02*
G04 APERTURE LIST*
G04 APERTURE END LIST*
D34*
X-0002086614Y0004370078D02*
X0003446535Y0000866535D03*
X0003446535Y0000736614D03*
X0003407165Y0000866535D03*
X0003407165Y0000736614D03*
X0003367795Y0000866535D03*
X0003367795Y0000736614D03*
X0003328425Y0000866535D03*
X0003328425Y0000736614D03*
G04 next file*
G04 #@! TF.GenerationSoftware,KiCad,Pcbnew,(5.1.2)-1*
G04 #@! TF.CreationDate,2019-11-08T15:10:02+05:30*
G04 #@! TF.ProjectId,FingerNode,46696e67-6572-44e6-9f64-652e6b696361,rev?*
G04 #@! TF.SameCoordinates,Original*
G04 #@! TF.FileFunction,Paste,Top*
G04 #@! TF.FilePolarity,Positive*
G04 Gerber Fmt 4.6, Leading zero omitted, Abs format (unit mm)*
G04 Created by KiCad (PCBNEW (5.1.2)-1) date 2019-11-08 15:10:02*
G04 APERTURE LIST*
G04 APERTURE END LIST*
D35*
X-0003503937Y0003897637D02*
X0002029212Y0000394094D03*
X0002029212Y0000264173D03*
X0001989842Y0000394094D03*
X0001989842Y0000264173D03*
X0001950472Y0000394094D03*
X0001950472Y0000264173D03*
X0001911102Y0000394094D03*
X0001911102Y0000264173D03*
G04 next file*
G04 #@! TF.GenerationSoftware,KiCad,Pcbnew,(5.1.2)-1*
G04 #@! TF.CreationDate,2019-11-08T15:10:02+05:30*
G04 #@! TF.ProjectId,FingerNode,46696e67-6572-44e6-9f64-652e6b696361,rev?*
G04 #@! TF.SameCoordinates,Original*
G04 #@! TF.FileFunction,Paste,Top*
G04 #@! TF.FilePolarity,Positive*
G04 Gerber Fmt 4.6, Leading zero omitted, Abs format (unit mm)*
G04 Created by KiCad (PCBNEW (5.1.2)-1) date 2019-11-08 15:10:02*
G04 APERTURE LIST*
G04 APERTURE END LIST*
D36*
X-0003149606Y0003897637D02*
X0002383543Y0000394094D03*
X0002383543Y0000264173D03*
X0002344173Y0000394094D03*
X0002344173Y0000264173D03*
X0002304803Y0000394094D03*
X0002304803Y0000264173D03*
X0002265433Y0000394094D03*
X0002265433Y0000264173D03*
G04 next file*
G04 #@! TF.GenerationSoftware,KiCad,Pcbnew,(5.1.2)-1*
G04 #@! TF.CreationDate,2019-11-08T15:10:02+05:30*
G04 #@! TF.ProjectId,FingerNode,46696e67-6572-44e6-9f64-652e6b696361,rev?*
G04 #@! TF.SameCoordinates,Original*
G04 #@! TF.FileFunction,Paste,Top*
G04 #@! TF.FilePolarity,Positive*
G04 Gerber Fmt 4.6, Leading zero omitted, Abs format (unit mm)*
G04 Created by KiCad (PCBNEW (5.1.2)-1) date 2019-11-08 15:10:02*
G04 APERTURE LIST*
G04 APERTURE END LIST*
D37*
X-0002795275Y0003897637D02*
X0002737874Y0000394094D03*
X0002737874Y0000264173D03*
X0002698503Y0000394094D03*
X0002698503Y0000264173D03*
X0002659133Y0000394094D03*
X0002659133Y0000264173D03*
X0002619763Y0000394094D03*
X0002619763Y0000264173D03*
G04 next file*
G04 #@! TF.GenerationSoftware,KiCad,Pcbnew,(5.1.2)-1*
G04 #@! TF.CreationDate,2019-11-08T15:10:02+05:30*
G04 #@! TF.ProjectId,FingerNode,46696e67-6572-44e6-9f64-652e6b696361,rev?*
G04 #@! TF.SameCoordinates,Original*
G04 #@! TF.FileFunction,Paste,Top*
G04 #@! TF.FilePolarity,Positive*
G04 Gerber Fmt 4.6, Leading zero omitted, Abs format (unit mm)*
G04 Created by KiCad (PCBNEW (5.1.2)-1) date 2019-11-08 15:10:02*
G04 APERTURE LIST*
G04 APERTURE END LIST*
D38*
X-0002440944Y0003897637D02*
X0003092204Y0000394094D03*
X0003092204Y0000264173D03*
X0003052834Y0000394094D03*
X0003052834Y0000264173D03*
X0003013464Y0000394094D03*
X0003013464Y0000264173D03*
X0002974094Y0000394094D03*
X0002974094Y0000264173D03*
G04 next file*
G04 #@! TF.GenerationSoftware,KiCad,Pcbnew,(5.1.2)-1*
G04 #@! TF.CreationDate,2019-11-08T15:10:02+05:30*
G04 #@! TF.ProjectId,FingerNode,46696e67-6572-44e6-9f64-652e6b696361,rev?*
G04 #@! TF.SameCoordinates,Original*
G04 #@! TF.FileFunction,Paste,Top*
G04 #@! TF.FilePolarity,Positive*
G04 Gerber Fmt 4.6, Leading zero omitted, Abs format (unit mm)*
G04 Created by KiCad (PCBNEW (5.1.2)-1) date 2019-11-08 15:10:02*
G04 APERTURE LIST*
G04 APERTURE END LIST*
D39*
X-0002086614Y0003897637D02*
X0003446535Y0000394094D03*
X0003446535Y0000264173D03*
X0003407165Y0000394094D03*
X0003407165Y0000264173D03*
X0003367795Y0000394094D03*
X0003367795Y0000264173D03*
X0003328425Y0000394094D03*
X0003328425Y0000264173D03*
G04 next file*
G04 #@! TF.GenerationSoftware,KiCad,Pcbnew,(5.1.2)-1*
G04 #@! TF.CreationDate,2019-11-08T15:10:02+05:30*
G04 #@! TF.ProjectId,FingerNode,46696e67-6572-44e6-9f64-652e6b696361,rev?*
G04 #@! TF.SameCoordinates,Original*
G04 #@! TF.FileFunction,Paste,Top*
G04 #@! TF.FilePolarity,Positive*
G04 Gerber Fmt 4.6, Leading zero omitted, Abs format (unit mm)*
G04 Created by KiCad (PCBNEW (5.1.2)-1) date 2019-11-08 15:10:02*
G04 APERTURE LIST*
G04 APERTURE END LIST*
D40*
X-0001732283Y0005393700D02*
X0003800866Y0001890157D03*
X0003800866Y0001760236D03*
X0003761496Y0001890157D03*
X0003761496Y0001760236D03*
X0003722125Y0001890157D03*
X0003722125Y0001760236D03*
X0003682755Y0001890157D03*
X0003682755Y0001760236D03*
G04 next file*
G04 #@! TF.GenerationSoftware,KiCad,Pcbnew,(5.1.2)-1*
G04 #@! TF.CreationDate,2019-11-08T15:10:02+05:30*
G04 #@! TF.ProjectId,FingerNode,46696e67-6572-44e6-9f64-652e6b696361,rev?*
G04 #@! TF.SameCoordinates,Original*
G04 #@! TF.FileFunction,Paste,Top*
G04 #@! TF.FilePolarity,Positive*
G04 Gerber Fmt 4.6, Leading zero omitted, Abs format (unit mm)*
G04 Created by KiCad (PCBNEW (5.1.2)-1) date 2019-11-08 15:10:02*
G04 APERTURE LIST*
G04 APERTURE END LIST*
D41*
X-0003149606Y0004881889D02*
X0002383543Y0001378346D03*
X0002383543Y0001248425D03*
X0002344173Y0001378346D03*
X0002344173Y0001248425D03*
X0002304803Y0001378346D03*
X0002304803Y0001248425D03*
X0002265433Y0001378346D03*
X0002265433Y0001248425D03*
G04 next file*
G04 #@! TF.GenerationSoftware,KiCad,Pcbnew,(5.1.2)-1*
G04 #@! TF.CreationDate,2019-11-08T15:10:02+05:30*
G04 #@! TF.ProjectId,FingerNode,46696e67-6572-44e6-9f64-652e6b696361,rev?*
G04 #@! TF.SameCoordinates,Original*
G04 #@! TF.FileFunction,Paste,Top*
G04 #@! TF.FilePolarity,Positive*
G04 Gerber Fmt 4.6, Leading zero omitted, Abs format (unit mm)*
G04 Created by KiCad (PCBNEW (5.1.2)-1) date 2019-11-08 15:10:02*
G04 APERTURE LIST*
G04 APERTURE END LIST*
D42*
X-0002795275Y0004881889D02*
X0002737874Y0001378346D03*
X0002737874Y0001248425D03*
X0002698503Y0001378346D03*
X0002698503Y0001248425D03*
X0002659133Y0001378346D03*
X0002659133Y0001248425D03*
X0002619763Y0001378346D03*
X0002619763Y0001248425D03*
G04 next file*
G04 #@! TF.GenerationSoftware,KiCad,Pcbnew,(5.1.2)-1*
G04 #@! TF.CreationDate,2019-11-08T15:10:02+05:30*
G04 #@! TF.ProjectId,FingerNode,46696e67-6572-44e6-9f64-652e6b696361,rev?*
G04 #@! TF.SameCoordinates,Original*
G04 #@! TF.FileFunction,Paste,Top*
G04 #@! TF.FilePolarity,Positive*
G04 Gerber Fmt 4.6, Leading zero omitted, Abs format (unit mm)*
G04 Created by KiCad (PCBNEW (5.1.2)-1) date 2019-11-08 15:10:02*
G04 APERTURE LIST*
G04 APERTURE END LIST*
D43*
X-0002440944Y0004881889D02*
X0003092204Y0001378346D03*
X0003092204Y0001248425D03*
X0003052834Y0001378346D03*
X0003052834Y0001248425D03*
X0003013464Y0001378346D03*
X0003013464Y0001248425D03*
X0002974094Y0001378346D03*
X0002974094Y0001248425D03*
G04 next file*
G04 #@! TF.GenerationSoftware,KiCad,Pcbnew,(5.1.2)-1*
G04 #@! TF.CreationDate,2019-11-08T15:10:02+05:30*
G04 #@! TF.ProjectId,FingerNode,46696e67-6572-44e6-9f64-652e6b696361,rev?*
G04 #@! TF.SameCoordinates,Original*
G04 #@! TF.FileFunction,Paste,Top*
G04 #@! TF.FilePolarity,Positive*
G04 Gerber Fmt 4.6, Leading zero omitted, Abs format (unit mm)*
G04 Created by KiCad (PCBNEW (5.1.2)-1) date 2019-11-08 15:10:02*
G04 APERTURE LIST*
G04 APERTURE END LIST*
D44*
X-0002086614Y0004881889D02*
X0003446535Y0001378346D03*
X0003446535Y0001248425D03*
X0003407165Y0001378346D03*
X0003407165Y0001248425D03*
X0003367795Y0001378346D03*
X0003367795Y0001248425D03*
X0003328425Y0001378346D03*
X0003328425Y0001248425D03*
G04 next file*
G04 #@! TF.GenerationSoftware,KiCad,Pcbnew,(5.1.2)-1*
G04 #@! TF.CreationDate,2019-11-08T15:09:15+05:30*
G04 #@! TF.ProjectId,FingerNode_one,46696e67-6572-44e6-9f64-655f6f6e652e,rev?*
G04 #@! TF.SameCoordinates,Original*
G04 #@! TF.FileFunction,Paste,Top*
G04 #@! TF.FilePolarity,Positive*
G04 Gerber Fmt 4.6, Leading zero omitted, Abs format (unit mm)*
G04 Created by KiCad (PCBNEW (5.1.2)-1) date 2019-11-08 15:09:15*
G04 APERTURE LIST*
G04 APERTURE END LIST*
D45*
X-0004803149Y0004606299D02*
X0000730000Y0001102755D03*
X0000730000Y0000972834D03*
X0000690629Y0001102755D03*
X0000690629Y0000972834D03*
X0000651259Y0001102755D03*
X0000651259Y0000972834D03*
X0000611889Y0001102755D03*
X0000611889Y0000972834D03*
G04 next file*
G04 #@! TF.GenerationSoftware,KiCad,Pcbnew,(5.1.2)-1*
G04 #@! TF.CreationDate,2019-11-08T15:09:15+05:30*
G04 #@! TF.ProjectId,FingerNode_one,46696e67-6572-44e6-9f64-655f6f6e652e,rev?*
G04 #@! TF.SameCoordinates,Original*
G04 #@! TF.FileFunction,Paste,Top*
G04 #@! TF.FilePolarity,Positive*
G04 Gerber Fmt 4.6, Leading zero omitted, Abs format (unit mm)*
G04 Created by KiCad (PCBNEW (5.1.2)-1) date 2019-11-08 15:09:15*
G04 APERTURE LIST*
G04 APERTURE END LIST*
D46*
X-0004448818Y0004606299D02*
X0001084330Y0001102755D03*
X0001084330Y0000972834D03*
X0001044960Y0001102755D03*
X0001044960Y0000972834D03*
X0001005590Y0001102755D03*
X0001005590Y0000972834D03*
X0000966220Y0001102755D03*
X0000966220Y0000972834D03*
G04 next file*
G04 #@! TF.GenerationSoftware,KiCad,Pcbnew,(5.1.2)-1*
G04 #@! TF.CreationDate,2019-11-08T15:09:15+05:30*
G04 #@! TF.ProjectId,FingerNode_one,46696e67-6572-44e6-9f64-655f6f6e652e,rev?*
G04 #@! TF.SameCoordinates,Original*
G04 #@! TF.FileFunction,Paste,Top*
G04 #@! TF.FilePolarity,Positive*
G04 Gerber Fmt 4.6, Leading zero omitted, Abs format (unit mm)*
G04 Created by KiCad (PCBNEW (5.1.2)-1) date 2019-11-08 15:09:15*
G04 APERTURE LIST*
G04 APERTURE END LIST*
D47*
X-0004094488Y0004566929D02*
X0001438661Y0001063385D03*
X0001438661Y0000933464D03*
X0001399291Y0001063385D03*
X0001399291Y0000933464D03*
X0001359921Y0001063385D03*
X0001359921Y0000933464D03*
X0001320551Y0001063385D03*
X0001320551Y0000933464D03*
G04 next file*
G04 #@! TF.GenerationSoftware,KiCad,Pcbnew,(5.1.2)-1*
G04 #@! TF.CreationDate,2019-11-08T15:09:15+05:30*
G04 #@! TF.ProjectId,FingerNode_one,46696e67-6572-44e6-9f64-655f6f6e652e,rev?*
G04 #@! TF.SameCoordinates,Original*
G04 #@! TF.FileFunction,Paste,Top*
G04 #@! TF.FilePolarity,Positive*
G04 Gerber Fmt 4.6, Leading zero omitted, Abs format (unit mm)*
G04 Created by KiCad (PCBNEW (5.1.2)-1) date 2019-11-08 15:09:15*
G04 APERTURE LIST*
G04 APERTURE END LIST*
D48*
X-0002440944Y0005393700D02*
X0003092204Y0001890157D03*
X0003092204Y0001760236D03*
X0003052834Y0001890157D03*
X0003052834Y0001760236D03*
X0003013464Y0001890157D03*
X0003013464Y0001760236D03*
X0002974094Y0001890157D03*
X0002974094Y0001760236D03*
G04 next file*
G04 #@! TF.GenerationSoftware,KiCad,Pcbnew,(5.1.2)-1*
G04 #@! TF.CreationDate,2019-11-08T15:09:15+05:30*
G04 #@! TF.ProjectId,FingerNode_one,46696e67-6572-44e6-9f64-655f6f6e652e,rev?*
G04 #@! TF.SameCoordinates,Original*
G04 #@! TF.FileFunction,Paste,Top*
G04 #@! TF.FilePolarity,Positive*
G04 Gerber Fmt 4.6, Leading zero omitted, Abs format (unit mm)*
G04 Created by KiCad (PCBNEW (5.1.2)-1) date 2019-11-08 15:09:15*
G04 APERTURE LIST*
G04 APERTURE END LIST*
D49*
X-0002795275Y0005393700D02*
X0002737874Y0001890157D03*
X0002737874Y0001760236D03*
X0002698503Y0001890157D03*
X0002698503Y0001760236D03*
X0002659133Y0001890157D03*
X0002659133Y0001760236D03*
X0002619763Y0001890157D03*
X0002619763Y0001760236D03*
G04 next file*
G04 #@! TF.GenerationSoftware,KiCad,Pcbnew,(5.1.2)-1*
G04 #@! TF.CreationDate,2019-11-08T15:09:15+05:30*
G04 #@! TF.ProjectId,FingerNode_one,46696e67-6572-44e6-9f64-655f6f6e652e,rev?*
G04 #@! TF.SameCoordinates,Original*
G04 #@! TF.FileFunction,Paste,Top*
G04 #@! TF.FilePolarity,Positive*
G04 Gerber Fmt 4.6, Leading zero omitted, Abs format (unit mm)*
G04 Created by KiCad (PCBNEW (5.1.2)-1) date 2019-11-08 15:09:15*
G04 APERTURE LIST*
G04 APERTURE END LIST*
D50*
X-0003149606Y0005393700D02*
X0002383543Y0001890157D03*
X0002383543Y0001760236D03*
X0002344173Y0001890157D03*
X0002344173Y0001760236D03*
X0002304803Y0001890157D03*
X0002304803Y0001760236D03*
X0002265433Y0001890157D03*
X0002265433Y0001760236D03*
G04 next file*
G04 #@! TF.GenerationSoftware,KiCad,Pcbnew,(5.1.2)-1*
G04 #@! TF.CreationDate,2019-11-08T15:09:15+05:30*
G04 #@! TF.ProjectId,FingerNode_one,46696e67-6572-44e6-9f64-655f6f6e652e,rev?*
G04 #@! TF.SameCoordinates,Original*
G04 #@! TF.FileFunction,Paste,Top*
G04 #@! TF.FilePolarity,Positive*
G04 Gerber Fmt 4.6, Leading zero omitted, Abs format (unit mm)*
G04 Created by KiCad (PCBNEW (5.1.2)-1) date 2019-11-08 15:09:15*
G04 APERTURE LIST*
G04 APERTURE END LIST*
D51*
X-0004094488Y0004055118D02*
X0001438661Y0000551574D03*
X0001438661Y0000421653D03*
X0001399291Y0000551574D03*
X0001399291Y0000421653D03*
X0001359921Y0000551574D03*
X0001359921Y0000421653D03*
X0001320551Y0000551574D03*
X0001320551Y0000421653D03*
G04 next file*
G04 #@! TF.GenerationSoftware,KiCad,Pcbnew,(5.1.2)-1*
G04 #@! TF.CreationDate,2019-11-08T15:09:15+05:30*
G04 #@! TF.ProjectId,FingerNode_one,46696e67-6572-44e6-9f64-655f6f6e652e,rev?*
G04 #@! TF.SameCoordinates,Original*
G04 #@! TF.FileFunction,Paste,Top*
G04 #@! TF.FilePolarity,Positive*
G04 Gerber Fmt 4.6, Leading zero omitted, Abs format (unit mm)*
G04 Created by KiCad (PCBNEW (5.1.2)-1) date 2019-11-08 15:09:15*
G04 APERTURE LIST*
G04 APERTURE END LIST*
D52*
X-0004448818Y0004094488D02*
X0001084330Y0000590944D03*
X0001084330Y0000461023D03*
X0001044960Y0000590944D03*
X0001044960Y0000461023D03*
X0001005590Y0000590944D03*
X0001005590Y0000461023D03*
X0000966220Y0000590944D03*
X0000966220Y0000461023D03*
G04 next file*
G04 #@! TF.GenerationSoftware,KiCad,Pcbnew,(5.1.2)-1*
G04 #@! TF.CreationDate,2019-11-08T15:09:15+05:30*
G04 #@! TF.ProjectId,FingerNode_one,46696e67-6572-44e6-9f64-655f6f6e652e,rev?*
G04 #@! TF.SameCoordinates,Original*
G04 #@! TF.FileFunction,Paste,Top*
G04 #@! TF.FilePolarity,Positive*
G04 Gerber Fmt 4.6, Leading zero omitted, Abs format (unit mm)*
G04 Created by KiCad (PCBNEW (5.1.2)-1) date 2019-11-08 15:09:15*
G04 APERTURE LIST*
G04 APERTURE END LIST*
D53*
X-0004803149Y0004094488D02*
X0000730000Y0000590944D03*
X0000730000Y0000461023D03*
X0000690629Y0000590944D03*
X0000690629Y0000461023D03*
X0000651259Y0000590944D03*
X0000651259Y0000461023D03*
X0000611889Y0000590944D03*
X0000611889Y0000461023D03*
G04 next file*
G04 #@! TF.GenerationSoftware,KiCad,Pcbnew,(5.1.2)-1*
G04 #@! TF.CreationDate,2019-11-08T15:09:15+05:30*
G04 #@! TF.ProjectId,FingerNode_one,46696e67-6572-44e6-9f64-655f6f6e652e,rev?*
G04 #@! TF.SameCoordinates,Original*
G04 #@! TF.FileFunction,Paste,Top*
G04 #@! TF.FilePolarity,Positive*
G04 Gerber Fmt 4.6, Leading zero omitted, Abs format (unit mm)*
G04 Created by KiCad (PCBNEW (5.1.2)-1) date 2019-11-08 15:09:15*
G04 APERTURE LIST*
G04 APERTURE END LIST*
D54*
X-0005157480Y0004055118D02*
X0000375669Y0000551574D03*
X0000375669Y0000421653D03*
X0000336299Y0000551574D03*
X0000336299Y0000421653D03*
X0000296929Y0000551574D03*
X0000296929Y0000421653D03*
X0000257559Y0000551574D03*
X0000257559Y0000421653D03*
G04 next file*
G04 #@! TF.GenerationSoftware,KiCad,Pcbnew,(5.1.2)-1*
G04 #@! TF.CreationDate,2019-11-08T15:09:15+05:30*
G04 #@! TF.ProjectId,FingerNode_one,46696e67-6572-44e6-9f64-655f6f6e652e,rev?*
G04 #@! TF.SameCoordinates,Original*
G04 #@! TF.FileFunction,Paste,Top*
G04 #@! TF.FilePolarity,Positive*
G04 Gerber Fmt 4.6, Leading zero omitted, Abs format (unit mm)*
G04 Created by KiCad (PCBNEW (5.1.2)-1) date 2019-11-08 15:09:15*
G04 APERTURE LIST*
G04 APERTURE END LIST*
D55*
X-0002086614Y0005393700D02*
X0003446535Y0001890157D03*
X0003446535Y0001760236D03*
X0003407165Y0001890157D03*
X0003407165Y0001760236D03*
X0003367795Y0001890157D03*
X0003367795Y0001760236D03*
X0003328425Y0001890157D03*
X0003328425Y0001760236D03*
G04 next file*
G04 #@! TF.GenerationSoftware,KiCad,Pcbnew,(5.1.2)-1*
G04 #@! TF.CreationDate,2019-11-08T15:09:15+05:30*
G04 #@! TF.ProjectId,FingerNode_one,46696e67-6572-44e6-9f64-655f6f6e652e,rev?*
G04 #@! TF.SameCoordinates,Original*
G04 #@! TF.FileFunction,Paste,Top*
G04 #@! TF.FilePolarity,Positive*
G04 Gerber Fmt 4.6, Leading zero omitted, Abs format (unit mm)*
G04 Created by KiCad (PCBNEW (5.1.2)-1) date 2019-11-08 15:09:15*
G04 APERTURE LIST*
G04 APERTURE END LIST*
D56*
X-0001732283Y0004881889D02*
X0003800866Y0001378346D03*
X0003800866Y0001248425D03*
X0003761496Y0001378346D03*
X0003761496Y0001248425D03*
X0003722125Y0001378346D03*
X0003722125Y0001248425D03*
X0003682755Y0001378346D03*
X0003682755Y0001248425D03*
G04 next file*
G04 #@! TF.GenerationSoftware,KiCad,Pcbnew,(5.1.2)-1*
G04 #@! TF.CreationDate,2019-11-08T15:09:15+05:30*
G04 #@! TF.ProjectId,FingerNode_one,46696e67-6572-44e6-9f64-655f6f6e652e,rev?*
G04 #@! TF.SameCoordinates,Original*
G04 #@! TF.FileFunction,Paste,Top*
G04 #@! TF.FilePolarity,Positive*
G04 Gerber Fmt 4.6, Leading zero omitted, Abs format (unit mm)*
G04 Created by KiCad (PCBNEW (5.1.2)-1) date 2019-11-08 15:09:15*
G04 APERTURE LIST*
G04 APERTURE END LIST*
D57*
X-0001732283Y0004370078D02*
X0003800866Y0000866535D03*
X0003800866Y0000736614D03*
X0003761496Y0000866535D03*
X0003761496Y0000736614D03*
X0003722125Y0000866535D03*
X0003722125Y0000736614D03*
X0003682755Y0000866535D03*
X0003682755Y0000736614D03*
G04 next file*
G04 #@! TF.GenerationSoftware,KiCad,Pcbnew,(5.1.2)-1*
G04 #@! TF.CreationDate,2019-11-08T15:09:15+05:30*
G04 #@! TF.ProjectId,FingerNode_one,46696e67-6572-44e6-9f64-655f6f6e652e,rev?*
G04 #@! TF.SameCoordinates,Original*
G04 #@! TF.FileFunction,Paste,Top*
G04 #@! TF.FilePolarity,Positive*
G04 Gerber Fmt 4.6, Leading zero omitted, Abs format (unit mm)*
G04 Created by KiCad (PCBNEW (5.1.2)-1) date 2019-11-08 15:09:15*
G04 APERTURE LIST*
G04 APERTURE END LIST*
D58*
X-0001732283Y0003897637D02*
X0003800866Y0000394094D03*
X0003800866Y0000264173D03*
X0003761496Y0000394094D03*
X0003761496Y0000264173D03*
X0003722125Y0000394094D03*
X0003722125Y0000264173D03*
X0003682755Y0000394094D03*
X0003682755Y0000264173D03*
M02*