%
M48
METRIC,000.000
T01C1.19
T02C2.00
T10C0.40
T11C0.80
T12C0.81
T13C0.90
T14C1.00
T15C1.20
T16C3.30
%
T01
X032834Y063419
X032815Y072462
X032815Y069922
T02
X042045Y090514
X043765Y088056
X045306Y083101
X044787Y086055
X040366Y092101
X037769Y093601
T10
X004681Y091025
X007552Y089270
X007651Y090064
X008003Y085933
X008044Y081789
X008800Y086007
X009211Y076995
X010025Y077734
X011194Y091616
X011223Y086102
X012010Y079545
X013173Y086102
X013244Y088497
X013275Y090827
X014324Y093688
X017122Y095771
X017508Y072262
X017942Y081590
X018282Y073491
X018551Y082346
X018657Y039352
X018764Y094663
X018901Y087301
X019080Y088420
X019549Y082190
X020074Y072890
X020316Y080988
X020944Y065982
X020955Y060057
X021348Y039123
X021613Y081482
X021820Y093065
X021872Y071632
X022233Y065931
X022240Y082070
X022479Y080565
X022895Y082682
X023764Y075549
X024758Y086523
X024800Y080718
X025479Y071481
X025525Y081314
X026257Y082941
X026383Y071139
X026971Y069614
X027330Y065676
X027869Y071920
X027989Y080251
X028008Y096055
X029323Y041024
X033019Y076029
X036122Y044774
X036714Y040968
X036970Y070696
X037054Y073863
X037313Y061495
X037313Y060566
X039882Y063584
X040562Y058652
X044008Y046438
X057611Y070357
X059287Y057150
X068597Y070253
X071913Y070112
X078378Y070246
X005116Y028087
X005290Y022485
X005515Y028906
X005576Y021653
X006719Y022105
X007336Y021504
X007528Y025215
X008937Y028754
X047116Y023087
X047291Y017485
X047515Y023906
X047577Y016653
X048720Y017105
X049336Y016504
X049529Y020215
X050937Y023754
X056116Y023087
X056291Y017485
X056515Y023906
X056577Y016653
X057720Y017105
X058336Y016504
X058529Y020215
X059937Y023754
X065116Y023087
X065291Y017485
X065515Y023906
X065577Y016653
X066720Y017105
X067336Y016504
X067529Y020215
X068937Y023754
X074116Y023087
X074291Y017485
X074515Y023906
X074577Y016653
X075720Y017105
X076336Y016504
X076529Y020215
X077937Y023754
X083116Y023087
X083291Y017485
X083515Y023906
X083577Y016653
X084720Y017105
X085336Y016504
X085529Y020215
X086937Y023754
X047116Y011087
X047291Y005484
X047515Y011906
X047577Y004653
X048720Y005105
X049336Y004504
X049529Y008215
X050937Y011754
X056116Y011087
X056291Y005484
X056515Y011906
X056577Y004653
X057720Y005105
X058336Y004504
X058529Y008215
X059937Y011754
X065116Y011087
X065291Y005484
X065515Y011906
X065577Y004653
X066720Y005105
X067336Y004504
X067529Y008215
X068937Y011754
X074116Y011087
X074291Y005484
X074515Y011906
X074577Y004653
X075720Y005105
X076336Y004504
X076529Y008215
X077937Y011754
X083116Y011087
X083291Y005484
X083515Y011906
X083577Y004653
X084720Y005105
X085336Y004504
X085529Y008215
X086937Y011754
X092116Y049087
X092291Y043485
X092515Y049907
X092577Y042653
X093720Y043105
X094336Y042504
X094529Y046215
X095937Y049754
X056116Y036087
X056291Y030485
X056515Y036907
X056577Y029653
X057720Y030105
X058336Y029504
X058529Y033215
X059937Y036754
X065116Y036087
X065291Y030485
X065515Y036907
X065577Y029653
X066720Y030105
X067336Y029504
X067529Y033215
X068937Y036754
X074116Y036087
X074291Y030485
X074515Y036907
X074577Y029653
X075720Y030105
X076336Y029504
X076529Y033215
X077937Y036754
X083116Y036087
X083291Y030485
X083515Y036907
X083577Y029653
X084720Y030105
X085336Y029504
X085529Y033215
X086937Y036754
X014116Y029087
X014290Y023485
X014515Y029906
X014576Y022653
X015719Y023105
X016335Y022504
X016528Y026215
X017937Y029754
X023116Y029087
X023290Y023485
X023515Y029906
X023577Y022653
X024720Y023105
X025336Y022504
X025528Y026215
X026937Y029754
X032116Y028087
X032290Y022485
X032515Y028906
X032577Y021653
X033720Y022105
X034336Y021504
X034529Y025215
X035937Y028754
X074116Y049087
X074291Y043485
X074515Y049907
X074577Y042653
X075720Y043105
X076336Y042504
X076529Y046215
X077937Y049754
X065116Y049087
X065291Y043485
X065515Y049907
X065577Y042653
X066720Y043105
X067336Y042504
X067529Y046215
X068937Y049754
X056116Y049087
X056291Y043485
X056515Y049907
X056577Y042653
X057720Y043105
X058336Y042504
X058529Y046215
X059937Y049754
X032116Y015087
X032290Y009485
X032515Y015906
X032577Y008653
X033720Y009105
X034336Y008504
X034529Y012215
X035937Y015754
X023116Y016087
X023290Y010485
X023515Y016906
X023577Y009653
X024720Y010105
X025336Y009504
X025528Y013215
X026937Y016754
X014116Y016087
X014290Y010485
X014515Y016906
X014576Y009653
X015719Y010105
X016335Y009504
X016528Y013215
X017937Y016754
X005116Y015087
X005290Y009485
X005515Y015906
X005576Y008653
X006719Y009105
X007336Y008504
X007528Y012215
X008937Y015754
X083116Y049087
X083291Y043485
X083515Y049907
X083577Y042653
X084720Y043105
X085336Y042504
X085529Y046215
X086937Y049754
X092116Y036087
X092291Y030485
X092515Y036907
X092577Y029653
X093720Y030105
X094336Y029504
X094529Y033215
X095937Y036754
X092116Y023087
X092291Y017485
X092515Y023906
X092577Y016653
X093720Y017105
X094336Y016504
X094529Y020215
X095937Y023754
X092116Y011087
X092291Y005484
X092515Y011906
X092577Y004653
X093720Y005105
X094336Y004504
X094529Y008215
X095937Y011754
T11
X013679Y043781
X013679Y040781
T12
X088089Y063187
X089339Y065352
X090589Y067517
T13
X083175Y059361
X085376Y060632
T14
X062681Y084220
X062681Y079220
X092082Y089420
X092082Y074020
X068562Y061867
X076163Y061867
X009222Y036678
X011762Y036678
X014301Y036678
X016842Y036678
X019382Y036678
X021921Y036678
X024461Y036678
X055870Y093851
X058410Y093851
X060949Y093851
X063490Y093851
X066030Y093851
X068570Y093851
X071110Y093851
X008895Y057748
X011435Y057748
X013974Y057748
X016514Y057748
X019055Y057748
X021595Y057748
X024134Y057748
X026675Y057748
X029215Y057748
X031754Y057748
X057402Y075944
X057413Y081024
X009222Y047798
X011762Y047798
X014301Y047798
X016842Y047798
X019382Y047798
X021921Y047798
X024461Y047798
X027002Y047798
X029542Y047798
X032081Y047798
T15
X057613Y089863
X057613Y084783
T16
X082520Y067890
X063520Y067890
M30