%
M48
METRIC,000.000
T01C0.50
%
T01
X048444Y073997
X048444Y074997
X048444Y075997
X048444Y076997
X048444Y077997
X048444Y078997
X050619Y078688
X050619Y077688
X050619Y076688
X050619Y075688
X050619Y074688
X048444Y056997
X048444Y057997
X048444Y058997
X048444Y059997
X048444Y060997
X048444Y061997
X050619Y061688
X050619Y060688
X050619Y059688
X050619Y058688
X050619Y057688
X050619Y056688
X007686Y053708
X008686Y053708
X009686Y053708
X010686Y053708
X011686Y053708
X011283Y049837
X010283Y049837
X009283Y049837
X008283Y049837
X037686Y053708
X038686Y053708
X039686Y053708
X040686Y053708
X041686Y053708
X041283Y049837
X040283Y049837
X039283Y049837
X038283Y049837
X006398Y034638
X007398Y034638
X008398Y034638
X009088Y030368
X008088Y030368
X007088Y030368
X006088Y030368
X005095Y030304
X014398Y034638
X015398Y034638
X016398Y034638
X017398Y034638
X018398Y034638
X018088Y031368
X017088Y031368
X016088Y031368
X015088Y031368
X014095Y031304
X023398Y034638
X024398Y034638
X025398Y034638
X026398Y034638
X027398Y034638
X027088Y031368
X026088Y031368
X025088Y031368
X024088Y031368
X023095Y031304
X033398Y034638
X034398Y034638
X035398Y034638
X036088Y030368
X035088Y030368
X034088Y030368
X033088Y030368
X032095Y030304
X004900Y020852
X005873Y020698
X006873Y020698
X007873Y020698
X008873Y020698
X009088Y017368
X008088Y017368
X007088Y017368
X006088Y017368
X005095Y017304
X014873Y021698
X015873Y021698
X016873Y021698
X018088Y018368
X017088Y018368
X016088Y018368
X015088Y018368
X014095Y018304
X013400Y017631
X023873Y021698
X024873Y021698
X025873Y021698
X026873Y021698
X027873Y021698
X028088Y018368
X027088Y018368
X026088Y018368
X025088Y018368
X024088Y018368
X031900Y020852
X032873Y020698
X033873Y020698
X034873Y020698
X035873Y020698
X036088Y017368
X035088Y017368
X034088Y017368
X033088Y017368
X032095Y017304
X053228Y018014
X053228Y019014
X053228Y020014
X053229Y021014
X053229Y022014
X055322Y022641
X055321Y021641
X055321Y020641
X055321Y019641
X055320Y018641
X055320Y017641
X062228Y019014
X062228Y020014
X062229Y021014
X062229Y022014
X062229Y023014
X064322Y023641
X064322Y022641
X064321Y021641
X064321Y020641
X064321Y019641
X064320Y018641
X071228Y018014
X071228Y019014
X071228Y020014
X071229Y021014
X071229Y022014
X073322Y022641
X073321Y021641
X073321Y020641
X073321Y019641
X073320Y018641
X073320Y017641
X080228Y018014
X080228Y019014
X080228Y020014
X080229Y021014
X080229Y022014
X082322Y022641
X082321Y021641
X082321Y020641
X082321Y019641
X082320Y018641
X082320Y017641
X089228Y018014
X089228Y019014
X089228Y020014
X089229Y021014
X089229Y022014
X091322Y022641
X091321Y021641
X091321Y020641
X091321Y019641
X091320Y018641
X091320Y017641
X071228Y031014
X071228Y032014
X071228Y033014
X071229Y034014
X071229Y035014
X073322Y035641
X073321Y034641
X073321Y033641
X073321Y032641
X073320Y031641
X073320Y030641
X046900Y015852
X047873Y015698
X048873Y015698
X049873Y015698
X050873Y015698
X051088Y013369
X050088Y013369
X049088Y013369
X048088Y013369
X047095Y013304
X055900Y015852
X056873Y015698
X057873Y015698
X058873Y015698
X059873Y015698
X060873Y015698
X061088Y013368
X060088Y013369
X059088Y013369
X058088Y013369
X057088Y013369
X056095Y013304
X064900Y015852
X065873Y015698
X066873Y015698
X067873Y015698
X068873Y015698
X069873Y015698
X069088Y013369
X068088Y013369
X067088Y013369
X066088Y013369
X065095Y013304
X074873Y015698
X075873Y015698
X076873Y015698
X077873Y015698
X078873Y015698
X079088Y013368
X078088Y013369
X077088Y013369
X076088Y013369
X075088Y013369
X083873Y015698
X084873Y015698
X085873Y015698
X086873Y015698
X087873Y015698
X088088Y013368
X087088Y013369
X086088Y013369
X085088Y013369
X084088Y013369
X092873Y015698
X093873Y015698
X094873Y015698
X095873Y015698
X096873Y015698
X097088Y013368
X096088Y013369
X095088Y013369
X094088Y013369
X093088Y013369
X052937Y004086
X053228Y005014
X053228Y006014
X053228Y007014
X053228Y008014
X053229Y009014
X055321Y008641
X055321Y007641
X055320Y006641
X055320Y005641
X055340Y004642
X055900Y003852
X062228Y005014
X062228Y006014
X062228Y007014
X062228Y008014
X062229Y009014
X064321Y009641
X064321Y008641
X064321Y007641
X064320Y006641
X064320Y005641
X064340Y004642
X071228Y006014
X071228Y007014
X071228Y008014
X071229Y009014
X071229Y010014
X073321Y009641
X073321Y008641
X073321Y007641
X073320Y006641
X073320Y005641
X080228Y005014
X080228Y006014
X080228Y007014
X080228Y008014
X080229Y009014
X082321Y009641
X082321Y008641
X082321Y007641
X082320Y006641
X082320Y005641
X082340Y004642
X089228Y005014
X089228Y006014
X089228Y007014
X089228Y008014
X089229Y009014
X091321Y008641
X091321Y007641
X091320Y006641
X091320Y005641
X091340Y004642
X061088Y025368
X060088Y025368
X059088Y025368
X058088Y025368
X057088Y025368
X056095Y025304
X056873Y028698
X057873Y028698
X058873Y028698
X059873Y028698
X070088Y025368
X069088Y025368
X068088Y025368
X067088Y025368
X066088Y025368
X065095Y025304
X065873Y028698
X066873Y028698
X067873Y028698
X068873Y028698
X078088Y025368
X077088Y025368
X076088Y025368
X075088Y025368
X074095Y025304
X073900Y028852
X074873Y028698
X075873Y028698
X076873Y028698
X077873Y028698
X088088Y025368
X087088Y025368
X086088Y025368
X085088Y025368
X084088Y025368
X083873Y028698
X084873Y028698
X085873Y028698
X086873Y028698
X087873Y028698
X091900Y028852
X092873Y028698
X093873Y028698
X094873Y028698
X095873Y028698
X096088Y025368
X095088Y025368
X094088Y025368
X093088Y025368
X092095Y025304
X080228Y030014
X080228Y031014
X080228Y032014
X080228Y033014
X080229Y034014
X080229Y035014
X082321Y034641
X082321Y033641
X082321Y032641
X082320Y031641
X082320Y030641
X089228Y031014
X089228Y032014
X089228Y033014
X089229Y034014
X089229Y035014
X089229Y036014
X091322Y035641
X091321Y034641
X091321Y033641
X091321Y032641
X091320Y031641
X062228Y031014
X062228Y032014
X062228Y033014
X062229Y034014
X062229Y035014
X062229Y036014
X064322Y035641
X064321Y034641
X064321Y033641
X064321Y032641
X064320Y031641
X064320Y030641
X060088Y038368
X059088Y038368
X058088Y038368
X057088Y038368
X056095Y038304
X055900Y041852
X056873Y041698
X057873Y041698
X058873Y041698
X059873Y041698
X070088Y038368
X069088Y038368
X068088Y038368
X067088Y038368
X066088Y038368
X065873Y041698
X066873Y041698
X067873Y041698
X068873Y041698
X069873Y041698
X078088Y038368
X077088Y038368
X076088Y038368
X075088Y038368
X074095Y038304
X073900Y041852
X074873Y041698
X075873Y041698
X076873Y041698
X077873Y041698
X087088Y038368
X086088Y038368
X085088Y038368
X084088Y038368
X083095Y038304
X082900Y041852
X083873Y041698
X084873Y041698
X085873Y041698
X086873Y041698
X091900Y041852
X092873Y041698
X093873Y041698
X094873Y041698
X095873Y041698
X096088Y038368
X095088Y038368
X094088Y038368
X093088Y038368
X092095Y038304
X091322Y048641
X091321Y047641
X091321Y046641
X091321Y045641
X091320Y044641
X091320Y043641
X089228Y044014
X089228Y045014
X089228Y046014
X089229Y047014
X089229Y048014
X089229Y049014
X080228Y044014
X080228Y045014
X080228Y046014
X080229Y047014
X080229Y048014
X080229Y049014
X082322Y048641
X082321Y047641
X082321Y046641
X082321Y045641
X082320Y044641
X073322Y049641
X073322Y048641
X073321Y047641
X073321Y046641
X073321Y045641
X073320Y044641
X071228Y045014
X071228Y046014
X071229Y047014
X071229Y048014
X071229Y049014
X064322Y048641
X064321Y047641
X064321Y046641
X064321Y045641
X064320Y044641
X062228Y044014
X062228Y045014
X062228Y046014
X062229Y047014
X062229Y048014
X062229Y049014
X082432Y053961
X083397Y054224
X084345Y054542
X085272Y054917
X086175Y055345
X087088Y051368
X086088Y051368
X085088Y051368
X084088Y051368
X083095Y051304
X011228Y024014
X011228Y025014
X011229Y026014
X011229Y027014
X011229Y028014
X013322Y028641
X013321Y027641
X013321Y026641
X013321Y025641
X013320Y024641
X013320Y023641
X020228Y023014
X020228Y024014
X020228Y025014
X020228Y026014
X020229Y027014
X020229Y028014
X022321Y027641
X022321Y026641
X022321Y025641
X022320Y024641
X022320Y023641
X022340Y022642
X029228Y023014
X029228Y024014
X029228Y025014
X029228Y026014
X029229Y027014
X029229Y028014
X031322Y027641
X031321Y026641
X031321Y025641
X031321Y024641
X031320Y023641
X031320Y022641
X031322Y014641
X031321Y013641
X031321Y012641
X031321Y011641
X031320Y010641
X031320Y009641
X029228Y010014
X029228Y011014
X029228Y012014
X029228Y013014
X029229Y014014
X022321Y014641
X022321Y013641
X022321Y012641
X022320Y011641
X022320Y010641
X020228Y011014
X020228Y012014
X020228Y013014
X020229Y014014
X020229Y015014
X013321Y014641
X013321Y013641
X013321Y012641
X013320Y011641
X013320Y010641
X013340Y009642
X011228Y010014
X011228Y011014
X011228Y012014
X011229Y013014
X011229Y014014
X055961Y053490
X056961Y053490
X057961Y053490
X058961Y053490
X059961Y053490
X060961Y053490
X060088Y051368
X059088Y051368
X058088Y051368
X057088Y051368
X056095Y051304
X065961Y053490
X066961Y053490
X067961Y053490
X068961Y053490
X069961Y053490
X070088Y051368
X069088Y051368
X068088Y051368
X067088Y051368
X066088Y051368
X079469Y053521
X074961Y053490
X075961Y053490
X076961Y053490
X077961Y053490
X079602Y050591
X079088Y051368
X078088Y051368
X077088Y051368
X076088Y051368
X075088Y051368
X074095Y051304
M30