%MOIN*%
%OFA0B0*%
%FSLAX44Y44*%
%IPPOS*%
%LPD*%
%ADD10C,0*%
D10*
X00013849Y00024527D02*
X00013849Y00024527D01*
X00022003Y00024527D01*
X00023184Y00025708D01*
X00023184Y00033614D01*
X00023172Y00033782D01*
X00023136Y00033947D01*
X00023077Y00034105D01*
X00022997Y00034253D01*
X00022896Y00034388D01*
X00022776Y00034507D01*
X00022642Y00034608D01*
X00022494Y00034688D01*
X00022336Y00034747D01*
X00022171Y00034783D01*
X00022003Y00034795D01*
X00013849Y00034795D01*
X00013681Y00034783D01*
X00013516Y00034747D01*
X00013358Y00034688D01*
X00013211Y00034608D01*
X00013076Y00034507D01*
X00012956Y00034388D01*
X00012855Y00034253D01*
X00012775Y00034105D01*
X00012716Y00033947D01*
X00012680Y00033782D01*
X00012668Y00033614D01*
X00012668Y00025708D01*
X00012680Y00025540D01*
X00012716Y00025375D01*
X00012775Y00025217D01*
X00012855Y00025069D01*
X00012956Y00024934D01*
X00013076Y00024815D01*
X00013211Y00024714D01*
X00013358Y00024633D01*
X00013516Y00024575D01*
X00013681Y00024539D01*
X00013849Y00024527D01*
X00038288Y00001262D02*
X00038288Y00001262D01*
X00001280Y00001262D01*
X00001280Y00037089D01*
X00038288Y00037089D01*
X00038288Y00001262D01*
X00039469Y00000081D02*
X00039469Y00000081D01*
X00039469Y00039451D01*
X00000099Y00039451D01*
X00000099Y00000081D01*
X00039469Y00000081D01*
M02*