%MOIN*%
%OFA0B0*%
%FSLAX46Y46*%
%IPPOS*%
%LPD*%
%ADD10C,0.0039370078740157488*%
%ADD11C,0.011811023622047244*%
%ADD12R,0.082677165354330714X0.070866141732283464*%
%ADD13R,0.062992125984251982X0.021653543307086617*%
%ADD14R,0.021653543307086617X0.062992125984251982*%
%ADD15R,0.01968503937007874X0.031496062992125991*%
%ADD16R,0.015748031496062995X0.031496062992125991*%
%ADD17C,0.037401574803149609*%
%ADD18R,0.01968503937007874X0.072834645669291348*%
%ADD19C,0.023622047244094488*%
%ADD20C,0.0078740157480314977*%
%LPD*%
G04 next file*
%LPD*%
G04 #@! TF.GenerationSoftware,KiCad,Pcbnew,(5.1.2)-1*
G04 #@! TF.CreationDate,2019-11-08T13:50:46+05:30*
G04 #@! TF.ProjectId,TALK,54414c4b-2e6b-4696-9361-645f70636258,rev?*
G04 #@! TF.SameCoordinates,Original*
G04 #@! TF.FileFunction,Copper,L1,Top*
G04 #@! TF.FilePolarity,Positive*
G04 Gerber Fmt 4.6, Leading zero omitted, Abs format (unit mm)*
G04 Created by KiCad (PCBNEW (5.1.2)-1) date 2019-11-08 13:50:46*
G04 APERTURE LIST*
G04 APERTURE END LIST*
D10*
G36*
X0001452612Y0002949040D02*
G01*
X0001452898Y0002948998D01*
X0001453179Y0002948927D01*
X0001453452Y0002948830D01*
X0001453714Y0002948706D01*
X0001453963Y0002948557D01*
X0001454195Y0002948384D01*
X0001454410Y0002948190D01*
X0001454605Y0002947975D01*
X0001454777Y0002947742D01*
X0001454926Y0002947494D01*
X0001455050Y0002947232D01*
X0001455148Y0002946959D01*
X0001455218Y0002946678D01*
X0001455261Y0002946391D01*
X0001455275Y0002946102D01*
X0001455275Y0002918543D01*
X0001455261Y0002918253D01*
X0001455218Y0002917967D01*
X0001455148Y0002917686D01*
X0001455050Y0002917413D01*
X0001454926Y0002917151D01*
X0001454777Y0002916902D01*
X0001454605Y0002916670D01*
X0001454410Y0002916455D01*
X0001454195Y0002916260D01*
X0001453963Y0002916088D01*
X0001453714Y0002915939D01*
X0001453452Y0002915815D01*
X0001453179Y0002915717D01*
X0001452898Y0002915647D01*
X0001452612Y0002915604D01*
X0001452322Y0002915590D01*
X0001446417Y0002915590D01*
X0001446127Y0002915604D01*
X0001445841Y0002915647D01*
X0001445560Y0002915717D01*
X0001445287Y0002915815D01*
X0001445025Y0002915939D01*
X0001444776Y0002916088D01*
X0001444544Y0002916260D01*
X0001444329Y0002916455D01*
X0001444134Y0002916670D01*
X0001443962Y0002916902D01*
X0001443813Y0002917151D01*
X0001443689Y0002917413D01*
X0001443591Y0002917686D01*
X0001443521Y0002917967D01*
X0001443478Y0002918253D01*
X0001443464Y0002918543D01*
X0001443464Y0002946102D01*
X0001443478Y0002946391D01*
X0001443521Y0002946678D01*
X0001443591Y0002946959D01*
X0001443689Y0002947232D01*
X0001443813Y0002947494D01*
X0001443962Y0002947742D01*
X0001444134Y0002947975D01*
X0001444329Y0002948190D01*
X0001444544Y0002948384D01*
X0001444776Y0002948557D01*
X0001445025Y0002948706D01*
X0001445287Y0002948830D01*
X0001445560Y0002948927D01*
X0001445841Y0002948998D01*
X0001446127Y0002949040D01*
X0001446417Y0002949055D01*
X0001452322Y0002949055D01*
X0001452612Y0002949040D01*
X0001452612Y0002949040D01*
G37*
D11*
X0001449370Y0002932322D03*
D10*
G36*
X0001472297Y0002949040D02*
G01*
X0001472583Y0002948998D01*
X0001472864Y0002948927D01*
X0001473137Y0002948830D01*
X0001473399Y0002948706D01*
X0001473648Y0002948557D01*
X0001473881Y0002948384D01*
X0001474095Y0002948190D01*
X0001474290Y0002947975D01*
X0001474462Y0002947742D01*
X0001474611Y0002947494D01*
X0001474735Y0002947232D01*
X0001474833Y0002946959D01*
X0001474903Y0002946678D01*
X0001474946Y0002946391D01*
X0001474960Y0002946102D01*
X0001474960Y0002918543D01*
X0001474946Y0002918253D01*
X0001474903Y0002917967D01*
X0001474833Y0002917686D01*
X0001474735Y0002917413D01*
X0001474611Y0002917151D01*
X0001474462Y0002916902D01*
X0001474290Y0002916670D01*
X0001474095Y0002916455D01*
X0001473881Y0002916260D01*
X0001473648Y0002916088D01*
X0001473399Y0002915939D01*
X0001473137Y0002915815D01*
X0001472864Y0002915717D01*
X0001472583Y0002915647D01*
X0001472297Y0002915604D01*
X0001472007Y0002915590D01*
X0001466102Y0002915590D01*
X0001465812Y0002915604D01*
X0001465526Y0002915647D01*
X0001465245Y0002915717D01*
X0001464972Y0002915815D01*
X0001464710Y0002915939D01*
X0001464461Y0002916088D01*
X0001464229Y0002916260D01*
X0001464014Y0002916455D01*
X0001463819Y0002916670D01*
X0001463647Y0002916902D01*
X0001463498Y0002917151D01*
X0001463374Y0002917413D01*
X0001463276Y0002917686D01*
X0001463206Y0002917967D01*
X0001463163Y0002918253D01*
X0001463149Y0002918543D01*
X0001463149Y0002946102D01*
X0001463163Y0002946391D01*
X0001463206Y0002946678D01*
X0001463276Y0002946959D01*
X0001463374Y0002947232D01*
X0001463498Y0002947494D01*
X0001463647Y0002947742D01*
X0001463819Y0002947975D01*
X0001464014Y0002948190D01*
X0001464229Y0002948384D01*
X0001464461Y0002948557D01*
X0001464710Y0002948706D01*
X0001464972Y0002948830D01*
X0001465245Y0002948927D01*
X0001465526Y0002948998D01*
X0001465812Y0002949040D01*
X0001466102Y0002949055D01*
X0001472007Y0002949055D01*
X0001472297Y0002949040D01*
X0001472297Y0002949040D01*
G37*
D11*
X0001469055Y0002932322D03*
D10*
G36*
X0001491982Y0002949040D02*
G01*
X0001492268Y0002948998D01*
X0001492550Y0002948927D01*
X0001492822Y0002948830D01*
X0001493084Y0002948706D01*
X0001493333Y0002948557D01*
X0001493566Y0002948384D01*
X0001493780Y0002948190D01*
X0001493975Y0002947975D01*
X0001494147Y0002947742D01*
X0001494296Y0002947494D01*
X0001494420Y0002947232D01*
X0001494518Y0002946959D01*
X0001494588Y0002946678D01*
X0001494631Y0002946391D01*
X0001494645Y0002946102D01*
X0001494645Y0002918543D01*
X0001494631Y0002918253D01*
X0001494588Y0002917967D01*
X0001494518Y0002917686D01*
X0001494420Y0002917413D01*
X0001494296Y0002917151D01*
X0001494147Y0002916902D01*
X0001493975Y0002916670D01*
X0001493780Y0002916455D01*
X0001493566Y0002916260D01*
X0001493333Y0002916088D01*
X0001493084Y0002915939D01*
X0001492822Y0002915815D01*
X0001492550Y0002915717D01*
X0001492268Y0002915647D01*
X0001491982Y0002915604D01*
X0001491692Y0002915590D01*
X0001485787Y0002915590D01*
X0001485497Y0002915604D01*
X0001485211Y0002915647D01*
X0001484930Y0002915717D01*
X0001484657Y0002915815D01*
X0001484395Y0002915939D01*
X0001484146Y0002916088D01*
X0001483914Y0002916260D01*
X0001483699Y0002916455D01*
X0001483504Y0002916670D01*
X0001483332Y0002916902D01*
X0001483183Y0002917151D01*
X0001483059Y0002917413D01*
X0001482961Y0002917686D01*
X0001482891Y0002917967D01*
X0001482848Y0002918253D01*
X0001482834Y0002918543D01*
X0001482834Y0002946102D01*
X0001482848Y0002946391D01*
X0001482891Y0002946678D01*
X0001482961Y0002946959D01*
X0001483059Y0002947232D01*
X0001483183Y0002947494D01*
X0001483332Y0002947742D01*
X0001483504Y0002947975D01*
X0001483699Y0002948190D01*
X0001483914Y0002948384D01*
X0001484146Y0002948557D01*
X0001484395Y0002948706D01*
X0001484657Y0002948830D01*
X0001484930Y0002948927D01*
X0001485211Y0002948998D01*
X0001485497Y0002949040D01*
X0001485787Y0002949055D01*
X0001491692Y0002949055D01*
X0001491982Y0002949040D01*
X0001491982Y0002949040D01*
G37*
D11*
X0001488740Y0002932322D03*
D10*
G36*
X0001511667Y0002949040D02*
G01*
X0001511953Y0002948998D01*
X0001512235Y0002948927D01*
X0001512507Y0002948830D01*
X0001512769Y0002948706D01*
X0001513018Y0002948557D01*
X0001513251Y0002948384D01*
X0001513465Y0002948190D01*
X0001513660Y0002947975D01*
X0001513833Y0002947742D01*
X0001513982Y0002947494D01*
X0001514105Y0002947232D01*
X0001514203Y0002946959D01*
X0001514273Y0002946678D01*
X0001514316Y0002946391D01*
X0001514330Y0002946102D01*
X0001514330Y0002918543D01*
X0001514316Y0002918253D01*
X0001514273Y0002917967D01*
X0001514203Y0002917686D01*
X0001514105Y0002917413D01*
X0001513982Y0002917151D01*
X0001513833Y0002916902D01*
X0001513660Y0002916670D01*
X0001513465Y0002916455D01*
X0001513251Y0002916260D01*
X0001513018Y0002916088D01*
X0001512769Y0002915939D01*
X0001512507Y0002915815D01*
X0001512235Y0002915717D01*
X0001511953Y0002915647D01*
X0001511667Y0002915604D01*
X0001511377Y0002915590D01*
X0001505472Y0002915590D01*
X0001505183Y0002915604D01*
X0001504896Y0002915647D01*
X0001504615Y0002915717D01*
X0001504342Y0002915815D01*
X0001504080Y0002915939D01*
X0001503831Y0002916088D01*
X0001503599Y0002916260D01*
X0001503384Y0002916455D01*
X0001503189Y0002916670D01*
X0001503017Y0002916902D01*
X0001502868Y0002917151D01*
X0001502744Y0002917413D01*
X0001502646Y0002917686D01*
X0001502576Y0002917967D01*
X0001502533Y0002918253D01*
X0001502519Y0002918543D01*
X0001502519Y0002946102D01*
X0001502533Y0002946391D01*
X0001502576Y0002946678D01*
X0001502646Y0002946959D01*
X0001502744Y0002947232D01*
X0001502868Y0002947494D01*
X0001503017Y0002947742D01*
X0001503189Y0002947975D01*
X0001503384Y0002948190D01*
X0001503599Y0002948384D01*
X0001503831Y0002948557D01*
X0001504080Y0002948706D01*
X0001504342Y0002948830D01*
X0001504615Y0002948927D01*
X0001504896Y0002948998D01*
X0001505183Y0002949040D01*
X0001505472Y0002949055D01*
X0001511377Y0002949055D01*
X0001511667Y0002949040D01*
X0001511667Y0002949040D01*
G37*
D11*
X0001508425Y0002932322D03*
D10*
G36*
X0001531352Y0002949040D02*
G01*
X0001531639Y0002948998D01*
X0001531920Y0002948927D01*
X0001532192Y0002948830D01*
X0001532454Y0002948706D01*
X0001532703Y0002948557D01*
X0001532936Y0002948384D01*
X0001533150Y0002948190D01*
X0001533345Y0002947975D01*
X0001533518Y0002947742D01*
X0001533667Y0002947494D01*
X0001533790Y0002947232D01*
X0001533888Y0002946959D01*
X0001533959Y0002946678D01*
X0001534001Y0002946391D01*
X0001534015Y0002946102D01*
X0001534015Y0002918543D01*
X0001534001Y0002918253D01*
X0001533959Y0002917967D01*
X0001533888Y0002917686D01*
X0001533790Y0002917413D01*
X0001533667Y0002917151D01*
X0001533518Y0002916902D01*
X0001533345Y0002916670D01*
X0001533150Y0002916455D01*
X0001532936Y0002916260D01*
X0001532703Y0002916088D01*
X0001532454Y0002915939D01*
X0001532192Y0002915815D01*
X0001531920Y0002915717D01*
X0001531639Y0002915647D01*
X0001531352Y0002915604D01*
X0001531062Y0002915590D01*
X0001525157Y0002915590D01*
X0001524868Y0002915604D01*
X0001524581Y0002915647D01*
X0001524300Y0002915717D01*
X0001524027Y0002915815D01*
X0001523765Y0002915939D01*
X0001523516Y0002916088D01*
X0001523284Y0002916260D01*
X0001523069Y0002916455D01*
X0001522874Y0002916670D01*
X0001522702Y0002916902D01*
X0001522553Y0002917151D01*
X0001522429Y0002917413D01*
X0001522331Y0002917686D01*
X0001522261Y0002917967D01*
X0001522218Y0002918253D01*
X0001522204Y0002918543D01*
X0001522204Y0002946102D01*
X0001522218Y0002946391D01*
X0001522261Y0002946678D01*
X0001522331Y0002946959D01*
X0001522429Y0002947232D01*
X0001522553Y0002947494D01*
X0001522702Y0002947742D01*
X0001522874Y0002947975D01*
X0001523069Y0002948190D01*
X0001523284Y0002948384D01*
X0001523516Y0002948557D01*
X0001523765Y0002948706D01*
X0001524027Y0002948830D01*
X0001524300Y0002948927D01*
X0001524581Y0002948998D01*
X0001524868Y0002949040D01*
X0001525157Y0002949055D01*
X0001531062Y0002949055D01*
X0001531352Y0002949040D01*
X0001531352Y0002949040D01*
G37*
D11*
X0001528110Y0002932322D03*
D10*
G36*
X0001551037Y0002949040D02*
G01*
X0001551324Y0002948998D01*
X0001551605Y0002948927D01*
X0001551877Y0002948830D01*
X0001552139Y0002948706D01*
X0001552388Y0002948557D01*
X0001552621Y0002948384D01*
X0001552835Y0002948190D01*
X0001553030Y0002947975D01*
X0001553203Y0002947742D01*
X0001553352Y0002947494D01*
X0001553476Y0002947232D01*
X0001553573Y0002946959D01*
X0001553644Y0002946678D01*
X0001553686Y0002946391D01*
X0001553700Y0002946102D01*
X0001553700Y0002918543D01*
X0001553686Y0002918253D01*
X0001553644Y0002917967D01*
X0001553573Y0002917686D01*
X0001553476Y0002917413D01*
X0001553352Y0002917151D01*
X0001553203Y0002916902D01*
X0001553030Y0002916670D01*
X0001552835Y0002916455D01*
X0001552621Y0002916260D01*
X0001552388Y0002916088D01*
X0001552139Y0002915939D01*
X0001551877Y0002915815D01*
X0001551605Y0002915717D01*
X0001551324Y0002915647D01*
X0001551037Y0002915604D01*
X0001550748Y0002915590D01*
X0001544842Y0002915590D01*
X0001544553Y0002915604D01*
X0001544266Y0002915647D01*
X0001543985Y0002915717D01*
X0001543712Y0002915815D01*
X0001543450Y0002915939D01*
X0001543202Y0002916088D01*
X0001542969Y0002916260D01*
X0001542754Y0002916455D01*
X0001542560Y0002916670D01*
X0001542387Y0002916902D01*
X0001542238Y0002917151D01*
X0001542114Y0002917413D01*
X0001542016Y0002917686D01*
X0001541946Y0002917967D01*
X0001541903Y0002918253D01*
X0001541889Y0002918543D01*
X0001541889Y0002946102D01*
X0001541903Y0002946391D01*
X0001541946Y0002946678D01*
X0001542016Y0002946959D01*
X0001542114Y0002947232D01*
X0001542238Y0002947494D01*
X0001542387Y0002947742D01*
X0001542560Y0002947975D01*
X0001542754Y0002948190D01*
X0001542969Y0002948384D01*
X0001543202Y0002948557D01*
X0001543450Y0002948706D01*
X0001543712Y0002948830D01*
X0001543985Y0002948927D01*
X0001544266Y0002948998D01*
X0001544553Y0002949040D01*
X0001544842Y0002949055D01*
X0001550748Y0002949055D01*
X0001551037Y0002949040D01*
X0001551037Y0002949040D01*
G37*
D11*
X0001547795Y0002932322D03*
D10*
G36*
X0001589423Y0002910655D02*
G01*
X0001589709Y0002910612D01*
X0001589990Y0002910542D01*
X0001590263Y0002910444D01*
X0001590525Y0002910320D01*
X0001590774Y0002910171D01*
X0001591007Y0002909999D01*
X0001591221Y0002909804D01*
X0001591416Y0002909589D01*
X0001591588Y0002909357D01*
X0001591737Y0002909108D01*
X0001591861Y0002908846D01*
X0001591959Y0002908573D01*
X0001592029Y0002908292D01*
X0001592072Y0002908005D01*
X0001592086Y0002907716D01*
X0001592086Y0002901811D01*
X0001592072Y0002901521D01*
X0001592029Y0002901234D01*
X0001591959Y0002900953D01*
X0001591861Y0002900681D01*
X0001591737Y0002900419D01*
X0001591588Y0002900170D01*
X0001591416Y0002899937D01*
X0001591221Y0002899723D01*
X0001591007Y0002899528D01*
X0001590774Y0002899355D01*
X0001590525Y0002899206D01*
X0001590263Y0002899083D01*
X0001589990Y0002898985D01*
X0001589709Y0002898915D01*
X0001589423Y0002898872D01*
X0001589133Y0002898858D01*
X0001561574Y0002898858D01*
X0001561285Y0002898872D01*
X0001560998Y0002898915D01*
X0001560717Y0002898985D01*
X0001560444Y0002899083D01*
X0001560182Y0002899206D01*
X0001559934Y0002899355D01*
X0001559701Y0002899528D01*
X0001559486Y0002899723D01*
X0001559292Y0002899937D01*
X0001559119Y0002900170D01*
X0001558970Y0002900419D01*
X0001558846Y0002900681D01*
X0001558749Y0002900953D01*
X0001558678Y0002901234D01*
X0001558636Y0002901521D01*
X0001558622Y0002901811D01*
X0001558622Y0002907716D01*
X0001558636Y0002908005D01*
X0001558678Y0002908292D01*
X0001558749Y0002908573D01*
X0001558846Y0002908846D01*
X0001558970Y0002909108D01*
X0001559119Y0002909357D01*
X0001559292Y0002909589D01*
X0001559486Y0002909804D01*
X0001559701Y0002909999D01*
X0001559934Y0002910171D01*
X0001560182Y0002910320D01*
X0001560444Y0002910444D01*
X0001560717Y0002910542D01*
X0001560998Y0002910612D01*
X0001561285Y0002910655D01*
X0001561574Y0002910669D01*
X0001589133Y0002910669D01*
X0001589423Y0002910655D01*
X0001589423Y0002910655D01*
G37*
D11*
X0001575354Y0002904763D03*
D10*
G36*
X0001589423Y0002890970D02*
G01*
X0001589709Y0002890927D01*
X0001589990Y0002890857D01*
X0001590263Y0002890759D01*
X0001590525Y0002890635D01*
X0001590774Y0002890486D01*
X0001591007Y0002890314D01*
X0001591221Y0002890119D01*
X0001591416Y0002889904D01*
X0001591588Y0002889671D01*
X0001591737Y0002889423D01*
X0001591861Y0002889161D01*
X0001591959Y0002888888D01*
X0001592029Y0002888607D01*
X0001592072Y0002888320D01*
X0001592086Y0002888031D01*
X0001592086Y0002882125D01*
X0001592072Y0002881836D01*
X0001592029Y0002881549D01*
X0001591959Y0002881268D01*
X0001591861Y0002880996D01*
X0001591737Y0002880734D01*
X0001591588Y0002880485D01*
X0001591416Y0002880252D01*
X0001591221Y0002880038D01*
X0001591007Y0002879843D01*
X0001590774Y0002879670D01*
X0001590525Y0002879521D01*
X0001590263Y0002879397D01*
X0001589990Y0002879300D01*
X0001589709Y0002879229D01*
X0001589423Y0002879187D01*
X0001589133Y0002879173D01*
X0001561574Y0002879173D01*
X0001561285Y0002879187D01*
X0001560998Y0002879229D01*
X0001560717Y0002879300D01*
X0001560444Y0002879397D01*
X0001560182Y0002879521D01*
X0001559934Y0002879670D01*
X0001559701Y0002879843D01*
X0001559486Y0002880038D01*
X0001559292Y0002880252D01*
X0001559119Y0002880485D01*
X0001558970Y0002880734D01*
X0001558846Y0002880996D01*
X0001558749Y0002881268D01*
X0001558678Y0002881549D01*
X0001558636Y0002881836D01*
X0001558622Y0002882125D01*
X0001558622Y0002888031D01*
X0001558636Y0002888320D01*
X0001558678Y0002888607D01*
X0001558749Y0002888888D01*
X0001558846Y0002889161D01*
X0001558970Y0002889423D01*
X0001559119Y0002889671D01*
X0001559292Y0002889904D01*
X0001559486Y0002890119D01*
X0001559701Y0002890314D01*
X0001559934Y0002890486D01*
X0001560182Y0002890635D01*
X0001560444Y0002890759D01*
X0001560717Y0002890857D01*
X0001560998Y0002890927D01*
X0001561285Y0002890970D01*
X0001561574Y0002890984D01*
X0001589133Y0002890984D01*
X0001589423Y0002890970D01*
X0001589423Y0002890970D01*
G37*
D11*
X0001575354Y0002885078D03*
D10*
G36*
X0001589423Y0002871285D02*
G01*
X0001589709Y0002871242D01*
X0001589990Y0002871172D01*
X0001590263Y0002871074D01*
X0001590525Y0002870950D01*
X0001590774Y0002870801D01*
X0001591007Y0002870628D01*
X0001591221Y0002870434D01*
X0001591416Y0002870219D01*
X0001591588Y0002869986D01*
X0001591737Y0002869738D01*
X0001591861Y0002869476D01*
X0001591959Y0002869203D01*
X0001592029Y0002868922D01*
X0001592072Y0002868635D01*
X0001592086Y0002868346D01*
X0001592086Y0002862440D01*
X0001592072Y0002862151D01*
X0001592029Y0002861864D01*
X0001591959Y0002861583D01*
X0001591861Y0002861310D01*
X0001591737Y0002861049D01*
X0001591588Y0002860800D01*
X0001591416Y0002860567D01*
X0001591221Y0002860353D01*
X0001591007Y0002860158D01*
X0001590774Y0002859985D01*
X0001590525Y0002859836D01*
X0001590263Y0002859712D01*
X0001589990Y0002859615D01*
X0001589709Y0002859544D01*
X0001589423Y0002859502D01*
X0001589133Y0002859488D01*
X0001561574Y0002859488D01*
X0001561285Y0002859502D01*
X0001560998Y0002859544D01*
X0001560717Y0002859615D01*
X0001560444Y0002859712D01*
X0001560182Y0002859836D01*
X0001559934Y0002859985D01*
X0001559701Y0002860158D01*
X0001559486Y0002860353D01*
X0001559292Y0002860567D01*
X0001559119Y0002860800D01*
X0001558970Y0002861049D01*
X0001558846Y0002861310D01*
X0001558749Y0002861583D01*
X0001558678Y0002861864D01*
X0001558636Y0002862151D01*
X0001558622Y0002862440D01*
X0001558622Y0002868346D01*
X0001558636Y0002868635D01*
X0001558678Y0002868922D01*
X0001558749Y0002869203D01*
X0001558846Y0002869476D01*
X0001558970Y0002869738D01*
X0001559119Y0002869986D01*
X0001559292Y0002870219D01*
X0001559486Y0002870434D01*
X0001559701Y0002870628D01*
X0001559934Y0002870801D01*
X0001560182Y0002870950D01*
X0001560444Y0002871074D01*
X0001560717Y0002871172D01*
X0001560998Y0002871242D01*
X0001561285Y0002871285D01*
X0001561574Y0002871299D01*
X0001589133Y0002871299D01*
X0001589423Y0002871285D01*
X0001589423Y0002871285D01*
G37*
D11*
X0001575354Y0002865393D03*
D10*
G36*
X0001589423Y0002851599D02*
G01*
X0001589709Y0002851557D01*
X0001589990Y0002851487D01*
X0001590263Y0002851389D01*
X0001590525Y0002851265D01*
X0001590774Y0002851116D01*
X0001591007Y0002850943D01*
X0001591221Y0002850749D01*
X0001591416Y0002850534D01*
X0001591588Y0002850301D01*
X0001591737Y0002850053D01*
X0001591861Y0002849791D01*
X0001591959Y0002849518D01*
X0001592029Y0002849237D01*
X0001592072Y0002848950D01*
X0001592086Y0002848661D01*
X0001592086Y0002842755D01*
X0001592072Y0002842466D01*
X0001592029Y0002842179D01*
X0001591959Y0002841898D01*
X0001591861Y0002841625D01*
X0001591737Y0002841363D01*
X0001591588Y0002841115D01*
X0001591416Y0002840882D01*
X0001591221Y0002840667D01*
X0001591007Y0002840473D01*
X0001590774Y0002840300D01*
X0001590525Y0002840151D01*
X0001590263Y0002840027D01*
X0001589990Y0002839930D01*
X0001589709Y0002839859D01*
X0001589423Y0002839817D01*
X0001589133Y0002839803D01*
X0001561574Y0002839803D01*
X0001561285Y0002839817D01*
X0001560998Y0002839859D01*
X0001560717Y0002839930D01*
X0001560444Y0002840027D01*
X0001560182Y0002840151D01*
X0001559934Y0002840300D01*
X0001559701Y0002840473D01*
X0001559486Y0002840667D01*
X0001559292Y0002840882D01*
X0001559119Y0002841115D01*
X0001558970Y0002841363D01*
X0001558846Y0002841625D01*
X0001558749Y0002841898D01*
X0001558678Y0002842179D01*
X0001558636Y0002842466D01*
X0001558622Y0002842755D01*
X0001558622Y0002848661D01*
X0001558636Y0002848950D01*
X0001558678Y0002849237D01*
X0001558749Y0002849518D01*
X0001558846Y0002849791D01*
X0001558970Y0002850053D01*
X0001559119Y0002850301D01*
X0001559292Y0002850534D01*
X0001559486Y0002850749D01*
X0001559701Y0002850943D01*
X0001559934Y0002851116D01*
X0001560182Y0002851265D01*
X0001560444Y0002851389D01*
X0001560717Y0002851487D01*
X0001560998Y0002851557D01*
X0001561285Y0002851599D01*
X0001561574Y0002851614D01*
X0001589133Y0002851614D01*
X0001589423Y0002851599D01*
X0001589423Y0002851599D01*
G37*
D11*
X0001575354Y0002845708D03*
D10*
G36*
X0001589423Y0002831914D02*
G01*
X0001589709Y0002831872D01*
X0001589990Y0002831802D01*
X0001590263Y0002831704D01*
X0001590525Y0002831580D01*
X0001590774Y0002831431D01*
X0001591007Y0002831258D01*
X0001591221Y0002831064D01*
X0001591416Y0002830849D01*
X0001591588Y0002830616D01*
X0001591737Y0002830368D01*
X0001591861Y0002830106D01*
X0001591959Y0002829833D01*
X0001592029Y0002829552D01*
X0001592072Y0002829265D01*
X0001592086Y0002828976D01*
X0001592086Y0002823070D01*
X0001592072Y0002822781D01*
X0001592029Y0002822494D01*
X0001591959Y0002822213D01*
X0001591861Y0002821940D01*
X0001591737Y0002821678D01*
X0001591588Y0002821430D01*
X0001591416Y0002821197D01*
X0001591221Y0002820982D01*
X0001591007Y0002820788D01*
X0001590774Y0002820615D01*
X0001590525Y0002820466D01*
X0001590263Y0002820342D01*
X0001589990Y0002820245D01*
X0001589709Y0002820174D01*
X0001589423Y0002820132D01*
X0001589133Y0002820118D01*
X0001561574Y0002820118D01*
X0001561285Y0002820132D01*
X0001560998Y0002820174D01*
X0001560717Y0002820245D01*
X0001560444Y0002820342D01*
X0001560182Y0002820466D01*
X0001559934Y0002820615D01*
X0001559701Y0002820788D01*
X0001559486Y0002820982D01*
X0001559292Y0002821197D01*
X0001559119Y0002821430D01*
X0001558970Y0002821678D01*
X0001558846Y0002821940D01*
X0001558749Y0002822213D01*
X0001558678Y0002822494D01*
X0001558636Y0002822781D01*
X0001558622Y0002823070D01*
X0001558622Y0002828976D01*
X0001558636Y0002829265D01*
X0001558678Y0002829552D01*
X0001558749Y0002829833D01*
X0001558846Y0002830106D01*
X0001558970Y0002830368D01*
X0001559119Y0002830616D01*
X0001559292Y0002830849D01*
X0001559486Y0002831064D01*
X0001559701Y0002831258D01*
X0001559934Y0002831431D01*
X0001560182Y0002831580D01*
X0001560444Y0002831704D01*
X0001560717Y0002831802D01*
X0001560998Y0002831872D01*
X0001561285Y0002831914D01*
X0001561574Y0002831929D01*
X0001589133Y0002831929D01*
X0001589423Y0002831914D01*
X0001589423Y0002831914D01*
G37*
D11*
X0001575354Y0002826023D03*
D10*
G36*
X0001589423Y0002812229D02*
G01*
X0001589709Y0002812187D01*
X0001589990Y0002812116D01*
X0001590263Y0002812019D01*
X0001590525Y0002811895D01*
X0001590774Y0002811746D01*
X0001591007Y0002811573D01*
X0001591221Y0002811379D01*
X0001591416Y0002811164D01*
X0001591588Y0002810931D01*
X0001591737Y0002810683D01*
X0001591861Y0002810421D01*
X0001591959Y0002810148D01*
X0001592029Y0002809867D01*
X0001592072Y0002809580D01*
X0001592086Y0002809291D01*
X0001592086Y0002803385D01*
X0001592072Y0002803096D01*
X0001592029Y0002802809D01*
X0001591959Y0002802528D01*
X0001591861Y0002802255D01*
X0001591737Y0002801993D01*
X0001591588Y0002801745D01*
X0001591416Y0002801512D01*
X0001591221Y0002801297D01*
X0001591007Y0002801103D01*
X0001590774Y0002800930D01*
X0001590525Y0002800781D01*
X0001590263Y0002800657D01*
X0001589990Y0002800560D01*
X0001589709Y0002800489D01*
X0001589423Y0002800447D01*
X0001589133Y0002800433D01*
X0001561574Y0002800433D01*
X0001561285Y0002800447D01*
X0001560998Y0002800489D01*
X0001560717Y0002800560D01*
X0001560444Y0002800657D01*
X0001560182Y0002800781D01*
X0001559934Y0002800930D01*
X0001559701Y0002801103D01*
X0001559486Y0002801297D01*
X0001559292Y0002801512D01*
X0001559119Y0002801745D01*
X0001558970Y0002801993D01*
X0001558846Y0002802255D01*
X0001558749Y0002802528D01*
X0001558678Y0002802809D01*
X0001558636Y0002803096D01*
X0001558622Y0002803385D01*
X0001558622Y0002809291D01*
X0001558636Y0002809580D01*
X0001558678Y0002809867D01*
X0001558749Y0002810148D01*
X0001558846Y0002810421D01*
X0001558970Y0002810683D01*
X0001559119Y0002810931D01*
X0001559292Y0002811164D01*
X0001559486Y0002811379D01*
X0001559701Y0002811573D01*
X0001559934Y0002811746D01*
X0001560182Y0002811895D01*
X0001560444Y0002812019D01*
X0001560717Y0002812116D01*
X0001560998Y0002812187D01*
X0001561285Y0002812229D01*
X0001561574Y0002812244D01*
X0001589133Y0002812244D01*
X0001589423Y0002812229D01*
X0001589423Y0002812229D01*
G37*
D11*
X0001575354Y0002806338D03*
D10*
G36*
X0001551037Y0002795497D02*
G01*
X0001551324Y0002795455D01*
X0001551605Y0002795384D01*
X0001551877Y0002795287D01*
X0001552139Y0002795163D01*
X0001552388Y0002795014D01*
X0001552621Y0002794841D01*
X0001552835Y0002794646D01*
X0001553030Y0002794432D01*
X0001553203Y0002794199D01*
X0001553352Y0002793950D01*
X0001553476Y0002793689D01*
X0001553573Y0002793416D01*
X0001553644Y0002793135D01*
X0001553686Y0002792848D01*
X0001553700Y0002792559D01*
X0001553700Y0002765000D01*
X0001553686Y0002764710D01*
X0001553644Y0002764423D01*
X0001553573Y0002764142D01*
X0001553476Y0002763870D01*
X0001553352Y0002763608D01*
X0001553203Y0002763359D01*
X0001553030Y0002763126D01*
X0001552835Y0002762912D01*
X0001552621Y0002762717D01*
X0001552388Y0002762544D01*
X0001552139Y0002762395D01*
X0001551877Y0002762272D01*
X0001551605Y0002762174D01*
X0001551324Y0002762103D01*
X0001551037Y0002762061D01*
X0001550748Y0002762047D01*
X0001544842Y0002762047D01*
X0001544553Y0002762061D01*
X0001544266Y0002762103D01*
X0001543985Y0002762174D01*
X0001543712Y0002762272D01*
X0001543450Y0002762395D01*
X0001543202Y0002762544D01*
X0001542969Y0002762717D01*
X0001542754Y0002762912D01*
X0001542560Y0002763126D01*
X0001542387Y0002763359D01*
X0001542238Y0002763608D01*
X0001542114Y0002763870D01*
X0001542016Y0002764142D01*
X0001541946Y0002764423D01*
X0001541903Y0002764710D01*
X0001541889Y0002765000D01*
X0001541889Y0002792559D01*
X0001541903Y0002792848D01*
X0001541946Y0002793135D01*
X0001542016Y0002793416D01*
X0001542114Y0002793689D01*
X0001542238Y0002793950D01*
X0001542387Y0002794199D01*
X0001542560Y0002794432D01*
X0001542754Y0002794646D01*
X0001542969Y0002794841D01*
X0001543202Y0002795014D01*
X0001543450Y0002795163D01*
X0001543712Y0002795287D01*
X0001543985Y0002795384D01*
X0001544266Y0002795455D01*
X0001544553Y0002795497D01*
X0001544842Y0002795511D01*
X0001550748Y0002795511D01*
X0001551037Y0002795497D01*
X0001551037Y0002795497D01*
G37*
D11*
X0001547795Y0002778779D03*
D10*
G36*
X0001531352Y0002795497D02*
G01*
X0001531639Y0002795455D01*
X0001531920Y0002795384D01*
X0001532192Y0002795287D01*
X0001532454Y0002795163D01*
X0001532703Y0002795014D01*
X0001532936Y0002794841D01*
X0001533150Y0002794646D01*
X0001533345Y0002794432D01*
X0001533518Y0002794199D01*
X0001533667Y0002793950D01*
X0001533790Y0002793689D01*
X0001533888Y0002793416D01*
X0001533959Y0002793135D01*
X0001534001Y0002792848D01*
X0001534015Y0002792559D01*
X0001534015Y0002765000D01*
X0001534001Y0002764710D01*
X0001533959Y0002764423D01*
X0001533888Y0002764142D01*
X0001533790Y0002763870D01*
X0001533667Y0002763608D01*
X0001533518Y0002763359D01*
X0001533345Y0002763126D01*
X0001533150Y0002762912D01*
X0001532936Y0002762717D01*
X0001532703Y0002762544D01*
X0001532454Y0002762395D01*
X0001532192Y0002762272D01*
X0001531920Y0002762174D01*
X0001531639Y0002762103D01*
X0001531352Y0002762061D01*
X0001531062Y0002762047D01*
X0001525157Y0002762047D01*
X0001524868Y0002762061D01*
X0001524581Y0002762103D01*
X0001524300Y0002762174D01*
X0001524027Y0002762272D01*
X0001523765Y0002762395D01*
X0001523516Y0002762544D01*
X0001523284Y0002762717D01*
X0001523069Y0002762912D01*
X0001522874Y0002763126D01*
X0001522702Y0002763359D01*
X0001522553Y0002763608D01*
X0001522429Y0002763870D01*
X0001522331Y0002764142D01*
X0001522261Y0002764423D01*
X0001522218Y0002764710D01*
X0001522204Y0002765000D01*
X0001522204Y0002792559D01*
X0001522218Y0002792848D01*
X0001522261Y0002793135D01*
X0001522331Y0002793416D01*
X0001522429Y0002793689D01*
X0001522553Y0002793950D01*
X0001522702Y0002794199D01*
X0001522874Y0002794432D01*
X0001523069Y0002794646D01*
X0001523284Y0002794841D01*
X0001523516Y0002795014D01*
X0001523765Y0002795163D01*
X0001524027Y0002795287D01*
X0001524300Y0002795384D01*
X0001524581Y0002795455D01*
X0001524868Y0002795497D01*
X0001525157Y0002795511D01*
X0001531062Y0002795511D01*
X0001531352Y0002795497D01*
X0001531352Y0002795497D01*
G37*
D11*
X0001528110Y0002778779D03*
D10*
G36*
X0001511667Y0002795497D02*
G01*
X0001511953Y0002795455D01*
X0001512235Y0002795384D01*
X0001512507Y0002795287D01*
X0001512769Y0002795163D01*
X0001513018Y0002795014D01*
X0001513251Y0002794841D01*
X0001513465Y0002794646D01*
X0001513660Y0002794432D01*
X0001513833Y0002794199D01*
X0001513982Y0002793950D01*
X0001514105Y0002793689D01*
X0001514203Y0002793416D01*
X0001514273Y0002793135D01*
X0001514316Y0002792848D01*
X0001514330Y0002792559D01*
X0001514330Y0002765000D01*
X0001514316Y0002764710D01*
X0001514273Y0002764423D01*
X0001514203Y0002764142D01*
X0001514105Y0002763870D01*
X0001513982Y0002763608D01*
X0001513833Y0002763359D01*
X0001513660Y0002763126D01*
X0001513465Y0002762912D01*
X0001513251Y0002762717D01*
X0001513018Y0002762544D01*
X0001512769Y0002762395D01*
X0001512507Y0002762272D01*
X0001512235Y0002762174D01*
X0001511953Y0002762103D01*
X0001511667Y0002762061D01*
X0001511377Y0002762047D01*
X0001505472Y0002762047D01*
X0001505183Y0002762061D01*
X0001504896Y0002762103D01*
X0001504615Y0002762174D01*
X0001504342Y0002762272D01*
X0001504080Y0002762395D01*
X0001503831Y0002762544D01*
X0001503599Y0002762717D01*
X0001503384Y0002762912D01*
X0001503189Y0002763126D01*
X0001503017Y0002763359D01*
X0001502868Y0002763608D01*
X0001502744Y0002763870D01*
X0001502646Y0002764142D01*
X0001502576Y0002764423D01*
X0001502533Y0002764710D01*
X0001502519Y0002765000D01*
X0001502519Y0002792559D01*
X0001502533Y0002792848D01*
X0001502576Y0002793135D01*
X0001502646Y0002793416D01*
X0001502744Y0002793689D01*
X0001502868Y0002793950D01*
X0001503017Y0002794199D01*
X0001503189Y0002794432D01*
X0001503384Y0002794646D01*
X0001503599Y0002794841D01*
X0001503831Y0002795014D01*
X0001504080Y0002795163D01*
X0001504342Y0002795287D01*
X0001504615Y0002795384D01*
X0001504896Y0002795455D01*
X0001505183Y0002795497D01*
X0001505472Y0002795511D01*
X0001511377Y0002795511D01*
X0001511667Y0002795497D01*
X0001511667Y0002795497D01*
G37*
D11*
X0001508425Y0002778779D03*
D10*
G36*
X0001491982Y0002795497D02*
G01*
X0001492268Y0002795455D01*
X0001492550Y0002795384D01*
X0001492822Y0002795287D01*
X0001493084Y0002795163D01*
X0001493333Y0002795014D01*
X0001493566Y0002794841D01*
X0001493780Y0002794646D01*
X0001493975Y0002794432D01*
X0001494147Y0002794199D01*
X0001494296Y0002793950D01*
X0001494420Y0002793689D01*
X0001494518Y0002793416D01*
X0001494588Y0002793135D01*
X0001494631Y0002792848D01*
X0001494645Y0002792559D01*
X0001494645Y0002765000D01*
X0001494631Y0002764710D01*
X0001494588Y0002764423D01*
X0001494518Y0002764142D01*
X0001494420Y0002763870D01*
X0001494296Y0002763608D01*
X0001494147Y0002763359D01*
X0001493975Y0002763126D01*
X0001493780Y0002762912D01*
X0001493566Y0002762717D01*
X0001493333Y0002762544D01*
X0001493084Y0002762395D01*
X0001492822Y0002762272D01*
X0001492550Y0002762174D01*
X0001492268Y0002762103D01*
X0001491982Y0002762061D01*
X0001491692Y0002762047D01*
X0001485787Y0002762047D01*
X0001485497Y0002762061D01*
X0001485211Y0002762103D01*
X0001484930Y0002762174D01*
X0001484657Y0002762272D01*
X0001484395Y0002762395D01*
X0001484146Y0002762544D01*
X0001483914Y0002762717D01*
X0001483699Y0002762912D01*
X0001483504Y0002763126D01*
X0001483332Y0002763359D01*
X0001483183Y0002763608D01*
X0001483059Y0002763870D01*
X0001482961Y0002764142D01*
X0001482891Y0002764423D01*
X0001482848Y0002764710D01*
X0001482834Y0002765000D01*
X0001482834Y0002792559D01*
X0001482848Y0002792848D01*
X0001482891Y0002793135D01*
X0001482961Y0002793416D01*
X0001483059Y0002793689D01*
X0001483183Y0002793950D01*
X0001483332Y0002794199D01*
X0001483504Y0002794432D01*
X0001483699Y0002794646D01*
X0001483914Y0002794841D01*
X0001484146Y0002795014D01*
X0001484395Y0002795163D01*
X0001484657Y0002795287D01*
X0001484930Y0002795384D01*
X0001485211Y0002795455D01*
X0001485497Y0002795497D01*
X0001485787Y0002795511D01*
X0001491692Y0002795511D01*
X0001491982Y0002795497D01*
X0001491982Y0002795497D01*
G37*
D11*
X0001488740Y0002778779D03*
D10*
G36*
X0001472297Y0002795497D02*
G01*
X0001472583Y0002795455D01*
X0001472864Y0002795384D01*
X0001473137Y0002795287D01*
X0001473399Y0002795163D01*
X0001473648Y0002795014D01*
X0001473881Y0002794841D01*
X0001474095Y0002794646D01*
X0001474290Y0002794432D01*
X0001474462Y0002794199D01*
X0001474611Y0002793950D01*
X0001474735Y0002793689D01*
X0001474833Y0002793416D01*
X0001474903Y0002793135D01*
X0001474946Y0002792848D01*
X0001474960Y0002792559D01*
X0001474960Y0002765000D01*
X0001474946Y0002764710D01*
X0001474903Y0002764423D01*
X0001474833Y0002764142D01*
X0001474735Y0002763870D01*
X0001474611Y0002763608D01*
X0001474462Y0002763359D01*
X0001474290Y0002763126D01*
X0001474095Y0002762912D01*
X0001473881Y0002762717D01*
X0001473648Y0002762544D01*
X0001473399Y0002762395D01*
X0001473137Y0002762272D01*
X0001472864Y0002762174D01*
X0001472583Y0002762103D01*
X0001472297Y0002762061D01*
X0001472007Y0002762047D01*
X0001466102Y0002762047D01*
X0001465812Y0002762061D01*
X0001465526Y0002762103D01*
X0001465245Y0002762174D01*
X0001464972Y0002762272D01*
X0001464710Y0002762395D01*
X0001464461Y0002762544D01*
X0001464229Y0002762717D01*
X0001464014Y0002762912D01*
X0001463819Y0002763126D01*
X0001463647Y0002763359D01*
X0001463498Y0002763608D01*
X0001463374Y0002763870D01*
X0001463276Y0002764142D01*
X0001463206Y0002764423D01*
X0001463163Y0002764710D01*
X0001463149Y0002765000D01*
X0001463149Y0002792559D01*
X0001463163Y0002792848D01*
X0001463206Y0002793135D01*
X0001463276Y0002793416D01*
X0001463374Y0002793689D01*
X0001463498Y0002793950D01*
X0001463647Y0002794199D01*
X0001463819Y0002794432D01*
X0001464014Y0002794646D01*
X0001464229Y0002794841D01*
X0001464461Y0002795014D01*
X0001464710Y0002795163D01*
X0001464972Y0002795287D01*
X0001465245Y0002795384D01*
X0001465526Y0002795455D01*
X0001465812Y0002795497D01*
X0001466102Y0002795511D01*
X0001472007Y0002795511D01*
X0001472297Y0002795497D01*
X0001472297Y0002795497D01*
G37*
D11*
X0001469055Y0002778779D03*
D10*
G36*
X0001452612Y0002795497D02*
G01*
X0001452898Y0002795455D01*
X0001453179Y0002795384D01*
X0001453452Y0002795287D01*
X0001453714Y0002795163D01*
X0001453963Y0002795014D01*
X0001454195Y0002794841D01*
X0001454410Y0002794646D01*
X0001454605Y0002794432D01*
X0001454777Y0002794199D01*
X0001454926Y0002793950D01*
X0001455050Y0002793689D01*
X0001455148Y0002793416D01*
X0001455218Y0002793135D01*
X0001455261Y0002792848D01*
X0001455275Y0002792559D01*
X0001455275Y0002765000D01*
X0001455261Y0002764710D01*
X0001455218Y0002764423D01*
X0001455148Y0002764142D01*
X0001455050Y0002763870D01*
X0001454926Y0002763608D01*
X0001454777Y0002763359D01*
X0001454605Y0002763126D01*
X0001454410Y0002762912D01*
X0001454195Y0002762717D01*
X0001453963Y0002762544D01*
X0001453714Y0002762395D01*
X0001453452Y0002762272D01*
X0001453179Y0002762174D01*
X0001452898Y0002762103D01*
X0001452612Y0002762061D01*
X0001452322Y0002762047D01*
X0001446417Y0002762047D01*
X0001446127Y0002762061D01*
X0001445841Y0002762103D01*
X0001445560Y0002762174D01*
X0001445287Y0002762272D01*
X0001445025Y0002762395D01*
X0001444776Y0002762544D01*
X0001444544Y0002762717D01*
X0001444329Y0002762912D01*
X0001444134Y0002763126D01*
X0001443962Y0002763359D01*
X0001443813Y0002763608D01*
X0001443689Y0002763870D01*
X0001443591Y0002764142D01*
X0001443521Y0002764423D01*
X0001443478Y0002764710D01*
X0001443464Y0002765000D01*
X0001443464Y0002792559D01*
X0001443478Y0002792848D01*
X0001443521Y0002793135D01*
X0001443591Y0002793416D01*
X0001443689Y0002793689D01*
X0001443813Y0002793950D01*
X0001443962Y0002794199D01*
X0001444134Y0002794432D01*
X0001444329Y0002794646D01*
X0001444544Y0002794841D01*
X0001444776Y0002795014D01*
X0001445025Y0002795163D01*
X0001445287Y0002795287D01*
X0001445560Y0002795384D01*
X0001445841Y0002795455D01*
X0001446127Y0002795497D01*
X0001446417Y0002795511D01*
X0001452322Y0002795511D01*
X0001452612Y0002795497D01*
X0001452612Y0002795497D01*
G37*
D11*
X0001449370Y0002778779D03*
D10*
G36*
X0001435879Y0002812229D02*
G01*
X0001436166Y0002812187D01*
X0001436447Y0002812116D01*
X0001436720Y0002812019D01*
X0001436982Y0002811895D01*
X0001437230Y0002811746D01*
X0001437463Y0002811573D01*
X0001437678Y0002811379D01*
X0001437873Y0002811164D01*
X0001438045Y0002810931D01*
X0001438194Y0002810683D01*
X0001438318Y0002810421D01*
X0001438416Y0002810148D01*
X0001438486Y0002809867D01*
X0001438529Y0002809580D01*
X0001438543Y0002809291D01*
X0001438543Y0002803385D01*
X0001438529Y0002803096D01*
X0001438486Y0002802809D01*
X0001438416Y0002802528D01*
X0001438318Y0002802255D01*
X0001438194Y0002801993D01*
X0001438045Y0002801745D01*
X0001437873Y0002801512D01*
X0001437678Y0002801297D01*
X0001437463Y0002801103D01*
X0001437230Y0002800930D01*
X0001436982Y0002800781D01*
X0001436720Y0002800657D01*
X0001436447Y0002800560D01*
X0001436166Y0002800489D01*
X0001435879Y0002800447D01*
X0001435590Y0002800433D01*
X0001408031Y0002800433D01*
X0001407742Y0002800447D01*
X0001407455Y0002800489D01*
X0001407174Y0002800560D01*
X0001406901Y0002800657D01*
X0001406639Y0002800781D01*
X0001406390Y0002800930D01*
X0001406158Y0002801103D01*
X0001405943Y0002801297D01*
X0001405748Y0002801512D01*
X0001405576Y0002801745D01*
X0001405427Y0002801993D01*
X0001405303Y0002802255D01*
X0001405205Y0002802528D01*
X0001405135Y0002802809D01*
X0001405092Y0002803096D01*
X0001405078Y0002803385D01*
X0001405078Y0002809291D01*
X0001405092Y0002809580D01*
X0001405135Y0002809867D01*
X0001405205Y0002810148D01*
X0001405303Y0002810421D01*
X0001405427Y0002810683D01*
X0001405576Y0002810931D01*
X0001405748Y0002811164D01*
X0001405943Y0002811379D01*
X0001406158Y0002811573D01*
X0001406390Y0002811746D01*
X0001406639Y0002811895D01*
X0001406901Y0002812019D01*
X0001407174Y0002812116D01*
X0001407455Y0002812187D01*
X0001407742Y0002812229D01*
X0001408031Y0002812244D01*
X0001435590Y0002812244D01*
X0001435879Y0002812229D01*
X0001435879Y0002812229D01*
G37*
D11*
X0001421811Y0002806338D03*
D10*
G36*
X0001435879Y0002831914D02*
G01*
X0001436166Y0002831872D01*
X0001436447Y0002831802D01*
X0001436720Y0002831704D01*
X0001436982Y0002831580D01*
X0001437230Y0002831431D01*
X0001437463Y0002831258D01*
X0001437678Y0002831064D01*
X0001437873Y0002830849D01*
X0001438045Y0002830616D01*
X0001438194Y0002830368D01*
X0001438318Y0002830106D01*
X0001438416Y0002829833D01*
X0001438486Y0002829552D01*
X0001438529Y0002829265D01*
X0001438543Y0002828976D01*
X0001438543Y0002823070D01*
X0001438529Y0002822781D01*
X0001438486Y0002822494D01*
X0001438416Y0002822213D01*
X0001438318Y0002821940D01*
X0001438194Y0002821678D01*
X0001438045Y0002821430D01*
X0001437873Y0002821197D01*
X0001437678Y0002820982D01*
X0001437463Y0002820788D01*
X0001437230Y0002820615D01*
X0001436982Y0002820466D01*
X0001436720Y0002820342D01*
X0001436447Y0002820245D01*
X0001436166Y0002820174D01*
X0001435879Y0002820132D01*
X0001435590Y0002820118D01*
X0001408031Y0002820118D01*
X0001407742Y0002820132D01*
X0001407455Y0002820174D01*
X0001407174Y0002820245D01*
X0001406901Y0002820342D01*
X0001406639Y0002820466D01*
X0001406390Y0002820615D01*
X0001406158Y0002820788D01*
X0001405943Y0002820982D01*
X0001405748Y0002821197D01*
X0001405576Y0002821430D01*
X0001405427Y0002821678D01*
X0001405303Y0002821940D01*
X0001405205Y0002822213D01*
X0001405135Y0002822494D01*
X0001405092Y0002822781D01*
X0001405078Y0002823070D01*
X0001405078Y0002828976D01*
X0001405092Y0002829265D01*
X0001405135Y0002829552D01*
X0001405205Y0002829833D01*
X0001405303Y0002830106D01*
X0001405427Y0002830368D01*
X0001405576Y0002830616D01*
X0001405748Y0002830849D01*
X0001405943Y0002831064D01*
X0001406158Y0002831258D01*
X0001406390Y0002831431D01*
X0001406639Y0002831580D01*
X0001406901Y0002831704D01*
X0001407174Y0002831802D01*
X0001407455Y0002831872D01*
X0001407742Y0002831914D01*
X0001408031Y0002831929D01*
X0001435590Y0002831929D01*
X0001435879Y0002831914D01*
X0001435879Y0002831914D01*
G37*
D11*
X0001421811Y0002826023D03*
D10*
G36*
X0001435879Y0002851599D02*
G01*
X0001436166Y0002851557D01*
X0001436447Y0002851487D01*
X0001436720Y0002851389D01*
X0001436982Y0002851265D01*
X0001437230Y0002851116D01*
X0001437463Y0002850943D01*
X0001437678Y0002850749D01*
X0001437873Y0002850534D01*
X0001438045Y0002850301D01*
X0001438194Y0002850053D01*
X0001438318Y0002849791D01*
X0001438416Y0002849518D01*
X0001438486Y0002849237D01*
X0001438529Y0002848950D01*
X0001438543Y0002848661D01*
X0001438543Y0002842755D01*
X0001438529Y0002842466D01*
X0001438486Y0002842179D01*
X0001438416Y0002841898D01*
X0001438318Y0002841625D01*
X0001438194Y0002841363D01*
X0001438045Y0002841115D01*
X0001437873Y0002840882D01*
X0001437678Y0002840667D01*
X0001437463Y0002840473D01*
X0001437230Y0002840300D01*
X0001436982Y0002840151D01*
X0001436720Y0002840027D01*
X0001436447Y0002839930D01*
X0001436166Y0002839859D01*
X0001435879Y0002839817D01*
X0001435590Y0002839803D01*
X0001408031Y0002839803D01*
X0001407742Y0002839817D01*
X0001407455Y0002839859D01*
X0001407174Y0002839930D01*
X0001406901Y0002840027D01*
X0001406639Y0002840151D01*
X0001406390Y0002840300D01*
X0001406158Y0002840473D01*
X0001405943Y0002840667D01*
X0001405748Y0002840882D01*
X0001405576Y0002841115D01*
X0001405427Y0002841363D01*
X0001405303Y0002841625D01*
X0001405205Y0002841898D01*
X0001405135Y0002842179D01*
X0001405092Y0002842466D01*
X0001405078Y0002842755D01*
X0001405078Y0002848661D01*
X0001405092Y0002848950D01*
X0001405135Y0002849237D01*
X0001405205Y0002849518D01*
X0001405303Y0002849791D01*
X0001405427Y0002850053D01*
X0001405576Y0002850301D01*
X0001405748Y0002850534D01*
X0001405943Y0002850749D01*
X0001406158Y0002850943D01*
X0001406390Y0002851116D01*
X0001406639Y0002851265D01*
X0001406901Y0002851389D01*
X0001407174Y0002851487D01*
X0001407455Y0002851557D01*
X0001407742Y0002851599D01*
X0001408031Y0002851614D01*
X0001435590Y0002851614D01*
X0001435879Y0002851599D01*
X0001435879Y0002851599D01*
G37*
D11*
X0001421811Y0002845708D03*
D10*
G36*
X0001435879Y0002871285D02*
G01*
X0001436166Y0002871242D01*
X0001436447Y0002871172D01*
X0001436720Y0002871074D01*
X0001436982Y0002870950D01*
X0001437230Y0002870801D01*
X0001437463Y0002870628D01*
X0001437678Y0002870434D01*
X0001437873Y0002870219D01*
X0001438045Y0002869986D01*
X0001438194Y0002869738D01*
X0001438318Y0002869476D01*
X0001438416Y0002869203D01*
X0001438486Y0002868922D01*
X0001438529Y0002868635D01*
X0001438543Y0002868346D01*
X0001438543Y0002862440D01*
X0001438529Y0002862151D01*
X0001438486Y0002861864D01*
X0001438416Y0002861583D01*
X0001438318Y0002861310D01*
X0001438194Y0002861049D01*
X0001438045Y0002860800D01*
X0001437873Y0002860567D01*
X0001437678Y0002860353D01*
X0001437463Y0002860158D01*
X0001437230Y0002859985D01*
X0001436982Y0002859836D01*
X0001436720Y0002859712D01*
X0001436447Y0002859615D01*
X0001436166Y0002859544D01*
X0001435879Y0002859502D01*
X0001435590Y0002859488D01*
X0001408031Y0002859488D01*
X0001407742Y0002859502D01*
X0001407455Y0002859544D01*
X0001407174Y0002859615D01*
X0001406901Y0002859712D01*
X0001406639Y0002859836D01*
X0001406390Y0002859985D01*
X0001406158Y0002860158D01*
X0001405943Y0002860353D01*
X0001405748Y0002860567D01*
X0001405576Y0002860800D01*
X0001405427Y0002861049D01*
X0001405303Y0002861310D01*
X0001405205Y0002861583D01*
X0001405135Y0002861864D01*
X0001405092Y0002862151D01*
X0001405078Y0002862440D01*
X0001405078Y0002868346D01*
X0001405092Y0002868635D01*
X0001405135Y0002868922D01*
X0001405205Y0002869203D01*
X0001405303Y0002869476D01*
X0001405427Y0002869738D01*
X0001405576Y0002869986D01*
X0001405748Y0002870219D01*
X0001405943Y0002870434D01*
X0001406158Y0002870628D01*
X0001406390Y0002870801D01*
X0001406639Y0002870950D01*
X0001406901Y0002871074D01*
X0001407174Y0002871172D01*
X0001407455Y0002871242D01*
X0001407742Y0002871285D01*
X0001408031Y0002871299D01*
X0001435590Y0002871299D01*
X0001435879Y0002871285D01*
X0001435879Y0002871285D01*
G37*
D11*
X0001421811Y0002865393D03*
D10*
G36*
X0001435879Y0002890970D02*
G01*
X0001436166Y0002890927D01*
X0001436447Y0002890857D01*
X0001436720Y0002890759D01*
X0001436982Y0002890635D01*
X0001437230Y0002890486D01*
X0001437463Y0002890314D01*
X0001437678Y0002890119D01*
X0001437873Y0002889904D01*
X0001438045Y0002889671D01*
X0001438194Y0002889423D01*
X0001438318Y0002889161D01*
X0001438416Y0002888888D01*
X0001438486Y0002888607D01*
X0001438529Y0002888320D01*
X0001438543Y0002888031D01*
X0001438543Y0002882125D01*
X0001438529Y0002881836D01*
X0001438486Y0002881549D01*
X0001438416Y0002881268D01*
X0001438318Y0002880996D01*
X0001438194Y0002880734D01*
X0001438045Y0002880485D01*
X0001437873Y0002880252D01*
X0001437678Y0002880038D01*
X0001437463Y0002879843D01*
X0001437230Y0002879670D01*
X0001436982Y0002879521D01*
X0001436720Y0002879397D01*
X0001436447Y0002879300D01*
X0001436166Y0002879229D01*
X0001435879Y0002879187D01*
X0001435590Y0002879173D01*
X0001408031Y0002879173D01*
X0001407742Y0002879187D01*
X0001407455Y0002879229D01*
X0001407174Y0002879300D01*
X0001406901Y0002879397D01*
X0001406639Y0002879521D01*
X0001406390Y0002879670D01*
X0001406158Y0002879843D01*
X0001405943Y0002880038D01*
X0001405748Y0002880252D01*
X0001405576Y0002880485D01*
X0001405427Y0002880734D01*
X0001405303Y0002880996D01*
X0001405205Y0002881268D01*
X0001405135Y0002881549D01*
X0001405092Y0002881836D01*
X0001405078Y0002882125D01*
X0001405078Y0002888031D01*
X0001405092Y0002888320D01*
X0001405135Y0002888607D01*
X0001405205Y0002888888D01*
X0001405303Y0002889161D01*
X0001405427Y0002889423D01*
X0001405576Y0002889671D01*
X0001405748Y0002889904D01*
X0001405943Y0002890119D01*
X0001406158Y0002890314D01*
X0001406390Y0002890486D01*
X0001406639Y0002890635D01*
X0001406901Y0002890759D01*
X0001407174Y0002890857D01*
X0001407455Y0002890927D01*
X0001407742Y0002890970D01*
X0001408031Y0002890984D01*
X0001435590Y0002890984D01*
X0001435879Y0002890970D01*
X0001435879Y0002890970D01*
G37*
D11*
X0001421811Y0002885078D03*
D10*
G36*
X0001435879Y0002910655D02*
G01*
X0001436166Y0002910612D01*
X0001436447Y0002910542D01*
X0001436720Y0002910444D01*
X0001436982Y0002910320D01*
X0001437230Y0002910171D01*
X0001437463Y0002909999D01*
X0001437678Y0002909804D01*
X0001437873Y0002909589D01*
X0001438045Y0002909357D01*
X0001438194Y0002909108D01*
X0001438318Y0002908846D01*
X0001438416Y0002908573D01*
X0001438486Y0002908292D01*
X0001438529Y0002908005D01*
X0001438543Y0002907716D01*
X0001438543Y0002901811D01*
X0001438529Y0002901521D01*
X0001438486Y0002901234D01*
X0001438416Y0002900953D01*
X0001438318Y0002900681D01*
X0001438194Y0002900419D01*
X0001438045Y0002900170D01*
X0001437873Y0002899937D01*
X0001437678Y0002899723D01*
X0001437463Y0002899528D01*
X0001437230Y0002899355D01*
X0001436982Y0002899206D01*
X0001436720Y0002899083D01*
X0001436447Y0002898985D01*
X0001436166Y0002898915D01*
X0001435879Y0002898872D01*
X0001435590Y0002898858D01*
X0001408031Y0002898858D01*
X0001407742Y0002898872D01*
X0001407455Y0002898915D01*
X0001407174Y0002898985D01*
X0001406901Y0002899083D01*
X0001406639Y0002899206D01*
X0001406390Y0002899355D01*
X0001406158Y0002899528D01*
X0001405943Y0002899723D01*
X0001405748Y0002899937D01*
X0001405576Y0002900170D01*
X0001405427Y0002900419D01*
X0001405303Y0002900681D01*
X0001405205Y0002900953D01*
X0001405135Y0002901234D01*
X0001405092Y0002901521D01*
X0001405078Y0002901811D01*
X0001405078Y0002907716D01*
X0001405092Y0002908005D01*
X0001405135Y0002908292D01*
X0001405205Y0002908573D01*
X0001405303Y0002908846D01*
X0001405427Y0002909108D01*
X0001405576Y0002909357D01*
X0001405748Y0002909589D01*
X0001405943Y0002909804D01*
X0001406158Y0002909999D01*
X0001406390Y0002910171D01*
X0001406639Y0002910320D01*
X0001406901Y0002910444D01*
X0001407174Y0002910542D01*
X0001407455Y0002910612D01*
X0001407742Y0002910655D01*
X0001408031Y0002910669D01*
X0001435590Y0002910669D01*
X0001435879Y0002910655D01*
X0001435879Y0002910655D01*
G37*
D11*
X0001421811Y0002904763D03*
D12*
X0001676496Y0002611811D03*
X0001562322Y0002611811D03*
X0001562322Y0002702362D03*
X0001676496Y0002702362D03*
D13*
X0001842598Y0002744527D03*
X0001842598Y0002776023D03*
X0001842598Y0002807519D03*
X0001842598Y0002839015D03*
X0001842598Y0002870511D03*
X0001842598Y0002902007D03*
X0001842598Y0002933503D03*
X0001842598Y0002965000D03*
D14*
X0001899685Y0003022086D03*
X0001931181Y0003022086D03*
X0001962677Y0003022086D03*
X0001994173Y0003022086D03*
X0002025669Y0003022086D03*
X0002057165Y0003022086D03*
X0002088661Y0003022086D03*
X0002120157Y0003022086D03*
D13*
X0002177244Y0002965000D03*
X0002177244Y0002933503D03*
X0002177244Y0002902007D03*
X0002177244Y0002870511D03*
X0002177244Y0002839015D03*
X0002177244Y0002807519D03*
X0002177244Y0002776023D03*
X0002177244Y0002744527D03*
D14*
X0002120157Y0002687440D03*
X0002088661Y0002687440D03*
X0002057165Y0002687440D03*
X0002025669Y0002687440D03*
X0001994173Y0002687440D03*
X0001962677Y0002687440D03*
X0001931181Y0002687440D03*
X0001899685Y0002687440D03*
D15*
X0001634842Y0003295708D03*
D16*
X0001666338Y0003295708D03*
D15*
X0001729330Y0003295708D03*
D16*
X0001697834Y0003295708D03*
D15*
X0001634842Y0003366574D03*
D16*
X0001697834Y0003366574D03*
X0001666338Y0003366574D03*
D15*
X0001729330Y0003366574D03*
X0001729330Y0003228582D03*
D16*
X0001697834Y0003228582D03*
D15*
X0001634842Y0003228582D03*
D16*
X0001666338Y0003228582D03*
D15*
X0001729330Y0003157716D03*
D16*
X0001666338Y0003157716D03*
X0001697834Y0003157716D03*
D15*
X0001634842Y0003157716D03*
X0001729330Y0003005157D03*
D16*
X0001697834Y0003005157D03*
D15*
X0001634842Y0003005157D03*
D16*
X0001666338Y0003005157D03*
D15*
X0001729330Y0002934291D03*
D16*
X0001666338Y0002934291D03*
X0001697834Y0002934291D03*
D15*
X0001634842Y0002934291D03*
D10*
G36*
X0002177550Y0003258143D02*
G01*
X0002178457Y0003258009D01*
X0002179348Y0003257786D01*
X0002180212Y0003257477D01*
X0002181041Y0003257084D01*
X0002181828Y0003256613D01*
X0002182565Y0003256066D01*
X0002183245Y0003255450D01*
X0002183861Y0003254770D01*
X0002184408Y0003254033D01*
X0002184880Y0003253246D01*
X0002185272Y0003252416D01*
X0002185581Y0003251552D01*
X0002185804Y0003250662D01*
X0002185939Y0003249755D01*
X0002185984Y0003248838D01*
X0002185984Y0003226200D01*
X0002185939Y0003225284D01*
X0002185804Y0003224376D01*
X0002185581Y0003223486D01*
X0002185272Y0003222622D01*
X0002184880Y0003221793D01*
X0002184408Y0003221005D01*
X0002183861Y0003220268D01*
X0002183245Y0003219589D01*
X0002182565Y0003218972D01*
X0002181828Y0003218426D01*
X0002181041Y0003217954D01*
X0002180212Y0003217562D01*
X0002179348Y0003217253D01*
X0002178457Y0003217030D01*
X0002177550Y0003216895D01*
X0002176633Y0003216850D01*
X0002157933Y0003216850D01*
X0002157016Y0003216895D01*
X0002156108Y0003217030D01*
X0002155218Y0003217253D01*
X0002154354Y0003217562D01*
X0002153525Y0003217954D01*
X0002152738Y0003218426D01*
X0002152001Y0003218972D01*
X0002151321Y0003219589D01*
X0002150705Y0003220268D01*
X0002150158Y0003221005D01*
X0002149686Y0003221793D01*
X0002149294Y0003222622D01*
X0002148985Y0003223486D01*
X0002148762Y0003224376D01*
X0002148627Y0003225284D01*
X0002148582Y0003226200D01*
X0002148582Y0003248838D01*
X0002148627Y0003249755D01*
X0002148762Y0003250662D01*
X0002148985Y0003251552D01*
X0002149294Y0003252416D01*
X0002149686Y0003253246D01*
X0002150158Y0003254033D01*
X0002150705Y0003254770D01*
X0002151321Y0003255450D01*
X0002152001Y0003256066D01*
X0002152738Y0003256613D01*
X0002153525Y0003257084D01*
X0002154354Y0003257477D01*
X0002155218Y0003257786D01*
X0002156108Y0003258009D01*
X0002157016Y0003258143D01*
X0002157933Y0003258188D01*
X0002176633Y0003258188D01*
X0002177550Y0003258143D01*
X0002177550Y0003258143D01*
G37*
D17*
X0002167283Y0003237519D03*
D10*
G36*
X0002177550Y0003327041D02*
G01*
X0002178457Y0003326906D01*
X0002179348Y0003326683D01*
X0002180212Y0003326374D01*
X0002181041Y0003325982D01*
X0002181828Y0003325510D01*
X0002182565Y0003324964D01*
X0002183245Y0003324347D01*
X0002183861Y0003323668D01*
X0002184408Y0003322931D01*
X0002184880Y0003322143D01*
X0002185272Y0003321314D01*
X0002185581Y0003320450D01*
X0002185804Y0003319560D01*
X0002185939Y0003318652D01*
X0002185984Y0003317736D01*
X0002185984Y0003295098D01*
X0002185939Y0003294181D01*
X0002185804Y0003293274D01*
X0002185581Y0003292384D01*
X0002185272Y0003291520D01*
X0002184880Y0003290690D01*
X0002184408Y0003289903D01*
X0002183861Y0003289166D01*
X0002183245Y0003288486D01*
X0002182565Y0003287870D01*
X0002181828Y0003287323D01*
X0002181041Y0003286852D01*
X0002180212Y0003286459D01*
X0002179348Y0003286150D01*
X0002178457Y0003285927D01*
X0002177550Y0003285793D01*
X0002176633Y0003285748D01*
X0002157933Y0003285748D01*
X0002157016Y0003285793D01*
X0002156108Y0003285927D01*
X0002155218Y0003286150D01*
X0002154354Y0003286459D01*
X0002153525Y0003286852D01*
X0002152738Y0003287323D01*
X0002152001Y0003287870D01*
X0002151321Y0003288486D01*
X0002150705Y0003289166D01*
X0002150158Y0003289903D01*
X0002149686Y0003290690D01*
X0002149294Y0003291520D01*
X0002148985Y0003292384D01*
X0002148762Y0003293274D01*
X0002148627Y0003294181D01*
X0002148582Y0003295098D01*
X0002148582Y0003317736D01*
X0002148627Y0003318652D01*
X0002148762Y0003319560D01*
X0002148985Y0003320450D01*
X0002149294Y0003321314D01*
X0002149686Y0003322143D01*
X0002150158Y0003322931D01*
X0002150705Y0003323668D01*
X0002151321Y0003324347D01*
X0002152001Y0003324964D01*
X0002152738Y0003325510D01*
X0002153525Y0003325982D01*
X0002154354Y0003326374D01*
X0002155218Y0003326683D01*
X0002156108Y0003326906D01*
X0002157016Y0003327041D01*
X0002157933Y0003327086D01*
X0002176633Y0003327086D01*
X0002177550Y0003327041D01*
X0002177550Y0003327041D01*
G37*
D17*
X0002167283Y0003306417D03*
D10*
G36*
X0001441644Y0003294521D02*
G01*
X0001442552Y0003294387D01*
X0001443442Y0003294164D01*
X0001444306Y0003293855D01*
X0001445136Y0003293462D01*
X0001445923Y0003292991D01*
X0001446660Y0003292444D01*
X0001447340Y0003291828D01*
X0001447956Y0003291148D01*
X0001448502Y0003290411D01*
X0001448974Y0003289624D01*
X0001449366Y0003288794D01*
X0001449676Y0003287930D01*
X0001449899Y0003287040D01*
X0001450033Y0003286133D01*
X0001450078Y0003285216D01*
X0001450078Y0003262578D01*
X0001450033Y0003261662D01*
X0001449899Y0003260754D01*
X0001449676Y0003259864D01*
X0001449366Y0003259000D01*
X0001448974Y0003258170D01*
X0001448502Y0003257383D01*
X0001447956Y0003256646D01*
X0001447340Y0003255967D01*
X0001446660Y0003255350D01*
X0001445923Y0003254804D01*
X0001445136Y0003254332D01*
X0001444306Y0003253940D01*
X0001443442Y0003253630D01*
X0001442552Y0003253407D01*
X0001441644Y0003253273D01*
X0001440728Y0003253228D01*
X0001422027Y0003253228D01*
X0001421111Y0003253273D01*
X0001420203Y0003253407D01*
X0001419313Y0003253630D01*
X0001418449Y0003253940D01*
X0001417619Y0003254332D01*
X0001416832Y0003254804D01*
X0001416095Y0003255350D01*
X0001415415Y0003255967D01*
X0001414799Y0003256646D01*
X0001414252Y0003257383D01*
X0001413781Y0003258170D01*
X0001413388Y0003259000D01*
X0001413079Y0003259864D01*
X0001412856Y0003260754D01*
X0001412722Y0003261662D01*
X0001412677Y0003262578D01*
X0001412677Y0003285216D01*
X0001412722Y0003286133D01*
X0001412856Y0003287040D01*
X0001413079Y0003287930D01*
X0001413388Y0003288794D01*
X0001413781Y0003289624D01*
X0001414252Y0003290411D01*
X0001414799Y0003291148D01*
X0001415415Y0003291828D01*
X0001416095Y0003292444D01*
X0001416832Y0003292991D01*
X0001417619Y0003293462D01*
X0001418449Y0003293855D01*
X0001419313Y0003294164D01*
X0001420203Y0003294387D01*
X0001421111Y0003294521D01*
X0001422027Y0003294566D01*
X0001440728Y0003294566D01*
X0001441644Y0003294521D01*
X0001441644Y0003294521D01*
G37*
D17*
X0001431377Y0003273897D03*
D10*
G36*
X0001441644Y0003363419D02*
G01*
X0001442552Y0003363284D01*
X0001443442Y0003363061D01*
X0001444306Y0003362752D01*
X0001445136Y0003362360D01*
X0001445923Y0003361888D01*
X0001446660Y0003361342D01*
X0001447340Y0003360725D01*
X0001447956Y0003360045D01*
X0001448502Y0003359308D01*
X0001448974Y0003358521D01*
X0001449366Y0003357692D01*
X0001449676Y0003356828D01*
X0001449899Y0003355938D01*
X0001450033Y0003355030D01*
X0001450078Y0003354114D01*
X0001450078Y0003331476D01*
X0001450033Y0003330559D01*
X0001449899Y0003329652D01*
X0001449676Y0003328762D01*
X0001449366Y0003327898D01*
X0001448974Y0003327068D01*
X0001448502Y0003326281D01*
X0001447956Y0003325544D01*
X0001447340Y0003324864D01*
X0001446660Y0003324248D01*
X0001445923Y0003323701D01*
X0001445136Y0003323230D01*
X0001444306Y0003322837D01*
X0001443442Y0003322528D01*
X0001442552Y0003322305D01*
X0001441644Y0003322171D01*
X0001440728Y0003322125D01*
X0001422027Y0003322125D01*
X0001421111Y0003322171D01*
X0001420203Y0003322305D01*
X0001419313Y0003322528D01*
X0001418449Y0003322837D01*
X0001417619Y0003323230D01*
X0001416832Y0003323701D01*
X0001416095Y0003324248D01*
X0001415415Y0003324864D01*
X0001414799Y0003325544D01*
X0001414252Y0003326281D01*
X0001413781Y0003327068D01*
X0001413388Y0003327898D01*
X0001413079Y0003328762D01*
X0001412856Y0003329652D01*
X0001412722Y0003330559D01*
X0001412677Y0003331476D01*
X0001412677Y0003354114D01*
X0001412722Y0003355030D01*
X0001412856Y0003355938D01*
X0001413079Y0003356828D01*
X0001413388Y0003357692D01*
X0001413781Y0003358521D01*
X0001414252Y0003359308D01*
X0001414799Y0003360045D01*
X0001415415Y0003360725D01*
X0001416095Y0003361342D01*
X0001416832Y0003361888D01*
X0001417619Y0003362360D01*
X0001418449Y0003362752D01*
X0001419313Y0003363061D01*
X0001420203Y0003363284D01*
X0001421111Y0003363419D01*
X0001422027Y0003363464D01*
X0001440728Y0003363464D01*
X0001441644Y0003363419D01*
X0001441644Y0003363419D01*
G37*
D17*
X0001431377Y0003342795D03*
D10*
G36*
X0002207904Y0002586332D02*
G01*
X0002208812Y0002586198D01*
X0002209702Y0002585975D01*
X0002210566Y0002585666D01*
X0002211395Y0002585273D01*
X0002212182Y0002584802D01*
X0002212920Y0002584255D01*
X0002213599Y0002583639D01*
X0002214216Y0002582959D01*
X0002214762Y0002582222D01*
X0002215234Y0002581435D01*
X0002215626Y0002580605D01*
X0002215935Y0002579741D01*
X0002216158Y0002578851D01*
X0002216293Y0002577944D01*
X0002216338Y0002577027D01*
X0002216338Y0002558326D01*
X0002216293Y0002557410D01*
X0002216158Y0002556502D01*
X0002215935Y0002555612D01*
X0002215626Y0002554748D01*
X0002215234Y0002553918D01*
X0002214762Y0002553131D01*
X0002214216Y0002552394D01*
X0002213599Y0002551715D01*
X0002212920Y0002551098D01*
X0002212182Y0002550552D01*
X0002211395Y0002550080D01*
X0002210566Y0002549688D01*
X0002209702Y0002549379D01*
X0002208812Y0002549156D01*
X0002207904Y0002549021D01*
X0002206988Y0002548976D01*
X0002184350Y0002548976D01*
X0002183433Y0002549021D01*
X0002182526Y0002549156D01*
X0002181636Y0002549379D01*
X0002180772Y0002549688D01*
X0002179942Y0002550080D01*
X0002179155Y0002550552D01*
X0002178418Y0002551098D01*
X0002177738Y0002551715D01*
X0002177122Y0002552394D01*
X0002176575Y0002553131D01*
X0002176104Y0002553918D01*
X0002175711Y0002554748D01*
X0002175402Y0002555612D01*
X0002175179Y0002556502D01*
X0002175045Y0002557410D01*
X0002175000Y0002558326D01*
X0002175000Y0002577027D01*
X0002175045Y0002577944D01*
X0002175179Y0002578851D01*
X0002175402Y0002579741D01*
X0002175711Y0002580605D01*
X0002176104Y0002581435D01*
X0002176575Y0002582222D01*
X0002177122Y0002582959D01*
X0002177738Y0002583639D01*
X0002178418Y0002584255D01*
X0002179155Y0002584802D01*
X0002179942Y0002585273D01*
X0002180772Y0002585666D01*
X0002181636Y0002585975D01*
X0002182526Y0002586198D01*
X0002183433Y0002586332D01*
X0002184350Y0002586377D01*
X0002206988Y0002586377D01*
X0002207904Y0002586332D01*
X0002207904Y0002586332D01*
G37*
D17*
X0002195669Y0002567677D03*
D10*
G36*
X0002139007Y0002586332D02*
G01*
X0002139914Y0002586198D01*
X0002140804Y0002585975D01*
X0002141668Y0002585666D01*
X0002142498Y0002585273D01*
X0002143285Y0002584802D01*
X0002144022Y0002584255D01*
X0002144702Y0002583639D01*
X0002145318Y0002582959D01*
X0002145865Y0002582222D01*
X0002146336Y0002581435D01*
X0002146729Y0002580605D01*
X0002147038Y0002579741D01*
X0002147261Y0002578851D01*
X0002147395Y0002577944D01*
X0002147440Y0002577027D01*
X0002147440Y0002558326D01*
X0002147395Y0002557410D01*
X0002147261Y0002556502D01*
X0002147038Y0002555612D01*
X0002146729Y0002554748D01*
X0002146336Y0002553918D01*
X0002145865Y0002553131D01*
X0002145318Y0002552394D01*
X0002144702Y0002551715D01*
X0002144022Y0002551098D01*
X0002143285Y0002550552D01*
X0002142498Y0002550080D01*
X0002141668Y0002549688D01*
X0002140804Y0002549379D01*
X0002139914Y0002549156D01*
X0002139007Y0002549021D01*
X0002138090Y0002548976D01*
X0002115452Y0002548976D01*
X0002114536Y0002549021D01*
X0002113628Y0002549156D01*
X0002112738Y0002549379D01*
X0002111874Y0002549688D01*
X0002111045Y0002550080D01*
X0002110257Y0002550552D01*
X0002109520Y0002551098D01*
X0002108840Y0002551715D01*
X0002108224Y0002552394D01*
X0002107678Y0002553131D01*
X0002107206Y0002553918D01*
X0002106814Y0002554748D01*
X0002106504Y0002555612D01*
X0002106281Y0002556502D01*
X0002106147Y0002557410D01*
X0002106102Y0002558326D01*
X0002106102Y0002577027D01*
X0002106147Y0002577944D01*
X0002106281Y0002578851D01*
X0002106504Y0002579741D01*
X0002106814Y0002580605D01*
X0002107206Y0002581435D01*
X0002107678Y0002582222D01*
X0002108224Y0002582959D01*
X0002108840Y0002583639D01*
X0002109520Y0002584255D01*
X0002110257Y0002584802D01*
X0002111045Y0002585273D01*
X0002111874Y0002585666D01*
X0002112738Y0002585975D01*
X0002113628Y0002586198D01*
X0002114536Y0002586332D01*
X0002115452Y0002586377D01*
X0002138090Y0002586377D01*
X0002139007Y0002586332D01*
X0002139007Y0002586332D01*
G37*
D17*
X0002126771Y0002567677D03*
D10*
G36*
X0001368888Y0002845151D02*
G01*
X0001369796Y0002845017D01*
X0001370686Y0002844794D01*
X0001371550Y0002844485D01*
X0001372380Y0002844092D01*
X0001373167Y0002843621D01*
X0001373904Y0002843074D01*
X0001374584Y0002842458D01*
X0001375200Y0002841778D01*
X0001375747Y0002841041D01*
X0001376218Y0002840254D01*
X0001376611Y0002839424D01*
X0001376920Y0002838560D01*
X0001377143Y0002837670D01*
X0001377277Y0002836762D01*
X0001377322Y0002835846D01*
X0001377322Y0002813208D01*
X0001377277Y0002812292D01*
X0001377143Y0002811384D01*
X0001376920Y0002810494D01*
X0001376611Y0002809630D01*
X0001376218Y0002808800D01*
X0001375747Y0002808013D01*
X0001375200Y0002807276D01*
X0001374584Y0002806596D01*
X0001373904Y0002805980D01*
X0001373167Y0002805434D01*
X0001372380Y0002804962D01*
X0001371550Y0002804570D01*
X0001370686Y0002804260D01*
X0001369796Y0002804037D01*
X0001368888Y0002803903D01*
X0001367972Y0002803858D01*
X0001349271Y0002803858D01*
X0001348355Y0002803903D01*
X0001347447Y0002804037D01*
X0001346557Y0002804260D01*
X0001345693Y0002804570D01*
X0001344863Y0002804962D01*
X0001344076Y0002805434D01*
X0001343339Y0002805980D01*
X0001342659Y0002806596D01*
X0001342043Y0002807276D01*
X0001341497Y0002808013D01*
X0001341025Y0002808800D01*
X0001340632Y0002809630D01*
X0001340323Y0002810494D01*
X0001340100Y0002811384D01*
X0001339966Y0002812292D01*
X0001339921Y0002813208D01*
X0001339921Y0002835846D01*
X0001339966Y0002836762D01*
X0001340100Y0002837670D01*
X0001340323Y0002838560D01*
X0001340632Y0002839424D01*
X0001341025Y0002840254D01*
X0001341497Y0002841041D01*
X0001342043Y0002841778D01*
X0001342659Y0002842458D01*
X0001343339Y0002843074D01*
X0001344076Y0002843621D01*
X0001344863Y0002844092D01*
X0001345693Y0002844485D01*
X0001346557Y0002844794D01*
X0001347447Y0002845017D01*
X0001348355Y0002845151D01*
X0001349271Y0002845196D01*
X0001367972Y0002845196D01*
X0001368888Y0002845151D01*
X0001368888Y0002845151D01*
G37*
D17*
X0001358622Y0002824527D03*
D10*
G36*
X0001368888Y0002914049D02*
G01*
X0001369796Y0002913914D01*
X0001370686Y0002913691D01*
X0001371550Y0002913382D01*
X0001372380Y0002912990D01*
X0001373167Y0002912518D01*
X0001373904Y0002911972D01*
X0001374584Y0002911355D01*
X0001375200Y0002910675D01*
X0001375747Y0002909938D01*
X0001376218Y0002909151D01*
X0001376611Y0002908322D01*
X0001376920Y0002907458D01*
X0001377143Y0002906568D01*
X0001377277Y0002905660D01*
X0001377322Y0002904744D01*
X0001377322Y0002882106D01*
X0001377277Y0002881189D01*
X0001377143Y0002880282D01*
X0001376920Y0002879392D01*
X0001376611Y0002878528D01*
X0001376218Y0002877698D01*
X0001375747Y0002876911D01*
X0001375200Y0002876174D01*
X0001374584Y0002875494D01*
X0001373904Y0002874878D01*
X0001373167Y0002874331D01*
X0001372380Y0002873860D01*
X0001371550Y0002873467D01*
X0001370686Y0002873158D01*
X0001369796Y0002872935D01*
X0001368888Y0002872800D01*
X0001367972Y0002872755D01*
X0001349271Y0002872755D01*
X0001348355Y0002872800D01*
X0001347447Y0002872935D01*
X0001346557Y0002873158D01*
X0001345693Y0002873467D01*
X0001344863Y0002873860D01*
X0001344076Y0002874331D01*
X0001343339Y0002874878D01*
X0001342659Y0002875494D01*
X0001342043Y0002876174D01*
X0001341497Y0002876911D01*
X0001341025Y0002877698D01*
X0001340632Y0002878528D01*
X0001340323Y0002879392D01*
X0001340100Y0002880282D01*
X0001339966Y0002881189D01*
X0001339921Y0002882106D01*
X0001339921Y0002904744D01*
X0001339966Y0002905660D01*
X0001340100Y0002906568D01*
X0001340323Y0002907458D01*
X0001340632Y0002908322D01*
X0001341025Y0002909151D01*
X0001341497Y0002909938D01*
X0001342043Y0002910675D01*
X0001342659Y0002911355D01*
X0001343339Y0002911972D01*
X0001344076Y0002912518D01*
X0001344863Y0002912990D01*
X0001345693Y0002913382D01*
X0001346557Y0002913691D01*
X0001347447Y0002913914D01*
X0001348355Y0002914049D01*
X0001349271Y0002914094D01*
X0001367972Y0002914094D01*
X0001368888Y0002914049D01*
X0001368888Y0002914049D01*
G37*
D17*
X0001358622Y0002893425D03*
D18*
X0001875984Y0003284842D03*
X0001875984Y0003164763D03*
X0001915354Y0003284842D03*
X0001915354Y0003164763D03*
X0001954724Y0003284842D03*
X0001954724Y0003164763D03*
X0001994094Y0003284842D03*
X0001994094Y0003164763D03*
X0002033464Y0003284842D03*
X0002033464Y0003164763D03*
X0002072834Y0003284842D03*
X0002072834Y0003164763D03*
D10*
G36*
X0002240345Y0003326726D02*
G01*
X0002241253Y0003326592D01*
X0002242143Y0003326369D01*
X0002243007Y0003326059D01*
X0002243836Y0003325667D01*
X0002244623Y0003325195D01*
X0002245360Y0003324649D01*
X0002246040Y0003324032D01*
X0002246657Y0003323353D01*
X0002247203Y0003322616D01*
X0002247675Y0003321829D01*
X0002248067Y0003320999D01*
X0002248376Y0003320135D01*
X0002248599Y0003319245D01*
X0002248734Y0003318337D01*
X0002248779Y0003317421D01*
X0002248779Y0003294783D01*
X0002248734Y0003293866D01*
X0002248599Y0003292959D01*
X0002248376Y0003292069D01*
X0002248067Y0003291205D01*
X0002247675Y0003290375D01*
X0002247203Y0003289588D01*
X0002246657Y0003288851D01*
X0002246040Y0003288171D01*
X0002245360Y0003287555D01*
X0002244623Y0003287008D01*
X0002243836Y0003286537D01*
X0002243007Y0003286144D01*
X0002242143Y0003285835D01*
X0002241253Y0003285612D01*
X0002240345Y0003285478D01*
X0002239429Y0003285433D01*
X0002220728Y0003285433D01*
X0002219811Y0003285478D01*
X0002218904Y0003285612D01*
X0002218014Y0003285835D01*
X0002217150Y0003286144D01*
X0002216320Y0003286537D01*
X0002215533Y0003287008D01*
X0002214796Y0003287555D01*
X0002214116Y0003288171D01*
X0002213500Y0003288851D01*
X0002212953Y0003289588D01*
X0002212482Y0003290375D01*
X0002212089Y0003291205D01*
X0002211780Y0003292069D01*
X0002211557Y0003292959D01*
X0002211422Y0003293866D01*
X0002211377Y0003294783D01*
X0002211377Y0003317421D01*
X0002211422Y0003318337D01*
X0002211557Y0003319245D01*
X0002211780Y0003320135D01*
X0002212089Y0003320999D01*
X0002212482Y0003321829D01*
X0002212953Y0003322616D01*
X0002213500Y0003323353D01*
X0002214116Y0003324032D01*
X0002214796Y0003324649D01*
X0002215533Y0003325195D01*
X0002216320Y0003325667D01*
X0002217150Y0003326059D01*
X0002218014Y0003326369D01*
X0002218904Y0003326592D01*
X0002219811Y0003326726D01*
X0002220728Y0003326771D01*
X0002239429Y0003326771D01*
X0002240345Y0003326726D01*
X0002240345Y0003326726D01*
G37*
D17*
X0002230078Y0003306102D03*
D10*
G36*
X0002240345Y0003257828D02*
G01*
X0002241253Y0003257694D01*
X0002242143Y0003257471D01*
X0002243007Y0003257162D01*
X0002243836Y0003256769D01*
X0002244623Y0003256298D01*
X0002245360Y0003255751D01*
X0002246040Y0003255135D01*
X0002246657Y0003254455D01*
X0002247203Y0003253718D01*
X0002247675Y0003252931D01*
X0002248067Y0003252101D01*
X0002248376Y0003251237D01*
X0002248599Y0003250347D01*
X0002248734Y0003249440D01*
X0002248779Y0003248523D01*
X0002248779Y0003225885D01*
X0002248734Y0003224969D01*
X0002248599Y0003224061D01*
X0002248376Y0003223171D01*
X0002248067Y0003222307D01*
X0002247675Y0003221478D01*
X0002247203Y0003220691D01*
X0002246657Y0003219954D01*
X0002246040Y0003219274D01*
X0002245360Y0003218657D01*
X0002244623Y0003218111D01*
X0002243836Y0003217639D01*
X0002243007Y0003217247D01*
X0002242143Y0003216938D01*
X0002241253Y0003216715D01*
X0002240345Y0003216580D01*
X0002239429Y0003216535D01*
X0002220728Y0003216535D01*
X0002219811Y0003216580D01*
X0002218904Y0003216715D01*
X0002218014Y0003216938D01*
X0002217150Y0003217247D01*
X0002216320Y0003217639D01*
X0002215533Y0003218111D01*
X0002214796Y0003218657D01*
X0002214116Y0003219274D01*
X0002213500Y0003219954D01*
X0002212953Y0003220691D01*
X0002212482Y0003221478D01*
X0002212089Y0003222307D01*
X0002211780Y0003223171D01*
X0002211557Y0003224061D01*
X0002211422Y0003224969D01*
X0002211377Y0003225885D01*
X0002211377Y0003248523D01*
X0002211422Y0003249440D01*
X0002211557Y0003250347D01*
X0002211780Y0003251237D01*
X0002212089Y0003252101D01*
X0002212482Y0003252931D01*
X0002212953Y0003253718D01*
X0002213500Y0003254455D01*
X0002214116Y0003255135D01*
X0002214796Y0003255751D01*
X0002215533Y0003256298D01*
X0002216320Y0003256769D01*
X0002217150Y0003257162D01*
X0002218014Y0003257471D01*
X0002218904Y0003257694D01*
X0002219811Y0003257828D01*
X0002220728Y0003257874D01*
X0002239429Y0003257874D01*
X0002240345Y0003257828D01*
X0002240345Y0003257828D01*
G37*
D17*
X0002230078Y0003237204D03*
D10*
G36*
X0002071211Y0002587277D02*
G01*
X0002072119Y0002587143D01*
X0002073009Y0002586920D01*
X0002073873Y0002586611D01*
X0002074703Y0002586218D01*
X0002075490Y0002585747D01*
X0002076227Y0002585200D01*
X0002076906Y0002584584D01*
X0002077523Y0002583904D01*
X0002078069Y0002583167D01*
X0002078541Y0002582380D01*
X0002078933Y0002581550D01*
X0002079242Y0002580686D01*
X0002079465Y0002579796D01*
X0002079600Y0002578888D01*
X0002079645Y0002577972D01*
X0002079645Y0002559271D01*
X0002079600Y0002558355D01*
X0002079465Y0002557447D01*
X0002079242Y0002556557D01*
X0002078933Y0002555693D01*
X0002078541Y0002554863D01*
X0002078069Y0002554076D01*
X0002077523Y0002553339D01*
X0002076906Y0002552659D01*
X0002076227Y0002552043D01*
X0002075490Y0002551497D01*
X0002074703Y0002551025D01*
X0002073873Y0002550633D01*
X0002073009Y0002550323D01*
X0002072119Y0002550100D01*
X0002071211Y0002549966D01*
X0002070295Y0002549921D01*
X0002047657Y0002549921D01*
X0002046740Y0002549966D01*
X0002045833Y0002550100D01*
X0002044943Y0002550323D01*
X0002044079Y0002550633D01*
X0002043249Y0002551025D01*
X0002042462Y0002551497D01*
X0002041725Y0002552043D01*
X0002041045Y0002552659D01*
X0002040429Y0002553339D01*
X0002039882Y0002554076D01*
X0002039411Y0002554863D01*
X0002039018Y0002555693D01*
X0002038709Y0002556557D01*
X0002038486Y0002557447D01*
X0002038352Y0002558355D01*
X0002038307Y0002559271D01*
X0002038307Y0002577972D01*
X0002038352Y0002578888D01*
X0002038486Y0002579796D01*
X0002038709Y0002580686D01*
X0002039018Y0002581550D01*
X0002039411Y0002582380D01*
X0002039882Y0002583167D01*
X0002040429Y0002583904D01*
X0002041045Y0002584584D01*
X0002041725Y0002585200D01*
X0002042462Y0002585747D01*
X0002043249Y0002586218D01*
X0002044079Y0002586611D01*
X0002044943Y0002586920D01*
X0002045833Y0002587143D01*
X0002046740Y0002587277D01*
X0002047657Y0002587322D01*
X0002070295Y0002587322D01*
X0002071211Y0002587277D01*
X0002071211Y0002587277D01*
G37*
D17*
X0002058976Y0002568622D03*
D10*
G36*
X0002002314Y0002587277D02*
G01*
X0002003221Y0002587143D01*
X0002004111Y0002586920D01*
X0002004975Y0002586611D01*
X0002005805Y0002586218D01*
X0002006592Y0002585747D01*
X0002007329Y0002585200D01*
X0002008009Y0002584584D01*
X0002008625Y0002583904D01*
X0002009172Y0002583167D01*
X0002009643Y0002582380D01*
X0002010036Y0002581550D01*
X0002010345Y0002580686D01*
X0002010568Y0002579796D01*
X0002010702Y0002578888D01*
X0002010748Y0002577972D01*
X0002010748Y0002559271D01*
X0002010702Y0002558355D01*
X0002010568Y0002557447D01*
X0002010345Y0002556557D01*
X0002010036Y0002555693D01*
X0002009643Y0002554863D01*
X0002009172Y0002554076D01*
X0002008625Y0002553339D01*
X0002008009Y0002552659D01*
X0002007329Y0002552043D01*
X0002006592Y0002551497D01*
X0002005805Y0002551025D01*
X0002004975Y0002550633D01*
X0002004111Y0002550323D01*
X0002003221Y0002550100D01*
X0002002314Y0002549966D01*
X0002001397Y0002549921D01*
X0001978759Y0002549921D01*
X0001977843Y0002549966D01*
X0001976935Y0002550100D01*
X0001976045Y0002550323D01*
X0001975181Y0002550633D01*
X0001974352Y0002551025D01*
X0001973565Y0002551497D01*
X0001972828Y0002552043D01*
X0001972148Y0002552659D01*
X0001971531Y0002553339D01*
X0001970985Y0002554076D01*
X0001970513Y0002554863D01*
X0001970121Y0002555693D01*
X0001969812Y0002556557D01*
X0001969589Y0002557447D01*
X0001969454Y0002558355D01*
X0001969409Y0002559271D01*
X0001969409Y0002577972D01*
X0001969454Y0002578888D01*
X0001969589Y0002579796D01*
X0001969812Y0002580686D01*
X0001970121Y0002581550D01*
X0001970513Y0002582380D01*
X0001970985Y0002583167D01*
X0001971531Y0002583904D01*
X0001972148Y0002584584D01*
X0001972828Y0002585200D01*
X0001973565Y0002585747D01*
X0001974352Y0002586218D01*
X0001975181Y0002586611D01*
X0001976045Y0002586920D01*
X0001976935Y0002587143D01*
X0001977843Y0002587277D01*
X0001978759Y0002587322D01*
X0002001397Y0002587322D01*
X0002002314Y0002587277D01*
X0002002314Y0002587277D01*
G37*
D17*
X0001990078Y0002568622D03*
D10*
G36*
X0001479715Y0002639915D02*
G01*
X0001480623Y0002639780D01*
X0001481513Y0002639557D01*
X0001482377Y0002639248D01*
X0001483206Y0002638856D01*
X0001483993Y0002638384D01*
X0001484730Y0002637838D01*
X0001485410Y0002637221D01*
X0001486027Y0002636542D01*
X0001486573Y0002635805D01*
X0001487045Y0002635017D01*
X0001487437Y0002634188D01*
X0001487746Y0002633324D01*
X0001487969Y0002632434D01*
X0001488104Y0002631526D01*
X0001488149Y0002630610D01*
X0001488149Y0002607972D01*
X0001488104Y0002607055D01*
X0001487969Y0002606148D01*
X0001487746Y0002605258D01*
X0001487437Y0002604394D01*
X0001487045Y0002603564D01*
X0001486573Y0002602777D01*
X0001486027Y0002602040D01*
X0001485410Y0002601360D01*
X0001484730Y0002600744D01*
X0001483993Y0002600197D01*
X0001483206Y0002599726D01*
X0001482377Y0002599333D01*
X0001481513Y0002599024D01*
X0001480623Y0002598801D01*
X0001479715Y0002598667D01*
X0001478799Y0002598622D01*
X0001460098Y0002598622D01*
X0001459181Y0002598667D01*
X0001458274Y0002598801D01*
X0001457384Y0002599024D01*
X0001456520Y0002599333D01*
X0001455690Y0002599726D01*
X0001454903Y0002600197D01*
X0001454166Y0002600744D01*
X0001453486Y0002601360D01*
X0001452870Y0002602040D01*
X0001452323Y0002602777D01*
X0001451852Y0002603564D01*
X0001451459Y0002604394D01*
X0001451150Y0002605258D01*
X0001450927Y0002606148D01*
X0001450793Y0002607055D01*
X0001450747Y0002607972D01*
X0001450747Y0002630610D01*
X0001450793Y0002631526D01*
X0001450927Y0002632434D01*
X0001451150Y0002633324D01*
X0001451459Y0002634188D01*
X0001451852Y0002635017D01*
X0001452323Y0002635805D01*
X0001452870Y0002636542D01*
X0001453486Y0002637221D01*
X0001454166Y0002637838D01*
X0001454903Y0002638384D01*
X0001455690Y0002638856D01*
X0001456520Y0002639248D01*
X0001457384Y0002639557D01*
X0001458274Y0002639780D01*
X0001459181Y0002639915D01*
X0001460098Y0002639960D01*
X0001478799Y0002639960D01*
X0001479715Y0002639915D01*
X0001479715Y0002639915D01*
G37*
D17*
X0001469448Y0002619291D03*
D10*
G36*
X0001479715Y0002708813D02*
G01*
X0001480623Y0002708678D01*
X0001481513Y0002708455D01*
X0001482377Y0002708146D01*
X0001483206Y0002707754D01*
X0001483993Y0002707282D01*
X0001484730Y0002706735D01*
X0001485410Y0002706119D01*
X0001486027Y0002705439D01*
X0001486573Y0002704702D01*
X0001487045Y0002703915D01*
X0001487437Y0002703086D01*
X0001487746Y0002702222D01*
X0001487969Y0002701332D01*
X0001488104Y0002700424D01*
X0001488149Y0002699507D01*
X0001488149Y0002676870D01*
X0001488104Y0002675953D01*
X0001487969Y0002675045D01*
X0001487746Y0002674155D01*
X0001487437Y0002673291D01*
X0001487045Y0002672462D01*
X0001486573Y0002671675D01*
X0001486027Y0002670938D01*
X0001485410Y0002670258D01*
X0001484730Y0002669642D01*
X0001483993Y0002669095D01*
X0001483206Y0002668623D01*
X0001482377Y0002668231D01*
X0001481513Y0002667922D01*
X0001480623Y0002667699D01*
X0001479715Y0002667564D01*
X0001478799Y0002667519D01*
X0001460098Y0002667519D01*
X0001459181Y0002667564D01*
X0001458274Y0002667699D01*
X0001457384Y0002667922D01*
X0001456520Y0002668231D01*
X0001455690Y0002668623D01*
X0001454903Y0002669095D01*
X0001454166Y0002669642D01*
X0001453486Y0002670258D01*
X0001452870Y0002670938D01*
X0001452323Y0002671675D01*
X0001451852Y0002672462D01*
X0001451459Y0002673291D01*
X0001451150Y0002674155D01*
X0001450927Y0002675045D01*
X0001450793Y0002675953D01*
X0001450747Y0002676870D01*
X0001450747Y0002699507D01*
X0001450793Y0002700424D01*
X0001450927Y0002701332D01*
X0001451150Y0002702222D01*
X0001451459Y0002703086D01*
X0001451852Y0002703915D01*
X0001452323Y0002704702D01*
X0001452870Y0002705439D01*
X0001453486Y0002706119D01*
X0001454166Y0002706735D01*
X0001454903Y0002707282D01*
X0001455690Y0002707754D01*
X0001456520Y0002708146D01*
X0001457384Y0002708455D01*
X0001458274Y0002708678D01*
X0001459181Y0002708813D01*
X0001460098Y0002708858D01*
X0001478799Y0002708858D01*
X0001479715Y0002708813D01*
X0001479715Y0002708813D01*
G37*
D17*
X0001469448Y0002688188D03*
D10*
G36*
X0001774951Y0002708852D02*
G01*
X0001775859Y0002708717D01*
X0001776749Y0002708495D01*
X0001777613Y0002708185D01*
X0001778443Y0002707793D01*
X0001779230Y0002707321D01*
X0001779967Y0002706775D01*
X0001780647Y0002706158D01*
X0001781263Y0002705479D01*
X0001781809Y0002704742D01*
X0001782281Y0002703955D01*
X0001782674Y0002703125D01*
X0001782983Y0002702261D01*
X0001783206Y0002701371D01*
X0001783340Y0002700463D01*
X0001783385Y0002699547D01*
X0001783385Y0002676909D01*
X0001783340Y0002675992D01*
X0001783206Y0002675085D01*
X0001782983Y0002674195D01*
X0001782674Y0002673331D01*
X0001782281Y0002672501D01*
X0001781809Y0002671714D01*
X0001781263Y0002670977D01*
X0001780647Y0002670297D01*
X0001779967Y0002669681D01*
X0001779230Y0002669134D01*
X0001778443Y0002668663D01*
X0001777613Y0002668270D01*
X0001776749Y0002667961D01*
X0001775859Y0002667738D01*
X0001774951Y0002667604D01*
X0001774035Y0002667559D01*
X0001755334Y0002667559D01*
X0001754418Y0002667604D01*
X0001753510Y0002667738D01*
X0001752620Y0002667961D01*
X0001751756Y0002668270D01*
X0001750926Y0002668663D01*
X0001750139Y0002669134D01*
X0001749402Y0002669681D01*
X0001748722Y0002670297D01*
X0001748106Y0002670977D01*
X0001747560Y0002671714D01*
X0001747088Y0002672501D01*
X0001746696Y0002673331D01*
X0001746386Y0002674195D01*
X0001746163Y0002675085D01*
X0001746029Y0002675992D01*
X0001745984Y0002676909D01*
X0001745984Y0002699547D01*
X0001746029Y0002700463D01*
X0001746163Y0002701371D01*
X0001746386Y0002702261D01*
X0001746696Y0002703125D01*
X0001747088Y0002703955D01*
X0001747560Y0002704742D01*
X0001748106Y0002705479D01*
X0001748722Y0002706158D01*
X0001749402Y0002706775D01*
X0001750139Y0002707321D01*
X0001750926Y0002707793D01*
X0001751756Y0002708185D01*
X0001752620Y0002708495D01*
X0001753510Y0002708717D01*
X0001754418Y0002708852D01*
X0001755334Y0002708897D01*
X0001774035Y0002708897D01*
X0001774951Y0002708852D01*
X0001774951Y0002708852D01*
G37*
D17*
X0001764685Y0002688228D03*
D10*
G36*
X0001774951Y0002639954D02*
G01*
X0001775859Y0002639820D01*
X0001776749Y0002639597D01*
X0001777613Y0002639288D01*
X0001778443Y0002638895D01*
X0001779230Y0002638424D01*
X0001779967Y0002637877D01*
X0001780647Y0002637261D01*
X0001781263Y0002636581D01*
X0001781809Y0002635844D01*
X0001782281Y0002635057D01*
X0001782674Y0002634227D01*
X0001782983Y0002633363D01*
X0001783206Y0002632473D01*
X0001783340Y0002631566D01*
X0001783385Y0002630649D01*
X0001783385Y0002608011D01*
X0001783340Y0002607095D01*
X0001783206Y0002606187D01*
X0001782983Y0002605297D01*
X0001782674Y0002604433D01*
X0001782281Y0002603604D01*
X0001781809Y0002602817D01*
X0001781263Y0002602080D01*
X0001780647Y0002601400D01*
X0001779967Y0002600783D01*
X0001779230Y0002600237D01*
X0001778443Y0002599765D01*
X0001777613Y0002599373D01*
X0001776749Y0002599064D01*
X0001775859Y0002598841D01*
X0001774951Y0002598706D01*
X0001774035Y0002598661D01*
X0001755334Y0002598661D01*
X0001754418Y0002598706D01*
X0001753510Y0002598841D01*
X0001752620Y0002599064D01*
X0001751756Y0002599373D01*
X0001750926Y0002599765D01*
X0001750139Y0002600237D01*
X0001749402Y0002600783D01*
X0001748722Y0002601400D01*
X0001748106Y0002602080D01*
X0001747560Y0002602817D01*
X0001747088Y0002603604D01*
X0001746696Y0002604433D01*
X0001746386Y0002605297D01*
X0001746163Y0002606187D01*
X0001746029Y0002607095D01*
X0001745984Y0002608011D01*
X0001745984Y0002630649D01*
X0001746029Y0002631566D01*
X0001746163Y0002632473D01*
X0001746386Y0002633363D01*
X0001746696Y0002634227D01*
X0001747088Y0002635057D01*
X0001747560Y0002635844D01*
X0001748106Y0002636581D01*
X0001748722Y0002637261D01*
X0001749402Y0002637877D01*
X0001750139Y0002638424D01*
X0001750926Y0002638895D01*
X0001751756Y0002639288D01*
X0001752620Y0002639597D01*
X0001753510Y0002639820D01*
X0001754418Y0002639954D01*
X0001755334Y0002640000D01*
X0001774035Y0002640000D01*
X0001774951Y0002639954D01*
X0001774951Y0002639954D01*
G37*
D17*
X0001764685Y0002619330D03*
D10*
G36*
X0001505463Y0003363419D02*
G01*
X0001506371Y0003363284D01*
X0001507261Y0003363061D01*
X0001508125Y0003362752D01*
X0001508955Y0003362360D01*
X0001509742Y0003361888D01*
X0001510479Y0003361342D01*
X0001511158Y0003360725D01*
X0001511775Y0003360045D01*
X0001512321Y0003359308D01*
X0001512793Y0003358521D01*
X0001513185Y0003357692D01*
X0001513494Y0003356828D01*
X0001513717Y0003355938D01*
X0001513852Y0003355030D01*
X0001513897Y0003354114D01*
X0001513897Y0003331476D01*
X0001513852Y0003330559D01*
X0001513717Y0003329652D01*
X0001513494Y0003328762D01*
X0001513185Y0003327898D01*
X0001512793Y0003327068D01*
X0001512321Y0003326281D01*
X0001511775Y0003325544D01*
X0001511158Y0003324864D01*
X0001510479Y0003324248D01*
X0001509742Y0003323701D01*
X0001508955Y0003323230D01*
X0001508125Y0003322837D01*
X0001507261Y0003322528D01*
X0001506371Y0003322305D01*
X0001505463Y0003322171D01*
X0001504547Y0003322125D01*
X0001485846Y0003322125D01*
X0001484929Y0003322171D01*
X0001484022Y0003322305D01*
X0001483132Y0003322528D01*
X0001482268Y0003322837D01*
X0001481438Y0003323230D01*
X0001480651Y0003323701D01*
X0001479914Y0003324248D01*
X0001479234Y0003324864D01*
X0001478618Y0003325544D01*
X0001478071Y0003326281D01*
X0001477600Y0003327068D01*
X0001477207Y0003327898D01*
X0001476898Y0003328762D01*
X0001476675Y0003329652D01*
X0001476541Y0003330559D01*
X0001476496Y0003331476D01*
X0001476496Y0003354114D01*
X0001476541Y0003355030D01*
X0001476675Y0003355938D01*
X0001476898Y0003356828D01*
X0001477207Y0003357692D01*
X0001477600Y0003358521D01*
X0001478071Y0003359308D01*
X0001478618Y0003360045D01*
X0001479234Y0003360725D01*
X0001479914Y0003361342D01*
X0001480651Y0003361888D01*
X0001481438Y0003362360D01*
X0001482268Y0003362752D01*
X0001483132Y0003363061D01*
X0001484022Y0003363284D01*
X0001484929Y0003363419D01*
X0001485846Y0003363464D01*
X0001504547Y0003363464D01*
X0001505463Y0003363419D01*
X0001505463Y0003363419D01*
G37*
D17*
X0001495196Y0003342795D03*
D10*
G36*
X0001505463Y0003294521D02*
G01*
X0001506371Y0003294387D01*
X0001507261Y0003294164D01*
X0001508125Y0003293855D01*
X0001508955Y0003293462D01*
X0001509742Y0003292991D01*
X0001510479Y0003292444D01*
X0001511158Y0003291828D01*
X0001511775Y0003291148D01*
X0001512321Y0003290411D01*
X0001512793Y0003289624D01*
X0001513185Y0003288794D01*
X0001513494Y0003287930D01*
X0001513717Y0003287040D01*
X0001513852Y0003286133D01*
X0001513897Y0003285216D01*
X0001513897Y0003262578D01*
X0001513852Y0003261662D01*
X0001513717Y0003260754D01*
X0001513494Y0003259864D01*
X0001513185Y0003259000D01*
X0001512793Y0003258170D01*
X0001512321Y0003257383D01*
X0001511775Y0003256646D01*
X0001511158Y0003255967D01*
X0001510479Y0003255350D01*
X0001509742Y0003254804D01*
X0001508955Y0003254332D01*
X0001508125Y0003253940D01*
X0001507261Y0003253630D01*
X0001506371Y0003253407D01*
X0001505463Y0003253273D01*
X0001504547Y0003253228D01*
X0001485846Y0003253228D01*
X0001484929Y0003253273D01*
X0001484022Y0003253407D01*
X0001483132Y0003253630D01*
X0001482268Y0003253940D01*
X0001481438Y0003254332D01*
X0001480651Y0003254804D01*
X0001479914Y0003255350D01*
X0001479234Y0003255967D01*
X0001478618Y0003256646D01*
X0001478071Y0003257383D01*
X0001477600Y0003258170D01*
X0001477207Y0003259000D01*
X0001476898Y0003259864D01*
X0001476675Y0003260754D01*
X0001476541Y0003261662D01*
X0001476496Y0003262578D01*
X0001476496Y0003285216D01*
X0001476541Y0003286133D01*
X0001476675Y0003287040D01*
X0001476898Y0003287930D01*
X0001477207Y0003288794D01*
X0001477600Y0003289624D01*
X0001478071Y0003290411D01*
X0001478618Y0003291148D01*
X0001479234Y0003291828D01*
X0001479914Y0003292444D01*
X0001480651Y0003292991D01*
X0001481438Y0003293462D01*
X0001482268Y0003293855D01*
X0001483132Y0003294164D01*
X0001484022Y0003294387D01*
X0001484929Y0003294521D01*
X0001485846Y0003294566D01*
X0001504547Y0003294566D01*
X0001505463Y0003294521D01*
X0001505463Y0003294521D01*
G37*
D17*
X0001495196Y0003273897D03*
D10*
G36*
X0001436762Y0003225466D02*
G01*
X0001437670Y0003225332D01*
X0001438560Y0003225109D01*
X0001439424Y0003224800D01*
X0001440254Y0003224407D01*
X0001441041Y0003223935D01*
X0001441778Y0003223389D01*
X0001442458Y0003222773D01*
X0001443074Y0003222093D01*
X0001443620Y0003221356D01*
X0001444092Y0003220569D01*
X0001444485Y0003219739D01*
X0001444794Y0003218875D01*
X0001445017Y0003217985D01*
X0001445151Y0003217077D01*
X0001445196Y0003216161D01*
X0001445196Y0003197460D01*
X0001445151Y0003196544D01*
X0001445017Y0003195636D01*
X0001444794Y0003194746D01*
X0001444485Y0003193882D01*
X0001444092Y0003193052D01*
X0001443620Y0003192265D01*
X0001443074Y0003191528D01*
X0001442458Y0003190848D01*
X0001441778Y0003190232D01*
X0001441041Y0003189686D01*
X0001440254Y0003189214D01*
X0001439424Y0003188822D01*
X0001438560Y0003188512D01*
X0001437670Y0003188289D01*
X0001436762Y0003188155D01*
X0001435846Y0003188110D01*
X0001413208Y0003188110D01*
X0001412292Y0003188155D01*
X0001411384Y0003188289D01*
X0001410494Y0003188512D01*
X0001409630Y0003188822D01*
X0001408800Y0003189214D01*
X0001408013Y0003189686D01*
X0001407276Y0003190232D01*
X0001406596Y0003190848D01*
X0001405980Y0003191528D01*
X0001405434Y0003192265D01*
X0001404962Y0003193052D01*
X0001404569Y0003193882D01*
X0001404260Y0003194746D01*
X0001404037Y0003195636D01*
X0001403903Y0003196544D01*
X0001403858Y0003197460D01*
X0001403858Y0003216161D01*
X0001403903Y0003217077D01*
X0001404037Y0003217985D01*
X0001404260Y0003218875D01*
X0001404569Y0003219739D01*
X0001404962Y0003220569D01*
X0001405434Y0003221356D01*
X0001405980Y0003222093D01*
X0001406596Y0003222773D01*
X0001407276Y0003223389D01*
X0001408013Y0003223935D01*
X0001408800Y0003224407D01*
X0001409630Y0003224800D01*
X0001410494Y0003225109D01*
X0001411384Y0003225332D01*
X0001412292Y0003225466D01*
X0001413208Y0003225511D01*
X0001435846Y0003225511D01*
X0001436762Y0003225466D01*
X0001436762Y0003225466D01*
G37*
D17*
X0001424527Y0003206811D03*
D10*
G36*
X0001505660Y0003225466D02*
G01*
X0001506568Y0003225332D01*
X0001507458Y0003225109D01*
X0001508322Y0003224800D01*
X0001509151Y0003224407D01*
X0001509938Y0003223935D01*
X0001510675Y0003223389D01*
X0001511355Y0003222773D01*
X0001511972Y0003222093D01*
X0001512518Y0003221356D01*
X0001512990Y0003220569D01*
X0001513382Y0003219739D01*
X0001513691Y0003218875D01*
X0001513914Y0003217985D01*
X0001514049Y0003217077D01*
X0001514094Y0003216161D01*
X0001514094Y0003197460D01*
X0001514049Y0003196544D01*
X0001513914Y0003195636D01*
X0001513691Y0003194746D01*
X0001513382Y0003193882D01*
X0001512990Y0003193052D01*
X0001512518Y0003192265D01*
X0001511972Y0003191528D01*
X0001511355Y0003190848D01*
X0001510675Y0003190232D01*
X0001509938Y0003189686D01*
X0001509151Y0003189214D01*
X0001508322Y0003188822D01*
X0001507458Y0003188512D01*
X0001506568Y0003188289D01*
X0001505660Y0003188155D01*
X0001504744Y0003188110D01*
X0001482106Y0003188110D01*
X0001481189Y0003188155D01*
X0001480282Y0003188289D01*
X0001479392Y0003188512D01*
X0001478528Y0003188822D01*
X0001477698Y0003189214D01*
X0001476911Y0003189686D01*
X0001476174Y0003190232D01*
X0001475494Y0003190848D01*
X0001474878Y0003191528D01*
X0001474331Y0003192265D01*
X0001473860Y0003193052D01*
X0001473467Y0003193882D01*
X0001473158Y0003194746D01*
X0001472935Y0003195636D01*
X0001472800Y0003196544D01*
X0001472755Y0003197460D01*
X0001472755Y0003216161D01*
X0001472800Y0003217077D01*
X0001472935Y0003217985D01*
X0001473158Y0003218875D01*
X0001473467Y0003219739D01*
X0001473860Y0003220569D01*
X0001474331Y0003221356D01*
X0001474878Y0003222093D01*
X0001475494Y0003222773D01*
X0001476174Y0003223389D01*
X0001476911Y0003223935D01*
X0001477698Y0003224407D01*
X0001478528Y0003224800D01*
X0001479392Y0003225109D01*
X0001480282Y0003225332D01*
X0001481189Y0003225466D01*
X0001482106Y0003225511D01*
X0001504744Y0003225511D01*
X0001505660Y0003225466D01*
X0001505660Y0003225466D01*
G37*
D17*
X0001493425Y0003206811D03*
D10*
G36*
X0001409125Y0002708734D02*
G01*
X0001410032Y0002708599D01*
X0001410922Y0002708376D01*
X0001411786Y0002708067D01*
X0001412616Y0002707675D01*
X0001413403Y0002707203D01*
X0001414140Y0002706657D01*
X0001414820Y0002706040D01*
X0001415436Y0002705360D01*
X0001415983Y0002704623D01*
X0001416454Y0002703836D01*
X0001416847Y0002703007D01*
X0001417156Y0002702143D01*
X0001417379Y0002701253D01*
X0001417513Y0002700345D01*
X0001417559Y0002699429D01*
X0001417559Y0002676791D01*
X0001417513Y0002675874D01*
X0001417379Y0002674967D01*
X0001417156Y0002674077D01*
X0001416847Y0002673213D01*
X0001416454Y0002672383D01*
X0001415983Y0002671596D01*
X0001415436Y0002670859D01*
X0001414820Y0002670179D01*
X0001414140Y0002669563D01*
X0001413403Y0002669016D01*
X0001412616Y0002668545D01*
X0001411786Y0002668152D01*
X0001410922Y0002667843D01*
X0001410032Y0002667620D01*
X0001409125Y0002667485D01*
X0001408208Y0002667440D01*
X0001389507Y0002667440D01*
X0001388591Y0002667485D01*
X0001387683Y0002667620D01*
X0001386793Y0002667843D01*
X0001385929Y0002668152D01*
X0001385100Y0002668545D01*
X0001384313Y0002669016D01*
X0001383576Y0002669563D01*
X0001382896Y0002670179D01*
X0001382279Y0002670859D01*
X0001381733Y0002671596D01*
X0001381261Y0002672383D01*
X0001380869Y0002673213D01*
X0001380560Y0002674077D01*
X0001380337Y0002674967D01*
X0001380202Y0002675874D01*
X0001380157Y0002676791D01*
X0001380157Y0002699429D01*
X0001380202Y0002700345D01*
X0001380337Y0002701253D01*
X0001380560Y0002702143D01*
X0001380869Y0002703007D01*
X0001381261Y0002703836D01*
X0001381733Y0002704623D01*
X0001382279Y0002705360D01*
X0001382896Y0002706040D01*
X0001383576Y0002706657D01*
X0001384313Y0002707203D01*
X0001385100Y0002707675D01*
X0001385929Y0002708067D01*
X0001386793Y0002708376D01*
X0001387683Y0002708599D01*
X0001388591Y0002708734D01*
X0001389507Y0002708779D01*
X0001408208Y0002708779D01*
X0001409125Y0002708734D01*
X0001409125Y0002708734D01*
G37*
D17*
X0001398858Y0002688110D03*
D10*
G36*
X0001409125Y0002639836D02*
G01*
X0001410032Y0002639702D01*
X0001410922Y0002639479D01*
X0001411786Y0002639170D01*
X0001412616Y0002638777D01*
X0001413403Y0002638306D01*
X0001414140Y0002637759D01*
X0001414820Y0002637143D01*
X0001415436Y0002636463D01*
X0001415983Y0002635726D01*
X0001416454Y0002634939D01*
X0001416847Y0002634109D01*
X0001417156Y0002633245D01*
X0001417379Y0002632355D01*
X0001417513Y0002631447D01*
X0001417559Y0002630531D01*
X0001417559Y0002607893D01*
X0001417513Y0002606977D01*
X0001417379Y0002606069D01*
X0001417156Y0002605179D01*
X0001416847Y0002604315D01*
X0001416454Y0002603485D01*
X0001415983Y0002602698D01*
X0001415436Y0002601961D01*
X0001414820Y0002601281D01*
X0001414140Y0002600665D01*
X0001413403Y0002600119D01*
X0001412616Y0002599647D01*
X0001411786Y0002599255D01*
X0001410922Y0002598945D01*
X0001410032Y0002598722D01*
X0001409125Y0002598588D01*
X0001408208Y0002598543D01*
X0001389507Y0002598543D01*
X0001388591Y0002598588D01*
X0001387683Y0002598722D01*
X0001386793Y0002598945D01*
X0001385929Y0002599255D01*
X0001385100Y0002599647D01*
X0001384313Y0002600119D01*
X0001383576Y0002600665D01*
X0001382896Y0002601281D01*
X0001382279Y0002601961D01*
X0001381733Y0002602698D01*
X0001381261Y0002603485D01*
X0001380869Y0002604315D01*
X0001380560Y0002605179D01*
X0001380337Y0002606069D01*
X0001380202Y0002606977D01*
X0001380157Y0002607893D01*
X0001380157Y0002630531D01*
X0001380202Y0002631447D01*
X0001380337Y0002632355D01*
X0001380560Y0002633245D01*
X0001380869Y0002634109D01*
X0001381261Y0002634939D01*
X0001381733Y0002635726D01*
X0001382279Y0002636463D01*
X0001382896Y0002637143D01*
X0001383576Y0002637759D01*
X0001384313Y0002638306D01*
X0001385100Y0002638777D01*
X0001385929Y0002639170D01*
X0001386793Y0002639479D01*
X0001387683Y0002639702D01*
X0001388591Y0002639836D01*
X0001389507Y0002639881D01*
X0001408208Y0002639881D01*
X0001409125Y0002639836D01*
X0001409125Y0002639836D01*
G37*
D17*
X0001398858Y0002619212D03*
D10*
G36*
X0001436762Y0003160151D02*
G01*
X0001437670Y0003160017D01*
X0001438560Y0003159794D01*
X0001439424Y0003159485D01*
X0001440254Y0003159092D01*
X0001441041Y0003158621D01*
X0001441778Y0003158074D01*
X0001442458Y0003157458D01*
X0001443074Y0003156778D01*
X0001443620Y0003156041D01*
X0001444092Y0003155254D01*
X0001444485Y0003154424D01*
X0001444794Y0003153560D01*
X0001445017Y0003152670D01*
X0001445151Y0003151762D01*
X0001445196Y0003150846D01*
X0001445196Y0003132145D01*
X0001445151Y0003131229D01*
X0001445017Y0003130321D01*
X0001444794Y0003129431D01*
X0001444485Y0003128567D01*
X0001444092Y0003127737D01*
X0001443620Y0003126950D01*
X0001443074Y0003126213D01*
X0001442458Y0003125533D01*
X0001441778Y0003124917D01*
X0001441041Y0003124371D01*
X0001440254Y0003123899D01*
X0001439424Y0003123507D01*
X0001438560Y0003123197D01*
X0001437670Y0003122974D01*
X0001436762Y0003122840D01*
X0001435846Y0003122795D01*
X0001413208Y0003122795D01*
X0001412292Y0003122840D01*
X0001411384Y0003122974D01*
X0001410494Y0003123197D01*
X0001409630Y0003123507D01*
X0001408800Y0003123899D01*
X0001408013Y0003124371D01*
X0001407276Y0003124917D01*
X0001406596Y0003125533D01*
X0001405980Y0003126213D01*
X0001405434Y0003126950D01*
X0001404962Y0003127737D01*
X0001404569Y0003128567D01*
X0001404260Y0003129431D01*
X0001404037Y0003130321D01*
X0001403903Y0003131229D01*
X0001403858Y0003132145D01*
X0001403858Y0003150846D01*
X0001403903Y0003151762D01*
X0001404037Y0003152670D01*
X0001404260Y0003153560D01*
X0001404569Y0003154424D01*
X0001404962Y0003155254D01*
X0001405434Y0003156041D01*
X0001405980Y0003156778D01*
X0001406596Y0003157458D01*
X0001407276Y0003158074D01*
X0001408013Y0003158621D01*
X0001408800Y0003159092D01*
X0001409630Y0003159485D01*
X0001410494Y0003159794D01*
X0001411384Y0003160017D01*
X0001412292Y0003160151D01*
X0001413208Y0003160196D01*
X0001435846Y0003160196D01*
X0001436762Y0003160151D01*
X0001436762Y0003160151D01*
G37*
D17*
X0001424527Y0003141496D03*
D10*
G36*
X0001505660Y0003160151D02*
G01*
X0001506568Y0003160017D01*
X0001507458Y0003159794D01*
X0001508322Y0003159485D01*
X0001509151Y0003159092D01*
X0001509938Y0003158621D01*
X0001510675Y0003158074D01*
X0001511355Y0003157458D01*
X0001511972Y0003156778D01*
X0001512518Y0003156041D01*
X0001512990Y0003155254D01*
X0001513382Y0003154424D01*
X0001513691Y0003153560D01*
X0001513914Y0003152670D01*
X0001514049Y0003151762D01*
X0001514094Y0003150846D01*
X0001514094Y0003132145D01*
X0001514049Y0003131229D01*
X0001513914Y0003130321D01*
X0001513691Y0003129431D01*
X0001513382Y0003128567D01*
X0001512990Y0003127737D01*
X0001512518Y0003126950D01*
X0001511972Y0003126213D01*
X0001511355Y0003125533D01*
X0001510675Y0003124917D01*
X0001509938Y0003124371D01*
X0001509151Y0003123899D01*
X0001508322Y0003123507D01*
X0001507458Y0003123197D01*
X0001506568Y0003122974D01*
X0001505660Y0003122840D01*
X0001504744Y0003122795D01*
X0001482106Y0003122795D01*
X0001481189Y0003122840D01*
X0001480282Y0003122974D01*
X0001479392Y0003123197D01*
X0001478528Y0003123507D01*
X0001477698Y0003123899D01*
X0001476911Y0003124371D01*
X0001476174Y0003124917D01*
X0001475494Y0003125533D01*
X0001474878Y0003126213D01*
X0001474331Y0003126950D01*
X0001473860Y0003127737D01*
X0001473467Y0003128567D01*
X0001473158Y0003129431D01*
X0001472935Y0003130321D01*
X0001472800Y0003131229D01*
X0001472755Y0003132145D01*
X0001472755Y0003150846D01*
X0001472800Y0003151762D01*
X0001472935Y0003152670D01*
X0001473158Y0003153560D01*
X0001473467Y0003154424D01*
X0001473860Y0003155254D01*
X0001474331Y0003156041D01*
X0001474878Y0003156778D01*
X0001475494Y0003157458D01*
X0001476174Y0003158074D01*
X0001476911Y0003158621D01*
X0001477698Y0003159092D01*
X0001478528Y0003159485D01*
X0001479392Y0003159794D01*
X0001480282Y0003160017D01*
X0001481189Y0003160151D01*
X0001482106Y0003160196D01*
X0001504744Y0003160196D01*
X0001505660Y0003160151D01*
X0001505660Y0003160151D01*
G37*
D17*
X0001493425Y0003141496D03*
D19*
X0002003503Y0003355354D03*
X0001408504Y0003301922D03*
X0001375708Y0002820275D03*
X0002045196Y0002942480D03*
X0002019606Y0002791102D03*
X0001854212Y0003305000D03*
X0001627813Y0003276850D03*
X0001878961Y0002565510D03*
X0001468433Y0002748976D03*
X0001448677Y0002539765D03*
X0001575456Y0002768787D03*
X0001694155Y0002757480D03*
X0001481312Y0002878519D03*
X0001771299Y0002620236D03*
X0001995984Y0002561220D03*
X0001843721Y0003113068D03*
X0002194312Y0003187716D03*
X0001963818Y0002644251D03*
X0001668543Y0002620354D03*
X0001603716Y0003174936D03*
X0002109566Y0003242637D03*
X0001961811Y0002912519D03*
X0001654521Y0003428908D03*
X0001388426Y0003110277D03*
X0001593089Y0003384960D03*
X0001299606Y0003157086D03*
X0001569144Y0003027507D03*
X0001448661Y0002701731D03*
X0001319330Y0002597440D03*
X0001806850Y0003097007D03*
X0001767551Y0002882943D03*
X0002165590Y0003132165D03*
X0001879101Y0003131946D03*
X0002217934Y0003362205D03*
X0002257728Y0003355818D03*
X0001812795Y0003242834D03*
X0001734753Y0002793625D03*
X0001836417Y0003207401D03*
X0001760866Y0002760275D03*
X0001542519Y0003140275D03*
X0001577397Y0003123424D03*
X0001680420Y0003194153D03*
X0001734377Y0003166174D03*
X0001769645Y0003367717D03*
X0001908579Y0003416400D03*
X0001799306Y0003397810D03*
X0001878784Y0003426613D03*
X0002174850Y0003385007D03*
X0001372047Y0003381453D03*
X0001722598Y0003399409D03*
X0001582322Y0003432204D03*
X0001373857Y0002949943D03*
X0001527011Y0003005273D03*
X0002143936Y0003378976D03*
X0001698034Y0003378934D03*
X0001359510Y0002638879D03*
X0001332304Y0002753991D03*
X0001597047Y0002516807D03*
X0001396959Y0002533494D03*
X0001565558Y0002516142D03*
X0001541952Y0003311145D03*
X0001325196Y0003302322D03*
X0001467085Y0002975789D03*
X0001575144Y0003313640D03*
X0001435591Y0002975451D03*
X0001766868Y0002500709D03*
X0001695787Y0002795669D03*
X0001627019Y0002780983D03*
X0002217934Y0003162204D03*
X0001323896Y0002677658D03*
X0001742992Y0002863222D03*
X0001598976Y0002943620D03*
X0001334134Y0002719116D03*
X0001760074Y0002835448D03*
X0001617913Y0002889055D03*
D20*
X0001634842Y0003005157D02*
X0001729330Y0003005157D01*
X0001424527Y0003206811D02*
X0001424527Y0003141496D01*
X0001431377Y0003213661D02*
X0001424527Y0003206811D01*
X0001431377Y0003273897D02*
X0001431377Y0003213661D01*
X0001634842Y0003228582D02*
X0001729330Y0003228582D01*
X0001634842Y0003295708D02*
X0001729330Y0003295708D01*
X0002088661Y0003022086D02*
X0002088661Y0002982716D01*
X0002088661Y0002982716D02*
X0002048425Y0002942480D01*
X0001697834Y0003228582D02*
X0001697834Y0003295708D01*
X0002048425Y0002942480D02*
X0002045196Y0002942480D01*
X0001608189Y0003285957D02*
X0001608189Y0003285354D01*
X0001617941Y0003295708D02*
X0001608189Y0003285957D01*
X0001634842Y0003295708D02*
X0001617941Y0003295708D01*
X0001608189Y0003285354D02*
X0001534336Y0003285354D01*
X0001431377Y0003273897D02*
X0001408504Y0003296770D01*
X0001408504Y0003296770D02*
X0001408504Y0003301922D01*
X0001430805Y0003307519D02*
X0001425208Y0003301922D01*
X0001534336Y0003285354D02*
X0001512171Y0003307519D01*
X0001512171Y0003307519D02*
X0001430805Y0003307519D01*
X0001425208Y0003301922D02*
X0001408504Y0003301922D01*
X0002045196Y0002942480D02*
X0002045196Y0002942480D01*
X0002057165Y0002687440D02*
X0002057165Y0002753543D01*
X0002057165Y0002753543D02*
X0002031417Y0002779291D01*
X0002031417Y0002779291D02*
X0002019606Y0002791102D01*
X0002019606Y0002752244D02*
X0002019606Y0002791102D01*
X0001994173Y0002687440D02*
X0001994173Y0002726811D01*
X0001994173Y0002726811D02*
X0002019606Y0002752244D01*
X0002019606Y0002791102D02*
X0002057165Y0002753543D01*
X0002042677Y0002814173D02*
X0002019606Y0002791102D01*
X0002045196Y0002942480D02*
X0002042677Y0002939960D01*
X0002042677Y0002939960D02*
X0002042677Y0002814173D01*
X0001875984Y0003284842D02*
X0001858267Y0003284842D01*
X0001892756Y0003343543D02*
X0001866023Y0003316810D01*
X0001858267Y0003284842D02*
X0001854212Y0003288897D01*
X0001854212Y0003288897D02*
X0001854212Y0003305000D01*
X0001844921Y0003295708D02*
X0001854212Y0003305000D01*
X0001729330Y0003295708D02*
X0001844921Y0003295708D01*
X0001991692Y0003343543D02*
X0001892756Y0003343543D01*
X0002003503Y0003355354D02*
X0001991692Y0003343543D01*
X0001866023Y0003316810D02*
X0001854212Y0003305000D01*
X0001616002Y0003288661D02*
X0001627813Y0003276850D01*
X0001608189Y0003285354D02*
X0001611497Y0003288661D01*
X0001611497Y0003288661D02*
X0001616002Y0003288661D01*
X0001320236Y0002875747D02*
X0001363897Y0002832086D01*
X0001557806Y0003051129D02*
X0001546085Y0003039409D01*
X0001594775Y0003051129D02*
X0001557806Y0003051129D01*
X0001361889Y0003039409D02*
X0001320236Y0002997755D01*
X0001363897Y0002832086D02*
X0001375708Y0002820275D01*
X0001634842Y0003005157D02*
X0001634842Y0003011062D01*
X0001634842Y0003011062D02*
X0001594775Y0003051129D01*
X0001320236Y0002997755D02*
X0001320236Y0002875747D01*
X0001546085Y0003039409D02*
X0001361889Y0003039409D01*
X0001469055Y0002778779D02*
X0001469055Y0002749597D01*
X0001469055Y0002749597D02*
X0001468433Y0002748976D01*
X0001375708Y0002820275D02*
X0001375708Y0002820275D01*
X0001375708Y0002777440D02*
X0001375708Y0002820275D01*
X0001468433Y0002748976D02*
X0001404173Y0002748976D01*
X0001404173Y0002748976D02*
X0001375708Y0002777440D01*
X0001615784Y0002533031D02*
X0001608386Y0002540429D01*
X0001878961Y0002565510D02*
X0001853530Y0002540079D01*
X0001749006Y0002540079D02*
X0001741958Y0002533031D01*
X0001465380Y0002539765D02*
X0001448677Y0002539765D01*
X0001466045Y0002540429D02*
X0001465380Y0002539765D01*
X0001608386Y0002540429D02*
X0001466045Y0002540429D01*
X0001741958Y0002533031D02*
X0001615784Y0002533031D01*
X0001853530Y0002540079D02*
X0001749006Y0002540079D01*
X0001575354Y0002806338D02*
X0001575354Y0002768890D01*
X0001575354Y0002768890D02*
X0001575456Y0002768787D01*
X0001687415Y0002758976D02*
X0001688911Y0002757480D01*
X0001688911Y0002757480D02*
X0001694155Y0002757480D01*
X0001693651Y0002756976D02*
X0001694155Y0002757480D01*
X0001575456Y0002768787D02*
X0001587267Y0002756976D01*
X0001587267Y0002756976D02*
X0001693651Y0002756976D01*
X0001670590Y0002611811D02*
X0001676496Y0002611811D01*
X0001580039Y0002702362D02*
X0001670590Y0002611811D01*
X0001562322Y0002702362D02*
X0001580039Y0002702362D01*
X0001548149Y0002688188D02*
X0001562322Y0002702362D01*
X0001469448Y0002688188D02*
X0001548149Y0002688188D01*
X0001684015Y0002619330D02*
X0001676496Y0002611811D01*
X0001764685Y0002619330D02*
X0001684015Y0002619330D01*
X0001467834Y0002688188D02*
X0001469448Y0002688188D01*
X0001398858Y0002619212D02*
X0001467834Y0002688188D01*
X0001493425Y0003206811D02*
X0001493425Y0003141496D01*
X0001493425Y0003272125D02*
X0001495196Y0003273897D01*
X0001493425Y0003206811D02*
X0001493425Y0003272125D01*
X0002025669Y0002648070D02*
X0002025669Y0002687440D01*
X0001962677Y0002648070D02*
X0001974370Y0002636377D01*
X0001962677Y0002687440D02*
X0001962677Y0002648070D01*
X0002013976Y0002636377D02*
X0002025669Y0002648070D01*
X0001974370Y0002636377D02*
X0002013976Y0002636377D01*
X0001765590Y0002620236D02*
X0001764685Y0002619330D01*
X0001771299Y0002620236D02*
X0001765590Y0002620236D01*
X0001995984Y0002562716D02*
X0001990078Y0002568622D01*
X0001995984Y0002561220D02*
X0001995984Y0002562716D01*
X0002194312Y0003201438D02*
X0002230078Y0003237204D01*
X0002194312Y0003187716D02*
X0002194312Y0003201438D01*
X0001963818Y0002686299D02*
X0001962677Y0002687440D01*
X0001963818Y0002644251D02*
X0001963818Y0002686299D01*
X0001676496Y0002611811D02*
X0001668543Y0002619763D01*
X0001668543Y0002619763D02*
X0001668543Y0002620354D01*
X0001493425Y0003206811D02*
X0001525299Y0003174936D01*
X0001587012Y0003174936D02*
X0001603716Y0003174936D01*
X0001525299Y0003174936D02*
X0001587012Y0003174936D01*
X0001962677Y0002911653D02*
X0001961811Y0002912519D01*
X0001994173Y0002944881D02*
X0001973622Y0002924330D01*
X0001994173Y0003022086D02*
X0001994173Y0002944881D01*
X0001962677Y0002687440D02*
X0001962677Y0002911653D01*
X0001973622Y0002924330D02*
X0001961811Y0002912519D01*
X0002136929Y0003270000D02*
X0002109566Y0003242637D01*
X0002230078Y0003237204D02*
X0002197283Y0003270000D01*
X0002197283Y0003270000D02*
X0002136929Y0003270000D01*
X0001462206Y0003110277D02*
X0001405129Y0003110277D01*
X0001405129Y0003110277D02*
X0001388426Y0003110277D01*
X0001493425Y0003141496D02*
X0001462206Y0003110277D01*
X0002252874Y0003111338D02*
X0002241556Y0003100021D01*
X0002252874Y0003189803D02*
X0002252874Y0003111338D01*
X0002230078Y0003237204D02*
X0002230078Y0003212598D01*
X0002230078Y0003212598D02*
X0002252874Y0003189803D01*
X0001915354Y0003164763D02*
X0001915354Y0003120472D01*
X0001900237Y0003105355D02*
X0001868137Y0003105355D01*
X0001868137Y0003105355D02*
X0001860424Y0003113068D01*
X0001915354Y0003120472D02*
X0001900237Y0003105355D01*
X0001860424Y0003113068D02*
X0001843721Y0003113068D01*
X0001826653Y0003027795D02*
X0001808740Y0003027795D01*
X0001872716Y0003073858D02*
X0001826653Y0003027795D01*
X0001981771Y0003073858D02*
X0001872716Y0003073858D01*
X0001994173Y0003022086D02*
X0001994173Y0003061456D01*
X0001994173Y0003061456D02*
X0001981771Y0003073858D01*
X0001610573Y0003384960D02*
X0001609792Y0003384960D01*
X0001609792Y0003384960D02*
X0001593089Y0003384960D01*
X0001654521Y0003428908D02*
X0001610573Y0003384960D01*
X0001482870Y0002880078D02*
X0001481312Y0002878519D01*
X0001513582Y0002880078D02*
X0001482870Y0002880078D01*
X0001528110Y0002932322D02*
X0001528110Y0002894606D01*
X0001528110Y0002894606D02*
X0001513582Y0002880078D01*
X0001528110Y0002972965D02*
X0001557333Y0003002189D01*
X0001557333Y0003002189D02*
X0001557333Y0003015696D01*
X0001557333Y0003015696D02*
X0001569144Y0003027507D01*
X0001528110Y0002932322D02*
X0001528110Y0002972965D01*
X0001575354Y0003021298D02*
X0001569144Y0003027507D01*
X0001575354Y0002904763D02*
X0001575354Y0003021298D01*
X0001469448Y0002688188D02*
X0001462204Y0002688188D01*
X0001460472Y0002689920D02*
X0001448661Y0002701731D01*
X0001462204Y0002688188D02*
X0001460472Y0002689920D01*
X0001488740Y0002803543D02*
X0001488740Y0002778779D01*
X0001488740Y0002824409D02*
X0001488740Y0002803543D01*
X0001481312Y0002878519D02*
X0001481312Y0002831837D01*
X0001481312Y0002831837D02*
X0001488740Y0002824409D01*
X0001528897Y0002735787D02*
X0001562322Y0002702362D01*
X0001528897Y0002766102D02*
X0001528897Y0002735787D01*
X0001528110Y0002766889D02*
X0001528897Y0002766102D01*
X0001528110Y0002778779D02*
X0001528110Y0002766889D01*
X0001742483Y0002555828D02*
X0001735473Y0002548818D01*
X0001735473Y0002548818D02*
X0001622269Y0002548818D01*
X0001622269Y0002548818D02*
X0001607700Y0002563387D01*
X0001861404Y0002589132D02*
X0001828099Y0002555828D01*
X0001607700Y0002563387D02*
X0001454683Y0002563387D01*
X0001418506Y0002599564D02*
X0001398858Y0002619212D01*
X0001454683Y0002563387D02*
X0001418506Y0002599564D01*
X0001828099Y0002555828D02*
X0001742483Y0002555828D01*
X0001969568Y0002589132D02*
X0001861404Y0002589132D01*
X0001990078Y0002568622D02*
X0001969568Y0002589132D01*
X0001707970Y0002476771D02*
X0001385973Y0002476771D01*
X0001945787Y0002524331D02*
X0001755529Y0002524331D01*
X0001990078Y0002568622D02*
X0001945787Y0002524331D01*
X0001385973Y0002476771D02*
X0001319330Y0002543414D01*
X0001319330Y0002580737D02*
X0001319330Y0002597440D01*
X0001755529Y0002524331D02*
X0001707970Y0002476771D01*
X0001319330Y0002543414D02*
X0001319330Y0002580737D01*
X0001509251Y0002776653D02*
X0001509251Y0002791417D01*
X0001509251Y0002747322D02*
X0001509251Y0002776653D01*
X0001487283Y0002725354D02*
X0001509251Y0002747322D01*
X0001411496Y0002725354D02*
X0001487283Y0002725354D01*
X0001398858Y0002688110D02*
X0001398858Y0002712716D01*
X0001398858Y0002712716D02*
X0001411496Y0002725354D01*
X0001431377Y0003342795D02*
X0001495196Y0003342795D01*
X0001842598Y0002839015D02*
X0001803228Y0002839015D01*
X0001803228Y0002839015D02*
X0001767551Y0002874692D01*
X0001767551Y0002874692D02*
X0001767551Y0002882943D01*
X0001848279Y0003089606D02*
X0001923858Y0003089606D01*
X0001923858Y0003089606D02*
X0001954724Y0003120472D01*
X0001806850Y0003097007D02*
X0001818661Y0003085196D01*
X0001954724Y0003120472D02*
X0001954724Y0003164763D01*
X0001843870Y0003085196D02*
X0001848279Y0003089606D01*
X0001818661Y0003085196D02*
X0001843870Y0003085196D01*
X0001362401Y0003097913D02*
X0001362401Y0003296456D01*
X0001362401Y0003296456D02*
X0001408740Y0003342795D01*
X0001790147Y0003097007D02*
X0001788779Y0003098375D01*
X0001538236Y0003098375D02*
X0001526516Y0003086654D01*
X0001408740Y0003342795D02*
X0001431377Y0003342795D01*
X0001526516Y0003086654D02*
X0001373659Y0003086654D01*
X0001806850Y0003097007D02*
X0001790147Y0003097007D01*
X0001788779Y0003098375D02*
X0001538236Y0003098375D01*
X0001373659Y0003086654D02*
X0001362401Y0003097913D01*
X0001690629Y0002688228D02*
X0001676496Y0002702362D01*
X0001764685Y0002688228D02*
X0001690629Y0002688228D01*
X0002088661Y0002648070D02*
X0002088661Y0002687440D01*
X0001832283Y0002620629D02*
X0002061220Y0002620629D01*
X0001764685Y0002688228D02*
X0001832283Y0002620629D01*
X0002061220Y0002620629D02*
X0002088661Y0002648070D01*
X0001476929Y0002611811D02*
X0001469448Y0002619291D01*
X0001562322Y0002611811D02*
X0001476929Y0002611811D01*
X0001581548Y0002611811D02*
X0001628792Y0002564566D01*
X0001821576Y0002571576D02*
X0001854881Y0002604881D01*
X0001854881Y0002604881D02*
X0002076967Y0002604881D01*
X0002076967Y0002604881D02*
X0002120157Y0002648070D01*
X0001735960Y0002571576D02*
X0001821576Y0002571576D01*
X0001628792Y0002564566D02*
X0001728950Y0002564566D01*
X0001728950Y0002564566D02*
X0001735960Y0002571576D01*
X0002120157Y0002648070D02*
X0002120157Y0002687440D01*
X0001562322Y0002611811D02*
X0001581548Y0002611811D01*
X0002125826Y0002568622D02*
X0002126771Y0002567677D01*
X0002058976Y0002568622D02*
X0002125826Y0002568622D01*
X0002229763Y0003306417D02*
X0002230078Y0003306102D01*
X0002167283Y0003306417D02*
X0002229763Y0003306417D01*
X0002080561Y0003233898D02*
X0002165590Y0003148868D01*
X0002165590Y0003148868D02*
X0002165590Y0003132165D01*
X0002079487Y0003233898D02*
X0002080561Y0003233898D01*
X0002072834Y0003240551D02*
X0002079487Y0003233898D01*
X0002072834Y0003284842D02*
X0002072834Y0003240551D01*
X0001875984Y0003164763D02*
X0001879101Y0003161646D01*
X0001879101Y0003148649D02*
X0001879101Y0003131946D01*
X0001879101Y0003161646D02*
X0001879101Y0003148649D01*
X0001994094Y0003311417D02*
X0002038031Y0003355354D01*
X0002201231Y0003362205D02*
X0002217934Y0003362205D01*
X0002038031Y0003355354D02*
X0002194379Y0003355354D01*
X0002194379Y0003355354D02*
X0002201231Y0003362205D01*
X0001994094Y0003284842D02*
X0001994094Y0003311417D01*
X0002177244Y0002983700D02*
X0002177244Y0002965000D01*
X0002177244Y0003051259D02*
X0002177244Y0002983700D01*
X0002124291Y0003104212D02*
X0002177244Y0003051259D01*
X0002067440Y0003104212D02*
X0002124291Y0003104212D01*
X0002033464Y0003164763D02*
X0002033464Y0003138188D01*
X0002033464Y0003138188D02*
X0002067440Y0003104212D01*
X0002033464Y0003311417D02*
X0002060945Y0003338898D01*
X0002033464Y0003284842D02*
X0002033464Y0003311417D01*
X0002245917Y0003344007D02*
X0002257728Y0003355818D01*
X0002240493Y0003338583D02*
X0002245917Y0003344007D01*
X0002211962Y0003338583D02*
X0002240493Y0003338583D01*
X0002060945Y0003338898D02*
X0002211647Y0003338898D01*
X0002211647Y0003338898D02*
X0002211962Y0003338583D01*
X0001994094Y0003138188D02*
X0001994094Y0003164763D01*
X0002043819Y0003088464D02*
X0001994094Y0003138188D01*
X0002093150Y0003088464D02*
X0002043819Y0003088464D01*
X0002120157Y0003061456D02*
X0002093150Y0003088464D01*
X0002120157Y0003022086D02*
X0002120157Y0003061456D01*
X0001915354Y0003258267D02*
X0001888110Y0003231023D01*
X0001888110Y0003231023D02*
X0001824606Y0003231023D01*
X0001915354Y0003284842D02*
X0001915354Y0003258267D01*
X0001824606Y0003231023D02*
X0001812795Y0003242834D01*
X0001748647Y0002807519D02*
X0001746564Y0002805436D01*
X0001746564Y0002805436D02*
X0001734753Y0002793625D01*
X0001842598Y0002807519D02*
X0001748647Y0002807519D01*
X0001844290Y0003215275D02*
X0001836417Y0003207401D01*
X0001911731Y0003215275D02*
X0001844290Y0003215275D01*
X0001954724Y0003284842D02*
X0001954724Y0003258267D01*
X0001954724Y0003258267D02*
X0001911731Y0003215275D01*
X0001842598Y0002776023D02*
X0001776614Y0002776023D01*
X0001772677Y0002772086D02*
X0001760866Y0002760275D01*
X0001776614Y0002776023D02*
X0001772677Y0002772086D01*
X0002218582Y0002933503D02*
X0002177244Y0002933503D01*
X0002221535Y0002936456D02*
X0002218582Y0002933503D01*
X0002221535Y0003035747D02*
X0002221535Y0002936456D01*
X0002092519Y0003164763D02*
X0002221535Y0003035747D01*
X0002072834Y0003164763D02*
X0002092519Y0003164763D01*
X0001542519Y0003140275D02*
X0001549291Y0003147047D01*
X0001624173Y0003147047D02*
X0001634842Y0003157716D01*
X0001549291Y0003147047D02*
X0001624173Y0003147047D01*
X0001666338Y0003157716D02*
X0001666338Y0003134094D01*
X0001666338Y0003134094D02*
X0001655668Y0003123424D01*
X0001655668Y0003123424D02*
X0001594100Y0003123424D01*
X0001594100Y0003123424D02*
X0001577397Y0003123424D01*
X0001685019Y0003194153D02*
X0001680420Y0003194153D01*
X0001697834Y0003157716D02*
X0001697834Y0003181338D01*
X0001697834Y0003181338D02*
X0001685019Y0003194153D01*
X0001734377Y0003162762D02*
X0001734377Y0003166174D01*
X0001729330Y0003157716D02*
X0001734377Y0003162762D01*
X0001769645Y0003367717D02*
X0001826323Y0003367717D01*
X0001826323Y0003367717D02*
X0001852898Y0003394292D01*
X0001852898Y0003394292D02*
X0001886470Y0003394292D01*
X0001886470Y0003394292D02*
X0001896768Y0003404589D01*
X0001896768Y0003404589D02*
X0001908579Y0003416400D01*
X0001769645Y0003384420D02*
X0001769645Y0003367717D01*
X0001666338Y0003384712D02*
X0001704657Y0003423031D01*
X0001666338Y0003366574D02*
X0001666338Y0003384712D01*
X0001704657Y0003423031D02*
X0001733307Y0003423031D01*
X0001769645Y0003386693D02*
X0001769645Y0003384420D01*
X0001733307Y0003423031D02*
X0001769645Y0003386693D01*
X0001799306Y0003397810D02*
X0001828109Y0003426613D01*
X0001828109Y0003426613D02*
X0001862081Y0003426613D01*
X0001862081Y0003426613D02*
X0001878784Y0003426613D01*
X0001758337Y0003438780D02*
X0001787495Y0003409621D01*
X0001698134Y0003438780D02*
X0001758337Y0003438780D01*
X0001634842Y0003366574D02*
X0001634842Y0003375488D01*
X0001634842Y0003375488D02*
X0001698134Y0003438780D01*
X0001787495Y0003409621D02*
X0001799306Y0003397810D01*
X0002150763Y0003409094D02*
X0002163039Y0003396818D01*
X0001751810Y0003344094D02*
X0001824972Y0003344094D01*
X0001729330Y0003366574D02*
X0001751810Y0003344094D01*
X0002163039Y0003396818D02*
X0002174850Y0003385007D01*
X0001824972Y0003344094D02*
X0001859421Y0003378543D01*
X0001859421Y0003378543D02*
X0001914931Y0003378543D01*
X0001914931Y0003378543D02*
X0001945482Y0003409094D01*
X0001945482Y0003409094D02*
X0002150763Y0003409094D01*
X0001729330Y0003392677D02*
X0001722598Y0003399409D01*
X0001729330Y0003366574D02*
X0001729330Y0003392677D01*
X0001372047Y0003381453D02*
X0001422799Y0003432204D01*
X0001422799Y0003432204D02*
X0001565619Y0003432204D01*
X0001565619Y0003432204D02*
X0001582322Y0003432204D01*
X0001373857Y0002969397D02*
X0001422286Y0003017826D01*
X0001514459Y0003017826D02*
X0001515200Y0003017084D01*
X0001373857Y0002949943D02*
X0001373857Y0002969397D01*
X0001515200Y0003017084D02*
X0001527011Y0003005273D01*
X0001422286Y0003017826D02*
X0001514459Y0003017826D01*
X0001921454Y0003362795D02*
X0001937635Y0003378976D01*
X0001937635Y0003378976D02*
X0002127233Y0003378976D01*
X0001865944Y0003362795D02*
X0001921454Y0003362795D01*
X0001831496Y0003328346D02*
X0001865944Y0003362795D01*
X0001712440Y0003328346D02*
X0001831496Y0003328346D01*
X0001697834Y0003342952D02*
X0001712440Y0003328346D01*
X0002127233Y0003378976D02*
X0002143936Y0003378976D01*
X0001697834Y0003366574D02*
X0001697834Y0003342952D01*
X0001697834Y0003366574D02*
X0001697834Y0003378734D01*
X0001697834Y0003378734D02*
X0001698034Y0003378934D01*
X0001349007Y0002753991D02*
X0001332304Y0002753991D01*
X0001359510Y0002638879D02*
X0001363267Y0002642636D01*
X0001363267Y0002739731D02*
X0001349007Y0002753991D01*
X0001363267Y0002642636D02*
X0001363267Y0002739731D01*
X0001597047Y0002512874D02*
X0001597047Y0002516807D01*
X0001576693Y0002492520D02*
X0001597047Y0002512874D01*
X0001394172Y0002492520D02*
X0001576693Y0002492520D01*
X0001359510Y0002638879D02*
X0001359510Y0002527182D01*
X0001359510Y0002527182D02*
X0001394172Y0002492520D01*
X0001548854Y0002516142D02*
X0001565558Y0002516142D01*
X0001414311Y0002516142D02*
X0001548854Y0002516142D01*
X0001396959Y0002533494D02*
X0001414311Y0002516142D01*
X0001541952Y0003381394D02*
X0001532322Y0003391024D01*
X0001541952Y0003311145D02*
X0001541952Y0003381394D01*
X0001532322Y0003391024D02*
X0001428830Y0003391024D01*
X0001428830Y0003391024D02*
X0001351939Y0003314133D01*
X0001351939Y0003314133D02*
X0001337007Y0003314133D01*
X0001337007Y0003314133D02*
X0001325196Y0003302322D01*
X0001469055Y0002973820D02*
X0001467085Y0002975789D01*
X0001469055Y0002932322D02*
X0001469055Y0002973820D01*
X0001564881Y0003324133D02*
X0001564881Y0003323503D01*
X0001574745Y0003313640D02*
X0001575144Y0003313640D01*
X0001564881Y0003323503D02*
X0001574745Y0003313640D01*
X0001449370Y0002932322D02*
X0001435591Y0002946101D01*
X0001435591Y0002958748D02*
X0001435591Y0002975451D01*
X0001435591Y0002946101D02*
X0001435591Y0002958748D01*
X0002281350Y0003367156D02*
X0002281350Y0002590484D01*
X0001564881Y0003402003D02*
X0001571460Y0003408582D01*
X0001571460Y0003408582D02*
X0001599235Y0003408582D01*
X0001599235Y0003408582D02*
X0001645181Y0003454528D01*
X0001645181Y0003454528D02*
X0002193979Y0003454528D01*
X0002193979Y0003454528D02*
X0002281350Y0003367156D01*
X0002281350Y0002590484D02*
X0002191575Y0002500709D01*
X0002191575Y0002500709D02*
X0001783571Y0002500709D01*
X0001783571Y0002500709D02*
X0001766868Y0002500709D01*
X0001564881Y0003323503D02*
X0001564881Y0003402003D01*
X0001695787Y0002795669D02*
X0001681101Y0002780983D01*
X0001681101Y0002780983D02*
X0001643722Y0002780983D01*
X0001643722Y0002780983D02*
X0001627019Y0002780983D01*
X0001375708Y0002896273D02*
X0001375708Y0002889173D01*
X0001397480Y0002918045D02*
X0001375708Y0002896273D01*
X0001397480Y0002970748D02*
X0001397480Y0002918045D01*
X0001428809Y0003002077D02*
X0001397480Y0002970748D01*
X0001479969Y0003002077D02*
X0001428809Y0003002077D01*
X0001488740Y0002932322D02*
X0001490708Y0002934290D01*
X0001490708Y0002934290D02*
X0001490708Y0002991338D01*
X0001490708Y0002991338D02*
X0001479969Y0003002077D01*
X0002216614Y0002839015D02*
X0002177244Y0002839015D01*
X0002220551Y0002835078D02*
X0002216614Y0002839015D01*
X0002195669Y0002567677D02*
X0002220551Y0002592559D01*
X0002220551Y0002592559D02*
X0002220551Y0002835078D01*
X0002167283Y0003237519D02*
X0002167283Y0003179784D01*
X0002167283Y0003179784D02*
X0002184863Y0003162204D01*
X0002184863Y0003162204D02*
X0002217934Y0003162204D01*
X0001779289Y0002906565D02*
X0001791173Y0002894681D01*
X0001701938Y0002906565D02*
X0001779289Y0002906565D01*
X0001697834Y0002910669D02*
X0001701938Y0002906565D01*
X0001697834Y0002934291D02*
X0001697834Y0002910669D01*
X0001791173Y0002894681D02*
X0001791173Y0002882566D01*
X0001791173Y0002882566D02*
X0001803228Y0002870511D01*
X0001803228Y0002870511D02*
X0001842598Y0002870511D01*
X0001724223Y0003066878D02*
X0001551282Y0003066878D01*
X0001697834Y0002957913D02*
X0001708346Y0002968425D01*
X0001755944Y0003035157D02*
X0001724223Y0003066878D01*
X0001355366Y0003055157D02*
X0001304330Y0003004122D01*
X0001739421Y0002968425D02*
X0001755944Y0002984948D01*
X0001708346Y0002968425D02*
X0001739421Y0002968425D01*
X0001304330Y0002697224D02*
X0001312085Y0002689469D01*
X0001755944Y0002984948D02*
X0001755944Y0003035157D01*
X0001304330Y0003004122D02*
X0001304330Y0002697224D01*
X0001551282Y0003066878D02*
X0001539562Y0003055157D01*
X0001697834Y0002934291D02*
X0001697834Y0002957913D01*
X0001539562Y0003055157D02*
X0001355366Y0003055157D01*
X0001312085Y0002689469D02*
X0001323896Y0002677658D01*
X0001726289Y0002863222D02*
X0001742992Y0002863222D01*
X0001713785Y0002863222D02*
X0001726289Y0002863222D01*
X0001666338Y0002934291D02*
X0001666338Y0002910669D01*
X0001666338Y0002910669D02*
X0001713785Y0002863222D01*
X0001610787Y0002955431D02*
X0001598976Y0002943620D01*
X0001659015Y0002965236D02*
X0001620592Y0002965236D01*
X0001666338Y0002934291D02*
X0001666338Y0002957913D01*
X0001620592Y0002965236D02*
X0001610787Y0002955431D01*
X0001666338Y0002957913D02*
X0001659015Y0002965236D01*
X0001782782Y0002934291D02*
X0001815065Y0002902007D01*
X0001729330Y0002934291D02*
X0001782782Y0002934291D01*
X0001815065Y0002902007D02*
X0001842598Y0002902007D01*
X0001747047Y0002934291D02*
X0001771693Y0002958937D01*
X0001341260Y0002654036D02*
X0001347519Y0002660295D01*
X0001544759Y0003082626D02*
X0001533039Y0003070906D01*
X0001533039Y0003070906D02*
X0001348843Y0003070906D01*
X0001730747Y0003082626D02*
X0001544759Y0003082626D01*
X0001348843Y0003070906D02*
X0001288582Y0003010645D01*
X0001288582Y0003010645D02*
X0001288582Y0002672598D01*
X0001307144Y0002654036D02*
X0001341260Y0002654036D01*
X0001347519Y0002660295D02*
X0001347519Y0002705731D01*
X0001771693Y0003041680D02*
X0001730747Y0003082626D01*
X0001347519Y0002705731D02*
X0001345945Y0002707305D01*
X0001345945Y0002707305D02*
X0001334134Y0002719116D01*
X0001771693Y0002958937D02*
X0001771693Y0003041680D01*
X0001288582Y0002672598D02*
X0001307144Y0002654036D01*
X0001729330Y0002934291D02*
X0001747047Y0002934291D01*
X0001634842Y0002910669D02*
X0001710063Y0002835448D01*
X0001710063Y0002835448D02*
X0001743370Y0002835448D01*
X0001743370Y0002835448D02*
X0001760074Y0002835448D01*
X0001634842Y0002905984D02*
X0001629724Y0002900866D01*
X0001629724Y0002900866D02*
X0001617913Y0002889055D01*
X0001634842Y0002910669D02*
X0001634842Y0002905984D01*
X0001634842Y0002934291D02*
X0001634842Y0002910669D01*
G36*
X0001292541Y0002640800D02*
G01*
X0001293157Y0002640049D01*
X0001293908Y0002639433D01*
X0001293908Y0002639433D01*
X0001296155Y0002637589D01*
X0001299574Y0002635761D01*
X0001299575Y0002635761D01*
X0001303285Y0002634636D01*
X0001306177Y0002634351D01*
X0001307144Y0002634256D01*
X0001308111Y0002634351D01*
X0001332311Y0002634351D01*
X0001333010Y0002630840D01*
X0001335087Y0002625825D01*
X0001338103Y0002621311D01*
X0001339825Y0002619589D01*
X0001339825Y0002528149D01*
X0001339730Y0002527182D01*
X0001340110Y0002523323D01*
X0001341039Y0002520259D01*
X0001341235Y0002519612D01*
X0001343063Y0002516193D01*
X0001345523Y0002513195D01*
X0001346274Y0002512579D01*
X0001379569Y0002479284D01*
X0001380185Y0002478533D01*
X0001383183Y0002476073D01*
X0001386603Y0002474245D01*
X0001390313Y0002473119D01*
X0001393205Y0002472835D01*
X0001393206Y0002472835D01*
X0001394172Y0002472739D01*
X0001395139Y0002472835D01*
X0001575726Y0002472835D01*
X0001576693Y0002472739D01*
X0001577660Y0002472835D01*
X0001580552Y0002473119D01*
X0001584262Y0002474245D01*
X0001587682Y0002476073D01*
X0001590680Y0002478533D01*
X0001591296Y0002479284D01*
X0001601632Y0002489620D01*
X0001605086Y0002490307D01*
X0001610101Y0002492385D01*
X0001614615Y0002495401D01*
X0001618454Y0002499239D01*
X0001621470Y0002503753D01*
X0001623547Y0002508769D01*
X0001624458Y0002513346D01*
X0001740991Y0002513346D01*
X0001741958Y0002513251D01*
X0001742245Y0002513279D01*
X0001740368Y0002508747D01*
X0001739309Y0002503423D01*
X0001739309Y0002497994D01*
X0001740368Y0002492670D01*
X0001742445Y0002487654D01*
X0001745461Y0002483141D01*
X0001749300Y0002479302D01*
X0001753814Y0002476286D01*
X0001758829Y0002474209D01*
X0001764154Y0002473150D01*
X0001769582Y0002473150D01*
X0001774907Y0002474209D01*
X0001779922Y0002476286D01*
X0001784436Y0002479302D01*
X0001786157Y0002481024D01*
X0002190608Y0002481024D01*
X0002191575Y0002480928D01*
X0002192542Y0002481024D01*
X0002195434Y0002481308D01*
X0002199144Y0002482434D01*
X0002202564Y0002484262D01*
X0002205561Y0002486722D01*
X0002206178Y0002487473D01*
X0002207563Y0002488858D01*
X0002212833Y0002488858D01*
X0002193423Y0002469448D01*
X0001385779Y0002469448D01*
X0001365285Y0002471458D01*
X0001346359Y0002477172D01*
X0001328903Y0002486453D01*
X0001313582Y0002498948D01*
X0001300981Y0002514181D01*
X0001291577Y0002531572D01*
X0001285731Y0002550457D01*
X0001283582Y0002570906D01*
X0001283582Y0002649759D01*
X0001292541Y0002640800D01*
X0001292541Y0002640800D01*
G37*
X0001292541Y0002640800D02*
X0001293157Y0002640049D01*
X0001293908Y0002639433D01*
X0001293908Y0002639433D01*
X0001296155Y0002637589D01*
X0001299574Y0002635761D01*
X0001299575Y0002635761D01*
X0001303285Y0002634636D01*
X0001306177Y0002634351D01*
X0001307144Y0002634256D01*
X0001308111Y0002634351D01*
X0001332311Y0002634351D01*
X0001333010Y0002630840D01*
X0001335087Y0002625825D01*
X0001338103Y0002621311D01*
X0001339825Y0002619589D01*
X0001339825Y0002528149D01*
X0001339730Y0002527182D01*
X0001340110Y0002523323D01*
X0001341039Y0002520259D01*
X0001341235Y0002519612D01*
X0001343063Y0002516193D01*
X0001345523Y0002513195D01*
X0001346274Y0002512579D01*
X0001379569Y0002479284D01*
X0001380185Y0002478533D01*
X0001383183Y0002476073D01*
X0001386603Y0002474245D01*
X0001390313Y0002473119D01*
X0001393205Y0002472835D01*
X0001393206Y0002472835D01*
X0001394172Y0002472739D01*
X0001395139Y0002472835D01*
X0001575726Y0002472835D01*
X0001576693Y0002472739D01*
X0001577660Y0002472835D01*
X0001580552Y0002473119D01*
X0001584262Y0002474245D01*
X0001587682Y0002476073D01*
X0001590680Y0002478533D01*
X0001591296Y0002479284D01*
X0001601632Y0002489620D01*
X0001605086Y0002490307D01*
X0001610101Y0002492385D01*
X0001614615Y0002495401D01*
X0001618454Y0002499239D01*
X0001621470Y0002503753D01*
X0001623547Y0002508769D01*
X0001624458Y0002513346D01*
X0001740991Y0002513346D01*
X0001741958Y0002513251D01*
X0001742245Y0002513279D01*
X0001740368Y0002508747D01*
X0001739309Y0002503423D01*
X0001739309Y0002497994D01*
X0001740368Y0002492670D01*
X0001742445Y0002487654D01*
X0001745461Y0002483141D01*
X0001749300Y0002479302D01*
X0001753814Y0002476286D01*
X0001758829Y0002474209D01*
X0001764154Y0002473150D01*
X0001769582Y0002473150D01*
X0001774907Y0002474209D01*
X0001779922Y0002476286D01*
X0001784436Y0002479302D01*
X0001786157Y0002481024D01*
X0002190608Y0002481024D01*
X0002191575Y0002480928D01*
X0002192542Y0002481024D01*
X0002195434Y0002481308D01*
X0002199144Y0002482434D01*
X0002202564Y0002484262D01*
X0002205561Y0002486722D01*
X0002206178Y0002487473D01*
X0002207563Y0002488858D01*
X0002212833Y0002488858D01*
X0002193423Y0002469448D01*
X0001385779Y0002469448D01*
X0001365285Y0002471458D01*
X0001346359Y0002477172D01*
X0001328903Y0002486453D01*
X0001313582Y0002498948D01*
X0001300981Y0002514181D01*
X0001291577Y0002531572D01*
X0001285731Y0002550457D01*
X0001283582Y0002570906D01*
X0001283582Y0002649759D01*
X0001292541Y0002640800D01*
G36*
X0001505236Y0002708267D02*
G01*
X0001509173Y0002704330D01*
X0001560354Y0002704330D01*
X0001560354Y0002705118D01*
X0001564291Y0002705118D01*
X0001564291Y0002704330D01*
X0001565078Y0002704330D01*
X0001565078Y0002700393D01*
X0001564291Y0002700393D01*
X0001564291Y0002699606D01*
X0001560354Y0002699606D01*
X0001560354Y0002700393D01*
X0001509173Y0002700393D01*
X0001505236Y0002696456D01*
X0001505160Y0002666929D01*
X0001505464Y0002663841D01*
X0001506364Y0002660873D01*
X0001507826Y0002658137D01*
X0001508689Y0002657086D01*
X0001507826Y0002656035D01*
X0001506364Y0002653299D01*
X0001505464Y0002650331D01*
X0001505160Y0002647244D01*
X0001505160Y0002631496D01*
X0001503886Y0002631496D01*
X0001503490Y0002635521D01*
X0001502057Y0002640244D01*
X0001499731Y0002644596D01*
X0001496600Y0002648411D01*
X0001492785Y0002651542D01*
X0001491678Y0002652133D01*
X0001494205Y0002652900D01*
X0001496941Y0002654362D01*
X0001499339Y0002656330D01*
X0001501306Y0002658728D01*
X0001502769Y0002661464D01*
X0001503669Y0002664432D01*
X0001503973Y0002667519D01*
X0001503897Y0002682283D01*
X0001499960Y0002686220D01*
X0001471417Y0002686220D01*
X0001471417Y0002685433D01*
X0001467480Y0002685433D01*
X0001467480Y0002686220D01*
X0001438937Y0002686220D01*
X0001435000Y0002682283D01*
X0001434923Y0002667519D01*
X0001435227Y0002664432D01*
X0001436128Y0002661464D01*
X0001437590Y0002658728D01*
X0001439558Y0002656330D01*
X0001441956Y0002654362D01*
X0001444692Y0002652900D01*
X0001447218Y0002652133D01*
X0001446112Y0002651542D01*
X0001442297Y0002648411D01*
X0001439166Y0002644596D01*
X0001436840Y0002640244D01*
X0001435407Y0002635521D01*
X0001434923Y0002630610D01*
X0001434923Y0002607972D01*
X0001435407Y0002603061D01*
X0001436840Y0002598338D01*
X0001439166Y0002593986D01*
X0001442297Y0002590171D01*
X0001446112Y0002587040D01*
X0001450464Y0002584714D01*
X0001455187Y0002583281D01*
X0001460098Y0002582797D01*
X0001478799Y0002582797D01*
X0001483710Y0002583281D01*
X0001488433Y0002584714D01*
X0001492785Y0002587040D01*
X0001496600Y0002590171D01*
X0001498204Y0002592125D01*
X0001505160Y0002592125D01*
X0001505160Y0002576377D01*
X0001505464Y0002573290D01*
X0001506364Y0002570322D01*
X0001507826Y0002567586D01*
X0001509794Y0002565188D01*
X0001512192Y0002563220D01*
X0001514928Y0002561758D01*
X0001517897Y0002560857D01*
X0001520984Y0002560553D01*
X0001603661Y0002560553D01*
X0001604849Y0002560670D01*
X0001605405Y0002560114D01*
X0001467301Y0002560114D01*
X0001466245Y0002561171D01*
X0001461731Y0002564187D01*
X0001456716Y0002566264D01*
X0001451391Y0002567324D01*
X0001445963Y0002567324D01*
X0001440638Y0002566264D01*
X0001435623Y0002564187D01*
X0001431109Y0002561171D01*
X0001427270Y0002557332D01*
X0001424254Y0002552819D01*
X0001422177Y0002547803D01*
X0001421750Y0002545658D01*
X0001421382Y0002546549D01*
X0001418366Y0002551062D01*
X0001414527Y0002554901D01*
X0001410013Y0002557917D01*
X0001404998Y0002559994D01*
X0001399673Y0002561053D01*
X0001394245Y0002561053D01*
X0001388920Y0002559994D01*
X0001383905Y0002557917D01*
X0001379391Y0002554901D01*
X0001379195Y0002554705D01*
X0001379195Y0002582813D01*
X0001380157Y0002582719D01*
X0001392952Y0002582795D01*
X0001396889Y0002586732D01*
X0001396889Y0002617244D01*
X0001400826Y0002617244D01*
X0001400826Y0002586732D01*
X0001404763Y0002582795D01*
X0001417559Y0002582719D01*
X0001420646Y0002583023D01*
X0001423614Y0002583923D01*
X0001426350Y0002585385D01*
X0001428748Y0002587353D01*
X0001430716Y0002589751D01*
X0001432178Y0002592487D01*
X0001433079Y0002595456D01*
X0001433383Y0002598543D01*
X0001433307Y0002613307D01*
X0001429370Y0002617244D01*
X0001400826Y0002617244D01*
X0001396889Y0002617244D01*
X0001396102Y0002617244D01*
X0001396102Y0002621181D01*
X0001396889Y0002621181D01*
X0001396889Y0002621968D01*
X0001400826Y0002621968D01*
X0001400826Y0002621181D01*
X0001429370Y0002621181D01*
X0001433307Y0002625118D01*
X0001433383Y0002639881D01*
X0001433079Y0002642969D01*
X0001432178Y0002645937D01*
X0001430716Y0002648673D01*
X0001428748Y0002651071D01*
X0001426350Y0002653039D01*
X0001423614Y0002654501D01*
X0001421088Y0002655267D01*
X0001422194Y0002655859D01*
X0001426009Y0002658990D01*
X0001429140Y0002662805D01*
X0001431466Y0002667157D01*
X0001432899Y0002671880D01*
X0001433383Y0002676791D01*
X0001433383Y0002699429D01*
X0001432899Y0002704340D01*
X0001432496Y0002705669D01*
X0001434940Y0002705669D01*
X0001435000Y0002694094D01*
X0001438937Y0002690157D01*
X0001467480Y0002690157D01*
X0001467480Y0002690944D01*
X0001471417Y0002690944D01*
X0001471417Y0002690157D01*
X0001499960Y0002690157D01*
X0001503897Y0002694094D01*
X0001503973Y0002708858D01*
X0001503669Y0002711945D01*
X0001503214Y0002713446D01*
X0001505217Y0002715449D01*
X0001505236Y0002708267D01*
X0001505236Y0002708267D01*
G37*
X0001505236Y0002708267D02*
X0001509173Y0002704330D01*
X0001560354Y0002704330D01*
X0001560354Y0002705118D01*
X0001564291Y0002705118D01*
X0001564291Y0002704330D01*
X0001565078Y0002704330D01*
X0001565078Y0002700393D01*
X0001564291Y0002700393D01*
X0001564291Y0002699606D01*
X0001560354Y0002699606D01*
X0001560354Y0002700393D01*
X0001509173Y0002700393D01*
X0001505236Y0002696456D01*
X0001505160Y0002666929D01*
X0001505464Y0002663841D01*
X0001506364Y0002660873D01*
X0001507826Y0002658137D01*
X0001508689Y0002657086D01*
X0001507826Y0002656035D01*
X0001506364Y0002653299D01*
X0001505464Y0002650331D01*
X0001505160Y0002647244D01*
X0001505160Y0002631496D01*
X0001503886Y0002631496D01*
X0001503490Y0002635521D01*
X0001502057Y0002640244D01*
X0001499731Y0002644596D01*
X0001496600Y0002648411D01*
X0001492785Y0002651542D01*
X0001491678Y0002652133D01*
X0001494205Y0002652900D01*
X0001496941Y0002654362D01*
X0001499339Y0002656330D01*
X0001501306Y0002658728D01*
X0001502769Y0002661464D01*
X0001503669Y0002664432D01*
X0001503973Y0002667519D01*
X0001503897Y0002682283D01*
X0001499960Y0002686220D01*
X0001471417Y0002686220D01*
X0001471417Y0002685433D01*
X0001467480Y0002685433D01*
X0001467480Y0002686220D01*
X0001438937Y0002686220D01*
X0001435000Y0002682283D01*
X0001434923Y0002667519D01*
X0001435227Y0002664432D01*
X0001436128Y0002661464D01*
X0001437590Y0002658728D01*
X0001439558Y0002656330D01*
X0001441956Y0002654362D01*
X0001444692Y0002652900D01*
X0001447218Y0002652133D01*
X0001446112Y0002651542D01*
X0001442297Y0002648411D01*
X0001439166Y0002644596D01*
X0001436840Y0002640244D01*
X0001435407Y0002635521D01*
X0001434923Y0002630610D01*
X0001434923Y0002607972D01*
X0001435407Y0002603061D01*
X0001436840Y0002598338D01*
X0001439166Y0002593986D01*
X0001442297Y0002590171D01*
X0001446112Y0002587040D01*
X0001450464Y0002584714D01*
X0001455187Y0002583281D01*
X0001460098Y0002582797D01*
X0001478799Y0002582797D01*
X0001483710Y0002583281D01*
X0001488433Y0002584714D01*
X0001492785Y0002587040D01*
X0001496600Y0002590171D01*
X0001498204Y0002592125D01*
X0001505160Y0002592125D01*
X0001505160Y0002576377D01*
X0001505464Y0002573290D01*
X0001506364Y0002570322D01*
X0001507826Y0002567586D01*
X0001509794Y0002565188D01*
X0001512192Y0002563220D01*
X0001514928Y0002561758D01*
X0001517897Y0002560857D01*
X0001520984Y0002560553D01*
X0001603661Y0002560553D01*
X0001604849Y0002560670D01*
X0001605405Y0002560114D01*
X0001467301Y0002560114D01*
X0001466245Y0002561171D01*
X0001461731Y0002564187D01*
X0001456716Y0002566264D01*
X0001451391Y0002567324D01*
X0001445963Y0002567324D01*
X0001440638Y0002566264D01*
X0001435623Y0002564187D01*
X0001431109Y0002561171D01*
X0001427270Y0002557332D01*
X0001424254Y0002552819D01*
X0001422177Y0002547803D01*
X0001421750Y0002545658D01*
X0001421382Y0002546549D01*
X0001418366Y0002551062D01*
X0001414527Y0002554901D01*
X0001410013Y0002557917D01*
X0001404998Y0002559994D01*
X0001399673Y0002561053D01*
X0001394245Y0002561053D01*
X0001388920Y0002559994D01*
X0001383905Y0002557917D01*
X0001379391Y0002554901D01*
X0001379195Y0002554705D01*
X0001379195Y0002582813D01*
X0001380157Y0002582719D01*
X0001392952Y0002582795D01*
X0001396889Y0002586732D01*
X0001396889Y0002617244D01*
X0001400826Y0002617244D01*
X0001400826Y0002586732D01*
X0001404763Y0002582795D01*
X0001417559Y0002582719D01*
X0001420646Y0002583023D01*
X0001423614Y0002583923D01*
X0001426350Y0002585385D01*
X0001428748Y0002587353D01*
X0001430716Y0002589751D01*
X0001432178Y0002592487D01*
X0001433079Y0002595456D01*
X0001433383Y0002598543D01*
X0001433307Y0002613307D01*
X0001429370Y0002617244D01*
X0001400826Y0002617244D01*
X0001396889Y0002617244D01*
X0001396102Y0002617244D01*
X0001396102Y0002621181D01*
X0001396889Y0002621181D01*
X0001396889Y0002621968D01*
X0001400826Y0002621968D01*
X0001400826Y0002621181D01*
X0001429370Y0002621181D01*
X0001433307Y0002625118D01*
X0001433383Y0002639881D01*
X0001433079Y0002642969D01*
X0001432178Y0002645937D01*
X0001430716Y0002648673D01*
X0001428748Y0002651071D01*
X0001426350Y0002653039D01*
X0001423614Y0002654501D01*
X0001421088Y0002655267D01*
X0001422194Y0002655859D01*
X0001426009Y0002658990D01*
X0001429140Y0002662805D01*
X0001431466Y0002667157D01*
X0001432899Y0002671880D01*
X0001433383Y0002676791D01*
X0001433383Y0002699429D01*
X0001432899Y0002704340D01*
X0001432496Y0002705669D01*
X0001434940Y0002705669D01*
X0001435000Y0002694094D01*
X0001438937Y0002690157D01*
X0001467480Y0002690157D01*
X0001467480Y0002690944D01*
X0001471417Y0002690944D01*
X0001471417Y0002690157D01*
X0001499960Y0002690157D01*
X0001503897Y0002694094D01*
X0001503973Y0002708858D01*
X0001503669Y0002711945D01*
X0001503214Y0002713446D01*
X0001505217Y0002715449D01*
X0001505236Y0002708267D01*
G36*
X0001678464Y0002613779D02*
G01*
X0001679251Y0002613779D01*
X0001679251Y0002609842D01*
X0001678464Y0002609842D01*
X0001678464Y0002609055D01*
X0001674527Y0002609055D01*
X0001674527Y0002609842D01*
X0001673740Y0002609842D01*
X0001673740Y0002613779D01*
X0001674527Y0002613779D01*
X0001674527Y0002614566D01*
X0001678464Y0002614566D01*
X0001678464Y0002613779D01*
X0001678464Y0002613779D01*
G37*
X0001678464Y0002613779D02*
X0001679251Y0002613779D01*
X0001679251Y0002609842D01*
X0001678464Y0002609842D01*
X0001678464Y0002609055D01*
X0001674527Y0002609055D01*
X0001674527Y0002609842D01*
X0001673740Y0002609842D01*
X0001673740Y0002613779D01*
X0001674527Y0002613779D01*
X0001674527Y0002614566D01*
X0001678464Y0002614566D01*
X0001678464Y0002613779D01*
G36*
X0001529230Y0002908111D02*
G01*
X0001530078Y0002907077D01*
X0001530078Y0002903779D01*
X0001534015Y0002899842D01*
X0001534015Y0002899766D01*
X0001537102Y0002900070D01*
X0001539234Y0002900717D01*
X0001541179Y0002900127D01*
X0001543877Y0002899861D01*
X0001542873Y0002898858D01*
X0001542797Y0002898858D01*
X0001543101Y0002895771D01*
X0001543748Y0002893639D01*
X0001543158Y0002891694D01*
X0001542797Y0002888031D01*
X0001542797Y0002882125D01*
X0001543158Y0002878462D01*
X0001544137Y0002875236D01*
X0001543158Y0002872009D01*
X0001542797Y0002868346D01*
X0001542797Y0002862440D01*
X0001543158Y0002858777D01*
X0001544137Y0002855551D01*
X0001543158Y0002852324D01*
X0001542797Y0002848661D01*
X0001542797Y0002842755D01*
X0001543158Y0002839092D01*
X0001544137Y0002835866D01*
X0001543158Y0002832639D01*
X0001542797Y0002828976D01*
X0001542797Y0002823070D01*
X0001543158Y0002819407D01*
X0001544137Y0002816181D01*
X0001543158Y0002812954D01*
X0001542981Y0002811152D01*
X0001541179Y0002810975D01*
X0001539234Y0002810385D01*
X0001537102Y0002811031D01*
X0001534015Y0002811336D01*
X0001534015Y0002811259D01*
X0001530078Y0002807322D01*
X0001530078Y0002804025D01*
X0001529230Y0002802990D01*
X0001528110Y0002800895D01*
X0001526990Y0002802990D01*
X0001526141Y0002804025D01*
X0001526141Y0002807322D01*
X0001522204Y0002811259D01*
X0001522204Y0002811336D01*
X0001519117Y0002811031D01*
X0001516985Y0002810385D01*
X0001515041Y0002810975D01*
X0001511377Y0002811336D01*
X0001505472Y0002811336D01*
X0001501809Y0002810975D01*
X0001499864Y0002810385D01*
X0001497732Y0002811031D01*
X0001494645Y0002811336D01*
X0001494645Y0002811259D01*
X0001490708Y0002807322D01*
X0001490708Y0002804025D01*
X0001489859Y0002802990D01*
X0001488740Y0002800895D01*
X0001487620Y0002802990D01*
X0001486771Y0002804025D01*
X0001486771Y0002807322D01*
X0001482834Y0002811259D01*
X0001482834Y0002811336D01*
X0001479747Y0002811031D01*
X0001477615Y0002810385D01*
X0001475671Y0002810975D01*
X0001472007Y0002811336D01*
X0001466102Y0002811336D01*
X0001462439Y0002810975D01*
X0001459212Y0002809996D01*
X0001455986Y0002810975D01*
X0001454184Y0002811152D01*
X0001454006Y0002812954D01*
X0001453027Y0002816181D01*
X0001454006Y0002819407D01*
X0001454367Y0002823070D01*
X0001454367Y0002828976D01*
X0001454006Y0002832639D01*
X0001453027Y0002835866D01*
X0001454006Y0002839092D01*
X0001454367Y0002842755D01*
X0001454367Y0002848661D01*
X0001454006Y0002852324D01*
X0001453027Y0002855551D01*
X0001454006Y0002858777D01*
X0001454367Y0002862440D01*
X0001454367Y0002868346D01*
X0001454006Y0002872009D01*
X0001453027Y0002875236D01*
X0001454006Y0002878462D01*
X0001454367Y0002882125D01*
X0001454367Y0002888031D01*
X0001454006Y0002891694D01*
X0001453027Y0002894921D01*
X0001454006Y0002898147D01*
X0001454184Y0002899949D01*
X0001455986Y0002900127D01*
X0001459212Y0002901105D01*
X0001462439Y0002900127D01*
X0001466102Y0002899766D01*
X0001472007Y0002899766D01*
X0001475671Y0002900127D01*
X0001478897Y0002901105D01*
X0001482124Y0002900127D01*
X0001485787Y0002899766D01*
X0001491692Y0002899766D01*
X0001495356Y0002900127D01*
X0001498582Y0002901105D01*
X0001501809Y0002900127D01*
X0001505472Y0002899766D01*
X0001511377Y0002899766D01*
X0001515041Y0002900127D01*
X0001516985Y0002900717D01*
X0001519117Y0002900070D01*
X0001522204Y0002899766D01*
X0001522204Y0002899842D01*
X0001526141Y0002903779D01*
X0001526141Y0002907077D01*
X0001526990Y0002908111D01*
X0001528110Y0002910206D01*
X0001529230Y0002908111D01*
X0001529230Y0002908111D01*
G37*
X0001529230Y0002908111D02*
X0001530078Y0002907077D01*
X0001530078Y0002903779D01*
X0001534015Y0002899842D01*
X0001534015Y0002899766D01*
X0001537102Y0002900070D01*
X0001539234Y0002900717D01*
X0001541179Y0002900127D01*
X0001543877Y0002899861D01*
X0001542873Y0002898858D01*
X0001542797Y0002898858D01*
X0001543101Y0002895771D01*
X0001543748Y0002893639D01*
X0001543158Y0002891694D01*
X0001542797Y0002888031D01*
X0001542797Y0002882125D01*
X0001543158Y0002878462D01*
X0001544137Y0002875236D01*
X0001543158Y0002872009D01*
X0001542797Y0002868346D01*
X0001542797Y0002862440D01*
X0001543158Y0002858777D01*
X0001544137Y0002855551D01*
X0001543158Y0002852324D01*
X0001542797Y0002848661D01*
X0001542797Y0002842755D01*
X0001543158Y0002839092D01*
X0001544137Y0002835866D01*
X0001543158Y0002832639D01*
X0001542797Y0002828976D01*
X0001542797Y0002823070D01*
X0001543158Y0002819407D01*
X0001544137Y0002816181D01*
X0001543158Y0002812954D01*
X0001542981Y0002811152D01*
X0001541179Y0002810975D01*
X0001539234Y0002810385D01*
X0001537102Y0002811031D01*
X0001534015Y0002811336D01*
X0001534015Y0002811259D01*
X0001530078Y0002807322D01*
X0001530078Y0002804025D01*
X0001529230Y0002802990D01*
X0001528110Y0002800895D01*
X0001526990Y0002802990D01*
X0001526141Y0002804025D01*
X0001526141Y0002807322D01*
X0001522204Y0002811259D01*
X0001522204Y0002811336D01*
X0001519117Y0002811031D01*
X0001516985Y0002810385D01*
X0001515041Y0002810975D01*
X0001511377Y0002811336D01*
X0001505472Y0002811336D01*
X0001501809Y0002810975D01*
X0001499864Y0002810385D01*
X0001497732Y0002811031D01*
X0001494645Y0002811336D01*
X0001494645Y0002811259D01*
X0001490708Y0002807322D01*
X0001490708Y0002804025D01*
X0001489859Y0002802990D01*
X0001488740Y0002800895D01*
X0001487620Y0002802990D01*
X0001486771Y0002804025D01*
X0001486771Y0002807322D01*
X0001482834Y0002811259D01*
X0001482834Y0002811336D01*
X0001479747Y0002811031D01*
X0001477615Y0002810385D01*
X0001475671Y0002810975D01*
X0001472007Y0002811336D01*
X0001466102Y0002811336D01*
X0001462439Y0002810975D01*
X0001459212Y0002809996D01*
X0001455986Y0002810975D01*
X0001454184Y0002811152D01*
X0001454006Y0002812954D01*
X0001453027Y0002816181D01*
X0001454006Y0002819407D01*
X0001454367Y0002823070D01*
X0001454367Y0002828976D01*
X0001454006Y0002832639D01*
X0001453027Y0002835866D01*
X0001454006Y0002839092D01*
X0001454367Y0002842755D01*
X0001454367Y0002848661D01*
X0001454006Y0002852324D01*
X0001453027Y0002855551D01*
X0001454006Y0002858777D01*
X0001454367Y0002862440D01*
X0001454367Y0002868346D01*
X0001454006Y0002872009D01*
X0001453027Y0002875236D01*
X0001454006Y0002878462D01*
X0001454367Y0002882125D01*
X0001454367Y0002888031D01*
X0001454006Y0002891694D01*
X0001453027Y0002894921D01*
X0001454006Y0002898147D01*
X0001454184Y0002899949D01*
X0001455986Y0002900127D01*
X0001459212Y0002901105D01*
X0001462439Y0002900127D01*
X0001466102Y0002899766D01*
X0001472007Y0002899766D01*
X0001475671Y0002900127D01*
X0001478897Y0002901105D01*
X0001482124Y0002900127D01*
X0001485787Y0002899766D01*
X0001491692Y0002899766D01*
X0001495356Y0002900127D01*
X0001498582Y0002901105D01*
X0001501809Y0002900127D01*
X0001505472Y0002899766D01*
X0001511377Y0002899766D01*
X0001515041Y0002900127D01*
X0001516985Y0002900717D01*
X0001519117Y0002900070D01*
X0001522204Y0002899766D01*
X0001522204Y0002899842D01*
X0001526141Y0002903779D01*
X0001526141Y0002907077D01*
X0001526990Y0002908111D01*
X0001528110Y0002910206D01*
X0001529230Y0002908111D01*
G36*
X0001975460Y0003115189D02*
G01*
X0001978196Y0003113726D01*
X0001981164Y0003112826D01*
X0001984251Y0003112522D01*
X0001991922Y0003112522D01*
X0002029216Y0003075228D01*
X0002029832Y0003074477D01*
X0002032829Y0003072017D01*
X0002036249Y0003070189D01*
X0002039694Y0003069144D01*
X0002039960Y0003069063D01*
X0002042348Y0003068828D01*
X0002041417Y0003068546D01*
X0002039583Y0003069102D01*
X0002036496Y0003069406D01*
X0002014842Y0003069406D01*
X0002011755Y0003069102D01*
X0002009921Y0003068546D01*
X0002008087Y0003069102D01*
X0002004999Y0003069406D01*
X0002000078Y0003069330D01*
X0001996141Y0003065393D01*
X0001996141Y0003024055D01*
X0001996929Y0003024055D01*
X0001996929Y0003020118D01*
X0001996141Y0003020118D01*
X0001996141Y0002978779D01*
X0002000078Y0002974842D01*
X0002004999Y0002974766D01*
X0002008087Y0002975070D01*
X0002009921Y0002975626D01*
X0002011755Y0002975070D01*
X0002014842Y0002974766D01*
X0002036496Y0002974766D01*
X0002039583Y0002975070D01*
X0002041417Y0002975626D01*
X0002043251Y0002975070D01*
X0002046338Y0002974766D01*
X0002052872Y0002974766D01*
X0002048106Y0002970000D01*
X0002047911Y0002970039D01*
X0002042482Y0002970039D01*
X0002037158Y0002968980D01*
X0002032142Y0002966902D01*
X0002027629Y0002963886D01*
X0002023790Y0002960048D01*
X0002020774Y0002955534D01*
X0002018696Y0002950519D01*
X0002017637Y0002945194D01*
X0002017637Y0002939766D01*
X0002018696Y0002934441D01*
X0002020774Y0002929426D01*
X0002022992Y0002926107D01*
X0002022992Y0002822327D01*
X0002019326Y0002818661D01*
X0002016891Y0002818661D01*
X0002011567Y0002817602D01*
X0002006552Y0002815524D01*
X0002002038Y0002812508D01*
X0001998199Y0002808670D01*
X0001997851Y0002808149D01*
X0001889918Y0002808149D01*
X0001889918Y0002818346D01*
X0001889614Y0002821433D01*
X0001889058Y0002823267D01*
X0001889614Y0002825101D01*
X0001889918Y0002828188D01*
X0001889918Y0002849842D01*
X0001889614Y0002852929D01*
X0001889058Y0002854763D01*
X0001889614Y0002856597D01*
X0001889918Y0002859685D01*
X0001889918Y0002881338D01*
X0001889614Y0002884425D01*
X0001889058Y0002886259D01*
X0001889614Y0002888093D01*
X0001889918Y0002891181D01*
X0001889918Y0002912834D01*
X0001889614Y0002915921D01*
X0001889058Y0002917755D01*
X0001889614Y0002919590D01*
X0001889918Y0002922677D01*
X0001889918Y0002944330D01*
X0001889614Y0002947417D01*
X0001889058Y0002949251D01*
X0001889614Y0002951086D01*
X0001889918Y0002954173D01*
X0001889918Y0002974766D01*
X0001910511Y0002974766D01*
X0001913598Y0002975070D01*
X0001915433Y0002975626D01*
X0001917267Y0002975070D01*
X0001920354Y0002974766D01*
X0001942007Y0002974766D01*
X0001945095Y0002975070D01*
X0001946929Y0002975626D01*
X0001948763Y0002975070D01*
X0001951850Y0002974766D01*
X0001973503Y0002974766D01*
X0001976591Y0002975070D01*
X0001978425Y0002975626D01*
X0001980259Y0002975070D01*
X0001983346Y0002974766D01*
X0001988267Y0002974842D01*
X0001992204Y0002978779D01*
X0001992204Y0003020118D01*
X0001991417Y0003020118D01*
X0001991417Y0003024055D01*
X0001992204Y0003024055D01*
X0001992204Y0003065393D01*
X0001988267Y0003069330D01*
X0001983346Y0003069406D01*
X0001980259Y0003069102D01*
X0001978425Y0003068546D01*
X0001976591Y0003069102D01*
X0001973503Y0003069406D01*
X0001951850Y0003069406D01*
X0001948763Y0003069102D01*
X0001946929Y0003068546D01*
X0001945095Y0003069102D01*
X0001942007Y0003069406D01*
X0001920354Y0003069406D01*
X0001917267Y0003069102D01*
X0001915433Y0003068546D01*
X0001913598Y0003069102D01*
X0001910511Y0003069406D01*
X0001888858Y0003069406D01*
X0001885771Y0003069102D01*
X0001882802Y0003068202D01*
X0001880066Y0003066740D01*
X0001877668Y0003064772D01*
X0001875700Y0003062374D01*
X0001874238Y0003059638D01*
X0001873338Y0003056669D01*
X0001873034Y0003053582D01*
X0001873034Y0002991650D01*
X0001811102Y0002991650D01*
X0001808015Y0002991346D01*
X0001805046Y0002990446D01*
X0001802310Y0002988984D01*
X0001799912Y0002987016D01*
X0001797944Y0002984618D01*
X0001796482Y0002981882D01*
X0001795582Y0002978913D01*
X0001795278Y0002975826D01*
X0001795278Y0002954173D01*
X0001795582Y0002951086D01*
X0001796138Y0002949251D01*
X0001796027Y0002948886D01*
X0001793771Y0002950738D01*
X0001790352Y0002952565D01*
X0001790333Y0002952571D01*
X0001791093Y0002955078D01*
X0001791378Y0002957970D01*
X0001791378Y0002957970D01*
X0001791473Y0002958937D01*
X0001791378Y0002959903D01*
X0001791378Y0003040714D01*
X0001791473Y0003041680D01*
X0001791378Y0003042647D01*
X0001791378Y0003042647D01*
X0001791093Y0003045539D01*
X0001789967Y0003049250D01*
X0001788140Y0003052670D01*
X0001785680Y0003055667D01*
X0001784929Y0003056283D01*
X0001762522Y0003078690D01*
X0001782719Y0003078690D01*
X0001786288Y0003077607D01*
X0001787384Y0003077499D01*
X0001789282Y0003075601D01*
X0001793796Y0003072585D01*
X0001798811Y0003070507D01*
X0001804136Y0003069448D01*
X0001806820Y0003069448D01*
X0001807672Y0003068750D01*
X0001811091Y0003066922D01*
X0001814802Y0003065796D01*
X0001818661Y0003065416D01*
X0001819628Y0003065511D01*
X0001842903Y0003065511D01*
X0001843870Y0003065416D01*
X0001844837Y0003065511D01*
X0001847729Y0003065796D01*
X0001851439Y0003066922D01*
X0001854859Y0003068750D01*
X0001856286Y0003069921D01*
X0001922891Y0003069921D01*
X0001923858Y0003069826D01*
X0001924825Y0003069921D01*
X0001927717Y0003070206D01*
X0001931428Y0003071332D01*
X0001934848Y0003073160D01*
X0001937845Y0003075619D01*
X0001938462Y0003076371D01*
X0001967960Y0003105869D01*
X0001968711Y0003106485D01*
X0001971171Y0003109483D01*
X0001972998Y0003112902D01*
X0001973803Y0003115554D01*
X0001974409Y0003116051D01*
X0001975460Y0003115189D01*
X0001975460Y0003115189D01*
G37*
X0001975460Y0003115189D02*
X0001978196Y0003113726D01*
X0001981164Y0003112826D01*
X0001984251Y0003112522D01*
X0001991922Y0003112522D01*
X0002029216Y0003075228D01*
X0002029832Y0003074477D01*
X0002032829Y0003072017D01*
X0002036249Y0003070189D01*
X0002039694Y0003069144D01*
X0002039960Y0003069063D01*
X0002042348Y0003068828D01*
X0002041417Y0003068546D01*
X0002039583Y0003069102D01*
X0002036496Y0003069406D01*
X0002014842Y0003069406D01*
X0002011755Y0003069102D01*
X0002009921Y0003068546D01*
X0002008087Y0003069102D01*
X0002004999Y0003069406D01*
X0002000078Y0003069330D01*
X0001996141Y0003065393D01*
X0001996141Y0003024055D01*
X0001996929Y0003024055D01*
X0001996929Y0003020118D01*
X0001996141Y0003020118D01*
X0001996141Y0002978779D01*
X0002000078Y0002974842D01*
X0002004999Y0002974766D01*
X0002008087Y0002975070D01*
X0002009921Y0002975626D01*
X0002011755Y0002975070D01*
X0002014842Y0002974766D01*
X0002036496Y0002974766D01*
X0002039583Y0002975070D01*
X0002041417Y0002975626D01*
X0002043251Y0002975070D01*
X0002046338Y0002974766D01*
X0002052872Y0002974766D01*
X0002048106Y0002970000D01*
X0002047911Y0002970039D01*
X0002042482Y0002970039D01*
X0002037158Y0002968980D01*
X0002032142Y0002966902D01*
X0002027629Y0002963886D01*
X0002023790Y0002960048D01*
X0002020774Y0002955534D01*
X0002018696Y0002950519D01*
X0002017637Y0002945194D01*
X0002017637Y0002939766D01*
X0002018696Y0002934441D01*
X0002020774Y0002929426D01*
X0002022992Y0002926107D01*
X0002022992Y0002822327D01*
X0002019326Y0002818661D01*
X0002016891Y0002818661D01*
X0002011567Y0002817602D01*
X0002006552Y0002815524D01*
X0002002038Y0002812508D01*
X0001998199Y0002808670D01*
X0001997851Y0002808149D01*
X0001889918Y0002808149D01*
X0001889918Y0002818346D01*
X0001889614Y0002821433D01*
X0001889058Y0002823267D01*
X0001889614Y0002825101D01*
X0001889918Y0002828188D01*
X0001889918Y0002849842D01*
X0001889614Y0002852929D01*
X0001889058Y0002854763D01*
X0001889614Y0002856597D01*
X0001889918Y0002859685D01*
X0001889918Y0002881338D01*
X0001889614Y0002884425D01*
X0001889058Y0002886259D01*
X0001889614Y0002888093D01*
X0001889918Y0002891181D01*
X0001889918Y0002912834D01*
X0001889614Y0002915921D01*
X0001889058Y0002917755D01*
X0001889614Y0002919590D01*
X0001889918Y0002922677D01*
X0001889918Y0002944330D01*
X0001889614Y0002947417D01*
X0001889058Y0002949251D01*
X0001889614Y0002951086D01*
X0001889918Y0002954173D01*
X0001889918Y0002974766D01*
X0001910511Y0002974766D01*
X0001913598Y0002975070D01*
X0001915433Y0002975626D01*
X0001917267Y0002975070D01*
X0001920354Y0002974766D01*
X0001942007Y0002974766D01*
X0001945095Y0002975070D01*
X0001946929Y0002975626D01*
X0001948763Y0002975070D01*
X0001951850Y0002974766D01*
X0001973503Y0002974766D01*
X0001976591Y0002975070D01*
X0001978425Y0002975626D01*
X0001980259Y0002975070D01*
X0001983346Y0002974766D01*
X0001988267Y0002974842D01*
X0001992204Y0002978779D01*
X0001992204Y0003020118D01*
X0001991417Y0003020118D01*
X0001991417Y0003024055D01*
X0001992204Y0003024055D01*
X0001992204Y0003065393D01*
X0001988267Y0003069330D01*
X0001983346Y0003069406D01*
X0001980259Y0003069102D01*
X0001978425Y0003068546D01*
X0001976591Y0003069102D01*
X0001973503Y0003069406D01*
X0001951850Y0003069406D01*
X0001948763Y0003069102D01*
X0001946929Y0003068546D01*
X0001945095Y0003069102D01*
X0001942007Y0003069406D01*
X0001920354Y0003069406D01*
X0001917267Y0003069102D01*
X0001915433Y0003068546D01*
X0001913598Y0003069102D01*
X0001910511Y0003069406D01*
X0001888858Y0003069406D01*
X0001885771Y0003069102D01*
X0001882802Y0003068202D01*
X0001880066Y0003066740D01*
X0001877668Y0003064772D01*
X0001875700Y0003062374D01*
X0001874238Y0003059638D01*
X0001873338Y0003056669D01*
X0001873034Y0003053582D01*
X0001873034Y0002991650D01*
X0001811102Y0002991650D01*
X0001808015Y0002991346D01*
X0001805046Y0002990446D01*
X0001802310Y0002988984D01*
X0001799912Y0002987016D01*
X0001797944Y0002984618D01*
X0001796482Y0002981882D01*
X0001795582Y0002978913D01*
X0001795278Y0002975826D01*
X0001795278Y0002954173D01*
X0001795582Y0002951086D01*
X0001796138Y0002949251D01*
X0001796027Y0002948886D01*
X0001793771Y0002950738D01*
X0001790352Y0002952565D01*
X0001790333Y0002952571D01*
X0001791093Y0002955078D01*
X0001791378Y0002957970D01*
X0001791378Y0002957970D01*
X0001791473Y0002958937D01*
X0001791378Y0002959903D01*
X0001791378Y0003040714D01*
X0001791473Y0003041680D01*
X0001791378Y0003042647D01*
X0001791378Y0003042647D01*
X0001791093Y0003045539D01*
X0001789967Y0003049250D01*
X0001788140Y0003052670D01*
X0001785680Y0003055667D01*
X0001784929Y0003056283D01*
X0001762522Y0003078690D01*
X0001782719Y0003078690D01*
X0001786288Y0003077607D01*
X0001787384Y0003077499D01*
X0001789282Y0003075601D01*
X0001793796Y0003072585D01*
X0001798811Y0003070507D01*
X0001804136Y0003069448D01*
X0001806820Y0003069448D01*
X0001807672Y0003068750D01*
X0001811091Y0003066922D01*
X0001814802Y0003065796D01*
X0001818661Y0003065416D01*
X0001819628Y0003065511D01*
X0001842903Y0003065511D01*
X0001843870Y0003065416D01*
X0001844837Y0003065511D01*
X0001847729Y0003065796D01*
X0001851439Y0003066922D01*
X0001854859Y0003068750D01*
X0001856286Y0003069921D01*
X0001922891Y0003069921D01*
X0001923858Y0003069826D01*
X0001924825Y0003069921D01*
X0001927717Y0003070206D01*
X0001931428Y0003071332D01*
X0001934848Y0003073160D01*
X0001937845Y0003075619D01*
X0001938462Y0003076371D01*
X0001967960Y0003105869D01*
X0001968711Y0003106485D01*
X0001971171Y0003109483D01*
X0001972998Y0003112902D01*
X0001973803Y0003115554D01*
X0001974409Y0003116051D01*
X0001975460Y0003115189D01*
G36*
X0002232047Y0003239173D02*
G01*
X0002232834Y0003239173D01*
X0002232834Y0003235236D01*
X0002232047Y0003235236D01*
X0002232047Y0003204724D01*
X0002235984Y0003200787D01*
X0002248779Y0003200711D01*
X0002251866Y0003201015D01*
X0002254835Y0003201915D01*
X0002257570Y0003203378D01*
X0002259968Y0003205346D01*
X0002261665Y0003207413D01*
X0002261665Y0002810920D01*
X0002243032Y0002811298D01*
X0002242232Y0002811232D01*
X0002241491Y0002811018D01*
X0002240806Y0002810662D01*
X0002240236Y0002810206D01*
X0002240236Y0002834111D01*
X0002240331Y0002835078D01*
X0002239951Y0002838937D01*
X0002239839Y0002839307D01*
X0002238825Y0002842648D01*
X0002236997Y0002846068D01*
X0002234537Y0002849065D01*
X0002233786Y0002849682D01*
X0002231217Y0002852251D01*
X0002230600Y0002853002D01*
X0002227603Y0002855462D01*
X0002224321Y0002857216D01*
X0002224564Y0002859685D01*
X0002224564Y0002881338D01*
X0002224260Y0002884425D01*
X0002223703Y0002886259D01*
X0002224260Y0002888093D01*
X0002224564Y0002891181D01*
X0002224564Y0002912834D01*
X0002224381Y0002914692D01*
X0002226152Y0002915229D01*
X0002229571Y0002917057D01*
X0002232569Y0002919517D01*
X0002233186Y0002920268D01*
X0002234770Y0002921853D01*
X0002235522Y0002922469D01*
X0002237982Y0002925467D01*
X0002239810Y0002928887D01*
X0002240935Y0002932597D01*
X0002241220Y0002935489D01*
X0002241220Y0002935490D01*
X0002241315Y0002936456D01*
X0002241220Y0002937423D01*
X0002241220Y0003034781D01*
X0002241315Y0003035748D01*
X0002241220Y0003036714D01*
X0002241220Y0003036714D01*
X0002240935Y0003039606D01*
X0002239810Y0003043317D01*
X0002237982Y0003046737D01*
X0002235522Y0003049734D01*
X0002234771Y0003050351D01*
X0002177750Y0003107372D01*
X0002178644Y0003107742D01*
X0002183158Y0003110758D01*
X0002186997Y0003114597D01*
X0002190013Y0003119111D01*
X0002192090Y0003124126D01*
X0002193149Y0003129451D01*
X0002193149Y0003134879D01*
X0002192090Y0003140204D01*
X0002191131Y0003142519D01*
X0002198645Y0003142519D01*
X0002200366Y0003140798D01*
X0002204880Y0003137782D01*
X0002209895Y0003135704D01*
X0002215220Y0003134645D01*
X0002220648Y0003134645D01*
X0002225973Y0003135704D01*
X0002230988Y0003137782D01*
X0002235502Y0003140798D01*
X0002239340Y0003144636D01*
X0002242356Y0003149150D01*
X0002244434Y0003154166D01*
X0002245493Y0003159490D01*
X0002245493Y0003164919D01*
X0002244434Y0003170243D01*
X0002242356Y0003175258D01*
X0002239340Y0003179772D01*
X0002235502Y0003183611D01*
X0002230988Y0003186627D01*
X0002225973Y0003188704D01*
X0002220648Y0003189763D01*
X0002215220Y0003189763D01*
X0002209895Y0003188704D01*
X0002204880Y0003186627D01*
X0002200366Y0003183611D01*
X0002198645Y0003181889D01*
X0002193017Y0003181889D01*
X0002186968Y0003187938D01*
X0002186968Y0003203317D01*
X0002190620Y0003205268D01*
X0002194435Y0003208399D01*
X0002196591Y0003211027D01*
X0002196758Y0003210479D01*
X0002198220Y0003207743D01*
X0002200188Y0003205346D01*
X0002202586Y0003203378D01*
X0002205322Y0003201915D01*
X0002208290Y0003201015D01*
X0002211377Y0003200711D01*
X0002224173Y0003200787D01*
X0002228110Y0003204724D01*
X0002228110Y0003235236D01*
X0002227322Y0003235236D01*
X0002227322Y0003239173D01*
X0002228110Y0003239173D01*
X0002228110Y0003239960D01*
X0002232047Y0003239960D01*
X0002232047Y0003239173D01*
X0002232047Y0003239173D01*
G37*
X0002232047Y0003239173D02*
X0002232834Y0003239173D01*
X0002232834Y0003235236D01*
X0002232047Y0003235236D01*
X0002232047Y0003204724D01*
X0002235984Y0003200787D01*
X0002248779Y0003200711D01*
X0002251866Y0003201015D01*
X0002254835Y0003201915D01*
X0002257570Y0003203378D01*
X0002259968Y0003205346D01*
X0002261665Y0003207413D01*
X0002261665Y0002810920D01*
X0002243032Y0002811298D01*
X0002242232Y0002811232D01*
X0002241491Y0002811018D01*
X0002240806Y0002810662D01*
X0002240236Y0002810206D01*
X0002240236Y0002834111D01*
X0002240331Y0002835078D01*
X0002239951Y0002838937D01*
X0002239839Y0002839307D01*
X0002238825Y0002842648D01*
X0002236997Y0002846068D01*
X0002234537Y0002849065D01*
X0002233786Y0002849682D01*
X0002231217Y0002852251D01*
X0002230600Y0002853002D01*
X0002227603Y0002855462D01*
X0002224321Y0002857216D01*
X0002224564Y0002859685D01*
X0002224564Y0002881338D01*
X0002224260Y0002884425D01*
X0002223703Y0002886259D01*
X0002224260Y0002888093D01*
X0002224564Y0002891181D01*
X0002224564Y0002912834D01*
X0002224381Y0002914692D01*
X0002226152Y0002915229D01*
X0002229571Y0002917057D01*
X0002232569Y0002919517D01*
X0002233186Y0002920268D01*
X0002234770Y0002921853D01*
X0002235522Y0002922469D01*
X0002237982Y0002925467D01*
X0002239810Y0002928887D01*
X0002240935Y0002932597D01*
X0002241220Y0002935489D01*
X0002241220Y0002935490D01*
X0002241315Y0002936456D01*
X0002241220Y0002937423D01*
X0002241220Y0003034781D01*
X0002241315Y0003035748D01*
X0002241220Y0003036714D01*
X0002241220Y0003036714D01*
X0002240935Y0003039606D01*
X0002239810Y0003043317D01*
X0002237982Y0003046737D01*
X0002235522Y0003049734D01*
X0002234771Y0003050351D01*
X0002177750Y0003107372D01*
X0002178644Y0003107742D01*
X0002183158Y0003110758D01*
X0002186997Y0003114597D01*
X0002190013Y0003119111D01*
X0002192090Y0003124126D01*
X0002193149Y0003129451D01*
X0002193149Y0003134879D01*
X0002192090Y0003140204D01*
X0002191131Y0003142519D01*
X0002198645Y0003142519D01*
X0002200366Y0003140798D01*
X0002204880Y0003137782D01*
X0002209895Y0003135704D01*
X0002215220Y0003134645D01*
X0002220648Y0003134645D01*
X0002225973Y0003135704D01*
X0002230988Y0003137782D01*
X0002235502Y0003140798D01*
X0002239340Y0003144636D01*
X0002242356Y0003149150D01*
X0002244434Y0003154166D01*
X0002245493Y0003159490D01*
X0002245493Y0003164919D01*
X0002244434Y0003170243D01*
X0002242356Y0003175258D01*
X0002239340Y0003179772D01*
X0002235502Y0003183611D01*
X0002230988Y0003186627D01*
X0002225973Y0003188704D01*
X0002220648Y0003189763D01*
X0002215220Y0003189763D01*
X0002209895Y0003188704D01*
X0002204880Y0003186627D01*
X0002200366Y0003183611D01*
X0002198645Y0003181889D01*
X0002193017Y0003181889D01*
X0002186968Y0003187938D01*
X0002186968Y0003203317D01*
X0002190620Y0003205268D01*
X0002194435Y0003208399D01*
X0002196591Y0003211027D01*
X0002196758Y0003210479D01*
X0002198220Y0003207743D01*
X0002200188Y0003205346D01*
X0002202586Y0003203378D01*
X0002205322Y0003201915D01*
X0002208290Y0003201015D01*
X0002211377Y0003200711D01*
X0002224173Y0003200787D01*
X0002228110Y0003204724D01*
X0002228110Y0003235236D01*
X0002227322Y0003235236D01*
X0002227322Y0003239173D01*
X0002228110Y0003239173D01*
X0002228110Y0003239960D01*
X0002232047Y0003239960D01*
X0002232047Y0003239173D01*
G36*
X0001609175Y0003008890D02*
G01*
X0001609175Y0002989409D01*
X0001609479Y0002986322D01*
X0001610380Y0002983353D01*
X0001610902Y0002982377D01*
X0001609602Y0002981682D01*
X0001606605Y0002979222D01*
X0001605988Y0002978471D01*
X0001598697Y0002971179D01*
X0001596262Y0002971179D01*
X0001590938Y0002970120D01*
X0001585922Y0002968043D01*
X0001581408Y0002965027D01*
X0001577570Y0002961188D01*
X0001574554Y0002956674D01*
X0001572476Y0002951659D01*
X0001571417Y0002946335D01*
X0001571417Y0002940906D01*
X0001572476Y0002935582D01*
X0001574554Y0002930566D01*
X0001577570Y0002926052D01*
X0001579232Y0002924390D01*
X0001577322Y0002922480D01*
X0001577322Y0002906808D01*
X0001573385Y0002906808D01*
X0001573385Y0002922480D01*
X0001569525Y0002926341D01*
X0001569525Y0002946102D01*
X0001569164Y0002949765D01*
X0001568095Y0002953287D01*
X0001566360Y0002956534D01*
X0001564025Y0002959379D01*
X0001561179Y0002961714D01*
X0001557933Y0002963450D01*
X0001554411Y0002964518D01*
X0001550748Y0002964879D01*
X0001544842Y0002964879D01*
X0001541179Y0002964518D01*
X0001539234Y0002963928D01*
X0001537102Y0002964575D01*
X0001534015Y0002964879D01*
X0001534015Y0002964803D01*
X0001530078Y0002960866D01*
X0001530078Y0002957568D01*
X0001529230Y0002956534D01*
X0001528110Y0002954439D01*
X0001526990Y0002956534D01*
X0001526141Y0002957568D01*
X0001526141Y0002960866D01*
X0001522204Y0002964803D01*
X0001522204Y0002964879D01*
X0001519117Y0002964575D01*
X0001516985Y0002963928D01*
X0001515041Y0002964518D01*
X0001511377Y0002964879D01*
X0001510393Y0002964879D01*
X0001510393Y0002983232D01*
X0001513957Y0002980851D01*
X0001518972Y0002978773D01*
X0001524296Y0002977714D01*
X0001529725Y0002977714D01*
X0001535049Y0002978773D01*
X0001540065Y0002980851D01*
X0001544579Y0002983867D01*
X0001548417Y0002987706D01*
X0001551433Y0002992219D01*
X0001553511Y0002997235D01*
X0001554570Y0003002559D01*
X0001554570Y0003007988D01*
X0001553511Y0003013312D01*
X0001551433Y0003018328D01*
X0001550248Y0003020101D01*
X0001553655Y0003021134D01*
X0001557074Y0003022962D01*
X0001560072Y0003025422D01*
X0001560689Y0003026174D01*
X0001565959Y0003031444D01*
X0001586621Y0003031444D01*
X0001609175Y0003008890D01*
X0001609175Y0003008890D01*
G37*
X0001609175Y0003008890D02*
X0001609175Y0002989409D01*
X0001609479Y0002986322D01*
X0001610380Y0002983353D01*
X0001610902Y0002982377D01*
X0001609602Y0002981682D01*
X0001606605Y0002979222D01*
X0001605988Y0002978471D01*
X0001598697Y0002971179D01*
X0001596262Y0002971179D01*
X0001590938Y0002970120D01*
X0001585922Y0002968043D01*
X0001581408Y0002965027D01*
X0001577570Y0002961188D01*
X0001574554Y0002956674D01*
X0001572476Y0002951659D01*
X0001571417Y0002946335D01*
X0001571417Y0002940906D01*
X0001572476Y0002935582D01*
X0001574554Y0002930566D01*
X0001577570Y0002926052D01*
X0001579232Y0002924390D01*
X0001577322Y0002922480D01*
X0001577322Y0002906808D01*
X0001573385Y0002906808D01*
X0001573385Y0002922480D01*
X0001569525Y0002926341D01*
X0001569525Y0002946102D01*
X0001569164Y0002949765D01*
X0001568095Y0002953287D01*
X0001566360Y0002956534D01*
X0001564025Y0002959379D01*
X0001561179Y0002961714D01*
X0001557933Y0002963450D01*
X0001554411Y0002964518D01*
X0001550748Y0002964879D01*
X0001544842Y0002964879D01*
X0001541179Y0002964518D01*
X0001539234Y0002963928D01*
X0001537102Y0002964575D01*
X0001534015Y0002964879D01*
X0001534015Y0002964803D01*
X0001530078Y0002960866D01*
X0001530078Y0002957568D01*
X0001529230Y0002956534D01*
X0001528110Y0002954439D01*
X0001526990Y0002956534D01*
X0001526141Y0002957568D01*
X0001526141Y0002960866D01*
X0001522204Y0002964803D01*
X0001522204Y0002964879D01*
X0001519117Y0002964575D01*
X0001516985Y0002963928D01*
X0001515041Y0002964518D01*
X0001511377Y0002964879D01*
X0001510393Y0002964879D01*
X0001510393Y0002983232D01*
X0001513957Y0002980851D01*
X0001518972Y0002978773D01*
X0001524296Y0002977714D01*
X0001529725Y0002977714D01*
X0001535049Y0002978773D01*
X0001540065Y0002980851D01*
X0001544579Y0002983867D01*
X0001548417Y0002987706D01*
X0001551433Y0002992219D01*
X0001553511Y0002997235D01*
X0001554570Y0003002559D01*
X0001554570Y0003007988D01*
X0001553511Y0003013312D01*
X0001551433Y0003018328D01*
X0001550248Y0003020101D01*
X0001553655Y0003021134D01*
X0001557074Y0003022962D01*
X0001560072Y0003025422D01*
X0001560689Y0003026174D01*
X0001565959Y0003031444D01*
X0001586621Y0003031444D01*
X0001609175Y0003008890D01*
G36*
X0001607134Y0003444320D02*
G01*
X0001606745Y0003445258D01*
X0001603729Y0003449772D01*
X0001599890Y0003453611D01*
X0001595376Y0003456627D01*
X0001590361Y0003458704D01*
X0001585037Y0003459763D01*
X0001579608Y0003459763D01*
X0001574284Y0003458704D01*
X0001569268Y0003456627D01*
X0001564754Y0003453611D01*
X0001563033Y0003451889D01*
X0001423766Y0003451889D01*
X0001422799Y0003451985D01*
X0001421832Y0003451889D01*
X0001418940Y0003451604D01*
X0001415229Y0003450479D01*
X0001411809Y0003448651D01*
X0001408812Y0003446191D01*
X0001408196Y0003445440D01*
X0001371767Y0003409012D01*
X0001369333Y0003409012D01*
X0001364008Y0003407953D01*
X0001358993Y0003405875D01*
X0001354479Y0003402859D01*
X0001350641Y0003399021D01*
X0001347625Y0003394507D01*
X0001345547Y0003389491D01*
X0001344488Y0003384167D01*
X0001344488Y0003378738D01*
X0001345547Y0003373414D01*
X0001347625Y0003368399D01*
X0001350641Y0003363885D01*
X0001354479Y0003360046D01*
X0001358993Y0003357030D01*
X0001364008Y0003354953D01*
X0001364768Y0003354802D01*
X0001343785Y0003333818D01*
X0001337974Y0003333818D01*
X0001337007Y0003333914D01*
X0001336040Y0003333818D01*
X0001333148Y0003333534D01*
X0001329438Y0003332408D01*
X0001326018Y0003330580D01*
X0001325167Y0003329881D01*
X0001322482Y0003329881D01*
X0001317158Y0003328822D01*
X0001312142Y0003326745D01*
X0001307628Y0003323729D01*
X0001303790Y0003319890D01*
X0001300774Y0003315376D01*
X0001298696Y0003310361D01*
X0001297637Y0003305037D01*
X0001297637Y0003299608D01*
X0001298696Y0003294284D01*
X0001300774Y0003289268D01*
X0001303790Y0003284754D01*
X0001307628Y0003280916D01*
X0001312142Y0003277900D01*
X0001317158Y0003275822D01*
X0001322482Y0003274763D01*
X0001327911Y0003274763D01*
X0001333235Y0003275822D01*
X0001338250Y0003277900D01*
X0001342716Y0003280884D01*
X0001342716Y0003098880D01*
X0001342621Y0003097913D01*
X0001342716Y0003096946D01*
X0001343001Y0003094054D01*
X0001344126Y0003090343D01*
X0001344263Y0003090087D01*
X0001341273Y0003089180D01*
X0001337854Y0003087353D01*
X0001334856Y0003084893D01*
X0001334240Y0003084141D01*
X0001283582Y0003033484D01*
X0001283582Y0003360638D01*
X0001285592Y0003381132D01*
X0001291306Y0003400058D01*
X0001300587Y0003417514D01*
X0001313082Y0003432834D01*
X0001328315Y0003445436D01*
X0001345706Y0003454839D01*
X0001364591Y0003460685D01*
X0001385040Y0003462834D01*
X0001625648Y0003462834D01*
X0001607134Y0003444320D01*
X0001607134Y0003444320D01*
G37*
X0001607134Y0003444320D02*
X0001606745Y0003445258D01*
X0001603729Y0003449772D01*
X0001599890Y0003453611D01*
X0001595376Y0003456627D01*
X0001590361Y0003458704D01*
X0001585037Y0003459763D01*
X0001579608Y0003459763D01*
X0001574284Y0003458704D01*
X0001569268Y0003456627D01*
X0001564754Y0003453611D01*
X0001563033Y0003451889D01*
X0001423766Y0003451889D01*
X0001422799Y0003451985D01*
X0001421832Y0003451889D01*
X0001418940Y0003451604D01*
X0001415229Y0003450479D01*
X0001411809Y0003448651D01*
X0001408812Y0003446191D01*
X0001408196Y0003445440D01*
X0001371767Y0003409012D01*
X0001369333Y0003409012D01*
X0001364008Y0003407953D01*
X0001358993Y0003405875D01*
X0001354479Y0003402859D01*
X0001350641Y0003399021D01*
X0001347625Y0003394507D01*
X0001345547Y0003389491D01*
X0001344488Y0003384167D01*
X0001344488Y0003378738D01*
X0001345547Y0003373414D01*
X0001347625Y0003368399D01*
X0001350641Y0003363885D01*
X0001354479Y0003360046D01*
X0001358993Y0003357030D01*
X0001364008Y0003354953D01*
X0001364768Y0003354802D01*
X0001343785Y0003333818D01*
X0001337974Y0003333818D01*
X0001337007Y0003333914D01*
X0001336040Y0003333818D01*
X0001333148Y0003333534D01*
X0001329438Y0003332408D01*
X0001326018Y0003330580D01*
X0001325167Y0003329881D01*
X0001322482Y0003329881D01*
X0001317158Y0003328822D01*
X0001312142Y0003326745D01*
X0001307628Y0003323729D01*
X0001303790Y0003319890D01*
X0001300774Y0003315376D01*
X0001298696Y0003310361D01*
X0001297637Y0003305037D01*
X0001297637Y0003299608D01*
X0001298696Y0003294284D01*
X0001300774Y0003289268D01*
X0001303790Y0003284754D01*
X0001307628Y0003280916D01*
X0001312142Y0003277900D01*
X0001317158Y0003275822D01*
X0001322482Y0003274763D01*
X0001327911Y0003274763D01*
X0001333235Y0003275822D01*
X0001338250Y0003277900D01*
X0001342716Y0003280884D01*
X0001342716Y0003098880D01*
X0001342621Y0003097913D01*
X0001342716Y0003096946D01*
X0001343001Y0003094054D01*
X0001344126Y0003090343D01*
X0001344263Y0003090087D01*
X0001341273Y0003089180D01*
X0001337854Y0003087353D01*
X0001334856Y0003084893D01*
X0001334240Y0003084141D01*
X0001283582Y0003033484D01*
X0001283582Y0003360638D01*
X0001285592Y0003381132D01*
X0001291306Y0003400058D01*
X0001300587Y0003417514D01*
X0001313082Y0003432834D01*
X0001328315Y0003445436D01*
X0001345706Y0003454839D01*
X0001364591Y0003460685D01*
X0001385040Y0003462834D01*
X0001625648Y0003462834D01*
X0001607134Y0003444320D01*
G36*
X0001840226Y0003274910D02*
G01*
X0001840977Y0003274293D01*
X0001843664Y0003271607D01*
X0001844280Y0003270855D01*
X0001847278Y0003268395D01*
X0001850317Y0003266771D01*
X0001850317Y0003250708D01*
X0001839327Y0003250708D01*
X0001839295Y0003250873D01*
X0001837217Y0003255888D01*
X0001834201Y0003260402D01*
X0001830363Y0003264241D01*
X0001825849Y0003267257D01*
X0001820833Y0003269334D01*
X0001815509Y0003270393D01*
X0001810080Y0003270393D01*
X0001804756Y0003269334D01*
X0001799741Y0003267257D01*
X0001795227Y0003264241D01*
X0001791388Y0003260402D01*
X0001788372Y0003255888D01*
X0001786295Y0003250873D01*
X0001785236Y0003245548D01*
X0001785236Y0003240120D01*
X0001786295Y0003234795D01*
X0001788372Y0003229780D01*
X0001791388Y0003225266D01*
X0001795227Y0003221428D01*
X0001799741Y0003218412D01*
X0001804756Y0003216334D01*
X0001809892Y0003215313D01*
X0001808858Y0003210115D01*
X0001808858Y0003204687D01*
X0001809917Y0003199362D01*
X0001811994Y0003194347D01*
X0001815010Y0003189833D01*
X0001818849Y0003185995D01*
X0001823363Y0003182979D01*
X0001828378Y0003180901D01*
X0001833702Y0003179842D01*
X0001839131Y0003179842D01*
X0001844455Y0003180901D01*
X0001849471Y0003182979D01*
X0001850317Y0003183544D01*
X0001850317Y0003128346D01*
X0001850621Y0003125259D01*
X0001851522Y0003122290D01*
X0001852984Y0003119555D01*
X0001854952Y0003117157D01*
X0001856914Y0003115546D01*
X0001857695Y0003114378D01*
X0001861533Y0003110539D01*
X0001863401Y0003109291D01*
X0001849246Y0003109291D01*
X0001848279Y0003109387D01*
X0001847313Y0003109291D01*
X0001847313Y0003109291D01*
X0001844421Y0003109006D01*
X0001840710Y0003107881D01*
X0001837290Y0003106053D01*
X0001835863Y0003104881D01*
X0001833383Y0003104881D01*
X0001833350Y0003105046D01*
X0001831272Y0003110061D01*
X0001828256Y0003114575D01*
X0001824418Y0003118414D01*
X0001819904Y0003121430D01*
X0001814889Y0003123507D01*
X0001809564Y0003124566D01*
X0001804136Y0003124566D01*
X0001798811Y0003123507D01*
X0001793796Y0003121430D01*
X0001789282Y0003118414D01*
X0001789001Y0003118133D01*
X0001788779Y0003118155D01*
X0001787812Y0003118060D01*
X0001678143Y0003118060D01*
X0001679574Y0003119491D01*
X0001680325Y0003120107D01*
X0001682785Y0003123105D01*
X0001684613Y0003126524D01*
X0001684782Y0003127082D01*
X0001686873Y0003126448D01*
X0001689960Y0003126144D01*
X0001705708Y0003126144D01*
X0001708795Y0003126448D01*
X0001711764Y0003127348D01*
X0001712598Y0003127794D01*
X0001713432Y0003127348D01*
X0001716401Y0003126448D01*
X0001719488Y0003126144D01*
X0001739173Y0003126144D01*
X0001742260Y0003126448D01*
X0001745228Y0003127348D01*
X0001747964Y0003128811D01*
X0001750362Y0003130779D01*
X0001752330Y0003133177D01*
X0001753792Y0003135912D01*
X0001754693Y0003138881D01*
X0001754997Y0003141968D01*
X0001754997Y0003147820D01*
X0001755783Y0003148606D01*
X0001758799Y0003153120D01*
X0001760877Y0003158135D01*
X0001761936Y0003163459D01*
X0001761936Y0003168888D01*
X0001760877Y0003174212D01*
X0001758799Y0003179228D01*
X0001755783Y0003183741D01*
X0001751944Y0003187580D01*
X0001747431Y0003190596D01*
X0001742415Y0003192674D01*
X0001737091Y0003193733D01*
X0001731662Y0003193733D01*
X0001726338Y0003192674D01*
X0001721322Y0003190596D01*
X0001719344Y0003189274D01*
X0001716401Y0003188984D01*
X0001716112Y0003188897D01*
X0001716109Y0003188908D01*
X0001714281Y0003192327D01*
X0001711821Y0003195325D01*
X0001711070Y0003195941D01*
X0001709487Y0003197524D01*
X0001711764Y0003198214D01*
X0001712598Y0003198660D01*
X0001713432Y0003198214D01*
X0001716401Y0003197314D01*
X0001719488Y0003197010D01*
X0001739173Y0003197010D01*
X0001742260Y0003197314D01*
X0001745228Y0003198214D01*
X0001747964Y0003199677D01*
X0001750362Y0003201645D01*
X0001752330Y0003204043D01*
X0001753792Y0003206778D01*
X0001754693Y0003209747D01*
X0001754997Y0003212834D01*
X0001754997Y0003244330D01*
X0001754693Y0003247417D01*
X0001753792Y0003250386D01*
X0001752330Y0003253122D01*
X0001750362Y0003255520D01*
X0001747964Y0003257488D01*
X0001745228Y0003258950D01*
X0001742260Y0003259850D01*
X0001739173Y0003260154D01*
X0001719488Y0003260154D01*
X0001717519Y0003259961D01*
X0001717519Y0003264330D01*
X0001719488Y0003264136D01*
X0001739173Y0003264136D01*
X0001742260Y0003264440D01*
X0001745228Y0003265340D01*
X0001747964Y0003266803D01*
X0001750362Y0003268771D01*
X0001752330Y0003271169D01*
X0001753792Y0003273904D01*
X0001754435Y0003276023D01*
X0001839312Y0003276023D01*
X0001840226Y0003274910D01*
X0001840226Y0003274910D01*
G37*
X0001840226Y0003274910D02*
X0001840977Y0003274293D01*
X0001843664Y0003271607D01*
X0001844280Y0003270855D01*
X0001847278Y0003268395D01*
X0001850317Y0003266771D01*
X0001850317Y0003250708D01*
X0001839327Y0003250708D01*
X0001839295Y0003250873D01*
X0001837217Y0003255888D01*
X0001834201Y0003260402D01*
X0001830363Y0003264241D01*
X0001825849Y0003267257D01*
X0001820833Y0003269334D01*
X0001815509Y0003270393D01*
X0001810080Y0003270393D01*
X0001804756Y0003269334D01*
X0001799741Y0003267257D01*
X0001795227Y0003264241D01*
X0001791388Y0003260402D01*
X0001788372Y0003255888D01*
X0001786295Y0003250873D01*
X0001785236Y0003245548D01*
X0001785236Y0003240120D01*
X0001786295Y0003234795D01*
X0001788372Y0003229780D01*
X0001791388Y0003225266D01*
X0001795227Y0003221428D01*
X0001799741Y0003218412D01*
X0001804756Y0003216334D01*
X0001809892Y0003215313D01*
X0001808858Y0003210115D01*
X0001808858Y0003204687D01*
X0001809917Y0003199362D01*
X0001811994Y0003194347D01*
X0001815010Y0003189833D01*
X0001818849Y0003185995D01*
X0001823363Y0003182979D01*
X0001828378Y0003180901D01*
X0001833702Y0003179842D01*
X0001839131Y0003179842D01*
X0001844455Y0003180901D01*
X0001849471Y0003182979D01*
X0001850317Y0003183544D01*
X0001850317Y0003128346D01*
X0001850621Y0003125259D01*
X0001851522Y0003122290D01*
X0001852984Y0003119555D01*
X0001854952Y0003117157D01*
X0001856914Y0003115546D01*
X0001857695Y0003114378D01*
X0001861533Y0003110539D01*
X0001863401Y0003109291D01*
X0001849246Y0003109291D01*
X0001848279Y0003109387D01*
X0001847313Y0003109291D01*
X0001847313Y0003109291D01*
X0001844421Y0003109006D01*
X0001840710Y0003107881D01*
X0001837290Y0003106053D01*
X0001835863Y0003104881D01*
X0001833383Y0003104881D01*
X0001833350Y0003105046D01*
X0001831272Y0003110061D01*
X0001828256Y0003114575D01*
X0001824418Y0003118414D01*
X0001819904Y0003121430D01*
X0001814889Y0003123507D01*
X0001809564Y0003124566D01*
X0001804136Y0003124566D01*
X0001798811Y0003123507D01*
X0001793796Y0003121430D01*
X0001789282Y0003118414D01*
X0001789001Y0003118133D01*
X0001788779Y0003118155D01*
X0001787812Y0003118060D01*
X0001678143Y0003118060D01*
X0001679574Y0003119491D01*
X0001680325Y0003120107D01*
X0001682785Y0003123105D01*
X0001684613Y0003126524D01*
X0001684782Y0003127082D01*
X0001686873Y0003126448D01*
X0001689960Y0003126144D01*
X0001705708Y0003126144D01*
X0001708795Y0003126448D01*
X0001711764Y0003127348D01*
X0001712598Y0003127794D01*
X0001713432Y0003127348D01*
X0001716401Y0003126448D01*
X0001719488Y0003126144D01*
X0001739173Y0003126144D01*
X0001742260Y0003126448D01*
X0001745228Y0003127348D01*
X0001747964Y0003128811D01*
X0001750362Y0003130779D01*
X0001752330Y0003133177D01*
X0001753792Y0003135912D01*
X0001754693Y0003138881D01*
X0001754997Y0003141968D01*
X0001754997Y0003147820D01*
X0001755783Y0003148606D01*
X0001758799Y0003153120D01*
X0001760877Y0003158135D01*
X0001761936Y0003163459D01*
X0001761936Y0003168888D01*
X0001760877Y0003174212D01*
X0001758799Y0003179228D01*
X0001755783Y0003183741D01*
X0001751944Y0003187580D01*
X0001747431Y0003190596D01*
X0001742415Y0003192674D01*
X0001737091Y0003193733D01*
X0001731662Y0003193733D01*
X0001726338Y0003192674D01*
X0001721322Y0003190596D01*
X0001719344Y0003189274D01*
X0001716401Y0003188984D01*
X0001716112Y0003188897D01*
X0001716109Y0003188908D01*
X0001714281Y0003192327D01*
X0001711821Y0003195325D01*
X0001711070Y0003195941D01*
X0001709487Y0003197524D01*
X0001711764Y0003198214D01*
X0001712598Y0003198660D01*
X0001713432Y0003198214D01*
X0001716401Y0003197314D01*
X0001719488Y0003197010D01*
X0001739173Y0003197010D01*
X0001742260Y0003197314D01*
X0001745228Y0003198214D01*
X0001747964Y0003199677D01*
X0001750362Y0003201645D01*
X0001752330Y0003204043D01*
X0001753792Y0003206778D01*
X0001754693Y0003209747D01*
X0001754997Y0003212834D01*
X0001754997Y0003244330D01*
X0001754693Y0003247417D01*
X0001753792Y0003250386D01*
X0001752330Y0003253122D01*
X0001750362Y0003255520D01*
X0001747964Y0003257488D01*
X0001745228Y0003258950D01*
X0001742260Y0003259850D01*
X0001739173Y0003260154D01*
X0001719488Y0003260154D01*
X0001717519Y0003259961D01*
X0001717519Y0003264330D01*
X0001719488Y0003264136D01*
X0001739173Y0003264136D01*
X0001742260Y0003264440D01*
X0001745228Y0003265340D01*
X0001747964Y0003266803D01*
X0001750362Y0003268771D01*
X0001752330Y0003271169D01*
X0001753792Y0003273904D01*
X0001754435Y0003276023D01*
X0001839312Y0003276023D01*
X0001840226Y0003274910D01*
G36*
X0001384082Y0003288868D02*
G01*
X0001387098Y0003284354D01*
X0001390936Y0003280516D01*
X0001395450Y0003277500D01*
X0001396852Y0003276919D01*
X0001396852Y0003262578D01*
X0001397336Y0003257667D01*
X0001398769Y0003252944D01*
X0001401095Y0003248592D01*
X0001404226Y0003244777D01*
X0001408041Y0003241646D01*
X0001409336Y0003240954D01*
X0001408297Y0003240852D01*
X0001403574Y0003239419D01*
X0001399222Y0003237093D01*
X0001395407Y0003233962D01*
X0001392276Y0003230147D01*
X0001389950Y0003225795D01*
X0001388517Y0003221072D01*
X0001388034Y0003216161D01*
X0001388034Y0003197460D01*
X0001388517Y0003192549D01*
X0001389950Y0003187826D01*
X0001392276Y0003183474D01*
X0001395407Y0003179659D01*
X0001399222Y0003176528D01*
X0001403574Y0003174202D01*
X0001403735Y0003174153D01*
X0001403574Y0003174104D01*
X0001399222Y0003171778D01*
X0001395407Y0003168647D01*
X0001392276Y0003164832D01*
X0001389950Y0003160480D01*
X0001388517Y0003155757D01*
X0001388034Y0003150846D01*
X0001388034Y0003132145D01*
X0001388517Y0003127234D01*
X0001389950Y0003122511D01*
X0001392276Y0003118159D01*
X0001395407Y0003114344D01*
X0001399222Y0003111213D01*
X0001403574Y0003108887D01*
X0001408297Y0003107454D01*
X0001413208Y0003106971D01*
X0001435846Y0003106971D01*
X0001440757Y0003107454D01*
X0001445480Y0003108887D01*
X0001449832Y0003111213D01*
X0001453647Y0003114344D01*
X0001456778Y0003118159D01*
X0001457369Y0003119265D01*
X0001458136Y0003116739D01*
X0001459598Y0003114003D01*
X0001461566Y0003111605D01*
X0001463964Y0003109637D01*
X0001466700Y0003108175D01*
X0001469668Y0003107275D01*
X0001472755Y0003106971D01*
X0001487519Y0003107047D01*
X0001491456Y0003110984D01*
X0001491456Y0003139527D01*
X0001490669Y0003139527D01*
X0001490669Y0003143464D01*
X0001491456Y0003143464D01*
X0001491456Y0003172007D01*
X0001489310Y0003174153D01*
X0001491456Y0003176299D01*
X0001491456Y0003204842D01*
X0001490669Y0003204842D01*
X0001490669Y0003208779D01*
X0001491456Y0003208779D01*
X0001491456Y0003237322D01*
X0001490295Y0003238484D01*
X0001493228Y0003241417D01*
X0001493228Y0003271929D01*
X0001492440Y0003271929D01*
X0001492440Y0003275866D01*
X0001493228Y0003275866D01*
X0001493228Y0003276653D01*
X0001497165Y0003276653D01*
X0001497165Y0003275866D01*
X0001497952Y0003275866D01*
X0001497952Y0003271929D01*
X0001497165Y0003271929D01*
X0001497165Y0003241417D01*
X0001498326Y0003240255D01*
X0001495393Y0003237322D01*
X0001495393Y0003208779D01*
X0001525905Y0003208779D01*
X0001529842Y0003212716D01*
X0001529918Y0003225511D01*
X0001529614Y0003228598D01*
X0001528714Y0003231567D01*
X0001527251Y0003234303D01*
X0001525283Y0003236701D01*
X0001522885Y0003238669D01*
X0001521476Y0003239422D01*
X0001522689Y0003240070D01*
X0001525087Y0003242038D01*
X0001527054Y0003244436D01*
X0001528517Y0003247172D01*
X0001529417Y0003250141D01*
X0001529721Y0003253228D01*
X0001529654Y0003266203D01*
X0001530477Y0003265954D01*
X0001533369Y0003265669D01*
X0001533370Y0003265669D01*
X0001534336Y0003265574D01*
X0001535303Y0003265669D01*
X0001602615Y0003265669D01*
X0001603390Y0003263796D01*
X0001606406Y0003259282D01*
X0001610245Y0003255444D01*
X0001612507Y0003253932D01*
X0001611842Y0003253122D01*
X0001610380Y0003250386D01*
X0001609479Y0003247417D01*
X0001609175Y0003244330D01*
X0001609175Y0003212834D01*
X0001609479Y0003209747D01*
X0001610380Y0003206778D01*
X0001611842Y0003204043D01*
X0001613810Y0003201645D01*
X0001616208Y0003199677D01*
X0001618944Y0003198214D01*
X0001621912Y0003197314D01*
X0001625000Y0003197010D01*
X0001644685Y0003197010D01*
X0001647772Y0003197314D01*
X0001650740Y0003198214D01*
X0001651574Y0003198660D01*
X0001652408Y0003198214D01*
X0001653088Y0003198008D01*
X0001652861Y0003196867D01*
X0001652861Y0003191439D01*
X0001653464Y0003188404D01*
X0001652408Y0003188084D01*
X0001651574Y0003187638D01*
X0001650740Y0003188084D01*
X0001647772Y0003188984D01*
X0001644685Y0003189288D01*
X0001625000Y0003189288D01*
X0001621912Y0003188984D01*
X0001618944Y0003188084D01*
X0001616208Y0003186621D01*
X0001613810Y0003184653D01*
X0001611842Y0003182256D01*
X0001610380Y0003179520D01*
X0001609479Y0003176551D01*
X0001609175Y0003173464D01*
X0001609175Y0003166732D01*
X0001550662Y0003166732D01*
X0001550558Y0003166775D01*
X0001545233Y0003167834D01*
X0001539805Y0003167834D01*
X0001534481Y0003166775D01*
X0001529465Y0003164698D01*
X0001529232Y0003164542D01*
X0001528714Y0003166252D01*
X0001527251Y0003168988D01*
X0001525283Y0003171386D01*
X0001522885Y0003173354D01*
X0001521390Y0003174153D01*
X0001522885Y0003174952D01*
X0001525283Y0003176920D01*
X0001527251Y0003179318D01*
X0001528714Y0003182054D01*
X0001529614Y0003185023D01*
X0001529918Y0003188110D01*
X0001529842Y0003200905D01*
X0001525905Y0003204842D01*
X0001495393Y0003204842D01*
X0001495393Y0003176299D01*
X0001497539Y0003174153D01*
X0001495393Y0003172007D01*
X0001495393Y0003143464D01*
X0001496181Y0003143464D01*
X0001496181Y0003139527D01*
X0001495393Y0003139527D01*
X0001495393Y0003110984D01*
X0001499330Y0003107047D01*
X0001514094Y0003106971D01*
X0001517181Y0003107275D01*
X0001520150Y0003108175D01*
X0001520253Y0003108230D01*
X0001518362Y0003106339D01*
X0001382086Y0003106339D01*
X0001382086Y0003288302D01*
X0001383663Y0003289879D01*
X0001384082Y0003288868D01*
X0001384082Y0003288868D01*
G37*
X0001384082Y0003288868D02*
X0001387098Y0003284354D01*
X0001390936Y0003280516D01*
X0001395450Y0003277500D01*
X0001396852Y0003276919D01*
X0001396852Y0003262578D01*
X0001397336Y0003257667D01*
X0001398769Y0003252944D01*
X0001401095Y0003248592D01*
X0001404226Y0003244777D01*
X0001408041Y0003241646D01*
X0001409336Y0003240954D01*
X0001408297Y0003240852D01*
X0001403574Y0003239419D01*
X0001399222Y0003237093D01*
X0001395407Y0003233962D01*
X0001392276Y0003230147D01*
X0001389950Y0003225795D01*
X0001388517Y0003221072D01*
X0001388034Y0003216161D01*
X0001388034Y0003197460D01*
X0001388517Y0003192549D01*
X0001389950Y0003187826D01*
X0001392276Y0003183474D01*
X0001395407Y0003179659D01*
X0001399222Y0003176528D01*
X0001403574Y0003174202D01*
X0001403735Y0003174153D01*
X0001403574Y0003174104D01*
X0001399222Y0003171778D01*
X0001395407Y0003168647D01*
X0001392276Y0003164832D01*
X0001389950Y0003160480D01*
X0001388517Y0003155757D01*
X0001388034Y0003150846D01*
X0001388034Y0003132145D01*
X0001388517Y0003127234D01*
X0001389950Y0003122511D01*
X0001392276Y0003118159D01*
X0001395407Y0003114344D01*
X0001399222Y0003111213D01*
X0001403574Y0003108887D01*
X0001408297Y0003107454D01*
X0001413208Y0003106971D01*
X0001435846Y0003106971D01*
X0001440757Y0003107454D01*
X0001445480Y0003108887D01*
X0001449832Y0003111213D01*
X0001453647Y0003114344D01*
X0001456778Y0003118159D01*
X0001457369Y0003119265D01*
X0001458136Y0003116739D01*
X0001459598Y0003114003D01*
X0001461566Y0003111605D01*
X0001463964Y0003109637D01*
X0001466700Y0003108175D01*
X0001469668Y0003107275D01*
X0001472755Y0003106971D01*
X0001487519Y0003107047D01*
X0001491456Y0003110984D01*
X0001491456Y0003139527D01*
X0001490669Y0003139527D01*
X0001490669Y0003143464D01*
X0001491456Y0003143464D01*
X0001491456Y0003172007D01*
X0001489310Y0003174153D01*
X0001491456Y0003176299D01*
X0001491456Y0003204842D01*
X0001490669Y0003204842D01*
X0001490669Y0003208779D01*
X0001491456Y0003208779D01*
X0001491456Y0003237322D01*
X0001490295Y0003238484D01*
X0001493228Y0003241417D01*
X0001493228Y0003271929D01*
X0001492440Y0003271929D01*
X0001492440Y0003275866D01*
X0001493228Y0003275866D01*
X0001493228Y0003276653D01*
X0001497165Y0003276653D01*
X0001497165Y0003275866D01*
X0001497952Y0003275866D01*
X0001497952Y0003271929D01*
X0001497165Y0003271929D01*
X0001497165Y0003241417D01*
X0001498326Y0003240255D01*
X0001495393Y0003237322D01*
X0001495393Y0003208779D01*
X0001525905Y0003208779D01*
X0001529842Y0003212716D01*
X0001529918Y0003225511D01*
X0001529614Y0003228598D01*
X0001528714Y0003231567D01*
X0001527251Y0003234303D01*
X0001525283Y0003236701D01*
X0001522885Y0003238669D01*
X0001521476Y0003239422D01*
X0001522689Y0003240070D01*
X0001525087Y0003242038D01*
X0001527054Y0003244436D01*
X0001528517Y0003247172D01*
X0001529417Y0003250141D01*
X0001529721Y0003253228D01*
X0001529654Y0003266203D01*
X0001530477Y0003265954D01*
X0001533369Y0003265669D01*
X0001533370Y0003265669D01*
X0001534336Y0003265574D01*
X0001535303Y0003265669D01*
X0001602615Y0003265669D01*
X0001603390Y0003263796D01*
X0001606406Y0003259282D01*
X0001610245Y0003255444D01*
X0001612507Y0003253932D01*
X0001611842Y0003253122D01*
X0001610380Y0003250386D01*
X0001609479Y0003247417D01*
X0001609175Y0003244330D01*
X0001609175Y0003212834D01*
X0001609479Y0003209747D01*
X0001610380Y0003206778D01*
X0001611842Y0003204043D01*
X0001613810Y0003201645D01*
X0001616208Y0003199677D01*
X0001618944Y0003198214D01*
X0001621912Y0003197314D01*
X0001625000Y0003197010D01*
X0001644685Y0003197010D01*
X0001647772Y0003197314D01*
X0001650740Y0003198214D01*
X0001651574Y0003198660D01*
X0001652408Y0003198214D01*
X0001653088Y0003198008D01*
X0001652861Y0003196867D01*
X0001652861Y0003191439D01*
X0001653464Y0003188404D01*
X0001652408Y0003188084D01*
X0001651574Y0003187638D01*
X0001650740Y0003188084D01*
X0001647772Y0003188984D01*
X0001644685Y0003189288D01*
X0001625000Y0003189288D01*
X0001621912Y0003188984D01*
X0001618944Y0003188084D01*
X0001616208Y0003186621D01*
X0001613810Y0003184653D01*
X0001611842Y0003182256D01*
X0001610380Y0003179520D01*
X0001609479Y0003176551D01*
X0001609175Y0003173464D01*
X0001609175Y0003166732D01*
X0001550662Y0003166732D01*
X0001550558Y0003166775D01*
X0001545233Y0003167834D01*
X0001539805Y0003167834D01*
X0001534481Y0003166775D01*
X0001529465Y0003164698D01*
X0001529232Y0003164542D01*
X0001528714Y0003166252D01*
X0001527251Y0003168988D01*
X0001525283Y0003171386D01*
X0001522885Y0003173354D01*
X0001521390Y0003174153D01*
X0001522885Y0003174952D01*
X0001525283Y0003176920D01*
X0001527251Y0003179318D01*
X0001528714Y0003182054D01*
X0001529614Y0003185023D01*
X0001529918Y0003188110D01*
X0001529842Y0003200905D01*
X0001525905Y0003204842D01*
X0001495393Y0003204842D01*
X0001495393Y0003176299D01*
X0001497539Y0003174153D01*
X0001495393Y0003172007D01*
X0001495393Y0003143464D01*
X0001496181Y0003143464D01*
X0001496181Y0003139527D01*
X0001495393Y0003139527D01*
X0001495393Y0003110984D01*
X0001499330Y0003107047D01*
X0001514094Y0003106971D01*
X0001517181Y0003107275D01*
X0001520150Y0003108175D01*
X0001520253Y0003108230D01*
X0001518362Y0003106339D01*
X0001382086Y0003106339D01*
X0001382086Y0003288302D01*
X0001383663Y0003289879D01*
X0001384082Y0003288868D01*
G36*
X0001917322Y0003166732D02*
G01*
X0001918110Y0003166732D01*
X0001918110Y0003162795D01*
X0001917322Y0003162795D01*
X0001917322Y0003116535D01*
X0001920135Y0003113722D01*
X0001915704Y0003109291D01*
X0001894801Y0003109291D01*
X0001896669Y0003110539D01*
X0001899763Y0003113633D01*
X0001902424Y0003112826D01*
X0001905511Y0003112522D01*
X0001909448Y0003112598D01*
X0001913385Y0003116535D01*
X0001913385Y0003162795D01*
X0001912598Y0003162795D01*
X0001912598Y0003166732D01*
X0001913385Y0003166732D01*
X0001913385Y0003167519D01*
X0001917322Y0003167519D01*
X0001917322Y0003166732D01*
X0001917322Y0003166732D01*
G37*
X0001917322Y0003166732D02*
X0001918110Y0003166732D01*
X0001918110Y0003162795D01*
X0001917322Y0003162795D01*
X0001917322Y0003116535D01*
X0001920135Y0003113722D01*
X0001915704Y0003109291D01*
X0001894801Y0003109291D01*
X0001896669Y0003110539D01*
X0001899763Y0003113633D01*
X0001902424Y0003112826D01*
X0001905511Y0003112522D01*
X0001909448Y0003112598D01*
X0001913385Y0003116535D01*
X0001913385Y0003162795D01*
X0001912598Y0003162795D01*
X0001912598Y0003166732D01*
X0001913385Y0003166732D01*
X0001913385Y0003167519D01*
X0001917322Y0003167519D01*
X0001917322Y0003166732D01*
G36*
X0002132758Y0003317736D02*
G01*
X0002132758Y0003295098D01*
X0002133242Y0003290187D01*
X0002134674Y0003285464D01*
X0002137001Y0003281112D01*
X0002140131Y0003277297D01*
X0002143946Y0003274166D01*
X0002148058Y0003271968D01*
X0002143946Y0003269770D01*
X0002140131Y0003266639D01*
X0002137001Y0003262824D01*
X0002134674Y0003258472D01*
X0002133242Y0003253749D01*
X0002132758Y0003248838D01*
X0002132758Y0003226200D01*
X0002133242Y0003221289D01*
X0002134674Y0003216566D01*
X0002137001Y0003212214D01*
X0002140131Y0003208399D01*
X0002143946Y0003205268D01*
X0002147598Y0003203317D01*
X0002147598Y0003194699D01*
X0002097909Y0003244388D01*
X0002098197Y0003245338D01*
X0002098501Y0003248425D01*
X0002098501Y0003319212D01*
X0002132903Y0003319212D01*
X0002132758Y0003317736D01*
X0002132758Y0003317736D01*
G37*
X0002132758Y0003317736D02*
X0002132758Y0003295098D01*
X0002133242Y0003290187D01*
X0002134674Y0003285464D01*
X0002137001Y0003281112D01*
X0002140131Y0003277297D01*
X0002143946Y0003274166D01*
X0002148058Y0003271968D01*
X0002143946Y0003269770D01*
X0002140131Y0003266639D01*
X0002137001Y0003262824D01*
X0002134674Y0003258472D01*
X0002133242Y0003253749D01*
X0002132758Y0003248838D01*
X0002132758Y0003226200D01*
X0002133242Y0003221289D01*
X0002134674Y0003216566D01*
X0002137001Y0003212214D01*
X0002140131Y0003208399D01*
X0002143946Y0003205268D01*
X0002147598Y0003203317D01*
X0002147598Y0003194699D01*
X0002097909Y0003244388D01*
X0002098197Y0003245338D01*
X0002098501Y0003248425D01*
X0002098501Y0003319212D01*
X0002132903Y0003319212D01*
X0002132758Y0003317736D01*
G36*
X0002199796Y0003280797D02*
G01*
X0002202927Y0003276982D01*
X0002206742Y0003273851D01*
X0002207848Y0003273260D01*
X0002205322Y0003272493D01*
X0002202586Y0003271031D01*
X0002200188Y0003269063D01*
X0002198220Y0003266665D01*
X0002196758Y0003263929D01*
X0002196731Y0003263841D01*
X0002194435Y0003266639D01*
X0002190620Y0003269770D01*
X0002186507Y0003271968D01*
X0002190620Y0003274166D01*
X0002194435Y0003277297D01*
X0002197565Y0003281112D01*
X0002198596Y0003283041D01*
X0002199796Y0003280797D01*
X0002199796Y0003280797D01*
G37*
X0002199796Y0003280797D02*
X0002202927Y0003276982D01*
X0002206742Y0003273851D01*
X0002207848Y0003273260D01*
X0002205322Y0003272493D01*
X0002202586Y0003271031D01*
X0002200188Y0003269063D01*
X0002198220Y0003266665D01*
X0002196758Y0003263929D01*
X0002196731Y0003263841D01*
X0002194435Y0003266639D01*
X0002190620Y0003269770D01*
X0002186507Y0003271968D01*
X0002190620Y0003274166D01*
X0002194435Y0003277297D01*
X0002197565Y0003281112D01*
X0002198596Y0003283041D01*
X0002199796Y0003280797D01*
G36*
X0001629662Y0003398147D02*
G01*
X0001625000Y0003398147D01*
X0001621912Y0003397842D01*
X0001618944Y0003396942D01*
X0001616208Y0003395480D01*
X0001613810Y0003393512D01*
X0001611842Y0003391114D01*
X0001610380Y0003388378D01*
X0001609479Y0003385410D01*
X0001609175Y0003382322D01*
X0001609175Y0003350826D01*
X0001609479Y0003347739D01*
X0001610380Y0003344771D01*
X0001611842Y0003342035D01*
X0001613810Y0003339637D01*
X0001616208Y0003337669D01*
X0001618944Y0003336207D01*
X0001621912Y0003335306D01*
X0001625000Y0003335002D01*
X0001644685Y0003335002D01*
X0001647772Y0003335306D01*
X0001650740Y0003336207D01*
X0001651574Y0003336652D01*
X0001652408Y0003336207D01*
X0001655377Y0003335306D01*
X0001658464Y0003335002D01*
X0001674212Y0003335002D01*
X0001677299Y0003335306D01*
X0001679390Y0003335940D01*
X0001679409Y0003335879D01*
X0001679560Y0003335383D01*
X0001681387Y0003331963D01*
X0001683847Y0003328965D01*
X0001684599Y0003328349D01*
X0001686181Y0003326766D01*
X0001683904Y0003326076D01*
X0001682086Y0003325104D01*
X0001680268Y0003326076D01*
X0001677299Y0003326976D01*
X0001674212Y0003327280D01*
X0001658464Y0003327280D01*
X0001655377Y0003326976D01*
X0001652408Y0003326076D01*
X0001651574Y0003325630D01*
X0001650740Y0003326076D01*
X0001647772Y0003326976D01*
X0001644685Y0003327280D01*
X0001625000Y0003327280D01*
X0001621912Y0003326976D01*
X0001618944Y0003326076D01*
X0001616208Y0003324614D01*
X0001613810Y0003322646D01*
X0001611842Y0003320248D01*
X0001610380Y0003317512D01*
X0001609479Y0003314543D01*
X0001609372Y0003313449D01*
X0001606951Y0003312155D01*
X0001603954Y0003309695D01*
X0001603337Y0003308944D01*
X0001602054Y0003307660D01*
X0001602703Y0003310925D01*
X0001602703Y0003316354D01*
X0001601644Y0003321678D01*
X0001599567Y0003326694D01*
X0001596551Y0003331208D01*
X0001592712Y0003335046D01*
X0001588198Y0003338062D01*
X0001584566Y0003339567D01*
X0001584566Y0003388897D01*
X0001598268Y0003388897D01*
X0001599235Y0003388802D01*
X0001600202Y0003388897D01*
X0001603094Y0003389182D01*
X0001606804Y0003390307D01*
X0001610224Y0003392135D01*
X0001613221Y0003394595D01*
X0001613838Y0003395347D01*
X0001653334Y0003434843D01*
X0001666358Y0003434843D01*
X0001629662Y0003398147D01*
X0001629662Y0003398147D01*
G37*
X0001629662Y0003398147D02*
X0001625000Y0003398147D01*
X0001621912Y0003397842D01*
X0001618944Y0003396942D01*
X0001616208Y0003395480D01*
X0001613810Y0003393512D01*
X0001611842Y0003391114D01*
X0001610380Y0003388378D01*
X0001609479Y0003385410D01*
X0001609175Y0003382322D01*
X0001609175Y0003350826D01*
X0001609479Y0003347739D01*
X0001610380Y0003344771D01*
X0001611842Y0003342035D01*
X0001613810Y0003339637D01*
X0001616208Y0003337669D01*
X0001618944Y0003336207D01*
X0001621912Y0003335306D01*
X0001625000Y0003335002D01*
X0001644685Y0003335002D01*
X0001647772Y0003335306D01*
X0001650740Y0003336207D01*
X0001651574Y0003336652D01*
X0001652408Y0003336207D01*
X0001655377Y0003335306D01*
X0001658464Y0003335002D01*
X0001674212Y0003335002D01*
X0001677299Y0003335306D01*
X0001679390Y0003335940D01*
X0001679409Y0003335879D01*
X0001679560Y0003335383D01*
X0001681387Y0003331963D01*
X0001683847Y0003328965D01*
X0001684599Y0003328349D01*
X0001686181Y0003326766D01*
X0001683904Y0003326076D01*
X0001682086Y0003325104D01*
X0001680268Y0003326076D01*
X0001677299Y0003326976D01*
X0001674212Y0003327280D01*
X0001658464Y0003327280D01*
X0001655377Y0003326976D01*
X0001652408Y0003326076D01*
X0001651574Y0003325630D01*
X0001650740Y0003326076D01*
X0001647772Y0003326976D01*
X0001644685Y0003327280D01*
X0001625000Y0003327280D01*
X0001621912Y0003326976D01*
X0001618944Y0003326076D01*
X0001616208Y0003324614D01*
X0001613810Y0003322646D01*
X0001611842Y0003320248D01*
X0001610380Y0003317512D01*
X0001609479Y0003314543D01*
X0001609372Y0003313449D01*
X0001606951Y0003312155D01*
X0001603954Y0003309695D01*
X0001603337Y0003308944D01*
X0001602054Y0003307660D01*
X0001602703Y0003310925D01*
X0001602703Y0003316354D01*
X0001601644Y0003321678D01*
X0001599567Y0003326694D01*
X0001596551Y0003331208D01*
X0001592712Y0003335046D01*
X0001588198Y0003338062D01*
X0001584566Y0003339567D01*
X0001584566Y0003388897D01*
X0001598268Y0003388897D01*
X0001599235Y0003388802D01*
X0001600202Y0003388897D01*
X0001603094Y0003389182D01*
X0001606804Y0003390307D01*
X0001610224Y0003392135D01*
X0001613221Y0003394595D01*
X0001613838Y0003395347D01*
X0001653334Y0003434843D01*
X0001666358Y0003434843D01*
X0001629662Y0003398147D01*
M02*