%MOIN*%
%OFA0B0*%
%FSLAX46Y46*%
%IPPOS*%
%LPD*%
%ADD10C,0.0039370078740157488*%
%LPD*%
G04 next file*
%LPD*%
G04 #@! TF.GenerationSoftware,KiCad,Pcbnew,(5.1.2)-1*
G04 #@! TF.CreationDate,2019-11-08T13:50:46+05:30*
G04 #@! TF.ProjectId,TALK,54414c4b-2e6b-4696-9361-645f70636258,rev?*
G04 #@! TF.SameCoordinates,Original*
G04 #@! TF.FileFunction,Soldermask,Bot*
G04 #@! TF.FilePolarity,Negative*
G04 Gerber Fmt 4.6, Leading zero omitted, Abs format (unit mm)*
G04 Created by KiCad (PCBNEW (5.1.2)-1) date 2019-11-08 13:50:46*
G04 APERTURE LIST*
G04 APERTURE END LIST*
D10*
G36*
X0001608976Y0002535472D02*
G01*
X0001573464Y0002535472D01*
X0001573464Y0002588700D01*
X0001608976Y0002588700D01*
X0001608976Y0002535472D01*
X0001608976Y0002535472D01*
G37*
G36*
X0001538110Y0002535472D02*
G01*
X0001502598Y0002535472D01*
X0001502598Y0002588700D01*
X0001538110Y0002588700D01*
X0001538110Y0002535472D01*
X0001538110Y0002535472D01*
G37*
G36*
X0001408031Y0002539409D02*
G01*
X0001384330Y0002539409D01*
X0001384330Y0002616259D01*
X0001408031Y0002616259D01*
X0001408031Y0002539409D01*
X0001408031Y0002539409D01*
G37*
G36*
X0001727244Y0002539409D02*
G01*
X0001703543Y0002539409D01*
X0001703543Y0002616259D01*
X0001727244Y0002616259D01*
X0001727244Y0002539409D01*
X0001727244Y0002539409D01*
G37*
G36*
X0001687874Y0002539409D02*
G01*
X0001664173Y0002539409D01*
X0001664173Y0002616259D01*
X0001687874Y0002616259D01*
X0001687874Y0002539409D01*
X0001687874Y0002539409D01*
G37*
G36*
X0001447401Y0002539409D02*
G01*
X0001423700Y0002539409D01*
X0001423700Y0002616259D01*
X0001447401Y0002616259D01*
X0001447401Y0002539409D01*
X0001447401Y0002539409D01*
G37*
G36*
X0001608976Y0002600433D02*
G01*
X0001573464Y0002600433D01*
X0001573464Y0002653661D01*
X0001608976Y0002653661D01*
X0001608976Y0002600433D01*
X0001608976Y0002600433D01*
G37*
G36*
X0001538110Y0002600433D02*
G01*
X0001502598Y0002600433D01*
X0001502598Y0002653661D01*
X0001538110Y0002653661D01*
X0001538110Y0002600433D01*
X0001538110Y0002600433D01*
G37*
G36*
X0002175590Y0003075905D02*
G01*
X0002175685Y0003074945D01*
X0002175965Y0003074022D01*
X0002176419Y0003073171D01*
X0002177031Y0003072425D01*
X0002177777Y0003071813D01*
X0002178628Y0003071358D01*
X0002179551Y0003071078D01*
X0002180511Y0003070984D01*
X0002234645Y0003070984D01*
X0002234645Y0002604370D01*
X0002183385Y0002604370D01*
X0002183385Y0003046299D01*
X0002183291Y0003047259D01*
X0002183011Y0003048182D01*
X0002182556Y0003049033D01*
X0002181944Y0003049779D01*
X0002181198Y0003050391D01*
X0002180347Y0003050845D01*
X0002179424Y0003051125D01*
X0002178464Y0003051220D01*
X0001853740Y0003051220D01*
X0001852780Y0003051125D01*
X0001851856Y0003050845D01*
X0001851006Y0003050391D01*
X0001850260Y0003049779D01*
X0001849648Y0003049033D01*
X0001849193Y0003048182D01*
X0001848913Y0003047259D01*
X0001848818Y0003046299D01*
X0001848818Y0002722480D01*
X0001797559Y0002722480D01*
X0001797559Y0003070984D01*
X0001851692Y0003070984D01*
X0001852653Y0003071078D01*
X0001853576Y0003071358D01*
X0001854427Y0003071813D01*
X0001855172Y0003072425D01*
X0001855784Y0003073171D01*
X0001856239Y0003074022D01*
X0001856519Y0003074945D01*
X0001856614Y0003075905D01*
X0001856614Y0003102480D01*
X0002175590Y0003102480D01*
X0002175590Y0003075905D01*
X0002175590Y0003075905D01*
G37*
G36*
X0001447401Y0002659488D02*
G01*
X0001423700Y0002659488D01*
X0001423700Y0002736338D01*
X0001447401Y0002736338D01*
X0001447401Y0002659488D01*
X0001447401Y0002659488D01*
G37*
G36*
X0001687874Y0002659488D02*
G01*
X0001664173Y0002659488D01*
X0001664173Y0002736338D01*
X0001687874Y0002736338D01*
X0001687874Y0002659488D01*
X0001687874Y0002659488D01*
G37*
G36*
X0001408031Y0002659488D02*
G01*
X0001384330Y0002659488D01*
X0001384330Y0002736338D01*
X0001408031Y0002736338D01*
X0001408031Y0002659488D01*
X0001408031Y0002659488D01*
G37*
G36*
X0001727244Y0002659488D02*
G01*
X0001703543Y0002659488D01*
X0001703543Y0002736338D01*
X0001727244Y0002736338D01*
X0001727244Y0002659488D01*
X0001727244Y0002659488D01*
G37*
G36*
X0001693818Y0002821220D02*
G01*
X0001392559Y0002821220D01*
X0001392559Y0002868543D01*
X0001693818Y0002868543D01*
X0001693818Y0002821220D01*
X0001693818Y0002821220D01*
G37*
G36*
X0001693818Y0003045629D02*
G01*
X0001392559Y0003045629D01*
X0001392559Y0003092952D01*
X0001693818Y0003092952D01*
X0001693818Y0003045629D01*
X0001693818Y0003045629D01*
G37*
G36*
X0002127125Y0003160157D02*
G01*
X0002103425Y0003160157D01*
X0002103425Y0003237007D01*
X0002127125Y0003237007D01*
X0002127125Y0003160157D01*
X0002127125Y0003160157D01*
G37*
G36*
X0001418740Y0003160157D02*
G01*
X0001395039Y0003160157D01*
X0001395039Y0003237007D01*
X0001418740Y0003237007D01*
X0001418740Y0003160157D01*
X0001418740Y0003160157D01*
G37*
G36*
X0001458110Y0003160157D02*
G01*
X0001434409Y0003160157D01*
X0001434409Y0003237007D01*
X0001458110Y0003237007D01*
X0001458110Y0003160157D01*
X0001458110Y0003160157D01*
G37*
G36*
X0001654868Y0003160157D02*
G01*
X0001631167Y0003160157D01*
X0001631167Y0003237007D01*
X0001654868Y0003237007D01*
X0001654868Y0003160157D01*
X0001654868Y0003160157D01*
G37*
G36*
X0001890997Y0003160157D02*
G01*
X0001867296Y0003160157D01*
X0001867296Y0003237007D01*
X0001890997Y0003237007D01*
X0001890997Y0003160157D01*
X0001890997Y0003160157D01*
G37*
G36*
X0001930367Y0003160157D02*
G01*
X0001906666Y0003160157D01*
X0001906666Y0003237007D01*
X0001930367Y0003237007D01*
X0001930367Y0003160157D01*
X0001930367Y0003160157D01*
G37*
G36*
X0001694238Y0003160157D02*
G01*
X0001670538Y0003160157D01*
X0001670538Y0003237007D01*
X0001694238Y0003237007D01*
X0001694238Y0003160157D01*
X0001694238Y0003160157D01*
G37*
G36*
X0002166496Y0003160157D02*
G01*
X0002142795Y0003160157D01*
X0002142795Y0003237007D01*
X0002166496Y0003237007D01*
X0002166496Y0003160157D01*
X0002166496Y0003160157D01*
G37*
G36*
X0001418740Y0003280236D02*
G01*
X0001395039Y0003280236D01*
X0001395039Y0003357086D01*
X0001418740Y0003357086D01*
X0001418740Y0003280236D01*
X0001418740Y0003280236D01*
G37*
G36*
X0001654868Y0003280236D02*
G01*
X0001631167Y0003280236D01*
X0001631167Y0003357086D01*
X0001654868Y0003357086D01*
X0001654868Y0003280236D01*
X0001654868Y0003280236D01*
G37*
G36*
X0001458110Y0003280236D02*
G01*
X0001434409Y0003280236D01*
X0001434409Y0003357086D01*
X0001458110Y0003357086D01*
X0001458110Y0003280236D01*
X0001458110Y0003280236D01*
G37*
G36*
X0001694238Y0003280236D02*
G01*
X0001670538Y0003280236D01*
X0001670538Y0003357086D01*
X0001694238Y0003357086D01*
X0001694238Y0003280236D01*
X0001694238Y0003280236D01*
G37*
G36*
X0001890997Y0003280236D02*
G01*
X0001867296Y0003280236D01*
X0001867296Y0003357086D01*
X0001890997Y0003357086D01*
X0001890997Y0003280236D01*
X0001890997Y0003280236D01*
G37*
G36*
X0001930367Y0003280236D02*
G01*
X0001906666Y0003280236D01*
X0001906666Y0003357086D01*
X0001930367Y0003357086D01*
X0001930367Y0003280236D01*
X0001930367Y0003280236D01*
G37*
G36*
X0002127125Y0003280236D02*
G01*
X0002103425Y0003280236D01*
X0002103425Y0003357086D01*
X0002127125Y0003357086D01*
X0002127125Y0003280236D01*
X0002127125Y0003280236D01*
G37*
G36*
X0002166496Y0003280236D02*
G01*
X0002142795Y0003280236D01*
X0002142795Y0003357086D01*
X0002166496Y0003357086D01*
X0002166496Y0003280236D01*
X0002166496Y0003280236D01*
G37*
M02*