%
M48
METRIC,000.000
T10C0.40
%
T10
X033009Y080190
X033510Y065975
X033627Y068013
X033660Y083879
X033841Y069951
X033887Y069066
X034532Y067028
X034849Y085889
X034895Y074929
X034943Y071635
X035265Y079001
X035483Y064351
X035776Y083869
X036464Y075576
X036795Y068624
X036795Y064510
X037264Y075585
X037298Y069824
X037625Y073114
X038786Y076334
X039166Y084103
X039180Y079763
X039764Y063910
X039855Y076899
X040008Y084166
X040016Y070327
X040066Y079335
X040191Y087178
X040464Y085978
X040565Y063927
X040614Y074768
X040734Y080643
X041095Y073382
X041325Y070637
X041346Y083232
X042025Y087094
X042381Y066557
X042682Y081132
X043032Y070040
X043073Y071010
X043129Y085825
X043753Y086345
X044053Y080421
X044062Y070958
X044271Y072726
X044705Y072020
X044726Y070111
X044877Y063518
X044895Y073227
X044949Y085540
X044991Y066554
X045702Y086304
X045894Y078664
X046044Y082368
X046645Y081468
X046830Y079072
X047097Y083947
X047721Y087036
X047726Y065164
X047729Y079551
X048478Y086777
X049830Y073978
X049881Y067164
X050698Y065055
X050889Y085226
X051298Y070894
X051948Y074739
X053583Y082363
X054455Y085826
X055006Y079557
X055241Y085979
X055735Y080968
X056336Y085400
X056336Y080320
X057346Y085238
M30