%MOIN*%
%OFA0B0*%
%FSLAX46Y46*%
%IPPOS*%
%LPD*%
%ADD10C,0.005905511811023622*%
%ADD11C,0.0047244094488188976*%
%LPD*%
G36*
X0001519200Y0003861400D02*
G01*
X0001520400Y0003861600D01*
X0001521500Y0003862200D01*
X0001522400Y0003863099D01*
X0001522900Y0003864200D01*
X0001523100Y0003865400D01*
X0001522900Y0003866599D01*
X0001522400Y0003867700D01*
X0001521500Y0003868599D01*
X0001520400Y0003869100D01*
X0001519200Y0003869300D01*
X0001485400Y0003869300D01*
X0001484200Y0003869100D01*
X0001483100Y0003868599D01*
X0001482199Y0003867700D01*
X0001481700Y0003866599D01*
X0001481500Y0003865400D01*
X0001481700Y0003864200D01*
X0001482199Y0003863099D01*
X0001483100Y0003862200D01*
X0001484200Y0003861600D01*
X0001485400Y0003861400D01*
X0001519200Y0003861400D01*
G37*
G36*
X0001502300Y0003802400D02*
G01*
X0001503500Y0003802600D01*
X0001504600Y0003803099D01*
X0001505500Y0003804000D01*
X0001506000Y0003805100D01*
X0001506199Y0003806300D01*
X0001506199Y0003865400D01*
X0001506000Y0003866599D01*
X0001505500Y0003867700D01*
X0001504600Y0003868599D01*
X0001503500Y0003869100D01*
X0001502300Y0003869300D01*
X0001501100Y0003869100D01*
X0001499999Y0003868599D01*
X0001499100Y0003867700D01*
X0001498500Y0003866599D01*
X0001498400Y0003865400D01*
X0001498400Y0003806300D01*
X0001498500Y0003805100D01*
X0001499100Y0003804000D01*
X0001499999Y0003803099D01*
X0001501100Y0003802600D01*
X0001502300Y0003802400D01*
G37*
G36*
X0001541700Y0003805200D02*
G01*
X0001542900Y0003805400D01*
X0001544000Y0003806000D01*
X0001544800Y0003806800D01*
X0001545400Y0003807900D01*
X0001545600Y0003809100D01*
X0001545400Y0003810400D01*
X0001544800Y0003811500D01*
X0001544000Y0003812300D01*
X0001541200Y0003815099D01*
X0001540100Y0003815700D01*
X0001538900Y0003815899D01*
X0001537600Y0003815700D01*
X0001536500Y0003815099D01*
X0001535700Y0003814300D01*
X0001535100Y0003813200D01*
X0001534900Y0003812000D01*
X0001535100Y0003810700D01*
X0001535700Y0003809600D01*
X0001538500Y0003806800D01*
X0001538500Y0003806800D01*
X0001539300Y0003806000D01*
X0001540400Y0003805400D01*
X0001541700Y0003805200D01*
G37*
G36*
X0001538900Y0003802400D02*
G01*
X0001540100Y0003802600D01*
X0001541200Y0003803099D01*
X0001542000Y0003804000D01*
X0001544800Y0003806800D01*
X0001545400Y0003807900D01*
X0001545600Y0003809100D01*
X0001545400Y0003810400D01*
X0001544800Y0003811500D01*
X0001544000Y0003812300D01*
X0001542900Y0003812900D01*
X0001541700Y0003813100D01*
X0001540400Y0003812900D01*
X0001539300Y0003812300D01*
X0001538500Y0003811500D01*
X0001536500Y0003809500D01*
X0001535700Y0003808600D01*
X0001535100Y0003807500D01*
X0001534900Y0003806300D01*
X0001535100Y0003805100D01*
X0001535700Y0003804000D01*
X0001536500Y0003803099D01*
X0001537600Y0003802600D01*
X0001538900Y0003802400D01*
G37*
G36*
X0001538900Y0003802400D02*
G01*
X0001540100Y0003802600D01*
X0001541200Y0003803099D01*
X0001542000Y0003804000D01*
X0001542599Y0003805100D01*
X0001542799Y0003806300D01*
X0001542599Y0003807500D01*
X0001542000Y0003808600D01*
X0001541200Y0003809500D01*
X0001541200Y0003809500D01*
X0001538400Y0003812300D01*
X0001537300Y0003812900D01*
X0001536000Y0003813100D01*
X0001534800Y0003812900D01*
X0001533700Y0003812300D01*
X0001532900Y0003811500D01*
X0001532300Y0003810400D01*
X0001532100Y0003809100D01*
X0001532300Y0003807900D01*
X0001532900Y0003806800D01*
X0001533700Y0003806000D01*
X0001533700Y0003806000D01*
X0001535700Y0003804000D01*
X0001536500Y0003803099D01*
X0001537600Y0003802600D01*
X0001538900Y0003802400D01*
G37*
G36*
X0001536000Y0003805200D02*
G01*
X0001537300Y0003805400D01*
X0001538400Y0003806000D01*
X0001542000Y0003809600D01*
X0001542599Y0003810700D01*
X0001542799Y0003812000D01*
X0001542599Y0003813200D01*
X0001542000Y0003814300D01*
X0001541200Y0003815099D01*
X0001540100Y0003815700D01*
X0001538900Y0003815899D01*
X0001537600Y0003815700D01*
X0001536500Y0003815099D01*
X0001532900Y0003811500D01*
X0001532300Y0003810400D01*
X0001532100Y0003809100D01*
X0001532300Y0003807900D01*
X0001532900Y0003806800D01*
X0001533700Y0003806000D01*
X0001534800Y0003805400D01*
X0001536000Y0003805200D01*
G37*
G36*
X0001538900Y0003802400D02*
G01*
X0001540100Y0003802600D01*
X0001541200Y0003803099D01*
X0001542000Y0003804000D01*
X0001542599Y0003805100D01*
X0001542799Y0003806300D01*
X0001542799Y0003812000D01*
X0001542599Y0003813200D01*
X0001542000Y0003814300D01*
X0001541200Y0003815099D01*
X0001540100Y0003815700D01*
X0001538900Y0003815899D01*
X0001537600Y0003815700D01*
X0001536500Y0003815099D01*
X0001535700Y0003814300D01*
X0001535100Y0003813200D01*
X0001534900Y0003812000D01*
X0001534900Y0003806300D01*
X0001535100Y0003805100D01*
X0001535700Y0003804000D01*
X0001536500Y0003803099D01*
X0001537600Y0003802600D01*
X0001538900Y0003802400D01*
G37*
G36*
X0001592300Y0003819300D02*
G01*
X0001593500Y0003819500D01*
X0001594600Y0003820000D01*
X0001595500Y0003820900D01*
X0001596000Y0003822000D01*
X0001596200Y0003823200D01*
X0001596000Y0003824400D01*
X0001595500Y0003825500D01*
X0001594600Y0003826400D01*
X0001593500Y0003826900D01*
X0001592300Y0003827099D01*
X0001564200Y0003827099D01*
X0001562900Y0003826900D01*
X0001561800Y0003826400D01*
X0001560999Y0003825500D01*
X0001560400Y0003824400D01*
X0001560200Y0003823200D01*
X0001560400Y0003822000D01*
X0001560999Y0003820900D01*
X0001561800Y0003820000D01*
X0001562900Y0003819500D01*
X0001564200Y0003819300D01*
X0001592300Y0003819300D01*
G37*
G36*
X0001558500Y0003802400D02*
G01*
X0001559800Y0003802600D01*
X0001560900Y0003803099D01*
X0001561700Y0003804000D01*
X0001562300Y0003805100D01*
X0001582000Y0003864200D01*
X0001582200Y0003865400D01*
X0001582000Y0003866599D01*
X0001581400Y0003867700D01*
X0001580500Y0003868599D01*
X0001579399Y0003869100D01*
X0001578200Y0003869300D01*
X0001577000Y0003869100D01*
X0001575899Y0003868599D01*
X0001575000Y0003867700D01*
X0001574500Y0003866599D01*
X0001554799Y0003807500D01*
X0001554600Y0003806300D01*
X0001554799Y0003805100D01*
X0001555399Y0003804000D01*
X0001556200Y0003803099D01*
X0001557300Y0003802600D01*
X0001558500Y0003802400D01*
G37*
G36*
X0001597900Y0003802400D02*
G01*
X0001599100Y0003802600D01*
X0001600200Y0003803099D01*
X0001601100Y0003804000D01*
X0001601700Y0003805100D01*
X0001601800Y0003806300D01*
X0001601700Y0003807500D01*
X0001582000Y0003866599D01*
X0001581400Y0003867700D01*
X0001580500Y0003868599D01*
X0001579399Y0003869100D01*
X0001578200Y0003869300D01*
X0001577000Y0003869100D01*
X0001575899Y0003868599D01*
X0001575000Y0003867700D01*
X0001574500Y0003866599D01*
X0001574300Y0003865400D01*
X0001574500Y0003864200D01*
X0001594200Y0003805100D01*
X0001594700Y0003804000D01*
X0001595600Y0003803099D01*
X0001596700Y0003802600D01*
X0001597900Y0003802400D01*
G37*
G36*
X0001620400Y0003805200D02*
G01*
X0001621600Y0003805400D01*
X0001622700Y0003806000D01*
X0001623600Y0003806800D01*
X0001624099Y0003807900D01*
X0001624299Y0003809100D01*
X0001624099Y0003810400D01*
X0001623600Y0003811500D01*
X0001622700Y0003812300D01*
X0001619900Y0003815099D01*
X0001618800Y0003815700D01*
X0001617600Y0003815899D01*
X0001616400Y0003815700D01*
X0001615300Y0003815099D01*
X0001614400Y0003814300D01*
X0001613800Y0003813200D01*
X0001613700Y0003812000D01*
X0001613800Y0003810700D01*
X0001614400Y0003809600D01*
X0001617200Y0003806800D01*
X0001617200Y0003806800D01*
X0001618099Y0003806000D01*
X0001619200Y0003805400D01*
X0001620400Y0003805200D01*
G37*
G36*
X0001617600Y0003802400D02*
G01*
X0001618800Y0003802600D01*
X0001619900Y0003803099D01*
X0001620800Y0003804000D01*
X0001623600Y0003806800D01*
X0001624099Y0003807900D01*
X0001624299Y0003809100D01*
X0001624099Y0003810400D01*
X0001623600Y0003811500D01*
X0001622700Y0003812300D01*
X0001621600Y0003812900D01*
X0001620400Y0003813100D01*
X0001619200Y0003812900D01*
X0001618099Y0003812300D01*
X0001617200Y0003811500D01*
X0001615300Y0003809500D01*
X0001614400Y0003808600D01*
X0001613800Y0003807500D01*
X0001613700Y0003806300D01*
X0001613800Y0003805100D01*
X0001614400Y0003804000D01*
X0001615300Y0003803099D01*
X0001616400Y0003802600D01*
X0001617600Y0003802400D01*
G37*
G36*
X0001617600Y0003802400D02*
G01*
X0001618800Y0003802600D01*
X0001619900Y0003803099D01*
X0001620800Y0003804000D01*
X0001621300Y0003805100D01*
X0001621500Y0003806300D01*
X0001621300Y0003807500D01*
X0001620800Y0003808600D01*
X0001619900Y0003809500D01*
X0001619900Y0003809500D01*
X0001617100Y0003812300D01*
X0001616000Y0003812900D01*
X0001614800Y0003813100D01*
X0001613600Y0003812900D01*
X0001612500Y0003812300D01*
X0001611600Y0003811500D01*
X0001611000Y0003810400D01*
X0001610800Y0003809100D01*
X0001611000Y0003807900D01*
X0001611600Y0003806800D01*
X0001612500Y0003806000D01*
X0001612500Y0003806000D01*
X0001614400Y0003804000D01*
X0001615300Y0003803099D01*
X0001616400Y0003802600D01*
X0001617600Y0003802400D01*
G37*
G36*
X0001614800Y0003805200D02*
G01*
X0001616000Y0003805400D01*
X0001617100Y0003806000D01*
X0001620800Y0003809600D01*
X0001621300Y0003810700D01*
X0001621500Y0003812000D01*
X0001621300Y0003813200D01*
X0001620800Y0003814300D01*
X0001619900Y0003815099D01*
X0001618800Y0003815700D01*
X0001617600Y0003815899D01*
X0001616400Y0003815700D01*
X0001615300Y0003815099D01*
X0001611600Y0003811500D01*
X0001611000Y0003810400D01*
X0001610800Y0003809100D01*
X0001611000Y0003807900D01*
X0001611600Y0003806800D01*
X0001612500Y0003806000D01*
X0001613600Y0003805400D01*
X0001614800Y0003805200D01*
G37*
G36*
X0001617600Y0003802400D02*
G01*
X0001618800Y0003802600D01*
X0001619900Y0003803099D01*
X0001620800Y0003804000D01*
X0001621300Y0003805100D01*
X0001621500Y0003806300D01*
X0001621500Y0003812000D01*
X0001621300Y0003813200D01*
X0001620800Y0003814300D01*
X0001619900Y0003815099D01*
X0001618800Y0003815700D01*
X0001617600Y0003815899D01*
X0001616400Y0003815700D01*
X0001615300Y0003815099D01*
X0001614400Y0003814300D01*
X0001613800Y0003813200D01*
X0001613700Y0003812000D01*
X0001613700Y0003806300D01*
X0001613800Y0003805100D01*
X0001614400Y0003804000D01*
X0001615300Y0003803099D01*
X0001616400Y0003802600D01*
X0001617600Y0003802400D01*
G37*
G36*
X0001673800Y0003802400D02*
G01*
X0001675100Y0003802600D01*
X0001676100Y0003803099D01*
X0001677000Y0003804000D01*
X0001677600Y0003805100D01*
X0001677800Y0003806300D01*
X0001677600Y0003807500D01*
X0001677000Y0003808600D01*
X0001676100Y0003809500D01*
X0001675100Y0003810100D01*
X0001673800Y0003810300D01*
X0001645700Y0003810300D01*
X0001644500Y0003810100D01*
X0001643400Y0003809500D01*
X0001642499Y0003808600D01*
X0001642000Y0003807500D01*
X0001641800Y0003806300D01*
X0001642000Y0003805100D01*
X0001642499Y0003804000D01*
X0001643400Y0003803099D01*
X0001644500Y0003802600D01*
X0001645700Y0003802400D01*
X0001673800Y0003802400D01*
G37*
G36*
X0001645700Y0003802400D02*
G01*
X0001646900Y0003802600D01*
X0001648000Y0003803099D01*
X0001648899Y0003804000D01*
X0001649500Y0003805100D01*
X0001649600Y0003806300D01*
X0001649600Y0003865400D01*
X0001649500Y0003866599D01*
X0001648899Y0003867700D01*
X0001648000Y0003868599D01*
X0001646900Y0003869100D01*
X0001645700Y0003869300D01*
X0001644500Y0003869100D01*
X0001643400Y0003868599D01*
X0001642499Y0003867700D01*
X0001642000Y0003866599D01*
X0001641800Y0003865400D01*
X0001641800Y0003806300D01*
X0001642000Y0003805100D01*
X0001642499Y0003804000D01*
X0001643400Y0003803099D01*
X0001644500Y0003802600D01*
X0001645700Y0003802400D01*
G37*
G36*
X0001696300Y0003805200D02*
G01*
X0001697499Y0003805400D01*
X0001698600Y0003806000D01*
X0001699500Y0003806800D01*
X0001700100Y0003807900D01*
X0001700300Y0003809100D01*
X0001700100Y0003810400D01*
X0001699500Y0003811500D01*
X0001695800Y0003815099D01*
X0001694700Y0003815700D01*
X0001693500Y0003815899D01*
X0001692300Y0003815700D01*
X0001691200Y0003815099D01*
X0001690300Y0003814300D01*
X0001689800Y0003813200D01*
X0001689600Y0003812000D01*
X0001689800Y0003810700D01*
X0001690300Y0003809600D01*
X0001694000Y0003806000D01*
X0001695100Y0003805400D01*
X0001696300Y0003805200D01*
G37*
G36*
X0001693500Y0003802400D02*
G01*
X0001694700Y0003802600D01*
X0001695800Y0003803099D01*
X0001696699Y0003804000D01*
X0001698600Y0003806000D01*
X0001698600Y0003806000D01*
X0001699500Y0003806800D01*
X0001700100Y0003807900D01*
X0001700300Y0003809100D01*
X0001700100Y0003810400D01*
X0001699500Y0003811500D01*
X0001698600Y0003812300D01*
X0001697499Y0003812900D01*
X0001696300Y0003813100D01*
X0001695100Y0003812900D01*
X0001694000Y0003812300D01*
X0001691200Y0003809500D01*
X0001691200Y0003809500D01*
X0001690300Y0003808600D01*
X0001689800Y0003807500D01*
X0001689600Y0003806300D01*
X0001689800Y0003805100D01*
X0001690300Y0003804000D01*
X0001691200Y0003803099D01*
X0001692300Y0003802600D01*
X0001693500Y0003802400D01*
G37*
G36*
X0001693500Y0003802400D02*
G01*
X0001694700Y0003802600D01*
X0001695800Y0003803099D01*
X0001696699Y0003804000D01*
X0001697299Y0003805100D01*
X0001697499Y0003806300D01*
X0001697299Y0003807500D01*
X0001696699Y0003808600D01*
X0001695800Y0003809500D01*
X0001695800Y0003809500D01*
X0001693000Y0003812300D01*
X0001691900Y0003812900D01*
X0001690699Y0003813100D01*
X0001689500Y0003812900D01*
X0001688400Y0003812300D01*
X0001687500Y0003811500D01*
X0001687000Y0003810400D01*
X0001686800Y0003809100D01*
X0001687000Y0003807900D01*
X0001687500Y0003806800D01*
X0001688400Y0003806000D01*
X0001690300Y0003804000D01*
X0001691200Y0003803099D01*
X0001692300Y0003802600D01*
X0001693500Y0003802400D01*
G37*
G36*
X0001690699Y0003805200D02*
G01*
X0001691900Y0003805400D01*
X0001693000Y0003806000D01*
X0001696699Y0003809600D01*
X0001697299Y0003810700D01*
X0001697499Y0003812000D01*
X0001697299Y0003813200D01*
X0001696699Y0003814300D01*
X0001695800Y0003815099D01*
X0001694700Y0003815700D01*
X0001693500Y0003815899D01*
X0001692300Y0003815700D01*
X0001691200Y0003815099D01*
X0001687500Y0003811500D01*
X0001687000Y0003810400D01*
X0001686800Y0003809100D01*
X0001687000Y0003807900D01*
X0001687500Y0003806800D01*
X0001688400Y0003806000D01*
X0001689500Y0003805400D01*
X0001690699Y0003805200D01*
G37*
G36*
X0001693500Y0003802400D02*
G01*
X0001694700Y0003802600D01*
X0001695800Y0003803099D01*
X0001696699Y0003804000D01*
X0001697299Y0003805100D01*
X0001697499Y0003806300D01*
X0001697499Y0003812000D01*
X0001697299Y0003813200D01*
X0001696699Y0003814300D01*
X0001695800Y0003815099D01*
X0001694700Y0003815700D01*
X0001693500Y0003815899D01*
X0001692300Y0003815700D01*
X0001691200Y0003815099D01*
X0001690300Y0003814300D01*
X0001689800Y0003813200D01*
X0001689600Y0003812000D01*
X0001689600Y0003806300D01*
X0001689800Y0003805100D01*
X0001690300Y0003804000D01*
X0001691200Y0003803099D01*
X0001692300Y0003802600D01*
X0001693500Y0003802400D01*
G37*
G36*
X0001721600Y0003802400D02*
G01*
X0001722900Y0003802600D01*
X0001724000Y0003803099D01*
X0001724800Y0003804000D01*
X0001725400Y0003805100D01*
X0001725600Y0003806300D01*
X0001725600Y0003865400D01*
X0001725400Y0003866599D01*
X0001724800Y0003867700D01*
X0001724000Y0003868599D01*
X0001722900Y0003869100D01*
X0001721600Y0003869300D01*
X0001720400Y0003869100D01*
X0001719300Y0003868599D01*
X0001718500Y0003867700D01*
X0001717900Y0003866599D01*
X0001717700Y0003865400D01*
X0001717700Y0003806300D01*
X0001717900Y0003805100D01*
X0001718500Y0003804000D01*
X0001719300Y0003803099D01*
X0001720400Y0003802600D01*
X0001721600Y0003802400D01*
G37*
G36*
X0001755400Y0003802400D02*
G01*
X0001756600Y0003802600D01*
X0001757699Y0003803099D01*
X0001758600Y0003804000D01*
X0001759100Y0003805100D01*
X0001759300Y0003806300D01*
X0001759100Y0003807500D01*
X0001758600Y0003808600D01*
X0001733299Y0003842400D01*
X0001732400Y0003843300D01*
X0001731300Y0003843799D01*
X0001730100Y0003844000D01*
X0001728900Y0003843799D01*
X0001727800Y0003843300D01*
X0001726899Y0003842400D01*
X0001726300Y0003841300D01*
X0001726100Y0003840100D01*
X0001726300Y0003838900D01*
X0001726899Y0003837800D01*
X0001752200Y0003804000D01*
X0001753100Y0003803099D01*
X0001754200Y0003802600D01*
X0001755400Y0003802400D01*
G37*
G36*
X0001721600Y0003827700D02*
G01*
X0001722900Y0003827899D01*
X0001724000Y0003828500D01*
X0001724800Y0003829300D01*
X0001757699Y0003862200D01*
X0001757699Y0003862200D01*
X0001758600Y0003863099D01*
X0001759100Y0003864200D01*
X0001759300Y0003865400D01*
X0001759100Y0003866599D01*
X0001758600Y0003867700D01*
X0001757699Y0003868599D01*
X0001756600Y0003869100D01*
X0001755400Y0003869300D01*
X0001754200Y0003869100D01*
X0001753100Y0003868599D01*
X0001752200Y0003867700D01*
X0001718500Y0003833900D01*
X0001717900Y0003832900D01*
X0001717700Y0003831600D01*
X0001717900Y0003830400D01*
X0001718500Y0003829300D01*
X0001719300Y0003828500D01*
X0001720400Y0003827899D01*
X0001721600Y0003827700D01*
G37*
G36*
X0001783500Y0003805200D02*
G01*
X0001784700Y0003805400D01*
X0001785800Y0003806000D01*
X0001786700Y0003806800D01*
X0001787300Y0003807900D01*
X0001787400Y0003809100D01*
X0001787300Y0003810400D01*
X0001786700Y0003811500D01*
X0001783900Y0003814300D01*
X0001783000Y0003815099D01*
X0001781899Y0003815700D01*
X0001780700Y0003815899D01*
X0001779500Y0003815700D01*
X0001778400Y0003815099D01*
X0001777500Y0003814300D01*
X0001777000Y0003813200D01*
X0001776800Y0003812000D01*
X0001777000Y0003810700D01*
X0001777500Y0003809600D01*
X0001778400Y0003808800D01*
X0001781200Y0003806000D01*
X0001782299Y0003805400D01*
X0001783500Y0003805200D01*
G37*
G36*
X0001780700Y0003802400D02*
G01*
X0001781899Y0003802600D01*
X0001783000Y0003803099D01*
X0001786700Y0003806800D01*
X0001787300Y0003807900D01*
X0001787400Y0003809100D01*
X0001787300Y0003810400D01*
X0001786700Y0003811500D01*
X0001785800Y0003812300D01*
X0001784700Y0003812900D01*
X0001783500Y0003813100D01*
X0001782299Y0003812900D01*
X0001781200Y0003812300D01*
X0001777500Y0003808600D01*
X0001777000Y0003807500D01*
X0001776800Y0003806300D01*
X0001777000Y0003805100D01*
X0001777500Y0003804000D01*
X0001778400Y0003803099D01*
X0001779500Y0003802600D01*
X0001780700Y0003802400D01*
G37*
G36*
X0001780700Y0003802400D02*
G01*
X0001781899Y0003802600D01*
X0001783000Y0003803099D01*
X0001783900Y0003804000D01*
X0001784400Y0003805100D01*
X0001784600Y0003806300D01*
X0001784400Y0003807500D01*
X0001783900Y0003808600D01*
X0001781100Y0003811500D01*
X0001780200Y0003812300D01*
X0001779100Y0003812900D01*
X0001777900Y0003813100D01*
X0001776700Y0003812900D01*
X0001775600Y0003812300D01*
X0001774700Y0003811500D01*
X0001774100Y0003810400D01*
X0001773900Y0003809100D01*
X0001774100Y0003807900D01*
X0001774700Y0003806800D01*
X0001777500Y0003804000D01*
X0001778400Y0003803099D01*
X0001779500Y0003802600D01*
X0001780700Y0003802400D01*
G37*
G36*
X0001777900Y0003805200D02*
G01*
X0001779100Y0003805400D01*
X0001780200Y0003806000D01*
X0001781100Y0003806800D01*
X0001781100Y0003806800D01*
X0001783000Y0003808800D01*
X0001783900Y0003809600D01*
X0001784400Y0003810700D01*
X0001784600Y0003812000D01*
X0001784400Y0003813200D01*
X0001783900Y0003814300D01*
X0001783000Y0003815099D01*
X0001781899Y0003815700D01*
X0001780700Y0003815899D01*
X0001779500Y0003815700D01*
X0001778400Y0003815099D01*
X0001777500Y0003814300D01*
X0001775600Y0003812300D01*
X0001774700Y0003811500D01*
X0001774100Y0003810400D01*
X0001773900Y0003809100D01*
X0001774100Y0003807900D01*
X0001774700Y0003806800D01*
X0001775600Y0003806000D01*
X0001776700Y0003805400D01*
X0001777900Y0003805200D01*
G37*
G36*
X0001780700Y0003802400D02*
G01*
X0001781899Y0003802600D01*
X0001783000Y0003803099D01*
X0001783900Y0003804000D01*
X0001784400Y0003805100D01*
X0001784600Y0003806300D01*
X0001784600Y0003812000D01*
X0001784400Y0003813200D01*
X0001783900Y0003814300D01*
X0001783000Y0003815099D01*
X0001781899Y0003815700D01*
X0001780700Y0003815899D01*
X0001779500Y0003815700D01*
X0001778400Y0003815099D01*
X0001777500Y0003814300D01*
X0001777000Y0003813200D01*
X0001776800Y0003812000D01*
X0001776800Y0003806300D01*
X0001777000Y0003805100D01*
X0001777500Y0003804000D01*
X0001778400Y0003803099D01*
X0001779500Y0003802600D01*
X0001780700Y0003802400D01*
G37*
G36*
X0001853800Y0003802400D02*
G01*
X0001855000Y0003802600D01*
X0001856100Y0003803099D01*
X0001857000Y0003804000D01*
X0001857600Y0003805100D01*
X0001857700Y0003806300D01*
X0001857700Y0003865400D01*
X0001857600Y0003866599D01*
X0001857000Y0003867700D01*
X0001856100Y0003868599D01*
X0001855000Y0003869100D01*
X0001853800Y0003869300D01*
X0001852600Y0003869100D01*
X0001851500Y0003868599D01*
X0001850600Y0003867700D01*
X0001850100Y0003866599D01*
X0001849900Y0003865400D01*
X0001849900Y0003806300D01*
X0001850100Y0003805100D01*
X0001850600Y0003804000D01*
X0001851500Y0003803099D01*
X0001852600Y0003802600D01*
X0001853800Y0003802400D01*
G37*
G36*
X0001873499Y0003819300D02*
G01*
X0001874700Y0003819500D01*
X0001875800Y0003820000D01*
X0001876700Y0003820900D01*
X0001877200Y0003822000D01*
X0001877400Y0003823200D01*
X0001877200Y0003824400D01*
X0001857600Y0003866599D01*
X0001857000Y0003867700D01*
X0001856100Y0003868599D01*
X0001855000Y0003869100D01*
X0001853800Y0003869300D01*
X0001852600Y0003869100D01*
X0001851500Y0003868599D01*
X0001850600Y0003867700D01*
X0001850100Y0003866599D01*
X0001849900Y0003865400D01*
X0001850100Y0003864200D01*
X0001869800Y0003822000D01*
X0001870300Y0003820900D01*
X0001871200Y0003820000D01*
X0001872300Y0003819500D01*
X0001873499Y0003819300D01*
G37*
G36*
X0001873499Y0003819300D02*
G01*
X0001874700Y0003819500D01*
X0001875800Y0003820000D01*
X0001876700Y0003820900D01*
X0001877200Y0003822000D01*
X0001896899Y0003864200D01*
X0001897099Y0003865400D01*
X0001896899Y0003866599D01*
X0001896400Y0003867700D01*
X0001895500Y0003868599D01*
X0001894400Y0003869100D01*
X0001893200Y0003869300D01*
X0001892000Y0003869100D01*
X0001890899Y0003868599D01*
X0001890000Y0003867700D01*
X0001889400Y0003866599D01*
X0001869800Y0003824400D01*
X0001869600Y0003823200D01*
X0001869800Y0003822000D01*
X0001870300Y0003820900D01*
X0001871200Y0003820000D01*
X0001872300Y0003819500D01*
X0001873499Y0003819300D01*
G37*
G36*
X0001893200Y0003802400D02*
G01*
X0001894400Y0003802600D01*
X0001895500Y0003803099D01*
X0001896400Y0003804000D01*
X0001896899Y0003805100D01*
X0001897099Y0003806300D01*
X0001897099Y0003865400D01*
X0001896899Y0003866599D01*
X0001896400Y0003867700D01*
X0001895500Y0003868599D01*
X0001894400Y0003869100D01*
X0001893200Y0003869300D01*
X0001892000Y0003869100D01*
X0001890899Y0003868599D01*
X0001890000Y0003867700D01*
X0001889400Y0003866599D01*
X0001889200Y0003865400D01*
X0001889200Y0003806300D01*
X0001889400Y0003805100D01*
X0001890000Y0003804000D01*
X0001890899Y0003803099D01*
X0001892000Y0003802600D01*
X0001893200Y0003802400D01*
G37*
G36*
X0001929700Y0003802400D02*
G01*
X0001931000Y0003802600D01*
X0001932100Y0003803099D01*
X0001932900Y0003804000D01*
X0001933499Y0003805100D01*
X0001933699Y0003806300D01*
X0001933499Y0003807500D01*
X0001932900Y0003808600D01*
X0001932100Y0003809500D01*
X0001931000Y0003810100D01*
X0001925300Y0003812900D01*
X0001924100Y0003813100D01*
X0001922900Y0003812900D01*
X0001921800Y0003812300D01*
X0001920900Y0003811500D01*
X0001920400Y0003810400D01*
X0001920200Y0003809100D01*
X0001920400Y0003807900D01*
X0001920900Y0003806800D01*
X0001921800Y0003806000D01*
X0001922900Y0003805400D01*
X0001928500Y0003802600D01*
X0001929700Y0003802400D01*
G37*
G36*
X0001924100Y0003805200D02*
G01*
X0001925300Y0003805400D01*
X0001926400Y0003806000D01*
X0001927299Y0003806800D01*
X0001927899Y0003807900D01*
X0001928099Y0003809100D01*
X0001927899Y0003810400D01*
X0001927299Y0003811500D01*
X0001923600Y0003815099D01*
X0001922500Y0003815700D01*
X0001921299Y0003815899D01*
X0001920100Y0003815700D01*
X0001919000Y0003815099D01*
X0001918100Y0003814300D01*
X0001917600Y0003813200D01*
X0001917400Y0003812000D01*
X0001917600Y0003810700D01*
X0001918100Y0003809600D01*
X0001921800Y0003806000D01*
X0001922900Y0003805400D01*
X0001924100Y0003805200D01*
G37*
G36*
X0001921299Y0003808000D02*
G01*
X0001922500Y0003808199D01*
X0001923600Y0003808800D01*
X0001924500Y0003809600D01*
X0001925000Y0003810700D01*
X0001925200Y0003812000D01*
X0001925000Y0003813200D01*
X0001922200Y0003818800D01*
X0001921699Y0003819900D01*
X0001920800Y0003820800D01*
X0001919700Y0003821300D01*
X0001918500Y0003821500D01*
X0001917300Y0003821300D01*
X0001916200Y0003820800D01*
X0001915299Y0003819900D01*
X0001914700Y0003818800D01*
X0001914600Y0003817600D01*
X0001914700Y0003816400D01*
X0001917600Y0003810700D01*
X0001918100Y0003809600D01*
X0001919000Y0003808800D01*
X0001920100Y0003808199D01*
X0001921299Y0003808000D01*
G37*
G36*
X0001918500Y0003813600D02*
G01*
X0001919700Y0003813800D01*
X0001920800Y0003814400D01*
X0001921699Y0003815300D01*
X0001922200Y0003816400D01*
X0001922400Y0003817600D01*
X0001922400Y0003834400D01*
X0001922200Y0003835700D01*
X0001921699Y0003836800D01*
X0001920800Y0003837600D01*
X0001919700Y0003838200D01*
X0001918500Y0003838400D01*
X0001917300Y0003838200D01*
X0001916200Y0003837600D01*
X0001915299Y0003836800D01*
X0001914700Y0003835700D01*
X0001914600Y0003834400D01*
X0001914600Y0003817600D01*
X0001914700Y0003816400D01*
X0001915299Y0003815300D01*
X0001916200Y0003814400D01*
X0001917300Y0003813800D01*
X0001918500Y0003813600D01*
G37*
G36*
X0001918500Y0003830500D02*
G01*
X0001919700Y0003830700D01*
X0001920800Y0003831300D01*
X0001921699Y0003832100D01*
X0001922200Y0003833200D01*
X0001925000Y0003838900D01*
X0001925200Y0003840100D01*
X0001925000Y0003841300D01*
X0001924500Y0003842400D01*
X0001923600Y0003843300D01*
X0001922500Y0003843799D01*
X0001921299Y0003844000D01*
X0001920100Y0003843799D01*
X0001919000Y0003843300D01*
X0001918100Y0003842400D01*
X0001917600Y0003841300D01*
X0001914700Y0003835700D01*
X0001914600Y0003834400D01*
X0001914700Y0003833200D01*
X0001915299Y0003832100D01*
X0001916200Y0003831300D01*
X0001917300Y0003830700D01*
X0001918500Y0003830500D01*
G37*
G36*
X0001921299Y0003836100D02*
G01*
X0001922500Y0003836300D01*
X0001923600Y0003836900D01*
X0001926400Y0003839700D01*
X0001927299Y0003840600D01*
X0001927899Y0003841700D01*
X0001928099Y0003842900D01*
X0001927899Y0003844100D01*
X0001927299Y0003845200D01*
X0001926400Y0003846100D01*
X0001925300Y0003846600D01*
X0001924100Y0003846800D01*
X0001922900Y0003846600D01*
X0001921800Y0003846100D01*
X0001918100Y0003842400D01*
X0001917600Y0003841300D01*
X0001917400Y0003840100D01*
X0001917600Y0003838900D01*
X0001918100Y0003837800D01*
X0001919000Y0003836900D01*
X0001920100Y0003836300D01*
X0001921299Y0003836100D01*
G37*
G36*
X0001924100Y0003838900D02*
G01*
X0001925300Y0003839099D01*
X0001931000Y0003842000D01*
X0001932100Y0003842500D01*
X0001932900Y0003843399D01*
X0001933499Y0003844500D01*
X0001933699Y0003845700D01*
X0001933499Y0003846900D01*
X0001932900Y0003848000D01*
X0001932100Y0003848900D01*
X0001931000Y0003849400D01*
X0001929700Y0003849600D01*
X0001928500Y0003849400D01*
X0001922900Y0003846600D01*
X0001921800Y0003846100D01*
X0001920900Y0003845200D01*
X0001920400Y0003844100D01*
X0001920200Y0003842900D01*
X0001920400Y0003841700D01*
X0001920900Y0003840600D01*
X0001921800Y0003839700D01*
X0001922900Y0003839099D01*
X0001924100Y0003838900D01*
G37*
G36*
X0001938200Y0003841800D02*
G01*
X0001939400Y0003842000D01*
X0001940499Y0003842500D01*
X0001941400Y0003843399D01*
X0001941900Y0003844500D01*
X0001942100Y0003845700D01*
X0001941900Y0003846900D01*
X0001941400Y0003848000D01*
X0001940499Y0003848900D01*
X0001939400Y0003849400D01*
X0001938200Y0003849600D01*
X0001929700Y0003849600D01*
X0001928500Y0003849400D01*
X0001927400Y0003848900D01*
X0001926600Y0003848000D01*
X0001926000Y0003846900D01*
X0001925800Y0003845700D01*
X0001926000Y0003844500D01*
X0001926600Y0003843399D01*
X0001927400Y0003842500D01*
X0001928500Y0003842000D01*
X0001929700Y0003841800D01*
X0001938200Y0003841800D01*
G37*
G36*
X0001943800Y0003838900D02*
G01*
X0001945000Y0003839099D01*
X0001946099Y0003839700D01*
X0001947000Y0003840600D01*
X0001947500Y0003841700D01*
X0001947700Y0003842900D01*
X0001947500Y0003844100D01*
X0001947000Y0003845200D01*
X0001946099Y0003846100D01*
X0001945000Y0003846600D01*
X0001939400Y0003849400D01*
X0001938200Y0003849600D01*
X0001937000Y0003849400D01*
X0001935900Y0003848900D01*
X0001935000Y0003848000D01*
X0001934400Y0003846900D01*
X0001934200Y0003845700D01*
X0001934400Y0003844500D01*
X0001935000Y0003843399D01*
X0001935900Y0003842500D01*
X0001937000Y0003842000D01*
X0001942600Y0003839099D01*
X0001943800Y0003838900D01*
G37*
G36*
X0001946600Y0003836100D02*
G01*
X0001947800Y0003836300D01*
X0001948900Y0003836900D01*
X0001949800Y0003837800D01*
X0001950400Y0003838900D01*
X0001950500Y0003840100D01*
X0001950400Y0003841300D01*
X0001949800Y0003842400D01*
X0001946099Y0003846100D01*
X0001945000Y0003846600D01*
X0001943800Y0003846800D01*
X0001942600Y0003846600D01*
X0001941500Y0003846100D01*
X0001940600Y0003845200D01*
X0001940099Y0003844100D01*
X0001939899Y0003842900D01*
X0001940099Y0003841700D01*
X0001940600Y0003840600D01*
X0001941500Y0003839700D01*
X0001944300Y0003836900D01*
X0001945400Y0003836300D01*
X0001946600Y0003836100D01*
G37*
G36*
X0001949400Y0003830500D02*
G01*
X0001950600Y0003830700D01*
X0001951699Y0003831300D01*
X0001952600Y0003832100D01*
X0001953200Y0003833200D01*
X0001953400Y0003834400D01*
X0001953200Y0003835700D01*
X0001950400Y0003841300D01*
X0001949800Y0003842400D01*
X0001948900Y0003843300D01*
X0001947800Y0003843799D01*
X0001946600Y0003844000D01*
X0001945400Y0003843799D01*
X0001944300Y0003843300D01*
X0001943400Y0003842400D01*
X0001942900Y0003841300D01*
X0001942700Y0003840100D01*
X0001942900Y0003838900D01*
X0001945699Y0003833200D01*
X0001946200Y0003832100D01*
X0001947100Y0003831300D01*
X0001948200Y0003830700D01*
X0001949400Y0003830500D01*
G37*
G36*
X0001949400Y0003813600D02*
G01*
X0001950600Y0003813800D01*
X0001951699Y0003814400D01*
X0001952600Y0003815300D01*
X0001953200Y0003816400D01*
X0001953400Y0003817600D01*
X0001953400Y0003834400D01*
X0001953200Y0003835700D01*
X0001952600Y0003836800D01*
X0001951699Y0003837600D01*
X0001950600Y0003838200D01*
X0001949400Y0003838400D01*
X0001948200Y0003838200D01*
X0001947100Y0003837600D01*
X0001946200Y0003836800D01*
X0001945699Y0003835700D01*
X0001945499Y0003834400D01*
X0001945499Y0003817600D01*
X0001945699Y0003816400D01*
X0001946200Y0003815300D01*
X0001947100Y0003814400D01*
X0001948200Y0003813800D01*
X0001949400Y0003813600D01*
G37*
G36*
X0001946600Y0003808000D02*
G01*
X0001947800Y0003808199D01*
X0001948900Y0003808800D01*
X0001949800Y0003809600D01*
X0001950400Y0003810700D01*
X0001953200Y0003816400D01*
X0001953400Y0003817600D01*
X0001953200Y0003818800D01*
X0001952600Y0003819900D01*
X0001951699Y0003820800D01*
X0001950600Y0003821300D01*
X0001949400Y0003821500D01*
X0001948200Y0003821300D01*
X0001947100Y0003820800D01*
X0001946200Y0003819900D01*
X0001945699Y0003818800D01*
X0001942900Y0003813200D01*
X0001942700Y0003812000D01*
X0001942900Y0003810700D01*
X0001943400Y0003809600D01*
X0001944300Y0003808800D01*
X0001945400Y0003808199D01*
X0001946600Y0003808000D01*
G37*
G36*
X0001943800Y0003805200D02*
G01*
X0001945000Y0003805400D01*
X0001946099Y0003806000D01*
X0001949800Y0003809600D01*
X0001950400Y0003810700D01*
X0001950500Y0003812000D01*
X0001950400Y0003813200D01*
X0001949800Y0003814300D01*
X0001948900Y0003815099D01*
X0001947800Y0003815700D01*
X0001946600Y0003815899D01*
X0001945400Y0003815700D01*
X0001944300Y0003815099D01*
X0001940600Y0003811500D01*
X0001940099Y0003810400D01*
X0001939899Y0003809100D01*
X0001940099Y0003807900D01*
X0001940600Y0003806800D01*
X0001941500Y0003806000D01*
X0001942600Y0003805400D01*
X0001943800Y0003805200D01*
G37*
G36*
X0001938200Y0003802400D02*
G01*
X0001939400Y0003802600D01*
X0001945000Y0003805400D01*
X0001946099Y0003806000D01*
X0001947000Y0003806800D01*
X0001947500Y0003807900D01*
X0001947700Y0003809100D01*
X0001947500Y0003810400D01*
X0001947000Y0003811500D01*
X0001946099Y0003812300D01*
X0001945000Y0003812900D01*
X0001943800Y0003813100D01*
X0001942600Y0003812900D01*
X0001937000Y0003810100D01*
X0001935900Y0003809500D01*
X0001935000Y0003808600D01*
X0001934400Y0003807500D01*
X0001934200Y0003806300D01*
X0001934400Y0003805100D01*
X0001935000Y0003804000D01*
X0001935900Y0003803099D01*
X0001937000Y0003802600D01*
X0001938200Y0003802400D01*
G37*
G36*
X0001938200Y0003802400D02*
G01*
X0001939400Y0003802600D01*
X0001940499Y0003803099D01*
X0001941400Y0003804000D01*
X0001941900Y0003805100D01*
X0001942100Y0003806300D01*
X0001941900Y0003807500D01*
X0001941400Y0003808600D01*
X0001940499Y0003809500D01*
X0001939400Y0003810100D01*
X0001938200Y0003810300D01*
X0001929700Y0003810300D01*
X0001928500Y0003810100D01*
X0001927400Y0003809500D01*
X0001926600Y0003808600D01*
X0001926000Y0003807500D01*
X0001925800Y0003806300D01*
X0001926000Y0003805100D01*
X0001926600Y0003804000D01*
X0001927400Y0003803099D01*
X0001928500Y0003802600D01*
X0001929700Y0003802400D01*
X0001938200Y0003802400D01*
G37*
G36*
X0001988800Y0003841800D02*
G01*
X0001990000Y0003842000D01*
X0001991100Y0003842500D01*
X0001992000Y0003843399D01*
X0001992500Y0003844500D01*
X0001992700Y0003845700D01*
X0001992500Y0003846900D01*
X0001992000Y0003848000D01*
X0001991100Y0003848900D01*
X0001990000Y0003849400D01*
X0001988800Y0003849600D01*
X0001966300Y0003849600D01*
X0001965100Y0003849400D01*
X0001964000Y0003848900D01*
X0001963100Y0003848000D01*
X0001962600Y0003846900D01*
X0001962400Y0003845700D01*
X0001962600Y0003844500D01*
X0001963100Y0003843399D01*
X0001964000Y0003842500D01*
X0001965100Y0003842000D01*
X0001966300Y0003841800D01*
X0001988800Y0003841800D01*
G37*
G36*
X0001974700Y0003810800D02*
G01*
X0001976000Y0003811000D01*
X0001977000Y0003811600D01*
X0001977900Y0003812400D01*
X0001978500Y0003813500D01*
X0001978700Y0003814800D01*
X0001978700Y0003865400D01*
X0001978500Y0003866599D01*
X0001977900Y0003867700D01*
X0001977000Y0003868599D01*
X0001976000Y0003869100D01*
X0001974700Y0003869300D01*
X0001973500Y0003869100D01*
X0001972400Y0003868599D01*
X0001971500Y0003867700D01*
X0001971000Y0003866599D01*
X0001970800Y0003865400D01*
X0001970800Y0003814800D01*
X0001971000Y0003813500D01*
X0001971500Y0003812400D01*
X0001972400Y0003811600D01*
X0001973500Y0003811000D01*
X0001974700Y0003810800D01*
G37*
G36*
X0001977500Y0003805200D02*
G01*
X0001978800Y0003805400D01*
X0001979900Y0003806000D01*
X0001980700Y0003806800D01*
X0001981300Y0003807900D01*
X0001981500Y0003809100D01*
X0001981300Y0003810400D01*
X0001978500Y0003816000D01*
X0001977900Y0003817100D01*
X0001977000Y0003817900D01*
X0001976000Y0003818500D01*
X0001974700Y0003818700D01*
X0001973500Y0003818500D01*
X0001972400Y0003817900D01*
X0001971500Y0003817100D01*
X0001971000Y0003816000D01*
X0001970800Y0003814800D01*
X0001971000Y0003813500D01*
X0001973800Y0003807900D01*
X0001974400Y0003806800D01*
X0001975200Y0003806000D01*
X0001976299Y0003805400D01*
X0001977500Y0003805200D01*
G37*
G36*
X0001983200Y0003802400D02*
G01*
X0001984400Y0003802600D01*
X0001985500Y0003803099D01*
X0001986400Y0003804000D01*
X0001986900Y0003805100D01*
X0001987100Y0003806300D01*
X0001986900Y0003807500D01*
X0001986400Y0003808600D01*
X0001985500Y0003809500D01*
X0001984400Y0003810100D01*
X0001978800Y0003812900D01*
X0001977500Y0003813100D01*
X0001976299Y0003812900D01*
X0001975200Y0003812300D01*
X0001974400Y0003811500D01*
X0001973800Y0003810400D01*
X0001973600Y0003809100D01*
X0001973800Y0003807900D01*
X0001974400Y0003806800D01*
X0001975200Y0003806000D01*
X0001976299Y0003805400D01*
X0001982000Y0003802600D01*
X0001983200Y0003802400D01*
G37*
G36*
X0001988800Y0003802400D02*
G01*
X0001990000Y0003802600D01*
X0001991100Y0003803099D01*
X0001992000Y0003804000D01*
X0001992500Y0003805100D01*
X0001992700Y0003806300D01*
X0001992500Y0003807500D01*
X0001992000Y0003808600D01*
X0001991100Y0003809500D01*
X0001990000Y0003810100D01*
X0001988800Y0003810300D01*
X0001983200Y0003810300D01*
X0001982000Y0003810100D01*
X0001980900Y0003809500D01*
X0001980000Y0003808600D01*
X0001979400Y0003807500D01*
X0001979200Y0003806300D01*
X0001979400Y0003805100D01*
X0001980000Y0003804000D01*
X0001980900Y0003803099D01*
X0001982000Y0003802600D01*
X0001983200Y0003802400D01*
X0001988800Y0003802400D01*
G37*
G36*
X0002008500Y0003802400D02*
G01*
X0002009700Y0003802600D01*
X0002010800Y0003803099D01*
X0002011699Y0003804000D01*
X0002012200Y0003805100D01*
X0002012400Y0003806300D01*
X0002012400Y0003865400D01*
X0002012200Y0003866599D01*
X0002011699Y0003867700D01*
X0002010800Y0003868599D01*
X0002009700Y0003869100D01*
X0002008500Y0003869300D01*
X0002007299Y0003869100D01*
X0002006200Y0003868599D01*
X0002005300Y0003867700D01*
X0002004700Y0003866599D01*
X0002004500Y0003865400D01*
X0002004500Y0003806300D01*
X0002004700Y0003805100D01*
X0002005300Y0003804000D01*
X0002006200Y0003803099D01*
X0002007299Y0003802600D01*
X0002008500Y0003802400D01*
G37*
G36*
X0002033799Y0003802400D02*
G01*
X0002035000Y0003802600D01*
X0002036099Y0003803099D01*
X0002037000Y0003804000D01*
X0002037500Y0003805100D01*
X0002037700Y0003806300D01*
X0002037700Y0003837300D01*
X0002037500Y0003838500D01*
X0002037000Y0003839600D01*
X0002036099Y0003840400D01*
X0002035000Y0003841000D01*
X0002033799Y0003841200D01*
X0002032600Y0003841000D01*
X0002031499Y0003840400D01*
X0002030600Y0003839600D01*
X0002029999Y0003838500D01*
X0002029900Y0003837300D01*
X0002029900Y0003806300D01*
X0002029999Y0003805100D01*
X0002030600Y0003804000D01*
X0002031499Y0003803099D01*
X0002032600Y0003802600D01*
X0002033799Y0003802400D01*
G37*
G36*
X0002033799Y0003833300D02*
G01*
X0002035000Y0003833500D01*
X0002036099Y0003834100D01*
X0002037000Y0003834900D01*
X0002037500Y0003836000D01*
X0002037700Y0003837300D01*
X0002037500Y0003838500D01*
X0002034700Y0003844100D01*
X0002034199Y0003845200D01*
X0002033300Y0003846100D01*
X0002032200Y0003846600D01*
X0002031000Y0003846800D01*
X0002029799Y0003846600D01*
X0002028700Y0003846100D01*
X0002027800Y0003845200D01*
X0002027200Y0003844100D01*
X0002027000Y0003842900D01*
X0002027200Y0003841700D01*
X0002029999Y0003836000D01*
X0002030600Y0003834900D01*
X0002031499Y0003834100D01*
X0002032600Y0003833500D01*
X0002033799Y0003833300D01*
G37*
G36*
X0002031000Y0003838900D02*
G01*
X0002032200Y0003839099D01*
X0002033300Y0003839700D01*
X0002034199Y0003840600D01*
X0002034700Y0003841700D01*
X0002034900Y0003842900D01*
X0002034700Y0003844100D01*
X0002034199Y0003845200D01*
X0002033300Y0003846100D01*
X0002032200Y0003846600D01*
X0002026600Y0003849400D01*
X0002025399Y0003849600D01*
X0002024099Y0003849400D01*
X0002023000Y0003848900D01*
X0002022200Y0003848000D01*
X0002021599Y0003846900D01*
X0002021399Y0003845700D01*
X0002021599Y0003844500D01*
X0002022200Y0003843399D01*
X0002023000Y0003842500D01*
X0002024099Y0003842000D01*
X0002029799Y0003839099D01*
X0002031000Y0003838900D01*
G37*
G36*
X0002025399Y0003841800D02*
G01*
X0002026600Y0003842000D01*
X0002027699Y0003842500D01*
X0002028500Y0003843399D01*
X0002029100Y0003844500D01*
X0002029300Y0003845700D01*
X0002029100Y0003846900D01*
X0002028500Y0003848000D01*
X0002027699Y0003848900D01*
X0002026600Y0003849400D01*
X0002025399Y0003849600D01*
X0002016900Y0003849600D01*
X0002015699Y0003849400D01*
X0002014600Y0003848900D01*
X0002013700Y0003848000D01*
X0002013199Y0003846900D01*
X0002013000Y0003845700D01*
X0002013199Y0003844500D01*
X0002013700Y0003843399D01*
X0002014600Y0003842500D01*
X0002015699Y0003842000D01*
X0002016900Y0003841800D01*
X0002025399Y0003841800D01*
G37*
G36*
X0002011299Y0003838900D02*
G01*
X0002012500Y0003839099D01*
X0002018100Y0003842000D01*
X0002019200Y0003842500D01*
X0002020099Y0003843399D01*
X0002020700Y0003844500D01*
X0002020900Y0003845700D01*
X0002020700Y0003846900D01*
X0002020099Y0003848000D01*
X0002019200Y0003848900D01*
X0002018100Y0003849400D01*
X0002016900Y0003849600D01*
X0002015699Y0003849400D01*
X0002010100Y0003846600D01*
X0002009000Y0003846100D01*
X0002008100Y0003845200D01*
X0002007499Y0003844100D01*
X0002007400Y0003842900D01*
X0002007499Y0003841700D01*
X0002008100Y0003840600D01*
X0002009000Y0003839700D01*
X0002010100Y0003839099D01*
X0002011299Y0003838900D01*
G37*
G36*
X0002008500Y0003836100D02*
G01*
X0002009700Y0003836300D01*
X0002010800Y0003836900D01*
X0002013599Y0003839700D01*
X0002013599Y0003839700D01*
X0002014500Y0003840600D01*
X0002015000Y0003841700D01*
X0002015200Y0003842900D01*
X0002015000Y0003844100D01*
X0002014500Y0003845200D01*
X0002013599Y0003846100D01*
X0002012500Y0003846600D01*
X0002011299Y0003846800D01*
X0002010100Y0003846600D01*
X0002009000Y0003846100D01*
X0002005300Y0003842400D01*
X0002004700Y0003841300D01*
X0002004500Y0003840100D01*
X0002004700Y0003838900D01*
X0002005300Y0003837800D01*
X0002006200Y0003836900D01*
X0002007299Y0003836300D01*
X0002008500Y0003836100D01*
G37*
G36*
X0002078800Y0003802400D02*
G01*
X0002080000Y0003802600D01*
X0002085600Y0003805400D01*
X0002086700Y0003806000D01*
X0002087600Y0003806800D01*
X0002088200Y0003807900D01*
X0002088299Y0003809100D01*
X0002088200Y0003810400D01*
X0002087600Y0003811500D01*
X0002086700Y0003812300D01*
X0002085600Y0003812900D01*
X0002084400Y0003813100D01*
X0002083200Y0003812900D01*
X0002077600Y0003810100D01*
X0002076499Y0003809500D01*
X0002075600Y0003808600D01*
X0002075000Y0003807500D01*
X0002074800Y0003806300D01*
X0002075000Y0003805100D01*
X0002075600Y0003804000D01*
X0002076499Y0003803099D01*
X0002077600Y0003802600D01*
X0002078800Y0003802400D01*
G37*
G36*
X0002078800Y0003802400D02*
G01*
X0002080000Y0003802600D01*
X0002081100Y0003803099D01*
X0002081999Y0003804000D01*
X0002082500Y0003805100D01*
X0002082700Y0003806300D01*
X0002082500Y0003807500D01*
X0002081999Y0003808600D01*
X0002081100Y0003809500D01*
X0002080000Y0003810100D01*
X0002078800Y0003810300D01*
X0002067500Y0003810300D01*
X0002066300Y0003810100D01*
X0002065200Y0003809500D01*
X0002064299Y0003808600D01*
X0002063800Y0003807500D01*
X0002063600Y0003806300D01*
X0002063800Y0003805100D01*
X0002064299Y0003804000D01*
X0002065200Y0003803099D01*
X0002066300Y0003802600D01*
X0002067500Y0003802400D01*
X0002078800Y0003802400D01*
G37*
G36*
X0002067500Y0003802400D02*
G01*
X0002068800Y0003802600D01*
X0002069799Y0003803099D01*
X0002070700Y0003804000D01*
X0002071300Y0003805100D01*
X0002071500Y0003806300D01*
X0002071300Y0003807500D01*
X0002070700Y0003808600D01*
X0002069799Y0003809500D01*
X0002068800Y0003810100D01*
X0002063100Y0003812900D01*
X0002061900Y0003813100D01*
X0002060700Y0003812900D01*
X0002059600Y0003812300D01*
X0002058700Y0003811500D01*
X0002058199Y0003810400D01*
X0002057999Y0003809100D01*
X0002058199Y0003807900D01*
X0002058700Y0003806800D01*
X0002059600Y0003806000D01*
X0002060700Y0003805400D01*
X0002066300Y0003802600D01*
X0002067500Y0003802400D01*
G37*
G36*
X0002061900Y0003805200D02*
G01*
X0002063100Y0003805400D01*
X0002064200Y0003806000D01*
X0002065100Y0003806800D01*
X0002065700Y0003807900D01*
X0002065799Y0003809100D01*
X0002065700Y0003810400D01*
X0002062800Y0003816000D01*
X0002062300Y0003817100D01*
X0002061400Y0003817900D01*
X0002060299Y0003818500D01*
X0002059100Y0003818700D01*
X0002057900Y0003818500D01*
X0002056800Y0003817900D01*
X0002055899Y0003817100D01*
X0002055400Y0003816000D01*
X0002055200Y0003814800D01*
X0002055400Y0003813500D01*
X0002058199Y0003807900D01*
X0002058700Y0003806800D01*
X0002059600Y0003806000D01*
X0002060700Y0003805400D01*
X0002061900Y0003805200D01*
G37*
G36*
X0002059100Y0003810800D02*
G01*
X0002060299Y0003811000D01*
X0002061400Y0003811600D01*
X0002062300Y0003812400D01*
X0002062800Y0003813500D01*
X0002063000Y0003814800D01*
X0002063000Y0003837300D01*
X0002062800Y0003838500D01*
X0002062300Y0003839600D01*
X0002061400Y0003840400D01*
X0002060299Y0003841000D01*
X0002059100Y0003841200D01*
X0002057900Y0003841000D01*
X0002056800Y0003840400D01*
X0002055899Y0003839600D01*
X0002055400Y0003838500D01*
X0002055200Y0003837300D01*
X0002055200Y0003814800D01*
X0002055400Y0003813500D01*
X0002055899Y0003812400D01*
X0002056800Y0003811600D01*
X0002057900Y0003811000D01*
X0002059100Y0003810800D01*
G37*
G36*
X0002059100Y0003833300D02*
G01*
X0002060299Y0003833500D01*
X0002061400Y0003834100D01*
X0002062300Y0003834900D01*
X0002062800Y0003836000D01*
X0002065700Y0003841700D01*
X0002065799Y0003842900D01*
X0002065700Y0003844100D01*
X0002065100Y0003845200D01*
X0002064200Y0003846100D01*
X0002063100Y0003846600D01*
X0002061900Y0003846800D01*
X0002060700Y0003846600D01*
X0002059600Y0003846100D01*
X0002058700Y0003845200D01*
X0002058199Y0003844100D01*
X0002055400Y0003838500D01*
X0002055200Y0003837300D01*
X0002055400Y0003836000D01*
X0002055899Y0003834900D01*
X0002056800Y0003834100D01*
X0002057900Y0003833500D01*
X0002059100Y0003833300D01*
G37*
G36*
X0002061900Y0003838900D02*
G01*
X0002063100Y0003839099D01*
X0002068800Y0003842000D01*
X0002069799Y0003842500D01*
X0002070700Y0003843399D01*
X0002071300Y0003844500D01*
X0002071500Y0003845700D01*
X0002071300Y0003846900D01*
X0002070700Y0003848000D01*
X0002069799Y0003848900D01*
X0002068800Y0003849400D01*
X0002067500Y0003849600D01*
X0002066300Y0003849400D01*
X0002060700Y0003846600D01*
X0002059600Y0003846100D01*
X0002058700Y0003845200D01*
X0002058199Y0003844100D01*
X0002057999Y0003842900D01*
X0002058199Y0003841700D01*
X0002058700Y0003840600D01*
X0002059600Y0003839700D01*
X0002060700Y0003839099D01*
X0002061900Y0003838900D01*
G37*
G36*
X0002078800Y0003841800D02*
G01*
X0002080000Y0003842000D01*
X0002081100Y0003842500D01*
X0002081999Y0003843399D01*
X0002082500Y0003844500D01*
X0002082700Y0003845700D01*
X0002082500Y0003846900D01*
X0002081999Y0003848000D01*
X0002081100Y0003848900D01*
X0002080000Y0003849400D01*
X0002078800Y0003849600D01*
X0002067500Y0003849600D01*
X0002066300Y0003849400D01*
X0002065200Y0003848900D01*
X0002064299Y0003848000D01*
X0002063800Y0003846900D01*
X0002063600Y0003845700D01*
X0002063800Y0003844500D01*
X0002064299Y0003843399D01*
X0002065200Y0003842500D01*
X0002066300Y0003842000D01*
X0002067500Y0003841800D01*
X0002078800Y0003841800D01*
G37*
G36*
X0002084400Y0003838900D02*
G01*
X0002085600Y0003839099D01*
X0002086700Y0003839700D01*
X0002087600Y0003840600D01*
X0002088200Y0003841700D01*
X0002088299Y0003842900D01*
X0002088200Y0003844100D01*
X0002087600Y0003845200D01*
X0002086700Y0003846100D01*
X0002085600Y0003846600D01*
X0002080000Y0003849400D01*
X0002078800Y0003849600D01*
X0002077600Y0003849400D01*
X0002076499Y0003848900D01*
X0002075600Y0003848000D01*
X0002075000Y0003846900D01*
X0002074800Y0003845700D01*
X0002075000Y0003844500D01*
X0002075600Y0003843399D01*
X0002076499Y0003842500D01*
X0002077600Y0003842000D01*
X0002083200Y0003839099D01*
X0002084400Y0003838900D01*
G37*
G36*
X0002087200Y0003833300D02*
G01*
X0002088400Y0003833500D01*
X0002089500Y0003834100D01*
X0002090399Y0003834900D01*
X0002091000Y0003836000D01*
X0002091200Y0003837300D01*
X0002091000Y0003838500D01*
X0002088200Y0003844100D01*
X0002087600Y0003845200D01*
X0002086700Y0003846100D01*
X0002085600Y0003846600D01*
X0002084400Y0003846800D01*
X0002083200Y0003846600D01*
X0002082100Y0003846100D01*
X0002081200Y0003845200D01*
X0002080700Y0003844100D01*
X0002080499Y0003842900D01*
X0002080700Y0003841700D01*
X0002083500Y0003836000D01*
X0002084000Y0003834900D01*
X0002084900Y0003834100D01*
X0002085999Y0003833500D01*
X0002087200Y0003833300D01*
G37*
G36*
X0002087200Y0003827700D02*
G01*
X0002088400Y0003827899D01*
X0002089500Y0003828500D01*
X0002090399Y0003829300D01*
X0002091000Y0003830400D01*
X0002091200Y0003831600D01*
X0002091200Y0003837300D01*
X0002091000Y0003838500D01*
X0002090399Y0003839600D01*
X0002089500Y0003840400D01*
X0002088400Y0003841000D01*
X0002087200Y0003841200D01*
X0002085999Y0003841000D01*
X0002084900Y0003840400D01*
X0002084000Y0003839600D01*
X0002083500Y0003838500D01*
X0002083300Y0003837300D01*
X0002083300Y0003831600D01*
X0002083500Y0003830400D01*
X0002084000Y0003829300D01*
X0002084900Y0003828500D01*
X0002085999Y0003827899D01*
X0002087200Y0003827700D01*
G37*
G36*
X0002059100Y0003822100D02*
G01*
X0002060299Y0003822300D01*
X0002088400Y0003827899D01*
X0002089500Y0003828500D01*
X0002090399Y0003829300D01*
X0002091000Y0003830400D01*
X0002091200Y0003831600D01*
X0002091000Y0003832900D01*
X0002090399Y0003833900D01*
X0002089500Y0003834800D01*
X0002088400Y0003835400D01*
X0002087200Y0003835600D01*
X0002085999Y0003835400D01*
X0002057900Y0003829799D01*
X0002056800Y0003829200D01*
X0002055899Y0003828299D01*
X0002055400Y0003827200D01*
X0002055200Y0003826000D01*
X0002055400Y0003824800D01*
X0002055899Y0003823700D01*
X0002056800Y0003822800D01*
X0002057900Y0003822300D01*
X0002059100Y0003822100D01*
G37*
G36*
X0002112500Y0003802400D02*
G01*
X0002113700Y0003802600D01*
X0002114800Y0003803099D01*
X0002115700Y0003804000D01*
X0002116300Y0003805100D01*
X0002116500Y0003806300D01*
X0002116500Y0003845700D01*
X0002116300Y0003846900D01*
X0002115700Y0003848000D01*
X0002114800Y0003848900D01*
X0002113700Y0003849400D01*
X0002112500Y0003849600D01*
X0002111300Y0003849400D01*
X0002110200Y0003848900D01*
X0002109300Y0003848000D01*
X0002108800Y0003846900D01*
X0002108600Y0003845700D01*
X0002108600Y0003806300D01*
X0002108800Y0003805100D01*
X0002109300Y0003804000D01*
X0002110200Y0003803099D01*
X0002111300Y0003802600D01*
X0002112500Y0003802400D01*
G37*
G36*
X0002112500Y0003830500D02*
G01*
X0002113700Y0003830700D01*
X0002114800Y0003831300D01*
X0002115700Y0003832100D01*
X0002116300Y0003833200D01*
X0002119100Y0003838900D01*
X0002119300Y0003840100D01*
X0002119100Y0003841300D01*
X0002118500Y0003842400D01*
X0002117700Y0003843300D01*
X0002116600Y0003843799D01*
X0002115300Y0003844000D01*
X0002114100Y0003843799D01*
X0002113000Y0003843300D01*
X0002112200Y0003842400D01*
X0002111600Y0003841300D01*
X0002108800Y0003835700D01*
X0002108600Y0003834400D01*
X0002108800Y0003833200D01*
X0002109300Y0003832100D01*
X0002110200Y0003831300D01*
X0002111300Y0003830700D01*
X0002112500Y0003830500D01*
G37*
G36*
X0002115300Y0003836100D02*
G01*
X0002116600Y0003836300D01*
X0002117700Y0003836900D01*
X0002118500Y0003837800D01*
X0002120500Y0003839700D01*
X0002121300Y0003840600D01*
X0002121900Y0003841700D01*
X0002122100Y0003842900D01*
X0002121900Y0003844100D01*
X0002121300Y0003845200D01*
X0002120500Y0003846100D01*
X0002119400Y0003846600D01*
X0002118200Y0003846800D01*
X0002116900Y0003846600D01*
X0002115800Y0003846100D01*
X0002113000Y0003843300D01*
X0002112200Y0003842400D01*
X0002111600Y0003841300D01*
X0002111400Y0003840100D01*
X0002111600Y0003838900D01*
X0002112200Y0003837800D01*
X0002113000Y0003836900D01*
X0002114100Y0003836300D01*
X0002115300Y0003836100D01*
G37*
G36*
X0002118200Y0003838900D02*
G01*
X0002119400Y0003839099D01*
X0002125000Y0003842000D01*
X0002126100Y0003842500D01*
X0002127000Y0003843399D01*
X0002127500Y0003844500D01*
X0002127700Y0003845700D01*
X0002127500Y0003846900D01*
X0002127000Y0003848000D01*
X0002126100Y0003848900D01*
X0002125000Y0003849400D01*
X0002123800Y0003849600D01*
X0002122600Y0003849400D01*
X0002116900Y0003846600D01*
X0002115800Y0003846100D01*
X0002115000Y0003845200D01*
X0002114400Y0003844100D01*
X0002114200Y0003842900D01*
X0002114400Y0003841700D01*
X0002115000Y0003840600D01*
X0002115800Y0003839700D01*
X0002116900Y0003839099D01*
X0002118200Y0003838900D01*
G37*
G36*
X0002129400Y0003841800D02*
G01*
X0002130600Y0003842000D01*
X0002131700Y0003842500D01*
X0002132600Y0003843399D01*
X0002133100Y0003844500D01*
X0002133300Y0003845700D01*
X0002133100Y0003846900D01*
X0002132600Y0003848000D01*
X0002131700Y0003848900D01*
X0002130600Y0003849400D01*
X0002129400Y0003849600D01*
X0002123800Y0003849600D01*
X0002122600Y0003849400D01*
X0002121500Y0003848900D01*
X0002120600Y0003848000D01*
X0002120000Y0003846900D01*
X0002119800Y0003845700D01*
X0002120000Y0003844500D01*
X0002120600Y0003843399D01*
X0002121500Y0003842500D01*
X0002122600Y0003842000D01*
X0002123800Y0003841800D01*
X0002129400Y0003841800D01*
G37*
G36*
X0002222200Y0003830500D02*
G01*
X0002223400Y0003830700D01*
X0002224500Y0003831300D01*
X0002225400Y0003832100D01*
X0002225900Y0003833200D01*
X0002226100Y0003834400D01*
X0002225900Y0003835700D01*
X0002225400Y0003836800D01*
X0002224500Y0003837600D01*
X0002223400Y0003838200D01*
X0002215000Y0003841000D01*
X0002213800Y0003841200D01*
X0002212500Y0003841000D01*
X0002211500Y0003840400D01*
X0002210600Y0003839600D01*
X0002210000Y0003838500D01*
X0002209800Y0003837300D01*
X0002210000Y0003836000D01*
X0002210600Y0003834900D01*
X0002211500Y0003834100D01*
X0002212500Y0003833500D01*
X0002221000Y0003830700D01*
X0002222200Y0003830500D01*
G37*
G36*
X0002225000Y0003827700D02*
G01*
X0002226200Y0003827899D01*
X0002227300Y0003828500D01*
X0002228200Y0003829300D01*
X0002228800Y0003830400D01*
X0002229000Y0003831600D01*
X0002228800Y0003832900D01*
X0002228200Y0003833900D01*
X0002224500Y0003837600D01*
X0002223400Y0003838200D01*
X0002222200Y0003838400D01*
X0002221000Y0003838200D01*
X0002219900Y0003837600D01*
X0002219000Y0003836800D01*
X0002218500Y0003835700D01*
X0002218300Y0003834400D01*
X0002218500Y0003833200D01*
X0002219000Y0003832100D01*
X0002222700Y0003828500D01*
X0002223800Y0003827899D01*
X0002225000Y0003827700D01*
G37*
G36*
X0002227800Y0003822100D02*
G01*
X0002229000Y0003822300D01*
X0002230100Y0003822800D01*
X0002231000Y0003823700D01*
X0002231600Y0003824800D01*
X0002231800Y0003826000D01*
X0002231600Y0003827200D01*
X0002228800Y0003832900D01*
X0002228200Y0003833900D01*
X0002227300Y0003834800D01*
X0002226200Y0003835400D01*
X0002225000Y0003835600D01*
X0002223800Y0003835400D01*
X0002222700Y0003834800D01*
X0002221800Y0003833900D01*
X0002221300Y0003832900D01*
X0002221100Y0003831600D01*
X0002221300Y0003830400D01*
X0002224100Y0003824800D01*
X0002224600Y0003823700D01*
X0002225500Y0003822800D01*
X0002226600Y0003822300D01*
X0002227800Y0003822100D01*
G37*
G36*
X0002227800Y0003813600D02*
G01*
X0002229000Y0003813800D01*
X0002230100Y0003814400D01*
X0002231000Y0003815300D01*
X0002231600Y0003816400D01*
X0002231800Y0003817600D01*
X0002231800Y0003826000D01*
X0002231600Y0003827200D01*
X0002231000Y0003828299D01*
X0002230100Y0003829200D01*
X0002229000Y0003829799D01*
X0002227800Y0003829900D01*
X0002226600Y0003829799D01*
X0002225500Y0003829200D01*
X0002224600Y0003828299D01*
X0002224100Y0003827200D01*
X0002223900Y0003826000D01*
X0002223900Y0003817600D01*
X0002224100Y0003816400D01*
X0002224600Y0003815300D01*
X0002225500Y0003814400D01*
X0002226600Y0003813800D01*
X0002227800Y0003813600D01*
G37*
G36*
X0002225000Y0003808000D02*
G01*
X0002226200Y0003808199D01*
X0002227300Y0003808800D01*
X0002228200Y0003809600D01*
X0002228800Y0003810700D01*
X0002231600Y0003816400D01*
X0002231800Y0003817600D01*
X0002231600Y0003818800D01*
X0002231000Y0003819900D01*
X0002230100Y0003820800D01*
X0002229000Y0003821300D01*
X0002227800Y0003821500D01*
X0002226600Y0003821300D01*
X0002225500Y0003820800D01*
X0002224600Y0003819900D01*
X0002224100Y0003818800D01*
X0002221300Y0003813200D01*
X0002221100Y0003812000D01*
X0002221300Y0003810700D01*
X0002221800Y0003809600D01*
X0002222700Y0003808800D01*
X0002223800Y0003808199D01*
X0002225000Y0003808000D01*
G37*
G36*
X0002222200Y0003805200D02*
G01*
X0002223400Y0003805400D01*
X0002224500Y0003806000D01*
X0002228200Y0003809600D01*
X0002228800Y0003810700D01*
X0002229000Y0003812000D01*
X0002228800Y0003813200D01*
X0002228200Y0003814300D01*
X0002227300Y0003815099D01*
X0002226200Y0003815700D01*
X0002225000Y0003815899D01*
X0002223800Y0003815700D01*
X0002222700Y0003815099D01*
X0002219000Y0003811500D01*
X0002218500Y0003810400D01*
X0002218300Y0003809100D01*
X0002218500Y0003807900D01*
X0002219000Y0003806800D01*
X0002219900Y0003806000D01*
X0002221000Y0003805400D01*
X0002222200Y0003805200D01*
G37*
G36*
X0002216600Y0003802400D02*
G01*
X0002217800Y0003802600D01*
X0002223400Y0003805400D01*
X0002224500Y0003806000D01*
X0002225400Y0003806800D01*
X0002225900Y0003807900D01*
X0002226100Y0003809100D01*
X0002225900Y0003810400D01*
X0002225400Y0003811500D01*
X0002224500Y0003812300D01*
X0002223400Y0003812900D01*
X0002222200Y0003813100D01*
X0002221000Y0003812900D01*
X0002215400Y0003810100D01*
X0002214300Y0003809500D01*
X0002213400Y0003808600D01*
X0002212800Y0003807500D01*
X0002212600Y0003806300D01*
X0002212800Y0003805100D01*
X0002213400Y0003804000D01*
X0002214300Y0003803099D01*
X0002215400Y0003802600D01*
X0002216600Y0003802400D01*
G37*
G36*
X0002216600Y0003802400D02*
G01*
X0002217800Y0003802600D01*
X0002218900Y0003803099D01*
X0002219800Y0003804000D01*
X0002220300Y0003805100D01*
X0002220500Y0003806300D01*
X0002220300Y0003807500D01*
X0002219800Y0003808600D01*
X0002218900Y0003809500D01*
X0002217800Y0003810100D01*
X0002216600Y0003810300D01*
X0002194100Y0003810300D01*
X0002192900Y0003810100D01*
X0002191800Y0003809500D01*
X0002190900Y0003808600D01*
X0002190300Y0003807500D01*
X0002190100Y0003806300D01*
X0002190300Y0003805100D01*
X0002190900Y0003804000D01*
X0002191800Y0003803099D01*
X0002192900Y0003802600D01*
X0002194100Y0003802400D01*
X0002216600Y0003802400D01*
G37*
G36*
X0002194100Y0003802400D02*
G01*
X0002195300Y0003802600D01*
X0002196400Y0003803099D01*
X0002197300Y0003804000D01*
X0002197800Y0003805100D01*
X0002198000Y0003806300D01*
X0002198000Y0003865400D01*
X0002197800Y0003866599D01*
X0002197300Y0003867700D01*
X0002196400Y0003868599D01*
X0002195300Y0003869100D01*
X0002194100Y0003869300D01*
X0002192900Y0003869100D01*
X0002191800Y0003868599D01*
X0002190900Y0003867700D01*
X0002190300Y0003866599D01*
X0002190100Y0003865400D01*
X0002190100Y0003806300D01*
X0002190300Y0003805100D01*
X0002190900Y0003804000D01*
X0002191800Y0003803099D01*
X0002192900Y0003802600D01*
X0002194100Y0003802400D01*
G37*
G36*
X0002213800Y0003861400D02*
G01*
X0002215000Y0003861600D01*
X0002216100Y0003862200D01*
X0002217000Y0003863099D01*
X0002217500Y0003864200D01*
X0002217700Y0003865400D01*
X0002217500Y0003866599D01*
X0002217000Y0003867700D01*
X0002216100Y0003868599D01*
X0002215000Y0003869100D01*
X0002213800Y0003869300D01*
X0002194100Y0003869300D01*
X0002192900Y0003869100D01*
X0002191800Y0003868599D01*
X0002190900Y0003867700D01*
X0002190300Y0003866599D01*
X0002190100Y0003865400D01*
X0002190300Y0003864200D01*
X0002190900Y0003863099D01*
X0002191800Y0003862200D01*
X0002192900Y0003861600D01*
X0002194100Y0003861400D01*
X0002213800Y0003861400D01*
G37*
G36*
X0002219400Y0003858600D02*
G01*
X0002220600Y0003858800D01*
X0002221700Y0003859400D01*
X0002222600Y0003860300D01*
X0002223100Y0003861400D01*
X0002223300Y0003862600D01*
X0002223100Y0003863800D01*
X0002222600Y0003864900D01*
X0002221700Y0003865800D01*
X0002220600Y0003866300D01*
X0002215000Y0003869100D01*
X0002213800Y0003869300D01*
X0002212500Y0003869100D01*
X0002211500Y0003868599D01*
X0002210600Y0003867700D01*
X0002210000Y0003866599D01*
X0002209800Y0003865400D01*
X0002210000Y0003864200D01*
X0002210600Y0003863099D01*
X0002211500Y0003862200D01*
X0002212500Y0003861600D01*
X0002218200Y0003858800D01*
X0002219400Y0003858600D01*
G37*
G36*
X0002222200Y0003855799D02*
G01*
X0002223400Y0003856000D01*
X0002224500Y0003856599D01*
X0002225400Y0003857400D01*
X0002225900Y0003858500D01*
X0002226100Y0003859800D01*
X0002225900Y0003861000D01*
X0002225400Y0003862100D01*
X0002221700Y0003865800D01*
X0002220600Y0003866300D01*
X0002219400Y0003866500D01*
X0002218200Y0003866300D01*
X0002217100Y0003865800D01*
X0002216200Y0003864900D01*
X0002215600Y0003863800D01*
X0002215500Y0003862600D01*
X0002215600Y0003861400D01*
X0002216200Y0003860300D01*
X0002217100Y0003859400D01*
X0002219900Y0003856599D01*
X0002221000Y0003856000D01*
X0002222200Y0003855799D01*
G37*
G36*
X0002225000Y0003850200D02*
G01*
X0002226200Y0003850400D01*
X0002227300Y0003850900D01*
X0002228200Y0003851800D01*
X0002228800Y0003852900D01*
X0002229000Y0003854100D01*
X0002228800Y0003855300D01*
X0002225900Y0003861000D01*
X0002225400Y0003862100D01*
X0002224500Y0003862900D01*
X0002223400Y0003863499D01*
X0002222200Y0003863700D01*
X0002221000Y0003863499D01*
X0002219900Y0003862900D01*
X0002219000Y0003862100D01*
X0002218500Y0003861000D01*
X0002218300Y0003859800D01*
X0002218500Y0003858500D01*
X0002221300Y0003852900D01*
X0002221800Y0003851800D01*
X0002222700Y0003850900D01*
X0002223800Y0003850400D01*
X0002225000Y0003850200D01*
G37*
G36*
X0002225000Y0003844599D02*
G01*
X0002226200Y0003844800D01*
X0002227300Y0003845300D01*
X0002228200Y0003846200D01*
X0002228800Y0003847300D01*
X0002229000Y0003848500D01*
X0002229000Y0003854100D01*
X0002228800Y0003855300D01*
X0002228200Y0003856400D01*
X0002227300Y0003857300D01*
X0002226200Y0003857900D01*
X0002225000Y0003858100D01*
X0002223800Y0003857900D01*
X0002222700Y0003857300D01*
X0002221800Y0003856400D01*
X0002221300Y0003855300D01*
X0002221100Y0003854100D01*
X0002221100Y0003848500D01*
X0002221300Y0003847300D01*
X0002221800Y0003846200D01*
X0002222700Y0003845300D01*
X0002223800Y0003844800D01*
X0002225000Y0003844599D01*
G37*
G36*
X0002222200Y0003838900D02*
G01*
X0002223400Y0003839099D01*
X0002224500Y0003839700D01*
X0002225400Y0003840600D01*
X0002225900Y0003841700D01*
X0002228800Y0003847300D01*
X0002229000Y0003848500D01*
X0002228800Y0003849700D01*
X0002228200Y0003850800D01*
X0002227300Y0003851700D01*
X0002226200Y0003852299D01*
X0002225000Y0003852400D01*
X0002223800Y0003852299D01*
X0002222700Y0003851700D01*
X0002221800Y0003850800D01*
X0002221300Y0003849700D01*
X0002218500Y0003844100D01*
X0002218300Y0003842900D01*
X0002218500Y0003841700D01*
X0002219000Y0003840600D01*
X0002219900Y0003839700D01*
X0002221000Y0003839099D01*
X0002222200Y0003838900D01*
G37*
G36*
X0002219400Y0003836100D02*
G01*
X0002220600Y0003836300D01*
X0002221700Y0003836900D01*
X0002224500Y0003839700D01*
X0002225400Y0003840600D01*
X0002225900Y0003841700D01*
X0002226100Y0003842900D01*
X0002225900Y0003844100D01*
X0002225400Y0003845200D01*
X0002224500Y0003846100D01*
X0002223400Y0003846600D01*
X0002222200Y0003846800D01*
X0002221000Y0003846600D01*
X0002219900Y0003846100D01*
X0002216200Y0003842400D01*
X0002215600Y0003841300D01*
X0002215500Y0003840100D01*
X0002215600Y0003838900D01*
X0002216200Y0003837800D01*
X0002217100Y0003836900D01*
X0002218200Y0003836300D01*
X0002219400Y0003836100D01*
G37*
G36*
X0002213800Y0003833300D02*
G01*
X0002215000Y0003833500D01*
X0002220600Y0003836300D01*
X0002221700Y0003836900D01*
X0002222600Y0003837800D01*
X0002223100Y0003838900D01*
X0002223300Y0003840100D01*
X0002223100Y0003841300D01*
X0002222600Y0003842400D01*
X0002221700Y0003843300D01*
X0002220600Y0003843799D01*
X0002219400Y0003844000D01*
X0002218200Y0003843799D01*
X0002212500Y0003841000D01*
X0002211500Y0003840400D01*
X0002210600Y0003839600D01*
X0002210000Y0003838500D01*
X0002209800Y0003837300D01*
X0002210000Y0003836000D01*
X0002210600Y0003834900D01*
X0002211500Y0003834100D01*
X0002212500Y0003833500D01*
X0002213800Y0003833300D01*
G37*
G36*
X0002213800Y0003833300D02*
G01*
X0002215000Y0003833500D01*
X0002216100Y0003834100D01*
X0002217000Y0003834900D01*
X0002217500Y0003836000D01*
X0002217700Y0003837300D01*
X0002217500Y0003838500D01*
X0002217000Y0003839600D01*
X0002216100Y0003840400D01*
X0002215000Y0003841000D01*
X0002213800Y0003841200D01*
X0002194100Y0003841200D01*
X0002192900Y0003841000D01*
X0002191800Y0003840400D01*
X0002190900Y0003839600D01*
X0002190300Y0003838500D01*
X0002190100Y0003837300D01*
X0002190300Y0003836000D01*
X0002190900Y0003834900D01*
X0002191800Y0003834100D01*
X0002192900Y0003833500D01*
X0002194100Y0003833300D01*
X0002213800Y0003833300D01*
G37*
G36*
X0002261600Y0003802400D02*
G01*
X0002262800Y0003802600D01*
X0002263900Y0003803099D01*
X0002264800Y0003804000D01*
X0002265300Y0003805100D01*
X0002265500Y0003806300D01*
X0002265300Y0003807500D01*
X0002264800Y0003808600D01*
X0002263900Y0003809500D01*
X0002262800Y0003810100D01*
X0002257200Y0003812900D01*
X0002255900Y0003813100D01*
X0002254700Y0003812900D01*
X0002253600Y0003812300D01*
X0002252800Y0003811500D01*
X0002252200Y0003810400D01*
X0002252000Y0003809100D01*
X0002252200Y0003807900D01*
X0002252800Y0003806800D01*
X0002253600Y0003806000D01*
X0002254700Y0003805400D01*
X0002260400Y0003802600D01*
X0002261600Y0003802400D01*
G37*
G36*
X0002255900Y0003805200D02*
G01*
X0002257200Y0003805400D01*
X0002258300Y0003806000D01*
X0002259100Y0003806800D01*
X0002259700Y0003807900D01*
X0002259900Y0003809100D01*
X0002259700Y0003810400D01*
X0002259100Y0003811500D01*
X0002256300Y0003814300D01*
X0002255500Y0003815099D01*
X0002254400Y0003815700D01*
X0002253100Y0003815899D01*
X0002251900Y0003815700D01*
X0002250800Y0003815099D01*
X0002250000Y0003814300D01*
X0002249400Y0003813200D01*
X0002249200Y0003812000D01*
X0002249400Y0003810700D01*
X0002250000Y0003809600D01*
X0002250800Y0003808800D01*
X0002253600Y0003806000D01*
X0002254700Y0003805400D01*
X0002255900Y0003805200D01*
G37*
G36*
X0002253100Y0003808000D02*
G01*
X0002254400Y0003808199D01*
X0002255500Y0003808800D01*
X0002256300Y0003809600D01*
X0002256900Y0003810700D01*
X0002257100Y0003812000D01*
X0002256900Y0003813200D01*
X0002254100Y0003818800D01*
X0002253500Y0003819900D01*
X0002252600Y0003820800D01*
X0002251500Y0003821300D01*
X0002250300Y0003821500D01*
X0002249100Y0003821300D01*
X0002248000Y0003820800D01*
X0002247100Y0003819900D01*
X0002246600Y0003818800D01*
X0002246400Y0003817600D01*
X0002246600Y0003816400D01*
X0002249400Y0003810700D01*
X0002250000Y0003809600D01*
X0002250800Y0003808800D01*
X0002251900Y0003808199D01*
X0002253100Y0003808000D01*
G37*
G36*
X0002250300Y0003813600D02*
G01*
X0002251500Y0003813800D01*
X0002252600Y0003814400D01*
X0002253500Y0003815300D01*
X0002254100Y0003816400D01*
X0002254300Y0003817600D01*
X0002254300Y0003834400D01*
X0002254100Y0003835700D01*
X0002253500Y0003836800D01*
X0002252600Y0003837600D01*
X0002251500Y0003838200D01*
X0002250300Y0003838400D01*
X0002249100Y0003838200D01*
X0002248000Y0003837600D01*
X0002247100Y0003836800D01*
X0002246600Y0003835700D01*
X0002246400Y0003834400D01*
X0002246400Y0003817600D01*
X0002246600Y0003816400D01*
X0002247100Y0003815300D01*
X0002248000Y0003814400D01*
X0002249100Y0003813800D01*
X0002250300Y0003813600D01*
G37*
G36*
X0002250300Y0003830500D02*
G01*
X0002251500Y0003830700D01*
X0002252600Y0003831300D01*
X0002253500Y0003832100D01*
X0002254100Y0003833200D01*
X0002256900Y0003838900D01*
X0002257100Y0003840100D01*
X0002256900Y0003841300D01*
X0002256300Y0003842400D01*
X0002255500Y0003843300D01*
X0002254400Y0003843799D01*
X0002253100Y0003844000D01*
X0002251900Y0003843799D01*
X0002250800Y0003843300D01*
X0002250000Y0003842400D01*
X0002249400Y0003841300D01*
X0002246600Y0003835700D01*
X0002246400Y0003834400D01*
X0002246600Y0003833200D01*
X0002247100Y0003832100D01*
X0002248000Y0003831300D01*
X0002249100Y0003830700D01*
X0002250300Y0003830500D01*
G37*
G36*
X0002253100Y0003836100D02*
G01*
X0002254400Y0003836300D01*
X0002255500Y0003836900D01*
X0002256300Y0003837800D01*
X0002258300Y0003839700D01*
X0002259100Y0003840600D01*
X0002259700Y0003841700D01*
X0002259900Y0003842900D01*
X0002259700Y0003844100D01*
X0002259100Y0003845200D01*
X0002258300Y0003846100D01*
X0002257200Y0003846600D01*
X0002255900Y0003846800D01*
X0002254700Y0003846600D01*
X0002253600Y0003846100D01*
X0002250800Y0003843300D01*
X0002250000Y0003842400D01*
X0002249400Y0003841300D01*
X0002249200Y0003840100D01*
X0002249400Y0003838900D01*
X0002250000Y0003837800D01*
X0002250800Y0003836900D01*
X0002251900Y0003836300D01*
X0002253100Y0003836100D01*
G37*
G36*
X0002255900Y0003838900D02*
G01*
X0002257200Y0003839099D01*
X0002262800Y0003842000D01*
X0002263900Y0003842500D01*
X0002264800Y0003843399D01*
X0002265300Y0003844500D01*
X0002265500Y0003845700D01*
X0002265300Y0003846900D01*
X0002264800Y0003848000D01*
X0002263900Y0003848900D01*
X0002262800Y0003849400D01*
X0002261600Y0003849600D01*
X0002260400Y0003849400D01*
X0002254700Y0003846600D01*
X0002253600Y0003846100D01*
X0002252800Y0003845200D01*
X0002252200Y0003844100D01*
X0002252000Y0003842900D01*
X0002252200Y0003841700D01*
X0002252800Y0003840600D01*
X0002253600Y0003839700D01*
X0002254700Y0003839099D01*
X0002255900Y0003838900D01*
G37*
G36*
X0002270000Y0003841800D02*
G01*
X0002271200Y0003842000D01*
X0002272300Y0003842500D01*
X0002273200Y0003843399D01*
X0002273800Y0003844500D01*
X0002273900Y0003845700D01*
X0002273800Y0003846900D01*
X0002273200Y0003848000D01*
X0002272300Y0003848900D01*
X0002271200Y0003849400D01*
X0002270000Y0003849600D01*
X0002261600Y0003849600D01*
X0002260400Y0003849400D01*
X0002259300Y0003848900D01*
X0002258400Y0003848000D01*
X0002257800Y0003846900D01*
X0002257600Y0003845700D01*
X0002257800Y0003844500D01*
X0002258400Y0003843399D01*
X0002259300Y0003842500D01*
X0002260400Y0003842000D01*
X0002261600Y0003841800D01*
X0002270000Y0003841800D01*
G37*
G36*
X0002275600Y0003838900D02*
G01*
X0002276800Y0003839099D01*
X0002277900Y0003839700D01*
X0002278800Y0003840600D01*
X0002279400Y0003841700D01*
X0002279600Y0003842900D01*
X0002279400Y0003844100D01*
X0002278800Y0003845200D01*
X0002277900Y0003846100D01*
X0002276800Y0003846600D01*
X0002271200Y0003849400D01*
X0002270000Y0003849600D01*
X0002268800Y0003849400D01*
X0002267700Y0003848900D01*
X0002266800Y0003848000D01*
X0002266300Y0003846900D01*
X0002266100Y0003845700D01*
X0002266300Y0003844500D01*
X0002266800Y0003843399D01*
X0002267700Y0003842500D01*
X0002268800Y0003842000D01*
X0002274400Y0003839099D01*
X0002275600Y0003838900D01*
G37*
G36*
X0002278400Y0003836100D02*
G01*
X0002279700Y0003836300D01*
X0002280800Y0003836900D01*
X0002281600Y0003837800D01*
X0002282200Y0003838900D01*
X0002282400Y0003840100D01*
X0002282200Y0003841300D01*
X0002281600Y0003842400D01*
X0002277900Y0003846100D01*
X0002276800Y0003846600D01*
X0002275600Y0003846800D01*
X0002274400Y0003846600D01*
X0002273300Y0003846100D01*
X0002272400Y0003845200D01*
X0002271900Y0003844100D01*
X0002271700Y0003842900D01*
X0002271900Y0003841700D01*
X0002272400Y0003840600D01*
X0002273300Y0003839700D01*
X0002276100Y0003836900D01*
X0002277200Y0003836300D01*
X0002278400Y0003836100D01*
G37*
G36*
X0002281300Y0003830500D02*
G01*
X0002282500Y0003830700D01*
X0002283600Y0003831300D01*
X0002284400Y0003832100D01*
X0002285000Y0003833200D01*
X0002285200Y0003834400D01*
X0002285000Y0003835700D01*
X0002282200Y0003841300D01*
X0002281600Y0003842400D01*
X0002280800Y0003843300D01*
X0002279700Y0003843799D01*
X0002278400Y0003844000D01*
X0002277200Y0003843799D01*
X0002276100Y0003843300D01*
X0002275300Y0003842400D01*
X0002274700Y0003841300D01*
X0002274500Y0003840100D01*
X0002274700Y0003838900D01*
X0002277500Y0003833200D01*
X0002278100Y0003832100D01*
X0002278900Y0003831300D01*
X0002280000Y0003830700D01*
X0002281300Y0003830500D01*
G37*
G36*
X0002281300Y0003813600D02*
G01*
X0002282500Y0003813800D01*
X0002283600Y0003814400D01*
X0002284400Y0003815300D01*
X0002285000Y0003816400D01*
X0002285200Y0003817600D01*
X0002285200Y0003834400D01*
X0002285000Y0003835700D01*
X0002284400Y0003836800D01*
X0002283600Y0003837600D01*
X0002282500Y0003838200D01*
X0002281300Y0003838400D01*
X0002280000Y0003838200D01*
X0002278900Y0003837600D01*
X0002278100Y0003836800D01*
X0002277500Y0003835700D01*
X0002277300Y0003834400D01*
X0002277300Y0003817600D01*
X0002277500Y0003816400D01*
X0002278100Y0003815300D01*
X0002278900Y0003814400D01*
X0002280000Y0003813800D01*
X0002281300Y0003813600D01*
G37*
G36*
X0002278400Y0003808000D02*
G01*
X0002279700Y0003808199D01*
X0002280800Y0003808800D01*
X0002281600Y0003809600D01*
X0002282200Y0003810700D01*
X0002285000Y0003816400D01*
X0002285200Y0003817600D01*
X0002285000Y0003818800D01*
X0002284400Y0003819900D01*
X0002283600Y0003820800D01*
X0002282500Y0003821300D01*
X0002281300Y0003821500D01*
X0002280000Y0003821300D01*
X0002278900Y0003820800D01*
X0002278100Y0003819900D01*
X0002277500Y0003818800D01*
X0002274700Y0003813200D01*
X0002274500Y0003812000D01*
X0002274700Y0003810700D01*
X0002275300Y0003809600D01*
X0002276100Y0003808800D01*
X0002277200Y0003808199D01*
X0002278400Y0003808000D01*
G37*
G36*
X0002275600Y0003805200D02*
G01*
X0002276800Y0003805400D01*
X0002277900Y0003806000D01*
X0002281600Y0003809600D01*
X0002282200Y0003810700D01*
X0002282400Y0003812000D01*
X0002282200Y0003813200D01*
X0002281600Y0003814300D01*
X0002280800Y0003815099D01*
X0002279700Y0003815700D01*
X0002278400Y0003815899D01*
X0002277200Y0003815700D01*
X0002276100Y0003815099D01*
X0002272400Y0003811500D01*
X0002271900Y0003810400D01*
X0002271700Y0003809100D01*
X0002271900Y0003807900D01*
X0002272400Y0003806800D01*
X0002273300Y0003806000D01*
X0002274400Y0003805400D01*
X0002275600Y0003805200D01*
G37*
G36*
X0002270000Y0003802400D02*
G01*
X0002271200Y0003802600D01*
X0002276800Y0003805400D01*
X0002277900Y0003806000D01*
X0002278800Y0003806800D01*
X0002279400Y0003807900D01*
X0002279600Y0003809100D01*
X0002279400Y0003810400D01*
X0002278800Y0003811500D01*
X0002277900Y0003812300D01*
X0002276800Y0003812900D01*
X0002275600Y0003813100D01*
X0002274400Y0003812900D01*
X0002268800Y0003810100D01*
X0002267700Y0003809500D01*
X0002266800Y0003808600D01*
X0002266300Y0003807500D01*
X0002266100Y0003806300D01*
X0002266300Y0003805100D01*
X0002266800Y0003804000D01*
X0002267700Y0003803099D01*
X0002268800Y0003802600D01*
X0002270000Y0003802400D01*
G37*
G36*
X0002270000Y0003802400D02*
G01*
X0002271200Y0003802600D01*
X0002272300Y0003803099D01*
X0002273200Y0003804000D01*
X0002273800Y0003805100D01*
X0002273900Y0003806300D01*
X0002273800Y0003807500D01*
X0002273200Y0003808600D01*
X0002272300Y0003809500D01*
X0002271200Y0003810100D01*
X0002270000Y0003810300D01*
X0002261600Y0003810300D01*
X0002260400Y0003810100D01*
X0002259300Y0003809500D01*
X0002258400Y0003808600D01*
X0002257800Y0003807500D01*
X0002257600Y0003806300D01*
X0002257800Y0003805100D01*
X0002258400Y0003804000D01*
X0002259300Y0003803099D01*
X0002260400Y0003802600D01*
X0002261600Y0003802400D01*
X0002270000Y0003802400D01*
G37*
G36*
X0002331900Y0003802400D02*
G01*
X0002333100Y0003802600D01*
X0002334200Y0003803099D01*
X0002335100Y0003804000D01*
X0002335600Y0003805100D01*
X0002335800Y0003806300D01*
X0002335800Y0003837300D01*
X0002335600Y0003838500D01*
X0002335100Y0003839600D01*
X0002334200Y0003840400D01*
X0002333100Y0003841000D01*
X0002331900Y0003841200D01*
X0002330700Y0003841000D01*
X0002329600Y0003840400D01*
X0002328700Y0003839600D01*
X0002328100Y0003838500D01*
X0002327900Y0003837300D01*
X0002327900Y0003806300D01*
X0002328100Y0003805100D01*
X0002328700Y0003804000D01*
X0002329600Y0003803099D01*
X0002330700Y0003802600D01*
X0002331900Y0003802400D01*
G37*
G36*
X0002331900Y0003833300D02*
G01*
X0002333100Y0003833500D01*
X0002334200Y0003834100D01*
X0002335100Y0003834900D01*
X0002335600Y0003836000D01*
X0002335800Y0003837300D01*
X0002335600Y0003838500D01*
X0002332800Y0003844100D01*
X0002332200Y0003845200D01*
X0002331400Y0003846100D01*
X0002330300Y0003846600D01*
X0002329100Y0003846800D01*
X0002327800Y0003846600D01*
X0002326800Y0003846100D01*
X0002325900Y0003845200D01*
X0002325300Y0003844100D01*
X0002325100Y0003842900D01*
X0002325300Y0003841700D01*
X0002328100Y0003836000D01*
X0002328700Y0003834900D01*
X0002329600Y0003834100D01*
X0002330700Y0003833500D01*
X0002331900Y0003833300D01*
G37*
G36*
X0002329100Y0003838900D02*
G01*
X0002330300Y0003839099D01*
X0002331400Y0003839700D01*
X0002332200Y0003840600D01*
X0002332800Y0003841700D01*
X0002333000Y0003842900D01*
X0002332800Y0003844100D01*
X0002332200Y0003845200D01*
X0002331400Y0003846100D01*
X0002330300Y0003846600D01*
X0002324700Y0003849400D01*
X0002323400Y0003849600D01*
X0002322200Y0003849400D01*
X0002321100Y0003848900D01*
X0002320300Y0003848000D01*
X0002319700Y0003846900D01*
X0002319500Y0003845700D01*
X0002319700Y0003844500D01*
X0002320300Y0003843399D01*
X0002321100Y0003842500D01*
X0002322200Y0003842000D01*
X0002327800Y0003839099D01*
X0002329100Y0003838900D01*
G37*
G36*
X0002323400Y0003841800D02*
G01*
X0002324700Y0003842000D01*
X0002325800Y0003842500D01*
X0002326600Y0003843399D01*
X0002327200Y0003844500D01*
X0002327400Y0003845700D01*
X0002327200Y0003846900D01*
X0002326600Y0003848000D01*
X0002325800Y0003848900D01*
X0002324700Y0003849400D01*
X0002323400Y0003849600D01*
X0002312200Y0003849600D01*
X0002311000Y0003849400D01*
X0002309900Y0003848900D01*
X0002309000Y0003848000D01*
X0002308400Y0003846900D01*
X0002308300Y0003845700D01*
X0002308400Y0003844500D01*
X0002309000Y0003843399D01*
X0002309900Y0003842500D01*
X0002311000Y0003842000D01*
X0002312200Y0003841800D01*
X0002323400Y0003841800D01*
G37*
G36*
X0002306600Y0003838900D02*
G01*
X0002307800Y0003839099D01*
X0002313400Y0003842000D01*
X0002314500Y0003842500D01*
X0002315400Y0003843399D01*
X0002315900Y0003844500D01*
X0002316100Y0003845700D01*
X0002315900Y0003846900D01*
X0002315400Y0003848000D01*
X0002314500Y0003848900D01*
X0002313400Y0003849400D01*
X0002312200Y0003849600D01*
X0002311000Y0003849400D01*
X0002305400Y0003846600D01*
X0002304300Y0003846100D01*
X0002303400Y0003845200D01*
X0002302800Y0003844100D01*
X0002302600Y0003842900D01*
X0002302800Y0003841700D01*
X0002303400Y0003840600D01*
X0002304300Y0003839700D01*
X0002305400Y0003839099D01*
X0002306600Y0003838900D01*
G37*
G36*
X0002326300Y0003802400D02*
G01*
X0002327500Y0003802600D01*
X0002333100Y0003805400D01*
X0002334200Y0003806000D01*
X0002335100Y0003806800D01*
X0002335600Y0003807900D01*
X0002335800Y0003809100D01*
X0002335600Y0003810400D01*
X0002335100Y0003811500D01*
X0002334200Y0003812300D01*
X0002333100Y0003812900D01*
X0002331900Y0003813100D01*
X0002330700Y0003812900D01*
X0002325000Y0003810100D01*
X0002323900Y0003809500D01*
X0002323100Y0003808600D01*
X0002322500Y0003807500D01*
X0002322300Y0003806300D01*
X0002322500Y0003805100D01*
X0002323100Y0003804000D01*
X0002323900Y0003803099D01*
X0002325000Y0003802600D01*
X0002326300Y0003802400D01*
G37*
G36*
X0002326300Y0003802400D02*
G01*
X0002327500Y0003802600D01*
X0002328600Y0003803099D01*
X0002329400Y0003804000D01*
X0002330000Y0003805100D01*
X0002330200Y0003806300D01*
X0002330000Y0003807500D01*
X0002329400Y0003808600D01*
X0002328600Y0003809500D01*
X0002327500Y0003810100D01*
X0002326300Y0003810300D01*
X0002312200Y0003810300D01*
X0002311000Y0003810100D01*
X0002309900Y0003809500D01*
X0002309000Y0003808600D01*
X0002308400Y0003807500D01*
X0002308300Y0003806300D01*
X0002308400Y0003805100D01*
X0002309000Y0003804000D01*
X0002309900Y0003803099D01*
X0002311000Y0003802600D01*
X0002312200Y0003802400D01*
X0002326300Y0003802400D01*
G37*
G36*
X0002312200Y0003802400D02*
G01*
X0002313400Y0003802600D01*
X0002314500Y0003803099D01*
X0002315400Y0003804000D01*
X0002315900Y0003805100D01*
X0002316100Y0003806300D01*
X0002315900Y0003807500D01*
X0002315400Y0003808600D01*
X0002314500Y0003809500D01*
X0002313400Y0003810100D01*
X0002307800Y0003812900D01*
X0002306600Y0003813100D01*
X0002305400Y0003812900D01*
X0002304300Y0003812300D01*
X0002303400Y0003811500D01*
X0002302800Y0003810400D01*
X0002302600Y0003809100D01*
X0002302800Y0003807900D01*
X0002303400Y0003806800D01*
X0002304300Y0003806000D01*
X0002305400Y0003805400D01*
X0002311000Y0003802600D01*
X0002312200Y0003802400D01*
G37*
G36*
X0002306600Y0003805200D02*
G01*
X0002307800Y0003805400D01*
X0002308900Y0003806000D01*
X0002309800Y0003806800D01*
X0002310300Y0003807900D01*
X0002310500Y0003809100D01*
X0002310300Y0003810400D01*
X0002307500Y0003816000D01*
X0002306900Y0003817100D01*
X0002306100Y0003817900D01*
X0002305000Y0003818500D01*
X0002303800Y0003818700D01*
X0002302500Y0003818500D01*
X0002301400Y0003817900D01*
X0002300600Y0003817100D01*
X0002300000Y0003816000D01*
X0002299800Y0003814800D01*
X0002300000Y0003813500D01*
X0002302800Y0003807900D01*
X0002303400Y0003806800D01*
X0002304300Y0003806000D01*
X0002305400Y0003805400D01*
X0002306600Y0003805200D01*
G37*
G36*
X0002303800Y0003810800D02*
G01*
X0002305000Y0003811000D01*
X0002306100Y0003811600D01*
X0002306900Y0003812400D01*
X0002307500Y0003813500D01*
X0002307700Y0003814800D01*
X0002307700Y0003820400D01*
X0002307500Y0003821600D01*
X0002306900Y0003822700D01*
X0002306100Y0003823600D01*
X0002305000Y0003824100D01*
X0002303800Y0003824300D01*
X0002302500Y0003824100D01*
X0002301400Y0003823600D01*
X0002300600Y0003822700D01*
X0002300000Y0003821600D01*
X0002299800Y0003820400D01*
X0002299800Y0003814800D01*
X0002300000Y0003813500D01*
X0002300600Y0003812400D01*
X0002301400Y0003811600D01*
X0002302500Y0003811000D01*
X0002303800Y0003810800D01*
G37*
G36*
X0002303800Y0003816500D02*
G01*
X0002305000Y0003816600D01*
X0002306100Y0003817200D01*
X0002306900Y0003818100D01*
X0002307500Y0003819200D01*
X0002310300Y0003824800D01*
X0002310500Y0003826000D01*
X0002310300Y0003827200D01*
X0002309800Y0003828299D01*
X0002308900Y0003829200D01*
X0002307800Y0003829799D01*
X0002306600Y0003829900D01*
X0002305400Y0003829799D01*
X0002304300Y0003829200D01*
X0002303400Y0003828299D01*
X0002302800Y0003827200D01*
X0002300000Y0003821600D01*
X0002299800Y0003820400D01*
X0002300000Y0003819200D01*
X0002300600Y0003818100D01*
X0002301400Y0003817200D01*
X0002302500Y0003816600D01*
X0002303800Y0003816500D01*
G37*
G36*
X0002306600Y0003822100D02*
G01*
X0002307800Y0003822300D01*
X0002313400Y0003825100D01*
X0002314500Y0003825600D01*
X0002315400Y0003826500D01*
X0002315900Y0003827600D01*
X0002316100Y0003828800D01*
X0002315900Y0003830000D01*
X0002315400Y0003831100D01*
X0002314500Y0003832000D01*
X0002313400Y0003832599D01*
X0002312200Y0003832800D01*
X0002311000Y0003832599D01*
X0002305400Y0003829799D01*
X0002304300Y0003829200D01*
X0002303400Y0003828299D01*
X0002302800Y0003827200D01*
X0002302600Y0003826000D01*
X0002302800Y0003824800D01*
X0002303400Y0003823700D01*
X0002304300Y0003822800D01*
X0002305400Y0003822300D01*
X0002306600Y0003822100D01*
G37*
G36*
X0002326300Y0003824900D02*
G01*
X0002327500Y0003825100D01*
X0002328600Y0003825600D01*
X0002329400Y0003826500D01*
X0002330000Y0003827600D01*
X0002330200Y0003828800D01*
X0002330000Y0003830000D01*
X0002329400Y0003831100D01*
X0002328600Y0003832000D01*
X0002327500Y0003832599D01*
X0002326300Y0003832800D01*
X0002312200Y0003832800D01*
X0002311000Y0003832599D01*
X0002309900Y0003832000D01*
X0002309000Y0003831100D01*
X0002308400Y0003830000D01*
X0002308300Y0003828800D01*
X0002308400Y0003827600D01*
X0002309000Y0003826500D01*
X0002309900Y0003825600D01*
X0002311000Y0003825100D01*
X0002312200Y0003824900D01*
X0002326300Y0003824900D01*
G37*
G36*
X0002326300Y0003824900D02*
G01*
X0002327500Y0003825100D01*
X0002333100Y0003827899D01*
X0002334200Y0003828500D01*
X0002335100Y0003829300D01*
X0002335600Y0003830400D01*
X0002335800Y0003831600D01*
X0002335600Y0003832900D01*
X0002335100Y0003833900D01*
X0002334200Y0003834800D01*
X0002333100Y0003835400D01*
X0002331900Y0003835600D01*
X0002330700Y0003835400D01*
X0002325000Y0003832599D01*
X0002323900Y0003832000D01*
X0002323100Y0003831100D01*
X0002322500Y0003830000D01*
X0002322300Y0003828800D01*
X0002322500Y0003827600D01*
X0002323100Y0003826500D01*
X0002323900Y0003825600D01*
X0002325000Y0003825100D01*
X0002326300Y0003824900D01*
G37*
G36*
X0002360000Y0003802400D02*
G01*
X0002361200Y0003802600D01*
X0002362300Y0003803099D01*
X0002363200Y0003804000D01*
X0002363700Y0003805100D01*
X0002363900Y0003806300D01*
X0002363900Y0003845700D01*
X0002363700Y0003846900D01*
X0002363200Y0003848000D01*
X0002362300Y0003848900D01*
X0002361200Y0003849400D01*
X0002360000Y0003849600D01*
X0002358800Y0003849400D01*
X0002357700Y0003848900D01*
X0002356800Y0003848000D01*
X0002356300Y0003846900D01*
X0002356100Y0003845700D01*
X0002356100Y0003806300D01*
X0002356300Y0003805100D01*
X0002356800Y0003804000D01*
X0002357700Y0003803099D01*
X0002358800Y0003802600D01*
X0002360000Y0003802400D01*
G37*
G36*
X0002360000Y0003830500D02*
G01*
X0002361200Y0003830700D01*
X0002362300Y0003831300D01*
X0002363200Y0003832100D01*
X0002363700Y0003833200D01*
X0002366600Y0003838900D01*
X0002366700Y0003840100D01*
X0002366600Y0003841300D01*
X0002366000Y0003842400D01*
X0002365100Y0003843300D01*
X0002364000Y0003843799D01*
X0002362800Y0003844000D01*
X0002361600Y0003843799D01*
X0002360500Y0003843300D01*
X0002359600Y0003842400D01*
X0002359100Y0003841300D01*
X0002356300Y0003835700D01*
X0002356100Y0003834400D01*
X0002356300Y0003833200D01*
X0002356800Y0003832100D01*
X0002357700Y0003831300D01*
X0002358800Y0003830700D01*
X0002360000Y0003830500D01*
G37*
G36*
X0002362800Y0003836100D02*
G01*
X0002364000Y0003836300D01*
X0002365100Y0003836900D01*
X0002367900Y0003839700D01*
X0002367900Y0003839700D01*
X0002368800Y0003840600D01*
X0002369400Y0003841700D01*
X0002369600Y0003842900D01*
X0002369400Y0003844100D01*
X0002368800Y0003845200D01*
X0002367900Y0003846100D01*
X0002366800Y0003846600D01*
X0002365600Y0003846800D01*
X0002364400Y0003846600D01*
X0002363300Y0003846100D01*
X0002359600Y0003842400D01*
X0002359100Y0003841300D01*
X0002358900Y0003840100D01*
X0002359100Y0003838900D01*
X0002359600Y0003837800D01*
X0002360500Y0003836900D01*
X0002361600Y0003836300D01*
X0002362800Y0003836100D01*
G37*
G36*
X0002365600Y0003838900D02*
G01*
X0002366800Y0003839099D01*
X0002372500Y0003842000D01*
X0002373600Y0003842500D01*
X0002374400Y0003843399D01*
X0002375000Y0003844500D01*
X0002375200Y0003845700D01*
X0002375000Y0003846900D01*
X0002374400Y0003848000D01*
X0002373600Y0003848900D01*
X0002372500Y0003849400D01*
X0002371200Y0003849600D01*
X0002370000Y0003849400D01*
X0002364400Y0003846600D01*
X0002363300Y0003846100D01*
X0002362400Y0003845200D01*
X0002361900Y0003844100D01*
X0002361700Y0003842900D01*
X0002361900Y0003841700D01*
X0002362400Y0003840600D01*
X0002363300Y0003839700D01*
X0002364400Y0003839099D01*
X0002365600Y0003838900D01*
G37*
G36*
X0002376900Y0003841800D02*
G01*
X0002378100Y0003842000D01*
X0002379200Y0003842500D01*
X0002380100Y0003843399D01*
X0002380600Y0003844500D01*
X0002380800Y0003845700D01*
X0002380600Y0003846900D01*
X0002380100Y0003848000D01*
X0002379200Y0003848900D01*
X0002378100Y0003849400D01*
X0002376900Y0003849600D01*
X0002371200Y0003849600D01*
X0002370000Y0003849400D01*
X0002368900Y0003848900D01*
X0002368100Y0003848000D01*
X0002367500Y0003846900D01*
X0002367300Y0003845700D01*
X0002367500Y0003844500D01*
X0002368100Y0003843399D01*
X0002368900Y0003842500D01*
X0002370000Y0003842000D01*
X0002371200Y0003841800D01*
X0002376900Y0003841800D01*
G37*
G36*
X0002421900Y0003802400D02*
G01*
X0002423100Y0003802600D01*
X0002424200Y0003803099D01*
X0002425100Y0003804000D01*
X0002425600Y0003805100D01*
X0002425800Y0003806300D01*
X0002425800Y0003865400D01*
X0002425600Y0003866599D01*
X0002425100Y0003867700D01*
X0002424200Y0003868599D01*
X0002423100Y0003869100D01*
X0002421900Y0003869300D01*
X0002420600Y0003869100D01*
X0002419600Y0003868599D01*
X0002418700Y0003867700D01*
X0002418100Y0003866599D01*
X0002417900Y0003865400D01*
X0002417900Y0003806300D01*
X0002418100Y0003805100D01*
X0002418700Y0003804000D01*
X0002419600Y0003803099D01*
X0002420600Y0003802600D01*
X0002421900Y0003802400D01*
G37*
G36*
X0002416200Y0003802400D02*
G01*
X0002417500Y0003802600D01*
X0002423100Y0003805400D01*
X0002424200Y0003806000D01*
X0002425100Y0003806800D01*
X0002425600Y0003807900D01*
X0002425800Y0003809100D01*
X0002425600Y0003810400D01*
X0002425100Y0003811500D01*
X0002424200Y0003812300D01*
X0002423100Y0003812900D01*
X0002421900Y0003813100D01*
X0002420600Y0003812900D01*
X0002415000Y0003810100D01*
X0002413900Y0003809500D01*
X0002413100Y0003808600D01*
X0002412500Y0003807500D01*
X0002412300Y0003806300D01*
X0002412500Y0003805100D01*
X0002413100Y0003804000D01*
X0002413900Y0003803099D01*
X0002415000Y0003802600D01*
X0002416200Y0003802400D01*
G37*
G36*
X0002416200Y0003802400D02*
G01*
X0002417500Y0003802600D01*
X0002418600Y0003803099D01*
X0002419400Y0003804000D01*
X0002420000Y0003805100D01*
X0002420200Y0003806300D01*
X0002420000Y0003807500D01*
X0002419400Y0003808600D01*
X0002418600Y0003809500D01*
X0002417500Y0003810100D01*
X0002416200Y0003810300D01*
X0002405000Y0003810300D01*
X0002403800Y0003810100D01*
X0002402700Y0003809500D01*
X0002401800Y0003808600D01*
X0002401200Y0003807500D01*
X0002401100Y0003806300D01*
X0002401200Y0003805100D01*
X0002401800Y0003804000D01*
X0002402700Y0003803099D01*
X0002403800Y0003802600D01*
X0002405000Y0003802400D01*
X0002416200Y0003802400D01*
G37*
G36*
X0002405000Y0003802400D02*
G01*
X0002406200Y0003802600D01*
X0002407300Y0003803099D01*
X0002408200Y0003804000D01*
X0002408700Y0003805100D01*
X0002408900Y0003806300D01*
X0002408700Y0003807500D01*
X0002408200Y0003808600D01*
X0002407300Y0003809500D01*
X0002406200Y0003810100D01*
X0002400600Y0003812900D01*
X0002399400Y0003813100D01*
X0002398200Y0003812900D01*
X0002397100Y0003812300D01*
X0002396200Y0003811500D01*
X0002395600Y0003810400D01*
X0002395400Y0003809100D01*
X0002395600Y0003807900D01*
X0002396200Y0003806800D01*
X0002397100Y0003806000D01*
X0002398200Y0003805400D01*
X0002403800Y0003802600D01*
X0002405000Y0003802400D01*
G37*
G36*
X0002399400Y0003805200D02*
G01*
X0002400600Y0003805400D01*
X0002401700Y0003806000D01*
X0002402600Y0003806800D01*
X0002403100Y0003807900D01*
X0002403300Y0003809100D01*
X0002403100Y0003810400D01*
X0002402600Y0003811500D01*
X0002398900Y0003815099D01*
X0002397800Y0003815700D01*
X0002396600Y0003815899D01*
X0002395300Y0003815700D01*
X0002394200Y0003815099D01*
X0002393400Y0003814300D01*
X0002392800Y0003813200D01*
X0002392600Y0003812000D01*
X0002392800Y0003810700D01*
X0002393400Y0003809600D01*
X0002397100Y0003806000D01*
X0002398200Y0003805400D01*
X0002399400Y0003805200D01*
G37*
G36*
X0002396600Y0003808000D02*
G01*
X0002397800Y0003808199D01*
X0002398900Y0003808800D01*
X0002399700Y0003809600D01*
X0002400300Y0003810700D01*
X0002400500Y0003812000D01*
X0002400300Y0003813200D01*
X0002397500Y0003818800D01*
X0002396900Y0003819900D01*
X0002396100Y0003820800D01*
X0002395000Y0003821300D01*
X0002393700Y0003821500D01*
X0002392500Y0003821300D01*
X0002391400Y0003820800D01*
X0002390600Y0003819900D01*
X0002390000Y0003818800D01*
X0002389800Y0003817600D01*
X0002390000Y0003816400D01*
X0002392800Y0003810700D01*
X0002393400Y0003809600D01*
X0002394200Y0003808800D01*
X0002395300Y0003808199D01*
X0002396600Y0003808000D01*
G37*
G36*
X0002393700Y0003813600D02*
G01*
X0002395000Y0003813800D01*
X0002396100Y0003814400D01*
X0002396900Y0003815300D01*
X0002397500Y0003816400D01*
X0002397700Y0003817600D01*
X0002397700Y0003834400D01*
X0002397500Y0003835700D01*
X0002396900Y0003836800D01*
X0002396100Y0003837600D01*
X0002395000Y0003838200D01*
X0002393700Y0003838400D01*
X0002392500Y0003838200D01*
X0002391400Y0003837600D01*
X0002390600Y0003836800D01*
X0002390000Y0003835700D01*
X0002389800Y0003834400D01*
X0002389800Y0003817600D01*
X0002390000Y0003816400D01*
X0002390600Y0003815300D01*
X0002391400Y0003814400D01*
X0002392500Y0003813800D01*
X0002393700Y0003813600D01*
G37*
G36*
X0002393700Y0003830500D02*
G01*
X0002395000Y0003830700D01*
X0002396100Y0003831300D01*
X0002396900Y0003832100D01*
X0002397500Y0003833200D01*
X0002400300Y0003838900D01*
X0002400500Y0003840100D01*
X0002400300Y0003841300D01*
X0002399700Y0003842400D01*
X0002398900Y0003843300D01*
X0002397800Y0003843799D01*
X0002396600Y0003844000D01*
X0002395300Y0003843799D01*
X0002394200Y0003843300D01*
X0002393400Y0003842400D01*
X0002392800Y0003841300D01*
X0002390000Y0003835700D01*
X0002389800Y0003834400D01*
X0002390000Y0003833200D01*
X0002390600Y0003832100D01*
X0002391400Y0003831300D01*
X0002392500Y0003830700D01*
X0002393700Y0003830500D01*
G37*
G36*
X0002396600Y0003836100D02*
G01*
X0002397800Y0003836300D01*
X0002398900Y0003836900D01*
X0002401700Y0003839700D01*
X0002402600Y0003840600D01*
X0002403100Y0003841700D01*
X0002403300Y0003842900D01*
X0002403100Y0003844100D01*
X0002402600Y0003845200D01*
X0002401700Y0003846100D01*
X0002400600Y0003846600D01*
X0002399400Y0003846800D01*
X0002398200Y0003846600D01*
X0002397100Y0003846100D01*
X0002393400Y0003842400D01*
X0002392800Y0003841300D01*
X0002392600Y0003840100D01*
X0002392800Y0003838900D01*
X0002393400Y0003837800D01*
X0002394200Y0003836900D01*
X0002395300Y0003836300D01*
X0002396600Y0003836100D01*
G37*
G36*
X0002399400Y0003838900D02*
G01*
X0002400600Y0003839099D01*
X0002406200Y0003842000D01*
X0002407300Y0003842500D01*
X0002408200Y0003843399D01*
X0002408700Y0003844500D01*
X0002408900Y0003845700D01*
X0002408700Y0003846900D01*
X0002408200Y0003848000D01*
X0002407300Y0003848900D01*
X0002406200Y0003849400D01*
X0002405000Y0003849600D01*
X0002403800Y0003849400D01*
X0002398200Y0003846600D01*
X0002397100Y0003846100D01*
X0002396200Y0003845200D01*
X0002395600Y0003844100D01*
X0002395400Y0003842900D01*
X0002395600Y0003841700D01*
X0002396200Y0003840600D01*
X0002397100Y0003839700D01*
X0002398200Y0003839099D01*
X0002399400Y0003838900D01*
G37*
G36*
X0002416200Y0003841800D02*
G01*
X0002417500Y0003842000D01*
X0002418600Y0003842500D01*
X0002419400Y0003843399D01*
X0002420000Y0003844500D01*
X0002420200Y0003845700D01*
X0002420000Y0003846900D01*
X0002419400Y0003848000D01*
X0002418600Y0003848900D01*
X0002417500Y0003849400D01*
X0002416200Y0003849600D01*
X0002405000Y0003849600D01*
X0002403800Y0003849400D01*
X0002402700Y0003848900D01*
X0002401800Y0003848000D01*
X0002401200Y0003846900D01*
X0002401100Y0003845700D01*
X0002401200Y0003844500D01*
X0002401800Y0003843399D01*
X0002402700Y0003842500D01*
X0002403800Y0003842000D01*
X0002405000Y0003841800D01*
X0002416200Y0003841800D01*
G37*
G36*
X0002421900Y0003838900D02*
G01*
X0002423100Y0003839099D01*
X0002424200Y0003839700D01*
X0002425100Y0003840600D01*
X0002425600Y0003841700D01*
X0002425800Y0003842900D01*
X0002425600Y0003844100D01*
X0002425100Y0003845200D01*
X0002424200Y0003846100D01*
X0002423100Y0003846600D01*
X0002417500Y0003849400D01*
X0002416200Y0003849600D01*
X0002415000Y0003849400D01*
X0002413900Y0003848900D01*
X0002413100Y0003848000D01*
X0002412500Y0003846900D01*
X0002412300Y0003845700D01*
X0002412500Y0003844500D01*
X0002413100Y0003843399D01*
X0002413900Y0003842500D01*
X0002415000Y0003842000D01*
X0002420600Y0003839099D01*
X0002421900Y0003838900D01*
G37*
G04 next file*
%LPD*%
G04 #@! TF.GenerationSoftware,KiCad,Pcbnew,(5.1.2)-1*
G04 #@! TF.CreationDate,2019-11-08T13:50:46+05:30*
G04 #@! TF.ProjectId,TALK,54414c4b-2e6b-4696-9361-645f70636258,rev?*
G04 #@! TF.SameCoordinates,Original*
G04 #@! TF.FileFunction,Legend,Top*
G04 #@! TF.FilePolarity,Positive*
G04 Gerber Fmt 4.6, Leading zero omitted, Abs format (unit mm)*
G04 Created by KiCad (PCBNEW (5.1.2)-1) date 2019-11-08 13:50:46*
G04 APERTURE LIST*
G04 APERTURE END LIST*
D10*
X0001370179Y0003451835D02*
X0001392677Y0003451835D01*
X0001381428Y0003412465D02*
X0001381428Y0003451835D01*
X0001405800Y0003416214D02*
X0001407675Y0003414340D01*
X0001405800Y0003412465D01*
X0001403925Y0003414340D01*
X0001405800Y0003416214D01*
X0001405800Y0003412465D01*
X0001422673Y0003423713D02*
X0001441421Y0003423713D01*
X0001418923Y0003412465D02*
X0001432047Y0003451835D01*
X0001445170Y0003412465D01*
X0001458293Y0003416214D02*
X0001460168Y0003414340D01*
X0001458293Y0003412465D01*
X0001456419Y0003414340D01*
X0001458293Y0003416214D01*
X0001458293Y0003412465D01*
X0001495789Y0003412465D02*
X0001477041Y0003412465D01*
X0001477041Y0003451835D01*
X0001508912Y0003416214D02*
X0001510787Y0003414340D01*
X0001508912Y0003412465D01*
X0001507037Y0003414340D01*
X0001508912Y0003416214D01*
X0001508912Y0003412465D01*
X0001527660Y0003412465D02*
X0001527660Y0003451835D01*
X0001550157Y0003412465D02*
X0001533284Y0003434962D01*
X0001550157Y0003451835D02*
X0001527660Y0003429338D01*
X0001567030Y0003416214D02*
X0001568905Y0003414340D01*
X0001567030Y0003412465D01*
X0001565155Y0003414340D01*
X0001567030Y0003416214D01*
X0001567030Y0003412465D01*
X0001615774Y0003427463D02*
X0001645770Y0003427463D01*
X0001688890Y0003451835D02*
X0001702013Y0003412465D01*
X0001715136Y0003451835D01*
X0001748882Y0003412465D02*
X0001726385Y0003412465D01*
X0001737634Y0003412465D02*
X0001737634Y0003451835D01*
X0001733884Y0003446211D01*
X0001730134Y0003442461D01*
X0001726385Y0003440586D01*
X0001765755Y0003416214D02*
X0001767630Y0003414340D01*
X0001765755Y0003412465D01*
X0001763880Y0003414340D01*
X0001765755Y0003416214D01*
X0001765755Y0003412465D01*
X0001792002Y0003451835D02*
X0001795751Y0003451835D01*
X0001799501Y0003449960D01*
X0001801376Y0003448085D01*
X0001803250Y0003444336D01*
X0001805125Y0003436837D01*
X0001805125Y0003427463D01*
X0001803250Y0003419964D01*
X0001801376Y0003416214D01*
X0001799501Y0003414340D01*
X0001795751Y0003412465D01*
X0001792002Y0003412465D01*
X0001788252Y0003414340D01*
X0001786377Y0003416214D01*
X0001784503Y0003419964D01*
X0001782628Y0003427463D01*
X0001782628Y0003436837D01*
X0001784503Y0003444336D01*
X0001786377Y0003448085D01*
X0001788252Y0003449960D01*
X0001792002Y0003451835D01*
X0001583228Y0002940196D02*
X0001562559Y0002940196D01*
X0001583228Y0002770905D02*
X0001562559Y0002770905D01*
X0001413936Y0002770905D02*
X0001434606Y0002770905D01*
X0001413936Y0002940196D02*
X0001434606Y0002940196D01*
X0001583228Y0002770905D02*
X0001583228Y0002791574D01*
X0001413936Y0002770905D02*
X0001413936Y0002791574D01*
X0001583228Y0002940196D02*
X0001583228Y0002919527D01*
D11*
X0001725708Y0002745669D02*
X0001513110Y0002745669D01*
X0001725708Y0002568503D02*
X0001725708Y0002745669D01*
D10*
X0001876062Y0002712047D02*
X0001876062Y0002655944D01*
X0001867204Y0002997480D02*
X0001867204Y0002984685D01*
X0002152637Y0002997480D02*
X0002152637Y0002984685D01*
X0002152637Y0002712047D02*
X0002152637Y0002724842D01*
X0001867204Y0002712047D02*
X0001867204Y0002724842D01*
X0002152637Y0002712047D02*
X0002139842Y0002712047D01*
X0002152637Y0002997480D02*
X0002139842Y0002997480D01*
X0001867204Y0002997480D02*
X0001880000Y0002997480D01*
X0001867204Y0002712047D02*
X0001876062Y0002712047D01*
D11*
X0001748228Y0003311456D02*
X0001748228Y0003350826D01*
X0001615944Y0003311456D02*
X0001615944Y0003350826D01*
X0001615944Y0003212834D02*
X0001615944Y0003173464D01*
X0001748228Y0003212834D02*
X0001748228Y0003173464D01*
X0001615944Y0002989409D02*
X0001615944Y0002950039D01*
X0001748228Y0002989409D02*
X0001748228Y0002950039D01*
X0002147204Y0003278711D02*
X0002147204Y0003265225D01*
X0002187362Y0003278711D02*
X0002187362Y0003265225D01*
X0001411299Y0003315089D02*
X0001411299Y0003301603D01*
X0001451456Y0003315089D02*
X0001451456Y0003301603D01*
X0002154477Y0002547598D02*
X0002167963Y0002547598D01*
X0002154477Y0002587755D02*
X0002167963Y0002587755D01*
X0001338543Y0002865719D02*
X0001338543Y0002852233D01*
X0001378700Y0002865719D02*
X0001378700Y0002852233D01*
X0002092913Y0003173228D02*
X0002092913Y0003130708D01*
X0001855905Y0003276377D02*
X0001844094Y0003276377D01*
X0002104724Y0003276377D02*
X0002092913Y0003276377D01*
X0001844094Y0003276377D02*
X0001844094Y0003173228D01*
X0001855905Y0003173228D02*
X0001844094Y0003173228D01*
X0002104724Y0003173228D02*
X0002092913Y0003173228D01*
X0002104724Y0003276377D02*
X0002104724Y0003173228D01*
X0002259015Y0003206299D02*
X0002259015Y0003303149D01*
X0002201141Y0003206299D02*
X0002259015Y0003206299D01*
X0002201141Y0003303149D02*
X0002201141Y0003206299D01*
X0001959173Y0002539685D02*
X0002056023Y0002539685D01*
X0001959173Y0002597559D02*
X0001959173Y0002539685D01*
X0002056023Y0002597559D02*
X0001959173Y0002597559D01*
X0001449370Y0002660482D02*
X0001449370Y0002646997D01*
X0001489527Y0002660482D02*
X0001489527Y0002646997D01*
X0001784763Y0002647036D02*
X0001784763Y0002660522D01*
X0001744606Y0002647036D02*
X0001744606Y0002660522D01*
X0001515275Y0003301603D02*
X0001515275Y0003315089D01*
X0001475118Y0003301603D02*
X0001475118Y0003315089D01*
X0001465719Y0003226889D02*
X0001452233Y0003226889D01*
X0001465719Y0003186732D02*
X0001452233Y0003186732D01*
X0001418937Y0002646918D02*
X0001418937Y0002660404D01*
X0001378779Y0002646918D02*
X0001378779Y0002660404D01*
X0001465719Y0003161574D02*
X0001452233Y0003161574D01*
X0001465719Y0003121417D02*
X0001452233Y0003121417D01*
D10*
X0001468586Y0003009985D02*
X0001468586Y0002978114D01*
X0001470461Y0002974364D01*
X0001472335Y0002972489D01*
X0001476085Y0002970614D01*
X0001483584Y0002970614D01*
X0001487334Y0002972489D01*
X0001489208Y0002974364D01*
X0001491083Y0002978114D01*
X0001491083Y0003009985D01*
X0001507956Y0003006235D02*
X0001509831Y0003008110D01*
X0001513580Y0003009985D01*
X0001522954Y0003009985D01*
X0001526704Y0003008110D01*
X0001528578Y0003006235D01*
X0001530453Y0003002485D01*
X0001530453Y0002998736D01*
X0001528578Y0002993112D01*
X0001506081Y0002970614D01*
X0001530453Y0002970614D01*
X0001600661Y0002537945D02*
X0001600661Y0002519197D01*
X0001587538Y0002558567D02*
X0001600661Y0002537945D01*
X0001613785Y0002558567D01*
X0001647530Y0002519197D02*
X0001625033Y0002519197D01*
X0001636282Y0002519197D02*
X0001636282Y0002558567D01*
X0001632532Y0002552943D01*
X0001628783Y0002549193D01*
X0001625033Y0002547319D01*
X0001750172Y0002824767D02*
X0001782043Y0002824767D01*
X0001785792Y0002826642D01*
X0001787667Y0002828517D01*
X0001789542Y0002832266D01*
X0001789542Y0002839765D01*
X0001787667Y0002843515D01*
X0001785792Y0002845389D01*
X0001782043Y0002847264D01*
X0001750172Y0002847264D01*
X0001750172Y0002862262D02*
X0001750172Y0002886634D01*
X0001765170Y0002873511D01*
X0001765170Y0002879135D01*
X0001767045Y0002882885D01*
X0001768920Y0002884760D01*
X0001772669Y0002886634D01*
X0001782043Y0002886634D01*
X0001785792Y0002884760D01*
X0001787667Y0002882885D01*
X0001789542Y0002879135D01*
X0001789542Y0002867887D01*
X0001787667Y0002864137D01*
X0001785792Y0002862262D01*
X0001654075Y0003313410D02*
X0001640952Y0003332157D01*
X0001631578Y0003313410D02*
X0001631578Y0003352780D01*
X0001646576Y0003352780D01*
X0001650326Y0003350905D01*
X0001652200Y0003349030D01*
X0001654075Y0003345281D01*
X0001654075Y0003339656D01*
X0001652200Y0003335907D01*
X0001650326Y0003334032D01*
X0001646576Y0003332157D01*
X0001631578Y0003332157D01*
X0001670948Y0003313410D02*
X0001670948Y0003352780D01*
X0001693445Y0003313410D01*
X0001693445Y0003352780D01*
X0001729066Y0003339656D02*
X0001729066Y0003313410D01*
X0001719692Y0003354655D02*
X0001710318Y0003326533D01*
X0001734690Y0003326533D01*
X0001659351Y0003174748D02*
X0001646227Y0003193496D01*
X0001636854Y0003174748D02*
X0001636854Y0003214118D01*
X0001651852Y0003214118D01*
X0001655601Y0003212244D01*
X0001657476Y0003210369D01*
X0001659351Y0003206619D01*
X0001659351Y0003200995D01*
X0001657476Y0003197245D01*
X0001655601Y0003195371D01*
X0001651852Y0003193496D01*
X0001636854Y0003193496D01*
X0001676224Y0003174748D02*
X0001676224Y0003214118D01*
X0001698721Y0003174748D01*
X0001698721Y0003214118D01*
X0001713719Y0003214118D02*
X0001738091Y0003214118D01*
X0001724968Y0003199120D01*
X0001730592Y0003199120D01*
X0001734341Y0003197245D01*
X0001736216Y0003195371D01*
X0001738091Y0003191621D01*
X0001738091Y0003182247D01*
X0001736216Y0003178498D01*
X0001734341Y0003176623D01*
X0001730592Y0003174748D01*
X0001719343Y0003174748D01*
X0001715594Y0003176623D01*
X0001713719Y0003178498D01*
X0001656201Y0002951126D02*
X0001643078Y0002969874D01*
X0001633704Y0002951126D02*
X0001633704Y0002990496D01*
X0001648702Y0002990496D01*
X0001652452Y0002988622D01*
X0001654326Y0002986747D01*
X0001656201Y0002982997D01*
X0001656201Y0002977373D01*
X0001654326Y0002973623D01*
X0001652452Y0002971749D01*
X0001648702Y0002969874D01*
X0001633704Y0002969874D01*
X0001673074Y0002951126D02*
X0001673074Y0002990496D01*
X0001695571Y0002951126D01*
X0001695571Y0002990496D01*
X0001734941Y0002951126D02*
X0001712444Y0002951126D01*
X0001723693Y0002951126D02*
X0001723693Y0002990496D01*
X0001719943Y0002984872D01*
X0001716194Y0002981122D01*
X0001712444Y0002979248D01*
X0002249266Y0003158084D02*
X0002230519Y0003144960D01*
X0002249266Y0003135586D02*
X0002209896Y0003135586D01*
X0002209896Y0003150584D01*
X0002211771Y0003154334D01*
X0002213646Y0003156209D01*
X0002217395Y0003158084D01*
X0002223020Y0003158084D01*
X0002226769Y0003156209D01*
X0002228644Y0003154334D01*
X0002230519Y0003150584D01*
X0002230519Y0003135586D01*
X0002226769Y0003180581D02*
X0002224895Y0003176831D01*
X0002223020Y0003174956D01*
X0002219270Y0003173082D01*
X0002217395Y0003173082D01*
X0002213646Y0003174956D01*
X0002211771Y0003176831D01*
X0002209896Y0003180581D01*
X0002209896Y0003188080D01*
X0002211771Y0003191829D01*
X0002213646Y0003193704D01*
X0002217395Y0003195579D01*
X0002219270Y0003195579D01*
X0002223020Y0003193704D01*
X0002224895Y0003191829D01*
X0002226769Y0003188080D01*
X0002226769Y0003180581D01*
X0002228644Y0003176831D01*
X0002230519Y0003174956D01*
X0002234268Y0003173082D01*
X0002241767Y0003173082D01*
X0002245517Y0003174956D01*
X0002247392Y0003176831D01*
X0002249266Y0003180581D01*
X0002249266Y0003188080D01*
X0002247392Y0003191829D01*
X0002245517Y0003193704D01*
X0002241767Y0003195579D01*
X0002234268Y0003195579D01*
X0002230519Y0003193704D01*
X0002228644Y0003191829D01*
X0002226769Y0003188080D01*
X0001573558Y0003304501D02*
X0001554810Y0003291377D01*
X0001573558Y0003282004D02*
X0001534188Y0003282004D01*
X0001534188Y0003297002D01*
X0001536062Y0003300751D01*
X0001537937Y0003302626D01*
X0001541687Y0003304501D01*
X0001547311Y0003304501D01*
X0001551061Y0003302626D01*
X0001552935Y0003300751D01*
X0001554810Y0003297002D01*
X0001554810Y0003282004D01*
X0001534188Y0003317624D02*
X0001534188Y0003343871D01*
X0001573558Y0003326998D01*
X0002141194Y0002487110D02*
X0002128070Y0002505858D01*
X0002118697Y0002487110D02*
X0002118697Y0002526481D01*
X0002133695Y0002526481D01*
X0002137444Y0002524606D01*
X0002139319Y0002522731D01*
X0002141194Y0002518981D01*
X0002141194Y0002513357D01*
X0002139319Y0002509608D01*
X0002137444Y0002507733D01*
X0002133695Y0002505858D01*
X0002118697Y0002505858D01*
X0002174939Y0002526481D02*
X0002167440Y0002526481D01*
X0002163691Y0002524606D01*
X0002161816Y0002522731D01*
X0002158067Y0002517107D01*
X0002156192Y0002509608D01*
X0002156192Y0002494610D01*
X0002158067Y0002490860D01*
X0002159941Y0002488985D01*
X0002163691Y0002487110D01*
X0002171190Y0002487110D01*
X0002174939Y0002488985D01*
X0002176814Y0002490860D01*
X0002178689Y0002494610D01*
X0002178689Y0002503983D01*
X0002176814Y0002507733D01*
X0002174939Y0002509608D01*
X0002171190Y0002511482D01*
X0002163691Y0002511482D01*
X0002159941Y0002509608D01*
X0002158067Y0002507733D01*
X0002156192Y0002503983D01*
X0001375133Y0002960879D02*
X0001356385Y0002947755D01*
X0001375133Y0002938382D02*
X0001335762Y0002938382D01*
X0001335762Y0002953380D01*
X0001337637Y0002957129D01*
X0001339512Y0002959004D01*
X0001343262Y0002960879D01*
X0001348886Y0002960879D01*
X0001352635Y0002959004D01*
X0001354510Y0002957129D01*
X0001356385Y0002953380D01*
X0001356385Y0002938382D01*
X0001335762Y0002974002D02*
X0001335762Y0002998374D01*
X0001350761Y0002985251D01*
X0001350761Y0002990875D01*
X0001352635Y0002994625D01*
X0001354510Y0002996499D01*
X0001358260Y0002998374D01*
X0001367633Y0002998374D01*
X0001371383Y0002996499D01*
X0001373258Y0002994625D01*
X0001375133Y0002990875D01*
X0001375133Y0002979626D01*
X0001373258Y0002975877D01*
X0001371383Y0002974002D01*
X0002002397Y0003348685D02*
X0002002397Y0003388055D01*
X0002017395Y0003388055D01*
X0002021145Y0003386181D01*
X0002023020Y0003384306D01*
X0002024895Y0003380556D01*
X0002024895Y0003374932D01*
X0002023020Y0003371182D01*
X0002021145Y0003369308D01*
X0002017395Y0003367433D01*
X0002002397Y0003367433D01*
X0002062390Y0003348685D02*
X0002039893Y0003348685D01*
X0002051141Y0003348685D02*
X0002051141Y0003388055D01*
X0002047392Y0003382431D01*
X0002043642Y0003378682D01*
X0002039893Y0003376807D01*
X0002162069Y0003167457D02*
X0002163944Y0003173082D01*
X0002165819Y0003174956D01*
X0002169568Y0003176831D01*
X0002175193Y0003176831D01*
X0002178942Y0003174956D01*
X0002180817Y0003173082D01*
X0002182692Y0003169332D01*
X0002182692Y0003154334D01*
X0002143322Y0003154334D01*
X0002143322Y0003167457D01*
X0002145196Y0003171207D01*
X0002147071Y0003173082D01*
X0002150821Y0003174956D01*
X0002154570Y0003174956D01*
X0002158320Y0003173082D01*
X0002160194Y0003171207D01*
X0002162069Y0003167457D01*
X0002162069Y0003154334D01*
X0001913618Y0002561194D02*
X0001932365Y0002561194D01*
X0001909868Y0002549945D02*
X0001922992Y0002589315D01*
X0001936115Y0002549945D01*
X0001484926Y0002539973D02*
X0001486801Y0002538099D01*
X0001488676Y0002532474D01*
X0001488676Y0002528725D01*
X0001486801Y0002523100D01*
X0001483052Y0002519351D01*
X0001479302Y0002517476D01*
X0001471803Y0002515601D01*
X0001466179Y0002515601D01*
X0001458680Y0002517476D01*
X0001454930Y0002519351D01*
X0001451181Y0002523100D01*
X0001449306Y0002528725D01*
X0001449306Y0002532474D01*
X0001451181Y0002538099D01*
X0001453055Y0002539973D01*
X0001449306Y0002573719D02*
X0001449306Y0002566220D01*
X0001451181Y0002562470D01*
X0001453055Y0002560596D01*
X0001458680Y0002556846D01*
X0001466179Y0002554971D01*
X0001481177Y0002554971D01*
X0001484926Y0002556846D01*
X0001486801Y0002558721D01*
X0001488676Y0002562470D01*
X0001488676Y0002569970D01*
X0001486801Y0002573719D01*
X0001484926Y0002575594D01*
X0001481177Y0002577469D01*
X0001471803Y0002577469D01*
X0001468053Y0002575594D01*
X0001466179Y0002573719D01*
X0001464304Y0002569970D01*
X0001464304Y0002562470D01*
X0001466179Y0002558721D01*
X0001468053Y0002556846D01*
X0001471803Y0002554971D01*
X0001786974Y0002535052D02*
X0001788848Y0002533177D01*
X0001790723Y0002527553D01*
X0001790723Y0002523803D01*
X0001788848Y0002518179D01*
X0001785099Y0002514430D01*
X0001781349Y0002512555D01*
X0001773850Y0002510680D01*
X0001768226Y0002510680D01*
X0001760727Y0002512555D01*
X0001756977Y0002514430D01*
X0001753228Y0002518179D01*
X0001751353Y0002523803D01*
X0001751353Y0002527553D01*
X0001753228Y0002533177D01*
X0001755103Y0002535052D01*
X0001751353Y0002570673D02*
X0001751353Y0002551925D01*
X0001770101Y0002550050D01*
X0001768226Y0002551925D01*
X0001766351Y0002555674D01*
X0001766351Y0002565048D01*
X0001768226Y0002568798D01*
X0001770101Y0002570673D01*
X0001773850Y0002572547D01*
X0001783224Y0002572547D01*
X0001786974Y0002570673D01*
X0001788848Y0002568798D01*
X0001790723Y0002565048D01*
X0001790723Y0002555674D01*
X0001788848Y0002551925D01*
X0001786974Y0002550050D01*
X0001388391Y0003300091D02*
X0001390266Y0003298217D01*
X0001392140Y0003292592D01*
X0001392140Y0003288843D01*
X0001390266Y0003283218D01*
X0001386516Y0003279469D01*
X0001382767Y0003277594D01*
X0001375268Y0003275719D01*
X0001369643Y0003275719D01*
X0001362144Y0003277594D01*
X0001358395Y0003279469D01*
X0001354645Y0003283218D01*
X0001352770Y0003288843D01*
X0001352770Y0003292592D01*
X0001354645Y0003298217D01*
X0001356520Y0003300091D01*
X0001365894Y0003333837D02*
X0001392140Y0003333837D01*
X0001350896Y0003324463D02*
X0001379017Y0003315090D01*
X0001379017Y0003339461D01*
X0001341194Y0003191608D02*
X0001339319Y0003189733D01*
X0001333695Y0003187859D01*
X0001329945Y0003187859D01*
X0001324321Y0003189733D01*
X0001320571Y0003193483D01*
X0001318696Y0003197232D01*
X0001316822Y0003204731D01*
X0001316822Y0003210356D01*
X0001318696Y0003217855D01*
X0001320571Y0003221604D01*
X0001324321Y0003225354D01*
X0001329945Y0003227229D01*
X0001333695Y0003227229D01*
X0001339319Y0003225354D01*
X0001341194Y0003223479D01*
X0001354317Y0003227229D02*
X0001378689Y0003227229D01*
X0001365566Y0003212230D01*
X0001371190Y0003212230D01*
X0001374939Y0003210356D01*
X0001376814Y0003208481D01*
X0001378689Y0003204731D01*
X0001378689Y0003195358D01*
X0001376814Y0003191608D01*
X0001374939Y0003189733D01*
X0001371190Y0003187859D01*
X0001359941Y0003187859D01*
X0001356192Y0003189733D01*
X0001354317Y0003191608D01*
X0001413391Y0002537532D02*
X0001415266Y0002535658D01*
X0001417140Y0002530033D01*
X0001417140Y0002526284D01*
X0001415266Y0002520659D01*
X0001411516Y0002516910D01*
X0001407767Y0002515035D01*
X0001400268Y0002513160D01*
X0001394643Y0002513160D01*
X0001387144Y0002515035D01*
X0001383395Y0002516910D01*
X0001379645Y0002520659D01*
X0001377770Y0002526284D01*
X0001377770Y0002530033D01*
X0001379645Y0002535658D01*
X0001381520Y0002537532D01*
X0001381520Y0002552530D02*
X0001379645Y0002554405D01*
X0001377770Y0002558155D01*
X0001377770Y0002567529D01*
X0001379645Y0002571278D01*
X0001381520Y0002573153D01*
X0001385269Y0002575028D01*
X0001389019Y0002575028D01*
X0001394643Y0002573153D01*
X0001417140Y0002550656D01*
X0001417140Y0002575028D01*
X0001343831Y0003121411D02*
X0001341957Y0003119536D01*
X0001336332Y0003117662D01*
X0001332583Y0003117662D01*
X0001326959Y0003119536D01*
X0001323209Y0003123286D01*
X0001321334Y0003127036D01*
X0001319460Y0003134535D01*
X0001319460Y0003140159D01*
X0001321334Y0003147658D01*
X0001323209Y0003151407D01*
X0001326959Y0003155157D01*
X0001332583Y0003157032D01*
X0001336332Y0003157032D01*
X0001341957Y0003155157D01*
X0001343831Y0003153282D01*
X0001381327Y0003117662D02*
X0001358830Y0003117662D01*
X0001370078Y0003117662D02*
X0001370078Y0003157032D01*
X0001366329Y0003151407D01*
X0001362579Y0003147658D01*
X0001358830Y0003145783D01*
M02*