%
M48
METRIC,000.000
T10C0.40
%
T10
X007009Y083190
X007510Y068975
X007627Y071013
X007659Y086879
X007841Y072951
X007887Y072066
X008532Y070028
X008849Y088889
X008895Y077929
X008943Y074635
X009265Y082001
X009483Y067351
X009776Y086869
X010463Y078576
X010795Y071624
X010795Y067510
X011264Y078585
X011298Y072824
X011625Y076114
X012786Y079334
X013165Y087103
X013180Y082763
X013764Y066910
X013855Y079899
X014008Y087166
X014016Y073327
X014066Y082335
X014191Y090178
X014463Y088978
X014564Y066927
X014614Y077768
X014734Y083643
X015094Y076382
X015325Y073637
X015346Y086232
X016024Y090094
X016381Y069557
X016682Y084132
X017032Y073040
X017073Y074010
X017129Y088825
X017753Y089345
X018052Y083421
X018062Y073958
X018271Y075726
X018705Y075020
X018726Y073111
X018877Y066518
X018895Y076227
X018949Y088540
X018991Y069554
X019702Y089304
X019894Y081664
X020044Y085368
X020645Y084468
X020830Y082072
X021097Y086947
X021721Y090036
X021726Y068164
X021729Y082551
X022478Y089777
X023830Y076978
X023881Y070164
X024698Y068055
X024889Y088226
X025298Y073894
X025948Y077739
X027583Y085363
X028455Y088826
X029006Y082557
X029241Y088979
X029735Y083968
X030336Y088400
X030336Y083320
X031346Y088238
X038009Y083190
X038510Y068975
X038627Y071013
X038660Y086879
X038841Y072951
X038887Y072066
X039532Y070028
X039849Y088889
X039895Y077929
X039943Y074635
X040265Y082001
X040483Y067351
X040776Y086869
X041464Y078576
X041795Y071624
X041795Y067510
X042264Y078585
X042298Y072824
X042625Y076114
X043786Y079334
X044166Y087103
X044180Y082763
X044764Y066910
X044855Y079899
X045008Y087166
X045016Y073327
X045066Y082335
X045191Y090178
X045464Y088978
X045565Y066927
X045614Y077768
X045734Y083643
X046095Y076382
X046325Y073637
X046346Y086232
X047025Y090094
X047381Y069557
X047682Y084132
X048032Y073040
X048073Y074010
X048129Y088825
X048753Y089345
X049053Y083421
X049062Y073958
X049271Y075726
X049705Y075020
X049726Y073111
X049877Y066518
X049895Y076227
X049949Y088540
X049991Y069554
X050702Y089304
X050894Y081664
X051044Y085368
X051645Y084468
X051830Y082072
X052097Y086947
X052721Y090036
X052726Y068164
X052729Y082551
X053478Y089777
X054830Y076978
X054881Y070164
X055698Y068055
X055889Y088226
X056298Y073894
X056948Y077739
X058583Y085363
X059455Y088826
X060006Y082557
X060241Y088979
X060735Y083968
X061336Y088400
X061336Y083320
X062346Y088238
X068009Y083190
X068511Y068975
X068627Y071013
X068660Y086879
X068841Y072951
X068887Y072066
X069532Y070028
X069850Y088889
X069895Y077929
X069943Y074635
X070265Y082001
X070483Y067351
X070776Y086869
X071464Y078576
X071795Y071624
X071795Y067510
X072264Y078585
X072298Y072824
X072625Y076114
X073786Y079334
X074166Y087103
X074180Y082763
X074764Y066910
X074856Y079899
X075008Y087166
X075017Y073327
X075066Y082335
X075191Y090178
X075464Y088978
X075565Y066927
X075614Y077768
X075734Y083643
X076095Y076382
X076326Y073637
X076346Y086232
X077025Y090094
X077381Y069557
X077683Y084132
X078032Y073040
X078073Y074010
X078130Y088825
X078753Y089345
X079053Y083421
X079062Y073958
X079271Y075726
X079705Y075020
X079726Y073111
X079877Y066518
X079895Y076227
X079949Y088540
X079991Y069554
X080702Y089304
X080894Y081664
X081044Y085368
X081645Y084468
X081830Y082072
X082097Y086947
X082721Y090036
X082726Y068164
X082729Y082551
X083478Y089777
X084830Y076978
X084881Y070164
X085698Y068055
X085889Y088226
X086298Y073894
X086948Y077739
X088583Y085363
X089455Y088826
X090006Y082557
X090241Y088979
X090735Y083968
X091336Y088400
X091336Y083320
X092346Y088238
X007009Y054190
X007510Y039974
X007627Y042013
X007659Y057879
X007841Y043950
X007887Y043066
X008532Y041028
X008849Y059888
X008895Y048929
X008943Y045635
X009265Y053001
X009483Y038351
X009776Y057869
X010463Y049575
X010795Y042623
X010795Y038510
X011264Y049584
X011298Y043824
X011625Y047114
X012786Y050334
X013165Y058102
X013180Y053763
X013764Y037910
X013855Y050899
X014008Y058166
X014016Y044327
X014066Y053334
X014191Y061178
X014463Y059977
X014564Y037927
X014614Y048768
X014734Y054643
X015094Y047382
X015325Y044637
X015346Y057232
X016024Y061093
X016381Y040557
X016682Y055132
X017032Y044040
X017073Y045010
X017129Y059825
X017753Y060345
X018052Y054421
X018062Y044958
X018271Y046726
X018705Y046019
X018726Y044111
X018877Y037518
X018895Y047227
X018949Y059540
X018991Y040554
X019702Y060304
X019894Y052664
X020044Y056367
X020645Y055468
X020830Y053072
X021097Y057947
X021721Y061036
X021726Y039164
X021729Y053551
X022478Y060777
X023830Y047977
X023881Y041164
X024698Y039055
X024889Y059226
X025298Y044894
X025948Y048739
X027583Y056363
X028455Y059825
X029006Y053557
X029241Y059979
X029735Y054968
X030336Y059400
X030336Y054319
X031346Y059238
X007009Y024189
X007510Y009974
X007627Y012013
X007659Y027879
X007841Y013950
X007887Y013066
X008532Y011028
X008849Y029888
X008895Y018929
X008943Y015635
X009265Y023001
X009483Y008351
X009776Y027869
X010463Y019575
X010795Y012623
X010795Y008510
X011264Y019584
X011298Y013823
X011625Y017114
X012786Y020334
X013165Y028102
X013180Y023763
X013764Y007909
X013855Y020899
X014008Y028165
X014016Y014326
X014066Y023334
X014191Y031177
X014463Y029977
X014564Y007927
X014614Y018768
X014734Y024643
X015094Y017382
X015325Y014637
X015346Y027232
X016024Y031093
X016381Y010557
X016682Y025132
X017032Y014040
X017073Y015010
X017129Y029825
X017753Y030345
X018052Y024421
X018062Y014957
X018271Y016726
X018705Y016018
X018726Y014111
X018877Y007518
X018895Y017227
X018949Y029540
X018991Y010554
X019702Y030304
X019894Y022664
X020044Y026367
X020645Y025468
X020830Y023072
X021097Y027947
X021721Y031036
X021726Y009164
X021729Y023551
X022478Y030777
X023830Y017977
X023881Y011164
X024698Y009055
X024889Y029226
X025298Y014894
X025948Y018739
X027583Y026363
X028455Y029825
X029006Y023557
X029241Y029979
X029735Y024968
X030336Y029400
X030336Y024319
X031346Y029238
X038009Y054190
X038510Y039974
X038627Y042013
X038660Y057879
X038841Y043950
X038887Y043066
X039532Y041028
X039849Y059888
X039895Y048929
X039943Y045635
X040265Y053001
X040483Y038351
X040776Y057869
X041464Y049575
X041795Y042623
X041795Y038510
X042264Y049584
X042298Y043824
X042625Y047114
X043786Y050334
X044166Y058102
X044180Y053763
X044764Y037910
X044855Y050899
X045008Y058166
X045016Y044327
X045066Y053334
X045191Y061178
X045464Y059977
X045565Y037927
X045614Y048768
X045734Y054643
X046095Y047382
X046325Y044637
X046346Y057232
X047025Y061093
X047381Y040557
X047682Y055132
X048032Y044040
X048073Y045010
X048129Y059825
X048753Y060345
X049053Y054421
X049062Y044958
X049271Y046726
X049705Y046019
X049726Y044111
X049877Y037518
X049895Y047227
X049949Y059540
X049991Y040554
X050702Y060304
X050894Y052664
X051044Y056367
X051645Y055468
X051830Y053072
X052097Y057947
X052721Y061036
X052726Y039164
X052729Y053551
X053478Y060777
X054830Y047977
X054881Y041164
X055698Y039055
X055889Y059226
X056298Y044894
X056948Y048739
X058583Y056363
X059455Y059825
X060006Y053557
X060241Y059979
X060735Y054968
X061336Y059400
X061336Y054319
X062346Y059238
X038009Y024189
X038510Y009974
X038627Y012013
X038660Y027879
X038841Y013950
X038887Y013066
X039532Y011028
X039849Y029888
X039895Y018929
X039943Y015635
X040265Y023001
X040483Y008351
X040776Y027869
X041464Y019575
X041795Y012623
X041795Y008510
X042264Y019584
X042298Y013823
X042625Y017114
X043786Y020334
X044166Y028102
X044180Y023763
X044764Y007909
X044855Y020899
X045008Y028165
X045016Y014326
X045066Y023334
X045191Y031177
X045464Y029977
X045565Y007927
X045614Y018768
X045734Y024643
X046095Y017382
X046325Y014637
X046346Y027232
X047025Y031093
X047381Y010557
X047682Y025132
X048032Y014040
X048073Y015010
X048129Y029825
X048753Y030345
X049053Y024421
X049062Y014957
X049271Y016726
X049705Y016018
X049726Y014111
X049877Y007518
X049895Y017227
X049949Y029540
X049991Y010554
X050702Y030304
X050894Y022664
X051044Y026367
X051645Y025468
X051830Y023072
X052097Y027947
X052721Y031036
X052726Y009164
X052729Y023551
X053478Y030777
X054830Y017977
X054881Y011164
X055698Y009055
X055889Y029226
X056298Y014894
X056948Y018739
X058583Y026363
X059455Y029825
X060006Y023557
X060241Y029979
X060735Y024968
X061336Y029400
X061336Y024319
X062346Y029238
X068009Y054190
X068511Y039974
X068627Y042013
X068660Y057879
X068841Y043950
X068887Y043066
X069532Y041028
X069850Y059888
X069895Y048929
X069943Y045635
X070265Y053001
X070483Y038351
X070776Y057869
X071464Y049575
X071795Y042623
X071795Y038510
X072264Y049584
X072298Y043824
X072625Y047114
X073786Y050334
X074166Y058102
X074180Y053763
X074764Y037910
X074856Y050899
X075008Y058166
X075017Y044327
X075066Y053334
X075191Y061178
X075464Y059977
X075565Y037927
X075614Y048768
X075734Y054643
X076095Y047382
X076326Y044637
X076346Y057232
X077025Y061093
X077381Y040557
X077683Y055132
X078032Y044040
X078073Y045010
X078130Y059825
X078753Y060345
X079053Y054421
X079062Y044958
X079271Y046726
X079705Y046019
X079726Y044111
X079877Y037518
X079895Y047227
X079949Y059540
X079991Y040554
X080702Y060304
X080894Y052664
X081044Y056367
X081645Y055468
X081830Y053072
X082097Y057947
X082721Y061036
X082726Y039164
X082729Y053551
X083478Y060777
X084830Y047977
X084881Y041164
X085698Y039055
X085889Y059226
X086298Y044894
X086948Y048739
X088583Y056363
X089455Y059825
X090006Y053557
X090241Y059979
X090735Y054968
X091336Y059400
X091336Y054319
X092346Y059238
X068009Y024189
X068511Y009974
X068627Y012013
X068660Y027879
X068841Y013950
X068887Y013066
X069532Y011028
X069850Y029888
X069895Y018929
X069943Y015635
X070265Y023001
X070483Y008351
X070776Y027869
X071464Y019575
X071795Y012623
X071795Y008510
X072264Y019584
X072298Y013823
X072625Y017114
X073786Y020334
X074166Y028102
X074180Y023763
X074764Y007909
X074856Y020899
X075008Y028165
X075017Y014326
X075066Y023334
X075191Y031177
X075464Y029977
X075565Y007927
X075614Y018768
X075734Y024643
X076095Y017382
X076326Y014637
X076346Y027232
X077025Y031093
X077381Y010557
X077683Y025132
X078032Y014040
X078073Y015010
X078130Y029825
X078753Y030345
X079053Y024421
X079062Y014957
X079271Y016726
X079705Y016018
X079726Y014111
X079877Y007518
X079895Y017227
X079949Y029540
X079991Y010554
X080702Y030304
X080894Y022664
X081044Y026367
X081645Y025468
X081830Y023072
X082097Y027947
X082721Y031036
X082726Y009164
X082729Y023551
X083478Y030777
X084830Y017977
X084881Y011164
X085698Y009055
X085889Y029226
X086298Y014894
X086948Y018739
X088583Y026363
X089455Y029825
X090006Y023557
X090241Y029979
X090735Y024968
X091336Y029400
X091336Y024319
X092346Y029238
M30