%MOIN*%
%OFA0B0*%
%FSLAX46Y46*%
%IPPOS*%
%LPD*%
%ADD10R,0.047244094488188976X0.01968503937007874*%
%ADD11R,0.01968503937007874X0.047244094488188976*%
%ADD12R,0.015748031496062995X0.043307086614173235*%
%ADD13R,0.031496062992125991X0.01968503937007874*%
%ADD14R,0.031496062992125991X0.015748031496062995*%
%ADD15R,0.01968503937007874X0.072834645669291348*%
%ADD26R,0.047244094488188976X0.01968503937007874*%
%ADD27R,0.01968503937007874X0.047244094488188976*%
%ADD28R,0.015748031496062995X0.043307086614173235*%
%ADD29R,0.031496062992125991X0.01968503937007874*%
%ADD30R,0.031496062992125991X0.015748031496062995*%
%ADD31R,0.01968503937007874X0.072834645669291348*%
%ADD32R,0.047244094488188976X0.01968503937007874*%
%ADD33R,0.01968503937007874X0.047244094488188976*%
%ADD34R,0.015748031496062995X0.043307086614173235*%
%ADD35R,0.031496062992125991X0.01968503937007874*%
%ADD36R,0.031496062992125991X0.015748031496062995*%
%ADD37R,0.01968503937007874X0.072834645669291348*%
%ADD38R,0.047244094488188976X0.01968503937007874*%
%ADD39R,0.01968503937007874X0.047244094488188976*%
%ADD40R,0.015748031496062995X0.043307086614173235*%
%ADD41R,0.031496062992125991X0.01968503937007874*%
%ADD42R,0.031496062992125991X0.015748031496062995*%
%ADD43R,0.01968503937007874X0.072834645669291348*%
%ADD44R,0.047244094488188976X0.01968503937007874*%
%ADD45R,0.01968503937007874X0.047244094488188976*%
%ADD46R,0.015748031496062995X0.043307086614173235*%
%ADD47R,0.031496062992125991X0.01968503937007874*%
%ADD48R,0.031496062992125991X0.015748031496062995*%
%ADD49R,0.01968503937007874X0.072834645669291348*%
%ADD50R,0.047244094488188976X0.01968503937007874*%
%ADD51R,0.01968503937007874X0.047244094488188976*%
%ADD52R,0.015748031496062995X0.043307086614173235*%
%ADD53R,0.031496062992125991X0.01968503937007874*%
%ADD54R,0.031496062992125991X0.015748031496062995*%
%ADD55R,0.01968503937007874X0.072834645669291348*%
%ADD56R,0.047244094488188976X0.01968503937007874*%
%ADD57R,0.01968503937007874X0.047244094488188976*%
%ADD58R,0.015748031496062995X0.043307086614173235*%
%ADD59R,0.031496062992125991X0.01968503937007874*%
%ADD60R,0.031496062992125991X0.015748031496062995*%
%ADD61R,0.01968503937007874X0.072834645669291348*%
%ADD62R,0.047244094488188976X0.01968503937007874*%
%ADD63R,0.01968503937007874X0.047244094488188976*%
%ADD64R,0.015748031496062995X0.043307086614173235*%
%ADD65R,0.031496062992125991X0.01968503937007874*%
%ADD66R,0.031496062992125991X0.015748031496062995*%
%ADD67R,0.01968503937007874X0.072834645669291348*%
%ADD68R,0.047244094488188976X0.01968503937007874*%
%ADD69R,0.01968503937007874X0.047244094488188976*%
%ADD70R,0.015748031496062995X0.043307086614173235*%
%ADD71R,0.031496062992125991X0.01968503937007874*%
%ADD72R,0.031496062992125991X0.015748031496062995*%
%ADD73R,0.01968503937007874X0.072834645669291348*%
D10*
X-0005196850Y0006889763D02*
X0000799566Y0002852440D03*
X0000799566Y0002881968D03*
X0000799566Y0002911496D03*
X0000799566Y0002941023D03*
X0000799566Y0002970551D03*
X0000799566Y0003000078D03*
X0000799566Y0003029606D03*
X0000799566Y0003059133D03*
X0000799566Y0003088661D03*
X0000799566Y0003118188D03*
X0000799566Y0003147716D03*
X0000799566Y0003177244D03*
D11*
X0000844842Y0003194960D03*
X0000874370Y0003194960D03*
X0000903897Y0003194960D03*
X0000933425Y0003194960D03*
X0000962952Y0003194960D03*
X0000992480Y0003194960D03*
X0001022007Y0003194960D03*
X0001051535Y0003194960D03*
X0001081062Y0003194960D03*
X0001110590Y0003194960D03*
X0001140118Y0003194960D03*
D10*
X0001185393Y0003177244D03*
X0001185393Y0003147716D03*
X0001185393Y0003118188D03*
X0001185393Y0003088661D03*
X0001185393Y0003059133D03*
X0001185393Y0003029606D03*
X0001185393Y0003000078D03*
X0001185393Y0002970551D03*
X0001185393Y0002941023D03*
X0001185393Y0002911496D03*
X0001185393Y0002881968D03*
X0001185393Y0002852440D03*
X0001185393Y0002822913D03*
X0001185393Y0002793385D03*
X0001185393Y0002763858D03*
X0001185393Y0002734330D03*
D12*
X0000378818Y0002962992D03*
X0000404409Y0002962992D03*
X0000429999Y0002962992D03*
X0000455590Y0002962992D03*
X0000481181Y0002962992D03*
X0000506771Y0002962992D03*
X0000532362Y0002962992D03*
X0000557952Y0002962992D03*
X0000583543Y0002962992D03*
X0000609133Y0002962992D03*
X0000634724Y0002962992D03*
X0000660314Y0002962992D03*
X0000660314Y0003187401D03*
X0000634724Y0003187401D03*
X0000609133Y0003187401D03*
X0000583543Y0003187401D03*
X0000557952Y0003187401D03*
X0000532362Y0003187401D03*
X0000506771Y0003187401D03*
X0000481181Y0003187401D03*
X0000455590Y0003187401D03*
X0000429999Y0003187401D03*
X0000404409Y0003187401D03*
X0000378818Y0003187401D03*
D13*
X0000567598Y0002759921D03*
D14*
X0000567598Y0002696929D03*
X0000567598Y0002728425D03*
D13*
X0000567598Y0002665433D03*
D14*
X0000496732Y0002728425D03*
D13*
X0000496732Y0002759921D03*
D14*
X0000496732Y0002696929D03*
D13*
X0000496732Y0002665433D03*
D15*
X0000652401Y0002695944D03*
X0000652401Y0002816023D03*
X0000691771Y0002695944D03*
X0000691771Y0002816023D03*
X0000411929Y0002816023D03*
X0000411929Y0002695944D03*
X0000372559Y0002816023D03*
X0000372559Y0002695944D03*
X0001131023Y0003436771D03*
X0001131023Y0003316692D03*
X0001091653Y0003436771D03*
X0001091653Y0003316692D03*
X0000894894Y0003436771D03*
X0000894894Y0003316692D03*
X0000855524Y0003436771D03*
X0000855524Y0003316692D03*
X0000619396Y0003316692D03*
X0000619396Y0003436771D03*
X0000658766Y0003316692D03*
X0000658766Y0003436771D03*
X0000422637Y0003436771D03*
X0000422637Y0003316692D03*
X0000383267Y0003436771D03*
X0000383267Y0003316692D03*
G04 next file*
G04 #@! TF.GenerationSoftware,KiCad,Pcbnew,(5.1.2)-1*
G04 #@! TF.CreationDate,2019-11-14T17:32:28+05:30*
G04 #@! TF.ProjectId,Frame,4672616d-652e-46b6-9963-61645f706362,rev?*
G04 #@! TF.SameCoordinates,Original*
G04 #@! TF.FileFunction,Paste,Bot*
G04 #@! TF.FilePolarity,Positive*
G04 Gerber Fmt 4.6, Leading zero omitted, Abs format (unit mm)*
G04 Created by KiCad (PCBNEW (5.1.2)-1) date 2019-11-14 17:32:28*
G04 APERTURE LIST*
G04 APERTURE END LIST*
G04 next file*
G04 #@! TF.GenerationSoftware,KiCad,Pcbnew,(5.1.2)-1*
G04 #@! TF.CreationDate,2019-11-08T13:50:46+05:30*
G04 #@! TF.ProjectId,TALK,54414c4b-2e6b-4696-9361-645f70636258,rev?*
G04 #@! TF.SameCoordinates,Original*
G04 #@! TF.FileFunction,Paste,Bot*
G04 #@! TF.FilePolarity,Positive*
G04 Gerber Fmt 4.6, Leading zero omitted, Abs format (unit mm)*
G04 Created by KiCad (PCBNEW (5.1.2)-1) date 2019-11-08 13:50:46*
G04 APERTURE LIST*
G04 APERTURE END LIST*
D26*
X-0003976377Y0006889763D02*
X0002020039Y0002852440D03*
X0002020039Y0002881968D03*
X0002020039Y0002911496D03*
X0002020039Y0002941023D03*
X0002020039Y0002970551D03*
X0002020039Y0003000078D03*
X0002020039Y0003029606D03*
X0002020039Y0003059133D03*
X0002020039Y0003088661D03*
X0002020039Y0003118188D03*
X0002020039Y0003147716D03*
X0002020039Y0003177244D03*
D27*
X0002065314Y0003194960D03*
X0002094842Y0003194960D03*
X0002124370Y0003194960D03*
X0002153897Y0003194960D03*
X0002183425Y0003194960D03*
X0002212952Y0003194960D03*
X0002242480Y0003194960D03*
X0002272007Y0003194960D03*
X0002301535Y0003194960D03*
X0002331062Y0003194960D03*
X0002360590Y0003194960D03*
D26*
X0002405866Y0003177244D03*
X0002405866Y0003147716D03*
X0002405866Y0003118188D03*
X0002405866Y0003088661D03*
X0002405866Y0003059133D03*
X0002405866Y0003029606D03*
X0002405866Y0003000078D03*
X0002405866Y0002970551D03*
X0002405866Y0002941023D03*
X0002405866Y0002911496D03*
X0002405866Y0002881968D03*
X0002405866Y0002852440D03*
X0002405866Y0002822913D03*
X0002405866Y0002793385D03*
X0002405866Y0002763858D03*
X0002405866Y0002734330D03*
D28*
X0001599291Y0002962992D03*
X0001624881Y0002962992D03*
X0001650472Y0002962992D03*
X0001676062Y0002962992D03*
X0001701653Y0002962992D03*
X0001727244Y0002962992D03*
X0001752834Y0002962992D03*
X0001778425Y0002962992D03*
X0001804015Y0002962992D03*
X0001829606Y0002962992D03*
X0001855196Y0002962992D03*
X0001880787Y0002962992D03*
X0001880787Y0003187401D03*
X0001855196Y0003187401D03*
X0001829606Y0003187401D03*
X0001804015Y0003187401D03*
X0001778425Y0003187401D03*
X0001752834Y0003187401D03*
X0001727244Y0003187401D03*
X0001701653Y0003187401D03*
X0001676062Y0003187401D03*
X0001650472Y0003187401D03*
X0001624881Y0003187401D03*
X0001599291Y0003187401D03*
D29*
X0001788070Y0002759921D03*
D30*
X0001788070Y0002696929D03*
X0001788070Y0002728425D03*
D29*
X0001788070Y0002665433D03*
D30*
X0001717204Y0002728425D03*
D29*
X0001717204Y0002759921D03*
D30*
X0001717204Y0002696929D03*
D29*
X0001717204Y0002665433D03*
D31*
X0001872874Y0002695944D03*
X0001872874Y0002816023D03*
X0001912244Y0002695944D03*
X0001912244Y0002816023D03*
X0001632401Y0002816023D03*
X0001632401Y0002695944D03*
X0001593031Y0002816023D03*
X0001593031Y0002695944D03*
X0002351496Y0003436771D03*
X0002351496Y0003316692D03*
X0002312125Y0003436771D03*
X0002312125Y0003316692D03*
X0002115367Y0003436771D03*
X0002115367Y0003316692D03*
X0002075997Y0003436771D03*
X0002075997Y0003316692D03*
X0001839868Y0003316692D03*
X0001839868Y0003436771D03*
X0001879238Y0003316692D03*
X0001879238Y0003436771D03*
X0001643110Y0003436771D03*
X0001643110Y0003316692D03*
X0001603740Y0003436771D03*
X0001603740Y0003316692D03*
G04 next file*
G04 #@! TF.GenerationSoftware,KiCad,Pcbnew,(5.1.2)-1*
G04 #@! TF.CreationDate,2019-11-08T13:50:46+05:30*
G04 #@! TF.ProjectId,TALK,54414c4b-2e6b-4696-9361-645f70636258,rev?*
G04 #@! TF.SameCoordinates,Original*
G04 #@! TF.FileFunction,Paste,Bot*
G04 #@! TF.FilePolarity,Positive*
G04 Gerber Fmt 4.6, Leading zero omitted, Abs format (unit mm)*
G04 Created by KiCad (PCBNEW (5.1.2)-1) date 2019-11-08 13:50:46*
G04 APERTURE LIST*
G04 APERTURE END LIST*
D32*
X-0002795275Y0006889763D02*
X0003201141Y0002852440D03*
X0003201141Y0002881968D03*
X0003201141Y0002911496D03*
X0003201141Y0002941023D03*
X0003201141Y0002970551D03*
X0003201141Y0003000078D03*
X0003201141Y0003029606D03*
X0003201141Y0003059133D03*
X0003201141Y0003088661D03*
X0003201141Y0003118188D03*
X0003201141Y0003147716D03*
X0003201141Y0003177244D03*
D33*
X0003246417Y0003194960D03*
X0003275944Y0003194960D03*
X0003305472Y0003194960D03*
X0003335000Y0003194960D03*
X0003364527Y0003194960D03*
X0003394055Y0003194960D03*
X0003423582Y0003194960D03*
X0003453110Y0003194960D03*
X0003482637Y0003194960D03*
X0003512165Y0003194960D03*
X0003541692Y0003194960D03*
D32*
X0003586968Y0003177244D03*
X0003586968Y0003147716D03*
X0003586968Y0003118188D03*
X0003586968Y0003088661D03*
X0003586968Y0003059133D03*
X0003586968Y0003029606D03*
X0003586968Y0003000078D03*
X0003586968Y0002970551D03*
X0003586968Y0002941023D03*
X0003586968Y0002911496D03*
X0003586968Y0002881968D03*
X0003586968Y0002852440D03*
X0003586968Y0002822913D03*
X0003586968Y0002793385D03*
X0003586968Y0002763858D03*
X0003586968Y0002734330D03*
D34*
X0002780393Y0002962992D03*
X0002805984Y0002962992D03*
X0002831574Y0002962992D03*
X0002857165Y0002962992D03*
X0002882755Y0002962992D03*
X0002908346Y0002962992D03*
X0002933936Y0002962992D03*
X0002959527Y0002962992D03*
X0002985118Y0002962992D03*
X0003010708Y0002962992D03*
X0003036299Y0002962992D03*
X0003061889Y0002962992D03*
X0003061889Y0003187401D03*
X0003036299Y0003187401D03*
X0003010708Y0003187401D03*
X0002985118Y0003187401D03*
X0002959527Y0003187401D03*
X0002933936Y0003187401D03*
X0002908346Y0003187401D03*
X0002882755Y0003187401D03*
X0002857165Y0003187401D03*
X0002831574Y0003187401D03*
X0002805984Y0003187401D03*
X0002780393Y0003187401D03*
D35*
X0002969173Y0002759921D03*
D36*
X0002969173Y0002696929D03*
X0002969173Y0002728425D03*
D35*
X0002969173Y0002665433D03*
D36*
X0002898307Y0002728425D03*
D35*
X0002898307Y0002759921D03*
D36*
X0002898307Y0002696929D03*
D35*
X0002898307Y0002665433D03*
D37*
X0003053976Y0002695944D03*
X0003053976Y0002816023D03*
X0003093346Y0002695944D03*
X0003093346Y0002816023D03*
X0002813503Y0002816023D03*
X0002813503Y0002695944D03*
X0002774133Y0002816023D03*
X0002774133Y0002695944D03*
X0003532598Y0003436771D03*
X0003532598Y0003316692D03*
X0003493228Y0003436771D03*
X0003493228Y0003316692D03*
X0003296469Y0003436771D03*
X0003296469Y0003316692D03*
X0003257099Y0003436771D03*
X0003257099Y0003316692D03*
X0003020971Y0003316692D03*
X0003020971Y0003436771D03*
X0003060341Y0003316692D03*
X0003060341Y0003436771D03*
X0002824212Y0003436771D03*
X0002824212Y0003316692D03*
X0002784842Y0003436771D03*
X0002784842Y0003316692D03*
G04 next file*
G04 #@! TF.GenerationSoftware,KiCad,Pcbnew,(5.1.2)-1*
G04 #@! TF.CreationDate,2019-11-08T13:50:46+05:30*
G04 #@! TF.ProjectId,TALK,54414c4b-2e6b-4696-9361-645f70636258,rev?*
G04 #@! TF.SameCoordinates,Original*
G04 #@! TF.FileFunction,Paste,Bot*
G04 #@! TF.FilePolarity,Positive*
G04 Gerber Fmt 4.6, Leading zero omitted, Abs format (unit mm)*
G04 Created by KiCad (PCBNEW (5.1.2)-1) date 2019-11-08 13:50:46*
G04 APERTURE LIST*
G04 APERTURE END LIST*
D38*
X-0005196850Y0005748031D02*
X0000799566Y0001710708D03*
X0000799566Y0001740236D03*
X0000799566Y0001769763D03*
X0000799566Y0001799291D03*
X0000799566Y0001828818D03*
X0000799566Y0001858346D03*
X0000799566Y0001887874D03*
X0000799566Y0001917401D03*
X0000799566Y0001946929D03*
X0000799566Y0001976456D03*
X0000799566Y0002005984D03*
X0000799566Y0002035511D03*
D39*
X0000844842Y0002053228D03*
X0000874370Y0002053228D03*
X0000903897Y0002053228D03*
X0000933425Y0002053228D03*
X0000962952Y0002053228D03*
X0000992480Y0002053228D03*
X0001022007Y0002053228D03*
X0001051535Y0002053228D03*
X0001081062Y0002053228D03*
X0001110590Y0002053228D03*
X0001140118Y0002053228D03*
D38*
X0001185393Y0002035511D03*
X0001185393Y0002005984D03*
X0001185393Y0001976456D03*
X0001185393Y0001946929D03*
X0001185393Y0001917401D03*
X0001185393Y0001887874D03*
X0001185393Y0001858346D03*
X0001185393Y0001828818D03*
X0001185393Y0001799291D03*
X0001185393Y0001769763D03*
X0001185393Y0001740236D03*
X0001185393Y0001710708D03*
X0001185393Y0001681181D03*
X0001185393Y0001651653D03*
X0001185393Y0001622125D03*
X0001185393Y0001592598D03*
D40*
X0000378818Y0001821259D03*
X0000404409Y0001821259D03*
X0000429999Y0001821259D03*
X0000455590Y0001821259D03*
X0000481181Y0001821259D03*
X0000506771Y0001821259D03*
X0000532362Y0001821259D03*
X0000557952Y0001821259D03*
X0000583543Y0001821259D03*
X0000609133Y0001821259D03*
X0000634724Y0001821259D03*
X0000660314Y0001821259D03*
X0000660314Y0002045669D03*
X0000634724Y0002045669D03*
X0000609133Y0002045669D03*
X0000583543Y0002045669D03*
X0000557952Y0002045669D03*
X0000532362Y0002045669D03*
X0000506771Y0002045669D03*
X0000481181Y0002045669D03*
X0000455590Y0002045669D03*
X0000429999Y0002045669D03*
X0000404409Y0002045669D03*
X0000378818Y0002045669D03*
D41*
X0000567598Y0001618188D03*
D42*
X0000567598Y0001555196D03*
X0000567598Y0001586692D03*
D41*
X0000567598Y0001523700D03*
D42*
X0000496732Y0001586692D03*
D41*
X0000496732Y0001618188D03*
D42*
X0000496732Y0001555196D03*
D41*
X0000496732Y0001523700D03*
D43*
X0000652401Y0001554212D03*
X0000652401Y0001674291D03*
X0000691771Y0001554212D03*
X0000691771Y0001674291D03*
X0000411929Y0001674291D03*
X0000411929Y0001554212D03*
X0000372559Y0001674291D03*
X0000372559Y0001554212D03*
X0001131023Y0002295039D03*
X0001131023Y0002174960D03*
X0001091653Y0002295039D03*
X0001091653Y0002174960D03*
X0000894894Y0002295039D03*
X0000894894Y0002174960D03*
X0000855524Y0002295039D03*
X0000855524Y0002174960D03*
X0000619396Y0002174960D03*
X0000619396Y0002295039D03*
X0000658766Y0002174960D03*
X0000658766Y0002295039D03*
X0000422637Y0002295039D03*
X0000422637Y0002174960D03*
X0000383267Y0002295039D03*
X0000383267Y0002174960D03*
G04 next file*
G04 #@! TF.GenerationSoftware,KiCad,Pcbnew,(5.1.2)-1*
G04 #@! TF.CreationDate,2019-11-08T13:50:46+05:30*
G04 #@! TF.ProjectId,TALK,54414c4b-2e6b-4696-9361-645f70636258,rev?*
G04 #@! TF.SameCoordinates,Original*
G04 #@! TF.FileFunction,Paste,Bot*
G04 #@! TF.FilePolarity,Positive*
G04 Gerber Fmt 4.6, Leading zero omitted, Abs format (unit mm)*
G04 Created by KiCad (PCBNEW (5.1.2)-1) date 2019-11-08 13:50:46*
G04 APERTURE LIST*
G04 APERTURE END LIST*
D44*
X-0005196850Y0004566929D02*
X0000799566Y0000529606D03*
X0000799566Y0000559133D03*
X0000799566Y0000588661D03*
X0000799566Y0000618188D03*
X0000799566Y0000647716D03*
X0000799566Y0000677244D03*
X0000799566Y0000706771D03*
X0000799566Y0000736299D03*
X0000799566Y0000765826D03*
X0000799566Y0000795354D03*
X0000799566Y0000824881D03*
X0000799566Y0000854409D03*
D45*
X0000844842Y0000872125D03*
X0000874370Y0000872125D03*
X0000903897Y0000872125D03*
X0000933425Y0000872125D03*
X0000962952Y0000872125D03*
X0000992480Y0000872125D03*
X0001022007Y0000872125D03*
X0001051535Y0000872125D03*
X0001081062Y0000872125D03*
X0001110590Y0000872125D03*
X0001140118Y0000872125D03*
D44*
X0001185393Y0000854409D03*
X0001185393Y0000824881D03*
X0001185393Y0000795354D03*
X0001185393Y0000765826D03*
X0001185393Y0000736299D03*
X0001185393Y0000706771D03*
X0001185393Y0000677244D03*
X0001185393Y0000647716D03*
X0001185393Y0000618188D03*
X0001185393Y0000588661D03*
X0001185393Y0000559133D03*
X0001185393Y0000529606D03*
X0001185393Y0000500078D03*
X0001185393Y0000470551D03*
X0001185393Y0000441023D03*
X0001185393Y0000411496D03*
D46*
X0000378818Y0000640157D03*
X0000404409Y0000640157D03*
X0000429999Y0000640157D03*
X0000455590Y0000640157D03*
X0000481181Y0000640157D03*
X0000506771Y0000640157D03*
X0000532362Y0000640157D03*
X0000557952Y0000640157D03*
X0000583543Y0000640157D03*
X0000609133Y0000640157D03*
X0000634724Y0000640157D03*
X0000660314Y0000640157D03*
X0000660314Y0000864566D03*
X0000634724Y0000864566D03*
X0000609133Y0000864566D03*
X0000583543Y0000864566D03*
X0000557952Y0000864566D03*
X0000532362Y0000864566D03*
X0000506771Y0000864566D03*
X0000481181Y0000864566D03*
X0000455590Y0000864566D03*
X0000429999Y0000864566D03*
X0000404409Y0000864566D03*
X0000378818Y0000864566D03*
D47*
X0000567598Y0000437086D03*
D48*
X0000567598Y0000374094D03*
X0000567598Y0000405590D03*
D47*
X0000567598Y0000342598D03*
D48*
X0000496732Y0000405590D03*
D47*
X0000496732Y0000437086D03*
D48*
X0000496732Y0000374094D03*
D47*
X0000496732Y0000342598D03*
D49*
X0000652401Y0000373110D03*
X0000652401Y0000493188D03*
X0000691771Y0000373110D03*
X0000691771Y0000493188D03*
X0000411929Y0000493188D03*
X0000411929Y0000373110D03*
X0000372559Y0000493188D03*
X0000372559Y0000373110D03*
X0001131023Y0001113936D03*
X0001131023Y0000993858D03*
X0001091653Y0001113936D03*
X0001091653Y0000993858D03*
X0000894894Y0001113936D03*
X0000894894Y0000993858D03*
X0000855524Y0001113936D03*
X0000855524Y0000993858D03*
X0000619396Y0000993858D03*
X0000619396Y0001113936D03*
X0000658766Y0000993858D03*
X0000658766Y0001113936D03*
X0000422637Y0001113936D03*
X0000422637Y0000993858D03*
X0000383267Y0001113936D03*
X0000383267Y0000993858D03*
G04 next file*
G04 #@! TF.GenerationSoftware,KiCad,Pcbnew,(5.1.2)-1*
G04 #@! TF.CreationDate,2019-11-08T13:50:46+05:30*
G04 #@! TF.ProjectId,TALK,54414c4b-2e6b-4696-9361-645f70636258,rev?*
G04 #@! TF.SameCoordinates,Original*
G04 #@! TF.FileFunction,Paste,Bot*
G04 #@! TF.FilePolarity,Positive*
G04 Gerber Fmt 4.6, Leading zero omitted, Abs format (unit mm)*
G04 Created by KiCad (PCBNEW (5.1.2)-1) date 2019-11-08 13:50:46*
G04 APERTURE LIST*
G04 APERTURE END LIST*
D50*
X-0003976377Y0005748031D02*
X0002020039Y0001710708D03*
X0002020039Y0001740236D03*
X0002020039Y0001769763D03*
X0002020039Y0001799291D03*
X0002020039Y0001828818D03*
X0002020039Y0001858346D03*
X0002020039Y0001887874D03*
X0002020039Y0001917401D03*
X0002020039Y0001946929D03*
X0002020039Y0001976456D03*
X0002020039Y0002005984D03*
X0002020039Y0002035511D03*
D51*
X0002065314Y0002053228D03*
X0002094842Y0002053228D03*
X0002124370Y0002053228D03*
X0002153897Y0002053228D03*
X0002183425Y0002053228D03*
X0002212952Y0002053228D03*
X0002242480Y0002053228D03*
X0002272007Y0002053228D03*
X0002301535Y0002053228D03*
X0002331062Y0002053228D03*
X0002360590Y0002053228D03*
D50*
X0002405866Y0002035511D03*
X0002405866Y0002005984D03*
X0002405866Y0001976456D03*
X0002405866Y0001946929D03*
X0002405866Y0001917401D03*
X0002405866Y0001887874D03*
X0002405866Y0001858346D03*
X0002405866Y0001828818D03*
X0002405866Y0001799291D03*
X0002405866Y0001769763D03*
X0002405866Y0001740236D03*
X0002405866Y0001710708D03*
X0002405866Y0001681181D03*
X0002405866Y0001651653D03*
X0002405866Y0001622125D03*
X0002405866Y0001592598D03*
D52*
X0001599291Y0001821259D03*
X0001624881Y0001821259D03*
X0001650472Y0001821259D03*
X0001676062Y0001821259D03*
X0001701653Y0001821259D03*
X0001727244Y0001821259D03*
X0001752834Y0001821259D03*
X0001778425Y0001821259D03*
X0001804015Y0001821259D03*
X0001829606Y0001821259D03*
X0001855196Y0001821259D03*
X0001880787Y0001821259D03*
X0001880787Y0002045669D03*
X0001855196Y0002045669D03*
X0001829606Y0002045669D03*
X0001804015Y0002045669D03*
X0001778425Y0002045669D03*
X0001752834Y0002045669D03*
X0001727244Y0002045669D03*
X0001701653Y0002045669D03*
X0001676062Y0002045669D03*
X0001650472Y0002045669D03*
X0001624881Y0002045669D03*
X0001599291Y0002045669D03*
D53*
X0001788070Y0001618188D03*
D54*
X0001788070Y0001555196D03*
X0001788070Y0001586692D03*
D53*
X0001788070Y0001523700D03*
D54*
X0001717204Y0001586692D03*
D53*
X0001717204Y0001618188D03*
D54*
X0001717204Y0001555196D03*
D53*
X0001717204Y0001523700D03*
D55*
X0001872874Y0001554212D03*
X0001872874Y0001674291D03*
X0001912244Y0001554212D03*
X0001912244Y0001674291D03*
X0001632401Y0001674291D03*
X0001632401Y0001554212D03*
X0001593031Y0001674291D03*
X0001593031Y0001554212D03*
X0002351496Y0002295039D03*
X0002351496Y0002174960D03*
X0002312125Y0002295039D03*
X0002312125Y0002174960D03*
X0002115367Y0002295039D03*
X0002115367Y0002174960D03*
X0002075997Y0002295039D03*
X0002075997Y0002174960D03*
X0001839868Y0002174960D03*
X0001839868Y0002295039D03*
X0001879238Y0002174960D03*
X0001879238Y0002295039D03*
X0001643110Y0002295039D03*
X0001643110Y0002174960D03*
X0001603740Y0002295039D03*
X0001603740Y0002174960D03*
G04 next file*
G04 #@! TF.GenerationSoftware,KiCad,Pcbnew,(5.1.2)-1*
G04 #@! TF.CreationDate,2019-11-08T13:50:46+05:30*
G04 #@! TF.ProjectId,TALK,54414c4b-2e6b-4696-9361-645f70636258,rev?*
G04 #@! TF.SameCoordinates,Original*
G04 #@! TF.FileFunction,Paste,Bot*
G04 #@! TF.FilePolarity,Positive*
G04 Gerber Fmt 4.6, Leading zero omitted, Abs format (unit mm)*
G04 Created by KiCad (PCBNEW (5.1.2)-1) date 2019-11-08 13:50:46*
G04 APERTURE LIST*
G04 APERTURE END LIST*
D56*
X-0003976377Y0004566929D02*
X0002020039Y0000529606D03*
X0002020039Y0000559133D03*
X0002020039Y0000588661D03*
X0002020039Y0000618188D03*
X0002020039Y0000647716D03*
X0002020039Y0000677244D03*
X0002020039Y0000706771D03*
X0002020039Y0000736299D03*
X0002020039Y0000765826D03*
X0002020039Y0000795354D03*
X0002020039Y0000824881D03*
X0002020039Y0000854409D03*
D57*
X0002065314Y0000872125D03*
X0002094842Y0000872125D03*
X0002124370Y0000872125D03*
X0002153897Y0000872125D03*
X0002183425Y0000872125D03*
X0002212952Y0000872125D03*
X0002242480Y0000872125D03*
X0002272007Y0000872125D03*
X0002301535Y0000872125D03*
X0002331062Y0000872125D03*
X0002360590Y0000872125D03*
D56*
X0002405866Y0000854409D03*
X0002405866Y0000824881D03*
X0002405866Y0000795354D03*
X0002405866Y0000765826D03*
X0002405866Y0000736299D03*
X0002405866Y0000706771D03*
X0002405866Y0000677244D03*
X0002405866Y0000647716D03*
X0002405866Y0000618188D03*
X0002405866Y0000588661D03*
X0002405866Y0000559133D03*
X0002405866Y0000529606D03*
X0002405866Y0000500078D03*
X0002405866Y0000470551D03*
X0002405866Y0000441023D03*
X0002405866Y0000411496D03*
D58*
X0001599291Y0000640157D03*
X0001624881Y0000640157D03*
X0001650472Y0000640157D03*
X0001676062Y0000640157D03*
X0001701653Y0000640157D03*
X0001727244Y0000640157D03*
X0001752834Y0000640157D03*
X0001778425Y0000640157D03*
X0001804015Y0000640157D03*
X0001829606Y0000640157D03*
X0001855196Y0000640157D03*
X0001880787Y0000640157D03*
X0001880787Y0000864566D03*
X0001855196Y0000864566D03*
X0001829606Y0000864566D03*
X0001804015Y0000864566D03*
X0001778425Y0000864566D03*
X0001752834Y0000864566D03*
X0001727244Y0000864566D03*
X0001701653Y0000864566D03*
X0001676062Y0000864566D03*
X0001650472Y0000864566D03*
X0001624881Y0000864566D03*
X0001599291Y0000864566D03*
D59*
X0001788070Y0000437086D03*
D60*
X0001788070Y0000374094D03*
X0001788070Y0000405590D03*
D59*
X0001788070Y0000342598D03*
D60*
X0001717204Y0000405590D03*
D59*
X0001717204Y0000437086D03*
D60*
X0001717204Y0000374094D03*
D59*
X0001717204Y0000342598D03*
D61*
X0001872874Y0000373110D03*
X0001872874Y0000493188D03*
X0001912244Y0000373110D03*
X0001912244Y0000493188D03*
X0001632401Y0000493188D03*
X0001632401Y0000373110D03*
X0001593031Y0000493188D03*
X0001593031Y0000373110D03*
X0002351496Y0001113936D03*
X0002351496Y0000993858D03*
X0002312125Y0001113936D03*
X0002312125Y0000993858D03*
X0002115367Y0001113936D03*
X0002115367Y0000993858D03*
X0002075997Y0001113936D03*
X0002075997Y0000993858D03*
X0001839868Y0000993858D03*
X0001839868Y0001113936D03*
X0001879238Y0000993858D03*
X0001879238Y0001113936D03*
X0001643110Y0001113936D03*
X0001643110Y0000993858D03*
X0001603740Y0001113936D03*
X0001603740Y0000993858D03*
G04 next file*
G04 #@! TF.GenerationSoftware,KiCad,Pcbnew,(5.1.2)-1*
G04 #@! TF.CreationDate,2019-11-08T13:50:46+05:30*
G04 #@! TF.ProjectId,TALK,54414c4b-2e6b-4696-9361-645f70636258,rev?*
G04 #@! TF.SameCoordinates,Original*
G04 #@! TF.FileFunction,Paste,Bot*
G04 #@! TF.FilePolarity,Positive*
G04 Gerber Fmt 4.6, Leading zero omitted, Abs format (unit mm)*
G04 Created by KiCad (PCBNEW (5.1.2)-1) date 2019-11-08 13:50:46*
G04 APERTURE LIST*
G04 APERTURE END LIST*
D62*
X-0002795275Y0005748031D02*
X0003201141Y0001710708D03*
X0003201141Y0001740236D03*
X0003201141Y0001769763D03*
X0003201141Y0001799291D03*
X0003201141Y0001828818D03*
X0003201141Y0001858346D03*
X0003201141Y0001887874D03*
X0003201141Y0001917401D03*
X0003201141Y0001946929D03*
X0003201141Y0001976456D03*
X0003201141Y0002005984D03*
X0003201141Y0002035511D03*
D63*
X0003246417Y0002053228D03*
X0003275944Y0002053228D03*
X0003305472Y0002053228D03*
X0003335000Y0002053228D03*
X0003364527Y0002053228D03*
X0003394055Y0002053228D03*
X0003423582Y0002053228D03*
X0003453110Y0002053228D03*
X0003482637Y0002053228D03*
X0003512165Y0002053228D03*
X0003541692Y0002053228D03*
D62*
X0003586968Y0002035511D03*
X0003586968Y0002005984D03*
X0003586968Y0001976456D03*
X0003586968Y0001946929D03*
X0003586968Y0001917401D03*
X0003586968Y0001887874D03*
X0003586968Y0001858346D03*
X0003586968Y0001828818D03*
X0003586968Y0001799291D03*
X0003586968Y0001769763D03*
X0003586968Y0001740236D03*
X0003586968Y0001710708D03*
X0003586968Y0001681181D03*
X0003586968Y0001651653D03*
X0003586968Y0001622125D03*
X0003586968Y0001592598D03*
D64*
X0002780393Y0001821259D03*
X0002805984Y0001821259D03*
X0002831574Y0001821259D03*
X0002857165Y0001821259D03*
X0002882755Y0001821259D03*
X0002908346Y0001821259D03*
X0002933936Y0001821259D03*
X0002959527Y0001821259D03*
X0002985118Y0001821259D03*
X0003010708Y0001821259D03*
X0003036299Y0001821259D03*
X0003061889Y0001821259D03*
X0003061889Y0002045669D03*
X0003036299Y0002045669D03*
X0003010708Y0002045669D03*
X0002985118Y0002045669D03*
X0002959527Y0002045669D03*
X0002933936Y0002045669D03*
X0002908346Y0002045669D03*
X0002882755Y0002045669D03*
X0002857165Y0002045669D03*
X0002831574Y0002045669D03*
X0002805984Y0002045669D03*
X0002780393Y0002045669D03*
D65*
X0002969173Y0001618188D03*
D66*
X0002969173Y0001555196D03*
X0002969173Y0001586692D03*
D65*
X0002969173Y0001523700D03*
D66*
X0002898307Y0001586692D03*
D65*
X0002898307Y0001618188D03*
D66*
X0002898307Y0001555196D03*
D65*
X0002898307Y0001523700D03*
D67*
X0003053976Y0001554212D03*
X0003053976Y0001674291D03*
X0003093346Y0001554212D03*
X0003093346Y0001674291D03*
X0002813503Y0001674291D03*
X0002813503Y0001554212D03*
X0002774133Y0001674291D03*
X0002774133Y0001554212D03*
X0003532598Y0002295039D03*
X0003532598Y0002174960D03*
X0003493228Y0002295039D03*
X0003493228Y0002174960D03*
X0003296469Y0002295039D03*
X0003296469Y0002174960D03*
X0003257099Y0002295039D03*
X0003257099Y0002174960D03*
X0003020971Y0002174960D03*
X0003020971Y0002295039D03*
X0003060341Y0002174960D03*
X0003060341Y0002295039D03*
X0002824212Y0002295039D03*
X0002824212Y0002174960D03*
X0002784842Y0002295039D03*
X0002784842Y0002174960D03*
G04 next file*
G04 #@! TF.GenerationSoftware,KiCad,Pcbnew,(5.1.2)-1*
G04 #@! TF.CreationDate,2019-11-08T13:50:46+05:30*
G04 #@! TF.ProjectId,TALK,54414c4b-2e6b-4696-9361-645f70636258,rev?*
G04 #@! TF.SameCoordinates,Original*
G04 #@! TF.FileFunction,Paste,Bot*
G04 #@! TF.FilePolarity,Positive*
G04 Gerber Fmt 4.6, Leading zero omitted, Abs format (unit mm)*
G04 Created by KiCad (PCBNEW (5.1.2)-1) date 2019-11-08 13:50:46*
G04 APERTURE LIST*
G04 APERTURE END LIST*
D68*
X-0002795275Y0004566929D02*
X0003201141Y0000529606D03*
X0003201141Y0000559133D03*
X0003201141Y0000588661D03*
X0003201141Y0000618188D03*
X0003201141Y0000647716D03*
X0003201141Y0000677244D03*
X0003201141Y0000706771D03*
X0003201141Y0000736299D03*
X0003201141Y0000765826D03*
X0003201141Y0000795354D03*
X0003201141Y0000824881D03*
X0003201141Y0000854409D03*
D69*
X0003246417Y0000872125D03*
X0003275944Y0000872125D03*
X0003305472Y0000872125D03*
X0003335000Y0000872125D03*
X0003364527Y0000872125D03*
X0003394055Y0000872125D03*
X0003423582Y0000872125D03*
X0003453110Y0000872125D03*
X0003482637Y0000872125D03*
X0003512165Y0000872125D03*
X0003541692Y0000872125D03*
D68*
X0003586968Y0000854409D03*
X0003586968Y0000824881D03*
X0003586968Y0000795354D03*
X0003586968Y0000765826D03*
X0003586968Y0000736299D03*
X0003586968Y0000706771D03*
X0003586968Y0000677244D03*
X0003586968Y0000647716D03*
X0003586968Y0000618188D03*
X0003586968Y0000588661D03*
X0003586968Y0000559133D03*
X0003586968Y0000529606D03*
X0003586968Y0000500078D03*
X0003586968Y0000470551D03*
X0003586968Y0000441023D03*
X0003586968Y0000411496D03*
D70*
X0002780393Y0000640157D03*
X0002805984Y0000640157D03*
X0002831574Y0000640157D03*
X0002857165Y0000640157D03*
X0002882755Y0000640157D03*
X0002908346Y0000640157D03*
X0002933936Y0000640157D03*
X0002959527Y0000640157D03*
X0002985118Y0000640157D03*
X0003010708Y0000640157D03*
X0003036299Y0000640157D03*
X0003061889Y0000640157D03*
X0003061889Y0000864566D03*
X0003036299Y0000864566D03*
X0003010708Y0000864566D03*
X0002985118Y0000864566D03*
X0002959527Y0000864566D03*
X0002933936Y0000864566D03*
X0002908346Y0000864566D03*
X0002882755Y0000864566D03*
X0002857165Y0000864566D03*
X0002831574Y0000864566D03*
X0002805984Y0000864566D03*
X0002780393Y0000864566D03*
D71*
X0002969173Y0000437086D03*
D72*
X0002969173Y0000374094D03*
X0002969173Y0000405590D03*
D71*
X0002969173Y0000342598D03*
D72*
X0002898307Y0000405590D03*
D71*
X0002898307Y0000437086D03*
D72*
X0002898307Y0000374094D03*
D71*
X0002898307Y0000342598D03*
D73*
X0003053976Y0000373110D03*
X0003053976Y0000493188D03*
X0003093346Y0000373110D03*
X0003093346Y0000493188D03*
X0002813503Y0000493188D03*
X0002813503Y0000373110D03*
X0002774133Y0000493188D03*
X0002774133Y0000373110D03*
X0003532598Y0001113936D03*
X0003532598Y0000993858D03*
X0003493228Y0001113936D03*
X0003493228Y0000993858D03*
X0003296469Y0001113936D03*
X0003296469Y0000993858D03*
X0003257099Y0001113936D03*
X0003257099Y0000993858D03*
X0003020971Y0000993858D03*
X0003020971Y0001113936D03*
X0003060341Y0000993858D03*
X0003060341Y0001113936D03*
X0002824212Y0001113936D03*
X0002824212Y0000993858D03*
X0002784842Y0001113936D03*
X0002784842Y0000993858D03*
M02*