%
M48
METRIC,000.000
T01C0.50
%
T01
X033138Y086663
X033138Y087663
X033138Y088663
X033138Y089663
X033138Y090663
X036927Y091010
X036927Y090010
X036927Y089010
X036927Y088010
X036927Y087010
X033138Y073663
X033138Y074663
X033138Y075663
X033138Y076663
X033138Y077663
X036927Y078010
X036927Y077010
X036927Y076010
X036927Y075010
X036927Y074010
X064138Y086663
X064138Y087663
X064138Y088663
X064138Y089663
X064138Y090663
X067927Y091010
X067927Y090010
X067927Y089010
X067927Y088010
X067927Y087010
X064138Y074663
X064138Y075663
X064138Y076663
X064138Y077663
X064138Y078663
X067927Y079010
X067927Y078010
X067927Y077010
X067927Y076010
X067927Y075010
X033138Y049663
X033138Y050663
X033138Y051663
X033138Y052663
X033138Y053663
X036927Y053010
X036927Y052010
X036927Y051010
X036927Y050010
X064138Y050663
X064138Y051663
X064138Y052663
X064138Y053663
X067927Y054010
X067927Y053010
X067927Y052010
X067927Y051010
X067927Y050010
X079365Y068049
X080365Y068049
X081365Y068049
X082365Y068049
X083365Y068049
X083707Y064630
X082707Y064630
X081707Y064630
X080707Y064630
X079707Y064630
X048365Y068049
X049365Y068049
X050365Y068049
X051365Y068049
X051707Y064630
X050707Y064630
X049707Y064630
X048707Y064630
X047707Y064630
X016365Y068049
X017365Y068049
X018365Y068049
X019365Y068049
X019707Y064630
X018707Y064630
X017707Y064630
X016707Y064630
X015707Y064630
X017365Y038048
X018365Y038048
X019365Y038048
X020365Y038048
X021365Y038048
X020707Y034630
X019707Y034630
X018707Y034630
X017707Y034630
X033138Y024663
X033138Y025663
X033138Y026663
X033138Y027663
X033138Y028663
X036927Y029010
X036927Y028010
X036927Y027010
X036927Y026010
X036927Y025010
X033138Y013663
X033138Y014663
X033138Y015663
X033138Y016663
X033138Y017663
X036927Y018010
X036927Y017010
X036927Y016010
X036927Y015010
X036927Y014010
X047365Y038048
X048365Y038048
X049365Y038048
X050365Y038048
X051365Y038048
X052365Y038048
X051707Y034630
X050707Y034630
X049707Y034630
X048707Y034630
X047707Y034630
X064138Y025663
X064138Y026663
X064138Y027663
X064138Y028663
X064138Y029663
X067927Y030010
X067927Y029010
X067927Y028010
X067927Y027010
X067927Y026010
X079365Y038048
X080365Y038048
X081365Y038048
X082365Y038048
X082707Y034630
X081707Y034630
X080707Y034630
X079707Y034630
X078707Y034630
X064138Y012663
X064138Y013663
X064138Y014663
X064138Y015663
X064138Y016663
X067927Y017010
X067927Y016010
X067927Y015010
X067927Y014010
X067927Y013010
M30