%
M48
METRIC,000.000
T10C0.40
%
T10
X007009Y086190
X007510Y071975
X007627Y074013
X007659Y089879
X007841Y075951
X007887Y075066
X008532Y073028
X008849Y091889
X008895Y080929
X008943Y077635
X009265Y085001
X009483Y070351
X009776Y089869
X010463Y081576
X010795Y074624
X010795Y070510
X011264Y081585
X011298Y075824
X011625Y079114
X012786Y082334
X013165Y090103
X013180Y085763
X013764Y069910
X013855Y082899
X014008Y090166
X014016Y076327
X014066Y085335
X014191Y093178
X014463Y091978
X014564Y069927
X014614Y080768
X014734Y086643
X015094Y079382
X015325Y076637
X015346Y089232
X016024Y093094
X016381Y072557
X016682Y087132
X017032Y076040
X017073Y077010
X017129Y091825
X017753Y092345
X018052Y086421
X018062Y076958
X018271Y078726
X018705Y078020
X018726Y076111
X018877Y069518
X018895Y079227
X018949Y091540
X018991Y072554
X019702Y092304
X019894Y084664
X020044Y088368
X020645Y087468
X020830Y085072
X021097Y089947
X021721Y093036
X021726Y071164
X021729Y085551
X022478Y092777
X023830Y079978
X023881Y073164
X024698Y071055
X024889Y091226
X025298Y076894
X025948Y080739
X027583Y088363
X028455Y091826
X029006Y085557
X029241Y091979
X029735Y086968
X030336Y091400
X030336Y086320
X031346Y091238
X038009Y086190
X038510Y071975
X038627Y074013
X038660Y089879
X038841Y075951
X038887Y075066
X039532Y073028
X039849Y091889
X039895Y080929
X039943Y077635
X040265Y085001
X040483Y070351
X040776Y089869
X041464Y081576
X041795Y074624
X041795Y070510
X042264Y081585
X042298Y075824
X042625Y079114
X043786Y082334
X044166Y090103
X044180Y085763
X044764Y069910
X044855Y082899
X045008Y090166
X045016Y076327
X045066Y085335
X045191Y093178
X045464Y091978
X045565Y069927
X045614Y080768
X045734Y086643
X046095Y079382
X046325Y076637
X046346Y089232
X047025Y093094
X047381Y072557
X047682Y087132
X048032Y076040
X048073Y077010
X048129Y091825
X048753Y092345
X049053Y086421
X049062Y076958
X049271Y078726
X049705Y078020
X049726Y076111
X049877Y069518
X049895Y079227
X049949Y091540
X049991Y072554
X050702Y092304
X050894Y084664
X051044Y088368
X051645Y087468
X051830Y085072
X052097Y089947
X052721Y093036
X052726Y071164
X052729Y085551
X053478Y092777
X054830Y079978
X054881Y073164
X055698Y071055
X055889Y091226
X056298Y076894
X056948Y080739
X058583Y088363
X059455Y091826
X060006Y085557
X060241Y091979
X060735Y086968
X061336Y091400
X061336Y086320
X062346Y091238
X069009Y086190
X069511Y071975
X069627Y074013
X069660Y089879
X069841Y075951
X069887Y075066
X070532Y073028
X070850Y091889
X070895Y080929
X070943Y077635
X071265Y085001
X071483Y070351
X071776Y089869
X072464Y081576
X072795Y074624
X072795Y070510
X073264Y081585
X073298Y075824
X073625Y079114
X074786Y082334
X075166Y090103
X075180Y085763
X075764Y069910
X075856Y082899
X076008Y090166
X076017Y076327
X076066Y085335
X076191Y093178
X076464Y091978
X076565Y069927
X076614Y080768
X076734Y086643
X077095Y079382
X077326Y076637
X077346Y089232
X078025Y093094
X078381Y072557
X078683Y087132
X079032Y076040
X079073Y077010
X079130Y091825
X079753Y092345
X080053Y086421
X080062Y076958
X080271Y078726
X080705Y078020
X080726Y076111
X080877Y069518
X080895Y079227
X080949Y091540
X080991Y072554
X081702Y092304
X081894Y084664
X082044Y088368
X082645Y087468
X082830Y085072
X083097Y089947
X083721Y093036
X083726Y071164
X083729Y085551
X084478Y092777
X085830Y079978
X085881Y073164
X086698Y071055
X086889Y091226
X087298Y076894
X087948Y080739
X089583Y088363
X090455Y091826
X091006Y085557
X091241Y091979
X091735Y086968
X092336Y091400
X092336Y086320
X093346Y091238
X007009Y056190
X007510Y041974
X007627Y044013
X007659Y059879
X007841Y045950
X007887Y045066
X008532Y043028
X008849Y061888
X008895Y050929
X008943Y047635
X009265Y055001
X009483Y040351
X009776Y059869
X010463Y051575
X010795Y044623
X010795Y040510
X011264Y051584
X011298Y045824
X011625Y049114
X012786Y052334
X013165Y060102
X013180Y055763
X013764Y039910
X013855Y052899
X014008Y060166
X014016Y046327
X014066Y055334
X014191Y063178
X014463Y061977
X014564Y039927
X014614Y050768
X014734Y056643
X015094Y049382
X015325Y046637
X015346Y059232
X016024Y063093
X016381Y042557
X016682Y057132
X017032Y046040
X017073Y047010
X017129Y061825
X017753Y062345
X018052Y056421
X018062Y046958
X018271Y048726
X018705Y048019
X018726Y046111
X018877Y039518
X018895Y049227
X018949Y061540
X018991Y042554
X019702Y062304
X019894Y054664
X020044Y058367
X020645Y057468
X020830Y055072
X021097Y059947
X021721Y063036
X021726Y041164
X021729Y055551
X022478Y062777
X023830Y049977
X023881Y043164
X024698Y041055
X024889Y061226
X025298Y046894
X025948Y050739
X027583Y058363
X028455Y061825
X029006Y055557
X029241Y061979
X029735Y056968
X030336Y061400
X030336Y056319
X031346Y061238
X038009Y056190
X038510Y041974
X038627Y044013
X038660Y059879
X038841Y045950
X038887Y045066
X039532Y043028
X039849Y061888
X039895Y050929
X039943Y047635
X040265Y055001
X040483Y040351
X040776Y059869
X041464Y051575
X041795Y044623
X041795Y040510
X042264Y051584
X042298Y045824
X042625Y049114
X043786Y052334
X044166Y060102
X044180Y055763
X044764Y039910
X044855Y052899
X045008Y060166
X045016Y046327
X045066Y055334
X045191Y063178
X045464Y061977
X045565Y039927
X045614Y050768
X045734Y056643
X046095Y049382
X046325Y046637
X046346Y059232
X047025Y063093
X047381Y042557
X047682Y057132
X048032Y046040
X048073Y047010
X048129Y061825
X048753Y062345
X049053Y056421
X049062Y046958
X049271Y048726
X049705Y048019
X049726Y046111
X049877Y039518
X049895Y049227
X049949Y061540
X049991Y042554
X050702Y062304
X050894Y054664
X051044Y058367
X051645Y057468
X051830Y055072
X052097Y059947
X052721Y063036
X052726Y041164
X052729Y055551
X053478Y062777
X054830Y049977
X054881Y043164
X055698Y041055
X055889Y061226
X056298Y046894
X056948Y050739
X058583Y058363
X059455Y061825
X060006Y055557
X060241Y061979
X060735Y056968
X061336Y061400
X061336Y056319
X062346Y061238
X069009Y056190
X069511Y041974
X069627Y044013
X069660Y059879
X069841Y045950
X069887Y045066
X070532Y043028
X070850Y061888
X070895Y050929
X070943Y047635
X071265Y055001
X071483Y040351
X071776Y059869
X072464Y051575
X072795Y044623
X072795Y040510
X073264Y051584
X073298Y045824
X073625Y049114
X074786Y052334
X075166Y060102
X075180Y055763
X075764Y039910
X075856Y052899
X076008Y060166
X076017Y046327
X076066Y055334
X076191Y063178
X076464Y061977
X076565Y039927
X076614Y050768
X076734Y056643
X077095Y049382
X077326Y046637
X077346Y059232
X078025Y063093
X078381Y042557
X078683Y057132
X079032Y046040
X079073Y047010
X079130Y061825
X079753Y062345
X080053Y056421
X080062Y046958
X080271Y048726
X080705Y048019
X080726Y046111
X080877Y039518
X080895Y049227
X080949Y061540
X080991Y042554
X081702Y062304
X081894Y054664
X082044Y058367
X082645Y057468
X082830Y055072
X083097Y059947
X083721Y063036
X083726Y041164
X083729Y055551
X084478Y062777
X085830Y049977
X085881Y043164
X086698Y041055
X086889Y061226
X087298Y046894
X087948Y050739
X089583Y058363
X090455Y061825
X091006Y055557
X091241Y061979
X091735Y056968
X092336Y061400
X092336Y056319
X093346Y061238
X007009Y026189
X007510Y011974
X007627Y014013
X007659Y029879
X007841Y015950
X007887Y015066
X008532Y013028
X008849Y031888
X008895Y020929
X008943Y017635
X009265Y025001
X009483Y010351
X009776Y029869
X010463Y021575
X010795Y014623
X010795Y010510
X011264Y021584
X011298Y015823
X011625Y019114
X012786Y022334
X013165Y030102
X013180Y025763
X013764Y009909
X013855Y022899
X014008Y030165
X014016Y016326
X014066Y025334
X014191Y033178
X014463Y031977
X014564Y009927
X014614Y020768
X014734Y026643
X015094Y019382
X015325Y016637
X015346Y029232
X016024Y033093
X016381Y012557
X016682Y027132
X017032Y016040
X017073Y017010
X017129Y031825
X017753Y032345
X018052Y026421
X018062Y016958
X018271Y018726
X018705Y018019
X018726Y016111
X018877Y009518
X018895Y019227
X018949Y031540
X018991Y012554
X019702Y032304
X019894Y024664
X020044Y028367
X020645Y027468
X020830Y025072
X021097Y029947
X021721Y033036
X021726Y011164
X021729Y025551
X022478Y032777
X023830Y019977
X023881Y013164
X024698Y011055
X024889Y031226
X025298Y016894
X025948Y020739
X027583Y028363
X028455Y031825
X029006Y025557
X029241Y031979
X029735Y026968
X030336Y031400
X030336Y026319
X031346Y031238
X038009Y026189
X038510Y011974
X038627Y014013
X038660Y029879
X038841Y015950
X038887Y015066
X039532Y013028
X039849Y031888
X039895Y020929
X039943Y017635
X040265Y025001
X040483Y010351
X040776Y029869
X041464Y021575
X041795Y014623
X041795Y010510
X042264Y021584
X042298Y015823
X042625Y019114
X043786Y022334
X044166Y030102
X044180Y025763
X044764Y009909
X044855Y022899
X045008Y030165
X045016Y016326
X045066Y025334
X045191Y033178
X045464Y031977
X045565Y009927
X045614Y020768
X045734Y026643
X046095Y019382
X046325Y016637
X046346Y029232
X047025Y033093
X047381Y012557
X047682Y027132
X048032Y016040
X048073Y017010
X048129Y031825
X048753Y032345
X049053Y026421
X049062Y016958
X049271Y018726
X049705Y018019
X049726Y016111
X049877Y009518
X049895Y019227
X049949Y031540
X049991Y012554
X050702Y032304
X050894Y024664
X051044Y028367
X051645Y027468
X051830Y025072
X052097Y029947
X052721Y033036
X052726Y011164
X052729Y025551
X053478Y032777
X054830Y019977
X054881Y013164
X055698Y011055
X055889Y031226
X056298Y016894
X056948Y020739
X058583Y028363
X059455Y031825
X060006Y025557
X060241Y031979
X060735Y026968
X061336Y031400
X061336Y026319
X062346Y031238
X069009Y026189
X069511Y011974
X069627Y014013
X069660Y029879
X069841Y015950
X069887Y015066
X070532Y013028
X070850Y031888
X070895Y020929
X070943Y017635
X071265Y025001
X071483Y010351
X071776Y029869
X072464Y021575
X072795Y014623
X072795Y010510
X073264Y021584
X073298Y015823
X073625Y019114
X074786Y022334
X075166Y030102
X075180Y025763
X075764Y009909
X075856Y022899
X076008Y030165
X076017Y016326
X076066Y025334
X076191Y033178
X076464Y031977
X076565Y009927
X076614Y020768
X076734Y026643
X077095Y019382
X077326Y016637
X077346Y029232
X078025Y033093
X078381Y012557
X078683Y027132
X079032Y016040
X079073Y017010
X079130Y031825
X079753Y032345
X080053Y026421
X080062Y016958
X080271Y018726
X080705Y018019
X080726Y016111
X080877Y009518
X080895Y019227
X080949Y031540
X080991Y012554
X081702Y032304
X081894Y024664
X082044Y028367
X082645Y027468
X082830Y025072
X083097Y029947
X083721Y033036
X083726Y011164
X083729Y025551
X084478Y032777
X085830Y019977
X085881Y013164
X086698Y011055
X086889Y031226
X087298Y016894
X087948Y020739
X089583Y028363
X090455Y031825
X091006Y025557
X091241Y031979
X091735Y026968
X092336Y031400
X092336Y026319
X093346Y031238
M30