%MOIN*%
%OFA0B0*%
%FSLAX46Y46*%
%IPPOS*%
%LPD*%
%ADD10R,0.047244094488188976X0.01968503937007874*%
%ADD11R,0.01968503937007874X0.047244094488188976*%
%ADD12R,0.015748031496062995X0.043307086614173235*%
%ADD13R,0.031496062992125991X0.01968503937007874*%
%ADD14R,0.031496062992125991X0.015748031496062995*%
%ADD15R,0.01968503937007874X0.072834645669291348*%
%ADD26R,0.047244094488188976X0.01968503937007874*%
%ADD27R,0.01968503937007874X0.047244094488188976*%
%ADD28R,0.015748031496062995X0.043307086614173235*%
%ADD29R,0.031496062992125991X0.01968503937007874*%
%ADD30R,0.031496062992125991X0.015748031496062995*%
%ADD31R,0.01968503937007874X0.072834645669291348*%
%ADD32R,0.047244094488188976X0.01968503937007874*%
%ADD33R,0.01968503937007874X0.047244094488188976*%
%ADD34R,0.015748031496062995X0.043307086614173235*%
%ADD35R,0.031496062992125991X0.01968503937007874*%
%ADD36R,0.031496062992125991X0.015748031496062995*%
%ADD37R,0.01968503937007874X0.072834645669291348*%
%ADD38R,0.047244094488188976X0.01968503937007874*%
%ADD39R,0.01968503937007874X0.047244094488188976*%
%ADD40R,0.015748031496062995X0.043307086614173235*%
%ADD41R,0.031496062992125991X0.01968503937007874*%
%ADD42R,0.031496062992125991X0.015748031496062995*%
%ADD43R,0.01968503937007874X0.072834645669291348*%
%ADD44R,0.047244094488188976X0.01968503937007874*%
%ADD45R,0.01968503937007874X0.047244094488188976*%
%ADD46R,0.015748031496062995X0.043307086614173235*%
%ADD47R,0.031496062992125991X0.01968503937007874*%
%ADD48R,0.031496062992125991X0.015748031496062995*%
%ADD49R,0.01968503937007874X0.072834645669291348*%
%ADD50R,0.047244094488188976X0.01968503937007874*%
%ADD51R,0.01968503937007874X0.047244094488188976*%
%ADD52R,0.015748031496062995X0.043307086614173235*%
%ADD53R,0.031496062992125991X0.01968503937007874*%
%ADD54R,0.031496062992125991X0.015748031496062995*%
%ADD55R,0.01968503937007874X0.072834645669291348*%
%ADD56R,0.047244094488188976X0.01968503937007874*%
%ADD57R,0.01968503937007874X0.047244094488188976*%
%ADD58R,0.015748031496062995X0.043307086614173235*%
%ADD59R,0.031496062992125991X0.01968503937007874*%
%ADD60R,0.031496062992125991X0.015748031496062995*%
%ADD61R,0.01968503937007874X0.072834645669291348*%
%ADD62R,0.047244094488188976X0.01968503937007874*%
%ADD63R,0.01968503937007874X0.047244094488188976*%
%ADD64R,0.015748031496062995X0.043307086614173235*%
%ADD65R,0.031496062992125991X0.01968503937007874*%
%ADD66R,0.031496062992125991X0.015748031496062995*%
%ADD67R,0.01968503937007874X0.072834645669291348*%
%ADD68R,0.047244094488188976X0.01968503937007874*%
%ADD69R,0.01968503937007874X0.047244094488188976*%
%ADD70R,0.015748031496062995X0.043307086614173235*%
%ADD71R,0.031496062992125991X0.01968503937007874*%
%ADD72R,0.031496062992125991X0.015748031496062995*%
%ADD73R,0.01968503937007874X0.072834645669291348*%
D10*
X-0005196850Y0007007874D02*
X0000799566Y0002970551D03*
X0000799566Y0003000078D03*
X0000799566Y0003029606D03*
X0000799566Y0003059133D03*
X0000799566Y0003088661D03*
X0000799566Y0003118188D03*
X0000799566Y0003147716D03*
X0000799566Y0003177244D03*
X0000799566Y0003206771D03*
X0000799566Y0003236299D03*
X0000799566Y0003265826D03*
X0000799566Y0003295354D03*
D11*
X0000844842Y0003313070D03*
X0000874370Y0003313070D03*
X0000903897Y0003313070D03*
X0000933425Y0003313070D03*
X0000962952Y0003313070D03*
X0000992480Y0003313070D03*
X0001022007Y0003313070D03*
X0001051535Y0003313070D03*
X0001081062Y0003313070D03*
X0001110590Y0003313070D03*
X0001140118Y0003313070D03*
D10*
X0001185393Y0003295354D03*
X0001185393Y0003265826D03*
X0001185393Y0003236299D03*
X0001185393Y0003206771D03*
X0001185393Y0003177244D03*
X0001185393Y0003147716D03*
X0001185393Y0003118188D03*
X0001185393Y0003088661D03*
X0001185393Y0003059133D03*
X0001185393Y0003029606D03*
X0001185393Y0003000078D03*
X0001185393Y0002970551D03*
X0001185393Y0002941023D03*
X0001185393Y0002911496D03*
X0001185393Y0002881968D03*
X0001185393Y0002852440D03*
D12*
X0000378818Y0003081102D03*
X0000404409Y0003081102D03*
X0000429999Y0003081102D03*
X0000455590Y0003081102D03*
X0000481181Y0003081102D03*
X0000506771Y0003081102D03*
X0000532362Y0003081102D03*
X0000557952Y0003081102D03*
X0000583543Y0003081102D03*
X0000609133Y0003081102D03*
X0000634724Y0003081102D03*
X0000660314Y0003081102D03*
X0000660314Y0003305511D03*
X0000634724Y0003305511D03*
X0000609133Y0003305511D03*
X0000583543Y0003305511D03*
X0000557952Y0003305511D03*
X0000532362Y0003305511D03*
X0000506771Y0003305511D03*
X0000481181Y0003305511D03*
X0000455590Y0003305511D03*
X0000429999Y0003305511D03*
X0000404409Y0003305511D03*
X0000378818Y0003305511D03*
D13*
X0000567598Y0002878031D03*
D14*
X0000567598Y0002815039D03*
X0000567598Y0002846535D03*
D13*
X0000567598Y0002783543D03*
D14*
X0000496732Y0002846535D03*
D13*
X0000496732Y0002878031D03*
D14*
X0000496732Y0002815039D03*
D13*
X0000496732Y0002783543D03*
D15*
X0000652401Y0002814055D03*
X0000652401Y0002934133D03*
X0000691771Y0002814055D03*
X0000691771Y0002934133D03*
X0000411929Y0002934133D03*
X0000411929Y0002814055D03*
X0000372559Y0002934133D03*
X0000372559Y0002814055D03*
X0001131023Y0003554881D03*
X0001131023Y0003434803D03*
X0001091653Y0003554881D03*
X0001091653Y0003434803D03*
X0000894894Y0003554881D03*
X0000894894Y0003434803D03*
X0000855524Y0003554881D03*
X0000855524Y0003434803D03*
X0000619396Y0003434803D03*
X0000619396Y0003554881D03*
X0000658766Y0003434803D03*
X0000658766Y0003554881D03*
X0000422637Y0003554881D03*
X0000422637Y0003434803D03*
X0000383267Y0003554881D03*
X0000383267Y0003434803D03*
G04 next file*
G04 #@! TF.GenerationSoftware,KiCad,Pcbnew,(5.1.2)-1*
G04 #@! TF.CreationDate,2019-11-08T13:50:46+05:30*
G04 #@! TF.ProjectId,TALK,54414c4b-2e6b-4696-9361-645f70636258,rev?*
G04 #@! TF.SameCoordinates,Original*
G04 #@! TF.FileFunction,Paste,Bot*
G04 #@! TF.FilePolarity,Positive*
G04 Gerber Fmt 4.6, Leading zero omitted, Abs format (unit mm)*
G04 Created by KiCad (PCBNEW (5.1.2)-1) date 2019-11-08 13:50:46*
G04 APERTURE LIST*
G04 APERTURE END LIST*
D26*
X-0003976377Y0007007874D02*
X0002020039Y0002970551D03*
X0002020039Y0003000078D03*
X0002020039Y0003029606D03*
X0002020039Y0003059133D03*
X0002020039Y0003088661D03*
X0002020039Y0003118188D03*
X0002020039Y0003147716D03*
X0002020039Y0003177244D03*
X0002020039Y0003206771D03*
X0002020039Y0003236299D03*
X0002020039Y0003265826D03*
X0002020039Y0003295354D03*
D27*
X0002065314Y0003313070D03*
X0002094842Y0003313070D03*
X0002124370Y0003313070D03*
X0002153897Y0003313070D03*
X0002183425Y0003313070D03*
X0002212952Y0003313070D03*
X0002242480Y0003313070D03*
X0002272007Y0003313070D03*
X0002301535Y0003313070D03*
X0002331062Y0003313070D03*
X0002360590Y0003313070D03*
D26*
X0002405866Y0003295354D03*
X0002405866Y0003265826D03*
X0002405866Y0003236299D03*
X0002405866Y0003206771D03*
X0002405866Y0003177244D03*
X0002405866Y0003147716D03*
X0002405866Y0003118188D03*
X0002405866Y0003088661D03*
X0002405866Y0003059133D03*
X0002405866Y0003029606D03*
X0002405866Y0003000078D03*
X0002405866Y0002970551D03*
X0002405866Y0002941023D03*
X0002405866Y0002911496D03*
X0002405866Y0002881968D03*
X0002405866Y0002852440D03*
D28*
X0001599291Y0003081102D03*
X0001624881Y0003081102D03*
X0001650472Y0003081102D03*
X0001676062Y0003081102D03*
X0001701653Y0003081102D03*
X0001727244Y0003081102D03*
X0001752834Y0003081102D03*
X0001778425Y0003081102D03*
X0001804015Y0003081102D03*
X0001829606Y0003081102D03*
X0001855196Y0003081102D03*
X0001880787Y0003081102D03*
X0001880787Y0003305511D03*
X0001855196Y0003305511D03*
X0001829606Y0003305511D03*
X0001804015Y0003305511D03*
X0001778425Y0003305511D03*
X0001752834Y0003305511D03*
X0001727244Y0003305511D03*
X0001701653Y0003305511D03*
X0001676062Y0003305511D03*
X0001650472Y0003305511D03*
X0001624881Y0003305511D03*
X0001599291Y0003305511D03*
D29*
X0001788070Y0002878031D03*
D30*
X0001788070Y0002815039D03*
X0001788070Y0002846535D03*
D29*
X0001788070Y0002783543D03*
D30*
X0001717204Y0002846535D03*
D29*
X0001717204Y0002878031D03*
D30*
X0001717204Y0002815039D03*
D29*
X0001717204Y0002783543D03*
D31*
X0001872874Y0002814055D03*
X0001872874Y0002934133D03*
X0001912244Y0002814055D03*
X0001912244Y0002934133D03*
X0001632401Y0002934133D03*
X0001632401Y0002814055D03*
X0001593031Y0002934133D03*
X0001593031Y0002814055D03*
X0002351496Y0003554881D03*
X0002351496Y0003434803D03*
X0002312125Y0003554881D03*
X0002312125Y0003434803D03*
X0002115367Y0003554881D03*
X0002115367Y0003434803D03*
X0002075997Y0003554881D03*
X0002075997Y0003434803D03*
X0001839868Y0003434803D03*
X0001839868Y0003554881D03*
X0001879238Y0003434803D03*
X0001879238Y0003554881D03*
X0001643110Y0003554881D03*
X0001643110Y0003434803D03*
X0001603740Y0003554881D03*
X0001603740Y0003434803D03*
G04 next file*
G04 #@! TF.GenerationSoftware,KiCad,Pcbnew,(5.1.2)-1*
G04 #@! TF.CreationDate,2019-11-08T13:50:46+05:30*
G04 #@! TF.ProjectId,TALK,54414c4b-2e6b-4696-9361-645f70636258,rev?*
G04 #@! TF.SameCoordinates,Original*
G04 #@! TF.FileFunction,Paste,Bot*
G04 #@! TF.FilePolarity,Positive*
G04 Gerber Fmt 4.6, Leading zero omitted, Abs format (unit mm)*
G04 Created by KiCad (PCBNEW (5.1.2)-1) date 2019-11-08 13:50:46*
G04 APERTURE LIST*
G04 APERTURE END LIST*
D32*
X-0002755905Y0007007874D02*
X0003240511Y0002970551D03*
X0003240511Y0003000078D03*
X0003240511Y0003029606D03*
X0003240511Y0003059133D03*
X0003240511Y0003088661D03*
X0003240511Y0003118188D03*
X0003240511Y0003147716D03*
X0003240511Y0003177244D03*
X0003240511Y0003206771D03*
X0003240511Y0003236299D03*
X0003240511Y0003265826D03*
X0003240511Y0003295354D03*
D33*
X0003285787Y0003313070D03*
X0003315314Y0003313070D03*
X0003344842Y0003313070D03*
X0003374370Y0003313070D03*
X0003403897Y0003313070D03*
X0003433425Y0003313070D03*
X0003462952Y0003313070D03*
X0003492480Y0003313070D03*
X0003522007Y0003313070D03*
X0003551535Y0003313070D03*
X0003581062Y0003313070D03*
D32*
X0003626338Y0003295354D03*
X0003626338Y0003265826D03*
X0003626338Y0003236299D03*
X0003626338Y0003206771D03*
X0003626338Y0003177244D03*
X0003626338Y0003147716D03*
X0003626338Y0003118188D03*
X0003626338Y0003088661D03*
X0003626338Y0003059133D03*
X0003626338Y0003029606D03*
X0003626338Y0003000078D03*
X0003626338Y0002970551D03*
X0003626338Y0002941023D03*
X0003626338Y0002911496D03*
X0003626338Y0002881968D03*
X0003626338Y0002852440D03*
D34*
X0002819763Y0003081102D03*
X0002845354Y0003081102D03*
X0002870944Y0003081102D03*
X0002896535Y0003081102D03*
X0002922125Y0003081102D03*
X0002947716Y0003081102D03*
X0002973307Y0003081102D03*
X0002998897Y0003081102D03*
X0003024488Y0003081102D03*
X0003050078Y0003081102D03*
X0003075669Y0003081102D03*
X0003101259Y0003081102D03*
X0003101259Y0003305511D03*
X0003075669Y0003305511D03*
X0003050078Y0003305511D03*
X0003024488Y0003305511D03*
X0002998897Y0003305511D03*
X0002973307Y0003305511D03*
X0002947716Y0003305511D03*
X0002922125Y0003305511D03*
X0002896535Y0003305511D03*
X0002870944Y0003305511D03*
X0002845354Y0003305511D03*
X0002819763Y0003305511D03*
D35*
X0003008543Y0002878031D03*
D36*
X0003008543Y0002815039D03*
X0003008543Y0002846535D03*
D35*
X0003008543Y0002783543D03*
D36*
X0002937677Y0002846535D03*
D35*
X0002937677Y0002878031D03*
D36*
X0002937677Y0002815039D03*
D35*
X0002937677Y0002783543D03*
D37*
X0003093346Y0002814055D03*
X0003093346Y0002934133D03*
X0003132716Y0002814055D03*
X0003132716Y0002934133D03*
X0002852874Y0002934133D03*
X0002852874Y0002814055D03*
X0002813503Y0002934133D03*
X0002813503Y0002814055D03*
X0003571968Y0003554881D03*
X0003571968Y0003434803D03*
X0003532598Y0003554881D03*
X0003532598Y0003434803D03*
X0003335839Y0003554881D03*
X0003335839Y0003434803D03*
X0003296469Y0003554881D03*
X0003296469Y0003434803D03*
X0003060341Y0003434803D03*
X0003060341Y0003554881D03*
X0003099711Y0003434803D03*
X0003099711Y0003554881D03*
X0002863582Y0003554881D03*
X0002863582Y0003434803D03*
X0002824212Y0003554881D03*
X0002824212Y0003434803D03*
G04 next file*
G04 #@! TF.GenerationSoftware,KiCad,Pcbnew,(5.1.2)-1*
G04 #@! TF.CreationDate,2019-11-08T13:50:46+05:30*
G04 #@! TF.ProjectId,TALK,54414c4b-2e6b-4696-9361-645f70636258,rev?*
G04 #@! TF.SameCoordinates,Original*
G04 #@! TF.FileFunction,Paste,Bot*
G04 #@! TF.FilePolarity,Positive*
G04 Gerber Fmt 4.6, Leading zero omitted, Abs format (unit mm)*
G04 Created by KiCad (PCBNEW (5.1.2)-1) date 2019-11-08 13:50:46*
G04 APERTURE LIST*
G04 APERTURE END LIST*
D38*
X-0005196850Y0005826771D02*
X0000799566Y0001789448D03*
X0000799566Y0001818976D03*
X0000799566Y0001848503D03*
X0000799566Y0001878031D03*
X0000799566Y0001907559D03*
X0000799566Y0001937086D03*
X0000799566Y0001966614D03*
X0000799566Y0001996141D03*
X0000799566Y0002025669D03*
X0000799566Y0002055196D03*
X0000799566Y0002084724D03*
X0000799566Y0002114251D03*
D39*
X0000844842Y0002131968D03*
X0000874370Y0002131968D03*
X0000903897Y0002131968D03*
X0000933425Y0002131968D03*
X0000962952Y0002131968D03*
X0000992480Y0002131968D03*
X0001022007Y0002131968D03*
X0001051535Y0002131968D03*
X0001081062Y0002131968D03*
X0001110590Y0002131968D03*
X0001140118Y0002131968D03*
D38*
X0001185393Y0002114251D03*
X0001185393Y0002084724D03*
X0001185393Y0002055196D03*
X0001185393Y0002025669D03*
X0001185393Y0001996141D03*
X0001185393Y0001966614D03*
X0001185393Y0001937086D03*
X0001185393Y0001907559D03*
X0001185393Y0001878031D03*
X0001185393Y0001848503D03*
X0001185393Y0001818976D03*
X0001185393Y0001789448D03*
X0001185393Y0001759921D03*
X0001185393Y0001730393D03*
X0001185393Y0001700866D03*
X0001185393Y0001671338D03*
D40*
X0000378818Y0001900000D03*
X0000404409Y0001900000D03*
X0000429999Y0001900000D03*
X0000455590Y0001900000D03*
X0000481181Y0001900000D03*
X0000506771Y0001900000D03*
X0000532362Y0001900000D03*
X0000557952Y0001900000D03*
X0000583543Y0001900000D03*
X0000609133Y0001900000D03*
X0000634724Y0001900000D03*
X0000660314Y0001900000D03*
X0000660314Y0002124409D03*
X0000634724Y0002124409D03*
X0000609133Y0002124409D03*
X0000583543Y0002124409D03*
X0000557952Y0002124409D03*
X0000532362Y0002124409D03*
X0000506771Y0002124409D03*
X0000481181Y0002124409D03*
X0000455590Y0002124409D03*
X0000429999Y0002124409D03*
X0000404409Y0002124409D03*
X0000378818Y0002124409D03*
D41*
X0000567598Y0001696929D03*
D42*
X0000567598Y0001633936D03*
X0000567598Y0001665433D03*
D41*
X0000567598Y0001602440D03*
D42*
X0000496732Y0001665433D03*
D41*
X0000496732Y0001696929D03*
D42*
X0000496732Y0001633936D03*
D41*
X0000496732Y0001602440D03*
D43*
X0000652401Y0001632952D03*
X0000652401Y0001753031D03*
X0000691771Y0001632952D03*
X0000691771Y0001753031D03*
X0000411929Y0001753031D03*
X0000411929Y0001632952D03*
X0000372559Y0001753031D03*
X0000372559Y0001632952D03*
X0001131023Y0002373779D03*
X0001131023Y0002253700D03*
X0001091653Y0002373779D03*
X0001091653Y0002253700D03*
X0000894894Y0002373779D03*
X0000894894Y0002253700D03*
X0000855524Y0002373779D03*
X0000855524Y0002253700D03*
X0000619396Y0002253700D03*
X0000619396Y0002373779D03*
X0000658766Y0002253700D03*
X0000658766Y0002373779D03*
X0000422637Y0002373779D03*
X0000422637Y0002253700D03*
X0000383267Y0002373779D03*
X0000383267Y0002253700D03*
G04 next file*
G04 #@! TF.GenerationSoftware,KiCad,Pcbnew,(5.1.2)-1*
G04 #@! TF.CreationDate,2019-11-08T13:50:46+05:30*
G04 #@! TF.ProjectId,TALK,54414c4b-2e6b-4696-9361-645f70636258,rev?*
G04 #@! TF.SameCoordinates,Original*
G04 #@! TF.FileFunction,Paste,Bot*
G04 #@! TF.FilePolarity,Positive*
G04 Gerber Fmt 4.6, Leading zero omitted, Abs format (unit mm)*
G04 Created by KiCad (PCBNEW (5.1.2)-1) date 2019-11-08 13:50:46*
G04 APERTURE LIST*
G04 APERTURE END LIST*
D44*
X-0003976377Y0005826771D02*
X0002020039Y0001789448D03*
X0002020039Y0001818976D03*
X0002020039Y0001848503D03*
X0002020039Y0001878031D03*
X0002020039Y0001907559D03*
X0002020039Y0001937086D03*
X0002020039Y0001966614D03*
X0002020039Y0001996141D03*
X0002020039Y0002025669D03*
X0002020039Y0002055196D03*
X0002020039Y0002084724D03*
X0002020039Y0002114251D03*
D45*
X0002065314Y0002131968D03*
X0002094842Y0002131968D03*
X0002124370Y0002131968D03*
X0002153897Y0002131968D03*
X0002183425Y0002131968D03*
X0002212952Y0002131968D03*
X0002242480Y0002131968D03*
X0002272007Y0002131968D03*
X0002301535Y0002131968D03*
X0002331062Y0002131968D03*
X0002360590Y0002131968D03*
D44*
X0002405866Y0002114251D03*
X0002405866Y0002084724D03*
X0002405866Y0002055196D03*
X0002405866Y0002025669D03*
X0002405866Y0001996141D03*
X0002405866Y0001966614D03*
X0002405866Y0001937086D03*
X0002405866Y0001907559D03*
X0002405866Y0001878031D03*
X0002405866Y0001848503D03*
X0002405866Y0001818976D03*
X0002405866Y0001789448D03*
X0002405866Y0001759921D03*
X0002405866Y0001730393D03*
X0002405866Y0001700866D03*
X0002405866Y0001671338D03*
D46*
X0001599291Y0001900000D03*
X0001624881Y0001900000D03*
X0001650472Y0001900000D03*
X0001676062Y0001900000D03*
X0001701653Y0001900000D03*
X0001727244Y0001900000D03*
X0001752834Y0001900000D03*
X0001778425Y0001900000D03*
X0001804015Y0001900000D03*
X0001829606Y0001900000D03*
X0001855196Y0001900000D03*
X0001880787Y0001900000D03*
X0001880787Y0002124409D03*
X0001855196Y0002124409D03*
X0001829606Y0002124409D03*
X0001804015Y0002124409D03*
X0001778425Y0002124409D03*
X0001752834Y0002124409D03*
X0001727244Y0002124409D03*
X0001701653Y0002124409D03*
X0001676062Y0002124409D03*
X0001650472Y0002124409D03*
X0001624881Y0002124409D03*
X0001599291Y0002124409D03*
D47*
X0001788070Y0001696929D03*
D48*
X0001788070Y0001633936D03*
X0001788070Y0001665433D03*
D47*
X0001788070Y0001602440D03*
D48*
X0001717204Y0001665433D03*
D47*
X0001717204Y0001696929D03*
D48*
X0001717204Y0001633936D03*
D47*
X0001717204Y0001602440D03*
D49*
X0001872874Y0001632952D03*
X0001872874Y0001753031D03*
X0001912244Y0001632952D03*
X0001912244Y0001753031D03*
X0001632401Y0001753031D03*
X0001632401Y0001632952D03*
X0001593031Y0001753031D03*
X0001593031Y0001632952D03*
X0002351496Y0002373779D03*
X0002351496Y0002253700D03*
X0002312125Y0002373779D03*
X0002312125Y0002253700D03*
X0002115367Y0002373779D03*
X0002115367Y0002253700D03*
X0002075997Y0002373779D03*
X0002075997Y0002253700D03*
X0001839868Y0002253700D03*
X0001839868Y0002373779D03*
X0001879238Y0002253700D03*
X0001879238Y0002373779D03*
X0001643110Y0002373779D03*
X0001643110Y0002253700D03*
X0001603740Y0002373779D03*
X0001603740Y0002253700D03*
G04 next file*
G04 #@! TF.GenerationSoftware,KiCad,Pcbnew,(5.1.2)-1*
G04 #@! TF.CreationDate,2019-11-08T13:50:46+05:30*
G04 #@! TF.ProjectId,TALK,54414c4b-2e6b-4696-9361-645f70636258,rev?*
G04 #@! TF.SameCoordinates,Original*
G04 #@! TF.FileFunction,Paste,Bot*
G04 #@! TF.FilePolarity,Positive*
G04 Gerber Fmt 4.6, Leading zero omitted, Abs format (unit mm)*
G04 Created by KiCad (PCBNEW (5.1.2)-1) date 2019-11-08 13:50:46*
G04 APERTURE LIST*
G04 APERTURE END LIST*
D50*
X-0002755905Y0005826771D02*
X0003240511Y0001789448D03*
X0003240511Y0001818976D03*
X0003240511Y0001848503D03*
X0003240511Y0001878031D03*
X0003240511Y0001907559D03*
X0003240511Y0001937086D03*
X0003240511Y0001966614D03*
X0003240511Y0001996141D03*
X0003240511Y0002025669D03*
X0003240511Y0002055196D03*
X0003240511Y0002084724D03*
X0003240511Y0002114251D03*
D51*
X0003285787Y0002131968D03*
X0003315314Y0002131968D03*
X0003344842Y0002131968D03*
X0003374370Y0002131968D03*
X0003403897Y0002131968D03*
X0003433425Y0002131968D03*
X0003462952Y0002131968D03*
X0003492480Y0002131968D03*
X0003522007Y0002131968D03*
X0003551535Y0002131968D03*
X0003581062Y0002131968D03*
D50*
X0003626338Y0002114251D03*
X0003626338Y0002084724D03*
X0003626338Y0002055196D03*
X0003626338Y0002025669D03*
X0003626338Y0001996141D03*
X0003626338Y0001966614D03*
X0003626338Y0001937086D03*
X0003626338Y0001907559D03*
X0003626338Y0001878031D03*
X0003626338Y0001848503D03*
X0003626338Y0001818976D03*
X0003626338Y0001789448D03*
X0003626338Y0001759921D03*
X0003626338Y0001730393D03*
X0003626338Y0001700866D03*
X0003626338Y0001671338D03*
D52*
X0002819763Y0001900000D03*
X0002845354Y0001900000D03*
X0002870944Y0001900000D03*
X0002896535Y0001900000D03*
X0002922125Y0001900000D03*
X0002947716Y0001900000D03*
X0002973307Y0001900000D03*
X0002998897Y0001900000D03*
X0003024488Y0001900000D03*
X0003050078Y0001900000D03*
X0003075669Y0001900000D03*
X0003101259Y0001900000D03*
X0003101259Y0002124409D03*
X0003075669Y0002124409D03*
X0003050078Y0002124409D03*
X0003024488Y0002124409D03*
X0002998897Y0002124409D03*
X0002973307Y0002124409D03*
X0002947716Y0002124409D03*
X0002922125Y0002124409D03*
X0002896535Y0002124409D03*
X0002870944Y0002124409D03*
X0002845354Y0002124409D03*
X0002819763Y0002124409D03*
D53*
X0003008543Y0001696929D03*
D54*
X0003008543Y0001633936D03*
X0003008543Y0001665433D03*
D53*
X0003008543Y0001602440D03*
D54*
X0002937677Y0001665433D03*
D53*
X0002937677Y0001696929D03*
D54*
X0002937677Y0001633936D03*
D53*
X0002937677Y0001602440D03*
D55*
X0003093346Y0001632952D03*
X0003093346Y0001753031D03*
X0003132716Y0001632952D03*
X0003132716Y0001753031D03*
X0002852874Y0001753031D03*
X0002852874Y0001632952D03*
X0002813503Y0001753031D03*
X0002813503Y0001632952D03*
X0003571968Y0002373779D03*
X0003571968Y0002253700D03*
X0003532598Y0002373779D03*
X0003532598Y0002253700D03*
X0003335839Y0002373779D03*
X0003335839Y0002253700D03*
X0003296469Y0002373779D03*
X0003296469Y0002253700D03*
X0003060341Y0002253700D03*
X0003060341Y0002373779D03*
X0003099711Y0002253700D03*
X0003099711Y0002373779D03*
X0002863582Y0002373779D03*
X0002863582Y0002253700D03*
X0002824212Y0002373779D03*
X0002824212Y0002253700D03*
G04 next file*
G04 #@! TF.GenerationSoftware,KiCad,Pcbnew,(5.1.2)-1*
G04 #@! TF.CreationDate,2019-11-08T13:50:46+05:30*
G04 #@! TF.ProjectId,TALK,54414c4b-2e6b-4696-9361-645f70636258,rev?*
G04 #@! TF.SameCoordinates,Original*
G04 #@! TF.FileFunction,Paste,Bot*
G04 #@! TF.FilePolarity,Positive*
G04 Gerber Fmt 4.6, Leading zero omitted, Abs format (unit mm)*
G04 Created by KiCad (PCBNEW (5.1.2)-1) date 2019-11-08 13:50:46*
G04 APERTURE LIST*
G04 APERTURE END LIST*
D56*
X-0005196850Y0004645669D02*
X0000799566Y0000608346D03*
X0000799566Y0000637873D03*
X0000799566Y0000667401D03*
X0000799566Y0000696929D03*
X0000799566Y0000726456D03*
X0000799566Y0000755984D03*
X0000799566Y0000785511D03*
X0000799566Y0000815039D03*
X0000799566Y0000844566D03*
X0000799566Y0000874094D03*
X0000799566Y0000903622D03*
X0000799566Y0000933149D03*
D57*
X0000844842Y0000950866D03*
X0000874370Y0000950866D03*
X0000903897Y0000950866D03*
X0000933425Y0000950866D03*
X0000962952Y0000950866D03*
X0000992480Y0000950866D03*
X0001022007Y0000950866D03*
X0001051535Y0000950866D03*
X0001081062Y0000950866D03*
X0001110590Y0000950866D03*
X0001140118Y0000950866D03*
D56*
X0001185393Y0000933149D03*
X0001185393Y0000903622D03*
X0001185393Y0000874094D03*
X0001185393Y0000844566D03*
X0001185393Y0000815039D03*
X0001185393Y0000785511D03*
X0001185393Y0000755984D03*
X0001185393Y0000726456D03*
X0001185393Y0000696929D03*
X0001185393Y0000667401D03*
X0001185393Y0000637873D03*
X0001185393Y0000608346D03*
X0001185393Y0000578818D03*
X0001185393Y0000549291D03*
X0001185393Y0000519763D03*
X0001185393Y0000490236D03*
D58*
X0000378818Y0000718897D03*
X0000404409Y0000718897D03*
X0000429999Y0000718897D03*
X0000455590Y0000718897D03*
X0000481181Y0000718897D03*
X0000506771Y0000718897D03*
X0000532362Y0000718897D03*
X0000557952Y0000718897D03*
X0000583543Y0000718897D03*
X0000609133Y0000718897D03*
X0000634724Y0000718897D03*
X0000660314Y0000718897D03*
X0000660314Y0000943307D03*
X0000634724Y0000943307D03*
X0000609133Y0000943307D03*
X0000583543Y0000943307D03*
X0000557952Y0000943307D03*
X0000532362Y0000943307D03*
X0000506771Y0000943307D03*
X0000481181Y0000943307D03*
X0000455590Y0000943307D03*
X0000429999Y0000943307D03*
X0000404409Y0000943307D03*
X0000378818Y0000943307D03*
D59*
X0000567598Y0000515826D03*
D60*
X0000567598Y0000452834D03*
X0000567598Y0000484330D03*
D59*
X0000567598Y0000421338D03*
D60*
X0000496732Y0000484330D03*
D59*
X0000496732Y0000515826D03*
D60*
X0000496732Y0000452834D03*
D59*
X0000496732Y0000421338D03*
D61*
X0000652401Y0000451850D03*
X0000652401Y0000571929D03*
X0000691771Y0000451850D03*
X0000691771Y0000571929D03*
X0000411929Y0000571929D03*
X0000411929Y0000451850D03*
X0000372559Y0000571929D03*
X0000372559Y0000451850D03*
X0001131023Y0001192677D03*
X0001131023Y0001072598D03*
X0001091653Y0001192677D03*
X0001091653Y0001072598D03*
X0000894894Y0001192677D03*
X0000894894Y0001072598D03*
X0000855524Y0001192677D03*
X0000855524Y0001072598D03*
X0000619396Y0001072598D03*
X0000619396Y0001192677D03*
X0000658766Y0001072598D03*
X0000658766Y0001192677D03*
X0000422637Y0001192677D03*
X0000422637Y0001072598D03*
X0000383267Y0001192677D03*
X0000383267Y0001072598D03*
G04 next file*
G04 #@! TF.GenerationSoftware,KiCad,Pcbnew,(5.1.2)-1*
G04 #@! TF.CreationDate,2019-11-08T13:50:46+05:30*
G04 #@! TF.ProjectId,TALK,54414c4b-2e6b-4696-9361-645f70636258,rev?*
G04 #@! TF.SameCoordinates,Original*
G04 #@! TF.FileFunction,Paste,Bot*
G04 #@! TF.FilePolarity,Positive*
G04 Gerber Fmt 4.6, Leading zero omitted, Abs format (unit mm)*
G04 Created by KiCad (PCBNEW (5.1.2)-1) date 2019-11-08 13:50:46*
G04 APERTURE LIST*
G04 APERTURE END LIST*
D62*
X-0003976377Y0004645669D02*
X0002020039Y0000608346D03*
X0002020039Y0000637873D03*
X0002020039Y0000667401D03*
X0002020039Y0000696929D03*
X0002020039Y0000726456D03*
X0002020039Y0000755984D03*
X0002020039Y0000785511D03*
X0002020039Y0000815039D03*
X0002020039Y0000844566D03*
X0002020039Y0000874094D03*
X0002020039Y0000903622D03*
X0002020039Y0000933149D03*
D63*
X0002065314Y0000950866D03*
X0002094842Y0000950866D03*
X0002124370Y0000950866D03*
X0002153897Y0000950866D03*
X0002183425Y0000950866D03*
X0002212952Y0000950866D03*
X0002242480Y0000950866D03*
X0002272007Y0000950866D03*
X0002301535Y0000950866D03*
X0002331062Y0000950866D03*
X0002360590Y0000950866D03*
D62*
X0002405866Y0000933149D03*
X0002405866Y0000903622D03*
X0002405866Y0000874094D03*
X0002405866Y0000844566D03*
X0002405866Y0000815039D03*
X0002405866Y0000785511D03*
X0002405866Y0000755984D03*
X0002405866Y0000726456D03*
X0002405866Y0000696929D03*
X0002405866Y0000667401D03*
X0002405866Y0000637873D03*
X0002405866Y0000608346D03*
X0002405866Y0000578818D03*
X0002405866Y0000549291D03*
X0002405866Y0000519763D03*
X0002405866Y0000490236D03*
D64*
X0001599291Y0000718897D03*
X0001624881Y0000718897D03*
X0001650472Y0000718897D03*
X0001676062Y0000718897D03*
X0001701653Y0000718897D03*
X0001727244Y0000718897D03*
X0001752834Y0000718897D03*
X0001778425Y0000718897D03*
X0001804015Y0000718897D03*
X0001829606Y0000718897D03*
X0001855196Y0000718897D03*
X0001880787Y0000718897D03*
X0001880787Y0000943307D03*
X0001855196Y0000943307D03*
X0001829606Y0000943307D03*
X0001804015Y0000943307D03*
X0001778425Y0000943307D03*
X0001752834Y0000943307D03*
X0001727244Y0000943307D03*
X0001701653Y0000943307D03*
X0001676062Y0000943307D03*
X0001650472Y0000943307D03*
X0001624881Y0000943307D03*
X0001599291Y0000943307D03*
D65*
X0001788070Y0000515826D03*
D66*
X0001788070Y0000452834D03*
X0001788070Y0000484330D03*
D65*
X0001788070Y0000421338D03*
D66*
X0001717204Y0000484330D03*
D65*
X0001717204Y0000515826D03*
D66*
X0001717204Y0000452834D03*
D65*
X0001717204Y0000421338D03*
D67*
X0001872874Y0000451850D03*
X0001872874Y0000571929D03*
X0001912244Y0000451850D03*
X0001912244Y0000571929D03*
X0001632401Y0000571929D03*
X0001632401Y0000451850D03*
X0001593031Y0000571929D03*
X0001593031Y0000451850D03*
X0002351496Y0001192677D03*
X0002351496Y0001072598D03*
X0002312125Y0001192677D03*
X0002312125Y0001072598D03*
X0002115367Y0001192677D03*
X0002115367Y0001072598D03*
X0002075997Y0001192677D03*
X0002075997Y0001072598D03*
X0001839868Y0001072598D03*
X0001839868Y0001192677D03*
X0001879238Y0001072598D03*
X0001879238Y0001192677D03*
X0001643110Y0001192677D03*
X0001643110Y0001072598D03*
X0001603740Y0001192677D03*
X0001603740Y0001072598D03*
G04 next file*
G04 #@! TF.GenerationSoftware,KiCad,Pcbnew,(5.1.2)-1*
G04 #@! TF.CreationDate,2019-11-08T13:50:46+05:30*
G04 #@! TF.ProjectId,TALK,54414c4b-2e6b-4696-9361-645f70636258,rev?*
G04 #@! TF.SameCoordinates,Original*
G04 #@! TF.FileFunction,Paste,Bot*
G04 #@! TF.FilePolarity,Positive*
G04 Gerber Fmt 4.6, Leading zero omitted, Abs format (unit mm)*
G04 Created by KiCad (PCBNEW (5.1.2)-1) date 2019-11-08 13:50:46*
G04 APERTURE LIST*
G04 APERTURE END LIST*
D68*
X-0002755905Y0004645669D02*
X0003240511Y0000608346D03*
X0003240511Y0000637873D03*
X0003240511Y0000667401D03*
X0003240511Y0000696929D03*
X0003240511Y0000726456D03*
X0003240511Y0000755984D03*
X0003240511Y0000785511D03*
X0003240511Y0000815039D03*
X0003240511Y0000844566D03*
X0003240511Y0000874094D03*
X0003240511Y0000903622D03*
X0003240511Y0000933149D03*
D69*
X0003285787Y0000950866D03*
X0003315314Y0000950866D03*
X0003344842Y0000950866D03*
X0003374370Y0000950866D03*
X0003403897Y0000950866D03*
X0003433425Y0000950866D03*
X0003462952Y0000950866D03*
X0003492480Y0000950866D03*
X0003522007Y0000950866D03*
X0003551535Y0000950866D03*
X0003581062Y0000950866D03*
D68*
X0003626338Y0000933149D03*
X0003626338Y0000903622D03*
X0003626338Y0000874094D03*
X0003626338Y0000844566D03*
X0003626338Y0000815039D03*
X0003626338Y0000785511D03*
X0003626338Y0000755984D03*
X0003626338Y0000726456D03*
X0003626338Y0000696929D03*
X0003626338Y0000667401D03*
X0003626338Y0000637873D03*
X0003626338Y0000608346D03*
X0003626338Y0000578818D03*
X0003626338Y0000549291D03*
X0003626338Y0000519763D03*
X0003626338Y0000490236D03*
D70*
X0002819763Y0000718897D03*
X0002845354Y0000718897D03*
X0002870944Y0000718897D03*
X0002896535Y0000718897D03*
X0002922125Y0000718897D03*
X0002947716Y0000718897D03*
X0002973307Y0000718897D03*
X0002998897Y0000718897D03*
X0003024488Y0000718897D03*
X0003050078Y0000718897D03*
X0003075669Y0000718897D03*
X0003101259Y0000718897D03*
X0003101259Y0000943307D03*
X0003075669Y0000943307D03*
X0003050078Y0000943307D03*
X0003024488Y0000943307D03*
X0002998897Y0000943307D03*
X0002973307Y0000943307D03*
X0002947716Y0000943307D03*
X0002922125Y0000943307D03*
X0002896535Y0000943307D03*
X0002870944Y0000943307D03*
X0002845354Y0000943307D03*
X0002819763Y0000943307D03*
D71*
X0003008543Y0000515826D03*
D72*
X0003008543Y0000452834D03*
X0003008543Y0000484330D03*
D71*
X0003008543Y0000421338D03*
D72*
X0002937677Y0000484330D03*
D71*
X0002937677Y0000515826D03*
D72*
X0002937677Y0000452834D03*
D71*
X0002937677Y0000421338D03*
D73*
X0003093346Y0000451850D03*
X0003093346Y0000571929D03*
X0003132716Y0000451850D03*
X0003132716Y0000571929D03*
X0002852874Y0000571929D03*
X0002852874Y0000451850D03*
X0002813503Y0000571929D03*
X0002813503Y0000451850D03*
X0003571968Y0001192677D03*
X0003571968Y0001072598D03*
X0003532598Y0001192677D03*
X0003532598Y0001072598D03*
X0003335839Y0001192677D03*
X0003335839Y0001072598D03*
X0003296469Y0001192677D03*
X0003296469Y0001072598D03*
X0003060341Y0001072598D03*
X0003060341Y0001192677D03*
X0003099711Y0001072598D03*
X0003099711Y0001192677D03*
X0002863582Y0001192677D03*
X0002863582Y0001072598D03*
X0002824212Y0001192677D03*
X0002824212Y0001072598D03*
M02*