%MOIN*%
%OFA0B0*%
%FSLAX44Y44*%
%IPPOS*%
%LPD*%
%ADD10C,0*%
D10*
X00023972Y00015078D02*
X00023972Y00015078D01*
X00025153Y00016259D01*
X00025153Y00019764D01*
X00025154Y00019797D01*
X00025158Y00019830D01*
X00025165Y00019862D01*
X00025174Y00019894D01*
X00025187Y00019924D01*
X00025201Y00019954D01*
X00025218Y00019982D01*
X00025238Y00020009D01*
X00025259Y00020033D01*
X00025283Y00020057D01*
X00025308Y00020078D01*
X00025335Y00020096D01*
X00025363Y00020113D01*
X00025393Y00020127D01*
X00025424Y00020139D01*
X00025456Y00020147D01*
X00025488Y00020154D01*
X00025521Y00020157D01*
X00025554Y00020158D01*
X00025587Y00020156D01*
X00026488Y00020063D01*
X00026516Y00020059D01*
X00026545Y00020053D01*
X00026572Y00020045D01*
X00026599Y00020035D01*
X00026626Y00020023D01*
X00026651Y00020008D01*
X00026675Y00019993D01*
X00026698Y00019975D01*
X00026720Y00019956D01*
X00026740Y00019935D01*
X00026758Y00019913D01*
X00026775Y00019890D01*
X00026790Y00019865D01*
X00026804Y00019839D01*
X00026815Y00019813D01*
X00026824Y00019785D01*
X00026832Y00019757D01*
X00026837Y00019729D01*
X00026840Y00019700D01*
X00026841Y00019671D01*
X00026841Y00016259D01*
X00026853Y00016091D01*
X00026889Y00015926D01*
X00026948Y00015768D01*
X00027029Y00015620D01*
X00027130Y00015485D01*
X00027249Y00015366D01*
X00027384Y00015265D01*
X00027532Y00015185D01*
X00027690Y00015126D01*
X00027854Y00015090D01*
X00028022Y00015078D01*
X00031130Y00015078D01*
X00031167Y00015076D01*
X00031204Y00015071D01*
X00031240Y00015062D01*
X00031275Y00015051D01*
X00031308Y00015035D01*
X00031340Y00015017D01*
X00031370Y00014996D01*
X00031399Y00014972D01*
X00031424Y00014946D01*
X00031448Y00014917D01*
X00031468Y00014887D01*
X00031486Y00014854D01*
X00031500Y00014820D01*
X00031511Y00014785D01*
X00031519Y00014749D01*
X00031523Y00014713D01*
X00031524Y00014676D01*
X00031522Y00014639D01*
X00031516Y00014603D01*
X00031506Y00014567D01*
X00031271Y00013812D01*
X00031263Y00013788D01*
X00031253Y00013765D01*
X00031242Y00013743D01*
X00031229Y00013721D01*
X00031215Y00013700D01*
X00031200Y00013681D01*
X00031184Y00013662D01*
X00031166Y00013644D01*
X00031148Y00013627D01*
X00031128Y00013612D01*
X00031108Y00013598D01*
X00031086Y00013585D01*
X00031064Y00013573D01*
X00031041Y00013563D01*
X00031018Y00013555D01*
X00030994Y00013548D01*
X00030969Y00013542D01*
X00030945Y00013538D01*
X00030920Y00013536D01*
X00030895Y00013535D01*
X00028022Y00013535D01*
X00027854Y00013523D01*
X00027690Y00013487D01*
X00027532Y00013429D01*
X00027384Y00013348D01*
X00027249Y00013247D01*
X00027130Y00013128D01*
X00027029Y00012993D01*
X00026948Y00012845D01*
X00026889Y00012687D01*
X00026853Y00012522D01*
X00026841Y00012354D01*
X00026841Y00011835D01*
X00026840Y00011804D01*
X00026836Y00011773D01*
X00026830Y00011742D01*
X00026821Y00011711D01*
X00026810Y00011682D01*
X00026797Y00011653D01*
X00026781Y00011626D01*
X00026763Y00011600D01*
X00026743Y00011576D01*
X00026722Y00011553D01*
X00026698Y00011532D01*
X00026673Y00011513D01*
X00026647Y00011496D01*
X00026619Y00011481D01*
X00026590Y00011468D01*
X00026560Y00011458D01*
X00026530Y00011450D01*
X00026499Y00011445D01*
X00026467Y00011442D01*
X00026436Y00011442D01*
X00025535Y00011469D01*
X00025504Y00011471D01*
X00025474Y00011475D01*
X00025445Y00011482D01*
X00025416Y00011491D01*
X00025388Y00011502D01*
X00025360Y00011515D01*
X00025334Y00011531D01*
X00025309Y00011548D01*
X00025286Y00011567D01*
X00025264Y00011588D01*
X00025244Y00011611D01*
X00025225Y00011635D01*
X00025209Y00011660D01*
X00025194Y00011687D01*
X00025182Y00011714D01*
X00025171Y00011743D01*
X00025163Y00011772D01*
X00025157Y00011802D01*
X00025154Y00011832D01*
X00025153Y00011862D01*
X00025153Y00012354D01*
X00025141Y00012522D01*
X00025105Y00012687D01*
X00025046Y00012845D01*
X00024965Y00012993D01*
X00024864Y00013128D01*
X00024745Y00013247D01*
X00024610Y00013348D01*
X00024462Y00013429D01*
X00024304Y00013487D01*
X00024140Y00013523D01*
X00023972Y00013535D01*
X00020481Y00013535D01*
X00020448Y00013537D01*
X00020414Y00013541D01*
X00020382Y00013548D01*
X00020350Y00013558D01*
X00020319Y00013570D01*
X00020289Y00013586D01*
X00020260Y00013603D01*
X00020233Y00013623D01*
X00020208Y00013645D01*
X00020185Y00013669D01*
X00020164Y00013696D01*
X00020145Y00013723D01*
X00020129Y00013753D01*
X00020115Y00013783D01*
X00020104Y00013815D01*
X00020096Y00013847D01*
X00020090Y00013880D01*
X00020088Y00013914D01*
X00020088Y00013947D01*
X00020091Y00013980D01*
X00020190Y00014735D01*
X00020195Y00014763D01*
X00020201Y00014791D01*
X00020210Y00014818D01*
X00020221Y00014844D01*
X00020233Y00014870D01*
X00020247Y00014894D01*
X00020263Y00014918D01*
X00020281Y00014940D01*
X00020300Y00014961D01*
X00020321Y00014980D01*
X00020343Y00014998D01*
X00020366Y00015014D01*
X00020390Y00015029D01*
X00020416Y00015042D01*
X00020442Y00015053D01*
X00020469Y00015062D01*
X00020496Y00015069D01*
X00020524Y00015074D01*
X00020552Y00015077D01*
X00020580Y00015078D01*
X00023972Y00015078D01*
X00011767Y00015078D02*
X00011767Y00015078D01*
X00012948Y00016259D01*
X00012948Y00019298D01*
X00012949Y00019326D01*
X00012952Y00019354D01*
X00012957Y00019382D01*
X00012964Y00019409D01*
X00012973Y00019436D01*
X00012984Y00019462D01*
X00012997Y00019487D01*
X00013011Y00019512D01*
X00013027Y00019535D01*
X00013045Y00019557D01*
X00013064Y00019577D01*
X00013085Y00019597D01*
X00013107Y00019614D01*
X00013131Y00019630D01*
X00013155Y00019644D01*
X00013180Y00019657D01*
X00013207Y00019668D01*
X00013233Y00019676D01*
X00013261Y00019683D01*
X00013289Y00019688D01*
X00014190Y00019810D01*
X00014223Y00019813D01*
X00014257Y00019814D01*
X00014290Y00019811D01*
X00014323Y00019806D01*
X00014356Y00019797D01*
X00014388Y00019786D01*
X00014418Y00019773D01*
X00014448Y00019756D01*
X00014476Y00019738D01*
X00014502Y00019717D01*
X00014526Y00019694D01*
X00014548Y00019668D01*
X00014568Y00019642D01*
X00014586Y00019613D01*
X00014601Y00019583D01*
X00014614Y00019552D01*
X00014624Y00019520D01*
X00014631Y00019487D01*
X00014635Y00019454D01*
X00014637Y00019420D01*
X00014637Y00016259D01*
X00014649Y00016091D01*
X00014684Y00015926D01*
X00014743Y00015768D01*
X00014824Y00015620D01*
X00014925Y00015485D01*
X00015044Y00015366D01*
X00015179Y00015265D01*
X00015327Y00015185D01*
X00015485Y00015126D01*
X00015650Y00015090D01*
X00015818Y00015078D01*
X00018699Y00015078D01*
X00018727Y00015077D01*
X00018755Y00015074D01*
X00018783Y00015069D01*
X00018810Y00015062D01*
X00018837Y00015053D01*
X00018863Y00015042D01*
X00018889Y00015029D01*
X00018913Y00015014D01*
X00018936Y00014998D01*
X00018958Y00014980D01*
X00018979Y00014961D01*
X00018998Y00014940D01*
X00019016Y00014918D01*
X00019032Y00014894D01*
X00019046Y00014870D01*
X00019058Y00014844D01*
X00019069Y00014818D01*
X00019077Y00014791D01*
X00019084Y00014763D01*
X00019089Y00014735D01*
X00019188Y00013980D01*
X00019191Y00013947D01*
X00019191Y00013914D01*
X00019188Y00013880D01*
X00019183Y00013847D01*
X00019175Y00013815D01*
X00019163Y00013783D01*
X00019150Y00013753D01*
X00019133Y00013723D01*
X00019115Y00013696D01*
X00019094Y00013669D01*
X00019071Y00013645D01*
X00019046Y00013623D01*
X00019019Y00013603D01*
X00018990Y00013586D01*
X00018960Y00013570D01*
X00018929Y00013558D01*
X00018897Y00013548D01*
X00018864Y00013541D01*
X00018831Y00013537D01*
X00018798Y00013535D01*
X00015818Y00013535D01*
X00015650Y00013523D01*
X00015485Y00013487D01*
X00015327Y00013429D01*
X00015179Y00013348D01*
X00015044Y00013247D01*
X00014925Y00013128D01*
X00014824Y00012993D01*
X00014743Y00012845D01*
X00014684Y00012687D01*
X00014649Y00012522D01*
X00014637Y00012354D01*
X00014637Y00011442D01*
X00014635Y00011410D01*
X00014631Y00011379D01*
X00014625Y00011348D01*
X00014617Y00011318D01*
X00014605Y00011288D01*
X00014592Y00011260D01*
X00014576Y00011232D01*
X00014559Y00011206D01*
X00014539Y00011182D01*
X00014517Y00011159D01*
X00014494Y00011138D01*
X00014468Y00011119D01*
X00014442Y00011102D01*
X00014414Y00011087D01*
X00014385Y00011075D01*
X00014355Y00011064D01*
X00014325Y00011057D01*
X00014294Y00011051D01*
X00014263Y00011048D01*
X00014231Y00011048D01*
X00013330Y00011075D01*
X00013300Y00011077D01*
X00013270Y00011082D01*
X00013240Y00011088D01*
X00013211Y00011097D01*
X00013183Y00011108D01*
X00013156Y00011122D01*
X00013129Y00011137D01*
X00013105Y00011154D01*
X00013081Y00011174D01*
X00013059Y00011194D01*
X00013039Y00011217D01*
X00013020Y00011241D01*
X00013004Y00011266D01*
X00012989Y00011293D01*
X00012977Y00011321D01*
X00012966Y00011349D01*
X00012958Y00011378D01*
X00012953Y00011408D01*
X00012949Y00011438D01*
X00012948Y00011469D01*
X00012948Y00012354D01*
X00012936Y00012522D01*
X00012900Y00012687D01*
X00012841Y00012845D01*
X00012760Y00012993D01*
X00012659Y00013128D01*
X00012540Y00013247D01*
X00012405Y00013348D01*
X00012257Y00013429D01*
X00012100Y00013487D01*
X00011935Y00013523D01*
X00011767Y00013535D01*
X00008305Y00013535D01*
X00008270Y00013537D01*
X00008234Y00013542D01*
X00008200Y00013550D01*
X00008166Y00013561D01*
X00008134Y00013575D01*
X00008102Y00013592D01*
X00008073Y00013611D01*
X00008045Y00013633D01*
X00008020Y00013658D01*
X00007996Y00013685D01*
X00007976Y00013714D01*
X00007957Y00013744D01*
X00007942Y00013776D01*
X00007930Y00013809D01*
X00007921Y00013844D01*
X00007915Y00013879D01*
X00007912Y00013914D01*
X00007912Y00013950D01*
X00007915Y00013985D01*
X00007922Y00014020D01*
X00008101Y00014775D01*
X00008108Y00014800D01*
X00008116Y00014825D01*
X00008126Y00014849D01*
X00008138Y00014873D01*
X00008152Y00014896D01*
X00008167Y00014917D01*
X00008183Y00014938D01*
X00008201Y00014958D01*
X00008219Y00014976D01*
X00008240Y00014993D01*
X00008261Y00015009D01*
X00008283Y00015023D01*
X00008306Y00015035D01*
X00008330Y00015047D01*
X00008355Y00015056D01*
X00008380Y00015064D01*
X00008405Y00015070D01*
X00008431Y00015074D01*
X00008457Y00015077D01*
X00008484Y00015078D01*
X00011767Y00015078D01*
X00023972Y00026889D02*
X00023972Y00026889D01*
X00025153Y00028070D01*
X00025153Y00029475D01*
X00025154Y00029506D01*
X00025157Y00029536D01*
X00025163Y00029565D01*
X00025171Y00029595D01*
X00025182Y00029623D01*
X00025194Y00029651D01*
X00025209Y00029677D01*
X00025225Y00029703D01*
X00025244Y00029727D01*
X00025264Y00029749D01*
X00025286Y00029770D01*
X00025309Y00029790D01*
X00025334Y00029807D01*
X00025360Y00029822D01*
X00025388Y00029836D01*
X00025416Y00029847D01*
X00025445Y00029856D01*
X00025474Y00029862D01*
X00025504Y00029867D01*
X00025535Y00029869D01*
X00026436Y00029896D01*
X00026467Y00029895D01*
X00026499Y00029893D01*
X00026530Y00029887D01*
X00026560Y00029879D01*
X00026590Y00029869D01*
X00026619Y00029857D01*
X00026647Y00029842D01*
X00026673Y00029825D01*
X00026698Y00029806D01*
X00026722Y00029785D01*
X00026743Y00029762D01*
X00026763Y00029737D01*
X00026781Y00029711D01*
X00026797Y00029684D01*
X00026810Y00029656D01*
X00026821Y00029626D01*
X00026830Y00029596D01*
X00026836Y00029565D01*
X00026840Y00029534D01*
X00026841Y00029502D01*
X00026841Y00028070D01*
X00026853Y00027902D01*
X00026889Y00027737D01*
X00026948Y00027579D01*
X00027029Y00027431D01*
X00027130Y00027297D01*
X00027249Y00027177D01*
X00027384Y00027076D01*
X00027532Y00026996D01*
X00027690Y00026937D01*
X00027854Y00026901D01*
X00028022Y00026889D01*
X00031267Y00026889D01*
X00031298Y00026888D01*
X00031328Y00026884D01*
X00031357Y00026878D01*
X00031387Y00026870D01*
X00031415Y00026860D01*
X00031443Y00026848D01*
X00031469Y00026833D01*
X00031494Y00026817D01*
X00031518Y00026798D01*
X00031541Y00026778D01*
X00031562Y00026756D01*
X00031581Y00026733D01*
X00031598Y00026708D01*
X00031614Y00026682D01*
X00031627Y00026655D01*
X00031638Y00026627D01*
X00031647Y00026598D01*
X00031654Y00026569D01*
X00031659Y00026539D01*
X00031661Y00026508D01*
X00031686Y00025753D01*
X00031686Y00025722D01*
X00031683Y00025690D01*
X00031678Y00025659D01*
X00031670Y00025629D01*
X00031660Y00025599D01*
X00031648Y00025570D01*
X00031633Y00025542D01*
X00031616Y00025515D01*
X00031597Y00025490D01*
X00031576Y00025466D01*
X00031553Y00025445D01*
X00031529Y00025425D01*
X00031503Y00025407D01*
X00031475Y00025391D01*
X00031447Y00025378D01*
X00031417Y00025366D01*
X00031387Y00025358D01*
X00031356Y00025351D01*
X00031324Y00025348D01*
X00031293Y00025346D01*
X00028022Y00025346D01*
X00027854Y00025334D01*
X00027690Y00025299D01*
X00027532Y00025240D01*
X00027384Y00025159D01*
X00027249Y00025058D01*
X00027130Y00024939D01*
X00027029Y00024804D01*
X00026948Y00024656D01*
X00026889Y00024498D01*
X00026853Y00024333D01*
X00026841Y00024165D01*
X00026841Y00021411D01*
X00026840Y00021382D01*
X00026837Y00021353D01*
X00026832Y00021325D01*
X00026824Y00021297D01*
X00026815Y00021270D01*
X00026804Y00021243D01*
X00026790Y00021218D01*
X00026775Y00021193D01*
X00026758Y00021169D01*
X00026740Y00021147D01*
X00026720Y00021127D01*
X00026698Y00021107D01*
X00026675Y00021090D01*
X00026651Y00021074D01*
X00026626Y00021060D01*
X00026599Y00021048D01*
X00026572Y00021038D01*
X00026545Y00021030D01*
X00026516Y00021023D01*
X00026488Y00021019D01*
X00025587Y00020927D01*
X00025554Y00020925D01*
X00025521Y00020925D01*
X00025488Y00020929D01*
X00025456Y00020935D01*
X00025424Y00020944D01*
X00025393Y00020956D01*
X00025363Y00020970D01*
X00025335Y00020986D01*
X00025308Y00021005D01*
X00025283Y00021026D01*
X00025259Y00021049D01*
X00025238Y00021074D01*
X00025218Y00021101D01*
X00025201Y00021129D01*
X00025187Y00021158D01*
X00025174Y00021189D01*
X00025165Y00021220D01*
X00025158Y00021253D01*
X00025154Y00021285D01*
X00025153Y00021318D01*
X00025153Y00024165D01*
X00025141Y00024333D01*
X00025105Y00024498D01*
X00025046Y00024656D01*
X00024965Y00024804D01*
X00024864Y00024939D01*
X00024745Y00025058D01*
X00024610Y00025159D01*
X00024462Y00025240D01*
X00024304Y00025299D01*
X00024140Y00025334D01*
X00023972Y00025346D01*
X00020594Y00025346D01*
X00020566Y00025347D01*
X00020539Y00025350D01*
X00020512Y00025355D01*
X00020485Y00025362D01*
X00020459Y00025370D01*
X00020433Y00025381D01*
X00020409Y00025393D01*
X00020385Y00025406D01*
X00020362Y00025422D01*
X00020340Y00025439D01*
X00020320Y00025457D01*
X00020301Y00025477D01*
X00020283Y00025498D01*
X00020267Y00025521D01*
X00020252Y00025544D01*
X00020240Y00025568D01*
X00020228Y00025593D01*
X00020219Y00025619D01*
X00020212Y00025646D01*
X00020206Y00025673D01*
X00020075Y00026428D01*
X00020071Y00026462D01*
X00020069Y00026496D01*
X00020071Y00026530D01*
X00020075Y00026564D01*
X00020083Y00026598D01*
X00020093Y00026631D01*
X00020106Y00026662D01*
X00020122Y00026693D01*
X00020141Y00026722D01*
X00020162Y00026749D01*
X00020185Y00026774D01*
X00020210Y00026797D01*
X00020237Y00026818D01*
X00020266Y00026836D01*
X00020297Y00026852D01*
X00020329Y00026865D01*
X00020361Y00026876D01*
X00020395Y00026883D01*
X00020429Y00026887D01*
X00020463Y00026889D01*
X00023972Y00026889D01*
X00025153Y00010184D02*
X00025153Y00010184D01*
X00025154Y00010214D01*
X00025157Y00010244D01*
X00025163Y00010274D01*
X00025171Y00010303D01*
X00025182Y00010332D01*
X00025194Y00010359D01*
X00025209Y00010386D01*
X00025225Y00010411D01*
X00025244Y00010436D01*
X00025264Y00010458D01*
X00025286Y00010479D01*
X00025309Y00010498D01*
X00025334Y00010516D01*
X00025360Y00010531D01*
X00025388Y00010544D01*
X00025416Y00010555D01*
X00025445Y00010564D01*
X00025474Y00010571D01*
X00025504Y00010575D01*
X00025535Y00010577D01*
X00026436Y00010604D01*
X00026467Y00010604D01*
X00026499Y00010601D01*
X00026530Y00010596D01*
X00026560Y00010588D01*
X00026590Y00010578D01*
X00026619Y00010565D01*
X00026647Y00010551D01*
X00026673Y00010533D01*
X00026698Y00010514D01*
X00026722Y00010493D01*
X00026743Y00010471D01*
X00026763Y00010446D01*
X00026781Y00010420D01*
X00026797Y00010393D01*
X00026810Y00010364D01*
X00026821Y00010335D01*
X00026830Y00010305D01*
X00026836Y00010274D01*
X00026840Y00010242D01*
X00026841Y00010211D01*
X00026841Y00006717D01*
X00026840Y00006686D01*
X00026836Y00006655D01*
X00026830Y00006624D01*
X00026821Y00006593D01*
X00026810Y00006564D01*
X00026797Y00006535D01*
X00026781Y00006508D01*
X00026763Y00006482D01*
X00026743Y00006458D01*
X00026722Y00006435D01*
X00026698Y00006414D01*
X00026673Y00006395D01*
X00026647Y00006378D01*
X00026619Y00006363D01*
X00026590Y00006350D01*
X00026560Y00006340D01*
X00026530Y00006332D01*
X00026499Y00006327D01*
X00026467Y00006324D01*
X00026436Y00006324D01*
X00025535Y00006351D01*
X00025504Y00006353D01*
X00025474Y00006357D01*
X00025445Y00006364D01*
X00025416Y00006373D01*
X00025388Y00006384D01*
X00025360Y00006397D01*
X00025334Y00006413D01*
X00025309Y00006430D01*
X00025286Y00006449D01*
X00025264Y00006470D01*
X00025244Y00006493D01*
X00025225Y00006517D01*
X00025209Y00006542D01*
X00025194Y00006569D01*
X00025182Y00006596D01*
X00025171Y00006625D01*
X00025163Y00006654D01*
X00025157Y00006684D01*
X00025154Y00006714D01*
X00025153Y00006744D01*
X00025153Y00010184D01*
X00012948Y00005460D02*
X00012948Y00005460D01*
X00012949Y00005490D01*
X00012953Y00005520D01*
X00012958Y00005550D01*
X00012966Y00005579D01*
X00012977Y00005607D01*
X00012989Y00005635D01*
X00013004Y00005662D01*
X00013020Y00005687D01*
X00013039Y00005711D01*
X00013059Y00005734D01*
X00013081Y00005755D01*
X00013105Y00005774D01*
X00013129Y00005791D01*
X00013156Y00005806D01*
X00013183Y00005820D01*
X00013211Y00005831D01*
X00013240Y00005840D01*
X00013270Y00005847D01*
X00013300Y00005851D01*
X00013330Y00005853D01*
X00014231Y00005880D01*
X00014263Y00005880D01*
X00014294Y00005877D01*
X00014325Y00005872D01*
X00014355Y00005864D01*
X00014385Y00005853D01*
X00014414Y00005841D01*
X00014442Y00005826D01*
X00014468Y00005809D01*
X00014494Y00005790D01*
X00014517Y00005769D01*
X00014539Y00005746D01*
X00014559Y00005722D01*
X00014576Y00005696D01*
X00014592Y00005668D01*
X00014605Y00005640D01*
X00014617Y00005610D01*
X00014625Y00005580D01*
X00014631Y00005549D01*
X00014635Y00005518D01*
X00014637Y00005486D01*
X00014637Y00004448D01*
X00014649Y00004280D01*
X00014684Y00004115D01*
X00014743Y00003957D01*
X00014824Y00003809D01*
X00014925Y00003674D01*
X00015044Y00003555D01*
X00015179Y00003454D01*
X00015327Y00003374D01*
X00015485Y00003315D01*
X00015650Y00003279D01*
X00015818Y00003267D01*
X00023972Y00003267D01*
X00025153Y00004448D01*
X00025153Y00005066D01*
X00025154Y00005096D01*
X00025157Y00005126D01*
X00025163Y00005156D01*
X00025171Y00005185D01*
X00025182Y00005214D01*
X00025194Y00005241D01*
X00025209Y00005268D01*
X00025225Y00005293D01*
X00025244Y00005317D01*
X00025264Y00005340D01*
X00025286Y00005361D01*
X00025309Y00005380D01*
X00025334Y00005397D01*
X00025360Y00005413D01*
X00025388Y00005426D01*
X00025416Y00005437D01*
X00025445Y00005446D01*
X00025474Y00005453D01*
X00025504Y00005457D01*
X00025535Y00005459D01*
X00026436Y00005486D01*
X00026467Y00005486D01*
X00026499Y00005483D01*
X00026530Y00005478D01*
X00026560Y00005470D01*
X00026590Y00005460D01*
X00026619Y00005447D01*
X00026647Y00005432D01*
X00026673Y00005415D01*
X00026698Y00005396D01*
X00026722Y00005375D01*
X00026743Y00005352D01*
X00026763Y00005328D01*
X00026781Y00005302D01*
X00026797Y00005275D01*
X00026810Y00005246D01*
X00026821Y00005217D01*
X00026830Y00005186D01*
X00026836Y00005156D01*
X00026840Y00005124D01*
X00026841Y00005093D01*
X00026841Y00004448D01*
X00026853Y00004280D01*
X00026889Y00004115D01*
X00026948Y00003957D01*
X00027029Y00003809D01*
X00027130Y00003674D01*
X00027249Y00003555D01*
X00027384Y00003454D01*
X00027532Y00003374D01*
X00027690Y00003315D01*
X00027854Y00003279D01*
X00028022Y00003267D01*
X00036176Y00003267D01*
X00037357Y00004448D01*
X00037357Y00012354D01*
X00037345Y00012522D01*
X00037310Y00012687D01*
X00037251Y00012845D01*
X00037170Y00012993D01*
X00037069Y00013128D01*
X00036950Y00013247D01*
X00036815Y00013348D01*
X00036667Y00013429D01*
X00036509Y00013487D01*
X00036344Y00013523D01*
X00036176Y00013535D01*
X00032884Y00013535D01*
X00032859Y00013536D01*
X00032834Y00013538D01*
X00032809Y00013542D01*
X00032785Y00013548D01*
X00032761Y00013555D01*
X00032737Y00013563D01*
X00032715Y00013573D01*
X00032692Y00013585D01*
X00032671Y00013598D01*
X00032650Y00013612D01*
X00032631Y00013627D01*
X00032612Y00013644D01*
X00032595Y00013662D01*
X00032578Y00013681D01*
X00032563Y00013700D01*
X00032549Y00013721D01*
X00032537Y00013743D01*
X00032526Y00013765D01*
X00032516Y00013788D01*
X00032508Y00013812D01*
X00032272Y00014567D01*
X00032263Y00014603D01*
X00032257Y00014639D01*
X00032254Y00014676D01*
X00032255Y00014713D01*
X00032260Y00014749D01*
X00032268Y00014785D01*
X00032279Y00014820D01*
X00032293Y00014854D01*
X00032310Y00014887D01*
X00032331Y00014917D01*
X00032354Y00014946D01*
X00032380Y00014972D01*
X00032408Y00014996D01*
X00032438Y00015017D01*
X00032470Y00015035D01*
X00032504Y00015051D01*
X00032539Y00015062D01*
X00032575Y00015071D01*
X00032611Y00015076D01*
X00032648Y00015078D01*
X00036176Y00015078D01*
X00037357Y00016259D01*
X00037357Y00024165D01*
X00037345Y00024333D01*
X00037310Y00024498D01*
X00037251Y00024656D01*
X00037170Y00024804D01*
X00037069Y00024939D01*
X00036950Y00025058D01*
X00036815Y00025159D01*
X00036667Y00025240D01*
X00036509Y00025299D01*
X00036344Y00025334D01*
X00036176Y00025346D01*
X00033056Y00025346D01*
X00033024Y00025348D01*
X00032993Y00025351D01*
X00032962Y00025358D01*
X00032932Y00025366D01*
X00032902Y00025378D01*
X00032874Y00025391D01*
X00032846Y00025407D01*
X00032820Y00025425D01*
X00032796Y00025445D01*
X00032773Y00025466D01*
X00032752Y00025490D01*
X00032733Y00025515D01*
X00032716Y00025542D01*
X00032701Y00025570D01*
X00032689Y00025599D01*
X00032678Y00025629D01*
X00032671Y00025659D01*
X00032665Y00025690D01*
X00032663Y00025722D01*
X00032663Y00025753D01*
X00032688Y00026508D01*
X00032690Y00026539D01*
X00032695Y00026569D01*
X00032701Y00026598D01*
X00032710Y00026627D01*
X00032722Y00026655D01*
X00032735Y00026682D01*
X00032750Y00026708D01*
X00032768Y00026733D01*
X00032787Y00026756D01*
X00032808Y00026778D01*
X00032830Y00026798D01*
X00032854Y00026817D01*
X00032880Y00026833D01*
X00032906Y00026848D01*
X00032934Y00026860D01*
X00032962Y00026870D01*
X00032991Y00026878D01*
X00033021Y00026884D01*
X00033051Y00026888D01*
X00033081Y00026889D01*
X00036176Y00026889D01*
X00037357Y00028070D01*
X00037357Y00035976D01*
X00037345Y00036144D01*
X00037310Y00036309D01*
X00037251Y00036467D01*
X00037170Y00036615D01*
X00037069Y00036750D01*
X00036950Y00036869D01*
X00036815Y00036970D01*
X00036667Y00037051D01*
X00036509Y00037110D01*
X00036344Y00037145D01*
X00036176Y00037157D01*
X00028022Y00037157D01*
X00027854Y00037145D01*
X00027690Y00037110D01*
X00027532Y00037051D01*
X00027384Y00036970D01*
X00027249Y00036869D01*
X00027130Y00036750D01*
X00027029Y00036615D01*
X00026948Y00036467D01*
X00026889Y00036309D01*
X00026853Y00036144D01*
X00026841Y00035976D01*
X00026841Y00035851D01*
X00026840Y00035820D01*
X00026836Y00035788D01*
X00026830Y00035757D01*
X00026821Y00035727D01*
X00026810Y00035698D01*
X00026797Y00035669D01*
X00026781Y00035642D01*
X00026763Y00035616D01*
X00026743Y00035591D01*
X00026722Y00035569D01*
X00026698Y00035548D01*
X00026673Y00035528D01*
X00026647Y00035511D01*
X00026619Y00035497D01*
X00026590Y00035484D01*
X00026560Y00035474D01*
X00026530Y00035466D01*
X00026499Y00035461D01*
X00026467Y00035458D01*
X00026436Y00035458D01*
X00025535Y00035485D01*
X00025504Y00035487D01*
X00025474Y00035491D01*
X00025445Y00035498D01*
X00025416Y00035507D01*
X00025388Y00035518D01*
X00025360Y00035531D01*
X00025334Y00035546D01*
X00025309Y00035564D01*
X00025286Y00035583D01*
X00025264Y00035604D01*
X00025244Y00035626D01*
X00025225Y00035650D01*
X00025209Y00035676D01*
X00025194Y00035703D01*
X00025182Y00035730D01*
X00025171Y00035759D01*
X00025163Y00035788D01*
X00025157Y00035818D01*
X00025154Y00035848D01*
X00025153Y00035878D01*
X00025153Y00035976D01*
X00025141Y00036144D01*
X00025105Y00036309D01*
X00025046Y00036467D01*
X00024965Y00036615D01*
X00024864Y00036750D01*
X00024745Y00036869D01*
X00024610Y00036970D01*
X00024462Y00037051D01*
X00024304Y00037110D01*
X00024140Y00037145D01*
X00023972Y00037157D01*
X00015818Y00037157D01*
X00015650Y00037145D01*
X00015485Y00037110D01*
X00015327Y00037051D01*
X00015179Y00036970D01*
X00015044Y00036869D01*
X00014925Y00036750D01*
X00014824Y00036615D01*
X00014743Y00036467D01*
X00014684Y00036309D01*
X00014649Y00036144D01*
X00014637Y00035976D01*
X00014637Y00035851D01*
X00014635Y00035820D01*
X00014631Y00035788D01*
X00014625Y00035757D01*
X00014617Y00035727D01*
X00014605Y00035698D01*
X00014592Y00035669D01*
X00014576Y00035642D01*
X00014559Y00035616D01*
X00014539Y00035591D01*
X00014517Y00035569D01*
X00014494Y00035548D01*
X00014468Y00035528D01*
X00014442Y00035511D01*
X00014414Y00035497D01*
X00014385Y00035484D01*
X00014355Y00035474D01*
X00014325Y00035466D01*
X00014294Y00035461D01*
X00014263Y00035458D01*
X00014231Y00035458D01*
X00013330Y00035485D01*
X00013300Y00035487D01*
X00013270Y00035491D01*
X00013240Y00035498D01*
X00013211Y00035507D01*
X00013183Y00035518D01*
X00013156Y00035531D01*
X00013129Y00035546D01*
X00013105Y00035564D01*
X00013081Y00035583D01*
X00013059Y00035604D01*
X00013039Y00035626D01*
X00013020Y00035650D01*
X00013004Y00035676D01*
X00012989Y00035703D01*
X00012977Y00035730D01*
X00012966Y00035759D01*
X00012958Y00035788D01*
X00012953Y00035818D01*
X00012949Y00035848D01*
X00012948Y00035878D01*
X00012948Y00035976D01*
X00012936Y00036144D01*
X00012900Y00036309D01*
X00012841Y00036467D01*
X00012760Y00036615D01*
X00012659Y00036750D01*
X00012540Y00036869D01*
X00012405Y00036970D01*
X00012257Y00037051D01*
X00012100Y00037110D01*
X00011935Y00037145D01*
X00011767Y00037157D01*
X00003613Y00037157D01*
X00003445Y00037145D01*
X00003280Y00037110D01*
X00003122Y00037051D01*
X00002974Y00036970D01*
X00002839Y00036869D01*
X00002720Y00036750D01*
X00002619Y00036615D01*
X00002539Y00036467D01*
X00002480Y00036309D01*
X00002444Y00036144D01*
X00002432Y00035976D01*
X00002432Y00028070D01*
X00002444Y00027902D01*
X00002480Y00027737D01*
X00002539Y00027579D01*
X00002619Y00027431D01*
X00002720Y00027297D01*
X00002839Y00027177D01*
X00002974Y00027076D01*
X00003122Y00026996D01*
X00003280Y00026937D01*
X00003445Y00026901D01*
X00003613Y00026889D01*
X00006327Y00026889D01*
X00006364Y00026887D01*
X00006401Y00026882D01*
X00006436Y00026873D01*
X00006471Y00026862D01*
X00006505Y00026846D01*
X00006537Y00026828D01*
X00006567Y00026807D01*
X00006595Y00026783D01*
X00006621Y00026757D01*
X00006644Y00026728D01*
X00006665Y00026698D01*
X00006682Y00026665D01*
X00006697Y00026631D01*
X00006708Y00026596D01*
X00006716Y00026560D01*
X00006720Y00026524D01*
X00006721Y00026487D01*
X00006718Y00026450D01*
X00006712Y00026414D01*
X00006703Y00026378D01*
X00006468Y00025623D01*
X00006459Y00025599D01*
X00006450Y00025576D01*
X00006439Y00025554D01*
X00006426Y00025532D01*
X00006412Y00025511D01*
X00006397Y00025492D01*
X00006381Y00025473D01*
X00006363Y00025455D01*
X00006345Y00025438D01*
X00006325Y00025423D01*
X00006304Y00025409D01*
X00006283Y00025396D01*
X00006261Y00025385D01*
X00006238Y00025375D01*
X00006215Y00025366D01*
X00006191Y00025359D01*
X00006166Y00025353D01*
X00006142Y00025350D01*
X00006117Y00025347D01*
X00006092Y00025346D01*
X00003613Y00025346D01*
X00003445Y00025334D01*
X00003280Y00025299D01*
X00003122Y00025240D01*
X00002974Y00025159D01*
X00002839Y00025058D01*
X00002720Y00024939D01*
X00002619Y00024804D01*
X00002539Y00024656D01*
X00002480Y00024498D01*
X00002444Y00024333D01*
X00002432Y00024165D01*
X00002432Y00016259D01*
X00002444Y00016091D01*
X00002480Y00015926D01*
X00002539Y00015768D01*
X00002619Y00015620D01*
X00002720Y00015485D01*
X00002839Y00015366D01*
X00002974Y00015265D01*
X00003122Y00015185D01*
X00003280Y00015126D01*
X00003445Y00015090D01*
X00003613Y00015078D01*
X00006537Y00015078D01*
X00006563Y00015077D01*
X00006589Y00015074D01*
X00006615Y00015070D01*
X00006641Y00015064D01*
X00006666Y00015056D01*
X00006691Y00015047D01*
X00006715Y00015035D01*
X00006738Y00015023D01*
X00006760Y00015009D01*
X00006781Y00014993D01*
X00006801Y00014976D01*
X00006820Y00014958D01*
X00006838Y00014938D01*
X00006854Y00014917D01*
X00006869Y00014896D01*
X00006882Y00014873D01*
X00006894Y00014849D01*
X00006904Y00014825D01*
X00006913Y00014800D01*
X00006920Y00014775D01*
X00007099Y00014020D01*
X00007105Y00013985D01*
X00007109Y00013950D01*
X00007109Y00013914D01*
X00007106Y00013879D01*
X00007100Y00013844D01*
X00007091Y00013809D01*
X00007078Y00013776D01*
X00007063Y00013744D01*
X00007045Y00013714D01*
X00007024Y00013685D01*
X00007001Y00013658D01*
X00006976Y00013633D01*
X00006948Y00013611D01*
X00006918Y00013592D01*
X00006887Y00013575D01*
X00006854Y00013561D01*
X00006821Y00013550D01*
X00006786Y00013542D01*
X00006751Y00013537D01*
X00006716Y00013535D01*
X00003613Y00013535D01*
X00003445Y00013523D01*
X00003280Y00013487D01*
X00003122Y00013429D01*
X00002974Y00013348D01*
X00002839Y00013247D01*
X00002720Y00013128D01*
X00002619Y00012993D01*
X00002539Y00012845D01*
X00002480Y00012687D01*
X00002444Y00012522D01*
X00002432Y00012354D01*
X00002432Y00004448D01*
X00002444Y00004280D01*
X00002480Y00004115D01*
X00002539Y00003957D01*
X00002619Y00003809D01*
X00002720Y00003674D01*
X00002839Y00003555D01*
X00002974Y00003454D01*
X00003122Y00003374D01*
X00003280Y00003315D01*
X00003445Y00003279D01*
X00003613Y00003267D01*
X00011767Y00003267D01*
X00012948Y00004448D01*
X00012948Y00005460D01*
X00012948Y00009790D02*
X00012948Y00009790D01*
X00012949Y00009821D01*
X00012953Y00009851D01*
X00012958Y00009880D01*
X00012966Y00009910D01*
X00012977Y00009938D01*
X00012989Y00009966D01*
X00013004Y00009992D01*
X00013020Y00010018D01*
X00013039Y00010042D01*
X00013059Y00010064D01*
X00013081Y00010085D01*
X00013105Y00010105D01*
X00013129Y00010122D01*
X00013156Y00010137D01*
X00013183Y00010150D01*
X00013211Y00010162D01*
X00013240Y00010171D01*
X00013270Y00010177D01*
X00013300Y00010182D01*
X00013330Y00010184D01*
X00014231Y00010211D01*
X00014263Y00010210D01*
X00014294Y00010208D01*
X00014325Y00010202D01*
X00014355Y00010194D01*
X00014385Y00010184D01*
X00014414Y00010172D01*
X00014442Y00010157D01*
X00014468Y00010140D01*
X00014494Y00010121D01*
X00014517Y00010100D01*
X00014539Y00010077D01*
X00014559Y00010052D01*
X00014576Y00010026D01*
X00014592Y00009999D01*
X00014605Y00009971D01*
X00014617Y00009941D01*
X00014625Y00009911D01*
X00014631Y00009880D01*
X00014635Y00009849D01*
X00014637Y00009817D01*
X00014637Y00007111D01*
X00014635Y00007079D01*
X00014631Y00007048D01*
X00014625Y00007017D01*
X00014617Y00006987D01*
X00014605Y00006958D01*
X00014592Y00006929D01*
X00014576Y00006902D01*
X00014559Y00006876D01*
X00014539Y00006851D01*
X00014517Y00006828D01*
X00014494Y00006807D01*
X00014468Y00006788D01*
X00014442Y00006771D01*
X00014414Y00006756D01*
X00014385Y00006744D01*
X00014355Y00006734D01*
X00014325Y00006726D01*
X00014294Y00006721D01*
X00014263Y00006718D01*
X00014231Y00006717D01*
X00013330Y00006744D01*
X00013300Y00006746D01*
X00013270Y00006751D01*
X00013240Y00006758D01*
X00013211Y00006767D01*
X00013183Y00006778D01*
X00013156Y00006791D01*
X00013129Y00006806D01*
X00013105Y00006824D01*
X00013081Y00006843D01*
X00013059Y00006864D01*
X00013039Y00006886D01*
X00013020Y00006910D01*
X00013004Y00006936D01*
X00012989Y00006962D01*
X00012977Y00006990D01*
X00012966Y00007019D01*
X00012958Y00007048D01*
X00012953Y00007077D01*
X00012949Y00007108D01*
X00012948Y00007138D01*
X00012948Y00009790D01*
X00025153Y00034200D02*
X00025153Y00034200D01*
X00025154Y00034230D01*
X00025157Y00034260D01*
X00025163Y00034290D01*
X00025171Y00034319D01*
X00025182Y00034348D01*
X00025194Y00034375D01*
X00025209Y00034402D01*
X00025225Y00034427D01*
X00025244Y00034451D01*
X00025264Y00034474D01*
X00025286Y00034495D01*
X00025309Y00034514D01*
X00025334Y00034531D01*
X00025360Y00034547D01*
X00025388Y00034560D01*
X00025416Y00034571D01*
X00025445Y00034580D01*
X00025474Y00034587D01*
X00025504Y00034591D01*
X00025535Y00034593D01*
X00026436Y00034620D01*
X00026467Y00034620D01*
X00026499Y00034617D01*
X00026530Y00034612D01*
X00026560Y00034604D01*
X00026590Y00034594D01*
X00026619Y00034581D01*
X00026647Y00034566D01*
X00026673Y00034549D01*
X00026698Y00034530D01*
X00026722Y00034509D01*
X00026743Y00034486D01*
X00026763Y00034462D01*
X00026781Y00034436D01*
X00026797Y00034409D01*
X00026810Y00034380D01*
X00026821Y00034351D01*
X00026830Y00034320D01*
X00026836Y00034289D01*
X00026840Y00034258D01*
X00026841Y00034227D01*
X00026841Y00031127D01*
X00026840Y00031095D01*
X00026836Y00031064D01*
X00026830Y00031033D01*
X00026821Y00031003D01*
X00026810Y00030973D01*
X00026797Y00030945D01*
X00026781Y00030917D01*
X00026763Y00030891D01*
X00026743Y00030867D01*
X00026722Y00030844D01*
X00026698Y00030823D01*
X00026673Y00030804D01*
X00026647Y00030787D01*
X00026619Y00030772D01*
X00026590Y00030760D01*
X00026560Y00030749D01*
X00026530Y00030742D01*
X00026499Y00030736D01*
X00026467Y00030733D01*
X00026436Y00030733D01*
X00025535Y00030760D01*
X00025504Y00030762D01*
X00025474Y00030767D01*
X00025445Y00030773D01*
X00025416Y00030782D01*
X00025388Y00030793D01*
X00025360Y00030807D01*
X00025334Y00030822D01*
X00025309Y00030839D01*
X00025286Y00030859D01*
X00025264Y00030879D01*
X00025244Y00030902D01*
X00025225Y00030926D01*
X00025209Y00030951D01*
X00025194Y00030978D01*
X00025182Y00031006D01*
X00025171Y00031034D01*
X00025163Y00031063D01*
X00025157Y00031093D01*
X00025154Y00031123D01*
X00025153Y00031154D01*
X00025153Y00034200D01*
X00012948Y00029082D02*
X00012948Y00029082D01*
X00012949Y00029112D01*
X00012953Y00029142D01*
X00012958Y00029172D01*
X00012966Y00029201D01*
X00012977Y00029229D01*
X00012989Y00029257D01*
X00013004Y00029284D01*
X00013020Y00029309D01*
X00013039Y00029333D01*
X00013059Y00029356D01*
X00013081Y00029377D01*
X00013105Y00029396D01*
X00013129Y00029413D01*
X00013156Y00029429D01*
X00013183Y00029442D01*
X00013211Y00029453D01*
X00013240Y00029462D01*
X00013270Y00029469D01*
X00013300Y00029473D01*
X00013330Y00029475D01*
X00014231Y00029502D01*
X00014263Y00029502D01*
X00014294Y00029499D01*
X00014325Y00029494D01*
X00014355Y00029486D01*
X00014385Y00029476D01*
X00014414Y00029463D01*
X00014442Y00029448D01*
X00014468Y00029431D01*
X00014494Y00029412D01*
X00014517Y00029391D01*
X00014539Y00029368D01*
X00014559Y00029344D01*
X00014576Y00029318D01*
X00014592Y00029290D01*
X00014605Y00029262D01*
X00014617Y00029232D01*
X00014625Y00029202D01*
X00014631Y00029171D01*
X00014635Y00029140D01*
X00014637Y00029109D01*
X00014637Y00028070D01*
X00014649Y00027902D01*
X00014684Y00027737D01*
X00014743Y00027579D01*
X00014824Y00027431D01*
X00014925Y00027297D01*
X00015044Y00027177D01*
X00015179Y00027076D01*
X00015327Y00026996D01*
X00015485Y00026937D01*
X00015650Y00026901D01*
X00015818Y00026889D01*
X00018816Y00026889D01*
X00018850Y00026887D01*
X00018884Y00026883D01*
X00018918Y00026876D01*
X00018950Y00026865D01*
X00018982Y00026852D01*
X00019012Y00026836D01*
X00019041Y00026818D01*
X00019069Y00026797D01*
X00019094Y00026774D01*
X00019117Y00026749D01*
X00019138Y00026722D01*
X00019157Y00026693D01*
X00019172Y00026662D01*
X00019186Y00026631D01*
X00019196Y00026598D01*
X00019204Y00026564D01*
X00019208Y00026530D01*
X00019210Y00026496D01*
X00019208Y00026462D01*
X00019204Y00026428D01*
X00019073Y00025673D01*
X00019067Y00025646D01*
X00019060Y00025619D01*
X00019050Y00025593D01*
X00019039Y00025568D01*
X00019026Y00025544D01*
X00019012Y00025521D01*
X00018996Y00025498D01*
X00018978Y00025477D01*
X00018959Y00025457D01*
X00018939Y00025439D01*
X00018917Y00025422D01*
X00018894Y00025406D01*
X00018870Y00025393D01*
X00018846Y00025381D01*
X00018820Y00025370D01*
X00018794Y00025362D01*
X00018767Y00025355D01*
X00018740Y00025350D01*
X00018713Y00025347D01*
X00018685Y00025346D01*
X00015818Y00025346D01*
X00015650Y00025334D01*
X00015485Y00025299D01*
X00015327Y00025240D01*
X00015179Y00025159D01*
X00015044Y00025058D01*
X00014925Y00024939D01*
X00014824Y00024804D01*
X00014743Y00024656D01*
X00014684Y00024498D01*
X00014649Y00024333D01*
X00014637Y00024165D01*
X00014637Y00020941D01*
X00014635Y00020907D01*
X00014631Y00020874D01*
X00014624Y00020841D01*
X00014614Y00020809D01*
X00014601Y00020778D01*
X00014586Y00020748D01*
X00014568Y00020720D01*
X00014548Y00020693D01*
X00014526Y00020667D01*
X00014502Y00020644D01*
X00014476Y00020623D01*
X00014448Y00020605D01*
X00014418Y00020588D01*
X00014388Y00020575D01*
X00014356Y00020564D01*
X00014323Y00020556D01*
X00014290Y00020550D01*
X00014257Y00020547D01*
X00014223Y00020548D01*
X00014190Y00020551D01*
X00013289Y00020673D01*
X00013261Y00020678D01*
X00013233Y00020685D01*
X00013207Y00020693D01*
X00013180Y00020704D01*
X00013155Y00020717D01*
X00013131Y00020731D01*
X00013107Y00020747D01*
X00013085Y00020764D01*
X00013064Y00020784D01*
X00013045Y00020804D01*
X00013027Y00020826D01*
X00013011Y00020849D01*
X00012997Y00020874D01*
X00012984Y00020899D01*
X00012973Y00020925D01*
X00012964Y00020952D01*
X00012957Y00020979D01*
X00012952Y00021007D01*
X00012949Y00021035D01*
X00012948Y00021063D01*
X00012948Y00024165D01*
X00012936Y00024333D01*
X00012900Y00024498D01*
X00012841Y00024656D01*
X00012760Y00024804D01*
X00012659Y00024939D01*
X00012540Y00025058D01*
X00012405Y00025159D01*
X00012257Y00025240D01*
X00012100Y00025299D01*
X00011935Y00025334D01*
X00011767Y00025346D01*
X00008080Y00025346D01*
X00008056Y00025347D01*
X00008031Y00025350D01*
X00008006Y00025353D01*
X00007982Y00025359D01*
X00007958Y00025366D01*
X00007934Y00025375D01*
X00007911Y00025385D01*
X00007889Y00025396D01*
X00007868Y00025409D01*
X00007847Y00025423D01*
X00007828Y00025438D01*
X00007809Y00025455D01*
X00007791Y00025473D01*
X00007775Y00025492D01*
X00007760Y00025511D01*
X00007746Y00025532D01*
X00007734Y00025554D01*
X00007722Y00025576D01*
X00007713Y00025599D01*
X00007705Y00025623D01*
X00007469Y00026378D01*
X00007460Y00026414D01*
X00007454Y00026450D01*
X00007451Y00026487D01*
X00007452Y00026524D01*
X00007457Y00026560D01*
X00007464Y00026596D01*
X00007476Y00026631D01*
X00007490Y00026665D01*
X00007507Y00026698D01*
X00007528Y00026728D01*
X00007551Y00026757D01*
X00007577Y00026783D01*
X00007605Y00026807D01*
X00007635Y00026828D01*
X00007667Y00026846D01*
X00007701Y00026862D01*
X00007736Y00026873D01*
X00007772Y00026882D01*
X00007808Y00026887D01*
X00007845Y00026889D01*
X00011767Y00026889D01*
X00012948Y00028070D01*
X00012948Y00029082D01*
X00012948Y00034200D02*
X00012948Y00034200D01*
X00012949Y00034230D01*
X00012953Y00034260D01*
X00012958Y00034290D01*
X00012966Y00034319D01*
X00012977Y00034348D01*
X00012989Y00034375D01*
X00013004Y00034402D01*
X00013020Y00034427D01*
X00013039Y00034451D01*
X00013059Y00034474D01*
X00013081Y00034495D01*
X00013105Y00034514D01*
X00013129Y00034531D01*
X00013156Y00034547D01*
X00013183Y00034560D01*
X00013211Y00034571D01*
X00013240Y00034580D01*
X00013270Y00034587D01*
X00013300Y00034591D01*
X00013330Y00034593D01*
X00014231Y00034620D01*
X00014263Y00034620D01*
X00014294Y00034617D01*
X00014325Y00034612D01*
X00014355Y00034604D01*
X00014385Y00034594D01*
X00014414Y00034581D01*
X00014442Y00034566D01*
X00014468Y00034549D01*
X00014494Y00034530D01*
X00014517Y00034509D01*
X00014539Y00034486D01*
X00014559Y00034462D01*
X00014576Y00034436D01*
X00014592Y00034409D01*
X00014605Y00034380D01*
X00014617Y00034351D01*
X00014625Y00034320D01*
X00014631Y00034289D01*
X00014635Y00034258D01*
X00014637Y00034227D01*
X00014637Y00030733D01*
X00014635Y00030702D01*
X00014631Y00030670D01*
X00014625Y00030639D01*
X00014617Y00030609D01*
X00014605Y00030580D01*
X00014592Y00030551D01*
X00014576Y00030524D01*
X00014559Y00030498D01*
X00014539Y00030473D01*
X00014517Y00030450D01*
X00014494Y00030429D01*
X00014468Y00030410D01*
X00014442Y00030393D01*
X00014414Y00030379D01*
X00014385Y00030366D01*
X00014355Y00030356D01*
X00014325Y00030348D01*
X00014294Y00030343D01*
X00014263Y00030340D01*
X00014231Y00030339D01*
X00013330Y00030366D01*
X00013300Y00030369D01*
X00013270Y00030373D01*
X00013240Y00030380D01*
X00013211Y00030389D01*
X00013183Y00030400D01*
X00013156Y00030413D01*
X00013129Y00030428D01*
X00013105Y00030446D01*
X00013081Y00030465D01*
X00013059Y00030486D01*
X00013039Y00030508D01*
X00013020Y00030532D01*
X00013004Y00030558D01*
X00012989Y00030584D01*
X00012977Y00030612D01*
X00012966Y00030641D01*
X00012958Y00030670D01*
X00012953Y00030700D01*
X00012949Y00030730D01*
X00012948Y00030760D01*
X00012948Y00034200D01*
M02*