G04 #@! TF.GenerationSoftware,KiCad,Pcbnew,(5.1.2)-1*
G04 #@! TF.CreationDate,2019-11-08T13:50:46+05:30*
G04 #@! TF.ProjectId,TALK,54414c4b-2e6b-4696-9361-645f70636258,rev?*
G04 #@! TF.SameCoordinates,Original*
G04 #@! TF.FileFunction,Copper,L1,Top*
G04 #@! TF.FilePolarity,Positive*
%FSLAX46Y46*%
G04 Gerber Fmt 4.6, Leading zero omitted, Abs format (unit mm)*
G04 Created by KiCad (PCBNEW (5.1.2)-1) date 2019-11-08 13:50:46*
%MOMM*%
%LPD*%
G04 APERTURE LIST*
%ADD10C,0.100000*%
%ADD11C,0.300000*%
%ADD12R,2.100000X1.800000*%
%ADD13R,1.600000X0.550000*%
%ADD14R,0.550000X1.600000*%
%ADD15R,0.500000X0.800000*%
%ADD16R,0.400000X0.800000*%
%ADD17C,0.950000*%
%ADD18R,0.500000X1.850000*%
%ADD19C,0.600000*%
%ADD20C,0.200000*%
G04 APERTURE END LIST*
D10*
G36*
X142896351Y-97094361D02*
G01*
X142903632Y-97095441D01*
X142910771Y-97097229D01*
X142917701Y-97099709D01*
X142924355Y-97102856D01*
X142930668Y-97106640D01*
X142936579Y-97111024D01*
X142942033Y-97115967D01*
X142946976Y-97121421D01*
X142951360Y-97127332D01*
X142955144Y-97133645D01*
X142958291Y-97140299D01*
X142960771Y-97147229D01*
X142962559Y-97154368D01*
X142963639Y-97161649D01*
X142964000Y-97169000D01*
X142964000Y-97869000D01*
X142963639Y-97876351D01*
X142962559Y-97883632D01*
X142960771Y-97890771D01*
X142958291Y-97897701D01*
X142955144Y-97904355D01*
X142951360Y-97910668D01*
X142946976Y-97916579D01*
X142942033Y-97922033D01*
X142936579Y-97926976D01*
X142930668Y-97931360D01*
X142924355Y-97935144D01*
X142917701Y-97938291D01*
X142910771Y-97940771D01*
X142903632Y-97942559D01*
X142896351Y-97943639D01*
X142889000Y-97944000D01*
X142739000Y-97944000D01*
X142731649Y-97943639D01*
X142724368Y-97942559D01*
X142717229Y-97940771D01*
X142710299Y-97938291D01*
X142703645Y-97935144D01*
X142697332Y-97931360D01*
X142691421Y-97926976D01*
X142685967Y-97922033D01*
X142681024Y-97916579D01*
X142676640Y-97910668D01*
X142672856Y-97904355D01*
X142669709Y-97897701D01*
X142667229Y-97890771D01*
X142665441Y-97883632D01*
X142664361Y-97876351D01*
X142664000Y-97869000D01*
X142664000Y-97169000D01*
X142664361Y-97161649D01*
X142665441Y-97154368D01*
X142667229Y-97147229D01*
X142669709Y-97140299D01*
X142672856Y-97133645D01*
X142676640Y-97127332D01*
X142681024Y-97121421D01*
X142685967Y-97115967D01*
X142691421Y-97111024D01*
X142697332Y-97106640D01*
X142703645Y-97102856D01*
X142710299Y-97099709D01*
X142717229Y-97097229D01*
X142724368Y-97095441D01*
X142731649Y-97094361D01*
X142739000Y-97094000D01*
X142889000Y-97094000D01*
X142896351Y-97094361D01*
X142896351Y-97094361D01*
G37*
D11*
X142814000Y-97519000D03*
D10*
G36*
X143396351Y-97094361D02*
G01*
X143403632Y-97095441D01*
X143410771Y-97097229D01*
X143417701Y-97099709D01*
X143424355Y-97102856D01*
X143430668Y-97106640D01*
X143436579Y-97111024D01*
X143442033Y-97115967D01*
X143446976Y-97121421D01*
X143451360Y-97127332D01*
X143455144Y-97133645D01*
X143458291Y-97140299D01*
X143460771Y-97147229D01*
X143462559Y-97154368D01*
X143463639Y-97161649D01*
X143464000Y-97169000D01*
X143464000Y-97869000D01*
X143463639Y-97876351D01*
X143462559Y-97883632D01*
X143460771Y-97890771D01*
X143458291Y-97897701D01*
X143455144Y-97904355D01*
X143451360Y-97910668D01*
X143446976Y-97916579D01*
X143442033Y-97922033D01*
X143436579Y-97926976D01*
X143430668Y-97931360D01*
X143424355Y-97935144D01*
X143417701Y-97938291D01*
X143410771Y-97940771D01*
X143403632Y-97942559D01*
X143396351Y-97943639D01*
X143389000Y-97944000D01*
X143239000Y-97944000D01*
X143231649Y-97943639D01*
X143224368Y-97942559D01*
X143217229Y-97940771D01*
X143210299Y-97938291D01*
X143203645Y-97935144D01*
X143197332Y-97931360D01*
X143191421Y-97926976D01*
X143185967Y-97922033D01*
X143181024Y-97916579D01*
X143176640Y-97910668D01*
X143172856Y-97904355D01*
X143169709Y-97897701D01*
X143167229Y-97890771D01*
X143165441Y-97883632D01*
X143164361Y-97876351D01*
X143164000Y-97869000D01*
X143164000Y-97169000D01*
X143164361Y-97161649D01*
X143165441Y-97154368D01*
X143167229Y-97147229D01*
X143169709Y-97140299D01*
X143172856Y-97133645D01*
X143176640Y-97127332D01*
X143181024Y-97121421D01*
X143185967Y-97115967D01*
X143191421Y-97111024D01*
X143197332Y-97106640D01*
X143203645Y-97102856D01*
X143210299Y-97099709D01*
X143217229Y-97097229D01*
X143224368Y-97095441D01*
X143231649Y-97094361D01*
X143239000Y-97094000D01*
X143389000Y-97094000D01*
X143396351Y-97094361D01*
X143396351Y-97094361D01*
G37*
D11*
X143314000Y-97519000D03*
D10*
G36*
X143896351Y-97094361D02*
G01*
X143903632Y-97095441D01*
X143910771Y-97097229D01*
X143917701Y-97099709D01*
X143924355Y-97102856D01*
X143930668Y-97106640D01*
X143936579Y-97111024D01*
X143942033Y-97115967D01*
X143946976Y-97121421D01*
X143951360Y-97127332D01*
X143955144Y-97133645D01*
X143958291Y-97140299D01*
X143960771Y-97147229D01*
X143962559Y-97154368D01*
X143963639Y-97161649D01*
X143964000Y-97169000D01*
X143964000Y-97869000D01*
X143963639Y-97876351D01*
X143962559Y-97883632D01*
X143960771Y-97890771D01*
X143958291Y-97897701D01*
X143955144Y-97904355D01*
X143951360Y-97910668D01*
X143946976Y-97916579D01*
X143942033Y-97922033D01*
X143936579Y-97926976D01*
X143930668Y-97931360D01*
X143924355Y-97935144D01*
X143917701Y-97938291D01*
X143910771Y-97940771D01*
X143903632Y-97942559D01*
X143896351Y-97943639D01*
X143889000Y-97944000D01*
X143739000Y-97944000D01*
X143731649Y-97943639D01*
X143724368Y-97942559D01*
X143717229Y-97940771D01*
X143710299Y-97938291D01*
X143703645Y-97935144D01*
X143697332Y-97931360D01*
X143691421Y-97926976D01*
X143685967Y-97922033D01*
X143681024Y-97916579D01*
X143676640Y-97910668D01*
X143672856Y-97904355D01*
X143669709Y-97897701D01*
X143667229Y-97890771D01*
X143665441Y-97883632D01*
X143664361Y-97876351D01*
X143664000Y-97869000D01*
X143664000Y-97169000D01*
X143664361Y-97161649D01*
X143665441Y-97154368D01*
X143667229Y-97147229D01*
X143669709Y-97140299D01*
X143672856Y-97133645D01*
X143676640Y-97127332D01*
X143681024Y-97121421D01*
X143685967Y-97115967D01*
X143691421Y-97111024D01*
X143697332Y-97106640D01*
X143703645Y-97102856D01*
X143710299Y-97099709D01*
X143717229Y-97097229D01*
X143724368Y-97095441D01*
X143731649Y-97094361D01*
X143739000Y-97094000D01*
X143889000Y-97094000D01*
X143896351Y-97094361D01*
X143896351Y-97094361D01*
G37*
D11*
X143814000Y-97519000D03*
D10*
G36*
X144396351Y-97094361D02*
G01*
X144403632Y-97095441D01*
X144410771Y-97097229D01*
X144417701Y-97099709D01*
X144424355Y-97102856D01*
X144430668Y-97106640D01*
X144436579Y-97111024D01*
X144442033Y-97115967D01*
X144446976Y-97121421D01*
X144451360Y-97127332D01*
X144455144Y-97133645D01*
X144458291Y-97140299D01*
X144460771Y-97147229D01*
X144462559Y-97154368D01*
X144463639Y-97161649D01*
X144464000Y-97169000D01*
X144464000Y-97869000D01*
X144463639Y-97876351D01*
X144462559Y-97883632D01*
X144460771Y-97890771D01*
X144458291Y-97897701D01*
X144455144Y-97904355D01*
X144451360Y-97910668D01*
X144446976Y-97916579D01*
X144442033Y-97922033D01*
X144436579Y-97926976D01*
X144430668Y-97931360D01*
X144424355Y-97935144D01*
X144417701Y-97938291D01*
X144410771Y-97940771D01*
X144403632Y-97942559D01*
X144396351Y-97943639D01*
X144389000Y-97944000D01*
X144239000Y-97944000D01*
X144231649Y-97943639D01*
X144224368Y-97942559D01*
X144217229Y-97940771D01*
X144210299Y-97938291D01*
X144203645Y-97935144D01*
X144197332Y-97931360D01*
X144191421Y-97926976D01*
X144185967Y-97922033D01*
X144181024Y-97916579D01*
X144176640Y-97910668D01*
X144172856Y-97904355D01*
X144169709Y-97897701D01*
X144167229Y-97890771D01*
X144165441Y-97883632D01*
X144164361Y-97876351D01*
X144164000Y-97869000D01*
X144164000Y-97169000D01*
X144164361Y-97161649D01*
X144165441Y-97154368D01*
X144167229Y-97147229D01*
X144169709Y-97140299D01*
X144172856Y-97133645D01*
X144176640Y-97127332D01*
X144181024Y-97121421D01*
X144185967Y-97115967D01*
X144191421Y-97111024D01*
X144197332Y-97106640D01*
X144203645Y-97102856D01*
X144210299Y-97099709D01*
X144217229Y-97097229D01*
X144224368Y-97095441D01*
X144231649Y-97094361D01*
X144239000Y-97094000D01*
X144389000Y-97094000D01*
X144396351Y-97094361D01*
X144396351Y-97094361D01*
G37*
D11*
X144314000Y-97519000D03*
D10*
G36*
X144896351Y-97094361D02*
G01*
X144903632Y-97095441D01*
X144910771Y-97097229D01*
X144917701Y-97099709D01*
X144924355Y-97102856D01*
X144930668Y-97106640D01*
X144936579Y-97111024D01*
X144942033Y-97115967D01*
X144946976Y-97121421D01*
X144951360Y-97127332D01*
X144955144Y-97133645D01*
X144958291Y-97140299D01*
X144960771Y-97147229D01*
X144962559Y-97154368D01*
X144963639Y-97161649D01*
X144964000Y-97169000D01*
X144964000Y-97869000D01*
X144963639Y-97876351D01*
X144962559Y-97883632D01*
X144960771Y-97890771D01*
X144958291Y-97897701D01*
X144955144Y-97904355D01*
X144951360Y-97910668D01*
X144946976Y-97916579D01*
X144942033Y-97922033D01*
X144936579Y-97926976D01*
X144930668Y-97931360D01*
X144924355Y-97935144D01*
X144917701Y-97938291D01*
X144910771Y-97940771D01*
X144903632Y-97942559D01*
X144896351Y-97943639D01*
X144889000Y-97944000D01*
X144739000Y-97944000D01*
X144731649Y-97943639D01*
X144724368Y-97942559D01*
X144717229Y-97940771D01*
X144710299Y-97938291D01*
X144703645Y-97935144D01*
X144697332Y-97931360D01*
X144691421Y-97926976D01*
X144685967Y-97922033D01*
X144681024Y-97916579D01*
X144676640Y-97910668D01*
X144672856Y-97904355D01*
X144669709Y-97897701D01*
X144667229Y-97890771D01*
X144665441Y-97883632D01*
X144664361Y-97876351D01*
X144664000Y-97869000D01*
X144664000Y-97169000D01*
X144664361Y-97161649D01*
X144665441Y-97154368D01*
X144667229Y-97147229D01*
X144669709Y-97140299D01*
X144672856Y-97133645D01*
X144676640Y-97127332D01*
X144681024Y-97121421D01*
X144685967Y-97115967D01*
X144691421Y-97111024D01*
X144697332Y-97106640D01*
X144703645Y-97102856D01*
X144710299Y-97099709D01*
X144717229Y-97097229D01*
X144724368Y-97095441D01*
X144731649Y-97094361D01*
X144739000Y-97094000D01*
X144889000Y-97094000D01*
X144896351Y-97094361D01*
X144896351Y-97094361D01*
G37*
D11*
X144814000Y-97519000D03*
D10*
G36*
X145396351Y-97094361D02*
G01*
X145403632Y-97095441D01*
X145410771Y-97097229D01*
X145417701Y-97099709D01*
X145424355Y-97102856D01*
X145430668Y-97106640D01*
X145436579Y-97111024D01*
X145442033Y-97115967D01*
X145446976Y-97121421D01*
X145451360Y-97127332D01*
X145455144Y-97133645D01*
X145458291Y-97140299D01*
X145460771Y-97147229D01*
X145462559Y-97154368D01*
X145463639Y-97161649D01*
X145464000Y-97169000D01*
X145464000Y-97869000D01*
X145463639Y-97876351D01*
X145462559Y-97883632D01*
X145460771Y-97890771D01*
X145458291Y-97897701D01*
X145455144Y-97904355D01*
X145451360Y-97910668D01*
X145446976Y-97916579D01*
X145442033Y-97922033D01*
X145436579Y-97926976D01*
X145430668Y-97931360D01*
X145424355Y-97935144D01*
X145417701Y-97938291D01*
X145410771Y-97940771D01*
X145403632Y-97942559D01*
X145396351Y-97943639D01*
X145389000Y-97944000D01*
X145239000Y-97944000D01*
X145231649Y-97943639D01*
X145224368Y-97942559D01*
X145217229Y-97940771D01*
X145210299Y-97938291D01*
X145203645Y-97935144D01*
X145197332Y-97931360D01*
X145191421Y-97926976D01*
X145185967Y-97922033D01*
X145181024Y-97916579D01*
X145176640Y-97910668D01*
X145172856Y-97904355D01*
X145169709Y-97897701D01*
X145167229Y-97890771D01*
X145165441Y-97883632D01*
X145164361Y-97876351D01*
X145164000Y-97869000D01*
X145164000Y-97169000D01*
X145164361Y-97161649D01*
X145165441Y-97154368D01*
X145167229Y-97147229D01*
X145169709Y-97140299D01*
X145172856Y-97133645D01*
X145176640Y-97127332D01*
X145181024Y-97121421D01*
X145185967Y-97115967D01*
X145191421Y-97111024D01*
X145197332Y-97106640D01*
X145203645Y-97102856D01*
X145210299Y-97099709D01*
X145217229Y-97097229D01*
X145224368Y-97095441D01*
X145231649Y-97094361D01*
X145239000Y-97094000D01*
X145389000Y-97094000D01*
X145396351Y-97094361D01*
X145396351Y-97094361D01*
G37*
D11*
X145314000Y-97519000D03*
D10*
G36*
X146371351Y-98069361D02*
G01*
X146378632Y-98070441D01*
X146385771Y-98072229D01*
X146392701Y-98074709D01*
X146399355Y-98077856D01*
X146405668Y-98081640D01*
X146411579Y-98086024D01*
X146417033Y-98090967D01*
X146421976Y-98096421D01*
X146426360Y-98102332D01*
X146430144Y-98108645D01*
X146433291Y-98115299D01*
X146435771Y-98122229D01*
X146437559Y-98129368D01*
X146438639Y-98136649D01*
X146439000Y-98144000D01*
X146439000Y-98294000D01*
X146438639Y-98301351D01*
X146437559Y-98308632D01*
X146435771Y-98315771D01*
X146433291Y-98322701D01*
X146430144Y-98329355D01*
X146426360Y-98335668D01*
X146421976Y-98341579D01*
X146417033Y-98347033D01*
X146411579Y-98351976D01*
X146405668Y-98356360D01*
X146399355Y-98360144D01*
X146392701Y-98363291D01*
X146385771Y-98365771D01*
X146378632Y-98367559D01*
X146371351Y-98368639D01*
X146364000Y-98369000D01*
X145664000Y-98369000D01*
X145656649Y-98368639D01*
X145649368Y-98367559D01*
X145642229Y-98365771D01*
X145635299Y-98363291D01*
X145628645Y-98360144D01*
X145622332Y-98356360D01*
X145616421Y-98351976D01*
X145610967Y-98347033D01*
X145606024Y-98341579D01*
X145601640Y-98335668D01*
X145597856Y-98329355D01*
X145594709Y-98322701D01*
X145592229Y-98315771D01*
X145590441Y-98308632D01*
X145589361Y-98301351D01*
X145589000Y-98294000D01*
X145589000Y-98144000D01*
X145589361Y-98136649D01*
X145590441Y-98129368D01*
X145592229Y-98122229D01*
X145594709Y-98115299D01*
X145597856Y-98108645D01*
X145601640Y-98102332D01*
X145606024Y-98096421D01*
X145610967Y-98090967D01*
X145616421Y-98086024D01*
X145622332Y-98081640D01*
X145628645Y-98077856D01*
X145635299Y-98074709D01*
X145642229Y-98072229D01*
X145649368Y-98070441D01*
X145656649Y-98069361D01*
X145664000Y-98069000D01*
X146364000Y-98069000D01*
X146371351Y-98069361D01*
X146371351Y-98069361D01*
G37*
D11*
X146014000Y-98219000D03*
D10*
G36*
X146371351Y-98569361D02*
G01*
X146378632Y-98570441D01*
X146385771Y-98572229D01*
X146392701Y-98574709D01*
X146399355Y-98577856D01*
X146405668Y-98581640D01*
X146411579Y-98586024D01*
X146417033Y-98590967D01*
X146421976Y-98596421D01*
X146426360Y-98602332D01*
X146430144Y-98608645D01*
X146433291Y-98615299D01*
X146435771Y-98622229D01*
X146437559Y-98629368D01*
X146438639Y-98636649D01*
X146439000Y-98644000D01*
X146439000Y-98794000D01*
X146438639Y-98801351D01*
X146437559Y-98808632D01*
X146435771Y-98815771D01*
X146433291Y-98822701D01*
X146430144Y-98829355D01*
X146426360Y-98835668D01*
X146421976Y-98841579D01*
X146417033Y-98847033D01*
X146411579Y-98851976D01*
X146405668Y-98856360D01*
X146399355Y-98860144D01*
X146392701Y-98863291D01*
X146385771Y-98865771D01*
X146378632Y-98867559D01*
X146371351Y-98868639D01*
X146364000Y-98869000D01*
X145664000Y-98869000D01*
X145656649Y-98868639D01*
X145649368Y-98867559D01*
X145642229Y-98865771D01*
X145635299Y-98863291D01*
X145628645Y-98860144D01*
X145622332Y-98856360D01*
X145616421Y-98851976D01*
X145610967Y-98847033D01*
X145606024Y-98841579D01*
X145601640Y-98835668D01*
X145597856Y-98829355D01*
X145594709Y-98822701D01*
X145592229Y-98815771D01*
X145590441Y-98808632D01*
X145589361Y-98801351D01*
X145589000Y-98794000D01*
X145589000Y-98644000D01*
X145589361Y-98636649D01*
X145590441Y-98629368D01*
X145592229Y-98622229D01*
X145594709Y-98615299D01*
X145597856Y-98608645D01*
X145601640Y-98602332D01*
X145606024Y-98596421D01*
X145610967Y-98590967D01*
X145616421Y-98586024D01*
X145622332Y-98581640D01*
X145628645Y-98577856D01*
X145635299Y-98574709D01*
X145642229Y-98572229D01*
X145649368Y-98570441D01*
X145656649Y-98569361D01*
X145664000Y-98569000D01*
X146364000Y-98569000D01*
X146371351Y-98569361D01*
X146371351Y-98569361D01*
G37*
D11*
X146014000Y-98719000D03*
D10*
G36*
X146371351Y-99069361D02*
G01*
X146378632Y-99070441D01*
X146385771Y-99072229D01*
X146392701Y-99074709D01*
X146399355Y-99077856D01*
X146405668Y-99081640D01*
X146411579Y-99086024D01*
X146417033Y-99090967D01*
X146421976Y-99096421D01*
X146426360Y-99102332D01*
X146430144Y-99108645D01*
X146433291Y-99115299D01*
X146435771Y-99122229D01*
X146437559Y-99129368D01*
X146438639Y-99136649D01*
X146439000Y-99144000D01*
X146439000Y-99294000D01*
X146438639Y-99301351D01*
X146437559Y-99308632D01*
X146435771Y-99315771D01*
X146433291Y-99322701D01*
X146430144Y-99329355D01*
X146426360Y-99335668D01*
X146421976Y-99341579D01*
X146417033Y-99347033D01*
X146411579Y-99351976D01*
X146405668Y-99356360D01*
X146399355Y-99360144D01*
X146392701Y-99363291D01*
X146385771Y-99365771D01*
X146378632Y-99367559D01*
X146371351Y-99368639D01*
X146364000Y-99369000D01*
X145664000Y-99369000D01*
X145656649Y-99368639D01*
X145649368Y-99367559D01*
X145642229Y-99365771D01*
X145635299Y-99363291D01*
X145628645Y-99360144D01*
X145622332Y-99356360D01*
X145616421Y-99351976D01*
X145610967Y-99347033D01*
X145606024Y-99341579D01*
X145601640Y-99335668D01*
X145597856Y-99329355D01*
X145594709Y-99322701D01*
X145592229Y-99315771D01*
X145590441Y-99308632D01*
X145589361Y-99301351D01*
X145589000Y-99294000D01*
X145589000Y-99144000D01*
X145589361Y-99136649D01*
X145590441Y-99129368D01*
X145592229Y-99122229D01*
X145594709Y-99115299D01*
X145597856Y-99108645D01*
X145601640Y-99102332D01*
X145606024Y-99096421D01*
X145610967Y-99090967D01*
X145616421Y-99086024D01*
X145622332Y-99081640D01*
X145628645Y-99077856D01*
X145635299Y-99074709D01*
X145642229Y-99072229D01*
X145649368Y-99070441D01*
X145656649Y-99069361D01*
X145664000Y-99069000D01*
X146364000Y-99069000D01*
X146371351Y-99069361D01*
X146371351Y-99069361D01*
G37*
D11*
X146014000Y-99219000D03*
D10*
G36*
X146371351Y-99569361D02*
G01*
X146378632Y-99570441D01*
X146385771Y-99572229D01*
X146392701Y-99574709D01*
X146399355Y-99577856D01*
X146405668Y-99581640D01*
X146411579Y-99586024D01*
X146417033Y-99590967D01*
X146421976Y-99596421D01*
X146426360Y-99602332D01*
X146430144Y-99608645D01*
X146433291Y-99615299D01*
X146435771Y-99622229D01*
X146437559Y-99629368D01*
X146438639Y-99636649D01*
X146439000Y-99644000D01*
X146439000Y-99794000D01*
X146438639Y-99801351D01*
X146437559Y-99808632D01*
X146435771Y-99815771D01*
X146433291Y-99822701D01*
X146430144Y-99829355D01*
X146426360Y-99835668D01*
X146421976Y-99841579D01*
X146417033Y-99847033D01*
X146411579Y-99851976D01*
X146405668Y-99856360D01*
X146399355Y-99860144D01*
X146392701Y-99863291D01*
X146385771Y-99865771D01*
X146378632Y-99867559D01*
X146371351Y-99868639D01*
X146364000Y-99869000D01*
X145664000Y-99869000D01*
X145656649Y-99868639D01*
X145649368Y-99867559D01*
X145642229Y-99865771D01*
X145635299Y-99863291D01*
X145628645Y-99860144D01*
X145622332Y-99856360D01*
X145616421Y-99851976D01*
X145610967Y-99847033D01*
X145606024Y-99841579D01*
X145601640Y-99835668D01*
X145597856Y-99829355D01*
X145594709Y-99822701D01*
X145592229Y-99815771D01*
X145590441Y-99808632D01*
X145589361Y-99801351D01*
X145589000Y-99794000D01*
X145589000Y-99644000D01*
X145589361Y-99636649D01*
X145590441Y-99629368D01*
X145592229Y-99622229D01*
X145594709Y-99615299D01*
X145597856Y-99608645D01*
X145601640Y-99602332D01*
X145606024Y-99596421D01*
X145610967Y-99590967D01*
X145616421Y-99586024D01*
X145622332Y-99581640D01*
X145628645Y-99577856D01*
X145635299Y-99574709D01*
X145642229Y-99572229D01*
X145649368Y-99570441D01*
X145656649Y-99569361D01*
X145664000Y-99569000D01*
X146364000Y-99569000D01*
X146371351Y-99569361D01*
X146371351Y-99569361D01*
G37*
D11*
X146014000Y-99719000D03*
D10*
G36*
X146371351Y-100069361D02*
G01*
X146378632Y-100070441D01*
X146385771Y-100072229D01*
X146392701Y-100074709D01*
X146399355Y-100077856D01*
X146405668Y-100081640D01*
X146411579Y-100086024D01*
X146417033Y-100090967D01*
X146421976Y-100096421D01*
X146426360Y-100102332D01*
X146430144Y-100108645D01*
X146433291Y-100115299D01*
X146435771Y-100122229D01*
X146437559Y-100129368D01*
X146438639Y-100136649D01*
X146439000Y-100144000D01*
X146439000Y-100294000D01*
X146438639Y-100301351D01*
X146437559Y-100308632D01*
X146435771Y-100315771D01*
X146433291Y-100322701D01*
X146430144Y-100329355D01*
X146426360Y-100335668D01*
X146421976Y-100341579D01*
X146417033Y-100347033D01*
X146411579Y-100351976D01*
X146405668Y-100356360D01*
X146399355Y-100360144D01*
X146392701Y-100363291D01*
X146385771Y-100365771D01*
X146378632Y-100367559D01*
X146371351Y-100368639D01*
X146364000Y-100369000D01*
X145664000Y-100369000D01*
X145656649Y-100368639D01*
X145649368Y-100367559D01*
X145642229Y-100365771D01*
X145635299Y-100363291D01*
X145628645Y-100360144D01*
X145622332Y-100356360D01*
X145616421Y-100351976D01*
X145610967Y-100347033D01*
X145606024Y-100341579D01*
X145601640Y-100335668D01*
X145597856Y-100329355D01*
X145594709Y-100322701D01*
X145592229Y-100315771D01*
X145590441Y-100308632D01*
X145589361Y-100301351D01*
X145589000Y-100294000D01*
X145589000Y-100144000D01*
X145589361Y-100136649D01*
X145590441Y-100129368D01*
X145592229Y-100122229D01*
X145594709Y-100115299D01*
X145597856Y-100108645D01*
X145601640Y-100102332D01*
X145606024Y-100096421D01*
X145610967Y-100090967D01*
X145616421Y-100086024D01*
X145622332Y-100081640D01*
X145628645Y-100077856D01*
X145635299Y-100074709D01*
X145642229Y-100072229D01*
X145649368Y-100070441D01*
X145656649Y-100069361D01*
X145664000Y-100069000D01*
X146364000Y-100069000D01*
X146371351Y-100069361D01*
X146371351Y-100069361D01*
G37*
D11*
X146014000Y-100219000D03*
D10*
G36*
X146371351Y-100569361D02*
G01*
X146378632Y-100570441D01*
X146385771Y-100572229D01*
X146392701Y-100574709D01*
X146399355Y-100577856D01*
X146405668Y-100581640D01*
X146411579Y-100586024D01*
X146417033Y-100590967D01*
X146421976Y-100596421D01*
X146426360Y-100602332D01*
X146430144Y-100608645D01*
X146433291Y-100615299D01*
X146435771Y-100622229D01*
X146437559Y-100629368D01*
X146438639Y-100636649D01*
X146439000Y-100644000D01*
X146439000Y-100794000D01*
X146438639Y-100801351D01*
X146437559Y-100808632D01*
X146435771Y-100815771D01*
X146433291Y-100822701D01*
X146430144Y-100829355D01*
X146426360Y-100835668D01*
X146421976Y-100841579D01*
X146417033Y-100847033D01*
X146411579Y-100851976D01*
X146405668Y-100856360D01*
X146399355Y-100860144D01*
X146392701Y-100863291D01*
X146385771Y-100865771D01*
X146378632Y-100867559D01*
X146371351Y-100868639D01*
X146364000Y-100869000D01*
X145664000Y-100869000D01*
X145656649Y-100868639D01*
X145649368Y-100867559D01*
X145642229Y-100865771D01*
X145635299Y-100863291D01*
X145628645Y-100860144D01*
X145622332Y-100856360D01*
X145616421Y-100851976D01*
X145610967Y-100847033D01*
X145606024Y-100841579D01*
X145601640Y-100835668D01*
X145597856Y-100829355D01*
X145594709Y-100822701D01*
X145592229Y-100815771D01*
X145590441Y-100808632D01*
X145589361Y-100801351D01*
X145589000Y-100794000D01*
X145589000Y-100644000D01*
X145589361Y-100636649D01*
X145590441Y-100629368D01*
X145592229Y-100622229D01*
X145594709Y-100615299D01*
X145597856Y-100608645D01*
X145601640Y-100602332D01*
X145606024Y-100596421D01*
X145610967Y-100590967D01*
X145616421Y-100586024D01*
X145622332Y-100581640D01*
X145628645Y-100577856D01*
X145635299Y-100574709D01*
X145642229Y-100572229D01*
X145649368Y-100570441D01*
X145656649Y-100569361D01*
X145664000Y-100569000D01*
X146364000Y-100569000D01*
X146371351Y-100569361D01*
X146371351Y-100569361D01*
G37*
D11*
X146014000Y-100719000D03*
D10*
G36*
X145396351Y-100994361D02*
G01*
X145403632Y-100995441D01*
X145410771Y-100997229D01*
X145417701Y-100999709D01*
X145424355Y-101002856D01*
X145430668Y-101006640D01*
X145436579Y-101011024D01*
X145442033Y-101015967D01*
X145446976Y-101021421D01*
X145451360Y-101027332D01*
X145455144Y-101033645D01*
X145458291Y-101040299D01*
X145460771Y-101047229D01*
X145462559Y-101054368D01*
X145463639Y-101061649D01*
X145464000Y-101069000D01*
X145464000Y-101769000D01*
X145463639Y-101776351D01*
X145462559Y-101783632D01*
X145460771Y-101790771D01*
X145458291Y-101797701D01*
X145455144Y-101804355D01*
X145451360Y-101810668D01*
X145446976Y-101816579D01*
X145442033Y-101822033D01*
X145436579Y-101826976D01*
X145430668Y-101831360D01*
X145424355Y-101835144D01*
X145417701Y-101838291D01*
X145410771Y-101840771D01*
X145403632Y-101842559D01*
X145396351Y-101843639D01*
X145389000Y-101844000D01*
X145239000Y-101844000D01*
X145231649Y-101843639D01*
X145224368Y-101842559D01*
X145217229Y-101840771D01*
X145210299Y-101838291D01*
X145203645Y-101835144D01*
X145197332Y-101831360D01*
X145191421Y-101826976D01*
X145185967Y-101822033D01*
X145181024Y-101816579D01*
X145176640Y-101810668D01*
X145172856Y-101804355D01*
X145169709Y-101797701D01*
X145167229Y-101790771D01*
X145165441Y-101783632D01*
X145164361Y-101776351D01*
X145164000Y-101769000D01*
X145164000Y-101069000D01*
X145164361Y-101061649D01*
X145165441Y-101054368D01*
X145167229Y-101047229D01*
X145169709Y-101040299D01*
X145172856Y-101033645D01*
X145176640Y-101027332D01*
X145181024Y-101021421D01*
X145185967Y-101015967D01*
X145191421Y-101011024D01*
X145197332Y-101006640D01*
X145203645Y-101002856D01*
X145210299Y-100999709D01*
X145217229Y-100997229D01*
X145224368Y-100995441D01*
X145231649Y-100994361D01*
X145239000Y-100994000D01*
X145389000Y-100994000D01*
X145396351Y-100994361D01*
X145396351Y-100994361D01*
G37*
D11*
X145314000Y-101419000D03*
D10*
G36*
X144896351Y-100994361D02*
G01*
X144903632Y-100995441D01*
X144910771Y-100997229D01*
X144917701Y-100999709D01*
X144924355Y-101002856D01*
X144930668Y-101006640D01*
X144936579Y-101011024D01*
X144942033Y-101015967D01*
X144946976Y-101021421D01*
X144951360Y-101027332D01*
X144955144Y-101033645D01*
X144958291Y-101040299D01*
X144960771Y-101047229D01*
X144962559Y-101054368D01*
X144963639Y-101061649D01*
X144964000Y-101069000D01*
X144964000Y-101769000D01*
X144963639Y-101776351D01*
X144962559Y-101783632D01*
X144960771Y-101790771D01*
X144958291Y-101797701D01*
X144955144Y-101804355D01*
X144951360Y-101810668D01*
X144946976Y-101816579D01*
X144942033Y-101822033D01*
X144936579Y-101826976D01*
X144930668Y-101831360D01*
X144924355Y-101835144D01*
X144917701Y-101838291D01*
X144910771Y-101840771D01*
X144903632Y-101842559D01*
X144896351Y-101843639D01*
X144889000Y-101844000D01*
X144739000Y-101844000D01*
X144731649Y-101843639D01*
X144724368Y-101842559D01*
X144717229Y-101840771D01*
X144710299Y-101838291D01*
X144703645Y-101835144D01*
X144697332Y-101831360D01*
X144691421Y-101826976D01*
X144685967Y-101822033D01*
X144681024Y-101816579D01*
X144676640Y-101810668D01*
X144672856Y-101804355D01*
X144669709Y-101797701D01*
X144667229Y-101790771D01*
X144665441Y-101783632D01*
X144664361Y-101776351D01*
X144664000Y-101769000D01*
X144664000Y-101069000D01*
X144664361Y-101061649D01*
X144665441Y-101054368D01*
X144667229Y-101047229D01*
X144669709Y-101040299D01*
X144672856Y-101033645D01*
X144676640Y-101027332D01*
X144681024Y-101021421D01*
X144685967Y-101015967D01*
X144691421Y-101011024D01*
X144697332Y-101006640D01*
X144703645Y-101002856D01*
X144710299Y-100999709D01*
X144717229Y-100997229D01*
X144724368Y-100995441D01*
X144731649Y-100994361D01*
X144739000Y-100994000D01*
X144889000Y-100994000D01*
X144896351Y-100994361D01*
X144896351Y-100994361D01*
G37*
D11*
X144814000Y-101419000D03*
D10*
G36*
X144396351Y-100994361D02*
G01*
X144403632Y-100995441D01*
X144410771Y-100997229D01*
X144417701Y-100999709D01*
X144424355Y-101002856D01*
X144430668Y-101006640D01*
X144436579Y-101011024D01*
X144442033Y-101015967D01*
X144446976Y-101021421D01*
X144451360Y-101027332D01*
X144455144Y-101033645D01*
X144458291Y-101040299D01*
X144460771Y-101047229D01*
X144462559Y-101054368D01*
X144463639Y-101061649D01*
X144464000Y-101069000D01*
X144464000Y-101769000D01*
X144463639Y-101776351D01*
X144462559Y-101783632D01*
X144460771Y-101790771D01*
X144458291Y-101797701D01*
X144455144Y-101804355D01*
X144451360Y-101810668D01*
X144446976Y-101816579D01*
X144442033Y-101822033D01*
X144436579Y-101826976D01*
X144430668Y-101831360D01*
X144424355Y-101835144D01*
X144417701Y-101838291D01*
X144410771Y-101840771D01*
X144403632Y-101842559D01*
X144396351Y-101843639D01*
X144389000Y-101844000D01*
X144239000Y-101844000D01*
X144231649Y-101843639D01*
X144224368Y-101842559D01*
X144217229Y-101840771D01*
X144210299Y-101838291D01*
X144203645Y-101835144D01*
X144197332Y-101831360D01*
X144191421Y-101826976D01*
X144185967Y-101822033D01*
X144181024Y-101816579D01*
X144176640Y-101810668D01*
X144172856Y-101804355D01*
X144169709Y-101797701D01*
X144167229Y-101790771D01*
X144165441Y-101783632D01*
X144164361Y-101776351D01*
X144164000Y-101769000D01*
X144164000Y-101069000D01*
X144164361Y-101061649D01*
X144165441Y-101054368D01*
X144167229Y-101047229D01*
X144169709Y-101040299D01*
X144172856Y-101033645D01*
X144176640Y-101027332D01*
X144181024Y-101021421D01*
X144185967Y-101015967D01*
X144191421Y-101011024D01*
X144197332Y-101006640D01*
X144203645Y-101002856D01*
X144210299Y-100999709D01*
X144217229Y-100997229D01*
X144224368Y-100995441D01*
X144231649Y-100994361D01*
X144239000Y-100994000D01*
X144389000Y-100994000D01*
X144396351Y-100994361D01*
X144396351Y-100994361D01*
G37*
D11*
X144314000Y-101419000D03*
D10*
G36*
X143896351Y-100994361D02*
G01*
X143903632Y-100995441D01*
X143910771Y-100997229D01*
X143917701Y-100999709D01*
X143924355Y-101002856D01*
X143930668Y-101006640D01*
X143936579Y-101011024D01*
X143942033Y-101015967D01*
X143946976Y-101021421D01*
X143951360Y-101027332D01*
X143955144Y-101033645D01*
X143958291Y-101040299D01*
X143960771Y-101047229D01*
X143962559Y-101054368D01*
X143963639Y-101061649D01*
X143964000Y-101069000D01*
X143964000Y-101769000D01*
X143963639Y-101776351D01*
X143962559Y-101783632D01*
X143960771Y-101790771D01*
X143958291Y-101797701D01*
X143955144Y-101804355D01*
X143951360Y-101810668D01*
X143946976Y-101816579D01*
X143942033Y-101822033D01*
X143936579Y-101826976D01*
X143930668Y-101831360D01*
X143924355Y-101835144D01*
X143917701Y-101838291D01*
X143910771Y-101840771D01*
X143903632Y-101842559D01*
X143896351Y-101843639D01*
X143889000Y-101844000D01*
X143739000Y-101844000D01*
X143731649Y-101843639D01*
X143724368Y-101842559D01*
X143717229Y-101840771D01*
X143710299Y-101838291D01*
X143703645Y-101835144D01*
X143697332Y-101831360D01*
X143691421Y-101826976D01*
X143685967Y-101822033D01*
X143681024Y-101816579D01*
X143676640Y-101810668D01*
X143672856Y-101804355D01*
X143669709Y-101797701D01*
X143667229Y-101790771D01*
X143665441Y-101783632D01*
X143664361Y-101776351D01*
X143664000Y-101769000D01*
X143664000Y-101069000D01*
X143664361Y-101061649D01*
X143665441Y-101054368D01*
X143667229Y-101047229D01*
X143669709Y-101040299D01*
X143672856Y-101033645D01*
X143676640Y-101027332D01*
X143681024Y-101021421D01*
X143685967Y-101015967D01*
X143691421Y-101011024D01*
X143697332Y-101006640D01*
X143703645Y-101002856D01*
X143710299Y-100999709D01*
X143717229Y-100997229D01*
X143724368Y-100995441D01*
X143731649Y-100994361D01*
X143739000Y-100994000D01*
X143889000Y-100994000D01*
X143896351Y-100994361D01*
X143896351Y-100994361D01*
G37*
D11*
X143814000Y-101419000D03*
D10*
G36*
X143396351Y-100994361D02*
G01*
X143403632Y-100995441D01*
X143410771Y-100997229D01*
X143417701Y-100999709D01*
X143424355Y-101002856D01*
X143430668Y-101006640D01*
X143436579Y-101011024D01*
X143442033Y-101015967D01*
X143446976Y-101021421D01*
X143451360Y-101027332D01*
X143455144Y-101033645D01*
X143458291Y-101040299D01*
X143460771Y-101047229D01*
X143462559Y-101054368D01*
X143463639Y-101061649D01*
X143464000Y-101069000D01*
X143464000Y-101769000D01*
X143463639Y-101776351D01*
X143462559Y-101783632D01*
X143460771Y-101790771D01*
X143458291Y-101797701D01*
X143455144Y-101804355D01*
X143451360Y-101810668D01*
X143446976Y-101816579D01*
X143442033Y-101822033D01*
X143436579Y-101826976D01*
X143430668Y-101831360D01*
X143424355Y-101835144D01*
X143417701Y-101838291D01*
X143410771Y-101840771D01*
X143403632Y-101842559D01*
X143396351Y-101843639D01*
X143389000Y-101844000D01*
X143239000Y-101844000D01*
X143231649Y-101843639D01*
X143224368Y-101842559D01*
X143217229Y-101840771D01*
X143210299Y-101838291D01*
X143203645Y-101835144D01*
X143197332Y-101831360D01*
X143191421Y-101826976D01*
X143185967Y-101822033D01*
X143181024Y-101816579D01*
X143176640Y-101810668D01*
X143172856Y-101804355D01*
X143169709Y-101797701D01*
X143167229Y-101790771D01*
X143165441Y-101783632D01*
X143164361Y-101776351D01*
X143164000Y-101769000D01*
X143164000Y-101069000D01*
X143164361Y-101061649D01*
X143165441Y-101054368D01*
X143167229Y-101047229D01*
X143169709Y-101040299D01*
X143172856Y-101033645D01*
X143176640Y-101027332D01*
X143181024Y-101021421D01*
X143185967Y-101015967D01*
X143191421Y-101011024D01*
X143197332Y-101006640D01*
X143203645Y-101002856D01*
X143210299Y-100999709D01*
X143217229Y-100997229D01*
X143224368Y-100995441D01*
X143231649Y-100994361D01*
X143239000Y-100994000D01*
X143389000Y-100994000D01*
X143396351Y-100994361D01*
X143396351Y-100994361D01*
G37*
D11*
X143314000Y-101419000D03*
D10*
G36*
X142896351Y-100994361D02*
G01*
X142903632Y-100995441D01*
X142910771Y-100997229D01*
X142917701Y-100999709D01*
X142924355Y-101002856D01*
X142930668Y-101006640D01*
X142936579Y-101011024D01*
X142942033Y-101015967D01*
X142946976Y-101021421D01*
X142951360Y-101027332D01*
X142955144Y-101033645D01*
X142958291Y-101040299D01*
X142960771Y-101047229D01*
X142962559Y-101054368D01*
X142963639Y-101061649D01*
X142964000Y-101069000D01*
X142964000Y-101769000D01*
X142963639Y-101776351D01*
X142962559Y-101783632D01*
X142960771Y-101790771D01*
X142958291Y-101797701D01*
X142955144Y-101804355D01*
X142951360Y-101810668D01*
X142946976Y-101816579D01*
X142942033Y-101822033D01*
X142936579Y-101826976D01*
X142930668Y-101831360D01*
X142924355Y-101835144D01*
X142917701Y-101838291D01*
X142910771Y-101840771D01*
X142903632Y-101842559D01*
X142896351Y-101843639D01*
X142889000Y-101844000D01*
X142739000Y-101844000D01*
X142731649Y-101843639D01*
X142724368Y-101842559D01*
X142717229Y-101840771D01*
X142710299Y-101838291D01*
X142703645Y-101835144D01*
X142697332Y-101831360D01*
X142691421Y-101826976D01*
X142685967Y-101822033D01*
X142681024Y-101816579D01*
X142676640Y-101810668D01*
X142672856Y-101804355D01*
X142669709Y-101797701D01*
X142667229Y-101790771D01*
X142665441Y-101783632D01*
X142664361Y-101776351D01*
X142664000Y-101769000D01*
X142664000Y-101069000D01*
X142664361Y-101061649D01*
X142665441Y-101054368D01*
X142667229Y-101047229D01*
X142669709Y-101040299D01*
X142672856Y-101033645D01*
X142676640Y-101027332D01*
X142681024Y-101021421D01*
X142685967Y-101015967D01*
X142691421Y-101011024D01*
X142697332Y-101006640D01*
X142703645Y-101002856D01*
X142710299Y-100999709D01*
X142717229Y-100997229D01*
X142724368Y-100995441D01*
X142731649Y-100994361D01*
X142739000Y-100994000D01*
X142889000Y-100994000D01*
X142896351Y-100994361D01*
X142896351Y-100994361D01*
G37*
D11*
X142814000Y-101419000D03*
D10*
G36*
X142471351Y-100569361D02*
G01*
X142478632Y-100570441D01*
X142485771Y-100572229D01*
X142492701Y-100574709D01*
X142499355Y-100577856D01*
X142505668Y-100581640D01*
X142511579Y-100586024D01*
X142517033Y-100590967D01*
X142521976Y-100596421D01*
X142526360Y-100602332D01*
X142530144Y-100608645D01*
X142533291Y-100615299D01*
X142535771Y-100622229D01*
X142537559Y-100629368D01*
X142538639Y-100636649D01*
X142539000Y-100644000D01*
X142539000Y-100794000D01*
X142538639Y-100801351D01*
X142537559Y-100808632D01*
X142535771Y-100815771D01*
X142533291Y-100822701D01*
X142530144Y-100829355D01*
X142526360Y-100835668D01*
X142521976Y-100841579D01*
X142517033Y-100847033D01*
X142511579Y-100851976D01*
X142505668Y-100856360D01*
X142499355Y-100860144D01*
X142492701Y-100863291D01*
X142485771Y-100865771D01*
X142478632Y-100867559D01*
X142471351Y-100868639D01*
X142464000Y-100869000D01*
X141764000Y-100869000D01*
X141756649Y-100868639D01*
X141749368Y-100867559D01*
X141742229Y-100865771D01*
X141735299Y-100863291D01*
X141728645Y-100860144D01*
X141722332Y-100856360D01*
X141716421Y-100851976D01*
X141710967Y-100847033D01*
X141706024Y-100841579D01*
X141701640Y-100835668D01*
X141697856Y-100829355D01*
X141694709Y-100822701D01*
X141692229Y-100815771D01*
X141690441Y-100808632D01*
X141689361Y-100801351D01*
X141689000Y-100794000D01*
X141689000Y-100644000D01*
X141689361Y-100636649D01*
X141690441Y-100629368D01*
X141692229Y-100622229D01*
X141694709Y-100615299D01*
X141697856Y-100608645D01*
X141701640Y-100602332D01*
X141706024Y-100596421D01*
X141710967Y-100590967D01*
X141716421Y-100586024D01*
X141722332Y-100581640D01*
X141728645Y-100577856D01*
X141735299Y-100574709D01*
X141742229Y-100572229D01*
X141749368Y-100570441D01*
X141756649Y-100569361D01*
X141764000Y-100569000D01*
X142464000Y-100569000D01*
X142471351Y-100569361D01*
X142471351Y-100569361D01*
G37*
D11*
X142114000Y-100719000D03*
D10*
G36*
X142471351Y-100069361D02*
G01*
X142478632Y-100070441D01*
X142485771Y-100072229D01*
X142492701Y-100074709D01*
X142499355Y-100077856D01*
X142505668Y-100081640D01*
X142511579Y-100086024D01*
X142517033Y-100090967D01*
X142521976Y-100096421D01*
X142526360Y-100102332D01*
X142530144Y-100108645D01*
X142533291Y-100115299D01*
X142535771Y-100122229D01*
X142537559Y-100129368D01*
X142538639Y-100136649D01*
X142539000Y-100144000D01*
X142539000Y-100294000D01*
X142538639Y-100301351D01*
X142537559Y-100308632D01*
X142535771Y-100315771D01*
X142533291Y-100322701D01*
X142530144Y-100329355D01*
X142526360Y-100335668D01*
X142521976Y-100341579D01*
X142517033Y-100347033D01*
X142511579Y-100351976D01*
X142505668Y-100356360D01*
X142499355Y-100360144D01*
X142492701Y-100363291D01*
X142485771Y-100365771D01*
X142478632Y-100367559D01*
X142471351Y-100368639D01*
X142464000Y-100369000D01*
X141764000Y-100369000D01*
X141756649Y-100368639D01*
X141749368Y-100367559D01*
X141742229Y-100365771D01*
X141735299Y-100363291D01*
X141728645Y-100360144D01*
X141722332Y-100356360D01*
X141716421Y-100351976D01*
X141710967Y-100347033D01*
X141706024Y-100341579D01*
X141701640Y-100335668D01*
X141697856Y-100329355D01*
X141694709Y-100322701D01*
X141692229Y-100315771D01*
X141690441Y-100308632D01*
X141689361Y-100301351D01*
X141689000Y-100294000D01*
X141689000Y-100144000D01*
X141689361Y-100136649D01*
X141690441Y-100129368D01*
X141692229Y-100122229D01*
X141694709Y-100115299D01*
X141697856Y-100108645D01*
X141701640Y-100102332D01*
X141706024Y-100096421D01*
X141710967Y-100090967D01*
X141716421Y-100086024D01*
X141722332Y-100081640D01*
X141728645Y-100077856D01*
X141735299Y-100074709D01*
X141742229Y-100072229D01*
X141749368Y-100070441D01*
X141756649Y-100069361D01*
X141764000Y-100069000D01*
X142464000Y-100069000D01*
X142471351Y-100069361D01*
X142471351Y-100069361D01*
G37*
D11*
X142114000Y-100219000D03*
D10*
G36*
X142471351Y-99569361D02*
G01*
X142478632Y-99570441D01*
X142485771Y-99572229D01*
X142492701Y-99574709D01*
X142499355Y-99577856D01*
X142505668Y-99581640D01*
X142511579Y-99586024D01*
X142517033Y-99590967D01*
X142521976Y-99596421D01*
X142526360Y-99602332D01*
X142530144Y-99608645D01*
X142533291Y-99615299D01*
X142535771Y-99622229D01*
X142537559Y-99629368D01*
X142538639Y-99636649D01*
X142539000Y-99644000D01*
X142539000Y-99794000D01*
X142538639Y-99801351D01*
X142537559Y-99808632D01*
X142535771Y-99815771D01*
X142533291Y-99822701D01*
X142530144Y-99829355D01*
X142526360Y-99835668D01*
X142521976Y-99841579D01*
X142517033Y-99847033D01*
X142511579Y-99851976D01*
X142505668Y-99856360D01*
X142499355Y-99860144D01*
X142492701Y-99863291D01*
X142485771Y-99865771D01*
X142478632Y-99867559D01*
X142471351Y-99868639D01*
X142464000Y-99869000D01*
X141764000Y-99869000D01*
X141756649Y-99868639D01*
X141749368Y-99867559D01*
X141742229Y-99865771D01*
X141735299Y-99863291D01*
X141728645Y-99860144D01*
X141722332Y-99856360D01*
X141716421Y-99851976D01*
X141710967Y-99847033D01*
X141706024Y-99841579D01*
X141701640Y-99835668D01*
X141697856Y-99829355D01*
X141694709Y-99822701D01*
X141692229Y-99815771D01*
X141690441Y-99808632D01*
X141689361Y-99801351D01*
X141689000Y-99794000D01*
X141689000Y-99644000D01*
X141689361Y-99636649D01*
X141690441Y-99629368D01*
X141692229Y-99622229D01*
X141694709Y-99615299D01*
X141697856Y-99608645D01*
X141701640Y-99602332D01*
X141706024Y-99596421D01*
X141710967Y-99590967D01*
X141716421Y-99586024D01*
X141722332Y-99581640D01*
X141728645Y-99577856D01*
X141735299Y-99574709D01*
X141742229Y-99572229D01*
X141749368Y-99570441D01*
X141756649Y-99569361D01*
X141764000Y-99569000D01*
X142464000Y-99569000D01*
X142471351Y-99569361D01*
X142471351Y-99569361D01*
G37*
D11*
X142114000Y-99719000D03*
D10*
G36*
X142471351Y-99069361D02*
G01*
X142478632Y-99070441D01*
X142485771Y-99072229D01*
X142492701Y-99074709D01*
X142499355Y-99077856D01*
X142505668Y-99081640D01*
X142511579Y-99086024D01*
X142517033Y-99090967D01*
X142521976Y-99096421D01*
X142526360Y-99102332D01*
X142530144Y-99108645D01*
X142533291Y-99115299D01*
X142535771Y-99122229D01*
X142537559Y-99129368D01*
X142538639Y-99136649D01*
X142539000Y-99144000D01*
X142539000Y-99294000D01*
X142538639Y-99301351D01*
X142537559Y-99308632D01*
X142535771Y-99315771D01*
X142533291Y-99322701D01*
X142530144Y-99329355D01*
X142526360Y-99335668D01*
X142521976Y-99341579D01*
X142517033Y-99347033D01*
X142511579Y-99351976D01*
X142505668Y-99356360D01*
X142499355Y-99360144D01*
X142492701Y-99363291D01*
X142485771Y-99365771D01*
X142478632Y-99367559D01*
X142471351Y-99368639D01*
X142464000Y-99369000D01*
X141764000Y-99369000D01*
X141756649Y-99368639D01*
X141749368Y-99367559D01*
X141742229Y-99365771D01*
X141735299Y-99363291D01*
X141728645Y-99360144D01*
X141722332Y-99356360D01*
X141716421Y-99351976D01*
X141710967Y-99347033D01*
X141706024Y-99341579D01*
X141701640Y-99335668D01*
X141697856Y-99329355D01*
X141694709Y-99322701D01*
X141692229Y-99315771D01*
X141690441Y-99308632D01*
X141689361Y-99301351D01*
X141689000Y-99294000D01*
X141689000Y-99144000D01*
X141689361Y-99136649D01*
X141690441Y-99129368D01*
X141692229Y-99122229D01*
X141694709Y-99115299D01*
X141697856Y-99108645D01*
X141701640Y-99102332D01*
X141706024Y-99096421D01*
X141710967Y-99090967D01*
X141716421Y-99086024D01*
X141722332Y-99081640D01*
X141728645Y-99077856D01*
X141735299Y-99074709D01*
X141742229Y-99072229D01*
X141749368Y-99070441D01*
X141756649Y-99069361D01*
X141764000Y-99069000D01*
X142464000Y-99069000D01*
X142471351Y-99069361D01*
X142471351Y-99069361D01*
G37*
D11*
X142114000Y-99219000D03*
D10*
G36*
X142471351Y-98569361D02*
G01*
X142478632Y-98570441D01*
X142485771Y-98572229D01*
X142492701Y-98574709D01*
X142499355Y-98577856D01*
X142505668Y-98581640D01*
X142511579Y-98586024D01*
X142517033Y-98590967D01*
X142521976Y-98596421D01*
X142526360Y-98602332D01*
X142530144Y-98608645D01*
X142533291Y-98615299D01*
X142535771Y-98622229D01*
X142537559Y-98629368D01*
X142538639Y-98636649D01*
X142539000Y-98644000D01*
X142539000Y-98794000D01*
X142538639Y-98801351D01*
X142537559Y-98808632D01*
X142535771Y-98815771D01*
X142533291Y-98822701D01*
X142530144Y-98829355D01*
X142526360Y-98835668D01*
X142521976Y-98841579D01*
X142517033Y-98847033D01*
X142511579Y-98851976D01*
X142505668Y-98856360D01*
X142499355Y-98860144D01*
X142492701Y-98863291D01*
X142485771Y-98865771D01*
X142478632Y-98867559D01*
X142471351Y-98868639D01*
X142464000Y-98869000D01*
X141764000Y-98869000D01*
X141756649Y-98868639D01*
X141749368Y-98867559D01*
X141742229Y-98865771D01*
X141735299Y-98863291D01*
X141728645Y-98860144D01*
X141722332Y-98856360D01*
X141716421Y-98851976D01*
X141710967Y-98847033D01*
X141706024Y-98841579D01*
X141701640Y-98835668D01*
X141697856Y-98829355D01*
X141694709Y-98822701D01*
X141692229Y-98815771D01*
X141690441Y-98808632D01*
X141689361Y-98801351D01*
X141689000Y-98794000D01*
X141689000Y-98644000D01*
X141689361Y-98636649D01*
X141690441Y-98629368D01*
X141692229Y-98622229D01*
X141694709Y-98615299D01*
X141697856Y-98608645D01*
X141701640Y-98602332D01*
X141706024Y-98596421D01*
X141710967Y-98590967D01*
X141716421Y-98586024D01*
X141722332Y-98581640D01*
X141728645Y-98577856D01*
X141735299Y-98574709D01*
X141742229Y-98572229D01*
X141749368Y-98570441D01*
X141756649Y-98569361D01*
X141764000Y-98569000D01*
X142464000Y-98569000D01*
X142471351Y-98569361D01*
X142471351Y-98569361D01*
G37*
D11*
X142114000Y-98719000D03*
D10*
G36*
X142471351Y-98069361D02*
G01*
X142478632Y-98070441D01*
X142485771Y-98072229D01*
X142492701Y-98074709D01*
X142499355Y-98077856D01*
X142505668Y-98081640D01*
X142511579Y-98086024D01*
X142517033Y-98090967D01*
X142521976Y-98096421D01*
X142526360Y-98102332D01*
X142530144Y-98108645D01*
X142533291Y-98115299D01*
X142535771Y-98122229D01*
X142537559Y-98129368D01*
X142538639Y-98136649D01*
X142539000Y-98144000D01*
X142539000Y-98294000D01*
X142538639Y-98301351D01*
X142537559Y-98308632D01*
X142535771Y-98315771D01*
X142533291Y-98322701D01*
X142530144Y-98329355D01*
X142526360Y-98335668D01*
X142521976Y-98341579D01*
X142517033Y-98347033D01*
X142511579Y-98351976D01*
X142505668Y-98356360D01*
X142499355Y-98360144D01*
X142492701Y-98363291D01*
X142485771Y-98365771D01*
X142478632Y-98367559D01*
X142471351Y-98368639D01*
X142464000Y-98369000D01*
X141764000Y-98369000D01*
X141756649Y-98368639D01*
X141749368Y-98367559D01*
X141742229Y-98365771D01*
X141735299Y-98363291D01*
X141728645Y-98360144D01*
X141722332Y-98356360D01*
X141716421Y-98351976D01*
X141710967Y-98347033D01*
X141706024Y-98341579D01*
X141701640Y-98335668D01*
X141697856Y-98329355D01*
X141694709Y-98322701D01*
X141692229Y-98315771D01*
X141690441Y-98308632D01*
X141689361Y-98301351D01*
X141689000Y-98294000D01*
X141689000Y-98144000D01*
X141689361Y-98136649D01*
X141690441Y-98129368D01*
X141692229Y-98122229D01*
X141694709Y-98115299D01*
X141697856Y-98108645D01*
X141701640Y-98102332D01*
X141706024Y-98096421D01*
X141710967Y-98090967D01*
X141716421Y-98086024D01*
X141722332Y-98081640D01*
X141728645Y-98077856D01*
X141735299Y-98074709D01*
X141742229Y-98072229D01*
X141749368Y-98070441D01*
X141756649Y-98069361D01*
X141764000Y-98069000D01*
X142464000Y-98069000D01*
X142471351Y-98069361D01*
X142471351Y-98069361D01*
G37*
D11*
X142114000Y-98219000D03*
D12*
X148583000Y-105660000D03*
X145683000Y-105660000D03*
X145683000Y-103360000D03*
X148583000Y-103360000D03*
D13*
X152802000Y-102289000D03*
X152802000Y-101489000D03*
X152802000Y-100689000D03*
X152802000Y-99889000D03*
X152802000Y-99089000D03*
X152802000Y-98289000D03*
X152802000Y-97489000D03*
X152802000Y-96689000D03*
D14*
X154252000Y-95239000D03*
X155052000Y-95239000D03*
X155852000Y-95239000D03*
X156652000Y-95239000D03*
X157452000Y-95239000D03*
X158252000Y-95239000D03*
X159052000Y-95239000D03*
X159852000Y-95239000D03*
D13*
X161302000Y-96689000D03*
X161302000Y-97489000D03*
X161302000Y-98289000D03*
X161302000Y-99089000D03*
X161302000Y-99889000D03*
X161302000Y-100689000D03*
X161302000Y-101489000D03*
X161302000Y-102289000D03*
D14*
X159852000Y-103739000D03*
X159052000Y-103739000D03*
X158252000Y-103739000D03*
X157452000Y-103739000D03*
X156652000Y-103739000D03*
X155852000Y-103739000D03*
X155052000Y-103739000D03*
X154252000Y-103739000D03*
D15*
X147525000Y-88289000D03*
D16*
X148325000Y-88289000D03*
D15*
X149925000Y-88289000D03*
D16*
X149125000Y-88289000D03*
D15*
X147525000Y-86489000D03*
D16*
X149125000Y-86489000D03*
X148325000Y-86489000D03*
D15*
X149925000Y-86489000D03*
X149925000Y-89994000D03*
D16*
X149125000Y-89994000D03*
D15*
X147525000Y-89994000D03*
D16*
X148325000Y-89994000D03*
D15*
X149925000Y-91794000D03*
D16*
X148325000Y-91794000D03*
X149125000Y-91794000D03*
D15*
X147525000Y-91794000D03*
X149925000Y-95669000D03*
D16*
X149125000Y-95669000D03*
D15*
X147525000Y-95669000D03*
D16*
X148325000Y-95669000D03*
D15*
X149925000Y-97469000D03*
D16*
X148325000Y-97469000D03*
X149125000Y-97469000D03*
D15*
X147525000Y-97469000D03*
D10*
G36*
X161309779Y-89243144D02*
G01*
X161332834Y-89246563D01*
X161355443Y-89252227D01*
X161377387Y-89260079D01*
X161398457Y-89270044D01*
X161418448Y-89282026D01*
X161437168Y-89295910D01*
X161454438Y-89311562D01*
X161470090Y-89328832D01*
X161483974Y-89347552D01*
X161495956Y-89367543D01*
X161505921Y-89388613D01*
X161513773Y-89410557D01*
X161519437Y-89433166D01*
X161522856Y-89456221D01*
X161524000Y-89479500D01*
X161524000Y-90054500D01*
X161522856Y-90077779D01*
X161519437Y-90100834D01*
X161513773Y-90123443D01*
X161505921Y-90145387D01*
X161495956Y-90166457D01*
X161483974Y-90186448D01*
X161470090Y-90205168D01*
X161454438Y-90222438D01*
X161437168Y-90238090D01*
X161418448Y-90251974D01*
X161398457Y-90263956D01*
X161377387Y-90273921D01*
X161355443Y-90281773D01*
X161332834Y-90287437D01*
X161309779Y-90290856D01*
X161286500Y-90292000D01*
X160811500Y-90292000D01*
X160788221Y-90290856D01*
X160765166Y-90287437D01*
X160742557Y-90281773D01*
X160720613Y-90273921D01*
X160699543Y-90263956D01*
X160679552Y-90251974D01*
X160660832Y-90238090D01*
X160643562Y-90222438D01*
X160627910Y-90205168D01*
X160614026Y-90186448D01*
X160602044Y-90166457D01*
X160592079Y-90145387D01*
X160584227Y-90123443D01*
X160578563Y-90100834D01*
X160575144Y-90077779D01*
X160574000Y-90054500D01*
X160574000Y-89479500D01*
X160575144Y-89456221D01*
X160578563Y-89433166D01*
X160584227Y-89410557D01*
X160592079Y-89388613D01*
X160602044Y-89367543D01*
X160614026Y-89347552D01*
X160627910Y-89328832D01*
X160643562Y-89311562D01*
X160660832Y-89295910D01*
X160679552Y-89282026D01*
X160699543Y-89270044D01*
X160720613Y-89260079D01*
X160742557Y-89252227D01*
X160765166Y-89246563D01*
X160788221Y-89243144D01*
X160811500Y-89242000D01*
X161286500Y-89242000D01*
X161309779Y-89243144D01*
X161309779Y-89243144D01*
G37*
D17*
X161049000Y-89767000D03*
D10*
G36*
X161309779Y-87493144D02*
G01*
X161332834Y-87496563D01*
X161355443Y-87502227D01*
X161377387Y-87510079D01*
X161398457Y-87520044D01*
X161418448Y-87532026D01*
X161437168Y-87545910D01*
X161454438Y-87561562D01*
X161470090Y-87578832D01*
X161483974Y-87597552D01*
X161495956Y-87617543D01*
X161505921Y-87638613D01*
X161513773Y-87660557D01*
X161519437Y-87683166D01*
X161522856Y-87706221D01*
X161524000Y-87729500D01*
X161524000Y-88304500D01*
X161522856Y-88327779D01*
X161519437Y-88350834D01*
X161513773Y-88373443D01*
X161505921Y-88395387D01*
X161495956Y-88416457D01*
X161483974Y-88436448D01*
X161470090Y-88455168D01*
X161454438Y-88472438D01*
X161437168Y-88488090D01*
X161418448Y-88501974D01*
X161398457Y-88513956D01*
X161377387Y-88523921D01*
X161355443Y-88531773D01*
X161332834Y-88537437D01*
X161309779Y-88540856D01*
X161286500Y-88542000D01*
X160811500Y-88542000D01*
X160788221Y-88540856D01*
X160765166Y-88537437D01*
X160742557Y-88531773D01*
X160720613Y-88523921D01*
X160699543Y-88513956D01*
X160679552Y-88501974D01*
X160660832Y-88488090D01*
X160643562Y-88472438D01*
X160627910Y-88455168D01*
X160614026Y-88436448D01*
X160602044Y-88416457D01*
X160592079Y-88395387D01*
X160584227Y-88373443D01*
X160578563Y-88350834D01*
X160575144Y-88327779D01*
X160574000Y-88304500D01*
X160574000Y-87729500D01*
X160575144Y-87706221D01*
X160578563Y-87683166D01*
X160584227Y-87660557D01*
X160592079Y-87638613D01*
X160602044Y-87617543D01*
X160614026Y-87597552D01*
X160627910Y-87578832D01*
X160643562Y-87561562D01*
X160660832Y-87545910D01*
X160679552Y-87532026D01*
X160699543Y-87520044D01*
X160720613Y-87510079D01*
X160742557Y-87502227D01*
X160765166Y-87496563D01*
X160788221Y-87493144D01*
X160811500Y-87492000D01*
X161286500Y-87492000D01*
X161309779Y-87493144D01*
X161309779Y-87493144D01*
G37*
D17*
X161049000Y-88017000D03*
D10*
G36*
X142617779Y-88319144D02*
G01*
X142640834Y-88322563D01*
X142663443Y-88328227D01*
X142685387Y-88336079D01*
X142706457Y-88346044D01*
X142726448Y-88358026D01*
X142745168Y-88371910D01*
X142762438Y-88387562D01*
X142778090Y-88404832D01*
X142791974Y-88423552D01*
X142803956Y-88443543D01*
X142813921Y-88464613D01*
X142821773Y-88486557D01*
X142827437Y-88509166D01*
X142830856Y-88532221D01*
X142832000Y-88555500D01*
X142832000Y-89130500D01*
X142830856Y-89153779D01*
X142827437Y-89176834D01*
X142821773Y-89199443D01*
X142813921Y-89221387D01*
X142803956Y-89242457D01*
X142791974Y-89262448D01*
X142778090Y-89281168D01*
X142762438Y-89298438D01*
X142745168Y-89314090D01*
X142726448Y-89327974D01*
X142706457Y-89339956D01*
X142685387Y-89349921D01*
X142663443Y-89357773D01*
X142640834Y-89363437D01*
X142617779Y-89366856D01*
X142594500Y-89368000D01*
X142119500Y-89368000D01*
X142096221Y-89366856D01*
X142073166Y-89363437D01*
X142050557Y-89357773D01*
X142028613Y-89349921D01*
X142007543Y-89339956D01*
X141987552Y-89327974D01*
X141968832Y-89314090D01*
X141951562Y-89298438D01*
X141935910Y-89281168D01*
X141922026Y-89262448D01*
X141910044Y-89242457D01*
X141900079Y-89221387D01*
X141892227Y-89199443D01*
X141886563Y-89176834D01*
X141883144Y-89153779D01*
X141882000Y-89130500D01*
X141882000Y-88555500D01*
X141883144Y-88532221D01*
X141886563Y-88509166D01*
X141892227Y-88486557D01*
X141900079Y-88464613D01*
X141910044Y-88443543D01*
X141922026Y-88423552D01*
X141935910Y-88404832D01*
X141951562Y-88387562D01*
X141968832Y-88371910D01*
X141987552Y-88358026D01*
X142007543Y-88346044D01*
X142028613Y-88336079D01*
X142050557Y-88328227D01*
X142073166Y-88322563D01*
X142096221Y-88319144D01*
X142119500Y-88318000D01*
X142594500Y-88318000D01*
X142617779Y-88319144D01*
X142617779Y-88319144D01*
G37*
D17*
X142357000Y-88843000D03*
D10*
G36*
X142617779Y-86569144D02*
G01*
X142640834Y-86572563D01*
X142663443Y-86578227D01*
X142685387Y-86586079D01*
X142706457Y-86596044D01*
X142726448Y-86608026D01*
X142745168Y-86621910D01*
X142762438Y-86637562D01*
X142778090Y-86654832D01*
X142791974Y-86673552D01*
X142803956Y-86693543D01*
X142813921Y-86714613D01*
X142821773Y-86736557D01*
X142827437Y-86759166D01*
X142830856Y-86782221D01*
X142832000Y-86805500D01*
X142832000Y-87380500D01*
X142830856Y-87403779D01*
X142827437Y-87426834D01*
X142821773Y-87449443D01*
X142813921Y-87471387D01*
X142803956Y-87492457D01*
X142791974Y-87512448D01*
X142778090Y-87531168D01*
X142762438Y-87548438D01*
X142745168Y-87564090D01*
X142726448Y-87577974D01*
X142706457Y-87589956D01*
X142685387Y-87599921D01*
X142663443Y-87607773D01*
X142640834Y-87613437D01*
X142617779Y-87616856D01*
X142594500Y-87618000D01*
X142119500Y-87618000D01*
X142096221Y-87616856D01*
X142073166Y-87613437D01*
X142050557Y-87607773D01*
X142028613Y-87599921D01*
X142007543Y-87589956D01*
X141987552Y-87577974D01*
X141968832Y-87564090D01*
X141951562Y-87548438D01*
X141935910Y-87531168D01*
X141922026Y-87512448D01*
X141910044Y-87492457D01*
X141900079Y-87471387D01*
X141892227Y-87449443D01*
X141886563Y-87426834D01*
X141883144Y-87403779D01*
X141882000Y-87380500D01*
X141882000Y-86805500D01*
X141883144Y-86782221D01*
X141886563Y-86759166D01*
X141892227Y-86736557D01*
X141900079Y-86714613D01*
X141910044Y-86693543D01*
X141922026Y-86673552D01*
X141935910Y-86654832D01*
X141951562Y-86637562D01*
X141968832Y-86621910D01*
X141987552Y-86608026D01*
X142007543Y-86596044D01*
X142028613Y-86586079D01*
X142050557Y-86578227D01*
X142073166Y-86572563D01*
X142096221Y-86569144D01*
X142119500Y-86568000D01*
X142594500Y-86568000D01*
X142617779Y-86569144D01*
X142617779Y-86569144D01*
G37*
D17*
X142357000Y-87093000D03*
D10*
G36*
X162080779Y-106307144D02*
G01*
X162103834Y-106310563D01*
X162126443Y-106316227D01*
X162148387Y-106324079D01*
X162169457Y-106334044D01*
X162189448Y-106346026D01*
X162208168Y-106359910D01*
X162225438Y-106375562D01*
X162241090Y-106392832D01*
X162254974Y-106411552D01*
X162266956Y-106431543D01*
X162276921Y-106452613D01*
X162284773Y-106474557D01*
X162290437Y-106497166D01*
X162293856Y-106520221D01*
X162295000Y-106543500D01*
X162295000Y-107018500D01*
X162293856Y-107041779D01*
X162290437Y-107064834D01*
X162284773Y-107087443D01*
X162276921Y-107109387D01*
X162266956Y-107130457D01*
X162254974Y-107150448D01*
X162241090Y-107169168D01*
X162225438Y-107186438D01*
X162208168Y-107202090D01*
X162189448Y-107215974D01*
X162169457Y-107227956D01*
X162148387Y-107237921D01*
X162126443Y-107245773D01*
X162103834Y-107251437D01*
X162080779Y-107254856D01*
X162057500Y-107256000D01*
X161482500Y-107256000D01*
X161459221Y-107254856D01*
X161436166Y-107251437D01*
X161413557Y-107245773D01*
X161391613Y-107237921D01*
X161370543Y-107227956D01*
X161350552Y-107215974D01*
X161331832Y-107202090D01*
X161314562Y-107186438D01*
X161298910Y-107169168D01*
X161285026Y-107150448D01*
X161273044Y-107130457D01*
X161263079Y-107109387D01*
X161255227Y-107087443D01*
X161249563Y-107064834D01*
X161246144Y-107041779D01*
X161245000Y-107018500D01*
X161245000Y-106543500D01*
X161246144Y-106520221D01*
X161249563Y-106497166D01*
X161255227Y-106474557D01*
X161263079Y-106452613D01*
X161273044Y-106431543D01*
X161285026Y-106411552D01*
X161298910Y-106392832D01*
X161314562Y-106375562D01*
X161331832Y-106359910D01*
X161350552Y-106346026D01*
X161370543Y-106334044D01*
X161391613Y-106324079D01*
X161413557Y-106316227D01*
X161436166Y-106310563D01*
X161459221Y-106307144D01*
X161482500Y-106306000D01*
X162057500Y-106306000D01*
X162080779Y-106307144D01*
X162080779Y-106307144D01*
G37*
D17*
X161770000Y-106781000D03*
D10*
G36*
X160330779Y-106307144D02*
G01*
X160353834Y-106310563D01*
X160376443Y-106316227D01*
X160398387Y-106324079D01*
X160419457Y-106334044D01*
X160439448Y-106346026D01*
X160458168Y-106359910D01*
X160475438Y-106375562D01*
X160491090Y-106392832D01*
X160504974Y-106411552D01*
X160516956Y-106431543D01*
X160526921Y-106452613D01*
X160534773Y-106474557D01*
X160540437Y-106497166D01*
X160543856Y-106520221D01*
X160545000Y-106543500D01*
X160545000Y-107018500D01*
X160543856Y-107041779D01*
X160540437Y-107064834D01*
X160534773Y-107087443D01*
X160526921Y-107109387D01*
X160516956Y-107130457D01*
X160504974Y-107150448D01*
X160491090Y-107169168D01*
X160475438Y-107186438D01*
X160458168Y-107202090D01*
X160439448Y-107215974D01*
X160419457Y-107227956D01*
X160398387Y-107237921D01*
X160376443Y-107245773D01*
X160353834Y-107251437D01*
X160330779Y-107254856D01*
X160307500Y-107256000D01*
X159732500Y-107256000D01*
X159709221Y-107254856D01*
X159686166Y-107251437D01*
X159663557Y-107245773D01*
X159641613Y-107237921D01*
X159620543Y-107227956D01*
X159600552Y-107215974D01*
X159581832Y-107202090D01*
X159564562Y-107186438D01*
X159548910Y-107169168D01*
X159535026Y-107150448D01*
X159523044Y-107130457D01*
X159513079Y-107109387D01*
X159505227Y-107087443D01*
X159499563Y-107064834D01*
X159496144Y-107041779D01*
X159495000Y-107018500D01*
X159495000Y-106543500D01*
X159496144Y-106520221D01*
X159499563Y-106497166D01*
X159505227Y-106474557D01*
X159513079Y-106452613D01*
X159523044Y-106431543D01*
X159535026Y-106411552D01*
X159548910Y-106392832D01*
X159564562Y-106375562D01*
X159581832Y-106359910D01*
X159600552Y-106346026D01*
X159620543Y-106334044D01*
X159641613Y-106324079D01*
X159663557Y-106316227D01*
X159686166Y-106310563D01*
X159709221Y-106307144D01*
X159732500Y-106306000D01*
X160307500Y-106306000D01*
X160330779Y-106307144D01*
X160330779Y-106307144D01*
G37*
D17*
X160020000Y-106781000D03*
D10*
G36*
X140769779Y-99733144D02*
G01*
X140792834Y-99736563D01*
X140815443Y-99742227D01*
X140837387Y-99750079D01*
X140858457Y-99760044D01*
X140878448Y-99772026D01*
X140897168Y-99785910D01*
X140914438Y-99801562D01*
X140930090Y-99818832D01*
X140943974Y-99837552D01*
X140955956Y-99857543D01*
X140965921Y-99878613D01*
X140973773Y-99900557D01*
X140979437Y-99923166D01*
X140982856Y-99946221D01*
X140984000Y-99969500D01*
X140984000Y-100544500D01*
X140982856Y-100567779D01*
X140979437Y-100590834D01*
X140973773Y-100613443D01*
X140965921Y-100635387D01*
X140955956Y-100656457D01*
X140943974Y-100676448D01*
X140930090Y-100695168D01*
X140914438Y-100712438D01*
X140897168Y-100728090D01*
X140878448Y-100741974D01*
X140858457Y-100753956D01*
X140837387Y-100763921D01*
X140815443Y-100771773D01*
X140792834Y-100777437D01*
X140769779Y-100780856D01*
X140746500Y-100782000D01*
X140271500Y-100782000D01*
X140248221Y-100780856D01*
X140225166Y-100777437D01*
X140202557Y-100771773D01*
X140180613Y-100763921D01*
X140159543Y-100753956D01*
X140139552Y-100741974D01*
X140120832Y-100728090D01*
X140103562Y-100712438D01*
X140087910Y-100695168D01*
X140074026Y-100676448D01*
X140062044Y-100656457D01*
X140052079Y-100635387D01*
X140044227Y-100613443D01*
X140038563Y-100590834D01*
X140035144Y-100567779D01*
X140034000Y-100544500D01*
X140034000Y-99969500D01*
X140035144Y-99946221D01*
X140038563Y-99923166D01*
X140044227Y-99900557D01*
X140052079Y-99878613D01*
X140062044Y-99857543D01*
X140074026Y-99837552D01*
X140087910Y-99818832D01*
X140103562Y-99801562D01*
X140120832Y-99785910D01*
X140139552Y-99772026D01*
X140159543Y-99760044D01*
X140180613Y-99750079D01*
X140202557Y-99742227D01*
X140225166Y-99736563D01*
X140248221Y-99733144D01*
X140271500Y-99732000D01*
X140746500Y-99732000D01*
X140769779Y-99733144D01*
X140769779Y-99733144D01*
G37*
D17*
X140509000Y-100257000D03*
D10*
G36*
X140769779Y-97983144D02*
G01*
X140792834Y-97986563D01*
X140815443Y-97992227D01*
X140837387Y-98000079D01*
X140858457Y-98010044D01*
X140878448Y-98022026D01*
X140897168Y-98035910D01*
X140914438Y-98051562D01*
X140930090Y-98068832D01*
X140943974Y-98087552D01*
X140955956Y-98107543D01*
X140965921Y-98128613D01*
X140973773Y-98150557D01*
X140979437Y-98173166D01*
X140982856Y-98196221D01*
X140984000Y-98219500D01*
X140984000Y-98794500D01*
X140982856Y-98817779D01*
X140979437Y-98840834D01*
X140973773Y-98863443D01*
X140965921Y-98885387D01*
X140955956Y-98906457D01*
X140943974Y-98926448D01*
X140930090Y-98945168D01*
X140914438Y-98962438D01*
X140897168Y-98978090D01*
X140878448Y-98991974D01*
X140858457Y-99003956D01*
X140837387Y-99013921D01*
X140815443Y-99021773D01*
X140792834Y-99027437D01*
X140769779Y-99030856D01*
X140746500Y-99032000D01*
X140271500Y-99032000D01*
X140248221Y-99030856D01*
X140225166Y-99027437D01*
X140202557Y-99021773D01*
X140180613Y-99013921D01*
X140159543Y-99003956D01*
X140139552Y-98991974D01*
X140120832Y-98978090D01*
X140103562Y-98962438D01*
X140087910Y-98945168D01*
X140074026Y-98926448D01*
X140062044Y-98906457D01*
X140052079Y-98885387D01*
X140044227Y-98863443D01*
X140038563Y-98840834D01*
X140035144Y-98817779D01*
X140034000Y-98794500D01*
X140034000Y-98219500D01*
X140035144Y-98196221D01*
X140038563Y-98173166D01*
X140044227Y-98150557D01*
X140052079Y-98128613D01*
X140062044Y-98107543D01*
X140074026Y-98087552D01*
X140087910Y-98068832D01*
X140103562Y-98051562D01*
X140120832Y-98035910D01*
X140139552Y-98022026D01*
X140159543Y-98010044D01*
X140180613Y-98000079D01*
X140202557Y-97992227D01*
X140225166Y-97986563D01*
X140248221Y-97983144D01*
X140271500Y-97982000D01*
X140746500Y-97982000D01*
X140769779Y-97983144D01*
X140769779Y-97983144D01*
G37*
D17*
X140509000Y-98507000D03*
D18*
X153650000Y-88565000D03*
X153650000Y-91615000D03*
X154650000Y-88565000D03*
X154650000Y-91615000D03*
X155650000Y-88565000D03*
X155650000Y-91615000D03*
X156650000Y-88565000D03*
X156650000Y-91615000D03*
X157650000Y-88565000D03*
X157650000Y-91615000D03*
X158650000Y-88565000D03*
X158650000Y-91615000D03*
D10*
G36*
X162904779Y-87501144D02*
G01*
X162927834Y-87504563D01*
X162950443Y-87510227D01*
X162972387Y-87518079D01*
X162993457Y-87528044D01*
X163013448Y-87540026D01*
X163032168Y-87553910D01*
X163049438Y-87569562D01*
X163065090Y-87586832D01*
X163078974Y-87605552D01*
X163090956Y-87625543D01*
X163100921Y-87646613D01*
X163108773Y-87668557D01*
X163114437Y-87691166D01*
X163117856Y-87714221D01*
X163119000Y-87737500D01*
X163119000Y-88312500D01*
X163117856Y-88335779D01*
X163114437Y-88358834D01*
X163108773Y-88381443D01*
X163100921Y-88403387D01*
X163090956Y-88424457D01*
X163078974Y-88444448D01*
X163065090Y-88463168D01*
X163049438Y-88480438D01*
X163032168Y-88496090D01*
X163013448Y-88509974D01*
X162993457Y-88521956D01*
X162972387Y-88531921D01*
X162950443Y-88539773D01*
X162927834Y-88545437D01*
X162904779Y-88548856D01*
X162881500Y-88550000D01*
X162406500Y-88550000D01*
X162383221Y-88548856D01*
X162360166Y-88545437D01*
X162337557Y-88539773D01*
X162315613Y-88531921D01*
X162294543Y-88521956D01*
X162274552Y-88509974D01*
X162255832Y-88496090D01*
X162238562Y-88480438D01*
X162222910Y-88463168D01*
X162209026Y-88444448D01*
X162197044Y-88424457D01*
X162187079Y-88403387D01*
X162179227Y-88381443D01*
X162173563Y-88358834D01*
X162170144Y-88335779D01*
X162169000Y-88312500D01*
X162169000Y-87737500D01*
X162170144Y-87714221D01*
X162173563Y-87691166D01*
X162179227Y-87668557D01*
X162187079Y-87646613D01*
X162197044Y-87625543D01*
X162209026Y-87605552D01*
X162222910Y-87586832D01*
X162238562Y-87569562D01*
X162255832Y-87553910D01*
X162274552Y-87540026D01*
X162294543Y-87528044D01*
X162315613Y-87518079D01*
X162337557Y-87510227D01*
X162360166Y-87504563D01*
X162383221Y-87501144D01*
X162406500Y-87500000D01*
X162881500Y-87500000D01*
X162904779Y-87501144D01*
X162904779Y-87501144D01*
G37*
D17*
X162644000Y-88025000D03*
D10*
G36*
X162904779Y-89251144D02*
G01*
X162927834Y-89254563D01*
X162950443Y-89260227D01*
X162972387Y-89268079D01*
X162993457Y-89278044D01*
X163013448Y-89290026D01*
X163032168Y-89303910D01*
X163049438Y-89319562D01*
X163065090Y-89336832D01*
X163078974Y-89355552D01*
X163090956Y-89375543D01*
X163100921Y-89396613D01*
X163108773Y-89418557D01*
X163114437Y-89441166D01*
X163117856Y-89464221D01*
X163119000Y-89487500D01*
X163119000Y-90062500D01*
X163117856Y-90085779D01*
X163114437Y-90108834D01*
X163108773Y-90131443D01*
X163100921Y-90153387D01*
X163090956Y-90174457D01*
X163078974Y-90194448D01*
X163065090Y-90213168D01*
X163049438Y-90230438D01*
X163032168Y-90246090D01*
X163013448Y-90259974D01*
X162993457Y-90271956D01*
X162972387Y-90281921D01*
X162950443Y-90289773D01*
X162927834Y-90295437D01*
X162904779Y-90298856D01*
X162881500Y-90300000D01*
X162406500Y-90300000D01*
X162383221Y-90298856D01*
X162360166Y-90295437D01*
X162337557Y-90289773D01*
X162315613Y-90281921D01*
X162294543Y-90271956D01*
X162274552Y-90259974D01*
X162255832Y-90246090D01*
X162238562Y-90230438D01*
X162222910Y-90213168D01*
X162209026Y-90194448D01*
X162197044Y-90174457D01*
X162187079Y-90153387D01*
X162179227Y-90131443D01*
X162173563Y-90108834D01*
X162170144Y-90085779D01*
X162169000Y-90062500D01*
X162169000Y-89487500D01*
X162170144Y-89464221D01*
X162173563Y-89441166D01*
X162179227Y-89418557D01*
X162187079Y-89396613D01*
X162197044Y-89375543D01*
X162209026Y-89355552D01*
X162222910Y-89336832D01*
X162238562Y-89319562D01*
X162255832Y-89303910D01*
X162274552Y-89290026D01*
X162294543Y-89278044D01*
X162315613Y-89268079D01*
X162337557Y-89260227D01*
X162360166Y-89254563D01*
X162383221Y-89251144D01*
X162406500Y-89250000D01*
X162881500Y-89250000D01*
X162904779Y-89251144D01*
X162904779Y-89251144D01*
G37*
D17*
X162644000Y-89775000D03*
D10*
G36*
X158608779Y-106283144D02*
G01*
X158631834Y-106286563D01*
X158654443Y-106292227D01*
X158676387Y-106300079D01*
X158697457Y-106310044D01*
X158717448Y-106322026D01*
X158736168Y-106335910D01*
X158753438Y-106351562D01*
X158769090Y-106368832D01*
X158782974Y-106387552D01*
X158794956Y-106407543D01*
X158804921Y-106428613D01*
X158812773Y-106450557D01*
X158818437Y-106473166D01*
X158821856Y-106496221D01*
X158823000Y-106519500D01*
X158823000Y-106994500D01*
X158821856Y-107017779D01*
X158818437Y-107040834D01*
X158812773Y-107063443D01*
X158804921Y-107085387D01*
X158794956Y-107106457D01*
X158782974Y-107126448D01*
X158769090Y-107145168D01*
X158753438Y-107162438D01*
X158736168Y-107178090D01*
X158717448Y-107191974D01*
X158697457Y-107203956D01*
X158676387Y-107213921D01*
X158654443Y-107221773D01*
X158631834Y-107227437D01*
X158608779Y-107230856D01*
X158585500Y-107232000D01*
X158010500Y-107232000D01*
X157987221Y-107230856D01*
X157964166Y-107227437D01*
X157941557Y-107221773D01*
X157919613Y-107213921D01*
X157898543Y-107203956D01*
X157878552Y-107191974D01*
X157859832Y-107178090D01*
X157842562Y-107162438D01*
X157826910Y-107145168D01*
X157813026Y-107126448D01*
X157801044Y-107106457D01*
X157791079Y-107085387D01*
X157783227Y-107063443D01*
X157777563Y-107040834D01*
X157774144Y-107017779D01*
X157773000Y-106994500D01*
X157773000Y-106519500D01*
X157774144Y-106496221D01*
X157777563Y-106473166D01*
X157783227Y-106450557D01*
X157791079Y-106428613D01*
X157801044Y-106407543D01*
X157813026Y-106387552D01*
X157826910Y-106368832D01*
X157842562Y-106351562D01*
X157859832Y-106335910D01*
X157878552Y-106322026D01*
X157898543Y-106310044D01*
X157919613Y-106300079D01*
X157941557Y-106292227D01*
X157964166Y-106286563D01*
X157987221Y-106283144D01*
X158010500Y-106282000D01*
X158585500Y-106282000D01*
X158608779Y-106283144D01*
X158608779Y-106283144D01*
G37*
D17*
X158298000Y-106757000D03*
D10*
G36*
X156858779Y-106283144D02*
G01*
X156881834Y-106286563D01*
X156904443Y-106292227D01*
X156926387Y-106300079D01*
X156947457Y-106310044D01*
X156967448Y-106322026D01*
X156986168Y-106335910D01*
X157003438Y-106351562D01*
X157019090Y-106368832D01*
X157032974Y-106387552D01*
X157044956Y-106407543D01*
X157054921Y-106428613D01*
X157062773Y-106450557D01*
X157068437Y-106473166D01*
X157071856Y-106496221D01*
X157073000Y-106519500D01*
X157073000Y-106994500D01*
X157071856Y-107017779D01*
X157068437Y-107040834D01*
X157062773Y-107063443D01*
X157054921Y-107085387D01*
X157044956Y-107106457D01*
X157032974Y-107126448D01*
X157019090Y-107145168D01*
X157003438Y-107162438D01*
X156986168Y-107178090D01*
X156967448Y-107191974D01*
X156947457Y-107203956D01*
X156926387Y-107213921D01*
X156904443Y-107221773D01*
X156881834Y-107227437D01*
X156858779Y-107230856D01*
X156835500Y-107232000D01*
X156260500Y-107232000D01*
X156237221Y-107230856D01*
X156214166Y-107227437D01*
X156191557Y-107221773D01*
X156169613Y-107213921D01*
X156148543Y-107203956D01*
X156128552Y-107191974D01*
X156109832Y-107178090D01*
X156092562Y-107162438D01*
X156076910Y-107145168D01*
X156063026Y-107126448D01*
X156051044Y-107106457D01*
X156041079Y-107085387D01*
X156033227Y-107063443D01*
X156027563Y-107040834D01*
X156024144Y-107017779D01*
X156023000Y-106994500D01*
X156023000Y-106519500D01*
X156024144Y-106496221D01*
X156027563Y-106473166D01*
X156033227Y-106450557D01*
X156041079Y-106428613D01*
X156051044Y-106407543D01*
X156063026Y-106387552D01*
X156076910Y-106368832D01*
X156092562Y-106351562D01*
X156109832Y-106335910D01*
X156128552Y-106322026D01*
X156148543Y-106310044D01*
X156169613Y-106300079D01*
X156191557Y-106292227D01*
X156214166Y-106286563D01*
X156237221Y-106283144D01*
X156260500Y-106282000D01*
X156835500Y-106282000D01*
X156858779Y-106283144D01*
X156858779Y-106283144D01*
G37*
D17*
X156548000Y-106757000D03*
D10*
G36*
X143584779Y-104946144D02*
G01*
X143607834Y-104949563D01*
X143630443Y-104955227D01*
X143652387Y-104963079D01*
X143673457Y-104973044D01*
X143693448Y-104985026D01*
X143712168Y-104998910D01*
X143729438Y-105014562D01*
X143745090Y-105031832D01*
X143758974Y-105050552D01*
X143770956Y-105070543D01*
X143780921Y-105091613D01*
X143788773Y-105113557D01*
X143794437Y-105136166D01*
X143797856Y-105159221D01*
X143799000Y-105182500D01*
X143799000Y-105757500D01*
X143797856Y-105780779D01*
X143794437Y-105803834D01*
X143788773Y-105826443D01*
X143780921Y-105848387D01*
X143770956Y-105869457D01*
X143758974Y-105889448D01*
X143745090Y-105908168D01*
X143729438Y-105925438D01*
X143712168Y-105941090D01*
X143693448Y-105954974D01*
X143673457Y-105966956D01*
X143652387Y-105976921D01*
X143630443Y-105984773D01*
X143607834Y-105990437D01*
X143584779Y-105993856D01*
X143561500Y-105995000D01*
X143086500Y-105995000D01*
X143063221Y-105993856D01*
X143040166Y-105990437D01*
X143017557Y-105984773D01*
X142995613Y-105976921D01*
X142974543Y-105966956D01*
X142954552Y-105954974D01*
X142935832Y-105941090D01*
X142918562Y-105925438D01*
X142902910Y-105908168D01*
X142889026Y-105889448D01*
X142877044Y-105869457D01*
X142867079Y-105848387D01*
X142859227Y-105826443D01*
X142853563Y-105803834D01*
X142850144Y-105780779D01*
X142849000Y-105757500D01*
X142849000Y-105182500D01*
X142850144Y-105159221D01*
X142853563Y-105136166D01*
X142859227Y-105113557D01*
X142867079Y-105091613D01*
X142877044Y-105070543D01*
X142889026Y-105050552D01*
X142902910Y-105031832D01*
X142918562Y-105014562D01*
X142935832Y-104998910D01*
X142954552Y-104985026D01*
X142974543Y-104973044D01*
X142995613Y-104963079D01*
X143017557Y-104955227D01*
X143040166Y-104949563D01*
X143063221Y-104946144D01*
X143086500Y-104945000D01*
X143561500Y-104945000D01*
X143584779Y-104946144D01*
X143584779Y-104946144D01*
G37*
D17*
X143324000Y-105470000D03*
D10*
G36*
X143584779Y-103196144D02*
G01*
X143607834Y-103199563D01*
X143630443Y-103205227D01*
X143652387Y-103213079D01*
X143673457Y-103223044D01*
X143693448Y-103235026D01*
X143712168Y-103248910D01*
X143729438Y-103264562D01*
X143745090Y-103281832D01*
X143758974Y-103300552D01*
X143770956Y-103320543D01*
X143780921Y-103341613D01*
X143788773Y-103363557D01*
X143794437Y-103386166D01*
X143797856Y-103409221D01*
X143799000Y-103432500D01*
X143799000Y-104007500D01*
X143797856Y-104030779D01*
X143794437Y-104053834D01*
X143788773Y-104076443D01*
X143780921Y-104098387D01*
X143770956Y-104119457D01*
X143758974Y-104139448D01*
X143745090Y-104158168D01*
X143729438Y-104175438D01*
X143712168Y-104191090D01*
X143693448Y-104204974D01*
X143673457Y-104216956D01*
X143652387Y-104226921D01*
X143630443Y-104234773D01*
X143607834Y-104240437D01*
X143584779Y-104243856D01*
X143561500Y-104245000D01*
X143086500Y-104245000D01*
X143063221Y-104243856D01*
X143040166Y-104240437D01*
X143017557Y-104234773D01*
X142995613Y-104226921D01*
X142974543Y-104216956D01*
X142954552Y-104204974D01*
X142935832Y-104191090D01*
X142918562Y-104175438D01*
X142902910Y-104158168D01*
X142889026Y-104139448D01*
X142877044Y-104119457D01*
X142867079Y-104098387D01*
X142859227Y-104076443D01*
X142853563Y-104053834D01*
X142850144Y-104030779D01*
X142849000Y-104007500D01*
X142849000Y-103432500D01*
X142850144Y-103409221D01*
X142853563Y-103386166D01*
X142859227Y-103363557D01*
X142867079Y-103341613D01*
X142877044Y-103320543D01*
X142889026Y-103300552D01*
X142902910Y-103281832D01*
X142918562Y-103264562D01*
X142935832Y-103248910D01*
X142954552Y-103235026D01*
X142974543Y-103223044D01*
X142995613Y-103213079D01*
X143017557Y-103205227D01*
X143040166Y-103199563D01*
X143063221Y-103196144D01*
X143086500Y-103195000D01*
X143561500Y-103195000D01*
X143584779Y-103196144D01*
X143584779Y-103196144D01*
G37*
D17*
X143324000Y-103720000D03*
D10*
G36*
X151083779Y-103195144D02*
G01*
X151106834Y-103198563D01*
X151129443Y-103204227D01*
X151151387Y-103212079D01*
X151172457Y-103222044D01*
X151192448Y-103234026D01*
X151211168Y-103247910D01*
X151228438Y-103263562D01*
X151244090Y-103280832D01*
X151257974Y-103299552D01*
X151269956Y-103319543D01*
X151279921Y-103340613D01*
X151287773Y-103362557D01*
X151293437Y-103385166D01*
X151296856Y-103408221D01*
X151298000Y-103431500D01*
X151298000Y-104006500D01*
X151296856Y-104029779D01*
X151293437Y-104052834D01*
X151287773Y-104075443D01*
X151279921Y-104097387D01*
X151269956Y-104118457D01*
X151257974Y-104138448D01*
X151244090Y-104157168D01*
X151228438Y-104174438D01*
X151211168Y-104190090D01*
X151192448Y-104203974D01*
X151172457Y-104215956D01*
X151151387Y-104225921D01*
X151129443Y-104233773D01*
X151106834Y-104239437D01*
X151083779Y-104242856D01*
X151060500Y-104244000D01*
X150585500Y-104244000D01*
X150562221Y-104242856D01*
X150539166Y-104239437D01*
X150516557Y-104233773D01*
X150494613Y-104225921D01*
X150473543Y-104215956D01*
X150453552Y-104203974D01*
X150434832Y-104190090D01*
X150417562Y-104174438D01*
X150401910Y-104157168D01*
X150388026Y-104138448D01*
X150376044Y-104118457D01*
X150366079Y-104097387D01*
X150358227Y-104075443D01*
X150352563Y-104052834D01*
X150349144Y-104029779D01*
X150348000Y-104006500D01*
X150348000Y-103431500D01*
X150349144Y-103408221D01*
X150352563Y-103385166D01*
X150358227Y-103362557D01*
X150366079Y-103340613D01*
X150376044Y-103319543D01*
X150388026Y-103299552D01*
X150401910Y-103280832D01*
X150417562Y-103263562D01*
X150434832Y-103247910D01*
X150453552Y-103234026D01*
X150473543Y-103222044D01*
X150494613Y-103212079D01*
X150516557Y-103204227D01*
X150539166Y-103198563D01*
X150562221Y-103195144D01*
X150585500Y-103194000D01*
X151060500Y-103194000D01*
X151083779Y-103195144D01*
X151083779Y-103195144D01*
G37*
D17*
X150823000Y-103719000D03*
D10*
G36*
X151083779Y-104945144D02*
G01*
X151106834Y-104948563D01*
X151129443Y-104954227D01*
X151151387Y-104962079D01*
X151172457Y-104972044D01*
X151192448Y-104984026D01*
X151211168Y-104997910D01*
X151228438Y-105013562D01*
X151244090Y-105030832D01*
X151257974Y-105049552D01*
X151269956Y-105069543D01*
X151279921Y-105090613D01*
X151287773Y-105112557D01*
X151293437Y-105135166D01*
X151296856Y-105158221D01*
X151298000Y-105181500D01*
X151298000Y-105756500D01*
X151296856Y-105779779D01*
X151293437Y-105802834D01*
X151287773Y-105825443D01*
X151279921Y-105847387D01*
X151269956Y-105868457D01*
X151257974Y-105888448D01*
X151244090Y-105907168D01*
X151228438Y-105924438D01*
X151211168Y-105940090D01*
X151192448Y-105953974D01*
X151172457Y-105965956D01*
X151151387Y-105975921D01*
X151129443Y-105983773D01*
X151106834Y-105989437D01*
X151083779Y-105992856D01*
X151060500Y-105994000D01*
X150585500Y-105994000D01*
X150562221Y-105992856D01*
X150539166Y-105989437D01*
X150516557Y-105983773D01*
X150494613Y-105975921D01*
X150473543Y-105965956D01*
X150453552Y-105953974D01*
X150434832Y-105940090D01*
X150417562Y-105924438D01*
X150401910Y-105907168D01*
X150388026Y-105888448D01*
X150376044Y-105868457D01*
X150366079Y-105847387D01*
X150358227Y-105825443D01*
X150352563Y-105802834D01*
X150349144Y-105779779D01*
X150348000Y-105756500D01*
X150348000Y-105181500D01*
X150349144Y-105158221D01*
X150352563Y-105135166D01*
X150358227Y-105112557D01*
X150366079Y-105090613D01*
X150376044Y-105069543D01*
X150388026Y-105049552D01*
X150401910Y-105030832D01*
X150417562Y-105013562D01*
X150434832Y-104997910D01*
X150453552Y-104984026D01*
X150473543Y-104972044D01*
X150494613Y-104962079D01*
X150516557Y-104954227D01*
X150539166Y-104948563D01*
X150562221Y-104945144D01*
X150585500Y-104944000D01*
X151060500Y-104944000D01*
X151083779Y-104945144D01*
X151083779Y-104945144D01*
G37*
D17*
X150823000Y-105469000D03*
D10*
G36*
X144238779Y-86569144D02*
G01*
X144261834Y-86572563D01*
X144284443Y-86578227D01*
X144306387Y-86586079D01*
X144327457Y-86596044D01*
X144347448Y-86608026D01*
X144366168Y-86621910D01*
X144383438Y-86637562D01*
X144399090Y-86654832D01*
X144412974Y-86673552D01*
X144424956Y-86693543D01*
X144434921Y-86714613D01*
X144442773Y-86736557D01*
X144448437Y-86759166D01*
X144451856Y-86782221D01*
X144453000Y-86805500D01*
X144453000Y-87380500D01*
X144451856Y-87403779D01*
X144448437Y-87426834D01*
X144442773Y-87449443D01*
X144434921Y-87471387D01*
X144424956Y-87492457D01*
X144412974Y-87512448D01*
X144399090Y-87531168D01*
X144383438Y-87548438D01*
X144366168Y-87564090D01*
X144347448Y-87577974D01*
X144327457Y-87589956D01*
X144306387Y-87599921D01*
X144284443Y-87607773D01*
X144261834Y-87613437D01*
X144238779Y-87616856D01*
X144215500Y-87618000D01*
X143740500Y-87618000D01*
X143717221Y-87616856D01*
X143694166Y-87613437D01*
X143671557Y-87607773D01*
X143649613Y-87599921D01*
X143628543Y-87589956D01*
X143608552Y-87577974D01*
X143589832Y-87564090D01*
X143572562Y-87548438D01*
X143556910Y-87531168D01*
X143543026Y-87512448D01*
X143531044Y-87492457D01*
X143521079Y-87471387D01*
X143513227Y-87449443D01*
X143507563Y-87426834D01*
X143504144Y-87403779D01*
X143503000Y-87380500D01*
X143503000Y-86805500D01*
X143504144Y-86782221D01*
X143507563Y-86759166D01*
X143513227Y-86736557D01*
X143521079Y-86714613D01*
X143531044Y-86693543D01*
X143543026Y-86673552D01*
X143556910Y-86654832D01*
X143572562Y-86637562D01*
X143589832Y-86621910D01*
X143608552Y-86608026D01*
X143628543Y-86596044D01*
X143649613Y-86586079D01*
X143671557Y-86578227D01*
X143694166Y-86572563D01*
X143717221Y-86569144D01*
X143740500Y-86568000D01*
X144215500Y-86568000D01*
X144238779Y-86569144D01*
X144238779Y-86569144D01*
G37*
D17*
X143978000Y-87093000D03*
D10*
G36*
X144238779Y-88319144D02*
G01*
X144261834Y-88322563D01*
X144284443Y-88328227D01*
X144306387Y-88336079D01*
X144327457Y-88346044D01*
X144347448Y-88358026D01*
X144366168Y-88371910D01*
X144383438Y-88387562D01*
X144399090Y-88404832D01*
X144412974Y-88423552D01*
X144424956Y-88443543D01*
X144434921Y-88464613D01*
X144442773Y-88486557D01*
X144448437Y-88509166D01*
X144451856Y-88532221D01*
X144453000Y-88555500D01*
X144453000Y-89130500D01*
X144451856Y-89153779D01*
X144448437Y-89176834D01*
X144442773Y-89199443D01*
X144434921Y-89221387D01*
X144424956Y-89242457D01*
X144412974Y-89262448D01*
X144399090Y-89281168D01*
X144383438Y-89298438D01*
X144366168Y-89314090D01*
X144347448Y-89327974D01*
X144327457Y-89339956D01*
X144306387Y-89349921D01*
X144284443Y-89357773D01*
X144261834Y-89363437D01*
X144238779Y-89366856D01*
X144215500Y-89368000D01*
X143740500Y-89368000D01*
X143717221Y-89366856D01*
X143694166Y-89363437D01*
X143671557Y-89357773D01*
X143649613Y-89349921D01*
X143628543Y-89339956D01*
X143608552Y-89327974D01*
X143589832Y-89314090D01*
X143572562Y-89298438D01*
X143556910Y-89281168D01*
X143543026Y-89262448D01*
X143531044Y-89242457D01*
X143521079Y-89221387D01*
X143513227Y-89199443D01*
X143507563Y-89176834D01*
X143504144Y-89153779D01*
X143503000Y-89130500D01*
X143503000Y-88555500D01*
X143504144Y-88532221D01*
X143507563Y-88509166D01*
X143513227Y-88486557D01*
X143521079Y-88464613D01*
X143531044Y-88443543D01*
X143543026Y-88423552D01*
X143556910Y-88404832D01*
X143572562Y-88387562D01*
X143589832Y-88371910D01*
X143608552Y-88358026D01*
X143628543Y-88346044D01*
X143649613Y-88336079D01*
X143671557Y-88328227D01*
X143694166Y-88322563D01*
X143717221Y-88319144D01*
X143740500Y-88318000D01*
X144215500Y-88318000D01*
X144238779Y-88319144D01*
X144238779Y-88319144D01*
G37*
D17*
X143978000Y-88843000D03*
D10*
G36*
X142493779Y-90073144D02*
G01*
X142516834Y-90076563D01*
X142539443Y-90082227D01*
X142561387Y-90090079D01*
X142582457Y-90100044D01*
X142602448Y-90112026D01*
X142621168Y-90125910D01*
X142638438Y-90141562D01*
X142654090Y-90158832D01*
X142667974Y-90177552D01*
X142679956Y-90197543D01*
X142689921Y-90218613D01*
X142697773Y-90240557D01*
X142703437Y-90263166D01*
X142706856Y-90286221D01*
X142708000Y-90309500D01*
X142708000Y-90784500D01*
X142706856Y-90807779D01*
X142703437Y-90830834D01*
X142697773Y-90853443D01*
X142689921Y-90875387D01*
X142679956Y-90896457D01*
X142667974Y-90916448D01*
X142654090Y-90935168D01*
X142638438Y-90952438D01*
X142621168Y-90968090D01*
X142602448Y-90981974D01*
X142582457Y-90993956D01*
X142561387Y-91003921D01*
X142539443Y-91011773D01*
X142516834Y-91017437D01*
X142493779Y-91020856D01*
X142470500Y-91022000D01*
X141895500Y-91022000D01*
X141872221Y-91020856D01*
X141849166Y-91017437D01*
X141826557Y-91011773D01*
X141804613Y-91003921D01*
X141783543Y-90993956D01*
X141763552Y-90981974D01*
X141744832Y-90968090D01*
X141727562Y-90952438D01*
X141711910Y-90935168D01*
X141698026Y-90916448D01*
X141686044Y-90896457D01*
X141676079Y-90875387D01*
X141668227Y-90853443D01*
X141662563Y-90830834D01*
X141659144Y-90807779D01*
X141658000Y-90784500D01*
X141658000Y-90309500D01*
X141659144Y-90286221D01*
X141662563Y-90263166D01*
X141668227Y-90240557D01*
X141676079Y-90218613D01*
X141686044Y-90197543D01*
X141698026Y-90177552D01*
X141711910Y-90158832D01*
X141727562Y-90141562D01*
X141744832Y-90125910D01*
X141763552Y-90112026D01*
X141783543Y-90100044D01*
X141804613Y-90090079D01*
X141826557Y-90082227D01*
X141849166Y-90076563D01*
X141872221Y-90073144D01*
X141895500Y-90072000D01*
X142470500Y-90072000D01*
X142493779Y-90073144D01*
X142493779Y-90073144D01*
G37*
D17*
X142183000Y-90547000D03*
D10*
G36*
X144243779Y-90073144D02*
G01*
X144266834Y-90076563D01*
X144289443Y-90082227D01*
X144311387Y-90090079D01*
X144332457Y-90100044D01*
X144352448Y-90112026D01*
X144371168Y-90125910D01*
X144388438Y-90141562D01*
X144404090Y-90158832D01*
X144417974Y-90177552D01*
X144429956Y-90197543D01*
X144439921Y-90218613D01*
X144447773Y-90240557D01*
X144453437Y-90263166D01*
X144456856Y-90286221D01*
X144458000Y-90309500D01*
X144458000Y-90784500D01*
X144456856Y-90807779D01*
X144453437Y-90830834D01*
X144447773Y-90853443D01*
X144439921Y-90875387D01*
X144429956Y-90896457D01*
X144417974Y-90916448D01*
X144404090Y-90935168D01*
X144388438Y-90952438D01*
X144371168Y-90968090D01*
X144352448Y-90981974D01*
X144332457Y-90993956D01*
X144311387Y-91003921D01*
X144289443Y-91011773D01*
X144266834Y-91017437D01*
X144243779Y-91020856D01*
X144220500Y-91022000D01*
X143645500Y-91022000D01*
X143622221Y-91020856D01*
X143599166Y-91017437D01*
X143576557Y-91011773D01*
X143554613Y-91003921D01*
X143533543Y-90993956D01*
X143513552Y-90981974D01*
X143494832Y-90968090D01*
X143477562Y-90952438D01*
X143461910Y-90935168D01*
X143448026Y-90916448D01*
X143436044Y-90896457D01*
X143426079Y-90875387D01*
X143418227Y-90853443D01*
X143412563Y-90830834D01*
X143409144Y-90807779D01*
X143408000Y-90784500D01*
X143408000Y-90309500D01*
X143409144Y-90286221D01*
X143412563Y-90263166D01*
X143418227Y-90240557D01*
X143426079Y-90218613D01*
X143436044Y-90197543D01*
X143448026Y-90177552D01*
X143461910Y-90158832D01*
X143477562Y-90141562D01*
X143494832Y-90125910D01*
X143513552Y-90112026D01*
X143533543Y-90100044D01*
X143554613Y-90090079D01*
X143576557Y-90082227D01*
X143599166Y-90076563D01*
X143622221Y-90073144D01*
X143645500Y-90072000D01*
X144220500Y-90072000D01*
X144243779Y-90073144D01*
X144243779Y-90073144D01*
G37*
D17*
X143933000Y-90547000D03*
D10*
G36*
X141791779Y-103198144D02*
G01*
X141814834Y-103201563D01*
X141837443Y-103207227D01*
X141859387Y-103215079D01*
X141880457Y-103225044D01*
X141900448Y-103237026D01*
X141919168Y-103250910D01*
X141936438Y-103266562D01*
X141952090Y-103283832D01*
X141965974Y-103302552D01*
X141977956Y-103322543D01*
X141987921Y-103343613D01*
X141995773Y-103365557D01*
X142001437Y-103388166D01*
X142004856Y-103411221D01*
X142006000Y-103434500D01*
X142006000Y-104009500D01*
X142004856Y-104032779D01*
X142001437Y-104055834D01*
X141995773Y-104078443D01*
X141987921Y-104100387D01*
X141977956Y-104121457D01*
X141965974Y-104141448D01*
X141952090Y-104160168D01*
X141936438Y-104177438D01*
X141919168Y-104193090D01*
X141900448Y-104206974D01*
X141880457Y-104218956D01*
X141859387Y-104228921D01*
X141837443Y-104236773D01*
X141814834Y-104242437D01*
X141791779Y-104245856D01*
X141768500Y-104247000D01*
X141293500Y-104247000D01*
X141270221Y-104245856D01*
X141247166Y-104242437D01*
X141224557Y-104236773D01*
X141202613Y-104228921D01*
X141181543Y-104218956D01*
X141161552Y-104206974D01*
X141142832Y-104193090D01*
X141125562Y-104177438D01*
X141109910Y-104160168D01*
X141096026Y-104141448D01*
X141084044Y-104121457D01*
X141074079Y-104100387D01*
X141066227Y-104078443D01*
X141060563Y-104055834D01*
X141057144Y-104032779D01*
X141056000Y-104009500D01*
X141056000Y-103434500D01*
X141057144Y-103411221D01*
X141060563Y-103388166D01*
X141066227Y-103365557D01*
X141074079Y-103343613D01*
X141084044Y-103322543D01*
X141096026Y-103302552D01*
X141109910Y-103283832D01*
X141125562Y-103266562D01*
X141142832Y-103250910D01*
X141161552Y-103237026D01*
X141181543Y-103225044D01*
X141202613Y-103215079D01*
X141224557Y-103207227D01*
X141247166Y-103201563D01*
X141270221Y-103198144D01*
X141293500Y-103197000D01*
X141768500Y-103197000D01*
X141791779Y-103198144D01*
X141791779Y-103198144D01*
G37*
D17*
X141531000Y-103722000D03*
D10*
G36*
X141791779Y-104948144D02*
G01*
X141814834Y-104951563D01*
X141837443Y-104957227D01*
X141859387Y-104965079D01*
X141880457Y-104975044D01*
X141900448Y-104987026D01*
X141919168Y-105000910D01*
X141936438Y-105016562D01*
X141952090Y-105033832D01*
X141965974Y-105052552D01*
X141977956Y-105072543D01*
X141987921Y-105093613D01*
X141995773Y-105115557D01*
X142001437Y-105138166D01*
X142004856Y-105161221D01*
X142006000Y-105184500D01*
X142006000Y-105759500D01*
X142004856Y-105782779D01*
X142001437Y-105805834D01*
X141995773Y-105828443D01*
X141987921Y-105850387D01*
X141977956Y-105871457D01*
X141965974Y-105891448D01*
X141952090Y-105910168D01*
X141936438Y-105927438D01*
X141919168Y-105943090D01*
X141900448Y-105956974D01*
X141880457Y-105968956D01*
X141859387Y-105978921D01*
X141837443Y-105986773D01*
X141814834Y-105992437D01*
X141791779Y-105995856D01*
X141768500Y-105997000D01*
X141293500Y-105997000D01*
X141270221Y-105995856D01*
X141247166Y-105992437D01*
X141224557Y-105986773D01*
X141202613Y-105978921D01*
X141181543Y-105968956D01*
X141161552Y-105956974D01*
X141142832Y-105943090D01*
X141125562Y-105927438D01*
X141109910Y-105910168D01*
X141096026Y-105891448D01*
X141084044Y-105871457D01*
X141074079Y-105850387D01*
X141066227Y-105828443D01*
X141060563Y-105805834D01*
X141057144Y-105782779D01*
X141056000Y-105759500D01*
X141056000Y-105184500D01*
X141057144Y-105161221D01*
X141060563Y-105138166D01*
X141066227Y-105115557D01*
X141074079Y-105093613D01*
X141084044Y-105072543D01*
X141096026Y-105052552D01*
X141109910Y-105033832D01*
X141125562Y-105016562D01*
X141142832Y-105000910D01*
X141161552Y-104987026D01*
X141181543Y-104975044D01*
X141202613Y-104965079D01*
X141224557Y-104957227D01*
X141247166Y-104951563D01*
X141270221Y-104948144D01*
X141293500Y-104947000D01*
X141768500Y-104947000D01*
X141791779Y-104948144D01*
X141791779Y-104948144D01*
G37*
D17*
X141531000Y-105472000D03*
D10*
G36*
X142493779Y-91732144D02*
G01*
X142516834Y-91735563D01*
X142539443Y-91741227D01*
X142561387Y-91749079D01*
X142582457Y-91759044D01*
X142602448Y-91771026D01*
X142621168Y-91784910D01*
X142638438Y-91800562D01*
X142654090Y-91817832D01*
X142667974Y-91836552D01*
X142679956Y-91856543D01*
X142689921Y-91877613D01*
X142697773Y-91899557D01*
X142703437Y-91922166D01*
X142706856Y-91945221D01*
X142708000Y-91968500D01*
X142708000Y-92443500D01*
X142706856Y-92466779D01*
X142703437Y-92489834D01*
X142697773Y-92512443D01*
X142689921Y-92534387D01*
X142679956Y-92555457D01*
X142667974Y-92575448D01*
X142654090Y-92594168D01*
X142638438Y-92611438D01*
X142621168Y-92627090D01*
X142602448Y-92640974D01*
X142582457Y-92652956D01*
X142561387Y-92662921D01*
X142539443Y-92670773D01*
X142516834Y-92676437D01*
X142493779Y-92679856D01*
X142470500Y-92681000D01*
X141895500Y-92681000D01*
X141872221Y-92679856D01*
X141849166Y-92676437D01*
X141826557Y-92670773D01*
X141804613Y-92662921D01*
X141783543Y-92652956D01*
X141763552Y-92640974D01*
X141744832Y-92627090D01*
X141727562Y-92611438D01*
X141711910Y-92594168D01*
X141698026Y-92575448D01*
X141686044Y-92555457D01*
X141676079Y-92534387D01*
X141668227Y-92512443D01*
X141662563Y-92489834D01*
X141659144Y-92466779D01*
X141658000Y-92443500D01*
X141658000Y-91968500D01*
X141659144Y-91945221D01*
X141662563Y-91922166D01*
X141668227Y-91899557D01*
X141676079Y-91877613D01*
X141686044Y-91856543D01*
X141698026Y-91836552D01*
X141711910Y-91817832D01*
X141727562Y-91800562D01*
X141744832Y-91784910D01*
X141763552Y-91771026D01*
X141783543Y-91759044D01*
X141804613Y-91749079D01*
X141826557Y-91741227D01*
X141849166Y-91735563D01*
X141872221Y-91732144D01*
X141895500Y-91731000D01*
X142470500Y-91731000D01*
X142493779Y-91732144D01*
X142493779Y-91732144D01*
G37*
D17*
X142183000Y-92206000D03*
D10*
G36*
X144243779Y-91732144D02*
G01*
X144266834Y-91735563D01*
X144289443Y-91741227D01*
X144311387Y-91749079D01*
X144332457Y-91759044D01*
X144352448Y-91771026D01*
X144371168Y-91784910D01*
X144388438Y-91800562D01*
X144404090Y-91817832D01*
X144417974Y-91836552D01*
X144429956Y-91856543D01*
X144439921Y-91877613D01*
X144447773Y-91899557D01*
X144453437Y-91922166D01*
X144456856Y-91945221D01*
X144458000Y-91968500D01*
X144458000Y-92443500D01*
X144456856Y-92466779D01*
X144453437Y-92489834D01*
X144447773Y-92512443D01*
X144439921Y-92534387D01*
X144429956Y-92555457D01*
X144417974Y-92575448D01*
X144404090Y-92594168D01*
X144388438Y-92611438D01*
X144371168Y-92627090D01*
X144352448Y-92640974D01*
X144332457Y-92652956D01*
X144311387Y-92662921D01*
X144289443Y-92670773D01*
X144266834Y-92676437D01*
X144243779Y-92679856D01*
X144220500Y-92681000D01*
X143645500Y-92681000D01*
X143622221Y-92679856D01*
X143599166Y-92676437D01*
X143576557Y-92670773D01*
X143554613Y-92662921D01*
X143533543Y-92652956D01*
X143513552Y-92640974D01*
X143494832Y-92627090D01*
X143477562Y-92611438D01*
X143461910Y-92594168D01*
X143448026Y-92575448D01*
X143436044Y-92555457D01*
X143426079Y-92534387D01*
X143418227Y-92512443D01*
X143412563Y-92489834D01*
X143409144Y-92466779D01*
X143408000Y-92443500D01*
X143408000Y-91968500D01*
X143409144Y-91945221D01*
X143412563Y-91922166D01*
X143418227Y-91899557D01*
X143426079Y-91877613D01*
X143436044Y-91856543D01*
X143448026Y-91836552D01*
X143461910Y-91817832D01*
X143477562Y-91800562D01*
X143494832Y-91784910D01*
X143513552Y-91771026D01*
X143533543Y-91759044D01*
X143554613Y-91749079D01*
X143576557Y-91741227D01*
X143599166Y-91735563D01*
X143622221Y-91732144D01*
X143645500Y-91731000D01*
X144220500Y-91731000D01*
X144243779Y-91732144D01*
X144243779Y-91732144D01*
G37*
D17*
X143933000Y-92206000D03*
D19*
X156889000Y-86773990D03*
X141776023Y-88131162D03*
X140943000Y-100365012D03*
X157948001Y-97260999D03*
X157298000Y-101106000D03*
X153097010Y-88053000D03*
X147346457Y-88767990D03*
X153725618Y-106836043D03*
X143298218Y-102176000D03*
X142796406Y-107489969D03*
X146016605Y-101672794D03*
X149031543Y-101959988D03*
X143625328Y-98885594D03*
X150991000Y-105446000D03*
X156698000Y-106945000D03*
X152830525Y-92928065D03*
X161735535Y-91032000D03*
X155881000Y-104836011D03*
X148381010Y-105443000D03*
X146734388Y-91356612D03*
X159583000Y-89637000D03*
X155830000Y-98022000D03*
X148024844Y-84905735D03*
X141266032Y-92998957D03*
X146464475Y-86022011D03*
X139010000Y-91810000D03*
X145856276Y-95101302D03*
X142796000Y-103376010D03*
X139511000Y-106025002D03*
X151894000Y-93336000D03*
X150895808Y-98773242D03*
X161006000Y-92443000D03*
X153729182Y-92448565D03*
X162335535Y-86599980D03*
X163346313Y-86762214D03*
X152045000Y-89632000D03*
X150062739Y-101041908D03*
X152645000Y-90531999D03*
X150726000Y-101889000D03*
X145180000Y-92237000D03*
X146065886Y-92665011D03*
X148682675Y-90868500D03*
X150053178Y-91579178D03*
X150948990Y-86459979D03*
X154477910Y-85223422D03*
X151702391Y-85695604D03*
X153721125Y-84964010D03*
X161241209Y-86020806D03*
X140850010Y-86111090D03*
X149754000Y-85655000D03*
X146191000Y-84822000D03*
X140895990Y-97071437D03*
X144786085Y-95666042D03*
X160456000Y-86173990D03*
X149130086Y-86175058D03*
X140531561Y-104972469D03*
X139840535Y-102048624D03*
X146565013Y-108073085D03*
X141482772Y-107649228D03*
X145765180Y-108089979D03*
X145165594Y-87896894D03*
X139660000Y-88121000D03*
X143263974Y-96414946D03*
X146008675Y-87833536D03*
X142464019Y-96423524D03*
X150878458Y-108481990D03*
X149073000Y-100990000D03*
X147326290Y-101363010D03*
X162335535Y-91680000D03*
X139626979Y-103987467D03*
X150272022Y-99274150D03*
X146614010Y-97232033D03*
X139887021Y-102934450D03*
X150705886Y-99979606D03*
X147095000Y-98618000D03*
D20*
X147525000Y-95669000D02*
X149925000Y-95669000D01*
X142183000Y-90547000D02*
X142183000Y-92206000D01*
X142357000Y-90373000D02*
X142183000Y-90547000D01*
X142357000Y-88843000D02*
X142357000Y-90373000D01*
X147525000Y-89994000D02*
X149925000Y-89994000D01*
X147525000Y-88289000D02*
X149925000Y-88289000D01*
X159052000Y-95239000D02*
X159052000Y-96239000D01*
X159052000Y-96239000D02*
X158030000Y-97261000D01*
X149125000Y-89994000D02*
X149125000Y-88289000D01*
X158030000Y-97261000D02*
X157948000Y-97261000D01*
X146848022Y-88536682D02*
X146848022Y-88552001D01*
X147095704Y-88289000D02*
X146848022Y-88536682D01*
X147525000Y-88289000D02*
X147095704Y-88289000D01*
X146848022Y-88552001D02*
X144972157Y-88552001D01*
X142357000Y-88843000D02*
X141776023Y-88262023D01*
X141776023Y-88262023D02*
X141776023Y-88131162D01*
X142342448Y-87989001D02*
X142200287Y-88131162D01*
X144972157Y-88552001D02*
X144409157Y-87989001D01*
X144409157Y-87989001D02*
X142342448Y-87989001D01*
X142200287Y-88131162D02*
X141776023Y-88131162D01*
X157948000Y-97261000D02*
X157948001Y-97260999D01*
X158252000Y-103739000D02*
X158252000Y-102060000D01*
X158252000Y-102060000D02*
X157597999Y-101405999D01*
X157597999Y-101405999D02*
X157298000Y-101106000D01*
X157298000Y-102093000D02*
X157298000Y-101106000D01*
X156652000Y-103739000D02*
X156652000Y-102739000D01*
X156652000Y-102739000D02*
X157298000Y-102093000D01*
X157298000Y-101106000D02*
X158252000Y-102060000D01*
X157884000Y-100520000D02*
X157298000Y-101106000D01*
X157948000Y-97261000D02*
X157884000Y-97325000D01*
X157884000Y-97325000D02*
X157884000Y-100520000D01*
X153650000Y-88565000D02*
X153200000Y-88565000D01*
X154076021Y-87073989D02*
X153397009Y-87753001D01*
X153200000Y-88565000D02*
X153097010Y-88462010D01*
X153097010Y-88462010D02*
X153097010Y-88053000D01*
X152861010Y-88289000D02*
X153097010Y-88053000D01*
X149925000Y-88289000D02*
X152861010Y-88289000D01*
X156589001Y-87073989D02*
X154076021Y-87073989D01*
X156889000Y-86773990D02*
X156589001Y-87073989D01*
X153397009Y-87753001D02*
X153097010Y-88053000D01*
X147046458Y-88467991D02*
X147346457Y-88767990D01*
X146848022Y-88552001D02*
X146932032Y-88467991D01*
X146932032Y-88467991D02*
X147046458Y-88467991D01*
X139534000Y-98956012D02*
X140643001Y-100065013D01*
X145568275Y-94501301D02*
X145270576Y-94799000D01*
X146507301Y-94501301D02*
X145568275Y-94501301D01*
X140592000Y-94799000D02*
X139534000Y-95857000D01*
X140643001Y-100065013D02*
X140943000Y-100365012D01*
X147525000Y-95669000D02*
X147525000Y-95519000D01*
X147525000Y-95519000D02*
X146507301Y-94501301D01*
X139534000Y-95857000D02*
X139534000Y-98956012D01*
X145270576Y-94799000D02*
X140592000Y-94799000D01*
X143314000Y-101419000D02*
X143314000Y-102160218D01*
X143314000Y-102160218D02*
X143298218Y-102176000D01*
X140943000Y-100365000D02*
X140943000Y-100365012D01*
X140943000Y-101453000D02*
X140943000Y-100365000D01*
X143298218Y-102176000D02*
X141666000Y-102176000D01*
X141666000Y-102176000D02*
X140943000Y-101453000D01*
X147040920Y-107660988D02*
X146853015Y-107473083D01*
X153725618Y-106836043D02*
X153079684Y-107481977D01*
X150424767Y-107481977D02*
X150245756Y-107660988D01*
X143220670Y-107489969D02*
X142796406Y-107489969D01*
X143237556Y-107473083D02*
X143220670Y-107489969D01*
X146853015Y-107473083D02*
X143237556Y-107473083D01*
X150245756Y-107660988D02*
X147040920Y-107660988D01*
X153079684Y-107481977D02*
X150424767Y-107481977D01*
X146014000Y-100719000D02*
X146014000Y-101670189D01*
X146014000Y-101670189D02*
X146016605Y-101672794D01*
X148860362Y-101922000D02*
X148898350Y-101959988D01*
X148898350Y-101959988D02*
X149031543Y-101959988D01*
X149018738Y-101972793D02*
X149031543Y-101959988D01*
X146016605Y-101672794D02*
X146316604Y-101972793D01*
X146316604Y-101972793D02*
X149018738Y-101972793D01*
X148433000Y-105660000D02*
X148583000Y-105660000D01*
X146133000Y-103360000D02*
X148433000Y-105660000D01*
X145683000Y-103360000D02*
X146133000Y-103360000D01*
X145323000Y-103720000D02*
X145683000Y-103360000D01*
X143324000Y-103720000D02*
X145323000Y-103720000D01*
X148774000Y-105469000D02*
X148583000Y-105660000D01*
X150823000Y-105469000D02*
X148774000Y-105469000D01*
X143283000Y-103720000D02*
X143324000Y-103720000D01*
X141531000Y-105472000D02*
X143283000Y-103720000D01*
X143933000Y-90547000D02*
X143933000Y-92206000D01*
X143933000Y-88888000D02*
X143978000Y-88843000D01*
X143933000Y-90547000D02*
X143933000Y-88888000D01*
X157452000Y-104739000D02*
X157452000Y-103739000D01*
X155852000Y-104739000D02*
X156149000Y-105036000D01*
X155852000Y-103739000D02*
X155852000Y-104739000D01*
X157155000Y-105036000D02*
X157452000Y-104739000D01*
X156149000Y-105036000D02*
X157155000Y-105036000D01*
X150846000Y-105446000D02*
X150823000Y-105469000D01*
X150991000Y-105446000D02*
X150846000Y-105446000D01*
X156698000Y-106907000D02*
X156548000Y-106757000D01*
X156698000Y-106945000D02*
X156698000Y-106907000D01*
X161735535Y-90683465D02*
X162644000Y-89775000D01*
X161735535Y-91032000D02*
X161735535Y-90683465D01*
X155881000Y-103768000D02*
X155852000Y-103739000D01*
X155881000Y-104836011D02*
X155881000Y-103768000D01*
X148583000Y-105660000D02*
X148381010Y-105458010D01*
X148381010Y-105458010D02*
X148381010Y-105443000D01*
X143933000Y-90547000D02*
X144742612Y-91356612D01*
X146310124Y-91356612D02*
X146734388Y-91356612D01*
X144742612Y-91356612D02*
X146310124Y-91356612D01*
X155852000Y-98044000D02*
X155830000Y-98022000D01*
X156652000Y-97200000D02*
X156129999Y-97722001D01*
X156652000Y-95239000D02*
X156652000Y-97200000D01*
X155852000Y-103739000D02*
X155852000Y-98044000D01*
X156129999Y-97722001D02*
X155830000Y-98022000D01*
X160278010Y-88941990D02*
X159583000Y-89637000D01*
X162644000Y-89775000D02*
X161810990Y-88941990D01*
X161810990Y-88941990D02*
X160278010Y-88941990D01*
X143140043Y-92998957D02*
X141690296Y-92998957D01*
X141690296Y-92998957D02*
X141266032Y-92998957D01*
X143933000Y-92206000D02*
X143140043Y-92998957D01*
X163223000Y-92972000D02*
X162935536Y-93259464D01*
X163223000Y-90979000D02*
X163223000Y-92972000D01*
X162644000Y-89775000D02*
X162644000Y-90400000D01*
X162644000Y-90400000D02*
X163223000Y-90979000D01*
X154650000Y-91615000D02*
X154650000Y-92740000D01*
X154266022Y-93123978D02*
X153450702Y-93123978D01*
X153450702Y-93123978D02*
X153254789Y-92928065D01*
X154650000Y-92740000D02*
X154266022Y-93123978D01*
X153254789Y-92928065D02*
X152830525Y-92928065D01*
X152397000Y-95094000D02*
X151942000Y-95094000D01*
X153567000Y-93924000D02*
X152397000Y-95094000D01*
X156337000Y-93924000D02*
X153567000Y-93924000D01*
X156652000Y-95239000D02*
X156652000Y-94239000D01*
X156652000Y-94239000D02*
X156337000Y-93924000D01*
X146908568Y-86022011D02*
X146888739Y-86022011D01*
X146888739Y-86022011D02*
X146464475Y-86022011D01*
X148024844Y-84905735D02*
X146908568Y-86022011D01*
X143664922Y-98846000D02*
X143625328Y-98885594D01*
X144445000Y-98846000D02*
X143664922Y-98846000D01*
X144814000Y-97519000D02*
X144814000Y-98477000D01*
X144814000Y-98477000D02*
X144445000Y-98846000D01*
X144814000Y-96486671D02*
X145556277Y-95744394D01*
X145556277Y-95744394D02*
X145556277Y-95401301D01*
X145556277Y-95401301D02*
X145856276Y-95101302D01*
X144814000Y-97519000D02*
X144814000Y-96486671D01*
X146014000Y-95259026D02*
X145856276Y-95101302D01*
X146014000Y-98219000D02*
X146014000Y-95259026D01*
X143324000Y-103720000D02*
X143139990Y-103720000D01*
X143095999Y-103676009D02*
X142796000Y-103376010D01*
X143139990Y-103720000D02*
X143095999Y-103676009D01*
X143814000Y-100790000D02*
X143814000Y-101419000D01*
X143814000Y-100260000D02*
X143814000Y-100790000D01*
X143625328Y-98885594D02*
X143625328Y-100071328D01*
X143625328Y-100071328D02*
X143814000Y-100260000D01*
X144833998Y-102510998D02*
X145683000Y-103360000D01*
X144833998Y-101740998D02*
X144833998Y-102510998D01*
X144814000Y-101721000D02*
X144833998Y-101740998D01*
X144814000Y-101419000D02*
X144814000Y-101721000D01*
X150259078Y-107081966D02*
X150081033Y-107260011D01*
X150081033Y-107260011D02*
X147205643Y-107260011D01*
X147205643Y-107260011D02*
X146835599Y-106889967D01*
X153279667Y-106236033D02*
X152433734Y-107081966D01*
X146835599Y-106889967D02*
X142948967Y-106889967D01*
X142030072Y-105971072D02*
X141531000Y-105472000D01*
X142948967Y-106889967D02*
X142030072Y-105971072D01*
X152433734Y-107081966D02*
X150259078Y-107081966D01*
X156027033Y-106236033D02*
X153279667Y-106236033D01*
X156548000Y-106757000D02*
X156027033Y-106236033D01*
X149382444Y-109090000D02*
X141203736Y-109090000D01*
X155423012Y-107881988D02*
X150590456Y-107881988D01*
X156548000Y-106757000D02*
X155423012Y-107881988D01*
X141203736Y-109090000D02*
X139511000Y-107397264D01*
X139511000Y-106449266D02*
X139511000Y-106025002D01*
X150590456Y-107881988D02*
X149382444Y-109090000D01*
X139511000Y-107397264D02*
X139511000Y-106449266D01*
X144335000Y-101473000D02*
X144335000Y-101098000D01*
X144335000Y-102217998D02*
X144335000Y-101473000D01*
X143776998Y-102776000D02*
X144335000Y-102217998D01*
X141852000Y-102776000D02*
X143776998Y-102776000D01*
X141531000Y-103722000D02*
X141531000Y-103097000D01*
X141531000Y-103097000D02*
X141852000Y-102776000D01*
X142357000Y-87093000D02*
X143978000Y-87093000D01*
X152802000Y-99889000D02*
X151802000Y-99889000D01*
X151802000Y-99889000D02*
X150895808Y-98982808D01*
X150895808Y-98982808D02*
X150895808Y-98773242D01*
X152946311Y-93523989D02*
X154866011Y-93523989D01*
X154866011Y-93523989D02*
X155650000Y-92740000D01*
X151894000Y-93336000D02*
X152193999Y-93635999D01*
X155650000Y-92740000D02*
X155650000Y-91615000D01*
X152834301Y-93635999D02*
X152946311Y-93523989D01*
X152193999Y-93635999D02*
X152834301Y-93635999D01*
X140604999Y-93313001D02*
X140604999Y-88270001D01*
X140604999Y-88270001D02*
X141782000Y-87093000D01*
X151469736Y-93336000D02*
X151435004Y-93301268D01*
X145071208Y-93301268D02*
X144773509Y-93598967D01*
X141782000Y-87093000D02*
X142357000Y-87093000D01*
X144773509Y-93598967D02*
X140890965Y-93598967D01*
X151894000Y-93336000D02*
X151469736Y-93336000D01*
X151435004Y-93301268D02*
X145071208Y-93301268D01*
X140890965Y-93598967D02*
X140604999Y-93313001D01*
X148942000Y-103719000D02*
X148583000Y-103360000D01*
X150823000Y-103719000D02*
X148942000Y-103719000D01*
X159052000Y-104739000D02*
X159052000Y-103739000D01*
X152540011Y-105436011D02*
X158354989Y-105436011D01*
X150823000Y-103719000D02*
X152540011Y-105436011D01*
X158354989Y-105436011D02*
X159052000Y-104739000D01*
X143514000Y-105660000D02*
X143324000Y-105470000D01*
X145683000Y-105660000D02*
X143514000Y-105660000D01*
X146171332Y-105660000D02*
X147371332Y-106860000D01*
X152268045Y-106681955D02*
X153113978Y-105836022D01*
X153113978Y-105836022D02*
X158754978Y-105836022D01*
X158754978Y-105836022D02*
X159852000Y-104739000D01*
X150093389Y-106681955D02*
X152268045Y-106681955D01*
X147371332Y-106860000D02*
X149915344Y-106860000D01*
X149915344Y-106860000D02*
X150093389Y-106681955D01*
X159852000Y-104739000D02*
X159852000Y-103739000D01*
X145683000Y-105660000D02*
X146171332Y-105660000D01*
X159996000Y-106757000D02*
X160020000Y-106781000D01*
X158298000Y-106757000D02*
X159996000Y-106757000D01*
X162636000Y-88017000D02*
X162644000Y-88025000D01*
X161049000Y-88017000D02*
X162636000Y-88017000D01*
X158846253Y-89858989D02*
X161006000Y-92018736D01*
X161006000Y-92018736D02*
X161006000Y-92443000D01*
X158818989Y-89858989D02*
X158846253Y-89858989D01*
X158650000Y-89690000D02*
X158818989Y-89858989D01*
X158650000Y-88565000D02*
X158650000Y-89690000D01*
X153650000Y-91615000D02*
X153729182Y-91694182D01*
X153729182Y-92024301D02*
X153729182Y-92448565D01*
X153729182Y-91694182D02*
X153729182Y-92024301D01*
X156650000Y-87890000D02*
X157766000Y-86774000D01*
X161911271Y-86599980D02*
X162335535Y-86599980D01*
X157766000Y-86774000D02*
X161737251Y-86774000D01*
X161737251Y-86774000D02*
X161911271Y-86599980D01*
X156650000Y-88565000D02*
X156650000Y-87890000D01*
X161302000Y-96214000D02*
X161302000Y-96689000D01*
X161302000Y-94498000D02*
X161302000Y-96214000D01*
X159957000Y-93153000D02*
X161302000Y-94498000D01*
X158513000Y-93153000D02*
X159957000Y-93153000D01*
X157650000Y-91615000D02*
X157650000Y-92290000D01*
X157650000Y-92290000D02*
X158513000Y-93153000D01*
X157650000Y-87890000D02*
X158348010Y-87191990D01*
X157650000Y-88565000D02*
X157650000Y-87890000D01*
X163046314Y-87062213D02*
X163346313Y-86762214D01*
X162908537Y-87199990D02*
X163046314Y-87062213D01*
X162183854Y-87199990D02*
X162908537Y-87199990D01*
X158348010Y-87191990D02*
X162175854Y-87191990D01*
X162175854Y-87191990D02*
X162183854Y-87199990D01*
X156650000Y-92290000D02*
X156650000Y-91615000D01*
X157913010Y-93553010D02*
X156650000Y-92290000D01*
X159166010Y-93553010D02*
X157913010Y-93553010D01*
X159852000Y-94239000D02*
X159166010Y-93553010D01*
X159852000Y-95239000D02*
X159852000Y-94239000D01*
X154650000Y-89240000D02*
X153958001Y-89931999D01*
X153958001Y-89931999D02*
X152344999Y-89931999D01*
X154650000Y-88565000D02*
X154650000Y-89240000D01*
X152344999Y-89931999D02*
X152045000Y-89632000D01*
X150415647Y-100689000D02*
X150362738Y-100741909D01*
X150362738Y-100741909D02*
X150062739Y-101041908D01*
X152802000Y-100689000D02*
X150415647Y-100689000D01*
X152844990Y-90332009D02*
X152645000Y-90531999D01*
X154557991Y-90332009D02*
X152844990Y-90332009D01*
X155650000Y-88565000D02*
X155650000Y-89240000D01*
X155650000Y-89240000D02*
X154557991Y-90332009D01*
X152802000Y-101489000D02*
X151126000Y-101489000D01*
X151025999Y-101589001D02*
X150726000Y-101889000D01*
X151126000Y-101489000D02*
X151025999Y-101589001D01*
X162352000Y-97489000D02*
X161302000Y-97489000D01*
X162427001Y-97413999D02*
X162352000Y-97489000D01*
X162427001Y-94892001D02*
X162427001Y-97413999D01*
X159150000Y-91615000D02*
X162427001Y-94892001D01*
X158650000Y-91615000D02*
X159150000Y-91615000D01*
X145180000Y-92237000D02*
X145351999Y-92065001D01*
X147253999Y-92065001D02*
X147525000Y-91794000D01*
X145351999Y-92065001D02*
X147253999Y-92065001D01*
X148325000Y-91794000D02*
X148325000Y-92394000D01*
X148325000Y-92394000D02*
X148053989Y-92665011D01*
X148053989Y-92665011D02*
X146490150Y-92665011D01*
X146490150Y-92665011D02*
X146065886Y-92665011D01*
X148799500Y-90868500D02*
X148682675Y-90868500D01*
X149125000Y-91794000D02*
X149125000Y-91194000D01*
X149125000Y-91194000D02*
X148799500Y-90868500D01*
X150053178Y-91665822D02*
X150053178Y-91579178D01*
X149925000Y-91794000D02*
X150053178Y-91665822D01*
X150948990Y-86459979D02*
X152388621Y-86459979D01*
X152388621Y-86459979D02*
X153063622Y-85784978D01*
X153063622Y-85784978D02*
X153916354Y-85784978D01*
X153916354Y-85784978D02*
X154177911Y-85523421D01*
X154177911Y-85523421D02*
X154477910Y-85223422D01*
X150948990Y-86035715D02*
X150948990Y-86459979D01*
X148325000Y-86028292D02*
X149298294Y-85054998D01*
X148325000Y-86489000D02*
X148325000Y-86028292D01*
X149298294Y-85054998D02*
X150026002Y-85054998D01*
X150948990Y-85977986D02*
X150948990Y-86035715D01*
X150026002Y-85054998D02*
X150948990Y-85977986D01*
X151702391Y-85695604D02*
X152433985Y-84964010D01*
X152433985Y-84964010D02*
X153296861Y-84964010D01*
X153296861Y-84964010D02*
X153721125Y-84964010D01*
X150661774Y-84654987D02*
X151402392Y-85395605D01*
X149132605Y-84654987D02*
X150661774Y-84654987D01*
X147525000Y-86489000D02*
X147525000Y-86262592D01*
X147525000Y-86262592D02*
X149132605Y-84654987D01*
X151402392Y-85395605D02*
X151702391Y-85695604D01*
X160629403Y-85409000D02*
X160941210Y-85720807D01*
X150495989Y-87059989D02*
X152354311Y-87059989D01*
X149925000Y-86489000D02*
X150495989Y-87059989D01*
X160941210Y-85720807D02*
X161241209Y-86020806D01*
X152354311Y-87059989D02*
X153229311Y-86184989D01*
X153229311Y-86184989D02*
X154639255Y-86184989D01*
X154639255Y-86184989D02*
X155415244Y-85409000D01*
X155415244Y-85409000D02*
X160629403Y-85409000D01*
X149925000Y-85826000D02*
X149754000Y-85655000D01*
X149925000Y-86489000D02*
X149925000Y-85826000D01*
X140850010Y-86111090D02*
X142139100Y-84822000D01*
X142139100Y-84822000D02*
X145766736Y-84822000D01*
X145766736Y-84822000D02*
X146191000Y-84822000D01*
X140895990Y-96577310D02*
X142126081Y-95347219D01*
X144467262Y-95347219D02*
X144486086Y-95366043D01*
X140895990Y-97071437D02*
X140895990Y-96577310D01*
X144486086Y-95366043D02*
X144786085Y-95666042D01*
X142126081Y-95347219D02*
X144467262Y-95347219D01*
X154804944Y-86585000D02*
X155215954Y-86173990D01*
X155215954Y-86173990D02*
X160031736Y-86173990D01*
X153395000Y-86585000D02*
X154804944Y-86585000D01*
X152520000Y-87460000D02*
X153395000Y-86585000D01*
X149496000Y-87460000D02*
X152520000Y-87460000D01*
X149125000Y-87089000D02*
X149496000Y-87460000D01*
X160031736Y-86173990D02*
X160456000Y-86173990D01*
X149125000Y-86489000D02*
X149125000Y-87089000D01*
X149125000Y-86489000D02*
X149125000Y-86180144D01*
X149125000Y-86180144D02*
X149130086Y-86175058D01*
X140264799Y-102048624D02*
X139840535Y-102048624D01*
X140531561Y-104972469D02*
X140627000Y-104877030D01*
X140627000Y-102410825D02*
X140264799Y-102048624D01*
X140627000Y-104877030D02*
X140627000Y-102410825D01*
X146565013Y-108172987D02*
X146565013Y-108073085D01*
X146048011Y-108689989D02*
X146565013Y-108172987D01*
X141411987Y-108689989D02*
X146048011Y-108689989D01*
X140531561Y-104972469D02*
X140531561Y-107809563D01*
X140531561Y-107809563D02*
X141411987Y-108689989D01*
X145340916Y-108089979D02*
X145765180Y-108089979D01*
X141923523Y-108089979D02*
X145340916Y-108089979D01*
X141482772Y-107649228D02*
X141923523Y-108089979D01*
X145165594Y-86112590D02*
X144920983Y-85867979D01*
X145165594Y-87896894D02*
X145165594Y-86112590D01*
X144920983Y-85867979D02*
X142292285Y-85867979D01*
X142292285Y-85867979D02*
X140339263Y-87821001D01*
X140339263Y-87821001D02*
X139959999Y-87821001D01*
X139959999Y-87821001D02*
X139660000Y-88121000D01*
X143314000Y-96464972D02*
X143263974Y-96414946D01*
X143314000Y-97519000D02*
X143314000Y-96464972D01*
X145748001Y-87567001D02*
X145748001Y-87583001D01*
X145998536Y-87833536D02*
X146008675Y-87833536D01*
X145748001Y-87583001D02*
X145998536Y-87833536D01*
X142814000Y-97519000D02*
X142464019Y-97169019D01*
X142464019Y-96847788D02*
X142464019Y-96423524D01*
X142464019Y-97169019D02*
X142464019Y-96847788D01*
X163946314Y-86474213D02*
X163946314Y-106201686D01*
X145748001Y-85589103D02*
X145915102Y-85422002D01*
X145915102Y-85422002D02*
X146620573Y-85422002D01*
X146620573Y-85422002D02*
X147787599Y-84254976D01*
X147787599Y-84254976D02*
X161727077Y-84254976D01*
X161727077Y-84254976D02*
X163946314Y-86474213D01*
X163946314Y-106201686D02*
X161666010Y-108481990D01*
X161666010Y-108481990D02*
X151302722Y-108481990D01*
X151302722Y-108481990D02*
X150878458Y-108481990D01*
X145748001Y-87583001D02*
X145748001Y-85589103D01*
X149073000Y-100990000D02*
X148699990Y-101363010D01*
X148699990Y-101363010D02*
X147750554Y-101363010D01*
X147750554Y-101363010D02*
X147326290Y-101363010D01*
X140943000Y-98434654D02*
X140943000Y-98615000D01*
X141496000Y-97881654D02*
X140943000Y-98434654D01*
X141496000Y-96543000D02*
X141496000Y-97881654D01*
X142291770Y-95747230D02*
X141496000Y-96543000D01*
X143591216Y-95747230D02*
X142291770Y-95747230D01*
X143814000Y-97519000D02*
X143863990Y-97469010D01*
X143863990Y-97469010D02*
X143863990Y-96020004D01*
X143863990Y-96020004D02*
X143591216Y-95747230D01*
X162302000Y-99889000D02*
X161302000Y-99889000D01*
X162402001Y-99989001D02*
X162302000Y-99889000D01*
X161770000Y-106781000D02*
X162402001Y-106148999D01*
X162402001Y-106148999D02*
X162402001Y-99989001D01*
X161049000Y-89767000D02*
X161049000Y-91233467D01*
X161049000Y-91233467D02*
X161495533Y-91680000D01*
X161495533Y-91680000D02*
X162335535Y-91680000D01*
X151193961Y-98173232D02*
X151495815Y-98475086D01*
X149229232Y-98173232D02*
X151193961Y-98173232D01*
X149125000Y-98069000D02*
X149229232Y-98173232D01*
X149125000Y-97469000D02*
X149125000Y-98069000D01*
X151495815Y-98475086D02*
X151495815Y-98782815D01*
X151495815Y-98782815D02*
X151802000Y-99089000D01*
X151802000Y-99089000D02*
X152802000Y-99089000D01*
X149795290Y-94101290D02*
X145402586Y-94101290D01*
X149125000Y-96869000D02*
X149392000Y-96602000D01*
X150601000Y-94907000D02*
X149795290Y-94101290D01*
X140426311Y-94398989D02*
X139130000Y-95695300D01*
X150181300Y-96602000D02*
X150601000Y-96182300D01*
X149392000Y-96602000D02*
X150181300Y-96602000D01*
X139130000Y-103490488D02*
X139326980Y-103687468D01*
X150601000Y-96182300D02*
X150601000Y-94907000D01*
X139130000Y-95695300D02*
X139130000Y-103490488D01*
X145402586Y-94101290D02*
X145104887Y-94398989D01*
X149125000Y-97469000D02*
X149125000Y-96869000D01*
X145104887Y-94398989D02*
X140426311Y-94398989D01*
X139326980Y-103687468D02*
X139626979Y-103987467D01*
X149847758Y-99274150D02*
X150272022Y-99274150D01*
X149530150Y-99274150D02*
X149847758Y-99274150D01*
X148325000Y-97469000D02*
X148325000Y-98069000D01*
X148325000Y-98069000D02*
X149530150Y-99274150D01*
X146914009Y-96932034D02*
X146614010Y-97232033D01*
X148139000Y-96683000D02*
X147163043Y-96683000D01*
X148325000Y-97469000D02*
X148325000Y-96869000D01*
X147163043Y-96683000D02*
X146914009Y-96932034D01*
X148325000Y-96869000D02*
X148139000Y-96683000D01*
X151282675Y-97469000D02*
X152102675Y-98289000D01*
X149925000Y-97469000D02*
X151282675Y-97469000D01*
X152102675Y-98289000D02*
X152802000Y-98289000D01*
X150375000Y-97469000D02*
X151001011Y-96842989D01*
X140068011Y-104587476D02*
X140226989Y-104428498D01*
X145236897Y-93701279D02*
X144939198Y-93998978D01*
X144939198Y-93998978D02*
X140260622Y-93998978D01*
X149960979Y-93701279D02*
X145236897Y-93701279D01*
X140260622Y-93998978D02*
X138729989Y-95529611D01*
X138729989Y-95529611D02*
X138729989Y-104115993D01*
X139201473Y-104587477D02*
X140068011Y-104587476D01*
X140226989Y-104428498D02*
X140226989Y-103274418D01*
X151001011Y-94741311D02*
X149960979Y-93701279D01*
X140226989Y-103274418D02*
X140187020Y-103234449D01*
X140187020Y-103234449D02*
X139887021Y-102934450D01*
X151001011Y-96842989D02*
X151001011Y-94741311D01*
X138729989Y-104115993D02*
X139201473Y-104587477D01*
X149925000Y-97469000D02*
X150375000Y-97469000D01*
X147525000Y-98069000D02*
X149435606Y-99979606D01*
X149435606Y-99979606D02*
X150281622Y-99979606D01*
X150281622Y-99979606D02*
X150705886Y-99979606D01*
X147525000Y-98188000D02*
X147394999Y-98318001D01*
X147394999Y-98318001D02*
X147095000Y-98618000D01*
X147525000Y-98069000D02*
X147525000Y-98188000D01*
X147525000Y-97469000D02*
X147525000Y-98069000D01*
G36*
X138830554Y-104923664D02*
G01*
X138846210Y-104942741D01*
X138865285Y-104958395D01*
X138865286Y-104958396D01*
X138922343Y-105005222D01*
X139009204Y-105051651D01*
X139009207Y-105051652D01*
X139103457Y-105080242D01*
X139176914Y-105087477D01*
X139201472Y-105089896D01*
X139226031Y-105087477D01*
X139840724Y-105087476D01*
X139858462Y-105176651D01*
X139911229Y-105304043D01*
X139987835Y-105418693D01*
X140031561Y-105462419D01*
X140031562Y-107784993D01*
X140029142Y-107809563D01*
X140038796Y-107907580D01*
X140062407Y-107985414D01*
X140067387Y-108001830D01*
X140113816Y-108088692D01*
X140176298Y-108164827D01*
X140195380Y-108180487D01*
X141041067Y-109026176D01*
X141056723Y-109045253D01*
X141132858Y-109107735D01*
X141219720Y-109154164D01*
X141313970Y-109182754D01*
X141387427Y-109189989D01*
X141387436Y-109189989D01*
X141411986Y-109192407D01*
X141436536Y-109189989D01*
X146023451Y-109189989D01*
X146048011Y-109192408D01*
X146072571Y-109189989D01*
X146146028Y-109182754D01*
X146240278Y-109154164D01*
X146327140Y-109107735D01*
X146403275Y-109045253D01*
X146418940Y-109026166D01*
X146681473Y-108763633D01*
X146769195Y-108746184D01*
X146896587Y-108693417D01*
X147011237Y-108616811D01*
X147108739Y-108519309D01*
X147185345Y-108404659D01*
X147238112Y-108277267D01*
X147261242Y-108160988D01*
X150221196Y-108160988D01*
X150245756Y-108163407D01*
X150253042Y-108162689D01*
X150205359Y-108277808D01*
X150178458Y-108413046D01*
X150178458Y-108550934D01*
X150205359Y-108686172D01*
X150258126Y-108813564D01*
X150334732Y-108928214D01*
X150432234Y-109025716D01*
X150546884Y-109102322D01*
X150674276Y-109155089D01*
X150809514Y-109181990D01*
X150947402Y-109181990D01*
X151082640Y-109155089D01*
X151210032Y-109102322D01*
X151324682Y-109025716D01*
X151368408Y-108981990D01*
X161641450Y-108981990D01*
X161666010Y-108984409D01*
X161690570Y-108981990D01*
X161764027Y-108974755D01*
X161858277Y-108946165D01*
X161945139Y-108899736D01*
X162021274Y-108837254D01*
X162036939Y-108818166D01*
X162072105Y-108783000D01*
X162205960Y-108783000D01*
X161712960Y-109276000D01*
X141198790Y-109276000D01*
X140678241Y-109224959D01*
X140197520Y-109079821D01*
X139754144Y-108844075D01*
X139365002Y-108526697D01*
X139044919Y-108139784D01*
X138806081Y-107698061D01*
X138657590Y-107218368D01*
X138603000Y-106698975D01*
X138603000Y-104696109D01*
X138830554Y-104923664D01*
X138830554Y-104923664D01*
G37*
X138830554Y-104923664D02*
X138846210Y-104942741D01*
X138865285Y-104958395D01*
X138865286Y-104958396D01*
X138922343Y-105005222D01*
X139009204Y-105051651D01*
X139009207Y-105051652D01*
X139103457Y-105080242D01*
X139176914Y-105087477D01*
X139201472Y-105089896D01*
X139226031Y-105087477D01*
X139840724Y-105087476D01*
X139858462Y-105176651D01*
X139911229Y-105304043D01*
X139987835Y-105418693D01*
X140031561Y-105462419D01*
X140031562Y-107784993D01*
X140029142Y-107809563D01*
X140038796Y-107907580D01*
X140062407Y-107985414D01*
X140067387Y-108001830D01*
X140113816Y-108088692D01*
X140176298Y-108164827D01*
X140195380Y-108180487D01*
X141041067Y-109026176D01*
X141056723Y-109045253D01*
X141132858Y-109107735D01*
X141219720Y-109154164D01*
X141313970Y-109182754D01*
X141387427Y-109189989D01*
X141387436Y-109189989D01*
X141411986Y-109192407D01*
X141436536Y-109189989D01*
X146023451Y-109189989D01*
X146048011Y-109192408D01*
X146072571Y-109189989D01*
X146146028Y-109182754D01*
X146240278Y-109154164D01*
X146327140Y-109107735D01*
X146403275Y-109045253D01*
X146418940Y-109026166D01*
X146681473Y-108763633D01*
X146769195Y-108746184D01*
X146896587Y-108693417D01*
X147011237Y-108616811D01*
X147108739Y-108519309D01*
X147185345Y-108404659D01*
X147238112Y-108277267D01*
X147261242Y-108160988D01*
X150221196Y-108160988D01*
X150245756Y-108163407D01*
X150253042Y-108162689D01*
X150205359Y-108277808D01*
X150178458Y-108413046D01*
X150178458Y-108550934D01*
X150205359Y-108686172D01*
X150258126Y-108813564D01*
X150334732Y-108928214D01*
X150432234Y-109025716D01*
X150546884Y-109102322D01*
X150674276Y-109155089D01*
X150809514Y-109181990D01*
X150947402Y-109181990D01*
X151082640Y-109155089D01*
X151210032Y-109102322D01*
X151324682Y-109025716D01*
X151368408Y-108981990D01*
X161641450Y-108981990D01*
X161666010Y-108984409D01*
X161690570Y-108981990D01*
X161764027Y-108974755D01*
X161858277Y-108946165D01*
X161945139Y-108899736D01*
X162021274Y-108837254D01*
X162036939Y-108818166D01*
X162072105Y-108783000D01*
X162205960Y-108783000D01*
X161712960Y-109276000D01*
X141198790Y-109276000D01*
X140678241Y-109224959D01*
X140197520Y-109079821D01*
X139754144Y-108844075D01*
X139365002Y-108526697D01*
X139044919Y-108139784D01*
X138806081Y-107698061D01*
X138657590Y-107218368D01*
X138603000Y-106698975D01*
X138603000Y-104696109D01*
X138830554Y-104923664D01*
G36*
X144233000Y-103210000D02*
G01*
X144333000Y-103310000D01*
X145633000Y-103310000D01*
X145633000Y-103290000D01*
X145733000Y-103290000D01*
X145733000Y-103310000D01*
X145753000Y-103310000D01*
X145753000Y-103410000D01*
X145733000Y-103410000D01*
X145733000Y-103430000D01*
X145633000Y-103430000D01*
X145633000Y-103410000D01*
X144333000Y-103410000D01*
X144233000Y-103510000D01*
X144231065Y-104260000D01*
X144238788Y-104338414D01*
X144261660Y-104413814D01*
X144298803Y-104483303D01*
X144320713Y-104510000D01*
X144298803Y-104536697D01*
X144261660Y-104606186D01*
X144238788Y-104681586D01*
X144231065Y-104760000D01*
X144231065Y-105160000D01*
X144198719Y-105160000D01*
X144188648Y-105057752D01*
X144152261Y-104937799D01*
X144093171Y-104827249D01*
X144013649Y-104730351D01*
X143916751Y-104650829D01*
X143888644Y-104635805D01*
X143952814Y-104616340D01*
X144022303Y-104579197D01*
X144083211Y-104529211D01*
X144133197Y-104468303D01*
X144170340Y-104398814D01*
X144193212Y-104323414D01*
X144200935Y-104245000D01*
X144199000Y-103870000D01*
X144099000Y-103770000D01*
X143374000Y-103770000D01*
X143374000Y-103790000D01*
X143274000Y-103790000D01*
X143274000Y-103770000D01*
X142549000Y-103770000D01*
X142449000Y-103870000D01*
X142447065Y-104245000D01*
X142454788Y-104323414D01*
X142477660Y-104398814D01*
X142514803Y-104468303D01*
X142564789Y-104529211D01*
X142625697Y-104579197D01*
X142695186Y-104616340D01*
X142759356Y-104635805D01*
X142731249Y-104650829D01*
X142634351Y-104730351D01*
X142554829Y-104827249D01*
X142495739Y-104937799D01*
X142459352Y-105057752D01*
X142447065Y-105182500D01*
X142447065Y-105757500D01*
X142459352Y-105882248D01*
X142495739Y-106002201D01*
X142554829Y-106112751D01*
X142634351Y-106209649D01*
X142731249Y-106289171D01*
X142841799Y-106348261D01*
X142961752Y-106384648D01*
X143086500Y-106396935D01*
X143561500Y-106396935D01*
X143686248Y-106384648D01*
X143806201Y-106348261D01*
X143916751Y-106289171D01*
X144013649Y-106209649D01*
X144054395Y-106160000D01*
X144231065Y-106160000D01*
X144231065Y-106560000D01*
X144238788Y-106638414D01*
X144261660Y-106713814D01*
X144298803Y-106783303D01*
X144348789Y-106844211D01*
X144409697Y-106894197D01*
X144479186Y-106931340D01*
X144554586Y-106954212D01*
X144633000Y-106961935D01*
X146733000Y-106961935D01*
X146763187Y-106958962D01*
X146777308Y-106973083D01*
X143269470Y-106973083D01*
X143242630Y-106946243D01*
X143127980Y-106869637D01*
X143000588Y-106816870D01*
X142865350Y-106789969D01*
X142727462Y-106789969D01*
X142592224Y-106816870D01*
X142464832Y-106869637D01*
X142350182Y-106946243D01*
X142252680Y-107043745D01*
X142176074Y-107158395D01*
X142123307Y-107285787D01*
X142112470Y-107340266D01*
X142103104Y-107317654D01*
X142026498Y-107203004D01*
X141928996Y-107105502D01*
X141814346Y-107028896D01*
X141686954Y-106976129D01*
X141551716Y-106949228D01*
X141413828Y-106949228D01*
X141278590Y-106976129D01*
X141151198Y-107028896D01*
X141036548Y-107105502D01*
X141031561Y-107110489D01*
X141031561Y-106396528D01*
X141056000Y-106398935D01*
X141381000Y-106397000D01*
X141481000Y-106297000D01*
X141481000Y-105522000D01*
X141581000Y-105522000D01*
X141581000Y-106297000D01*
X141681000Y-106397000D01*
X142006000Y-106398935D01*
X142084414Y-106391212D01*
X142159814Y-106368340D01*
X142229303Y-106331197D01*
X142290211Y-106281211D01*
X142340197Y-106220303D01*
X142377340Y-106150814D01*
X142400212Y-106075414D01*
X142407935Y-105997000D01*
X142406000Y-105622000D01*
X142306000Y-105522000D01*
X141581000Y-105522000D01*
X141481000Y-105522000D01*
X141461000Y-105522000D01*
X141461000Y-105422000D01*
X141481000Y-105422000D01*
X141481000Y-105402000D01*
X141581000Y-105402000D01*
X141581000Y-105422000D01*
X142306000Y-105422000D01*
X142406000Y-105322000D01*
X142407935Y-104947000D01*
X142400212Y-104868586D01*
X142377340Y-104793186D01*
X142340197Y-104723697D01*
X142290211Y-104662789D01*
X142229303Y-104612803D01*
X142159814Y-104575660D01*
X142095644Y-104556195D01*
X142123751Y-104541171D01*
X142220649Y-104461649D01*
X142300171Y-104364751D01*
X142359261Y-104254201D01*
X142395648Y-104134248D01*
X142407935Y-104009500D01*
X142407935Y-103434500D01*
X142395648Y-103309752D01*
X142385410Y-103276000D01*
X142447483Y-103276000D01*
X142449000Y-103570000D01*
X142549000Y-103670000D01*
X143274000Y-103670000D01*
X143274000Y-103650000D01*
X143374000Y-103650000D01*
X143374000Y-103670000D01*
X144099000Y-103670000D01*
X144199000Y-103570000D01*
X144200935Y-103195000D01*
X144193212Y-103116586D01*
X144181646Y-103078457D01*
X144232529Y-103027574D01*
X144233000Y-103210000D01*
X144233000Y-103210000D01*
G37*
X144233000Y-103210000D02*
X144333000Y-103310000D01*
X145633000Y-103310000D01*
X145633000Y-103290000D01*
X145733000Y-103290000D01*
X145733000Y-103310000D01*
X145753000Y-103310000D01*
X145753000Y-103410000D01*
X145733000Y-103410000D01*
X145733000Y-103430000D01*
X145633000Y-103430000D01*
X145633000Y-103410000D01*
X144333000Y-103410000D01*
X144233000Y-103510000D01*
X144231065Y-104260000D01*
X144238788Y-104338414D01*
X144261660Y-104413814D01*
X144298803Y-104483303D01*
X144320713Y-104510000D01*
X144298803Y-104536697D01*
X144261660Y-104606186D01*
X144238788Y-104681586D01*
X144231065Y-104760000D01*
X144231065Y-105160000D01*
X144198719Y-105160000D01*
X144188648Y-105057752D01*
X144152261Y-104937799D01*
X144093171Y-104827249D01*
X144013649Y-104730351D01*
X143916751Y-104650829D01*
X143888644Y-104635805D01*
X143952814Y-104616340D01*
X144022303Y-104579197D01*
X144083211Y-104529211D01*
X144133197Y-104468303D01*
X144170340Y-104398814D01*
X144193212Y-104323414D01*
X144200935Y-104245000D01*
X144199000Y-103870000D01*
X144099000Y-103770000D01*
X143374000Y-103770000D01*
X143374000Y-103790000D01*
X143274000Y-103790000D01*
X143274000Y-103770000D01*
X142549000Y-103770000D01*
X142449000Y-103870000D01*
X142447065Y-104245000D01*
X142454788Y-104323414D01*
X142477660Y-104398814D01*
X142514803Y-104468303D01*
X142564789Y-104529211D01*
X142625697Y-104579197D01*
X142695186Y-104616340D01*
X142759356Y-104635805D01*
X142731249Y-104650829D01*
X142634351Y-104730351D01*
X142554829Y-104827249D01*
X142495739Y-104937799D01*
X142459352Y-105057752D01*
X142447065Y-105182500D01*
X142447065Y-105757500D01*
X142459352Y-105882248D01*
X142495739Y-106002201D01*
X142554829Y-106112751D01*
X142634351Y-106209649D01*
X142731249Y-106289171D01*
X142841799Y-106348261D01*
X142961752Y-106384648D01*
X143086500Y-106396935D01*
X143561500Y-106396935D01*
X143686248Y-106384648D01*
X143806201Y-106348261D01*
X143916751Y-106289171D01*
X144013649Y-106209649D01*
X144054395Y-106160000D01*
X144231065Y-106160000D01*
X144231065Y-106560000D01*
X144238788Y-106638414D01*
X144261660Y-106713814D01*
X144298803Y-106783303D01*
X144348789Y-106844211D01*
X144409697Y-106894197D01*
X144479186Y-106931340D01*
X144554586Y-106954212D01*
X144633000Y-106961935D01*
X146733000Y-106961935D01*
X146763187Y-106958962D01*
X146777308Y-106973083D01*
X143269470Y-106973083D01*
X143242630Y-106946243D01*
X143127980Y-106869637D01*
X143000588Y-106816870D01*
X142865350Y-106789969D01*
X142727462Y-106789969D01*
X142592224Y-106816870D01*
X142464832Y-106869637D01*
X142350182Y-106946243D01*
X142252680Y-107043745D01*
X142176074Y-107158395D01*
X142123307Y-107285787D01*
X142112470Y-107340266D01*
X142103104Y-107317654D01*
X142026498Y-107203004D01*
X141928996Y-107105502D01*
X141814346Y-107028896D01*
X141686954Y-106976129D01*
X141551716Y-106949228D01*
X141413828Y-106949228D01*
X141278590Y-106976129D01*
X141151198Y-107028896D01*
X141036548Y-107105502D01*
X141031561Y-107110489D01*
X141031561Y-106396528D01*
X141056000Y-106398935D01*
X141381000Y-106397000D01*
X141481000Y-106297000D01*
X141481000Y-105522000D01*
X141581000Y-105522000D01*
X141581000Y-106297000D01*
X141681000Y-106397000D01*
X142006000Y-106398935D01*
X142084414Y-106391212D01*
X142159814Y-106368340D01*
X142229303Y-106331197D01*
X142290211Y-106281211D01*
X142340197Y-106220303D01*
X142377340Y-106150814D01*
X142400212Y-106075414D01*
X142407935Y-105997000D01*
X142406000Y-105622000D01*
X142306000Y-105522000D01*
X141581000Y-105522000D01*
X141481000Y-105522000D01*
X141461000Y-105522000D01*
X141461000Y-105422000D01*
X141481000Y-105422000D01*
X141481000Y-105402000D01*
X141581000Y-105402000D01*
X141581000Y-105422000D01*
X142306000Y-105422000D01*
X142406000Y-105322000D01*
X142407935Y-104947000D01*
X142400212Y-104868586D01*
X142377340Y-104793186D01*
X142340197Y-104723697D01*
X142290211Y-104662789D01*
X142229303Y-104612803D01*
X142159814Y-104575660D01*
X142095644Y-104556195D01*
X142123751Y-104541171D01*
X142220649Y-104461649D01*
X142300171Y-104364751D01*
X142359261Y-104254201D01*
X142395648Y-104134248D01*
X142407935Y-104009500D01*
X142407935Y-103434500D01*
X142395648Y-103309752D01*
X142385410Y-103276000D01*
X142447483Y-103276000D01*
X142449000Y-103570000D01*
X142549000Y-103670000D01*
X143274000Y-103670000D01*
X143274000Y-103650000D01*
X143374000Y-103650000D01*
X143374000Y-103670000D01*
X144099000Y-103670000D01*
X144199000Y-103570000D01*
X144200935Y-103195000D01*
X144193212Y-103116586D01*
X144181646Y-103078457D01*
X144232529Y-103027574D01*
X144233000Y-103210000D01*
G36*
X148633000Y-105610000D02*
G01*
X148653000Y-105610000D01*
X148653000Y-105710000D01*
X148633000Y-105710000D01*
X148633000Y-105730000D01*
X148533000Y-105730000D01*
X148533000Y-105710000D01*
X148513000Y-105710000D01*
X148513000Y-105610000D01*
X148533000Y-105610000D01*
X148533000Y-105590000D01*
X148633000Y-105590000D01*
X148633000Y-105610000D01*
X148633000Y-105610000D01*
G37*
X148633000Y-105610000D02*
X148653000Y-105610000D01*
X148653000Y-105710000D01*
X148633000Y-105710000D01*
X148633000Y-105730000D01*
X148533000Y-105730000D01*
X148533000Y-105710000D01*
X148513000Y-105710000D01*
X148513000Y-105610000D01*
X148533000Y-105610000D01*
X148533000Y-105590000D01*
X148633000Y-105590000D01*
X148633000Y-105610000D01*
G36*
X144842443Y-98133971D02*
G01*
X144864000Y-98160238D01*
X144864000Y-98244000D01*
X144964000Y-98344000D01*
X144964000Y-98345935D01*
X145042414Y-98338212D01*
X145096561Y-98321787D01*
X145145955Y-98336771D01*
X145214480Y-98343520D01*
X145189000Y-98369000D01*
X145187065Y-98369000D01*
X145194788Y-98447414D01*
X145211213Y-98501561D01*
X145196229Y-98550955D01*
X145187065Y-98644000D01*
X145187065Y-98794000D01*
X145196229Y-98887045D01*
X145221090Y-98969000D01*
X145196229Y-99050955D01*
X145187065Y-99144000D01*
X145187065Y-99294000D01*
X145196229Y-99387045D01*
X145221090Y-99469000D01*
X145196229Y-99550955D01*
X145187065Y-99644000D01*
X145187065Y-99794000D01*
X145196229Y-99887045D01*
X145221090Y-99969000D01*
X145196229Y-100050955D01*
X145187065Y-100144000D01*
X145187065Y-100294000D01*
X145196229Y-100387045D01*
X145221090Y-100469000D01*
X145196229Y-100550955D01*
X145191721Y-100596721D01*
X145145955Y-100601229D01*
X145096561Y-100616213D01*
X145042414Y-100599788D01*
X144964000Y-100592065D01*
X144964000Y-100594000D01*
X144864000Y-100694000D01*
X144864000Y-100777762D01*
X144842443Y-100804029D01*
X144814000Y-100857243D01*
X144785557Y-100804029D01*
X144764000Y-100777762D01*
X144764000Y-100694000D01*
X144664000Y-100594000D01*
X144664000Y-100592065D01*
X144585586Y-100599788D01*
X144531439Y-100616213D01*
X144482045Y-100601229D01*
X144389000Y-100592065D01*
X144239000Y-100592065D01*
X144145955Y-100601229D01*
X144096561Y-100616213D01*
X144042414Y-100599788D01*
X143964000Y-100592065D01*
X143964000Y-100594000D01*
X143864000Y-100694000D01*
X143864000Y-100777762D01*
X143842443Y-100804029D01*
X143814000Y-100857243D01*
X143785557Y-100804029D01*
X143764000Y-100777762D01*
X143764000Y-100694000D01*
X143664000Y-100594000D01*
X143664000Y-100592065D01*
X143585586Y-100599788D01*
X143531439Y-100616213D01*
X143482045Y-100601229D01*
X143389000Y-100592065D01*
X143239000Y-100592065D01*
X143145955Y-100601229D01*
X143064000Y-100626090D01*
X142982045Y-100601229D01*
X142936279Y-100596721D01*
X142931771Y-100550955D01*
X142906910Y-100469000D01*
X142931771Y-100387045D01*
X142940935Y-100294000D01*
X142940935Y-100144000D01*
X142931771Y-100050955D01*
X142906910Y-99969000D01*
X142931771Y-99887045D01*
X142940935Y-99794000D01*
X142940935Y-99644000D01*
X142931771Y-99550955D01*
X142906910Y-99469000D01*
X142931771Y-99387045D01*
X142940935Y-99294000D01*
X142940935Y-99144000D01*
X142931771Y-99050955D01*
X142906910Y-98969000D01*
X142931771Y-98887045D01*
X142940935Y-98794000D01*
X142940935Y-98644000D01*
X142931771Y-98550955D01*
X142906910Y-98469000D01*
X142931771Y-98387045D01*
X142936279Y-98341279D01*
X142982045Y-98336771D01*
X143064000Y-98311910D01*
X143145955Y-98336771D01*
X143239000Y-98345935D01*
X143389000Y-98345935D01*
X143482045Y-98336771D01*
X143564000Y-98311910D01*
X143645955Y-98336771D01*
X143739000Y-98345935D01*
X143889000Y-98345935D01*
X143982045Y-98336771D01*
X144064000Y-98311910D01*
X144145955Y-98336771D01*
X144239000Y-98345935D01*
X144389000Y-98345935D01*
X144482045Y-98336771D01*
X144531439Y-98321787D01*
X144585586Y-98338212D01*
X144664000Y-98345935D01*
X144664000Y-98344000D01*
X144764000Y-98244000D01*
X144764000Y-98160238D01*
X144785557Y-98133971D01*
X144814000Y-98080757D01*
X144842443Y-98133971D01*
X144842443Y-98133971D01*
G37*
X144842443Y-98133971D02*
X144864000Y-98160238D01*
X144864000Y-98244000D01*
X144964000Y-98344000D01*
X144964000Y-98345935D01*
X145042414Y-98338212D01*
X145096561Y-98321787D01*
X145145955Y-98336771D01*
X145214480Y-98343520D01*
X145189000Y-98369000D01*
X145187065Y-98369000D01*
X145194788Y-98447414D01*
X145211213Y-98501561D01*
X145196229Y-98550955D01*
X145187065Y-98644000D01*
X145187065Y-98794000D01*
X145196229Y-98887045D01*
X145221090Y-98969000D01*
X145196229Y-99050955D01*
X145187065Y-99144000D01*
X145187065Y-99294000D01*
X145196229Y-99387045D01*
X145221090Y-99469000D01*
X145196229Y-99550955D01*
X145187065Y-99644000D01*
X145187065Y-99794000D01*
X145196229Y-99887045D01*
X145221090Y-99969000D01*
X145196229Y-100050955D01*
X145187065Y-100144000D01*
X145187065Y-100294000D01*
X145196229Y-100387045D01*
X145221090Y-100469000D01*
X145196229Y-100550955D01*
X145191721Y-100596721D01*
X145145955Y-100601229D01*
X145096561Y-100616213D01*
X145042414Y-100599788D01*
X144964000Y-100592065D01*
X144964000Y-100594000D01*
X144864000Y-100694000D01*
X144864000Y-100777762D01*
X144842443Y-100804029D01*
X144814000Y-100857243D01*
X144785557Y-100804029D01*
X144764000Y-100777762D01*
X144764000Y-100694000D01*
X144664000Y-100594000D01*
X144664000Y-100592065D01*
X144585586Y-100599788D01*
X144531439Y-100616213D01*
X144482045Y-100601229D01*
X144389000Y-100592065D01*
X144239000Y-100592065D01*
X144145955Y-100601229D01*
X144096561Y-100616213D01*
X144042414Y-100599788D01*
X143964000Y-100592065D01*
X143964000Y-100594000D01*
X143864000Y-100694000D01*
X143864000Y-100777762D01*
X143842443Y-100804029D01*
X143814000Y-100857243D01*
X143785557Y-100804029D01*
X143764000Y-100777762D01*
X143764000Y-100694000D01*
X143664000Y-100594000D01*
X143664000Y-100592065D01*
X143585586Y-100599788D01*
X143531439Y-100616213D01*
X143482045Y-100601229D01*
X143389000Y-100592065D01*
X143239000Y-100592065D01*
X143145955Y-100601229D01*
X143064000Y-100626090D01*
X142982045Y-100601229D01*
X142936279Y-100596721D01*
X142931771Y-100550955D01*
X142906910Y-100469000D01*
X142931771Y-100387045D01*
X142940935Y-100294000D01*
X142940935Y-100144000D01*
X142931771Y-100050955D01*
X142906910Y-99969000D01*
X142931771Y-99887045D01*
X142940935Y-99794000D01*
X142940935Y-99644000D01*
X142931771Y-99550955D01*
X142906910Y-99469000D01*
X142931771Y-99387045D01*
X142940935Y-99294000D01*
X142940935Y-99144000D01*
X142931771Y-99050955D01*
X142906910Y-98969000D01*
X142931771Y-98887045D01*
X142940935Y-98794000D01*
X142940935Y-98644000D01*
X142931771Y-98550955D01*
X142906910Y-98469000D01*
X142931771Y-98387045D01*
X142936279Y-98341279D01*
X142982045Y-98336771D01*
X143064000Y-98311910D01*
X143145955Y-98336771D01*
X143239000Y-98345935D01*
X143389000Y-98345935D01*
X143482045Y-98336771D01*
X143564000Y-98311910D01*
X143645955Y-98336771D01*
X143739000Y-98345935D01*
X143889000Y-98345935D01*
X143982045Y-98336771D01*
X144064000Y-98311910D01*
X144145955Y-98336771D01*
X144239000Y-98345935D01*
X144389000Y-98345935D01*
X144482045Y-98336771D01*
X144531439Y-98321787D01*
X144585586Y-98338212D01*
X144664000Y-98345935D01*
X144664000Y-98344000D01*
X144764000Y-98244000D01*
X144764000Y-98160238D01*
X144785557Y-98133971D01*
X144814000Y-98080757D01*
X144842443Y-98133971D01*
G36*
X156176697Y-92874197D02*
G01*
X156246186Y-92911340D01*
X156321586Y-92934212D01*
X156400000Y-92941935D01*
X156594830Y-92941935D01*
X157542089Y-93889196D01*
X157557746Y-93908274D01*
X157633881Y-93970756D01*
X157720743Y-94017185D01*
X157808235Y-94043725D01*
X157814993Y-94045775D01*
X157875640Y-94051748D01*
X157852000Y-94058919D01*
X157805414Y-94044788D01*
X157727000Y-94037065D01*
X157177000Y-94037065D01*
X157098586Y-94044788D01*
X157052000Y-94058919D01*
X157005414Y-94044788D01*
X156927000Y-94037065D01*
X156802000Y-94039000D01*
X156702000Y-94139000D01*
X156702000Y-95189000D01*
X156722000Y-95189000D01*
X156722000Y-95289000D01*
X156702000Y-95289000D01*
X156702000Y-96339000D01*
X156802000Y-96439000D01*
X156927000Y-96440935D01*
X157005414Y-96433212D01*
X157052000Y-96419081D01*
X157098586Y-96433212D01*
X157177000Y-96440935D01*
X157727000Y-96440935D01*
X157805414Y-96433212D01*
X157852000Y-96419081D01*
X157898586Y-96433212D01*
X157977000Y-96440935D01*
X158142959Y-96440935D01*
X158021908Y-96561986D01*
X158016945Y-96560999D01*
X157879057Y-96560999D01*
X157743819Y-96587900D01*
X157616427Y-96640667D01*
X157501777Y-96717273D01*
X157404275Y-96814775D01*
X157327669Y-96929425D01*
X157274902Y-97056817D01*
X157248001Y-97192055D01*
X157248001Y-97329943D01*
X157274902Y-97465181D01*
X157327669Y-97592573D01*
X157384000Y-97676879D01*
X157384001Y-100312893D01*
X157290894Y-100406000D01*
X157229056Y-100406000D01*
X157093818Y-100432901D01*
X156966426Y-100485668D01*
X156851776Y-100562274D01*
X156754274Y-100659776D01*
X156745438Y-100673000D01*
X154003935Y-100673000D01*
X154003935Y-100414000D01*
X153996212Y-100335586D01*
X153982081Y-100289000D01*
X153996212Y-100242414D01*
X154003935Y-100164000D01*
X154003935Y-99614000D01*
X153996212Y-99535586D01*
X153982081Y-99489000D01*
X153996212Y-99442414D01*
X154003935Y-99364000D01*
X154003935Y-98814000D01*
X153996212Y-98735586D01*
X153982081Y-98689000D01*
X153996212Y-98642414D01*
X154003935Y-98564000D01*
X154003935Y-98014000D01*
X153996212Y-97935586D01*
X153982081Y-97889000D01*
X153996212Y-97842414D01*
X154003935Y-97764000D01*
X154003935Y-97214000D01*
X153996212Y-97135586D01*
X153982081Y-97089000D01*
X153996212Y-97042414D01*
X154003935Y-96964000D01*
X154003935Y-96440935D01*
X154527000Y-96440935D01*
X154605414Y-96433212D01*
X154652000Y-96419081D01*
X154698586Y-96433212D01*
X154777000Y-96440935D01*
X155327000Y-96440935D01*
X155405414Y-96433212D01*
X155452000Y-96419081D01*
X155498586Y-96433212D01*
X155577000Y-96440935D01*
X156127000Y-96440935D01*
X156205414Y-96433212D01*
X156252000Y-96419081D01*
X156298586Y-96433212D01*
X156377000Y-96440935D01*
X156502000Y-96439000D01*
X156602000Y-96339000D01*
X156602000Y-95289000D01*
X156582000Y-95289000D01*
X156582000Y-95189000D01*
X156602000Y-95189000D01*
X156602000Y-94139000D01*
X156502000Y-94039000D01*
X156377000Y-94037065D01*
X156298586Y-94044788D01*
X156252000Y-94058919D01*
X156205414Y-94044788D01*
X156127000Y-94037065D01*
X155577000Y-94037065D01*
X155498586Y-94044788D01*
X155452000Y-94058919D01*
X155405414Y-94044788D01*
X155327000Y-94037065D01*
X154777000Y-94037065D01*
X154698586Y-94044788D01*
X154652000Y-94058919D01*
X154605414Y-94044788D01*
X154527000Y-94037065D01*
X153977000Y-94037065D01*
X153898586Y-94044788D01*
X153823186Y-94067660D01*
X153753697Y-94104803D01*
X153692789Y-94154789D01*
X153642803Y-94215697D01*
X153605660Y-94285186D01*
X153582788Y-94360586D01*
X153575065Y-94439000D01*
X153575065Y-96012065D01*
X152002000Y-96012065D01*
X151923586Y-96019788D01*
X151848186Y-96042660D01*
X151778697Y-96079803D01*
X151717789Y-96129789D01*
X151667803Y-96190697D01*
X151630660Y-96260186D01*
X151607788Y-96335586D01*
X151600065Y-96414000D01*
X151600065Y-96964000D01*
X151607788Y-97042414D01*
X151621919Y-97089000D01*
X151619105Y-97098279D01*
X151561804Y-97051254D01*
X151474942Y-97004825D01*
X151474461Y-97004679D01*
X151493776Y-96941006D01*
X151501011Y-96867549D01*
X151501011Y-96867540D01*
X151503429Y-96842990D01*
X151501011Y-96818440D01*
X151501011Y-94765860D01*
X151503429Y-94741310D01*
X151501011Y-94716760D01*
X151501011Y-94716751D01*
X151493776Y-94643294D01*
X151465186Y-94549044D01*
X151418757Y-94462182D01*
X151356275Y-94386047D01*
X151337198Y-94370391D01*
X150768074Y-93801268D01*
X151281072Y-93801268D01*
X151371719Y-93828765D01*
X151399557Y-93831507D01*
X151447776Y-93879726D01*
X151562426Y-93956332D01*
X151689818Y-94009099D01*
X151825056Y-94036000D01*
X151893248Y-94036000D01*
X151914870Y-94053745D01*
X152001732Y-94100174D01*
X152095982Y-94128764D01*
X152193999Y-94138418D01*
X152218559Y-94135999D01*
X152809741Y-94135999D01*
X152834301Y-94138418D01*
X152858861Y-94135999D01*
X152932318Y-94128764D01*
X153026568Y-94100174D01*
X153113430Y-94053745D01*
X153149688Y-94023989D01*
X154841451Y-94023989D01*
X154866011Y-94026408D01*
X154890571Y-94023989D01*
X154964028Y-94016754D01*
X155058278Y-93988164D01*
X155145140Y-93941735D01*
X155221275Y-93879253D01*
X155236940Y-93860165D01*
X155986187Y-93110920D01*
X156005264Y-93095264D01*
X156067746Y-93019129D01*
X156114175Y-92932267D01*
X156134603Y-92864923D01*
X156150000Y-92852287D01*
X156176697Y-92874197D01*
X156176697Y-92874197D01*
G37*
X156176697Y-92874197D02*
X156246186Y-92911340D01*
X156321586Y-92934212D01*
X156400000Y-92941935D01*
X156594830Y-92941935D01*
X157542089Y-93889196D01*
X157557746Y-93908274D01*
X157633881Y-93970756D01*
X157720743Y-94017185D01*
X157808235Y-94043725D01*
X157814993Y-94045775D01*
X157875640Y-94051748D01*
X157852000Y-94058919D01*
X157805414Y-94044788D01*
X157727000Y-94037065D01*
X157177000Y-94037065D01*
X157098586Y-94044788D01*
X157052000Y-94058919D01*
X157005414Y-94044788D01*
X156927000Y-94037065D01*
X156802000Y-94039000D01*
X156702000Y-94139000D01*
X156702000Y-95189000D01*
X156722000Y-95189000D01*
X156722000Y-95289000D01*
X156702000Y-95289000D01*
X156702000Y-96339000D01*
X156802000Y-96439000D01*
X156927000Y-96440935D01*
X157005414Y-96433212D01*
X157052000Y-96419081D01*
X157098586Y-96433212D01*
X157177000Y-96440935D01*
X157727000Y-96440935D01*
X157805414Y-96433212D01*
X157852000Y-96419081D01*
X157898586Y-96433212D01*
X157977000Y-96440935D01*
X158142959Y-96440935D01*
X158021908Y-96561986D01*
X158016945Y-96560999D01*
X157879057Y-96560999D01*
X157743819Y-96587900D01*
X157616427Y-96640667D01*
X157501777Y-96717273D01*
X157404275Y-96814775D01*
X157327669Y-96929425D01*
X157274902Y-97056817D01*
X157248001Y-97192055D01*
X157248001Y-97329943D01*
X157274902Y-97465181D01*
X157327669Y-97592573D01*
X157384000Y-97676879D01*
X157384001Y-100312893D01*
X157290894Y-100406000D01*
X157229056Y-100406000D01*
X157093818Y-100432901D01*
X156966426Y-100485668D01*
X156851776Y-100562274D01*
X156754274Y-100659776D01*
X156745438Y-100673000D01*
X154003935Y-100673000D01*
X154003935Y-100414000D01*
X153996212Y-100335586D01*
X153982081Y-100289000D01*
X153996212Y-100242414D01*
X154003935Y-100164000D01*
X154003935Y-99614000D01*
X153996212Y-99535586D01*
X153982081Y-99489000D01*
X153996212Y-99442414D01*
X154003935Y-99364000D01*
X154003935Y-98814000D01*
X153996212Y-98735586D01*
X153982081Y-98689000D01*
X153996212Y-98642414D01*
X154003935Y-98564000D01*
X154003935Y-98014000D01*
X153996212Y-97935586D01*
X153982081Y-97889000D01*
X153996212Y-97842414D01*
X154003935Y-97764000D01*
X154003935Y-97214000D01*
X153996212Y-97135586D01*
X153982081Y-97089000D01*
X153996212Y-97042414D01*
X154003935Y-96964000D01*
X154003935Y-96440935D01*
X154527000Y-96440935D01*
X154605414Y-96433212D01*
X154652000Y-96419081D01*
X154698586Y-96433212D01*
X154777000Y-96440935D01*
X155327000Y-96440935D01*
X155405414Y-96433212D01*
X155452000Y-96419081D01*
X155498586Y-96433212D01*
X155577000Y-96440935D01*
X156127000Y-96440935D01*
X156205414Y-96433212D01*
X156252000Y-96419081D01*
X156298586Y-96433212D01*
X156377000Y-96440935D01*
X156502000Y-96439000D01*
X156602000Y-96339000D01*
X156602000Y-95289000D01*
X156582000Y-95289000D01*
X156582000Y-95189000D01*
X156602000Y-95189000D01*
X156602000Y-94139000D01*
X156502000Y-94039000D01*
X156377000Y-94037065D01*
X156298586Y-94044788D01*
X156252000Y-94058919D01*
X156205414Y-94044788D01*
X156127000Y-94037065D01*
X155577000Y-94037065D01*
X155498586Y-94044788D01*
X155452000Y-94058919D01*
X155405414Y-94044788D01*
X155327000Y-94037065D01*
X154777000Y-94037065D01*
X154698586Y-94044788D01*
X154652000Y-94058919D01*
X154605414Y-94044788D01*
X154527000Y-94037065D01*
X153977000Y-94037065D01*
X153898586Y-94044788D01*
X153823186Y-94067660D01*
X153753697Y-94104803D01*
X153692789Y-94154789D01*
X153642803Y-94215697D01*
X153605660Y-94285186D01*
X153582788Y-94360586D01*
X153575065Y-94439000D01*
X153575065Y-96012065D01*
X152002000Y-96012065D01*
X151923586Y-96019788D01*
X151848186Y-96042660D01*
X151778697Y-96079803D01*
X151717789Y-96129789D01*
X151667803Y-96190697D01*
X151630660Y-96260186D01*
X151607788Y-96335586D01*
X151600065Y-96414000D01*
X151600065Y-96964000D01*
X151607788Y-97042414D01*
X151621919Y-97089000D01*
X151619105Y-97098279D01*
X151561804Y-97051254D01*
X151474942Y-97004825D01*
X151474461Y-97004679D01*
X151493776Y-96941006D01*
X151501011Y-96867549D01*
X151501011Y-96867540D01*
X151503429Y-96842990D01*
X151501011Y-96818440D01*
X151501011Y-94765860D01*
X151503429Y-94741310D01*
X151501011Y-94716760D01*
X151501011Y-94716751D01*
X151493776Y-94643294D01*
X151465186Y-94549044D01*
X151418757Y-94462182D01*
X151356275Y-94386047D01*
X151337198Y-94370391D01*
X150768074Y-93801268D01*
X151281072Y-93801268D01*
X151371719Y-93828765D01*
X151399557Y-93831507D01*
X151447776Y-93879726D01*
X151562426Y-93956332D01*
X151689818Y-94009099D01*
X151825056Y-94036000D01*
X151893248Y-94036000D01*
X151914870Y-94053745D01*
X152001732Y-94100174D01*
X152095982Y-94128764D01*
X152193999Y-94138418D01*
X152218559Y-94135999D01*
X152809741Y-94135999D01*
X152834301Y-94138418D01*
X152858861Y-94135999D01*
X152932318Y-94128764D01*
X153026568Y-94100174D01*
X153113430Y-94053745D01*
X153149688Y-94023989D01*
X154841451Y-94023989D01*
X154866011Y-94026408D01*
X154890571Y-94023989D01*
X154964028Y-94016754D01*
X155058278Y-93988164D01*
X155145140Y-93941735D01*
X155221275Y-93879253D01*
X155236940Y-93860165D01*
X155986187Y-93110920D01*
X156005264Y-93095264D01*
X156067746Y-93019129D01*
X156114175Y-92932267D01*
X156134603Y-92864923D01*
X156150000Y-92852287D01*
X156176697Y-92874197D01*
G36*
X162694000Y-89725000D02*
G01*
X162714000Y-89725000D01*
X162714000Y-89825000D01*
X162694000Y-89825000D01*
X162694000Y-90600000D01*
X162794000Y-90700000D01*
X163119000Y-90701935D01*
X163197414Y-90694212D01*
X163272814Y-90671340D01*
X163342303Y-90634197D01*
X163403211Y-90584211D01*
X163446314Y-90531690D01*
X163446315Y-100602618D01*
X162973027Y-100593021D01*
X162952718Y-100594685D01*
X162933889Y-100600141D01*
X162916487Y-100609165D01*
X162902001Y-100620753D01*
X162902001Y-100013561D01*
X162904420Y-99989001D01*
X162894766Y-99890984D01*
X162891916Y-99881589D01*
X162866176Y-99796734D01*
X162819747Y-99709872D01*
X162757265Y-99633737D01*
X162738181Y-99618075D01*
X162672928Y-99552823D01*
X162657264Y-99533736D01*
X162581129Y-99471254D01*
X162497760Y-99426692D01*
X162503935Y-99364000D01*
X162503935Y-98814000D01*
X162496212Y-98735586D01*
X162482081Y-98689000D01*
X162496212Y-98642414D01*
X162503935Y-98564000D01*
X162503935Y-98014000D01*
X162499288Y-97966819D01*
X162544267Y-97953175D01*
X162631129Y-97906746D01*
X162707264Y-97844264D01*
X162722928Y-97825178D01*
X162763181Y-97784925D01*
X162782265Y-97769263D01*
X162844747Y-97693128D01*
X162891176Y-97606266D01*
X162919766Y-97512016D01*
X162927001Y-97438559D01*
X162927001Y-97438550D01*
X162929419Y-97414000D01*
X162927001Y-97389450D01*
X162927001Y-94916550D01*
X162929419Y-94892000D01*
X162927001Y-94867450D01*
X162927001Y-94867441D01*
X162919766Y-94793984D01*
X162891176Y-94699734D01*
X162844747Y-94612872D01*
X162782265Y-94536737D01*
X162763188Y-94521081D01*
X161314850Y-93072744D01*
X161337574Y-93063332D01*
X161452224Y-92986726D01*
X161549726Y-92889224D01*
X161626332Y-92774574D01*
X161679099Y-92647182D01*
X161706000Y-92511944D01*
X161706000Y-92374056D01*
X161679099Y-92238818D01*
X161654736Y-92180000D01*
X161845585Y-92180000D01*
X161889311Y-92223726D01*
X162003961Y-92300332D01*
X162131353Y-92353099D01*
X162266591Y-92380000D01*
X162404479Y-92380000D01*
X162539717Y-92353099D01*
X162667109Y-92300332D01*
X162781759Y-92223726D01*
X162879261Y-92126224D01*
X162955867Y-92011574D01*
X163008634Y-91884182D01*
X163035535Y-91748944D01*
X163035535Y-91611056D01*
X163008634Y-91475818D01*
X162955867Y-91348426D01*
X162879261Y-91233776D01*
X162781759Y-91136274D01*
X162667109Y-91059668D01*
X162539717Y-91006901D01*
X162404479Y-90980000D01*
X162266591Y-90980000D01*
X162131353Y-91006901D01*
X162003961Y-91059668D01*
X161889311Y-91136274D01*
X161845585Y-91180000D01*
X161702639Y-91180000D01*
X161549000Y-91026362D01*
X161549000Y-90635747D01*
X161641751Y-90586171D01*
X161738649Y-90506649D01*
X161793436Y-90439890D01*
X161797660Y-90453814D01*
X161834803Y-90523303D01*
X161884789Y-90584211D01*
X161945697Y-90634197D01*
X162015186Y-90671340D01*
X162090586Y-90694212D01*
X162169000Y-90701935D01*
X162494000Y-90700000D01*
X162594000Y-90600000D01*
X162594000Y-89825000D01*
X162574000Y-89825000D01*
X162574000Y-89725000D01*
X162594000Y-89725000D01*
X162594000Y-89705000D01*
X162694000Y-89705000D01*
X162694000Y-89725000D01*
X162694000Y-89725000D01*
G37*
X162694000Y-89725000D02*
X162714000Y-89725000D01*
X162714000Y-89825000D01*
X162694000Y-89825000D01*
X162694000Y-90600000D01*
X162794000Y-90700000D01*
X163119000Y-90701935D01*
X163197414Y-90694212D01*
X163272814Y-90671340D01*
X163342303Y-90634197D01*
X163403211Y-90584211D01*
X163446314Y-90531690D01*
X163446315Y-100602618D01*
X162973027Y-100593021D01*
X162952718Y-100594685D01*
X162933889Y-100600141D01*
X162916487Y-100609165D01*
X162902001Y-100620753D01*
X162902001Y-100013561D01*
X162904420Y-99989001D01*
X162894766Y-99890984D01*
X162891916Y-99881589D01*
X162866176Y-99796734D01*
X162819747Y-99709872D01*
X162757265Y-99633737D01*
X162738181Y-99618075D01*
X162672928Y-99552823D01*
X162657264Y-99533736D01*
X162581129Y-99471254D01*
X162497760Y-99426692D01*
X162503935Y-99364000D01*
X162503935Y-98814000D01*
X162496212Y-98735586D01*
X162482081Y-98689000D01*
X162496212Y-98642414D01*
X162503935Y-98564000D01*
X162503935Y-98014000D01*
X162499288Y-97966819D01*
X162544267Y-97953175D01*
X162631129Y-97906746D01*
X162707264Y-97844264D01*
X162722928Y-97825178D01*
X162763181Y-97784925D01*
X162782265Y-97769263D01*
X162844747Y-97693128D01*
X162891176Y-97606266D01*
X162919766Y-97512016D01*
X162927001Y-97438559D01*
X162927001Y-97438550D01*
X162929419Y-97414000D01*
X162927001Y-97389450D01*
X162927001Y-94916550D01*
X162929419Y-94892000D01*
X162927001Y-94867450D01*
X162927001Y-94867441D01*
X162919766Y-94793984D01*
X162891176Y-94699734D01*
X162844747Y-94612872D01*
X162782265Y-94536737D01*
X162763188Y-94521081D01*
X161314850Y-93072744D01*
X161337574Y-93063332D01*
X161452224Y-92986726D01*
X161549726Y-92889224D01*
X161626332Y-92774574D01*
X161679099Y-92647182D01*
X161706000Y-92511944D01*
X161706000Y-92374056D01*
X161679099Y-92238818D01*
X161654736Y-92180000D01*
X161845585Y-92180000D01*
X161889311Y-92223726D01*
X162003961Y-92300332D01*
X162131353Y-92353099D01*
X162266591Y-92380000D01*
X162404479Y-92380000D01*
X162539717Y-92353099D01*
X162667109Y-92300332D01*
X162781759Y-92223726D01*
X162879261Y-92126224D01*
X162955867Y-92011574D01*
X163008634Y-91884182D01*
X163035535Y-91748944D01*
X163035535Y-91611056D01*
X163008634Y-91475818D01*
X162955867Y-91348426D01*
X162879261Y-91233776D01*
X162781759Y-91136274D01*
X162667109Y-91059668D01*
X162539717Y-91006901D01*
X162404479Y-90980000D01*
X162266591Y-90980000D01*
X162131353Y-91006901D01*
X162003961Y-91059668D01*
X161889311Y-91136274D01*
X161845585Y-91180000D01*
X161702639Y-91180000D01*
X161549000Y-91026362D01*
X161549000Y-90635747D01*
X161641751Y-90586171D01*
X161738649Y-90506649D01*
X161793436Y-90439890D01*
X161797660Y-90453814D01*
X161834803Y-90523303D01*
X161884789Y-90584211D01*
X161945697Y-90634197D01*
X162015186Y-90671340D01*
X162090586Y-90694212D01*
X162169000Y-90701935D01*
X162494000Y-90700000D01*
X162594000Y-90600000D01*
X162594000Y-89825000D01*
X162574000Y-89825000D01*
X162574000Y-89725000D01*
X162594000Y-89725000D01*
X162594000Y-89705000D01*
X162694000Y-89705000D01*
X162694000Y-89725000D01*
G36*
X146873065Y-95574171D02*
G01*
X146873065Y-96069000D01*
X146880788Y-96147414D01*
X146903660Y-96222814D01*
X146916916Y-96247614D01*
X146883914Y-96265254D01*
X146807779Y-96327736D01*
X146792118Y-96346819D01*
X146606905Y-96532033D01*
X146545066Y-96532033D01*
X146409828Y-96558934D01*
X146282436Y-96611701D01*
X146167786Y-96688307D01*
X146070284Y-96785809D01*
X145993678Y-96900459D01*
X145940911Y-97027851D01*
X145914010Y-97163089D01*
X145914010Y-97300977D01*
X145940911Y-97436215D01*
X145993678Y-97563607D01*
X146070284Y-97678257D01*
X146112514Y-97720487D01*
X146064000Y-97769000D01*
X146064000Y-98167065D01*
X145964000Y-98167065D01*
X145964000Y-97769000D01*
X145865935Y-97670935D01*
X145865935Y-97169000D01*
X145856771Y-97075955D01*
X145829630Y-96986485D01*
X145785557Y-96904029D01*
X145726244Y-96831756D01*
X145653971Y-96772443D01*
X145571515Y-96728370D01*
X145482045Y-96701229D01*
X145389000Y-96692065D01*
X145239000Y-96692065D01*
X145145955Y-96701229D01*
X145096561Y-96716213D01*
X145042414Y-96699788D01*
X144964000Y-96692065D01*
X144964000Y-96694000D01*
X144864000Y-96794000D01*
X144864000Y-96877762D01*
X144842443Y-96904029D01*
X144814000Y-96957243D01*
X144785557Y-96904029D01*
X144764000Y-96877762D01*
X144764000Y-96794000D01*
X144664000Y-96694000D01*
X144664000Y-96692065D01*
X144585586Y-96699788D01*
X144531439Y-96716213D01*
X144482045Y-96701229D01*
X144389000Y-96692065D01*
X144363990Y-96692065D01*
X144363990Y-96225890D01*
X144454511Y-96286374D01*
X144581903Y-96339141D01*
X144717141Y-96366042D01*
X144855029Y-96366042D01*
X144990267Y-96339141D01*
X145117659Y-96286374D01*
X145232309Y-96209768D01*
X145329811Y-96112266D01*
X145406417Y-95997616D01*
X145459184Y-95870224D01*
X145486085Y-95734986D01*
X145486085Y-95597098D01*
X145459184Y-95461860D01*
X145406417Y-95334468D01*
X145376318Y-95289422D01*
X145462843Y-95263175D01*
X145549705Y-95216746D01*
X145625840Y-95154264D01*
X145641505Y-95135176D01*
X145775380Y-95001301D01*
X146300196Y-95001301D01*
X146873065Y-95574171D01*
X146873065Y-95574171D01*
G37*
X146873065Y-95574171D02*
X146873065Y-96069000D01*
X146880788Y-96147414D01*
X146903660Y-96222814D01*
X146916916Y-96247614D01*
X146883914Y-96265254D01*
X146807779Y-96327736D01*
X146792118Y-96346819D01*
X146606905Y-96532033D01*
X146545066Y-96532033D01*
X146409828Y-96558934D01*
X146282436Y-96611701D01*
X146167786Y-96688307D01*
X146070284Y-96785809D01*
X145993678Y-96900459D01*
X145940911Y-97027851D01*
X145914010Y-97163089D01*
X145914010Y-97300977D01*
X145940911Y-97436215D01*
X145993678Y-97563607D01*
X146070284Y-97678257D01*
X146112514Y-97720487D01*
X146064000Y-97769000D01*
X146064000Y-98167065D01*
X145964000Y-98167065D01*
X145964000Y-97769000D01*
X145865935Y-97670935D01*
X145865935Y-97169000D01*
X145856771Y-97075955D01*
X145829630Y-96986485D01*
X145785557Y-96904029D01*
X145726244Y-96831756D01*
X145653971Y-96772443D01*
X145571515Y-96728370D01*
X145482045Y-96701229D01*
X145389000Y-96692065D01*
X145239000Y-96692065D01*
X145145955Y-96701229D01*
X145096561Y-96716213D01*
X145042414Y-96699788D01*
X144964000Y-96692065D01*
X144964000Y-96694000D01*
X144864000Y-96794000D01*
X144864000Y-96877762D01*
X144842443Y-96904029D01*
X144814000Y-96957243D01*
X144785557Y-96904029D01*
X144764000Y-96877762D01*
X144764000Y-96794000D01*
X144664000Y-96694000D01*
X144664000Y-96692065D01*
X144585586Y-96699788D01*
X144531439Y-96716213D01*
X144482045Y-96701229D01*
X144389000Y-96692065D01*
X144363990Y-96692065D01*
X144363990Y-96225890D01*
X144454511Y-96286374D01*
X144581903Y-96339141D01*
X144717141Y-96366042D01*
X144855029Y-96366042D01*
X144990267Y-96339141D01*
X145117659Y-96286374D01*
X145232309Y-96209768D01*
X145329811Y-96112266D01*
X145406417Y-95997616D01*
X145459184Y-95870224D01*
X145486085Y-95734986D01*
X145486085Y-95597098D01*
X145459184Y-95461860D01*
X145406417Y-95334468D01*
X145376318Y-95289422D01*
X145462843Y-95263175D01*
X145549705Y-95216746D01*
X145625840Y-95154264D01*
X145641505Y-95135176D01*
X145775380Y-95001301D01*
X146300196Y-95001301D01*
X146873065Y-95574171D01*
G36*
X146821206Y-84514264D02*
G01*
X146811332Y-84490426D01*
X146734726Y-84375776D01*
X146637224Y-84278274D01*
X146522574Y-84201668D01*
X146395182Y-84148901D01*
X146259944Y-84122000D01*
X146122056Y-84122000D01*
X145986818Y-84148901D01*
X145859426Y-84201668D01*
X145744776Y-84278274D01*
X145701050Y-84322000D01*
X142163660Y-84322000D01*
X142139100Y-84319581D01*
X142114540Y-84322000D01*
X142041083Y-84329235D01*
X141946833Y-84357825D01*
X141859971Y-84404254D01*
X141783836Y-84466736D01*
X141768180Y-84485813D01*
X140842904Y-85411090D01*
X140781066Y-85411090D01*
X140645828Y-85437991D01*
X140518436Y-85490758D01*
X140403786Y-85567364D01*
X140306284Y-85664866D01*
X140229678Y-85779516D01*
X140176911Y-85906908D01*
X140150010Y-86042146D01*
X140150010Y-86180034D01*
X140176911Y-86315272D01*
X140229678Y-86442664D01*
X140306284Y-86557314D01*
X140403786Y-86654816D01*
X140518436Y-86731422D01*
X140645828Y-86784189D01*
X140665130Y-86788029D01*
X140132158Y-87321001D01*
X139984559Y-87321001D01*
X139959999Y-87318582D01*
X139935439Y-87321001D01*
X139861982Y-87328236D01*
X139767732Y-87356826D01*
X139680870Y-87403255D01*
X139659248Y-87421000D01*
X139591056Y-87421000D01*
X139455818Y-87447901D01*
X139328426Y-87500668D01*
X139213776Y-87577274D01*
X139116274Y-87674776D01*
X139039668Y-87789426D01*
X138986901Y-87916818D01*
X138960000Y-88052056D01*
X138960000Y-88189944D01*
X138986901Y-88325182D01*
X139039668Y-88452574D01*
X139116274Y-88567224D01*
X139213776Y-88664726D01*
X139328426Y-88741332D01*
X139455818Y-88794099D01*
X139591056Y-88821000D01*
X139728944Y-88821000D01*
X139864182Y-88794099D01*
X139991574Y-88741332D01*
X140105000Y-88665544D01*
X140104999Y-93288441D01*
X140102580Y-93313001D01*
X140104999Y-93337560D01*
X140112234Y-93411017D01*
X140140824Y-93505267D01*
X140144298Y-93511766D01*
X140068355Y-93534803D01*
X139981493Y-93581232D01*
X139905358Y-93643714D01*
X139889697Y-93662797D01*
X138603000Y-94949495D01*
X138603000Y-86639790D01*
X138654041Y-86119241D01*
X138799179Y-85638520D01*
X139034925Y-85195144D01*
X139352300Y-84806004D01*
X139739216Y-84485919D01*
X140180939Y-84247081D01*
X140660634Y-84098590D01*
X141180025Y-84044000D01*
X147291469Y-84044000D01*
X146821206Y-84514264D01*
X146821206Y-84514264D01*
G37*
X146821206Y-84514264D02*
X146811332Y-84490426D01*
X146734726Y-84375776D01*
X146637224Y-84278274D01*
X146522574Y-84201668D01*
X146395182Y-84148901D01*
X146259944Y-84122000D01*
X146122056Y-84122000D01*
X145986818Y-84148901D01*
X145859426Y-84201668D01*
X145744776Y-84278274D01*
X145701050Y-84322000D01*
X142163660Y-84322000D01*
X142139100Y-84319581D01*
X142114540Y-84322000D01*
X142041083Y-84329235D01*
X141946833Y-84357825D01*
X141859971Y-84404254D01*
X141783836Y-84466736D01*
X141768180Y-84485813D01*
X140842904Y-85411090D01*
X140781066Y-85411090D01*
X140645828Y-85437991D01*
X140518436Y-85490758D01*
X140403786Y-85567364D01*
X140306284Y-85664866D01*
X140229678Y-85779516D01*
X140176911Y-85906908D01*
X140150010Y-86042146D01*
X140150010Y-86180034D01*
X140176911Y-86315272D01*
X140229678Y-86442664D01*
X140306284Y-86557314D01*
X140403786Y-86654816D01*
X140518436Y-86731422D01*
X140645828Y-86784189D01*
X140665130Y-86788029D01*
X140132158Y-87321001D01*
X139984559Y-87321001D01*
X139959999Y-87318582D01*
X139935439Y-87321001D01*
X139861982Y-87328236D01*
X139767732Y-87356826D01*
X139680870Y-87403255D01*
X139659248Y-87421000D01*
X139591056Y-87421000D01*
X139455818Y-87447901D01*
X139328426Y-87500668D01*
X139213776Y-87577274D01*
X139116274Y-87674776D01*
X139039668Y-87789426D01*
X138986901Y-87916818D01*
X138960000Y-88052056D01*
X138960000Y-88189944D01*
X138986901Y-88325182D01*
X139039668Y-88452574D01*
X139116274Y-88567224D01*
X139213776Y-88664726D01*
X139328426Y-88741332D01*
X139455818Y-88794099D01*
X139591056Y-88821000D01*
X139728944Y-88821000D01*
X139864182Y-88794099D01*
X139991574Y-88741332D01*
X140105000Y-88665544D01*
X140104999Y-93288441D01*
X140102580Y-93313001D01*
X140104999Y-93337560D01*
X140112234Y-93411017D01*
X140140824Y-93505267D01*
X140144298Y-93511766D01*
X140068355Y-93534803D01*
X139981493Y-93581232D01*
X139905358Y-93643714D01*
X139889697Y-93662797D01*
X138603000Y-94949495D01*
X138603000Y-86639790D01*
X138654041Y-86119241D01*
X138799179Y-85638520D01*
X139034925Y-85195144D01*
X139352300Y-84806004D01*
X139739216Y-84485919D01*
X140180939Y-84247081D01*
X140660634Y-84098590D01*
X141180025Y-84044000D01*
X147291469Y-84044000D01*
X146821206Y-84514264D01*
G36*
X152741746Y-88817274D02*
G01*
X152760833Y-88832938D01*
X152829074Y-88901180D01*
X152844736Y-88920264D01*
X152920871Y-88982746D01*
X152998065Y-89024007D01*
X152998065Y-89431999D01*
X152718931Y-89431999D01*
X152718099Y-89427818D01*
X152665332Y-89300426D01*
X152588726Y-89185776D01*
X152491224Y-89088274D01*
X152376574Y-89011668D01*
X152249182Y-88958901D01*
X152113944Y-88932000D01*
X151976056Y-88932000D01*
X151840818Y-88958901D01*
X151713426Y-89011668D01*
X151598776Y-89088274D01*
X151501274Y-89185776D01*
X151424668Y-89300426D01*
X151371901Y-89427818D01*
X151345000Y-89563056D01*
X151345000Y-89700944D01*
X151371901Y-89836182D01*
X151424668Y-89963574D01*
X151501274Y-90078224D01*
X151598776Y-90175726D01*
X151713426Y-90252332D01*
X151840818Y-90305099D01*
X151971259Y-90331046D01*
X151945000Y-90463055D01*
X151945000Y-90600943D01*
X151971901Y-90736181D01*
X152024668Y-90863573D01*
X152101274Y-90978223D01*
X152198776Y-91075725D01*
X152313426Y-91152331D01*
X152440818Y-91205098D01*
X152576056Y-91231999D01*
X152713944Y-91231999D01*
X152849182Y-91205098D01*
X152976574Y-91152331D01*
X152998065Y-91137971D01*
X152998065Y-92540000D01*
X153005788Y-92618414D01*
X153028660Y-92693814D01*
X153065803Y-92763303D01*
X153115789Y-92824211D01*
X153165626Y-92865111D01*
X153185456Y-92894789D01*
X153282958Y-92992291D01*
X153330398Y-93023989D01*
X152970868Y-93023989D01*
X152946310Y-93021570D01*
X152921752Y-93023989D01*
X152921751Y-93023989D01*
X152848294Y-93031224D01*
X152754044Y-93059814D01*
X152667182Y-93106243D01*
X152630924Y-93135999D01*
X152567931Y-93135999D01*
X152567099Y-93131818D01*
X152514332Y-93004426D01*
X152437726Y-92889776D01*
X152340224Y-92792274D01*
X152225574Y-92715668D01*
X152098182Y-92662901D01*
X151962944Y-92636000D01*
X151825056Y-92636000D01*
X151689818Y-92662901D01*
X151562426Y-92715668D01*
X151447776Y-92792274D01*
X151440645Y-92799405D01*
X151435004Y-92798849D01*
X151410444Y-92801268D01*
X148624838Y-92801268D01*
X148661181Y-92764925D01*
X148680264Y-92749264D01*
X148742746Y-92673129D01*
X148789175Y-92586267D01*
X148793472Y-92572100D01*
X148846586Y-92588212D01*
X148925000Y-92595935D01*
X149325000Y-92595935D01*
X149403414Y-92588212D01*
X149478814Y-92565340D01*
X149500000Y-92554016D01*
X149521186Y-92565340D01*
X149596586Y-92588212D01*
X149675000Y-92595935D01*
X150175000Y-92595935D01*
X150253414Y-92588212D01*
X150328814Y-92565340D01*
X150398303Y-92528197D01*
X150459211Y-92478211D01*
X150509197Y-92417303D01*
X150546340Y-92347814D01*
X150569212Y-92272414D01*
X150576935Y-92194000D01*
X150576935Y-92045371D01*
X150596904Y-92025402D01*
X150673510Y-91910752D01*
X150726277Y-91783360D01*
X150753178Y-91648122D01*
X150753178Y-91510234D01*
X150726277Y-91374996D01*
X150673510Y-91247604D01*
X150596904Y-91132954D01*
X150499402Y-91035452D01*
X150384752Y-90958846D01*
X150257360Y-90906079D01*
X150122122Y-90879178D01*
X149984234Y-90879178D01*
X149848996Y-90906079D01*
X149721604Y-90958846D01*
X149671350Y-90992425D01*
X149596586Y-90999788D01*
X149589259Y-91002011D01*
X149589175Y-91001733D01*
X149542746Y-90914871D01*
X149480264Y-90838736D01*
X149461181Y-90823075D01*
X149420987Y-90782881D01*
X149478814Y-90765340D01*
X149500000Y-90754016D01*
X149521186Y-90765340D01*
X149596586Y-90788212D01*
X149675000Y-90795935D01*
X150175000Y-90795935D01*
X150253414Y-90788212D01*
X150328814Y-90765340D01*
X150398303Y-90728197D01*
X150459211Y-90678211D01*
X150509197Y-90617303D01*
X150546340Y-90547814D01*
X150569212Y-90472414D01*
X150576935Y-90394000D01*
X150576935Y-89594000D01*
X150569212Y-89515586D01*
X150546340Y-89440186D01*
X150509197Y-89370697D01*
X150459211Y-89309789D01*
X150398303Y-89259803D01*
X150328814Y-89222660D01*
X150253414Y-89199788D01*
X150175000Y-89192065D01*
X149675000Y-89192065D01*
X149625000Y-89196990D01*
X149625000Y-89086010D01*
X149675000Y-89090935D01*
X150175000Y-89090935D01*
X150253414Y-89083212D01*
X150328814Y-89060340D01*
X150398303Y-89023197D01*
X150459211Y-88973211D01*
X150509197Y-88912303D01*
X150546340Y-88842814D01*
X150562664Y-88789000D01*
X152718542Y-88789000D01*
X152741746Y-88817274D01*
X152741746Y-88817274D01*
G37*
X152741746Y-88817274D02*
X152760833Y-88832938D01*
X152829074Y-88901180D01*
X152844736Y-88920264D01*
X152920871Y-88982746D01*
X152998065Y-89024007D01*
X152998065Y-89431999D01*
X152718931Y-89431999D01*
X152718099Y-89427818D01*
X152665332Y-89300426D01*
X152588726Y-89185776D01*
X152491224Y-89088274D01*
X152376574Y-89011668D01*
X152249182Y-88958901D01*
X152113944Y-88932000D01*
X151976056Y-88932000D01*
X151840818Y-88958901D01*
X151713426Y-89011668D01*
X151598776Y-89088274D01*
X151501274Y-89185776D01*
X151424668Y-89300426D01*
X151371901Y-89427818D01*
X151345000Y-89563056D01*
X151345000Y-89700944D01*
X151371901Y-89836182D01*
X151424668Y-89963574D01*
X151501274Y-90078224D01*
X151598776Y-90175726D01*
X151713426Y-90252332D01*
X151840818Y-90305099D01*
X151971259Y-90331046D01*
X151945000Y-90463055D01*
X151945000Y-90600943D01*
X151971901Y-90736181D01*
X152024668Y-90863573D01*
X152101274Y-90978223D01*
X152198776Y-91075725D01*
X152313426Y-91152331D01*
X152440818Y-91205098D01*
X152576056Y-91231999D01*
X152713944Y-91231999D01*
X152849182Y-91205098D01*
X152976574Y-91152331D01*
X152998065Y-91137971D01*
X152998065Y-92540000D01*
X153005788Y-92618414D01*
X153028660Y-92693814D01*
X153065803Y-92763303D01*
X153115789Y-92824211D01*
X153165626Y-92865111D01*
X153185456Y-92894789D01*
X153282958Y-92992291D01*
X153330398Y-93023989D01*
X152970868Y-93023989D01*
X152946310Y-93021570D01*
X152921752Y-93023989D01*
X152921751Y-93023989D01*
X152848294Y-93031224D01*
X152754044Y-93059814D01*
X152667182Y-93106243D01*
X152630924Y-93135999D01*
X152567931Y-93135999D01*
X152567099Y-93131818D01*
X152514332Y-93004426D01*
X152437726Y-92889776D01*
X152340224Y-92792274D01*
X152225574Y-92715668D01*
X152098182Y-92662901D01*
X151962944Y-92636000D01*
X151825056Y-92636000D01*
X151689818Y-92662901D01*
X151562426Y-92715668D01*
X151447776Y-92792274D01*
X151440645Y-92799405D01*
X151435004Y-92798849D01*
X151410444Y-92801268D01*
X148624838Y-92801268D01*
X148661181Y-92764925D01*
X148680264Y-92749264D01*
X148742746Y-92673129D01*
X148789175Y-92586267D01*
X148793472Y-92572100D01*
X148846586Y-92588212D01*
X148925000Y-92595935D01*
X149325000Y-92595935D01*
X149403414Y-92588212D01*
X149478814Y-92565340D01*
X149500000Y-92554016D01*
X149521186Y-92565340D01*
X149596586Y-92588212D01*
X149675000Y-92595935D01*
X150175000Y-92595935D01*
X150253414Y-92588212D01*
X150328814Y-92565340D01*
X150398303Y-92528197D01*
X150459211Y-92478211D01*
X150509197Y-92417303D01*
X150546340Y-92347814D01*
X150569212Y-92272414D01*
X150576935Y-92194000D01*
X150576935Y-92045371D01*
X150596904Y-92025402D01*
X150673510Y-91910752D01*
X150726277Y-91783360D01*
X150753178Y-91648122D01*
X150753178Y-91510234D01*
X150726277Y-91374996D01*
X150673510Y-91247604D01*
X150596904Y-91132954D01*
X150499402Y-91035452D01*
X150384752Y-90958846D01*
X150257360Y-90906079D01*
X150122122Y-90879178D01*
X149984234Y-90879178D01*
X149848996Y-90906079D01*
X149721604Y-90958846D01*
X149671350Y-90992425D01*
X149596586Y-90999788D01*
X149589259Y-91002011D01*
X149589175Y-91001733D01*
X149542746Y-90914871D01*
X149480264Y-90838736D01*
X149461181Y-90823075D01*
X149420987Y-90782881D01*
X149478814Y-90765340D01*
X149500000Y-90754016D01*
X149521186Y-90765340D01*
X149596586Y-90788212D01*
X149675000Y-90795935D01*
X150175000Y-90795935D01*
X150253414Y-90788212D01*
X150328814Y-90765340D01*
X150398303Y-90728197D01*
X150459211Y-90678211D01*
X150509197Y-90617303D01*
X150546340Y-90547814D01*
X150569212Y-90472414D01*
X150576935Y-90394000D01*
X150576935Y-89594000D01*
X150569212Y-89515586D01*
X150546340Y-89440186D01*
X150509197Y-89370697D01*
X150459211Y-89309789D01*
X150398303Y-89259803D01*
X150328814Y-89222660D01*
X150253414Y-89199788D01*
X150175000Y-89192065D01*
X149675000Y-89192065D01*
X149625000Y-89196990D01*
X149625000Y-89086010D01*
X149675000Y-89090935D01*
X150175000Y-89090935D01*
X150253414Y-89083212D01*
X150328814Y-89060340D01*
X150398303Y-89023197D01*
X150459211Y-88973211D01*
X150509197Y-88912303D01*
X150546340Y-88842814D01*
X150562664Y-88789000D01*
X152718542Y-88789000D01*
X152741746Y-88817274D01*
G36*
X141155691Y-88462736D02*
G01*
X141232297Y-88577386D01*
X141329799Y-88674888D01*
X141444449Y-88751494D01*
X141480065Y-88766246D01*
X141480065Y-89130500D01*
X141492352Y-89255248D01*
X141528739Y-89375201D01*
X141587829Y-89485751D01*
X141667351Y-89582649D01*
X141764249Y-89662171D01*
X141797142Y-89679753D01*
X141770752Y-89682352D01*
X141650799Y-89718739D01*
X141540249Y-89777829D01*
X141443351Y-89857351D01*
X141363829Y-89954249D01*
X141304739Y-90064799D01*
X141268352Y-90184752D01*
X141256065Y-90309500D01*
X141256065Y-90784500D01*
X141268352Y-90909248D01*
X141304739Y-91029201D01*
X141363829Y-91139751D01*
X141443351Y-91236649D01*
X141540249Y-91316171D01*
X141650799Y-91375261D01*
X141654883Y-91376500D01*
X141650799Y-91377739D01*
X141540249Y-91436829D01*
X141443351Y-91516351D01*
X141363829Y-91613249D01*
X141304739Y-91723799D01*
X141268352Y-91843752D01*
X141256065Y-91968500D01*
X141256065Y-92443500D01*
X141268352Y-92568248D01*
X141304739Y-92688201D01*
X141363829Y-92798751D01*
X141443351Y-92895649D01*
X141540249Y-92975171D01*
X141650799Y-93034261D01*
X141770752Y-93070648D01*
X141895500Y-93082935D01*
X142470500Y-93082935D01*
X142595248Y-93070648D01*
X142715201Y-93034261D01*
X142825751Y-92975171D01*
X142922649Y-92895649D01*
X143002171Y-92798751D01*
X143017195Y-92770644D01*
X143036660Y-92834814D01*
X143073803Y-92904303D01*
X143123789Y-92965211D01*
X143184697Y-93015197D01*
X143254186Y-93052340D01*
X143329586Y-93075212D01*
X143408000Y-93082935D01*
X143783000Y-93081000D01*
X143883000Y-92981000D01*
X143883000Y-92256000D01*
X143863000Y-92256000D01*
X143863000Y-92156000D01*
X143883000Y-92156000D01*
X143883000Y-91431000D01*
X143828500Y-91376500D01*
X143883000Y-91322000D01*
X143883000Y-90597000D01*
X143863000Y-90597000D01*
X143863000Y-90497000D01*
X143883000Y-90497000D01*
X143883000Y-89772000D01*
X143853500Y-89742500D01*
X143928000Y-89668000D01*
X143928000Y-88893000D01*
X143908000Y-88893000D01*
X143908000Y-88793000D01*
X143928000Y-88793000D01*
X143928000Y-88773000D01*
X144028000Y-88773000D01*
X144028000Y-88793000D01*
X144048000Y-88793000D01*
X144048000Y-88893000D01*
X144028000Y-88893000D01*
X144028000Y-89668000D01*
X144057500Y-89697500D01*
X143983000Y-89772000D01*
X143983000Y-90497000D01*
X144758000Y-90497000D01*
X144858000Y-90397000D01*
X144859935Y-90072000D01*
X144852212Y-89993586D01*
X144829340Y-89918186D01*
X144792197Y-89848697D01*
X144742211Y-89787789D01*
X144681303Y-89737803D01*
X144645496Y-89718664D01*
X144676303Y-89702197D01*
X144737211Y-89652211D01*
X144787197Y-89591303D01*
X144824340Y-89521814D01*
X144847212Y-89446414D01*
X144854935Y-89368000D01*
X144853234Y-89038424D01*
X144874140Y-89044766D01*
X144947597Y-89052001D01*
X144947598Y-89052001D01*
X144972156Y-89054420D01*
X144996714Y-89052001D01*
X146706424Y-89052001D01*
X146726125Y-89099564D01*
X146802731Y-89214214D01*
X146900233Y-89311716D01*
X146957697Y-89350112D01*
X146940803Y-89370697D01*
X146903660Y-89440186D01*
X146880788Y-89515586D01*
X146873065Y-89594000D01*
X146873065Y-90394000D01*
X146880788Y-90472414D01*
X146903660Y-90547814D01*
X146940803Y-90617303D01*
X146990789Y-90678211D01*
X147051697Y-90728197D01*
X147121186Y-90765340D01*
X147196586Y-90788212D01*
X147275000Y-90795935D01*
X147775000Y-90795935D01*
X147853414Y-90788212D01*
X147928814Y-90765340D01*
X147950000Y-90754016D01*
X147971186Y-90765340D01*
X147988440Y-90770574D01*
X147982675Y-90799556D01*
X147982675Y-90937444D01*
X147998007Y-91014524D01*
X147971186Y-91022660D01*
X147950000Y-91033984D01*
X147928814Y-91022660D01*
X147853414Y-90999788D01*
X147775000Y-90992065D01*
X147275000Y-90992065D01*
X147196586Y-90999788D01*
X147121186Y-91022660D01*
X147051697Y-91059803D01*
X146990789Y-91109789D01*
X146940803Y-91170697D01*
X146903660Y-91240186D01*
X146880788Y-91315586D01*
X146873065Y-91394000D01*
X146873065Y-91565001D01*
X145386838Y-91565001D01*
X145384182Y-91563901D01*
X145248944Y-91537000D01*
X145111056Y-91537000D01*
X144975818Y-91563901D01*
X144848426Y-91616668D01*
X144842515Y-91620618D01*
X144829340Y-91577186D01*
X144792197Y-91507697D01*
X144742211Y-91446789D01*
X144681303Y-91396803D01*
X144643319Y-91376500D01*
X144681303Y-91356197D01*
X144742211Y-91306211D01*
X144792197Y-91245303D01*
X144829340Y-91175814D01*
X144852212Y-91100414D01*
X144859935Y-91022000D01*
X144858000Y-90697000D01*
X144758000Y-90597000D01*
X143983000Y-90597000D01*
X143983000Y-91322000D01*
X144037500Y-91376500D01*
X143983000Y-91431000D01*
X143983000Y-92156000D01*
X144003000Y-92156000D01*
X144003000Y-92256000D01*
X143983000Y-92256000D01*
X143983000Y-92981000D01*
X144083000Y-93081000D01*
X144458000Y-93082935D01*
X144536414Y-93075212D01*
X144611814Y-93052340D01*
X144614428Y-93050943D01*
X144566404Y-93098967D01*
X141104999Y-93098967D01*
X141104999Y-88477106D01*
X141145053Y-88437053D01*
X141155691Y-88462736D01*
X141155691Y-88462736D01*
G37*
X141155691Y-88462736D02*
X141232297Y-88577386D01*
X141329799Y-88674888D01*
X141444449Y-88751494D01*
X141480065Y-88766246D01*
X141480065Y-89130500D01*
X141492352Y-89255248D01*
X141528739Y-89375201D01*
X141587829Y-89485751D01*
X141667351Y-89582649D01*
X141764249Y-89662171D01*
X141797142Y-89679753D01*
X141770752Y-89682352D01*
X141650799Y-89718739D01*
X141540249Y-89777829D01*
X141443351Y-89857351D01*
X141363829Y-89954249D01*
X141304739Y-90064799D01*
X141268352Y-90184752D01*
X141256065Y-90309500D01*
X141256065Y-90784500D01*
X141268352Y-90909248D01*
X141304739Y-91029201D01*
X141363829Y-91139751D01*
X141443351Y-91236649D01*
X141540249Y-91316171D01*
X141650799Y-91375261D01*
X141654883Y-91376500D01*
X141650799Y-91377739D01*
X141540249Y-91436829D01*
X141443351Y-91516351D01*
X141363829Y-91613249D01*
X141304739Y-91723799D01*
X141268352Y-91843752D01*
X141256065Y-91968500D01*
X141256065Y-92443500D01*
X141268352Y-92568248D01*
X141304739Y-92688201D01*
X141363829Y-92798751D01*
X141443351Y-92895649D01*
X141540249Y-92975171D01*
X141650799Y-93034261D01*
X141770752Y-93070648D01*
X141895500Y-93082935D01*
X142470500Y-93082935D01*
X142595248Y-93070648D01*
X142715201Y-93034261D01*
X142825751Y-92975171D01*
X142922649Y-92895649D01*
X143002171Y-92798751D01*
X143017195Y-92770644D01*
X143036660Y-92834814D01*
X143073803Y-92904303D01*
X143123789Y-92965211D01*
X143184697Y-93015197D01*
X143254186Y-93052340D01*
X143329586Y-93075212D01*
X143408000Y-93082935D01*
X143783000Y-93081000D01*
X143883000Y-92981000D01*
X143883000Y-92256000D01*
X143863000Y-92256000D01*
X143863000Y-92156000D01*
X143883000Y-92156000D01*
X143883000Y-91431000D01*
X143828500Y-91376500D01*
X143883000Y-91322000D01*
X143883000Y-90597000D01*
X143863000Y-90597000D01*
X143863000Y-90497000D01*
X143883000Y-90497000D01*
X143883000Y-89772000D01*
X143853500Y-89742500D01*
X143928000Y-89668000D01*
X143928000Y-88893000D01*
X143908000Y-88893000D01*
X143908000Y-88793000D01*
X143928000Y-88793000D01*
X143928000Y-88773000D01*
X144028000Y-88773000D01*
X144028000Y-88793000D01*
X144048000Y-88793000D01*
X144048000Y-88893000D01*
X144028000Y-88893000D01*
X144028000Y-89668000D01*
X144057500Y-89697500D01*
X143983000Y-89772000D01*
X143983000Y-90497000D01*
X144758000Y-90497000D01*
X144858000Y-90397000D01*
X144859935Y-90072000D01*
X144852212Y-89993586D01*
X144829340Y-89918186D01*
X144792197Y-89848697D01*
X144742211Y-89787789D01*
X144681303Y-89737803D01*
X144645496Y-89718664D01*
X144676303Y-89702197D01*
X144737211Y-89652211D01*
X144787197Y-89591303D01*
X144824340Y-89521814D01*
X144847212Y-89446414D01*
X144854935Y-89368000D01*
X144853234Y-89038424D01*
X144874140Y-89044766D01*
X144947597Y-89052001D01*
X144947598Y-89052001D01*
X144972156Y-89054420D01*
X144996714Y-89052001D01*
X146706424Y-89052001D01*
X146726125Y-89099564D01*
X146802731Y-89214214D01*
X146900233Y-89311716D01*
X146957697Y-89350112D01*
X146940803Y-89370697D01*
X146903660Y-89440186D01*
X146880788Y-89515586D01*
X146873065Y-89594000D01*
X146873065Y-90394000D01*
X146880788Y-90472414D01*
X146903660Y-90547814D01*
X146940803Y-90617303D01*
X146990789Y-90678211D01*
X147051697Y-90728197D01*
X147121186Y-90765340D01*
X147196586Y-90788212D01*
X147275000Y-90795935D01*
X147775000Y-90795935D01*
X147853414Y-90788212D01*
X147928814Y-90765340D01*
X147950000Y-90754016D01*
X147971186Y-90765340D01*
X147988440Y-90770574D01*
X147982675Y-90799556D01*
X147982675Y-90937444D01*
X147998007Y-91014524D01*
X147971186Y-91022660D01*
X147950000Y-91033984D01*
X147928814Y-91022660D01*
X147853414Y-90999788D01*
X147775000Y-90992065D01*
X147275000Y-90992065D01*
X147196586Y-90999788D01*
X147121186Y-91022660D01*
X147051697Y-91059803D01*
X146990789Y-91109789D01*
X146940803Y-91170697D01*
X146903660Y-91240186D01*
X146880788Y-91315586D01*
X146873065Y-91394000D01*
X146873065Y-91565001D01*
X145386838Y-91565001D01*
X145384182Y-91563901D01*
X145248944Y-91537000D01*
X145111056Y-91537000D01*
X144975818Y-91563901D01*
X144848426Y-91616668D01*
X144842515Y-91620618D01*
X144829340Y-91577186D01*
X144792197Y-91507697D01*
X144742211Y-91446789D01*
X144681303Y-91396803D01*
X144643319Y-91376500D01*
X144681303Y-91356197D01*
X144742211Y-91306211D01*
X144792197Y-91245303D01*
X144829340Y-91175814D01*
X144852212Y-91100414D01*
X144859935Y-91022000D01*
X144858000Y-90697000D01*
X144758000Y-90597000D01*
X143983000Y-90597000D01*
X143983000Y-91322000D01*
X144037500Y-91376500D01*
X143983000Y-91431000D01*
X143983000Y-92156000D01*
X144003000Y-92156000D01*
X144003000Y-92256000D01*
X143983000Y-92256000D01*
X143983000Y-92981000D01*
X144083000Y-93081000D01*
X144458000Y-93082935D01*
X144536414Y-93075212D01*
X144611814Y-93052340D01*
X144614428Y-93050943D01*
X144566404Y-93098967D01*
X141104999Y-93098967D01*
X141104999Y-88477106D01*
X141145053Y-88437053D01*
X141155691Y-88462736D01*
G36*
X154700000Y-91565000D02*
G01*
X154720000Y-91565000D01*
X154720000Y-91665000D01*
X154700000Y-91665000D01*
X154700000Y-92840000D01*
X154771447Y-92911447D01*
X154658906Y-93023989D01*
X154127966Y-93023989D01*
X154175406Y-92992291D01*
X154253990Y-92913707D01*
X154321586Y-92934212D01*
X154400000Y-92941935D01*
X154500000Y-92940000D01*
X154600000Y-92840000D01*
X154600000Y-91665000D01*
X154580000Y-91665000D01*
X154580000Y-91565000D01*
X154600000Y-91565000D01*
X154600000Y-91545000D01*
X154700000Y-91545000D01*
X154700000Y-91565000D01*
X154700000Y-91565000D01*
G37*
X154700000Y-91565000D02*
X154720000Y-91565000D01*
X154720000Y-91665000D01*
X154700000Y-91665000D01*
X154700000Y-92840000D01*
X154771447Y-92911447D01*
X154658906Y-93023989D01*
X154127966Y-93023989D01*
X154175406Y-92992291D01*
X154253990Y-92913707D01*
X154321586Y-92934212D01*
X154400000Y-92941935D01*
X154500000Y-92940000D01*
X154600000Y-92840000D01*
X154600000Y-91665000D01*
X154580000Y-91665000D01*
X154580000Y-91565000D01*
X154600000Y-91565000D01*
X154600000Y-91545000D01*
X154700000Y-91545000D01*
X154700000Y-91565000D01*
G36*
X160172065Y-87729500D02*
G01*
X160172065Y-88304500D01*
X160184352Y-88429248D01*
X160220739Y-88549201D01*
X160279829Y-88659751D01*
X160359351Y-88756649D01*
X160456249Y-88836171D01*
X160560698Y-88892000D01*
X160456249Y-88947829D01*
X160359351Y-89027351D01*
X160279829Y-89124249D01*
X160220739Y-89234799D01*
X160184352Y-89354752D01*
X160172065Y-89479500D01*
X160172065Y-90054500D01*
X160184352Y-90179248D01*
X160220739Y-90299201D01*
X160279829Y-90409751D01*
X160359351Y-90506649D01*
X160456249Y-90586171D01*
X160549001Y-90635748D01*
X160549001Y-90854630D01*
X159286897Y-89592528D01*
X159294212Y-89568414D01*
X159301935Y-89490000D01*
X159301935Y-87691990D01*
X160175760Y-87691990D01*
X160172065Y-87729500D01*
X160172065Y-87729500D01*
G37*
X160172065Y-87729500D02*
X160172065Y-88304500D01*
X160184352Y-88429248D01*
X160220739Y-88549201D01*
X160279829Y-88659751D01*
X160359351Y-88756649D01*
X160456249Y-88836171D01*
X160560698Y-88892000D01*
X160456249Y-88947829D01*
X160359351Y-89027351D01*
X160279829Y-89124249D01*
X160220739Y-89234799D01*
X160184352Y-89354752D01*
X160172065Y-89479500D01*
X160172065Y-90054500D01*
X160184352Y-90179248D01*
X160220739Y-90299201D01*
X160279829Y-90409751D01*
X160359351Y-90506649D01*
X160456249Y-90586171D01*
X160549001Y-90635748D01*
X160549001Y-90854630D01*
X159286897Y-89592528D01*
X159294212Y-89568414D01*
X159301935Y-89490000D01*
X159301935Y-87691990D01*
X160175760Y-87691990D01*
X160172065Y-87729500D01*
G36*
X161874829Y-88667751D02*
G01*
X161954351Y-88764649D01*
X162051249Y-88844171D01*
X162079356Y-88859195D01*
X162015186Y-88878660D01*
X161945697Y-88915803D01*
X161884789Y-88965789D01*
X161834803Y-89026697D01*
X161797660Y-89096186D01*
X161796980Y-89098428D01*
X161738649Y-89027351D01*
X161641751Y-88947829D01*
X161537302Y-88892000D01*
X161641751Y-88836171D01*
X161738649Y-88756649D01*
X161818171Y-88659751D01*
X161844362Y-88610751D01*
X161874829Y-88667751D01*
X161874829Y-88667751D01*
G37*
X161874829Y-88667751D02*
X161954351Y-88764649D01*
X162051249Y-88844171D01*
X162079356Y-88859195D01*
X162015186Y-88878660D01*
X161945697Y-88915803D01*
X161884789Y-88965789D01*
X161834803Y-89026697D01*
X161797660Y-89096186D01*
X161796980Y-89098428D01*
X161738649Y-89027351D01*
X161641751Y-88947829D01*
X161537302Y-88892000D01*
X161641751Y-88836171D01*
X161738649Y-88756649D01*
X161818171Y-88659751D01*
X161844362Y-88610751D01*
X161874829Y-88667751D01*
G36*
X147393422Y-85687065D02*
G01*
X147275000Y-85687065D01*
X147196586Y-85694788D01*
X147121186Y-85717660D01*
X147051697Y-85754803D01*
X146990789Y-85804789D01*
X146940803Y-85865697D01*
X146903660Y-85935186D01*
X146880788Y-86010586D01*
X146873065Y-86089000D01*
X146873065Y-86889000D01*
X146880788Y-86967414D01*
X146903660Y-87042814D01*
X146940803Y-87112303D01*
X146990789Y-87173211D01*
X147051697Y-87223197D01*
X147121186Y-87260340D01*
X147196586Y-87283212D01*
X147275000Y-87290935D01*
X147775000Y-87290935D01*
X147853414Y-87283212D01*
X147928814Y-87260340D01*
X147950000Y-87249016D01*
X147971186Y-87260340D01*
X148046586Y-87283212D01*
X148125000Y-87290935D01*
X148525000Y-87290935D01*
X148603414Y-87283212D01*
X148656528Y-87267100D01*
X148657002Y-87268660D01*
X148660826Y-87281267D01*
X148707255Y-87368129D01*
X148769737Y-87444264D01*
X148788819Y-87459924D01*
X148829013Y-87500119D01*
X148771186Y-87517660D01*
X148725000Y-87542347D01*
X148678814Y-87517660D01*
X148603414Y-87494788D01*
X148525000Y-87487065D01*
X148125000Y-87487065D01*
X148046586Y-87494788D01*
X147971186Y-87517660D01*
X147950000Y-87528984D01*
X147928814Y-87517660D01*
X147853414Y-87494788D01*
X147775000Y-87487065D01*
X147275000Y-87487065D01*
X147196586Y-87494788D01*
X147121186Y-87517660D01*
X147051697Y-87554803D01*
X146990789Y-87604789D01*
X146940803Y-87665697D01*
X146903660Y-87735186D01*
X146880788Y-87810586D01*
X146878049Y-87838395D01*
X146816575Y-87871254D01*
X146740440Y-87933736D01*
X146724779Y-87952819D01*
X146692177Y-87985422D01*
X146708675Y-87902480D01*
X146708675Y-87764592D01*
X146681774Y-87629354D01*
X146629007Y-87501962D01*
X146552401Y-87387312D01*
X146454899Y-87289810D01*
X146340249Y-87213204D01*
X146248001Y-87174994D01*
X146248001Y-85922002D01*
X146596013Y-85922002D01*
X146620573Y-85924421D01*
X146645133Y-85922002D01*
X146718590Y-85914767D01*
X146812840Y-85886177D01*
X146899702Y-85839748D01*
X146975837Y-85777266D01*
X146991502Y-85758178D01*
X147994705Y-84754976D01*
X148325510Y-84754976D01*
X147393422Y-85687065D01*
X147393422Y-85687065D01*
G37*
X147393422Y-85687065D02*
X147275000Y-85687065D01*
X147196586Y-85694788D01*
X147121186Y-85717660D01*
X147051697Y-85754803D01*
X146990789Y-85804789D01*
X146940803Y-85865697D01*
X146903660Y-85935186D01*
X146880788Y-86010586D01*
X146873065Y-86089000D01*
X146873065Y-86889000D01*
X146880788Y-86967414D01*
X146903660Y-87042814D01*
X146940803Y-87112303D01*
X146990789Y-87173211D01*
X147051697Y-87223197D01*
X147121186Y-87260340D01*
X147196586Y-87283212D01*
X147275000Y-87290935D01*
X147775000Y-87290935D01*
X147853414Y-87283212D01*
X147928814Y-87260340D01*
X147950000Y-87249016D01*
X147971186Y-87260340D01*
X148046586Y-87283212D01*
X148125000Y-87290935D01*
X148525000Y-87290935D01*
X148603414Y-87283212D01*
X148656528Y-87267100D01*
X148657002Y-87268660D01*
X148660826Y-87281267D01*
X148707255Y-87368129D01*
X148769737Y-87444264D01*
X148788819Y-87459924D01*
X148829013Y-87500119D01*
X148771186Y-87517660D01*
X148725000Y-87542347D01*
X148678814Y-87517660D01*
X148603414Y-87494788D01*
X148525000Y-87487065D01*
X148125000Y-87487065D01*
X148046586Y-87494788D01*
X147971186Y-87517660D01*
X147950000Y-87528984D01*
X147928814Y-87517660D01*
X147853414Y-87494788D01*
X147775000Y-87487065D01*
X147275000Y-87487065D01*
X147196586Y-87494788D01*
X147121186Y-87517660D01*
X147051697Y-87554803D01*
X146990789Y-87604789D01*
X146940803Y-87665697D01*
X146903660Y-87735186D01*
X146880788Y-87810586D01*
X146878049Y-87838395D01*
X146816575Y-87871254D01*
X146740440Y-87933736D01*
X146724779Y-87952819D01*
X146692177Y-87985422D01*
X146708675Y-87902480D01*
X146708675Y-87764592D01*
X146681774Y-87629354D01*
X146629007Y-87501962D01*
X146552401Y-87387312D01*
X146454899Y-87289810D01*
X146340249Y-87213204D01*
X146248001Y-87174994D01*
X146248001Y-85922002D01*
X146596013Y-85922002D01*
X146620573Y-85924421D01*
X146645133Y-85922002D01*
X146718590Y-85914767D01*
X146812840Y-85886177D01*
X146899702Y-85839748D01*
X146975837Y-85777266D01*
X146991502Y-85758178D01*
X147994705Y-84754976D01*
X148325510Y-84754976D01*
X147393422Y-85687065D01*
M02*
