G04 #@! TF.GenerationSoftware,KiCad,Pcbnew,(5.1.2)-1*
G04 #@! TF.CreationDate,2019-11-08T13:50:46+05:30*
G04 #@! TF.ProjectId,TALK,54414c4b-2e6b-4696-9361-645f70636258,rev?*
G04 #@! TF.SameCoordinates,Original*
G04 #@! TF.FileFunction,Legend,Bot*
G04 #@! TF.FilePolarity,Positive*
%FSLAX46Y46*%
G04 Gerber Fmt 4.6, Leading zero omitted, Abs format (unit mm)*
G04 Created by KiCad (PCBNEW (5.1.2)-1) date 2019-11-08 13:50:46*
%MOMM*%
%LPD*%
G04 APERTURE LIST*
%ADD10C,0.125000*%
%ADD11C,0.150000*%
%ADD12C,0.120000*%
G04 APERTURE END LIST*
D10*
X146102650Y-108522190D02*
X146055031Y-108522190D01*
X146010388Y-108546000D01*
X145989555Y-108569809D01*
X145971697Y-108617428D01*
X145959793Y-108712666D01*
X145974674Y-108831714D01*
X146010388Y-108926952D01*
X146040150Y-108974571D01*
X146066936Y-108998380D01*
X146117531Y-109022190D01*
X146165150Y-109022190D01*
X146209793Y-108998380D01*
X146230626Y-108974571D01*
X146248483Y-108926952D01*
X146260388Y-108831714D01*
X146245507Y-108712666D01*
X146209793Y-108617428D01*
X146180031Y-108569809D01*
X146153245Y-108546000D01*
X146102650Y-108522190D01*
X145769316Y-108522190D02*
X145459793Y-108522190D01*
X145650269Y-108712666D01*
X145578840Y-108712666D01*
X145534197Y-108736476D01*
X145513364Y-108760285D01*
X145495507Y-108807904D01*
X145510388Y-108926952D01*
X145540150Y-108974571D01*
X145566936Y-108998380D01*
X145617531Y-109022190D01*
X145760388Y-109022190D01*
X145805031Y-108998380D01*
X145825864Y-108974571D01*
X144885388Y-108498380D02*
X145394316Y-109141238D01*
X144522293Y-109022190D02*
X144808007Y-109022190D01*
X144665150Y-109022190D02*
X144602650Y-108522190D01*
X144659197Y-108593619D01*
X144712769Y-108641238D01*
X144763364Y-108665047D01*
X144046102Y-109022190D02*
X144331816Y-109022190D01*
X144188959Y-109022190D02*
X144126459Y-108522190D01*
X144183007Y-108593619D01*
X144236578Y-108641238D01*
X144287174Y-108665047D01*
X143409197Y-108498380D02*
X143918126Y-109141238D01*
X143046102Y-109022190D02*
X143331816Y-109022190D01*
X143188959Y-109022190D02*
X143126459Y-108522190D01*
X143183007Y-108593619D01*
X143236578Y-108641238D01*
X143287174Y-108665047D01*
X142808007Y-109022190D02*
X142712769Y-109022190D01*
X142662174Y-108998380D01*
X142635388Y-108974571D01*
X142578840Y-108903142D01*
X142543126Y-108807904D01*
X142519316Y-108617428D01*
X142537174Y-108569809D01*
X142558007Y-108546000D01*
X142602650Y-108522190D01*
X142697888Y-108522190D01*
X142748483Y-108546000D01*
X142775269Y-108569809D01*
X142805031Y-108617428D01*
X142819912Y-108736476D01*
X142802055Y-108784095D01*
X142781221Y-108807904D01*
X142736578Y-108831714D01*
X142641340Y-108831714D01*
X142590745Y-108807904D01*
X142563959Y-108784095D01*
X142534197Y-108736476D01*
D11*
X159870651Y-85004666D02*
X159394461Y-85004666D01*
X160001604Y-85290380D02*
X159543270Y-84290380D01*
X159334937Y-85290380D01*
X158489699Y-84623714D02*
X158573032Y-85290380D01*
X158918270Y-84623714D02*
X158983747Y-85147523D01*
X158948032Y-85242761D01*
X158858747Y-85290380D01*
X158715889Y-85290380D01*
X158614699Y-85242761D01*
X158561127Y-85195142D01*
X158156366Y-84623714D02*
X157775413Y-84623714D01*
X157971842Y-84290380D02*
X158078985Y-85147523D01*
X158043270Y-85242761D01*
X157953985Y-85290380D01*
X157858747Y-85290380D01*
X157525413Y-85290380D02*
X157400413Y-84290380D01*
X157096842Y-85290380D02*
X157031366Y-84766571D01*
X157067080Y-84671333D01*
X157156366Y-84623714D01*
X157299223Y-84623714D01*
X157400413Y-84671333D01*
X157453985Y-84718952D01*
X156477794Y-85290380D02*
X156567080Y-85242761D01*
X156608747Y-85195142D01*
X156644461Y-85099904D01*
X156608747Y-84814190D01*
X156549223Y-84718952D01*
X156495651Y-84671333D01*
X156394461Y-84623714D01*
X156251604Y-84623714D01*
X156162318Y-84671333D01*
X156120651Y-84718952D01*
X156084937Y-84814190D01*
X156120651Y-85099904D01*
X156180175Y-85195142D01*
X156233747Y-85242761D01*
X156334937Y-85290380D01*
X156477794Y-85290380D01*
X155715889Y-85290380D02*
X155632556Y-84623714D01*
X155656366Y-84814190D02*
X155596842Y-84718952D01*
X155543270Y-84671333D01*
X155442080Y-84623714D01*
X155346842Y-84623714D01*
X155084937Y-85195142D02*
X155043270Y-85242761D01*
X155096842Y-85290380D01*
X155138508Y-85242761D01*
X155084937Y-85195142D01*
X155096842Y-85290380D01*
X155019461Y-84671333D02*
X154977794Y-84718952D01*
X155031366Y-84766571D01*
X155073032Y-84718952D01*
X155019461Y-84671333D01*
X155031366Y-84766571D01*
X153858747Y-85290380D02*
X153733747Y-84290380D01*
X153352794Y-84290380D01*
X153263508Y-84338000D01*
X153221842Y-84385619D01*
X153186127Y-84480857D01*
X153203985Y-84623714D01*
X153263508Y-84718952D01*
X153317080Y-84766571D01*
X153418270Y-84814190D01*
X153799223Y-84814190D01*
X152858747Y-85290380D02*
X152775413Y-84623714D01*
X152799223Y-84814190D02*
X152739699Y-84718952D01*
X152686127Y-84671333D01*
X152584937Y-84623714D01*
X152489699Y-84623714D01*
X151811127Y-85290380D02*
X151745651Y-84766571D01*
X151781366Y-84671333D01*
X151870651Y-84623714D01*
X152061127Y-84623714D01*
X152162318Y-84671333D01*
X151805175Y-85242761D02*
X151906366Y-85290380D01*
X152144461Y-85290380D01*
X152233747Y-85242761D01*
X152269461Y-85147523D01*
X152257556Y-85052285D01*
X152198032Y-84957047D01*
X152096842Y-84909428D01*
X151858747Y-84909428D01*
X151757556Y-84861809D01*
X151334937Y-85290380D02*
X151209937Y-84290380D01*
X151192080Y-84909428D02*
X150953985Y-85290380D01*
X150870651Y-84623714D02*
X151299223Y-85004666D01*
X150525413Y-85290380D02*
X150400413Y-84290380D01*
X150096842Y-85290380D02*
X150031366Y-84766571D01*
X150067080Y-84671333D01*
X150156366Y-84623714D01*
X150299223Y-84623714D01*
X150400413Y-84671333D01*
X150453985Y-84718952D01*
X149192080Y-85290380D02*
X149126604Y-84766571D01*
X149162318Y-84671333D01*
X149251604Y-84623714D01*
X149442080Y-84623714D01*
X149543270Y-84671333D01*
X149186127Y-85242761D02*
X149287318Y-85290380D01*
X149525413Y-85290380D01*
X149614699Y-85242761D01*
X149650413Y-85147523D01*
X149638508Y-85052285D01*
X149578985Y-84957047D01*
X149477794Y-84909428D01*
X149239699Y-84909428D01*
X149138508Y-84861809D01*
X148715889Y-85290380D02*
X148632556Y-84623714D01*
X148656366Y-84814190D02*
X148596842Y-84718952D01*
X148543270Y-84671333D01*
X148442080Y-84623714D01*
X148346842Y-84623714D01*
X147334937Y-85290380D02*
X147209937Y-84290380D01*
X146763508Y-85290380D02*
X147120651Y-84718952D01*
X146638508Y-84290380D02*
X147281366Y-84861809D01*
X145823032Y-84623714D02*
X145906366Y-85290380D01*
X146251604Y-84623714D02*
X146317080Y-85147523D01*
X146281366Y-85242761D01*
X146192080Y-85290380D01*
X146049223Y-85290380D01*
X145948032Y-85242761D01*
X145894461Y-85195142D01*
X145430175Y-85290380D02*
X145346842Y-84623714D01*
X145358747Y-84718952D02*
X145305175Y-84671333D01*
X145203985Y-84623714D01*
X145061127Y-84623714D01*
X144971842Y-84671333D01*
X144936127Y-84766571D01*
X145001604Y-85290380D01*
X144936127Y-84766571D02*
X144876604Y-84671333D01*
X144775413Y-84623714D01*
X144632556Y-84623714D01*
X144543270Y-84671333D01*
X144507556Y-84766571D01*
X144573032Y-85290380D01*
X143668270Y-85290380D02*
X143602794Y-84766571D01*
X143638508Y-84671333D01*
X143727794Y-84623714D01*
X143918270Y-84623714D01*
X144019461Y-84671333D01*
X143662318Y-85242761D02*
X143763508Y-85290380D01*
X144001604Y-85290380D01*
X144090889Y-85242761D01*
X144126604Y-85147523D01*
X144114699Y-85052285D01*
X144055175Y-84957047D01*
X143953985Y-84909428D01*
X143715889Y-84909428D01*
X143614699Y-84861809D01*
X143192080Y-85290380D02*
X143108747Y-84623714D01*
X143132556Y-84814190D02*
X143073032Y-84718952D01*
X143019461Y-84671333D01*
X142918270Y-84623714D01*
X142823032Y-84623714D01*
D12*
X152002000Y-93475000D02*
X152891000Y-93475000D01*
X162416000Y-93729000D02*
X162416000Y-93475000D01*
X162416000Y-93475000D02*
X161527000Y-93475000D01*
X152002000Y-93475000D02*
X152002000Y-93729000D01*
X162416000Y-107699000D02*
X162416000Y-106175000D01*
X162416000Y-106175000D02*
X163051000Y-106175000D01*
X163051000Y-106175000D02*
X163051000Y-105286000D01*
X152002000Y-103127000D02*
X152002000Y-107699000D01*
D11*
X149222000Y-94565000D02*
X149222000Y-99215000D01*
X141122000Y-93490000D02*
X141122000Y-99215000D01*
X149222000Y-94565000D02*
X149197000Y-94565000D01*
X149222000Y-99215000D02*
X149197000Y-99215000D01*
X141172000Y-99215000D02*
X141197000Y-99215000D01*
D12*
X145017000Y-107778000D02*
X146017000Y-107778000D01*
X145017000Y-104418000D02*
X146017000Y-104418000D01*
X150081000Y-103688000D02*
X150081000Y-102608000D01*
X148061000Y-106308000D02*
X147761000Y-106308000D01*
X150381000Y-106308000D02*
X150081000Y-106308000D01*
X147761000Y-106308000D02*
X147761000Y-103688000D01*
X148061000Y-103688000D02*
X147761000Y-103688000D01*
X150381000Y-103688000D02*
X150081000Y-103688000D01*
X150381000Y-106308000D02*
X150381000Y-103688000D01*
X140953000Y-106308000D02*
X140953000Y-107388000D01*
X142973000Y-103688000D02*
X143273000Y-103688000D01*
X140653000Y-103688000D02*
X140953000Y-103688000D01*
X143273000Y-103688000D02*
X143273000Y-106308000D01*
X142973000Y-106308000D02*
X143273000Y-106308000D01*
X140653000Y-106308000D02*
X140953000Y-106308000D01*
X140653000Y-103688000D02*
X140653000Y-106308000D01*
X161538000Y-90541000D02*
X161538000Y-87921000D01*
X161538000Y-87921000D02*
X161238000Y-87921000D01*
X159218000Y-87921000D02*
X158918000Y-87921000D01*
X158918000Y-90541000D02*
X158918000Y-87921000D01*
X161538000Y-90541000D02*
X161238000Y-90541000D01*
X159218000Y-90541000D02*
X158918000Y-90541000D01*
X161238000Y-87921000D02*
X161238000Y-86841000D01*
X155540332Y-90541000D02*
X155540332Y-87921000D01*
X155540332Y-87921000D02*
X155240332Y-87921000D01*
X153220332Y-87921000D02*
X152920332Y-87921000D01*
X152920332Y-90541000D02*
X152920332Y-87921000D01*
X155540332Y-90541000D02*
X155240332Y-90541000D01*
X153220332Y-90541000D02*
X152920332Y-90541000D01*
X155240332Y-87921000D02*
X155240332Y-86841000D01*
X149242666Y-87921000D02*
X149242666Y-86841000D01*
X147222666Y-90541000D02*
X146922666Y-90541000D01*
X149542666Y-90541000D02*
X149242666Y-90541000D01*
X146922666Y-90541000D02*
X146922666Y-87921000D01*
X147222666Y-87921000D02*
X146922666Y-87921000D01*
X149542666Y-87921000D02*
X149242666Y-87921000D01*
X149542666Y-90541000D02*
X149542666Y-87921000D01*
X143545000Y-90541000D02*
X143545000Y-87921000D01*
X143545000Y-87921000D02*
X143245000Y-87921000D01*
X141225000Y-87921000D02*
X140925000Y-87921000D01*
X140925000Y-90541000D02*
X140925000Y-87921000D01*
X143545000Y-90541000D02*
X143245000Y-90541000D01*
X141225000Y-90541000D02*
X140925000Y-90541000D01*
X143245000Y-87921000D02*
X143245000Y-86841000D01*
D11*
X163646380Y-98936095D02*
X164455904Y-98936095D01*
X164551142Y-98983714D01*
X164598761Y-99031333D01*
X164646380Y-99126571D01*
X164646380Y-99317047D01*
X164598761Y-99412285D01*
X164551142Y-99459904D01*
X164455904Y-99507523D01*
X163646380Y-99507523D01*
X163646380Y-100459904D02*
X163646380Y-99983714D01*
X164122571Y-99936095D01*
X164074952Y-99983714D01*
X164027333Y-100078952D01*
X164027333Y-100317047D01*
X164074952Y-100412285D01*
X164122571Y-100459904D01*
X164217809Y-100507523D01*
X164455904Y-100507523D01*
X164551142Y-100459904D01*
X164598761Y-100412285D01*
X164646380Y-100317047D01*
X164646380Y-100078952D01*
X164598761Y-99983714D01*
X164551142Y-99936095D01*
X139406380Y-96111095D02*
X140215904Y-96111095D01*
X140311142Y-96158714D01*
X140358761Y-96206333D01*
X140406380Y-96301571D01*
X140406380Y-96492047D01*
X140358761Y-96587285D01*
X140311142Y-96634904D01*
X140215904Y-96682523D01*
X139406380Y-96682523D01*
X140406380Y-97682523D02*
X140406380Y-97111095D01*
X140406380Y-97396809D02*
X139406380Y-97396809D01*
X139549238Y-97301571D01*
X139644476Y-97206333D01*
X139692095Y-97111095D01*
X145938380Y-105391523D02*
X145462190Y-105058190D01*
X145938380Y-104820095D02*
X144938380Y-104820095D01*
X144938380Y-105201047D01*
X144986000Y-105296285D01*
X145033619Y-105343904D01*
X145128857Y-105391523D01*
X145271714Y-105391523D01*
X145366952Y-105343904D01*
X145414571Y-105296285D01*
X145462190Y-105201047D01*
X145462190Y-104820095D01*
X145938380Y-105820095D02*
X144938380Y-105820095D01*
X145938380Y-106391523D01*
X144938380Y-106391523D01*
X145033619Y-106820095D02*
X144986000Y-106867714D01*
X144938380Y-106962952D01*
X144938380Y-107201047D01*
X144986000Y-107296285D01*
X145033619Y-107343904D01*
X145128857Y-107391523D01*
X145224095Y-107391523D01*
X145366952Y-107343904D01*
X145938380Y-106772476D01*
X145938380Y-107391523D01*
X145890380Y-102189666D02*
X146604666Y-102189666D01*
X146747523Y-102142047D01*
X146842761Y-102046809D01*
X146890380Y-101903952D01*
X146890380Y-101808714D01*
X145890380Y-102570619D02*
X145890380Y-103237285D01*
X146890380Y-102808714D01*
X138665380Y-104664666D02*
X139379666Y-104664666D01*
X139522523Y-104617047D01*
X139617761Y-104521809D01*
X139665380Y-104378952D01*
X139665380Y-104283714D01*
X138665380Y-105569428D02*
X138665380Y-105378952D01*
X138713000Y-105283714D01*
X138760619Y-105236095D01*
X138903476Y-105140857D01*
X139093952Y-105093238D01*
X139474904Y-105093238D01*
X139570142Y-105140857D01*
X139617761Y-105188476D01*
X139665380Y-105283714D01*
X139665380Y-105474190D01*
X139617761Y-105569428D01*
X139570142Y-105617047D01*
X139474904Y-105664666D01*
X139236809Y-105664666D01*
X139141571Y-105617047D01*
X139093952Y-105569428D01*
X139046333Y-105474190D01*
X139046333Y-105283714D01*
X139093952Y-105188476D01*
X139141571Y-105140857D01*
X139236809Y-105093238D01*
X162430380Y-88897666D02*
X163144666Y-88897666D01*
X163287523Y-88850047D01*
X163382761Y-88754809D01*
X163430380Y-88611952D01*
X163430380Y-88516714D01*
X162430380Y-89850047D02*
X162430380Y-89373857D01*
X162906571Y-89326238D01*
X162858952Y-89373857D01*
X162811333Y-89469095D01*
X162811333Y-89707190D01*
X162858952Y-89802428D01*
X162906571Y-89850047D01*
X163001809Y-89897666D01*
X163239904Y-89897666D01*
X163335142Y-89850047D01*
X163382761Y-89802428D01*
X163430380Y-89707190D01*
X163430380Y-89469095D01*
X163382761Y-89373857D01*
X163335142Y-89326238D01*
X156432712Y-88897666D02*
X157146998Y-88897666D01*
X157289855Y-88850047D01*
X157385093Y-88754809D01*
X157432712Y-88611952D01*
X157432712Y-88516714D01*
X156766046Y-89802428D02*
X157432712Y-89802428D01*
X156385093Y-89564333D02*
X157099379Y-89326238D01*
X157099379Y-89945285D01*
X150435046Y-88897666D02*
X151149332Y-88897666D01*
X151292189Y-88850047D01*
X151387427Y-88754809D01*
X151435046Y-88611952D01*
X151435046Y-88516714D01*
X150435046Y-89278619D02*
X150435046Y-89897666D01*
X150815999Y-89564333D01*
X150815999Y-89707190D01*
X150863618Y-89802428D01*
X150911237Y-89850047D01*
X151006475Y-89897666D01*
X151244570Y-89897666D01*
X151339808Y-89850047D01*
X151387427Y-89802428D01*
X151435046Y-89707190D01*
X151435046Y-89421476D01*
X151387427Y-89326238D01*
X151339808Y-89278619D01*
X144437380Y-88897666D02*
X145151666Y-88897666D01*
X145294523Y-88850047D01*
X145389761Y-88754809D01*
X145437380Y-88611952D01*
X145437380Y-88516714D01*
X144532619Y-89326238D02*
X144485000Y-89373857D01*
X144437380Y-89469095D01*
X144437380Y-89707190D01*
X144485000Y-89802428D01*
X144532619Y-89850047D01*
X144627857Y-89897666D01*
X144723095Y-89897666D01*
X144865952Y-89850047D01*
X145437380Y-89278619D01*
X145437380Y-89897666D01*
M02*
