G04 #@! TF.GenerationSoftware,KiCad,Pcbnew,(5.1.2)-1*
G04 #@! TF.CreationDate,2019-11-08T13:50:46+05:30*
G04 #@! TF.ProjectId,TALK,54414c4b-2e6b-4696-9361-645f70636258,rev?*
G04 #@! TF.SameCoordinates,Original*
G04 #@! TF.FileFunction,Legend,Top*
G04 #@! TF.FilePolarity,Positive*
%FSLAX46Y46*%
G04 Gerber Fmt 4.6, Leading zero omitted, Abs format (unit mm)*
G04 Created by KiCad (PCBNEW (5.1.2)-1) date 2019-11-08 13:50:46*
%MOMM*%
%LPD*%
G04 APERTURE LIST*
%ADD10C,0.150000*%
%ADD11C,0.120000*%
G04 APERTURE END LIST*
D10*
X140802571Y-84323380D02*
X141374000Y-84323380D01*
X141088285Y-85323380D02*
X141088285Y-84323380D01*
X141707333Y-85228142D02*
X141754952Y-85275761D01*
X141707333Y-85323380D01*
X141659714Y-85275761D01*
X141707333Y-85228142D01*
X141707333Y-85323380D01*
X142135904Y-85037666D02*
X142612095Y-85037666D01*
X142040666Y-85323380D02*
X142374000Y-84323380D01*
X142707333Y-85323380D01*
X143040666Y-85228142D02*
X143088285Y-85275761D01*
X143040666Y-85323380D01*
X142993047Y-85275761D01*
X143040666Y-85228142D01*
X143040666Y-85323380D01*
X143993047Y-85323380D02*
X143516857Y-85323380D01*
X143516857Y-84323380D01*
X144326380Y-85228142D02*
X144374000Y-85275761D01*
X144326380Y-85323380D01*
X144278761Y-85275761D01*
X144326380Y-85228142D01*
X144326380Y-85323380D01*
X144802571Y-85323380D02*
X144802571Y-84323380D01*
X145374000Y-85323380D02*
X144945428Y-84751952D01*
X145374000Y-84323380D02*
X144802571Y-84894809D01*
X145802571Y-85228142D02*
X145850190Y-85275761D01*
X145802571Y-85323380D01*
X145754952Y-85275761D01*
X145802571Y-85228142D01*
X145802571Y-85323380D01*
X147040666Y-84942428D02*
X147802571Y-84942428D01*
X148897809Y-84323380D02*
X149231142Y-85323380D01*
X149564476Y-84323380D01*
X150421619Y-85323380D02*
X149850190Y-85323380D01*
X150135904Y-85323380D02*
X150135904Y-84323380D01*
X150040666Y-84466238D01*
X149945428Y-84561476D01*
X149850190Y-84609095D01*
X150850190Y-85228142D02*
X150897809Y-85275761D01*
X150850190Y-85323380D01*
X150802571Y-85275761D01*
X150850190Y-85228142D01*
X150850190Y-85323380D01*
X151516857Y-84323380D02*
X151612095Y-84323380D01*
X151707333Y-84371000D01*
X151754952Y-84418619D01*
X151802571Y-84513857D01*
X151850190Y-84704333D01*
X151850190Y-84942428D01*
X151802571Y-85132904D01*
X151754952Y-85228142D01*
X151707333Y-85275761D01*
X151612095Y-85323380D01*
X151516857Y-85323380D01*
X151421619Y-85275761D01*
X151374000Y-85228142D01*
X151326380Y-85132904D01*
X151278761Y-84942428D01*
X151278761Y-84704333D01*
X151326380Y-84513857D01*
X151374000Y-84418619D01*
X151421619Y-84371000D01*
X151516857Y-84323380D01*
X146214000Y-97319000D02*
X145689000Y-97319000D01*
X146214000Y-101619000D02*
X145689000Y-101619000D01*
X141914000Y-101619000D02*
X142439000Y-101619000D01*
X141914000Y-97319000D02*
X142439000Y-97319000D01*
X146214000Y-101619000D02*
X146214000Y-101094000D01*
X141914000Y-101619000D02*
X141914000Y-101094000D01*
X146214000Y-97319000D02*
X146214000Y-97844000D01*
D11*
X149833000Y-102260000D02*
X144433000Y-102260000D01*
X149833000Y-106760000D02*
X149833000Y-102260000D01*
D10*
X153652000Y-103114000D02*
X153652000Y-104539000D01*
X153427000Y-95864000D02*
X153427000Y-96189000D01*
X160677000Y-95864000D02*
X160677000Y-96189000D01*
X160677000Y-103114000D02*
X160677000Y-102789000D01*
X153427000Y-103114000D02*
X153427000Y-102789000D01*
X160677000Y-103114000D02*
X160352000Y-103114000D01*
X160677000Y-95864000D02*
X160352000Y-95864000D01*
X153427000Y-95864000D02*
X153752000Y-95864000D01*
X153427000Y-103114000D02*
X153652000Y-103114000D01*
D11*
X150405000Y-87889000D02*
X150405000Y-86889000D01*
X147045000Y-87889000D02*
X147045000Y-86889000D01*
X147045000Y-90394000D02*
X147045000Y-91394000D01*
X150405000Y-90394000D02*
X150405000Y-91394000D01*
X147045000Y-96069000D02*
X147045000Y-97069000D01*
X150405000Y-96069000D02*
X150405000Y-97069000D01*
X160539000Y-88720733D02*
X160539000Y-89063267D01*
X161559000Y-88720733D02*
X161559000Y-89063267D01*
X141847000Y-87796733D02*
X141847000Y-88139267D01*
X142867000Y-87796733D02*
X142867000Y-88139267D01*
X160723733Y-107291000D02*
X161066267Y-107291000D01*
X160723733Y-106271000D02*
X161066267Y-106271000D01*
X139999000Y-99210733D02*
X139999000Y-99553267D01*
X141019000Y-99210733D02*
X141019000Y-99553267D01*
X159160000Y-91400000D02*
X159160000Y-92480000D01*
X153140000Y-88780000D02*
X152840000Y-88780000D01*
X159460000Y-88780000D02*
X159160000Y-88780000D01*
X152840000Y-88780000D02*
X152840000Y-91400000D01*
X153140000Y-91400000D02*
X152840000Y-91400000D01*
X159460000Y-91400000D02*
X159160000Y-91400000D01*
X159460000Y-88780000D02*
X159460000Y-91400000D01*
X163379000Y-90560000D02*
X163379000Y-88100000D01*
X161909000Y-90560000D02*
X163379000Y-90560000D01*
X161909000Y-88100000D02*
X161909000Y-90560000D01*
X155763000Y-107492000D02*
X158223000Y-107492000D01*
X155763000Y-106022000D02*
X155763000Y-107492000D01*
X158223000Y-106022000D02*
X155763000Y-106022000D01*
X142814000Y-104423733D02*
X142814000Y-104766267D01*
X143834000Y-104423733D02*
X143834000Y-104766267D01*
X151333000Y-104765267D02*
X151333000Y-104422733D01*
X150313000Y-104765267D02*
X150313000Y-104422733D01*
X144488000Y-88139267D02*
X144488000Y-87796733D01*
X143468000Y-88139267D02*
X143468000Y-87796733D01*
X143229267Y-90037000D02*
X142886733Y-90037000D01*
X143229267Y-91057000D02*
X142886733Y-91057000D01*
X142041000Y-104768267D02*
X142041000Y-104425733D01*
X141021000Y-104768267D02*
X141021000Y-104425733D01*
X143229267Y-91696000D02*
X142886733Y-91696000D01*
X143229267Y-92716000D02*
X142886733Y-92716000D01*
D10*
X143302095Y-95546380D02*
X143302095Y-96355904D01*
X143349714Y-96451142D01*
X143397333Y-96498761D01*
X143492571Y-96546380D01*
X143683047Y-96546380D01*
X143778285Y-96498761D01*
X143825904Y-96451142D01*
X143873523Y-96355904D01*
X143873523Y-95546380D01*
X144302095Y-95641619D02*
X144349714Y-95594000D01*
X144444952Y-95546380D01*
X144683047Y-95546380D01*
X144778285Y-95594000D01*
X144825904Y-95641619D01*
X144873523Y-95736857D01*
X144873523Y-95832095D01*
X144825904Y-95974952D01*
X144254476Y-96546380D01*
X144873523Y-96546380D01*
X146656809Y-107536190D02*
X146656809Y-108012380D01*
X146323476Y-107012380D02*
X146656809Y-107536190D01*
X146990142Y-107012380D01*
X147847285Y-108012380D02*
X147275857Y-108012380D01*
X147561571Y-108012380D02*
X147561571Y-107012380D01*
X147466333Y-107155238D01*
X147371095Y-107250476D01*
X147275857Y-107298095D01*
X150454380Y-100250904D02*
X151263904Y-100250904D01*
X151359142Y-100203285D01*
X151406761Y-100155666D01*
X151454380Y-100060428D01*
X151454380Y-99869952D01*
X151406761Y-99774714D01*
X151359142Y-99727095D01*
X151263904Y-99679476D01*
X150454380Y-99679476D01*
X150454380Y-99298523D02*
X150454380Y-98679476D01*
X150835333Y-99012809D01*
X150835333Y-98869952D01*
X150882952Y-98774714D01*
X150930571Y-98727095D01*
X151025809Y-98679476D01*
X151263904Y-98679476D01*
X151359142Y-98727095D01*
X151406761Y-98774714D01*
X151454380Y-98869952D01*
X151454380Y-99155666D01*
X151406761Y-99250904D01*
X151359142Y-99298523D01*
X148013523Y-87839380D02*
X147680190Y-87363190D01*
X147442095Y-87839380D02*
X147442095Y-86839380D01*
X147823047Y-86839380D01*
X147918285Y-86887000D01*
X147965904Y-86934619D01*
X148013523Y-87029857D01*
X148013523Y-87172714D01*
X147965904Y-87267952D01*
X147918285Y-87315571D01*
X147823047Y-87363190D01*
X147442095Y-87363190D01*
X148442095Y-87839380D02*
X148442095Y-86839380D01*
X149013523Y-87839380D01*
X149013523Y-86839380D01*
X149918285Y-87172714D02*
X149918285Y-87839380D01*
X149680190Y-86791761D02*
X149442095Y-87506047D01*
X150061142Y-87506047D01*
X148147523Y-91361380D02*
X147814190Y-90885190D01*
X147576095Y-91361380D02*
X147576095Y-90361380D01*
X147957047Y-90361380D01*
X148052285Y-90409000D01*
X148099904Y-90456619D01*
X148147523Y-90551857D01*
X148147523Y-90694714D01*
X148099904Y-90789952D01*
X148052285Y-90837571D01*
X147957047Y-90885190D01*
X147576095Y-90885190D01*
X148576095Y-91361380D02*
X148576095Y-90361380D01*
X149147523Y-91361380D01*
X149147523Y-90361380D01*
X149528476Y-90361380D02*
X150147523Y-90361380D01*
X149814190Y-90742333D01*
X149957047Y-90742333D01*
X150052285Y-90789952D01*
X150099904Y-90837571D01*
X150147523Y-90932809D01*
X150147523Y-91170904D01*
X150099904Y-91266142D01*
X150052285Y-91313761D01*
X149957047Y-91361380D01*
X149671333Y-91361380D01*
X149576095Y-91313761D01*
X149528476Y-91266142D01*
X148067523Y-97041380D02*
X147734190Y-96565190D01*
X147496095Y-97041380D02*
X147496095Y-96041380D01*
X147877047Y-96041380D01*
X147972285Y-96089000D01*
X148019904Y-96136619D01*
X148067523Y-96231857D01*
X148067523Y-96374714D01*
X148019904Y-96469952D01*
X147972285Y-96517571D01*
X147877047Y-96565190D01*
X147496095Y-96565190D01*
X148496095Y-97041380D02*
X148496095Y-96041380D01*
X149067523Y-97041380D01*
X149067523Y-96041380D01*
X150067523Y-97041380D02*
X149496095Y-97041380D01*
X149781809Y-97041380D02*
X149781809Y-96041380D01*
X149686571Y-96184238D01*
X149591333Y-96279476D01*
X149496095Y-96327095D01*
X163131380Y-91784666D02*
X162655190Y-92118000D01*
X163131380Y-92356095D02*
X162131380Y-92356095D01*
X162131380Y-91975142D01*
X162179000Y-91879904D01*
X162226619Y-91832285D01*
X162321857Y-91784666D01*
X162464714Y-91784666D01*
X162559952Y-91832285D01*
X162607571Y-91879904D01*
X162655190Y-91975142D01*
X162655190Y-92356095D01*
X162559952Y-91213238D02*
X162512333Y-91308476D01*
X162464714Y-91356095D01*
X162369476Y-91403714D01*
X162321857Y-91403714D01*
X162226619Y-91356095D01*
X162179000Y-91308476D01*
X162131380Y-91213238D01*
X162131380Y-91022761D01*
X162179000Y-90927523D01*
X162226619Y-90879904D01*
X162321857Y-90832285D01*
X162369476Y-90832285D01*
X162464714Y-90879904D01*
X162512333Y-90927523D01*
X162559952Y-91022761D01*
X162559952Y-91213238D01*
X162607571Y-91308476D01*
X162655190Y-91356095D01*
X162750428Y-91403714D01*
X162940904Y-91403714D01*
X163036142Y-91356095D01*
X163083761Y-91308476D01*
X163131380Y-91213238D01*
X163131380Y-91022761D01*
X163083761Y-90927523D01*
X163036142Y-90879904D01*
X162940904Y-90832285D01*
X162750428Y-90832285D01*
X162655190Y-90879904D01*
X162607571Y-90927523D01*
X162559952Y-91022761D01*
X145968380Y-88065666D02*
X145492190Y-88399000D01*
X145968380Y-88637095D02*
X144968380Y-88637095D01*
X144968380Y-88256142D01*
X145016000Y-88160904D01*
X145063619Y-88113285D01*
X145158857Y-88065666D01*
X145301714Y-88065666D01*
X145396952Y-88113285D01*
X145444571Y-88160904D01*
X145492190Y-88256142D01*
X145492190Y-88637095D01*
X144968380Y-87732333D02*
X144968380Y-87065666D01*
X145968380Y-87494238D01*
X160386333Y-108827380D02*
X160053000Y-108351190D01*
X159814904Y-108827380D02*
X159814904Y-107827380D01*
X160195857Y-107827380D01*
X160291095Y-107875000D01*
X160338714Y-107922619D01*
X160386333Y-108017857D01*
X160386333Y-108160714D01*
X160338714Y-108255952D01*
X160291095Y-108303571D01*
X160195857Y-108351190D01*
X159814904Y-108351190D01*
X161243476Y-107827380D02*
X161053000Y-107827380D01*
X160957761Y-107875000D01*
X160910142Y-107922619D01*
X160814904Y-108065476D01*
X160767285Y-108255952D01*
X160767285Y-108636904D01*
X160814904Y-108732142D01*
X160862523Y-108779761D01*
X160957761Y-108827380D01*
X161148238Y-108827380D01*
X161243476Y-108779761D01*
X161291095Y-108732142D01*
X161338714Y-108636904D01*
X161338714Y-108398809D01*
X161291095Y-108303571D01*
X161243476Y-108255952D01*
X161148238Y-108208333D01*
X160957761Y-108208333D01*
X160862523Y-108255952D01*
X160814904Y-108303571D01*
X160767285Y-108398809D01*
X140928380Y-96793666D02*
X140452190Y-97127000D01*
X140928380Y-97365095D02*
X139928380Y-97365095D01*
X139928380Y-96984142D01*
X139976000Y-96888904D01*
X140023619Y-96841285D01*
X140118857Y-96793666D01*
X140261714Y-96793666D01*
X140356952Y-96841285D01*
X140404571Y-96888904D01*
X140452190Y-96984142D01*
X140452190Y-97365095D01*
X139928380Y-96460333D02*
X139928380Y-95841285D01*
X140309333Y-96174619D01*
X140309333Y-96031761D01*
X140356952Y-95936523D01*
X140404571Y-95888904D01*
X140499809Y-95841285D01*
X140737904Y-95841285D01*
X140833142Y-95888904D01*
X140880761Y-95936523D01*
X140928380Y-96031761D01*
X140928380Y-96317476D01*
X140880761Y-96412714D01*
X140833142Y-96460333D01*
X156860904Y-86943380D02*
X156860904Y-85943380D01*
X157241857Y-85943380D01*
X157337095Y-85991000D01*
X157384714Y-86038619D01*
X157432333Y-86133857D01*
X157432333Y-86276714D01*
X157384714Y-86371952D01*
X157337095Y-86419571D01*
X157241857Y-86467190D01*
X156860904Y-86467190D01*
X158384714Y-86943380D02*
X157813285Y-86943380D01*
X158099000Y-86943380D02*
X158099000Y-85943380D01*
X158003761Y-86086238D01*
X157908523Y-86181476D01*
X157813285Y-86229095D01*
X160916571Y-91546571D02*
X160964190Y-91403714D01*
X161011809Y-91356095D01*
X161107047Y-91308476D01*
X161249904Y-91308476D01*
X161345142Y-91356095D01*
X161392761Y-91403714D01*
X161440380Y-91498952D01*
X161440380Y-91879904D01*
X160440380Y-91879904D01*
X160440380Y-91546571D01*
X160488000Y-91451333D01*
X160535619Y-91403714D01*
X160630857Y-91356095D01*
X160726095Y-91356095D01*
X160821333Y-91403714D01*
X160868952Y-91451333D01*
X160916571Y-91546571D01*
X160916571Y-91879904D01*
X154605904Y-106945666D02*
X155082095Y-106945666D01*
X154510666Y-107231380D02*
X154844000Y-106231380D01*
X155177333Y-107231380D01*
X143717142Y-107484666D02*
X143764761Y-107532285D01*
X143812380Y-107675142D01*
X143812380Y-107770380D01*
X143764761Y-107913238D01*
X143669523Y-108008476D01*
X143574285Y-108056095D01*
X143383809Y-108103714D01*
X143240952Y-108103714D01*
X143050476Y-108056095D01*
X142955238Y-108008476D01*
X142860000Y-107913238D01*
X142812380Y-107770380D01*
X142812380Y-107675142D01*
X142860000Y-107532285D01*
X142907619Y-107484666D01*
X142812380Y-106627523D02*
X142812380Y-106818000D01*
X142860000Y-106913238D01*
X142907619Y-106960857D01*
X143050476Y-107056095D01*
X143240952Y-107103714D01*
X143621904Y-107103714D01*
X143717142Y-107056095D01*
X143764761Y-107008476D01*
X143812380Y-106913238D01*
X143812380Y-106722761D01*
X143764761Y-106627523D01*
X143717142Y-106579904D01*
X143621904Y-106532285D01*
X143383809Y-106532285D01*
X143288571Y-106579904D01*
X143240952Y-106627523D01*
X143193333Y-106722761D01*
X143193333Y-106913238D01*
X143240952Y-107008476D01*
X143288571Y-107056095D01*
X143383809Y-107103714D01*
X151389142Y-107609666D02*
X151436761Y-107657285D01*
X151484380Y-107800142D01*
X151484380Y-107895380D01*
X151436761Y-108038238D01*
X151341523Y-108133476D01*
X151246285Y-108181095D01*
X151055809Y-108228714D01*
X150912952Y-108228714D01*
X150722476Y-108181095D01*
X150627238Y-108133476D01*
X150532000Y-108038238D01*
X150484380Y-107895380D01*
X150484380Y-107800142D01*
X150532000Y-107657285D01*
X150579619Y-107609666D01*
X150484380Y-106704904D02*
X150484380Y-107181095D01*
X150960571Y-107228714D01*
X150912952Y-107181095D01*
X150865333Y-107085857D01*
X150865333Y-106847761D01*
X150912952Y-106752523D01*
X150960571Y-106704904D01*
X151055809Y-106657285D01*
X151293904Y-106657285D01*
X151389142Y-106704904D01*
X151436761Y-106752523D01*
X151484380Y-106847761D01*
X151484380Y-107085857D01*
X151436761Y-107181095D01*
X151389142Y-107228714D01*
X141265142Y-88177666D02*
X141312761Y-88225285D01*
X141360380Y-88368142D01*
X141360380Y-88463380D01*
X141312761Y-88606238D01*
X141217523Y-88701476D01*
X141122285Y-88749095D01*
X140931809Y-88796714D01*
X140788952Y-88796714D01*
X140598476Y-88749095D01*
X140503238Y-88701476D01*
X140408000Y-88606238D01*
X140360380Y-88463380D01*
X140360380Y-88368142D01*
X140408000Y-88225285D01*
X140455619Y-88177666D01*
X140693714Y-87320523D02*
X141360380Y-87320523D01*
X140312761Y-87558619D02*
X141027047Y-87796714D01*
X141027047Y-87177666D01*
X140066333Y-90933142D02*
X140018714Y-90980761D01*
X139875857Y-91028380D01*
X139780619Y-91028380D01*
X139637761Y-90980761D01*
X139542523Y-90885523D01*
X139494904Y-90790285D01*
X139447285Y-90599809D01*
X139447285Y-90456952D01*
X139494904Y-90266476D01*
X139542523Y-90171238D01*
X139637761Y-90076000D01*
X139780619Y-90028380D01*
X139875857Y-90028380D01*
X140018714Y-90076000D01*
X140066333Y-90123619D01*
X140399666Y-90028380D02*
X141018714Y-90028380D01*
X140685380Y-90409333D01*
X140828238Y-90409333D01*
X140923476Y-90456952D01*
X140971095Y-90504571D01*
X141018714Y-90599809D01*
X141018714Y-90837904D01*
X140971095Y-90933142D01*
X140923476Y-90980761D01*
X140828238Y-91028380D01*
X140542523Y-91028380D01*
X140447285Y-90980761D01*
X140399666Y-90933142D01*
X141900142Y-107546666D02*
X141947761Y-107594285D01*
X141995380Y-107737142D01*
X141995380Y-107832380D01*
X141947761Y-107975238D01*
X141852523Y-108070476D01*
X141757285Y-108118095D01*
X141566809Y-108165714D01*
X141423952Y-108165714D01*
X141233476Y-108118095D01*
X141138238Y-108070476D01*
X141043000Y-107975238D01*
X140995380Y-107832380D01*
X140995380Y-107737142D01*
X141043000Y-107594285D01*
X141090619Y-107546666D01*
X141090619Y-107165714D02*
X141043000Y-107118095D01*
X140995380Y-107022857D01*
X140995380Y-106784761D01*
X141043000Y-106689523D01*
X141090619Y-106641904D01*
X141185857Y-106594285D01*
X141281095Y-106594285D01*
X141423952Y-106641904D01*
X141995380Y-107213333D01*
X141995380Y-106594285D01*
X140133333Y-92716142D02*
X140085714Y-92763761D01*
X139942857Y-92811380D01*
X139847619Y-92811380D01*
X139704761Y-92763761D01*
X139609523Y-92668523D01*
X139561904Y-92573285D01*
X139514285Y-92382809D01*
X139514285Y-92239952D01*
X139561904Y-92049476D01*
X139609523Y-91954238D01*
X139704761Y-91859000D01*
X139847619Y-91811380D01*
X139942857Y-91811380D01*
X140085714Y-91859000D01*
X140133333Y-91906619D01*
X141085714Y-92811380D02*
X140514285Y-92811380D01*
X140800000Y-92811380D02*
X140800000Y-91811380D01*
X140704761Y-91954238D01*
X140609523Y-92049476D01*
X140514285Y-92097095D01*
M02*
