G04 #@! TF.GenerationSoftware,KiCad,Pcbnew,(5.1.2)-1*
G04 #@! TF.CreationDate,2019-11-08T13:50:46+05:30*
G04 #@! TF.ProjectId,TALK,54414c4b-2e6b-4696-9361-645f70636258,rev?*
G04 #@! TF.SameCoordinates,Original*
G04 #@! TF.FileFunction,Paste,Bot*
G04 #@! TF.FilePolarity,Positive*
%FSLAX46Y46*%
G04 Gerber Fmt 4.6, Leading zero omitted, Abs format (unit mm)*
G04 Created by KiCad (PCBNEW (5.1.2)-1) date 2019-11-08 13:50:46*
%MOMM*%
%LPD*%
G04 APERTURE LIST*
%ADD10R,1.200000X0.500000*%
%ADD11R,0.500000X1.200000*%
%ADD12R,0.400000X1.100000*%
%ADD13R,0.800000X0.500000*%
%ADD14R,0.800000X0.400000*%
%ADD15R,0.500000X1.850000*%
G04 APERTURE END LIST*
D10*
X152309000Y-102548000D03*
X152309000Y-101798000D03*
X152309000Y-101048000D03*
X152309000Y-100298000D03*
X152309000Y-99548000D03*
X152309000Y-98798000D03*
X152309000Y-98048000D03*
X152309000Y-97298000D03*
X152309000Y-96548000D03*
X152309000Y-95798000D03*
X152309000Y-95048000D03*
X152309000Y-94298000D03*
D11*
X153459000Y-93848000D03*
X154209000Y-93848000D03*
X154959000Y-93848000D03*
X155709000Y-93848000D03*
X156459000Y-93848000D03*
X157209000Y-93848000D03*
X157959000Y-93848000D03*
X158709000Y-93848000D03*
X159459000Y-93848000D03*
X160209000Y-93848000D03*
X160959000Y-93848000D03*
D10*
X162109000Y-94298000D03*
X162109000Y-95048000D03*
X162109000Y-95798000D03*
X162109000Y-96548000D03*
X162109000Y-97298000D03*
X162109000Y-98048000D03*
X162109000Y-98798000D03*
X162109000Y-99548000D03*
X162109000Y-100298000D03*
X162109000Y-101048000D03*
X162109000Y-101798000D03*
X162109000Y-102548000D03*
X162109000Y-103298000D03*
X162109000Y-104048000D03*
X162109000Y-104798000D03*
X162109000Y-105548000D03*
D12*
X141622000Y-99740000D03*
X142272000Y-99740000D03*
X142922000Y-99740000D03*
X143572000Y-99740000D03*
X144222000Y-99740000D03*
X144872000Y-99740000D03*
X145522000Y-99740000D03*
X146172000Y-99740000D03*
X146822000Y-99740000D03*
X147472000Y-99740000D03*
X148122000Y-99740000D03*
X148772000Y-99740000D03*
X148772000Y-94040000D03*
X148122000Y-94040000D03*
X147472000Y-94040000D03*
X146822000Y-94040000D03*
X146172000Y-94040000D03*
X145522000Y-94040000D03*
X144872000Y-94040000D03*
X144222000Y-94040000D03*
X143572000Y-94040000D03*
X142922000Y-94040000D03*
X142272000Y-94040000D03*
X141622000Y-94040000D03*
D13*
X146417000Y-104898000D03*
D14*
X146417000Y-106498000D03*
X146417000Y-105698000D03*
D13*
X146417000Y-107298000D03*
D14*
X144617000Y-105698000D03*
D13*
X144617000Y-104898000D03*
D14*
X144617000Y-106498000D03*
D13*
X144617000Y-107298000D03*
D15*
X148571000Y-106523000D03*
X148571000Y-103473000D03*
X149571000Y-106523000D03*
X149571000Y-103473000D03*
X142463000Y-103473000D03*
X142463000Y-106523000D03*
X141463000Y-103473000D03*
X141463000Y-106523000D03*
X160728000Y-87706000D03*
X160728000Y-90756000D03*
X159728000Y-87706000D03*
X159728000Y-90756000D03*
X154730332Y-87706000D03*
X154730332Y-90756000D03*
X153730332Y-87706000D03*
X153730332Y-90756000D03*
X147732666Y-90756000D03*
X147732666Y-87706000D03*
X148732666Y-90756000D03*
X148732666Y-87706000D03*
X142735000Y-87706000D03*
X142735000Y-90756000D03*
X141735000Y-87706000D03*
X141735000Y-90756000D03*
M02*
