M48
; DRILL file {KiCad (5.1.2)-1} date 11/08/19 13:51:44
; FORMAT={-:-/ absolute / metric / decimal}
; #@! TF.CreationDate,2019-11-08T13:51:44+05:30
; #@! TF.GenerationSoftware,Kicad,Pcbnew,(5.1.2)-1
; #@! TF.FileFunction,Plated,1,2,PTH
FMAT,2
METRIC
T1C0.400
%
G90
G05
T1
X139.01Y-91.81
X139.511Y-106.025
X139.627Y-103.987
X139.66Y-88.121
X139.841Y-102.049
X139.887Y-102.934
X140.532Y-104.972
X140.85Y-86.111
X140.896Y-97.071
X140.943Y-100.365
X141.266Y-92.999
X141.483Y-107.649
X141.776Y-88.131
X142.464Y-96.424
X142.796Y-103.376
X142.796Y-107.49
X143.264Y-96.415
X143.298Y-102.176
X143.625Y-98.886
X144.786Y-95.666
X145.166Y-87.897
X145.18Y-92.237
X145.765Y-108.09
X145.856Y-95.101
X146.009Y-87.834
X146.017Y-101.673
X146.066Y-92.665
X146.191Y-84.822
X146.464Y-86.022
X146.565Y-108.073
X146.614Y-97.232
X146.734Y-91.357
X147.095Y-98.618
X147.326Y-101.363
X147.346Y-88.768
X148.025Y-84.906
X148.381Y-105.443
X148.683Y-90.868
X149.032Y-101.96
X149.073Y-100.99
X149.13Y-86.175
X149.754Y-85.655
X150.053Y-91.579
X150.063Y-101.042
X150.272Y-99.274
X150.706Y-99.98
X150.726Y-101.889
X150.878Y-108.482
X150.896Y-98.773
X150.949Y-86.46
X150.991Y-105.446
X151.702Y-85.696
X151.894Y-93.336
X152.045Y-89.632
X152.645Y-90.532
X152.831Y-92.928
X153.097Y-88.053
X153.721Y-84.964
X153.726Y-106.836
X153.729Y-92.449
X154.478Y-85.223
X155.83Y-98.022
X155.881Y-104.836
X156.698Y-106.945
X156.889Y-86.774
X157.298Y-101.106
X157.948Y-97.261
X159.583Y-89.637
X160.456Y-86.174
X161.006Y-92.443
X161.241Y-86.021
X161.736Y-91.032
X162.336Y-86.6
X162.336Y-91.68
X163.346Y-86.762
T0
M30
