G04 #@! TF.GenerationSoftware,KiCad,Pcbnew,(5.1.2)-1*
G04 #@! TF.CreationDate,2019-11-08T13:50:46+05:30*
G04 #@! TF.ProjectId,TALK,54414c4b-2e6b-4696-9361-645f70636258,rev?*
G04 #@! TF.SameCoordinates,Original*
G04 #@! TF.FileFunction,Paste,Top*
G04 #@! TF.FilePolarity,Positive*
%FSLAX46Y46*%
G04 Gerber Fmt 4.6, Leading zero omitted, Abs format (unit mm)*
G04 Created by KiCad (PCBNEW (5.1.2)-1) date 2019-11-08 13:50:46*
%MOMM*%
%LPD*%
G04 APERTURE LIST*
%ADD10C,0.100000*%
%ADD11C,0.300000*%
%ADD12R,2.100000X1.800000*%
%ADD13R,1.600000X0.550000*%
%ADD14R,0.550000X1.600000*%
%ADD15R,0.500000X0.800000*%
%ADD16R,0.400000X0.800000*%
%ADD17C,0.950000*%
%ADD18R,0.500000X1.850000*%
G04 APERTURE END LIST*
D10*
G36*
X142896351Y-97094361D02*
G01*
X142903632Y-97095441D01*
X142910771Y-97097229D01*
X142917701Y-97099709D01*
X142924355Y-97102856D01*
X142930668Y-97106640D01*
X142936579Y-97111024D01*
X142942033Y-97115967D01*
X142946976Y-97121421D01*
X142951360Y-97127332D01*
X142955144Y-97133645D01*
X142958291Y-97140299D01*
X142960771Y-97147229D01*
X142962559Y-97154368D01*
X142963639Y-97161649D01*
X142964000Y-97169000D01*
X142964000Y-97869000D01*
X142963639Y-97876351D01*
X142962559Y-97883632D01*
X142960771Y-97890771D01*
X142958291Y-97897701D01*
X142955144Y-97904355D01*
X142951360Y-97910668D01*
X142946976Y-97916579D01*
X142942033Y-97922033D01*
X142936579Y-97926976D01*
X142930668Y-97931360D01*
X142924355Y-97935144D01*
X142917701Y-97938291D01*
X142910771Y-97940771D01*
X142903632Y-97942559D01*
X142896351Y-97943639D01*
X142889000Y-97944000D01*
X142739000Y-97944000D01*
X142731649Y-97943639D01*
X142724368Y-97942559D01*
X142717229Y-97940771D01*
X142710299Y-97938291D01*
X142703645Y-97935144D01*
X142697332Y-97931360D01*
X142691421Y-97926976D01*
X142685967Y-97922033D01*
X142681024Y-97916579D01*
X142676640Y-97910668D01*
X142672856Y-97904355D01*
X142669709Y-97897701D01*
X142667229Y-97890771D01*
X142665441Y-97883632D01*
X142664361Y-97876351D01*
X142664000Y-97869000D01*
X142664000Y-97169000D01*
X142664361Y-97161649D01*
X142665441Y-97154368D01*
X142667229Y-97147229D01*
X142669709Y-97140299D01*
X142672856Y-97133645D01*
X142676640Y-97127332D01*
X142681024Y-97121421D01*
X142685967Y-97115967D01*
X142691421Y-97111024D01*
X142697332Y-97106640D01*
X142703645Y-97102856D01*
X142710299Y-97099709D01*
X142717229Y-97097229D01*
X142724368Y-97095441D01*
X142731649Y-97094361D01*
X142739000Y-97094000D01*
X142889000Y-97094000D01*
X142896351Y-97094361D01*
X142896351Y-97094361D01*
G37*
D11*
X142814000Y-97519000D03*
D10*
G36*
X143396351Y-97094361D02*
G01*
X143403632Y-97095441D01*
X143410771Y-97097229D01*
X143417701Y-97099709D01*
X143424355Y-97102856D01*
X143430668Y-97106640D01*
X143436579Y-97111024D01*
X143442033Y-97115967D01*
X143446976Y-97121421D01*
X143451360Y-97127332D01*
X143455144Y-97133645D01*
X143458291Y-97140299D01*
X143460771Y-97147229D01*
X143462559Y-97154368D01*
X143463639Y-97161649D01*
X143464000Y-97169000D01*
X143464000Y-97869000D01*
X143463639Y-97876351D01*
X143462559Y-97883632D01*
X143460771Y-97890771D01*
X143458291Y-97897701D01*
X143455144Y-97904355D01*
X143451360Y-97910668D01*
X143446976Y-97916579D01*
X143442033Y-97922033D01*
X143436579Y-97926976D01*
X143430668Y-97931360D01*
X143424355Y-97935144D01*
X143417701Y-97938291D01*
X143410771Y-97940771D01*
X143403632Y-97942559D01*
X143396351Y-97943639D01*
X143389000Y-97944000D01*
X143239000Y-97944000D01*
X143231649Y-97943639D01*
X143224368Y-97942559D01*
X143217229Y-97940771D01*
X143210299Y-97938291D01*
X143203645Y-97935144D01*
X143197332Y-97931360D01*
X143191421Y-97926976D01*
X143185967Y-97922033D01*
X143181024Y-97916579D01*
X143176640Y-97910668D01*
X143172856Y-97904355D01*
X143169709Y-97897701D01*
X143167229Y-97890771D01*
X143165441Y-97883632D01*
X143164361Y-97876351D01*
X143164000Y-97869000D01*
X143164000Y-97169000D01*
X143164361Y-97161649D01*
X143165441Y-97154368D01*
X143167229Y-97147229D01*
X143169709Y-97140299D01*
X143172856Y-97133645D01*
X143176640Y-97127332D01*
X143181024Y-97121421D01*
X143185967Y-97115967D01*
X143191421Y-97111024D01*
X143197332Y-97106640D01*
X143203645Y-97102856D01*
X143210299Y-97099709D01*
X143217229Y-97097229D01*
X143224368Y-97095441D01*
X143231649Y-97094361D01*
X143239000Y-97094000D01*
X143389000Y-97094000D01*
X143396351Y-97094361D01*
X143396351Y-97094361D01*
G37*
D11*
X143314000Y-97519000D03*
D10*
G36*
X143896351Y-97094361D02*
G01*
X143903632Y-97095441D01*
X143910771Y-97097229D01*
X143917701Y-97099709D01*
X143924355Y-97102856D01*
X143930668Y-97106640D01*
X143936579Y-97111024D01*
X143942033Y-97115967D01*
X143946976Y-97121421D01*
X143951360Y-97127332D01*
X143955144Y-97133645D01*
X143958291Y-97140299D01*
X143960771Y-97147229D01*
X143962559Y-97154368D01*
X143963639Y-97161649D01*
X143964000Y-97169000D01*
X143964000Y-97869000D01*
X143963639Y-97876351D01*
X143962559Y-97883632D01*
X143960771Y-97890771D01*
X143958291Y-97897701D01*
X143955144Y-97904355D01*
X143951360Y-97910668D01*
X143946976Y-97916579D01*
X143942033Y-97922033D01*
X143936579Y-97926976D01*
X143930668Y-97931360D01*
X143924355Y-97935144D01*
X143917701Y-97938291D01*
X143910771Y-97940771D01*
X143903632Y-97942559D01*
X143896351Y-97943639D01*
X143889000Y-97944000D01*
X143739000Y-97944000D01*
X143731649Y-97943639D01*
X143724368Y-97942559D01*
X143717229Y-97940771D01*
X143710299Y-97938291D01*
X143703645Y-97935144D01*
X143697332Y-97931360D01*
X143691421Y-97926976D01*
X143685967Y-97922033D01*
X143681024Y-97916579D01*
X143676640Y-97910668D01*
X143672856Y-97904355D01*
X143669709Y-97897701D01*
X143667229Y-97890771D01*
X143665441Y-97883632D01*
X143664361Y-97876351D01*
X143664000Y-97869000D01*
X143664000Y-97169000D01*
X143664361Y-97161649D01*
X143665441Y-97154368D01*
X143667229Y-97147229D01*
X143669709Y-97140299D01*
X143672856Y-97133645D01*
X143676640Y-97127332D01*
X143681024Y-97121421D01*
X143685967Y-97115967D01*
X143691421Y-97111024D01*
X143697332Y-97106640D01*
X143703645Y-97102856D01*
X143710299Y-97099709D01*
X143717229Y-97097229D01*
X143724368Y-97095441D01*
X143731649Y-97094361D01*
X143739000Y-97094000D01*
X143889000Y-97094000D01*
X143896351Y-97094361D01*
X143896351Y-97094361D01*
G37*
D11*
X143814000Y-97519000D03*
D10*
G36*
X144396351Y-97094361D02*
G01*
X144403632Y-97095441D01*
X144410771Y-97097229D01*
X144417701Y-97099709D01*
X144424355Y-97102856D01*
X144430668Y-97106640D01*
X144436579Y-97111024D01*
X144442033Y-97115967D01*
X144446976Y-97121421D01*
X144451360Y-97127332D01*
X144455144Y-97133645D01*
X144458291Y-97140299D01*
X144460771Y-97147229D01*
X144462559Y-97154368D01*
X144463639Y-97161649D01*
X144464000Y-97169000D01*
X144464000Y-97869000D01*
X144463639Y-97876351D01*
X144462559Y-97883632D01*
X144460771Y-97890771D01*
X144458291Y-97897701D01*
X144455144Y-97904355D01*
X144451360Y-97910668D01*
X144446976Y-97916579D01*
X144442033Y-97922033D01*
X144436579Y-97926976D01*
X144430668Y-97931360D01*
X144424355Y-97935144D01*
X144417701Y-97938291D01*
X144410771Y-97940771D01*
X144403632Y-97942559D01*
X144396351Y-97943639D01*
X144389000Y-97944000D01*
X144239000Y-97944000D01*
X144231649Y-97943639D01*
X144224368Y-97942559D01*
X144217229Y-97940771D01*
X144210299Y-97938291D01*
X144203645Y-97935144D01*
X144197332Y-97931360D01*
X144191421Y-97926976D01*
X144185967Y-97922033D01*
X144181024Y-97916579D01*
X144176640Y-97910668D01*
X144172856Y-97904355D01*
X144169709Y-97897701D01*
X144167229Y-97890771D01*
X144165441Y-97883632D01*
X144164361Y-97876351D01*
X144164000Y-97869000D01*
X144164000Y-97169000D01*
X144164361Y-97161649D01*
X144165441Y-97154368D01*
X144167229Y-97147229D01*
X144169709Y-97140299D01*
X144172856Y-97133645D01*
X144176640Y-97127332D01*
X144181024Y-97121421D01*
X144185967Y-97115967D01*
X144191421Y-97111024D01*
X144197332Y-97106640D01*
X144203645Y-97102856D01*
X144210299Y-97099709D01*
X144217229Y-97097229D01*
X144224368Y-97095441D01*
X144231649Y-97094361D01*
X144239000Y-97094000D01*
X144389000Y-97094000D01*
X144396351Y-97094361D01*
X144396351Y-97094361D01*
G37*
D11*
X144314000Y-97519000D03*
D10*
G36*
X144896351Y-97094361D02*
G01*
X144903632Y-97095441D01*
X144910771Y-97097229D01*
X144917701Y-97099709D01*
X144924355Y-97102856D01*
X144930668Y-97106640D01*
X144936579Y-97111024D01*
X144942033Y-97115967D01*
X144946976Y-97121421D01*
X144951360Y-97127332D01*
X144955144Y-97133645D01*
X144958291Y-97140299D01*
X144960771Y-97147229D01*
X144962559Y-97154368D01*
X144963639Y-97161649D01*
X144964000Y-97169000D01*
X144964000Y-97869000D01*
X144963639Y-97876351D01*
X144962559Y-97883632D01*
X144960771Y-97890771D01*
X144958291Y-97897701D01*
X144955144Y-97904355D01*
X144951360Y-97910668D01*
X144946976Y-97916579D01*
X144942033Y-97922033D01*
X144936579Y-97926976D01*
X144930668Y-97931360D01*
X144924355Y-97935144D01*
X144917701Y-97938291D01*
X144910771Y-97940771D01*
X144903632Y-97942559D01*
X144896351Y-97943639D01*
X144889000Y-97944000D01*
X144739000Y-97944000D01*
X144731649Y-97943639D01*
X144724368Y-97942559D01*
X144717229Y-97940771D01*
X144710299Y-97938291D01*
X144703645Y-97935144D01*
X144697332Y-97931360D01*
X144691421Y-97926976D01*
X144685967Y-97922033D01*
X144681024Y-97916579D01*
X144676640Y-97910668D01*
X144672856Y-97904355D01*
X144669709Y-97897701D01*
X144667229Y-97890771D01*
X144665441Y-97883632D01*
X144664361Y-97876351D01*
X144664000Y-97869000D01*
X144664000Y-97169000D01*
X144664361Y-97161649D01*
X144665441Y-97154368D01*
X144667229Y-97147229D01*
X144669709Y-97140299D01*
X144672856Y-97133645D01*
X144676640Y-97127332D01*
X144681024Y-97121421D01*
X144685967Y-97115967D01*
X144691421Y-97111024D01*
X144697332Y-97106640D01*
X144703645Y-97102856D01*
X144710299Y-97099709D01*
X144717229Y-97097229D01*
X144724368Y-97095441D01*
X144731649Y-97094361D01*
X144739000Y-97094000D01*
X144889000Y-97094000D01*
X144896351Y-97094361D01*
X144896351Y-97094361D01*
G37*
D11*
X144814000Y-97519000D03*
D10*
G36*
X145396351Y-97094361D02*
G01*
X145403632Y-97095441D01*
X145410771Y-97097229D01*
X145417701Y-97099709D01*
X145424355Y-97102856D01*
X145430668Y-97106640D01*
X145436579Y-97111024D01*
X145442033Y-97115967D01*
X145446976Y-97121421D01*
X145451360Y-97127332D01*
X145455144Y-97133645D01*
X145458291Y-97140299D01*
X145460771Y-97147229D01*
X145462559Y-97154368D01*
X145463639Y-97161649D01*
X145464000Y-97169000D01*
X145464000Y-97869000D01*
X145463639Y-97876351D01*
X145462559Y-97883632D01*
X145460771Y-97890771D01*
X145458291Y-97897701D01*
X145455144Y-97904355D01*
X145451360Y-97910668D01*
X145446976Y-97916579D01*
X145442033Y-97922033D01*
X145436579Y-97926976D01*
X145430668Y-97931360D01*
X145424355Y-97935144D01*
X145417701Y-97938291D01*
X145410771Y-97940771D01*
X145403632Y-97942559D01*
X145396351Y-97943639D01*
X145389000Y-97944000D01*
X145239000Y-97944000D01*
X145231649Y-97943639D01*
X145224368Y-97942559D01*
X145217229Y-97940771D01*
X145210299Y-97938291D01*
X145203645Y-97935144D01*
X145197332Y-97931360D01*
X145191421Y-97926976D01*
X145185967Y-97922033D01*
X145181024Y-97916579D01*
X145176640Y-97910668D01*
X145172856Y-97904355D01*
X145169709Y-97897701D01*
X145167229Y-97890771D01*
X145165441Y-97883632D01*
X145164361Y-97876351D01*
X145164000Y-97869000D01*
X145164000Y-97169000D01*
X145164361Y-97161649D01*
X145165441Y-97154368D01*
X145167229Y-97147229D01*
X145169709Y-97140299D01*
X145172856Y-97133645D01*
X145176640Y-97127332D01*
X145181024Y-97121421D01*
X145185967Y-97115967D01*
X145191421Y-97111024D01*
X145197332Y-97106640D01*
X145203645Y-97102856D01*
X145210299Y-97099709D01*
X145217229Y-97097229D01*
X145224368Y-97095441D01*
X145231649Y-97094361D01*
X145239000Y-97094000D01*
X145389000Y-97094000D01*
X145396351Y-97094361D01*
X145396351Y-97094361D01*
G37*
D11*
X145314000Y-97519000D03*
D10*
G36*
X146371351Y-98069361D02*
G01*
X146378632Y-98070441D01*
X146385771Y-98072229D01*
X146392701Y-98074709D01*
X146399355Y-98077856D01*
X146405668Y-98081640D01*
X146411579Y-98086024D01*
X146417033Y-98090967D01*
X146421976Y-98096421D01*
X146426360Y-98102332D01*
X146430144Y-98108645D01*
X146433291Y-98115299D01*
X146435771Y-98122229D01*
X146437559Y-98129368D01*
X146438639Y-98136649D01*
X146439000Y-98144000D01*
X146439000Y-98294000D01*
X146438639Y-98301351D01*
X146437559Y-98308632D01*
X146435771Y-98315771D01*
X146433291Y-98322701D01*
X146430144Y-98329355D01*
X146426360Y-98335668D01*
X146421976Y-98341579D01*
X146417033Y-98347033D01*
X146411579Y-98351976D01*
X146405668Y-98356360D01*
X146399355Y-98360144D01*
X146392701Y-98363291D01*
X146385771Y-98365771D01*
X146378632Y-98367559D01*
X146371351Y-98368639D01*
X146364000Y-98369000D01*
X145664000Y-98369000D01*
X145656649Y-98368639D01*
X145649368Y-98367559D01*
X145642229Y-98365771D01*
X145635299Y-98363291D01*
X145628645Y-98360144D01*
X145622332Y-98356360D01*
X145616421Y-98351976D01*
X145610967Y-98347033D01*
X145606024Y-98341579D01*
X145601640Y-98335668D01*
X145597856Y-98329355D01*
X145594709Y-98322701D01*
X145592229Y-98315771D01*
X145590441Y-98308632D01*
X145589361Y-98301351D01*
X145589000Y-98294000D01*
X145589000Y-98144000D01*
X145589361Y-98136649D01*
X145590441Y-98129368D01*
X145592229Y-98122229D01*
X145594709Y-98115299D01*
X145597856Y-98108645D01*
X145601640Y-98102332D01*
X145606024Y-98096421D01*
X145610967Y-98090967D01*
X145616421Y-98086024D01*
X145622332Y-98081640D01*
X145628645Y-98077856D01*
X145635299Y-98074709D01*
X145642229Y-98072229D01*
X145649368Y-98070441D01*
X145656649Y-98069361D01*
X145664000Y-98069000D01*
X146364000Y-98069000D01*
X146371351Y-98069361D01*
X146371351Y-98069361D01*
G37*
D11*
X146014000Y-98219000D03*
D10*
G36*
X146371351Y-98569361D02*
G01*
X146378632Y-98570441D01*
X146385771Y-98572229D01*
X146392701Y-98574709D01*
X146399355Y-98577856D01*
X146405668Y-98581640D01*
X146411579Y-98586024D01*
X146417033Y-98590967D01*
X146421976Y-98596421D01*
X146426360Y-98602332D01*
X146430144Y-98608645D01*
X146433291Y-98615299D01*
X146435771Y-98622229D01*
X146437559Y-98629368D01*
X146438639Y-98636649D01*
X146439000Y-98644000D01*
X146439000Y-98794000D01*
X146438639Y-98801351D01*
X146437559Y-98808632D01*
X146435771Y-98815771D01*
X146433291Y-98822701D01*
X146430144Y-98829355D01*
X146426360Y-98835668D01*
X146421976Y-98841579D01*
X146417033Y-98847033D01*
X146411579Y-98851976D01*
X146405668Y-98856360D01*
X146399355Y-98860144D01*
X146392701Y-98863291D01*
X146385771Y-98865771D01*
X146378632Y-98867559D01*
X146371351Y-98868639D01*
X146364000Y-98869000D01*
X145664000Y-98869000D01*
X145656649Y-98868639D01*
X145649368Y-98867559D01*
X145642229Y-98865771D01*
X145635299Y-98863291D01*
X145628645Y-98860144D01*
X145622332Y-98856360D01*
X145616421Y-98851976D01*
X145610967Y-98847033D01*
X145606024Y-98841579D01*
X145601640Y-98835668D01*
X145597856Y-98829355D01*
X145594709Y-98822701D01*
X145592229Y-98815771D01*
X145590441Y-98808632D01*
X145589361Y-98801351D01*
X145589000Y-98794000D01*
X145589000Y-98644000D01*
X145589361Y-98636649D01*
X145590441Y-98629368D01*
X145592229Y-98622229D01*
X145594709Y-98615299D01*
X145597856Y-98608645D01*
X145601640Y-98602332D01*
X145606024Y-98596421D01*
X145610967Y-98590967D01*
X145616421Y-98586024D01*
X145622332Y-98581640D01*
X145628645Y-98577856D01*
X145635299Y-98574709D01*
X145642229Y-98572229D01*
X145649368Y-98570441D01*
X145656649Y-98569361D01*
X145664000Y-98569000D01*
X146364000Y-98569000D01*
X146371351Y-98569361D01*
X146371351Y-98569361D01*
G37*
D11*
X146014000Y-98719000D03*
D10*
G36*
X146371351Y-99069361D02*
G01*
X146378632Y-99070441D01*
X146385771Y-99072229D01*
X146392701Y-99074709D01*
X146399355Y-99077856D01*
X146405668Y-99081640D01*
X146411579Y-99086024D01*
X146417033Y-99090967D01*
X146421976Y-99096421D01*
X146426360Y-99102332D01*
X146430144Y-99108645D01*
X146433291Y-99115299D01*
X146435771Y-99122229D01*
X146437559Y-99129368D01*
X146438639Y-99136649D01*
X146439000Y-99144000D01*
X146439000Y-99294000D01*
X146438639Y-99301351D01*
X146437559Y-99308632D01*
X146435771Y-99315771D01*
X146433291Y-99322701D01*
X146430144Y-99329355D01*
X146426360Y-99335668D01*
X146421976Y-99341579D01*
X146417033Y-99347033D01*
X146411579Y-99351976D01*
X146405668Y-99356360D01*
X146399355Y-99360144D01*
X146392701Y-99363291D01*
X146385771Y-99365771D01*
X146378632Y-99367559D01*
X146371351Y-99368639D01*
X146364000Y-99369000D01*
X145664000Y-99369000D01*
X145656649Y-99368639D01*
X145649368Y-99367559D01*
X145642229Y-99365771D01*
X145635299Y-99363291D01*
X145628645Y-99360144D01*
X145622332Y-99356360D01*
X145616421Y-99351976D01*
X145610967Y-99347033D01*
X145606024Y-99341579D01*
X145601640Y-99335668D01*
X145597856Y-99329355D01*
X145594709Y-99322701D01*
X145592229Y-99315771D01*
X145590441Y-99308632D01*
X145589361Y-99301351D01*
X145589000Y-99294000D01*
X145589000Y-99144000D01*
X145589361Y-99136649D01*
X145590441Y-99129368D01*
X145592229Y-99122229D01*
X145594709Y-99115299D01*
X145597856Y-99108645D01*
X145601640Y-99102332D01*
X145606024Y-99096421D01*
X145610967Y-99090967D01*
X145616421Y-99086024D01*
X145622332Y-99081640D01*
X145628645Y-99077856D01*
X145635299Y-99074709D01*
X145642229Y-99072229D01*
X145649368Y-99070441D01*
X145656649Y-99069361D01*
X145664000Y-99069000D01*
X146364000Y-99069000D01*
X146371351Y-99069361D01*
X146371351Y-99069361D01*
G37*
D11*
X146014000Y-99219000D03*
D10*
G36*
X146371351Y-99569361D02*
G01*
X146378632Y-99570441D01*
X146385771Y-99572229D01*
X146392701Y-99574709D01*
X146399355Y-99577856D01*
X146405668Y-99581640D01*
X146411579Y-99586024D01*
X146417033Y-99590967D01*
X146421976Y-99596421D01*
X146426360Y-99602332D01*
X146430144Y-99608645D01*
X146433291Y-99615299D01*
X146435771Y-99622229D01*
X146437559Y-99629368D01*
X146438639Y-99636649D01*
X146439000Y-99644000D01*
X146439000Y-99794000D01*
X146438639Y-99801351D01*
X146437559Y-99808632D01*
X146435771Y-99815771D01*
X146433291Y-99822701D01*
X146430144Y-99829355D01*
X146426360Y-99835668D01*
X146421976Y-99841579D01*
X146417033Y-99847033D01*
X146411579Y-99851976D01*
X146405668Y-99856360D01*
X146399355Y-99860144D01*
X146392701Y-99863291D01*
X146385771Y-99865771D01*
X146378632Y-99867559D01*
X146371351Y-99868639D01*
X146364000Y-99869000D01*
X145664000Y-99869000D01*
X145656649Y-99868639D01*
X145649368Y-99867559D01*
X145642229Y-99865771D01*
X145635299Y-99863291D01*
X145628645Y-99860144D01*
X145622332Y-99856360D01*
X145616421Y-99851976D01*
X145610967Y-99847033D01*
X145606024Y-99841579D01*
X145601640Y-99835668D01*
X145597856Y-99829355D01*
X145594709Y-99822701D01*
X145592229Y-99815771D01*
X145590441Y-99808632D01*
X145589361Y-99801351D01*
X145589000Y-99794000D01*
X145589000Y-99644000D01*
X145589361Y-99636649D01*
X145590441Y-99629368D01*
X145592229Y-99622229D01*
X145594709Y-99615299D01*
X145597856Y-99608645D01*
X145601640Y-99602332D01*
X145606024Y-99596421D01*
X145610967Y-99590967D01*
X145616421Y-99586024D01*
X145622332Y-99581640D01*
X145628645Y-99577856D01*
X145635299Y-99574709D01*
X145642229Y-99572229D01*
X145649368Y-99570441D01*
X145656649Y-99569361D01*
X145664000Y-99569000D01*
X146364000Y-99569000D01*
X146371351Y-99569361D01*
X146371351Y-99569361D01*
G37*
D11*
X146014000Y-99719000D03*
D10*
G36*
X146371351Y-100069361D02*
G01*
X146378632Y-100070441D01*
X146385771Y-100072229D01*
X146392701Y-100074709D01*
X146399355Y-100077856D01*
X146405668Y-100081640D01*
X146411579Y-100086024D01*
X146417033Y-100090967D01*
X146421976Y-100096421D01*
X146426360Y-100102332D01*
X146430144Y-100108645D01*
X146433291Y-100115299D01*
X146435771Y-100122229D01*
X146437559Y-100129368D01*
X146438639Y-100136649D01*
X146439000Y-100144000D01*
X146439000Y-100294000D01*
X146438639Y-100301351D01*
X146437559Y-100308632D01*
X146435771Y-100315771D01*
X146433291Y-100322701D01*
X146430144Y-100329355D01*
X146426360Y-100335668D01*
X146421976Y-100341579D01*
X146417033Y-100347033D01*
X146411579Y-100351976D01*
X146405668Y-100356360D01*
X146399355Y-100360144D01*
X146392701Y-100363291D01*
X146385771Y-100365771D01*
X146378632Y-100367559D01*
X146371351Y-100368639D01*
X146364000Y-100369000D01*
X145664000Y-100369000D01*
X145656649Y-100368639D01*
X145649368Y-100367559D01*
X145642229Y-100365771D01*
X145635299Y-100363291D01*
X145628645Y-100360144D01*
X145622332Y-100356360D01*
X145616421Y-100351976D01*
X145610967Y-100347033D01*
X145606024Y-100341579D01*
X145601640Y-100335668D01*
X145597856Y-100329355D01*
X145594709Y-100322701D01*
X145592229Y-100315771D01*
X145590441Y-100308632D01*
X145589361Y-100301351D01*
X145589000Y-100294000D01*
X145589000Y-100144000D01*
X145589361Y-100136649D01*
X145590441Y-100129368D01*
X145592229Y-100122229D01*
X145594709Y-100115299D01*
X145597856Y-100108645D01*
X145601640Y-100102332D01*
X145606024Y-100096421D01*
X145610967Y-100090967D01*
X145616421Y-100086024D01*
X145622332Y-100081640D01*
X145628645Y-100077856D01*
X145635299Y-100074709D01*
X145642229Y-100072229D01*
X145649368Y-100070441D01*
X145656649Y-100069361D01*
X145664000Y-100069000D01*
X146364000Y-100069000D01*
X146371351Y-100069361D01*
X146371351Y-100069361D01*
G37*
D11*
X146014000Y-100219000D03*
D10*
G36*
X146371351Y-100569361D02*
G01*
X146378632Y-100570441D01*
X146385771Y-100572229D01*
X146392701Y-100574709D01*
X146399355Y-100577856D01*
X146405668Y-100581640D01*
X146411579Y-100586024D01*
X146417033Y-100590967D01*
X146421976Y-100596421D01*
X146426360Y-100602332D01*
X146430144Y-100608645D01*
X146433291Y-100615299D01*
X146435771Y-100622229D01*
X146437559Y-100629368D01*
X146438639Y-100636649D01*
X146439000Y-100644000D01*
X146439000Y-100794000D01*
X146438639Y-100801351D01*
X146437559Y-100808632D01*
X146435771Y-100815771D01*
X146433291Y-100822701D01*
X146430144Y-100829355D01*
X146426360Y-100835668D01*
X146421976Y-100841579D01*
X146417033Y-100847033D01*
X146411579Y-100851976D01*
X146405668Y-100856360D01*
X146399355Y-100860144D01*
X146392701Y-100863291D01*
X146385771Y-100865771D01*
X146378632Y-100867559D01*
X146371351Y-100868639D01*
X146364000Y-100869000D01*
X145664000Y-100869000D01*
X145656649Y-100868639D01*
X145649368Y-100867559D01*
X145642229Y-100865771D01*
X145635299Y-100863291D01*
X145628645Y-100860144D01*
X145622332Y-100856360D01*
X145616421Y-100851976D01*
X145610967Y-100847033D01*
X145606024Y-100841579D01*
X145601640Y-100835668D01*
X145597856Y-100829355D01*
X145594709Y-100822701D01*
X145592229Y-100815771D01*
X145590441Y-100808632D01*
X145589361Y-100801351D01*
X145589000Y-100794000D01*
X145589000Y-100644000D01*
X145589361Y-100636649D01*
X145590441Y-100629368D01*
X145592229Y-100622229D01*
X145594709Y-100615299D01*
X145597856Y-100608645D01*
X145601640Y-100602332D01*
X145606024Y-100596421D01*
X145610967Y-100590967D01*
X145616421Y-100586024D01*
X145622332Y-100581640D01*
X145628645Y-100577856D01*
X145635299Y-100574709D01*
X145642229Y-100572229D01*
X145649368Y-100570441D01*
X145656649Y-100569361D01*
X145664000Y-100569000D01*
X146364000Y-100569000D01*
X146371351Y-100569361D01*
X146371351Y-100569361D01*
G37*
D11*
X146014000Y-100719000D03*
D10*
G36*
X145396351Y-100994361D02*
G01*
X145403632Y-100995441D01*
X145410771Y-100997229D01*
X145417701Y-100999709D01*
X145424355Y-101002856D01*
X145430668Y-101006640D01*
X145436579Y-101011024D01*
X145442033Y-101015967D01*
X145446976Y-101021421D01*
X145451360Y-101027332D01*
X145455144Y-101033645D01*
X145458291Y-101040299D01*
X145460771Y-101047229D01*
X145462559Y-101054368D01*
X145463639Y-101061649D01*
X145464000Y-101069000D01*
X145464000Y-101769000D01*
X145463639Y-101776351D01*
X145462559Y-101783632D01*
X145460771Y-101790771D01*
X145458291Y-101797701D01*
X145455144Y-101804355D01*
X145451360Y-101810668D01*
X145446976Y-101816579D01*
X145442033Y-101822033D01*
X145436579Y-101826976D01*
X145430668Y-101831360D01*
X145424355Y-101835144D01*
X145417701Y-101838291D01*
X145410771Y-101840771D01*
X145403632Y-101842559D01*
X145396351Y-101843639D01*
X145389000Y-101844000D01*
X145239000Y-101844000D01*
X145231649Y-101843639D01*
X145224368Y-101842559D01*
X145217229Y-101840771D01*
X145210299Y-101838291D01*
X145203645Y-101835144D01*
X145197332Y-101831360D01*
X145191421Y-101826976D01*
X145185967Y-101822033D01*
X145181024Y-101816579D01*
X145176640Y-101810668D01*
X145172856Y-101804355D01*
X145169709Y-101797701D01*
X145167229Y-101790771D01*
X145165441Y-101783632D01*
X145164361Y-101776351D01*
X145164000Y-101769000D01*
X145164000Y-101069000D01*
X145164361Y-101061649D01*
X145165441Y-101054368D01*
X145167229Y-101047229D01*
X145169709Y-101040299D01*
X145172856Y-101033645D01*
X145176640Y-101027332D01*
X145181024Y-101021421D01*
X145185967Y-101015967D01*
X145191421Y-101011024D01*
X145197332Y-101006640D01*
X145203645Y-101002856D01*
X145210299Y-100999709D01*
X145217229Y-100997229D01*
X145224368Y-100995441D01*
X145231649Y-100994361D01*
X145239000Y-100994000D01*
X145389000Y-100994000D01*
X145396351Y-100994361D01*
X145396351Y-100994361D01*
G37*
D11*
X145314000Y-101419000D03*
D10*
G36*
X144896351Y-100994361D02*
G01*
X144903632Y-100995441D01*
X144910771Y-100997229D01*
X144917701Y-100999709D01*
X144924355Y-101002856D01*
X144930668Y-101006640D01*
X144936579Y-101011024D01*
X144942033Y-101015967D01*
X144946976Y-101021421D01*
X144951360Y-101027332D01*
X144955144Y-101033645D01*
X144958291Y-101040299D01*
X144960771Y-101047229D01*
X144962559Y-101054368D01*
X144963639Y-101061649D01*
X144964000Y-101069000D01*
X144964000Y-101769000D01*
X144963639Y-101776351D01*
X144962559Y-101783632D01*
X144960771Y-101790771D01*
X144958291Y-101797701D01*
X144955144Y-101804355D01*
X144951360Y-101810668D01*
X144946976Y-101816579D01*
X144942033Y-101822033D01*
X144936579Y-101826976D01*
X144930668Y-101831360D01*
X144924355Y-101835144D01*
X144917701Y-101838291D01*
X144910771Y-101840771D01*
X144903632Y-101842559D01*
X144896351Y-101843639D01*
X144889000Y-101844000D01*
X144739000Y-101844000D01*
X144731649Y-101843639D01*
X144724368Y-101842559D01*
X144717229Y-101840771D01*
X144710299Y-101838291D01*
X144703645Y-101835144D01*
X144697332Y-101831360D01*
X144691421Y-101826976D01*
X144685967Y-101822033D01*
X144681024Y-101816579D01*
X144676640Y-101810668D01*
X144672856Y-101804355D01*
X144669709Y-101797701D01*
X144667229Y-101790771D01*
X144665441Y-101783632D01*
X144664361Y-101776351D01*
X144664000Y-101769000D01*
X144664000Y-101069000D01*
X144664361Y-101061649D01*
X144665441Y-101054368D01*
X144667229Y-101047229D01*
X144669709Y-101040299D01*
X144672856Y-101033645D01*
X144676640Y-101027332D01*
X144681024Y-101021421D01*
X144685967Y-101015967D01*
X144691421Y-101011024D01*
X144697332Y-101006640D01*
X144703645Y-101002856D01*
X144710299Y-100999709D01*
X144717229Y-100997229D01*
X144724368Y-100995441D01*
X144731649Y-100994361D01*
X144739000Y-100994000D01*
X144889000Y-100994000D01*
X144896351Y-100994361D01*
X144896351Y-100994361D01*
G37*
D11*
X144814000Y-101419000D03*
D10*
G36*
X144396351Y-100994361D02*
G01*
X144403632Y-100995441D01*
X144410771Y-100997229D01*
X144417701Y-100999709D01*
X144424355Y-101002856D01*
X144430668Y-101006640D01*
X144436579Y-101011024D01*
X144442033Y-101015967D01*
X144446976Y-101021421D01*
X144451360Y-101027332D01*
X144455144Y-101033645D01*
X144458291Y-101040299D01*
X144460771Y-101047229D01*
X144462559Y-101054368D01*
X144463639Y-101061649D01*
X144464000Y-101069000D01*
X144464000Y-101769000D01*
X144463639Y-101776351D01*
X144462559Y-101783632D01*
X144460771Y-101790771D01*
X144458291Y-101797701D01*
X144455144Y-101804355D01*
X144451360Y-101810668D01*
X144446976Y-101816579D01*
X144442033Y-101822033D01*
X144436579Y-101826976D01*
X144430668Y-101831360D01*
X144424355Y-101835144D01*
X144417701Y-101838291D01*
X144410771Y-101840771D01*
X144403632Y-101842559D01*
X144396351Y-101843639D01*
X144389000Y-101844000D01*
X144239000Y-101844000D01*
X144231649Y-101843639D01*
X144224368Y-101842559D01*
X144217229Y-101840771D01*
X144210299Y-101838291D01*
X144203645Y-101835144D01*
X144197332Y-101831360D01*
X144191421Y-101826976D01*
X144185967Y-101822033D01*
X144181024Y-101816579D01*
X144176640Y-101810668D01*
X144172856Y-101804355D01*
X144169709Y-101797701D01*
X144167229Y-101790771D01*
X144165441Y-101783632D01*
X144164361Y-101776351D01*
X144164000Y-101769000D01*
X144164000Y-101069000D01*
X144164361Y-101061649D01*
X144165441Y-101054368D01*
X144167229Y-101047229D01*
X144169709Y-101040299D01*
X144172856Y-101033645D01*
X144176640Y-101027332D01*
X144181024Y-101021421D01*
X144185967Y-101015967D01*
X144191421Y-101011024D01*
X144197332Y-101006640D01*
X144203645Y-101002856D01*
X144210299Y-100999709D01*
X144217229Y-100997229D01*
X144224368Y-100995441D01*
X144231649Y-100994361D01*
X144239000Y-100994000D01*
X144389000Y-100994000D01*
X144396351Y-100994361D01*
X144396351Y-100994361D01*
G37*
D11*
X144314000Y-101419000D03*
D10*
G36*
X143896351Y-100994361D02*
G01*
X143903632Y-100995441D01*
X143910771Y-100997229D01*
X143917701Y-100999709D01*
X143924355Y-101002856D01*
X143930668Y-101006640D01*
X143936579Y-101011024D01*
X143942033Y-101015967D01*
X143946976Y-101021421D01*
X143951360Y-101027332D01*
X143955144Y-101033645D01*
X143958291Y-101040299D01*
X143960771Y-101047229D01*
X143962559Y-101054368D01*
X143963639Y-101061649D01*
X143964000Y-101069000D01*
X143964000Y-101769000D01*
X143963639Y-101776351D01*
X143962559Y-101783632D01*
X143960771Y-101790771D01*
X143958291Y-101797701D01*
X143955144Y-101804355D01*
X143951360Y-101810668D01*
X143946976Y-101816579D01*
X143942033Y-101822033D01*
X143936579Y-101826976D01*
X143930668Y-101831360D01*
X143924355Y-101835144D01*
X143917701Y-101838291D01*
X143910771Y-101840771D01*
X143903632Y-101842559D01*
X143896351Y-101843639D01*
X143889000Y-101844000D01*
X143739000Y-101844000D01*
X143731649Y-101843639D01*
X143724368Y-101842559D01*
X143717229Y-101840771D01*
X143710299Y-101838291D01*
X143703645Y-101835144D01*
X143697332Y-101831360D01*
X143691421Y-101826976D01*
X143685967Y-101822033D01*
X143681024Y-101816579D01*
X143676640Y-101810668D01*
X143672856Y-101804355D01*
X143669709Y-101797701D01*
X143667229Y-101790771D01*
X143665441Y-101783632D01*
X143664361Y-101776351D01*
X143664000Y-101769000D01*
X143664000Y-101069000D01*
X143664361Y-101061649D01*
X143665441Y-101054368D01*
X143667229Y-101047229D01*
X143669709Y-101040299D01*
X143672856Y-101033645D01*
X143676640Y-101027332D01*
X143681024Y-101021421D01*
X143685967Y-101015967D01*
X143691421Y-101011024D01*
X143697332Y-101006640D01*
X143703645Y-101002856D01*
X143710299Y-100999709D01*
X143717229Y-100997229D01*
X143724368Y-100995441D01*
X143731649Y-100994361D01*
X143739000Y-100994000D01*
X143889000Y-100994000D01*
X143896351Y-100994361D01*
X143896351Y-100994361D01*
G37*
D11*
X143814000Y-101419000D03*
D10*
G36*
X143396351Y-100994361D02*
G01*
X143403632Y-100995441D01*
X143410771Y-100997229D01*
X143417701Y-100999709D01*
X143424355Y-101002856D01*
X143430668Y-101006640D01*
X143436579Y-101011024D01*
X143442033Y-101015967D01*
X143446976Y-101021421D01*
X143451360Y-101027332D01*
X143455144Y-101033645D01*
X143458291Y-101040299D01*
X143460771Y-101047229D01*
X143462559Y-101054368D01*
X143463639Y-101061649D01*
X143464000Y-101069000D01*
X143464000Y-101769000D01*
X143463639Y-101776351D01*
X143462559Y-101783632D01*
X143460771Y-101790771D01*
X143458291Y-101797701D01*
X143455144Y-101804355D01*
X143451360Y-101810668D01*
X143446976Y-101816579D01*
X143442033Y-101822033D01*
X143436579Y-101826976D01*
X143430668Y-101831360D01*
X143424355Y-101835144D01*
X143417701Y-101838291D01*
X143410771Y-101840771D01*
X143403632Y-101842559D01*
X143396351Y-101843639D01*
X143389000Y-101844000D01*
X143239000Y-101844000D01*
X143231649Y-101843639D01*
X143224368Y-101842559D01*
X143217229Y-101840771D01*
X143210299Y-101838291D01*
X143203645Y-101835144D01*
X143197332Y-101831360D01*
X143191421Y-101826976D01*
X143185967Y-101822033D01*
X143181024Y-101816579D01*
X143176640Y-101810668D01*
X143172856Y-101804355D01*
X143169709Y-101797701D01*
X143167229Y-101790771D01*
X143165441Y-101783632D01*
X143164361Y-101776351D01*
X143164000Y-101769000D01*
X143164000Y-101069000D01*
X143164361Y-101061649D01*
X143165441Y-101054368D01*
X143167229Y-101047229D01*
X143169709Y-101040299D01*
X143172856Y-101033645D01*
X143176640Y-101027332D01*
X143181024Y-101021421D01*
X143185967Y-101015967D01*
X143191421Y-101011024D01*
X143197332Y-101006640D01*
X143203645Y-101002856D01*
X143210299Y-100999709D01*
X143217229Y-100997229D01*
X143224368Y-100995441D01*
X143231649Y-100994361D01*
X143239000Y-100994000D01*
X143389000Y-100994000D01*
X143396351Y-100994361D01*
X143396351Y-100994361D01*
G37*
D11*
X143314000Y-101419000D03*
D10*
G36*
X142896351Y-100994361D02*
G01*
X142903632Y-100995441D01*
X142910771Y-100997229D01*
X142917701Y-100999709D01*
X142924355Y-101002856D01*
X142930668Y-101006640D01*
X142936579Y-101011024D01*
X142942033Y-101015967D01*
X142946976Y-101021421D01*
X142951360Y-101027332D01*
X142955144Y-101033645D01*
X142958291Y-101040299D01*
X142960771Y-101047229D01*
X142962559Y-101054368D01*
X142963639Y-101061649D01*
X142964000Y-101069000D01*
X142964000Y-101769000D01*
X142963639Y-101776351D01*
X142962559Y-101783632D01*
X142960771Y-101790771D01*
X142958291Y-101797701D01*
X142955144Y-101804355D01*
X142951360Y-101810668D01*
X142946976Y-101816579D01*
X142942033Y-101822033D01*
X142936579Y-101826976D01*
X142930668Y-101831360D01*
X142924355Y-101835144D01*
X142917701Y-101838291D01*
X142910771Y-101840771D01*
X142903632Y-101842559D01*
X142896351Y-101843639D01*
X142889000Y-101844000D01*
X142739000Y-101844000D01*
X142731649Y-101843639D01*
X142724368Y-101842559D01*
X142717229Y-101840771D01*
X142710299Y-101838291D01*
X142703645Y-101835144D01*
X142697332Y-101831360D01*
X142691421Y-101826976D01*
X142685967Y-101822033D01*
X142681024Y-101816579D01*
X142676640Y-101810668D01*
X142672856Y-101804355D01*
X142669709Y-101797701D01*
X142667229Y-101790771D01*
X142665441Y-101783632D01*
X142664361Y-101776351D01*
X142664000Y-101769000D01*
X142664000Y-101069000D01*
X142664361Y-101061649D01*
X142665441Y-101054368D01*
X142667229Y-101047229D01*
X142669709Y-101040299D01*
X142672856Y-101033645D01*
X142676640Y-101027332D01*
X142681024Y-101021421D01*
X142685967Y-101015967D01*
X142691421Y-101011024D01*
X142697332Y-101006640D01*
X142703645Y-101002856D01*
X142710299Y-100999709D01*
X142717229Y-100997229D01*
X142724368Y-100995441D01*
X142731649Y-100994361D01*
X142739000Y-100994000D01*
X142889000Y-100994000D01*
X142896351Y-100994361D01*
X142896351Y-100994361D01*
G37*
D11*
X142814000Y-101419000D03*
D10*
G36*
X142471351Y-100569361D02*
G01*
X142478632Y-100570441D01*
X142485771Y-100572229D01*
X142492701Y-100574709D01*
X142499355Y-100577856D01*
X142505668Y-100581640D01*
X142511579Y-100586024D01*
X142517033Y-100590967D01*
X142521976Y-100596421D01*
X142526360Y-100602332D01*
X142530144Y-100608645D01*
X142533291Y-100615299D01*
X142535771Y-100622229D01*
X142537559Y-100629368D01*
X142538639Y-100636649D01*
X142539000Y-100644000D01*
X142539000Y-100794000D01*
X142538639Y-100801351D01*
X142537559Y-100808632D01*
X142535771Y-100815771D01*
X142533291Y-100822701D01*
X142530144Y-100829355D01*
X142526360Y-100835668D01*
X142521976Y-100841579D01*
X142517033Y-100847033D01*
X142511579Y-100851976D01*
X142505668Y-100856360D01*
X142499355Y-100860144D01*
X142492701Y-100863291D01*
X142485771Y-100865771D01*
X142478632Y-100867559D01*
X142471351Y-100868639D01*
X142464000Y-100869000D01*
X141764000Y-100869000D01*
X141756649Y-100868639D01*
X141749368Y-100867559D01*
X141742229Y-100865771D01*
X141735299Y-100863291D01*
X141728645Y-100860144D01*
X141722332Y-100856360D01*
X141716421Y-100851976D01*
X141710967Y-100847033D01*
X141706024Y-100841579D01*
X141701640Y-100835668D01*
X141697856Y-100829355D01*
X141694709Y-100822701D01*
X141692229Y-100815771D01*
X141690441Y-100808632D01*
X141689361Y-100801351D01*
X141689000Y-100794000D01*
X141689000Y-100644000D01*
X141689361Y-100636649D01*
X141690441Y-100629368D01*
X141692229Y-100622229D01*
X141694709Y-100615299D01*
X141697856Y-100608645D01*
X141701640Y-100602332D01*
X141706024Y-100596421D01*
X141710967Y-100590967D01*
X141716421Y-100586024D01*
X141722332Y-100581640D01*
X141728645Y-100577856D01*
X141735299Y-100574709D01*
X141742229Y-100572229D01*
X141749368Y-100570441D01*
X141756649Y-100569361D01*
X141764000Y-100569000D01*
X142464000Y-100569000D01*
X142471351Y-100569361D01*
X142471351Y-100569361D01*
G37*
D11*
X142114000Y-100719000D03*
D10*
G36*
X142471351Y-100069361D02*
G01*
X142478632Y-100070441D01*
X142485771Y-100072229D01*
X142492701Y-100074709D01*
X142499355Y-100077856D01*
X142505668Y-100081640D01*
X142511579Y-100086024D01*
X142517033Y-100090967D01*
X142521976Y-100096421D01*
X142526360Y-100102332D01*
X142530144Y-100108645D01*
X142533291Y-100115299D01*
X142535771Y-100122229D01*
X142537559Y-100129368D01*
X142538639Y-100136649D01*
X142539000Y-100144000D01*
X142539000Y-100294000D01*
X142538639Y-100301351D01*
X142537559Y-100308632D01*
X142535771Y-100315771D01*
X142533291Y-100322701D01*
X142530144Y-100329355D01*
X142526360Y-100335668D01*
X142521976Y-100341579D01*
X142517033Y-100347033D01*
X142511579Y-100351976D01*
X142505668Y-100356360D01*
X142499355Y-100360144D01*
X142492701Y-100363291D01*
X142485771Y-100365771D01*
X142478632Y-100367559D01*
X142471351Y-100368639D01*
X142464000Y-100369000D01*
X141764000Y-100369000D01*
X141756649Y-100368639D01*
X141749368Y-100367559D01*
X141742229Y-100365771D01*
X141735299Y-100363291D01*
X141728645Y-100360144D01*
X141722332Y-100356360D01*
X141716421Y-100351976D01*
X141710967Y-100347033D01*
X141706024Y-100341579D01*
X141701640Y-100335668D01*
X141697856Y-100329355D01*
X141694709Y-100322701D01*
X141692229Y-100315771D01*
X141690441Y-100308632D01*
X141689361Y-100301351D01*
X141689000Y-100294000D01*
X141689000Y-100144000D01*
X141689361Y-100136649D01*
X141690441Y-100129368D01*
X141692229Y-100122229D01*
X141694709Y-100115299D01*
X141697856Y-100108645D01*
X141701640Y-100102332D01*
X141706024Y-100096421D01*
X141710967Y-100090967D01*
X141716421Y-100086024D01*
X141722332Y-100081640D01*
X141728645Y-100077856D01*
X141735299Y-100074709D01*
X141742229Y-100072229D01*
X141749368Y-100070441D01*
X141756649Y-100069361D01*
X141764000Y-100069000D01*
X142464000Y-100069000D01*
X142471351Y-100069361D01*
X142471351Y-100069361D01*
G37*
D11*
X142114000Y-100219000D03*
D10*
G36*
X142471351Y-99569361D02*
G01*
X142478632Y-99570441D01*
X142485771Y-99572229D01*
X142492701Y-99574709D01*
X142499355Y-99577856D01*
X142505668Y-99581640D01*
X142511579Y-99586024D01*
X142517033Y-99590967D01*
X142521976Y-99596421D01*
X142526360Y-99602332D01*
X142530144Y-99608645D01*
X142533291Y-99615299D01*
X142535771Y-99622229D01*
X142537559Y-99629368D01*
X142538639Y-99636649D01*
X142539000Y-99644000D01*
X142539000Y-99794000D01*
X142538639Y-99801351D01*
X142537559Y-99808632D01*
X142535771Y-99815771D01*
X142533291Y-99822701D01*
X142530144Y-99829355D01*
X142526360Y-99835668D01*
X142521976Y-99841579D01*
X142517033Y-99847033D01*
X142511579Y-99851976D01*
X142505668Y-99856360D01*
X142499355Y-99860144D01*
X142492701Y-99863291D01*
X142485771Y-99865771D01*
X142478632Y-99867559D01*
X142471351Y-99868639D01*
X142464000Y-99869000D01*
X141764000Y-99869000D01*
X141756649Y-99868639D01*
X141749368Y-99867559D01*
X141742229Y-99865771D01*
X141735299Y-99863291D01*
X141728645Y-99860144D01*
X141722332Y-99856360D01*
X141716421Y-99851976D01*
X141710967Y-99847033D01*
X141706024Y-99841579D01*
X141701640Y-99835668D01*
X141697856Y-99829355D01*
X141694709Y-99822701D01*
X141692229Y-99815771D01*
X141690441Y-99808632D01*
X141689361Y-99801351D01*
X141689000Y-99794000D01*
X141689000Y-99644000D01*
X141689361Y-99636649D01*
X141690441Y-99629368D01*
X141692229Y-99622229D01*
X141694709Y-99615299D01*
X141697856Y-99608645D01*
X141701640Y-99602332D01*
X141706024Y-99596421D01*
X141710967Y-99590967D01*
X141716421Y-99586024D01*
X141722332Y-99581640D01*
X141728645Y-99577856D01*
X141735299Y-99574709D01*
X141742229Y-99572229D01*
X141749368Y-99570441D01*
X141756649Y-99569361D01*
X141764000Y-99569000D01*
X142464000Y-99569000D01*
X142471351Y-99569361D01*
X142471351Y-99569361D01*
G37*
D11*
X142114000Y-99719000D03*
D10*
G36*
X142471351Y-99069361D02*
G01*
X142478632Y-99070441D01*
X142485771Y-99072229D01*
X142492701Y-99074709D01*
X142499355Y-99077856D01*
X142505668Y-99081640D01*
X142511579Y-99086024D01*
X142517033Y-99090967D01*
X142521976Y-99096421D01*
X142526360Y-99102332D01*
X142530144Y-99108645D01*
X142533291Y-99115299D01*
X142535771Y-99122229D01*
X142537559Y-99129368D01*
X142538639Y-99136649D01*
X142539000Y-99144000D01*
X142539000Y-99294000D01*
X142538639Y-99301351D01*
X142537559Y-99308632D01*
X142535771Y-99315771D01*
X142533291Y-99322701D01*
X142530144Y-99329355D01*
X142526360Y-99335668D01*
X142521976Y-99341579D01*
X142517033Y-99347033D01*
X142511579Y-99351976D01*
X142505668Y-99356360D01*
X142499355Y-99360144D01*
X142492701Y-99363291D01*
X142485771Y-99365771D01*
X142478632Y-99367559D01*
X142471351Y-99368639D01*
X142464000Y-99369000D01*
X141764000Y-99369000D01*
X141756649Y-99368639D01*
X141749368Y-99367559D01*
X141742229Y-99365771D01*
X141735299Y-99363291D01*
X141728645Y-99360144D01*
X141722332Y-99356360D01*
X141716421Y-99351976D01*
X141710967Y-99347033D01*
X141706024Y-99341579D01*
X141701640Y-99335668D01*
X141697856Y-99329355D01*
X141694709Y-99322701D01*
X141692229Y-99315771D01*
X141690441Y-99308632D01*
X141689361Y-99301351D01*
X141689000Y-99294000D01*
X141689000Y-99144000D01*
X141689361Y-99136649D01*
X141690441Y-99129368D01*
X141692229Y-99122229D01*
X141694709Y-99115299D01*
X141697856Y-99108645D01*
X141701640Y-99102332D01*
X141706024Y-99096421D01*
X141710967Y-99090967D01*
X141716421Y-99086024D01*
X141722332Y-99081640D01*
X141728645Y-99077856D01*
X141735299Y-99074709D01*
X141742229Y-99072229D01*
X141749368Y-99070441D01*
X141756649Y-99069361D01*
X141764000Y-99069000D01*
X142464000Y-99069000D01*
X142471351Y-99069361D01*
X142471351Y-99069361D01*
G37*
D11*
X142114000Y-99219000D03*
D10*
G36*
X142471351Y-98569361D02*
G01*
X142478632Y-98570441D01*
X142485771Y-98572229D01*
X142492701Y-98574709D01*
X142499355Y-98577856D01*
X142505668Y-98581640D01*
X142511579Y-98586024D01*
X142517033Y-98590967D01*
X142521976Y-98596421D01*
X142526360Y-98602332D01*
X142530144Y-98608645D01*
X142533291Y-98615299D01*
X142535771Y-98622229D01*
X142537559Y-98629368D01*
X142538639Y-98636649D01*
X142539000Y-98644000D01*
X142539000Y-98794000D01*
X142538639Y-98801351D01*
X142537559Y-98808632D01*
X142535771Y-98815771D01*
X142533291Y-98822701D01*
X142530144Y-98829355D01*
X142526360Y-98835668D01*
X142521976Y-98841579D01*
X142517033Y-98847033D01*
X142511579Y-98851976D01*
X142505668Y-98856360D01*
X142499355Y-98860144D01*
X142492701Y-98863291D01*
X142485771Y-98865771D01*
X142478632Y-98867559D01*
X142471351Y-98868639D01*
X142464000Y-98869000D01*
X141764000Y-98869000D01*
X141756649Y-98868639D01*
X141749368Y-98867559D01*
X141742229Y-98865771D01*
X141735299Y-98863291D01*
X141728645Y-98860144D01*
X141722332Y-98856360D01*
X141716421Y-98851976D01*
X141710967Y-98847033D01*
X141706024Y-98841579D01*
X141701640Y-98835668D01*
X141697856Y-98829355D01*
X141694709Y-98822701D01*
X141692229Y-98815771D01*
X141690441Y-98808632D01*
X141689361Y-98801351D01*
X141689000Y-98794000D01*
X141689000Y-98644000D01*
X141689361Y-98636649D01*
X141690441Y-98629368D01*
X141692229Y-98622229D01*
X141694709Y-98615299D01*
X141697856Y-98608645D01*
X141701640Y-98602332D01*
X141706024Y-98596421D01*
X141710967Y-98590967D01*
X141716421Y-98586024D01*
X141722332Y-98581640D01*
X141728645Y-98577856D01*
X141735299Y-98574709D01*
X141742229Y-98572229D01*
X141749368Y-98570441D01*
X141756649Y-98569361D01*
X141764000Y-98569000D01*
X142464000Y-98569000D01*
X142471351Y-98569361D01*
X142471351Y-98569361D01*
G37*
D11*
X142114000Y-98719000D03*
D10*
G36*
X142471351Y-98069361D02*
G01*
X142478632Y-98070441D01*
X142485771Y-98072229D01*
X142492701Y-98074709D01*
X142499355Y-98077856D01*
X142505668Y-98081640D01*
X142511579Y-98086024D01*
X142517033Y-98090967D01*
X142521976Y-98096421D01*
X142526360Y-98102332D01*
X142530144Y-98108645D01*
X142533291Y-98115299D01*
X142535771Y-98122229D01*
X142537559Y-98129368D01*
X142538639Y-98136649D01*
X142539000Y-98144000D01*
X142539000Y-98294000D01*
X142538639Y-98301351D01*
X142537559Y-98308632D01*
X142535771Y-98315771D01*
X142533291Y-98322701D01*
X142530144Y-98329355D01*
X142526360Y-98335668D01*
X142521976Y-98341579D01*
X142517033Y-98347033D01*
X142511579Y-98351976D01*
X142505668Y-98356360D01*
X142499355Y-98360144D01*
X142492701Y-98363291D01*
X142485771Y-98365771D01*
X142478632Y-98367559D01*
X142471351Y-98368639D01*
X142464000Y-98369000D01*
X141764000Y-98369000D01*
X141756649Y-98368639D01*
X141749368Y-98367559D01*
X141742229Y-98365771D01*
X141735299Y-98363291D01*
X141728645Y-98360144D01*
X141722332Y-98356360D01*
X141716421Y-98351976D01*
X141710967Y-98347033D01*
X141706024Y-98341579D01*
X141701640Y-98335668D01*
X141697856Y-98329355D01*
X141694709Y-98322701D01*
X141692229Y-98315771D01*
X141690441Y-98308632D01*
X141689361Y-98301351D01*
X141689000Y-98294000D01*
X141689000Y-98144000D01*
X141689361Y-98136649D01*
X141690441Y-98129368D01*
X141692229Y-98122229D01*
X141694709Y-98115299D01*
X141697856Y-98108645D01*
X141701640Y-98102332D01*
X141706024Y-98096421D01*
X141710967Y-98090967D01*
X141716421Y-98086024D01*
X141722332Y-98081640D01*
X141728645Y-98077856D01*
X141735299Y-98074709D01*
X141742229Y-98072229D01*
X141749368Y-98070441D01*
X141756649Y-98069361D01*
X141764000Y-98069000D01*
X142464000Y-98069000D01*
X142471351Y-98069361D01*
X142471351Y-98069361D01*
G37*
D11*
X142114000Y-98219000D03*
D12*
X148583000Y-105660000D03*
X145683000Y-105660000D03*
X145683000Y-103360000D03*
X148583000Y-103360000D03*
D13*
X152802000Y-102289000D03*
X152802000Y-101489000D03*
X152802000Y-100689000D03*
X152802000Y-99889000D03*
X152802000Y-99089000D03*
X152802000Y-98289000D03*
X152802000Y-97489000D03*
X152802000Y-96689000D03*
D14*
X154252000Y-95239000D03*
X155052000Y-95239000D03*
X155852000Y-95239000D03*
X156652000Y-95239000D03*
X157452000Y-95239000D03*
X158252000Y-95239000D03*
X159052000Y-95239000D03*
X159852000Y-95239000D03*
D13*
X161302000Y-96689000D03*
X161302000Y-97489000D03*
X161302000Y-98289000D03*
X161302000Y-99089000D03*
X161302000Y-99889000D03*
X161302000Y-100689000D03*
X161302000Y-101489000D03*
X161302000Y-102289000D03*
D14*
X159852000Y-103739000D03*
X159052000Y-103739000D03*
X158252000Y-103739000D03*
X157452000Y-103739000D03*
X156652000Y-103739000D03*
X155852000Y-103739000D03*
X155052000Y-103739000D03*
X154252000Y-103739000D03*
D15*
X147525000Y-88289000D03*
D16*
X148325000Y-88289000D03*
D15*
X149925000Y-88289000D03*
D16*
X149125000Y-88289000D03*
D15*
X147525000Y-86489000D03*
D16*
X149125000Y-86489000D03*
X148325000Y-86489000D03*
D15*
X149925000Y-86489000D03*
X149925000Y-89994000D03*
D16*
X149125000Y-89994000D03*
D15*
X147525000Y-89994000D03*
D16*
X148325000Y-89994000D03*
D15*
X149925000Y-91794000D03*
D16*
X148325000Y-91794000D03*
X149125000Y-91794000D03*
D15*
X147525000Y-91794000D03*
X149925000Y-95669000D03*
D16*
X149125000Y-95669000D03*
D15*
X147525000Y-95669000D03*
D16*
X148325000Y-95669000D03*
D15*
X149925000Y-97469000D03*
D16*
X148325000Y-97469000D03*
X149125000Y-97469000D03*
D15*
X147525000Y-97469000D03*
D10*
G36*
X161309779Y-89243144D02*
G01*
X161332834Y-89246563D01*
X161355443Y-89252227D01*
X161377387Y-89260079D01*
X161398457Y-89270044D01*
X161418448Y-89282026D01*
X161437168Y-89295910D01*
X161454438Y-89311562D01*
X161470090Y-89328832D01*
X161483974Y-89347552D01*
X161495956Y-89367543D01*
X161505921Y-89388613D01*
X161513773Y-89410557D01*
X161519437Y-89433166D01*
X161522856Y-89456221D01*
X161524000Y-89479500D01*
X161524000Y-90054500D01*
X161522856Y-90077779D01*
X161519437Y-90100834D01*
X161513773Y-90123443D01*
X161505921Y-90145387D01*
X161495956Y-90166457D01*
X161483974Y-90186448D01*
X161470090Y-90205168D01*
X161454438Y-90222438D01*
X161437168Y-90238090D01*
X161418448Y-90251974D01*
X161398457Y-90263956D01*
X161377387Y-90273921D01*
X161355443Y-90281773D01*
X161332834Y-90287437D01*
X161309779Y-90290856D01*
X161286500Y-90292000D01*
X160811500Y-90292000D01*
X160788221Y-90290856D01*
X160765166Y-90287437D01*
X160742557Y-90281773D01*
X160720613Y-90273921D01*
X160699543Y-90263956D01*
X160679552Y-90251974D01*
X160660832Y-90238090D01*
X160643562Y-90222438D01*
X160627910Y-90205168D01*
X160614026Y-90186448D01*
X160602044Y-90166457D01*
X160592079Y-90145387D01*
X160584227Y-90123443D01*
X160578563Y-90100834D01*
X160575144Y-90077779D01*
X160574000Y-90054500D01*
X160574000Y-89479500D01*
X160575144Y-89456221D01*
X160578563Y-89433166D01*
X160584227Y-89410557D01*
X160592079Y-89388613D01*
X160602044Y-89367543D01*
X160614026Y-89347552D01*
X160627910Y-89328832D01*
X160643562Y-89311562D01*
X160660832Y-89295910D01*
X160679552Y-89282026D01*
X160699543Y-89270044D01*
X160720613Y-89260079D01*
X160742557Y-89252227D01*
X160765166Y-89246563D01*
X160788221Y-89243144D01*
X160811500Y-89242000D01*
X161286500Y-89242000D01*
X161309779Y-89243144D01*
X161309779Y-89243144D01*
G37*
D17*
X161049000Y-89767000D03*
D10*
G36*
X161309779Y-87493144D02*
G01*
X161332834Y-87496563D01*
X161355443Y-87502227D01*
X161377387Y-87510079D01*
X161398457Y-87520044D01*
X161418448Y-87532026D01*
X161437168Y-87545910D01*
X161454438Y-87561562D01*
X161470090Y-87578832D01*
X161483974Y-87597552D01*
X161495956Y-87617543D01*
X161505921Y-87638613D01*
X161513773Y-87660557D01*
X161519437Y-87683166D01*
X161522856Y-87706221D01*
X161524000Y-87729500D01*
X161524000Y-88304500D01*
X161522856Y-88327779D01*
X161519437Y-88350834D01*
X161513773Y-88373443D01*
X161505921Y-88395387D01*
X161495956Y-88416457D01*
X161483974Y-88436448D01*
X161470090Y-88455168D01*
X161454438Y-88472438D01*
X161437168Y-88488090D01*
X161418448Y-88501974D01*
X161398457Y-88513956D01*
X161377387Y-88523921D01*
X161355443Y-88531773D01*
X161332834Y-88537437D01*
X161309779Y-88540856D01*
X161286500Y-88542000D01*
X160811500Y-88542000D01*
X160788221Y-88540856D01*
X160765166Y-88537437D01*
X160742557Y-88531773D01*
X160720613Y-88523921D01*
X160699543Y-88513956D01*
X160679552Y-88501974D01*
X160660832Y-88488090D01*
X160643562Y-88472438D01*
X160627910Y-88455168D01*
X160614026Y-88436448D01*
X160602044Y-88416457D01*
X160592079Y-88395387D01*
X160584227Y-88373443D01*
X160578563Y-88350834D01*
X160575144Y-88327779D01*
X160574000Y-88304500D01*
X160574000Y-87729500D01*
X160575144Y-87706221D01*
X160578563Y-87683166D01*
X160584227Y-87660557D01*
X160592079Y-87638613D01*
X160602044Y-87617543D01*
X160614026Y-87597552D01*
X160627910Y-87578832D01*
X160643562Y-87561562D01*
X160660832Y-87545910D01*
X160679552Y-87532026D01*
X160699543Y-87520044D01*
X160720613Y-87510079D01*
X160742557Y-87502227D01*
X160765166Y-87496563D01*
X160788221Y-87493144D01*
X160811500Y-87492000D01*
X161286500Y-87492000D01*
X161309779Y-87493144D01*
X161309779Y-87493144D01*
G37*
D17*
X161049000Y-88017000D03*
D10*
G36*
X142617779Y-88319144D02*
G01*
X142640834Y-88322563D01*
X142663443Y-88328227D01*
X142685387Y-88336079D01*
X142706457Y-88346044D01*
X142726448Y-88358026D01*
X142745168Y-88371910D01*
X142762438Y-88387562D01*
X142778090Y-88404832D01*
X142791974Y-88423552D01*
X142803956Y-88443543D01*
X142813921Y-88464613D01*
X142821773Y-88486557D01*
X142827437Y-88509166D01*
X142830856Y-88532221D01*
X142832000Y-88555500D01*
X142832000Y-89130500D01*
X142830856Y-89153779D01*
X142827437Y-89176834D01*
X142821773Y-89199443D01*
X142813921Y-89221387D01*
X142803956Y-89242457D01*
X142791974Y-89262448D01*
X142778090Y-89281168D01*
X142762438Y-89298438D01*
X142745168Y-89314090D01*
X142726448Y-89327974D01*
X142706457Y-89339956D01*
X142685387Y-89349921D01*
X142663443Y-89357773D01*
X142640834Y-89363437D01*
X142617779Y-89366856D01*
X142594500Y-89368000D01*
X142119500Y-89368000D01*
X142096221Y-89366856D01*
X142073166Y-89363437D01*
X142050557Y-89357773D01*
X142028613Y-89349921D01*
X142007543Y-89339956D01*
X141987552Y-89327974D01*
X141968832Y-89314090D01*
X141951562Y-89298438D01*
X141935910Y-89281168D01*
X141922026Y-89262448D01*
X141910044Y-89242457D01*
X141900079Y-89221387D01*
X141892227Y-89199443D01*
X141886563Y-89176834D01*
X141883144Y-89153779D01*
X141882000Y-89130500D01*
X141882000Y-88555500D01*
X141883144Y-88532221D01*
X141886563Y-88509166D01*
X141892227Y-88486557D01*
X141900079Y-88464613D01*
X141910044Y-88443543D01*
X141922026Y-88423552D01*
X141935910Y-88404832D01*
X141951562Y-88387562D01*
X141968832Y-88371910D01*
X141987552Y-88358026D01*
X142007543Y-88346044D01*
X142028613Y-88336079D01*
X142050557Y-88328227D01*
X142073166Y-88322563D01*
X142096221Y-88319144D01*
X142119500Y-88318000D01*
X142594500Y-88318000D01*
X142617779Y-88319144D01*
X142617779Y-88319144D01*
G37*
D17*
X142357000Y-88843000D03*
D10*
G36*
X142617779Y-86569144D02*
G01*
X142640834Y-86572563D01*
X142663443Y-86578227D01*
X142685387Y-86586079D01*
X142706457Y-86596044D01*
X142726448Y-86608026D01*
X142745168Y-86621910D01*
X142762438Y-86637562D01*
X142778090Y-86654832D01*
X142791974Y-86673552D01*
X142803956Y-86693543D01*
X142813921Y-86714613D01*
X142821773Y-86736557D01*
X142827437Y-86759166D01*
X142830856Y-86782221D01*
X142832000Y-86805500D01*
X142832000Y-87380500D01*
X142830856Y-87403779D01*
X142827437Y-87426834D01*
X142821773Y-87449443D01*
X142813921Y-87471387D01*
X142803956Y-87492457D01*
X142791974Y-87512448D01*
X142778090Y-87531168D01*
X142762438Y-87548438D01*
X142745168Y-87564090D01*
X142726448Y-87577974D01*
X142706457Y-87589956D01*
X142685387Y-87599921D01*
X142663443Y-87607773D01*
X142640834Y-87613437D01*
X142617779Y-87616856D01*
X142594500Y-87618000D01*
X142119500Y-87618000D01*
X142096221Y-87616856D01*
X142073166Y-87613437D01*
X142050557Y-87607773D01*
X142028613Y-87599921D01*
X142007543Y-87589956D01*
X141987552Y-87577974D01*
X141968832Y-87564090D01*
X141951562Y-87548438D01*
X141935910Y-87531168D01*
X141922026Y-87512448D01*
X141910044Y-87492457D01*
X141900079Y-87471387D01*
X141892227Y-87449443D01*
X141886563Y-87426834D01*
X141883144Y-87403779D01*
X141882000Y-87380500D01*
X141882000Y-86805500D01*
X141883144Y-86782221D01*
X141886563Y-86759166D01*
X141892227Y-86736557D01*
X141900079Y-86714613D01*
X141910044Y-86693543D01*
X141922026Y-86673552D01*
X141935910Y-86654832D01*
X141951562Y-86637562D01*
X141968832Y-86621910D01*
X141987552Y-86608026D01*
X142007543Y-86596044D01*
X142028613Y-86586079D01*
X142050557Y-86578227D01*
X142073166Y-86572563D01*
X142096221Y-86569144D01*
X142119500Y-86568000D01*
X142594500Y-86568000D01*
X142617779Y-86569144D01*
X142617779Y-86569144D01*
G37*
D17*
X142357000Y-87093000D03*
D10*
G36*
X162080779Y-106307144D02*
G01*
X162103834Y-106310563D01*
X162126443Y-106316227D01*
X162148387Y-106324079D01*
X162169457Y-106334044D01*
X162189448Y-106346026D01*
X162208168Y-106359910D01*
X162225438Y-106375562D01*
X162241090Y-106392832D01*
X162254974Y-106411552D01*
X162266956Y-106431543D01*
X162276921Y-106452613D01*
X162284773Y-106474557D01*
X162290437Y-106497166D01*
X162293856Y-106520221D01*
X162295000Y-106543500D01*
X162295000Y-107018500D01*
X162293856Y-107041779D01*
X162290437Y-107064834D01*
X162284773Y-107087443D01*
X162276921Y-107109387D01*
X162266956Y-107130457D01*
X162254974Y-107150448D01*
X162241090Y-107169168D01*
X162225438Y-107186438D01*
X162208168Y-107202090D01*
X162189448Y-107215974D01*
X162169457Y-107227956D01*
X162148387Y-107237921D01*
X162126443Y-107245773D01*
X162103834Y-107251437D01*
X162080779Y-107254856D01*
X162057500Y-107256000D01*
X161482500Y-107256000D01*
X161459221Y-107254856D01*
X161436166Y-107251437D01*
X161413557Y-107245773D01*
X161391613Y-107237921D01*
X161370543Y-107227956D01*
X161350552Y-107215974D01*
X161331832Y-107202090D01*
X161314562Y-107186438D01*
X161298910Y-107169168D01*
X161285026Y-107150448D01*
X161273044Y-107130457D01*
X161263079Y-107109387D01*
X161255227Y-107087443D01*
X161249563Y-107064834D01*
X161246144Y-107041779D01*
X161245000Y-107018500D01*
X161245000Y-106543500D01*
X161246144Y-106520221D01*
X161249563Y-106497166D01*
X161255227Y-106474557D01*
X161263079Y-106452613D01*
X161273044Y-106431543D01*
X161285026Y-106411552D01*
X161298910Y-106392832D01*
X161314562Y-106375562D01*
X161331832Y-106359910D01*
X161350552Y-106346026D01*
X161370543Y-106334044D01*
X161391613Y-106324079D01*
X161413557Y-106316227D01*
X161436166Y-106310563D01*
X161459221Y-106307144D01*
X161482500Y-106306000D01*
X162057500Y-106306000D01*
X162080779Y-106307144D01*
X162080779Y-106307144D01*
G37*
D17*
X161770000Y-106781000D03*
D10*
G36*
X160330779Y-106307144D02*
G01*
X160353834Y-106310563D01*
X160376443Y-106316227D01*
X160398387Y-106324079D01*
X160419457Y-106334044D01*
X160439448Y-106346026D01*
X160458168Y-106359910D01*
X160475438Y-106375562D01*
X160491090Y-106392832D01*
X160504974Y-106411552D01*
X160516956Y-106431543D01*
X160526921Y-106452613D01*
X160534773Y-106474557D01*
X160540437Y-106497166D01*
X160543856Y-106520221D01*
X160545000Y-106543500D01*
X160545000Y-107018500D01*
X160543856Y-107041779D01*
X160540437Y-107064834D01*
X160534773Y-107087443D01*
X160526921Y-107109387D01*
X160516956Y-107130457D01*
X160504974Y-107150448D01*
X160491090Y-107169168D01*
X160475438Y-107186438D01*
X160458168Y-107202090D01*
X160439448Y-107215974D01*
X160419457Y-107227956D01*
X160398387Y-107237921D01*
X160376443Y-107245773D01*
X160353834Y-107251437D01*
X160330779Y-107254856D01*
X160307500Y-107256000D01*
X159732500Y-107256000D01*
X159709221Y-107254856D01*
X159686166Y-107251437D01*
X159663557Y-107245773D01*
X159641613Y-107237921D01*
X159620543Y-107227956D01*
X159600552Y-107215974D01*
X159581832Y-107202090D01*
X159564562Y-107186438D01*
X159548910Y-107169168D01*
X159535026Y-107150448D01*
X159523044Y-107130457D01*
X159513079Y-107109387D01*
X159505227Y-107087443D01*
X159499563Y-107064834D01*
X159496144Y-107041779D01*
X159495000Y-107018500D01*
X159495000Y-106543500D01*
X159496144Y-106520221D01*
X159499563Y-106497166D01*
X159505227Y-106474557D01*
X159513079Y-106452613D01*
X159523044Y-106431543D01*
X159535026Y-106411552D01*
X159548910Y-106392832D01*
X159564562Y-106375562D01*
X159581832Y-106359910D01*
X159600552Y-106346026D01*
X159620543Y-106334044D01*
X159641613Y-106324079D01*
X159663557Y-106316227D01*
X159686166Y-106310563D01*
X159709221Y-106307144D01*
X159732500Y-106306000D01*
X160307500Y-106306000D01*
X160330779Y-106307144D01*
X160330779Y-106307144D01*
G37*
D17*
X160020000Y-106781000D03*
D10*
G36*
X140769779Y-99733144D02*
G01*
X140792834Y-99736563D01*
X140815443Y-99742227D01*
X140837387Y-99750079D01*
X140858457Y-99760044D01*
X140878448Y-99772026D01*
X140897168Y-99785910D01*
X140914438Y-99801562D01*
X140930090Y-99818832D01*
X140943974Y-99837552D01*
X140955956Y-99857543D01*
X140965921Y-99878613D01*
X140973773Y-99900557D01*
X140979437Y-99923166D01*
X140982856Y-99946221D01*
X140984000Y-99969500D01*
X140984000Y-100544500D01*
X140982856Y-100567779D01*
X140979437Y-100590834D01*
X140973773Y-100613443D01*
X140965921Y-100635387D01*
X140955956Y-100656457D01*
X140943974Y-100676448D01*
X140930090Y-100695168D01*
X140914438Y-100712438D01*
X140897168Y-100728090D01*
X140878448Y-100741974D01*
X140858457Y-100753956D01*
X140837387Y-100763921D01*
X140815443Y-100771773D01*
X140792834Y-100777437D01*
X140769779Y-100780856D01*
X140746500Y-100782000D01*
X140271500Y-100782000D01*
X140248221Y-100780856D01*
X140225166Y-100777437D01*
X140202557Y-100771773D01*
X140180613Y-100763921D01*
X140159543Y-100753956D01*
X140139552Y-100741974D01*
X140120832Y-100728090D01*
X140103562Y-100712438D01*
X140087910Y-100695168D01*
X140074026Y-100676448D01*
X140062044Y-100656457D01*
X140052079Y-100635387D01*
X140044227Y-100613443D01*
X140038563Y-100590834D01*
X140035144Y-100567779D01*
X140034000Y-100544500D01*
X140034000Y-99969500D01*
X140035144Y-99946221D01*
X140038563Y-99923166D01*
X140044227Y-99900557D01*
X140052079Y-99878613D01*
X140062044Y-99857543D01*
X140074026Y-99837552D01*
X140087910Y-99818832D01*
X140103562Y-99801562D01*
X140120832Y-99785910D01*
X140139552Y-99772026D01*
X140159543Y-99760044D01*
X140180613Y-99750079D01*
X140202557Y-99742227D01*
X140225166Y-99736563D01*
X140248221Y-99733144D01*
X140271500Y-99732000D01*
X140746500Y-99732000D01*
X140769779Y-99733144D01*
X140769779Y-99733144D01*
G37*
D17*
X140509000Y-100257000D03*
D10*
G36*
X140769779Y-97983144D02*
G01*
X140792834Y-97986563D01*
X140815443Y-97992227D01*
X140837387Y-98000079D01*
X140858457Y-98010044D01*
X140878448Y-98022026D01*
X140897168Y-98035910D01*
X140914438Y-98051562D01*
X140930090Y-98068832D01*
X140943974Y-98087552D01*
X140955956Y-98107543D01*
X140965921Y-98128613D01*
X140973773Y-98150557D01*
X140979437Y-98173166D01*
X140982856Y-98196221D01*
X140984000Y-98219500D01*
X140984000Y-98794500D01*
X140982856Y-98817779D01*
X140979437Y-98840834D01*
X140973773Y-98863443D01*
X140965921Y-98885387D01*
X140955956Y-98906457D01*
X140943974Y-98926448D01*
X140930090Y-98945168D01*
X140914438Y-98962438D01*
X140897168Y-98978090D01*
X140878448Y-98991974D01*
X140858457Y-99003956D01*
X140837387Y-99013921D01*
X140815443Y-99021773D01*
X140792834Y-99027437D01*
X140769779Y-99030856D01*
X140746500Y-99032000D01*
X140271500Y-99032000D01*
X140248221Y-99030856D01*
X140225166Y-99027437D01*
X140202557Y-99021773D01*
X140180613Y-99013921D01*
X140159543Y-99003956D01*
X140139552Y-98991974D01*
X140120832Y-98978090D01*
X140103562Y-98962438D01*
X140087910Y-98945168D01*
X140074026Y-98926448D01*
X140062044Y-98906457D01*
X140052079Y-98885387D01*
X140044227Y-98863443D01*
X140038563Y-98840834D01*
X140035144Y-98817779D01*
X140034000Y-98794500D01*
X140034000Y-98219500D01*
X140035144Y-98196221D01*
X140038563Y-98173166D01*
X140044227Y-98150557D01*
X140052079Y-98128613D01*
X140062044Y-98107543D01*
X140074026Y-98087552D01*
X140087910Y-98068832D01*
X140103562Y-98051562D01*
X140120832Y-98035910D01*
X140139552Y-98022026D01*
X140159543Y-98010044D01*
X140180613Y-98000079D01*
X140202557Y-97992227D01*
X140225166Y-97986563D01*
X140248221Y-97983144D01*
X140271500Y-97982000D01*
X140746500Y-97982000D01*
X140769779Y-97983144D01*
X140769779Y-97983144D01*
G37*
D17*
X140509000Y-98507000D03*
D18*
X153650000Y-88565000D03*
X153650000Y-91615000D03*
X154650000Y-88565000D03*
X154650000Y-91615000D03*
X155650000Y-88565000D03*
X155650000Y-91615000D03*
X156650000Y-88565000D03*
X156650000Y-91615000D03*
X157650000Y-88565000D03*
X157650000Y-91615000D03*
X158650000Y-88565000D03*
X158650000Y-91615000D03*
D10*
G36*
X162904779Y-87501144D02*
G01*
X162927834Y-87504563D01*
X162950443Y-87510227D01*
X162972387Y-87518079D01*
X162993457Y-87528044D01*
X163013448Y-87540026D01*
X163032168Y-87553910D01*
X163049438Y-87569562D01*
X163065090Y-87586832D01*
X163078974Y-87605552D01*
X163090956Y-87625543D01*
X163100921Y-87646613D01*
X163108773Y-87668557D01*
X163114437Y-87691166D01*
X163117856Y-87714221D01*
X163119000Y-87737500D01*
X163119000Y-88312500D01*
X163117856Y-88335779D01*
X163114437Y-88358834D01*
X163108773Y-88381443D01*
X163100921Y-88403387D01*
X163090956Y-88424457D01*
X163078974Y-88444448D01*
X163065090Y-88463168D01*
X163049438Y-88480438D01*
X163032168Y-88496090D01*
X163013448Y-88509974D01*
X162993457Y-88521956D01*
X162972387Y-88531921D01*
X162950443Y-88539773D01*
X162927834Y-88545437D01*
X162904779Y-88548856D01*
X162881500Y-88550000D01*
X162406500Y-88550000D01*
X162383221Y-88548856D01*
X162360166Y-88545437D01*
X162337557Y-88539773D01*
X162315613Y-88531921D01*
X162294543Y-88521956D01*
X162274552Y-88509974D01*
X162255832Y-88496090D01*
X162238562Y-88480438D01*
X162222910Y-88463168D01*
X162209026Y-88444448D01*
X162197044Y-88424457D01*
X162187079Y-88403387D01*
X162179227Y-88381443D01*
X162173563Y-88358834D01*
X162170144Y-88335779D01*
X162169000Y-88312500D01*
X162169000Y-87737500D01*
X162170144Y-87714221D01*
X162173563Y-87691166D01*
X162179227Y-87668557D01*
X162187079Y-87646613D01*
X162197044Y-87625543D01*
X162209026Y-87605552D01*
X162222910Y-87586832D01*
X162238562Y-87569562D01*
X162255832Y-87553910D01*
X162274552Y-87540026D01*
X162294543Y-87528044D01*
X162315613Y-87518079D01*
X162337557Y-87510227D01*
X162360166Y-87504563D01*
X162383221Y-87501144D01*
X162406500Y-87500000D01*
X162881500Y-87500000D01*
X162904779Y-87501144D01*
X162904779Y-87501144D01*
G37*
D17*
X162644000Y-88025000D03*
D10*
G36*
X162904779Y-89251144D02*
G01*
X162927834Y-89254563D01*
X162950443Y-89260227D01*
X162972387Y-89268079D01*
X162993457Y-89278044D01*
X163013448Y-89290026D01*
X163032168Y-89303910D01*
X163049438Y-89319562D01*
X163065090Y-89336832D01*
X163078974Y-89355552D01*
X163090956Y-89375543D01*
X163100921Y-89396613D01*
X163108773Y-89418557D01*
X163114437Y-89441166D01*
X163117856Y-89464221D01*
X163119000Y-89487500D01*
X163119000Y-90062500D01*
X163117856Y-90085779D01*
X163114437Y-90108834D01*
X163108773Y-90131443D01*
X163100921Y-90153387D01*
X163090956Y-90174457D01*
X163078974Y-90194448D01*
X163065090Y-90213168D01*
X163049438Y-90230438D01*
X163032168Y-90246090D01*
X163013448Y-90259974D01*
X162993457Y-90271956D01*
X162972387Y-90281921D01*
X162950443Y-90289773D01*
X162927834Y-90295437D01*
X162904779Y-90298856D01*
X162881500Y-90300000D01*
X162406500Y-90300000D01*
X162383221Y-90298856D01*
X162360166Y-90295437D01*
X162337557Y-90289773D01*
X162315613Y-90281921D01*
X162294543Y-90271956D01*
X162274552Y-90259974D01*
X162255832Y-90246090D01*
X162238562Y-90230438D01*
X162222910Y-90213168D01*
X162209026Y-90194448D01*
X162197044Y-90174457D01*
X162187079Y-90153387D01*
X162179227Y-90131443D01*
X162173563Y-90108834D01*
X162170144Y-90085779D01*
X162169000Y-90062500D01*
X162169000Y-89487500D01*
X162170144Y-89464221D01*
X162173563Y-89441166D01*
X162179227Y-89418557D01*
X162187079Y-89396613D01*
X162197044Y-89375543D01*
X162209026Y-89355552D01*
X162222910Y-89336832D01*
X162238562Y-89319562D01*
X162255832Y-89303910D01*
X162274552Y-89290026D01*
X162294543Y-89278044D01*
X162315613Y-89268079D01*
X162337557Y-89260227D01*
X162360166Y-89254563D01*
X162383221Y-89251144D01*
X162406500Y-89250000D01*
X162881500Y-89250000D01*
X162904779Y-89251144D01*
X162904779Y-89251144D01*
G37*
D17*
X162644000Y-89775000D03*
D10*
G36*
X158608779Y-106283144D02*
G01*
X158631834Y-106286563D01*
X158654443Y-106292227D01*
X158676387Y-106300079D01*
X158697457Y-106310044D01*
X158717448Y-106322026D01*
X158736168Y-106335910D01*
X158753438Y-106351562D01*
X158769090Y-106368832D01*
X158782974Y-106387552D01*
X158794956Y-106407543D01*
X158804921Y-106428613D01*
X158812773Y-106450557D01*
X158818437Y-106473166D01*
X158821856Y-106496221D01*
X158823000Y-106519500D01*
X158823000Y-106994500D01*
X158821856Y-107017779D01*
X158818437Y-107040834D01*
X158812773Y-107063443D01*
X158804921Y-107085387D01*
X158794956Y-107106457D01*
X158782974Y-107126448D01*
X158769090Y-107145168D01*
X158753438Y-107162438D01*
X158736168Y-107178090D01*
X158717448Y-107191974D01*
X158697457Y-107203956D01*
X158676387Y-107213921D01*
X158654443Y-107221773D01*
X158631834Y-107227437D01*
X158608779Y-107230856D01*
X158585500Y-107232000D01*
X158010500Y-107232000D01*
X157987221Y-107230856D01*
X157964166Y-107227437D01*
X157941557Y-107221773D01*
X157919613Y-107213921D01*
X157898543Y-107203956D01*
X157878552Y-107191974D01*
X157859832Y-107178090D01*
X157842562Y-107162438D01*
X157826910Y-107145168D01*
X157813026Y-107126448D01*
X157801044Y-107106457D01*
X157791079Y-107085387D01*
X157783227Y-107063443D01*
X157777563Y-107040834D01*
X157774144Y-107017779D01*
X157773000Y-106994500D01*
X157773000Y-106519500D01*
X157774144Y-106496221D01*
X157777563Y-106473166D01*
X157783227Y-106450557D01*
X157791079Y-106428613D01*
X157801044Y-106407543D01*
X157813026Y-106387552D01*
X157826910Y-106368832D01*
X157842562Y-106351562D01*
X157859832Y-106335910D01*
X157878552Y-106322026D01*
X157898543Y-106310044D01*
X157919613Y-106300079D01*
X157941557Y-106292227D01*
X157964166Y-106286563D01*
X157987221Y-106283144D01*
X158010500Y-106282000D01*
X158585500Y-106282000D01*
X158608779Y-106283144D01*
X158608779Y-106283144D01*
G37*
D17*
X158298000Y-106757000D03*
D10*
G36*
X156858779Y-106283144D02*
G01*
X156881834Y-106286563D01*
X156904443Y-106292227D01*
X156926387Y-106300079D01*
X156947457Y-106310044D01*
X156967448Y-106322026D01*
X156986168Y-106335910D01*
X157003438Y-106351562D01*
X157019090Y-106368832D01*
X157032974Y-106387552D01*
X157044956Y-106407543D01*
X157054921Y-106428613D01*
X157062773Y-106450557D01*
X157068437Y-106473166D01*
X157071856Y-106496221D01*
X157073000Y-106519500D01*
X157073000Y-106994500D01*
X157071856Y-107017779D01*
X157068437Y-107040834D01*
X157062773Y-107063443D01*
X157054921Y-107085387D01*
X157044956Y-107106457D01*
X157032974Y-107126448D01*
X157019090Y-107145168D01*
X157003438Y-107162438D01*
X156986168Y-107178090D01*
X156967448Y-107191974D01*
X156947457Y-107203956D01*
X156926387Y-107213921D01*
X156904443Y-107221773D01*
X156881834Y-107227437D01*
X156858779Y-107230856D01*
X156835500Y-107232000D01*
X156260500Y-107232000D01*
X156237221Y-107230856D01*
X156214166Y-107227437D01*
X156191557Y-107221773D01*
X156169613Y-107213921D01*
X156148543Y-107203956D01*
X156128552Y-107191974D01*
X156109832Y-107178090D01*
X156092562Y-107162438D01*
X156076910Y-107145168D01*
X156063026Y-107126448D01*
X156051044Y-107106457D01*
X156041079Y-107085387D01*
X156033227Y-107063443D01*
X156027563Y-107040834D01*
X156024144Y-107017779D01*
X156023000Y-106994500D01*
X156023000Y-106519500D01*
X156024144Y-106496221D01*
X156027563Y-106473166D01*
X156033227Y-106450557D01*
X156041079Y-106428613D01*
X156051044Y-106407543D01*
X156063026Y-106387552D01*
X156076910Y-106368832D01*
X156092562Y-106351562D01*
X156109832Y-106335910D01*
X156128552Y-106322026D01*
X156148543Y-106310044D01*
X156169613Y-106300079D01*
X156191557Y-106292227D01*
X156214166Y-106286563D01*
X156237221Y-106283144D01*
X156260500Y-106282000D01*
X156835500Y-106282000D01*
X156858779Y-106283144D01*
X156858779Y-106283144D01*
G37*
D17*
X156548000Y-106757000D03*
D10*
G36*
X143584779Y-104946144D02*
G01*
X143607834Y-104949563D01*
X143630443Y-104955227D01*
X143652387Y-104963079D01*
X143673457Y-104973044D01*
X143693448Y-104985026D01*
X143712168Y-104998910D01*
X143729438Y-105014562D01*
X143745090Y-105031832D01*
X143758974Y-105050552D01*
X143770956Y-105070543D01*
X143780921Y-105091613D01*
X143788773Y-105113557D01*
X143794437Y-105136166D01*
X143797856Y-105159221D01*
X143799000Y-105182500D01*
X143799000Y-105757500D01*
X143797856Y-105780779D01*
X143794437Y-105803834D01*
X143788773Y-105826443D01*
X143780921Y-105848387D01*
X143770956Y-105869457D01*
X143758974Y-105889448D01*
X143745090Y-105908168D01*
X143729438Y-105925438D01*
X143712168Y-105941090D01*
X143693448Y-105954974D01*
X143673457Y-105966956D01*
X143652387Y-105976921D01*
X143630443Y-105984773D01*
X143607834Y-105990437D01*
X143584779Y-105993856D01*
X143561500Y-105995000D01*
X143086500Y-105995000D01*
X143063221Y-105993856D01*
X143040166Y-105990437D01*
X143017557Y-105984773D01*
X142995613Y-105976921D01*
X142974543Y-105966956D01*
X142954552Y-105954974D01*
X142935832Y-105941090D01*
X142918562Y-105925438D01*
X142902910Y-105908168D01*
X142889026Y-105889448D01*
X142877044Y-105869457D01*
X142867079Y-105848387D01*
X142859227Y-105826443D01*
X142853563Y-105803834D01*
X142850144Y-105780779D01*
X142849000Y-105757500D01*
X142849000Y-105182500D01*
X142850144Y-105159221D01*
X142853563Y-105136166D01*
X142859227Y-105113557D01*
X142867079Y-105091613D01*
X142877044Y-105070543D01*
X142889026Y-105050552D01*
X142902910Y-105031832D01*
X142918562Y-105014562D01*
X142935832Y-104998910D01*
X142954552Y-104985026D01*
X142974543Y-104973044D01*
X142995613Y-104963079D01*
X143017557Y-104955227D01*
X143040166Y-104949563D01*
X143063221Y-104946144D01*
X143086500Y-104945000D01*
X143561500Y-104945000D01*
X143584779Y-104946144D01*
X143584779Y-104946144D01*
G37*
D17*
X143324000Y-105470000D03*
D10*
G36*
X143584779Y-103196144D02*
G01*
X143607834Y-103199563D01*
X143630443Y-103205227D01*
X143652387Y-103213079D01*
X143673457Y-103223044D01*
X143693448Y-103235026D01*
X143712168Y-103248910D01*
X143729438Y-103264562D01*
X143745090Y-103281832D01*
X143758974Y-103300552D01*
X143770956Y-103320543D01*
X143780921Y-103341613D01*
X143788773Y-103363557D01*
X143794437Y-103386166D01*
X143797856Y-103409221D01*
X143799000Y-103432500D01*
X143799000Y-104007500D01*
X143797856Y-104030779D01*
X143794437Y-104053834D01*
X143788773Y-104076443D01*
X143780921Y-104098387D01*
X143770956Y-104119457D01*
X143758974Y-104139448D01*
X143745090Y-104158168D01*
X143729438Y-104175438D01*
X143712168Y-104191090D01*
X143693448Y-104204974D01*
X143673457Y-104216956D01*
X143652387Y-104226921D01*
X143630443Y-104234773D01*
X143607834Y-104240437D01*
X143584779Y-104243856D01*
X143561500Y-104245000D01*
X143086500Y-104245000D01*
X143063221Y-104243856D01*
X143040166Y-104240437D01*
X143017557Y-104234773D01*
X142995613Y-104226921D01*
X142974543Y-104216956D01*
X142954552Y-104204974D01*
X142935832Y-104191090D01*
X142918562Y-104175438D01*
X142902910Y-104158168D01*
X142889026Y-104139448D01*
X142877044Y-104119457D01*
X142867079Y-104098387D01*
X142859227Y-104076443D01*
X142853563Y-104053834D01*
X142850144Y-104030779D01*
X142849000Y-104007500D01*
X142849000Y-103432500D01*
X142850144Y-103409221D01*
X142853563Y-103386166D01*
X142859227Y-103363557D01*
X142867079Y-103341613D01*
X142877044Y-103320543D01*
X142889026Y-103300552D01*
X142902910Y-103281832D01*
X142918562Y-103264562D01*
X142935832Y-103248910D01*
X142954552Y-103235026D01*
X142974543Y-103223044D01*
X142995613Y-103213079D01*
X143017557Y-103205227D01*
X143040166Y-103199563D01*
X143063221Y-103196144D01*
X143086500Y-103195000D01*
X143561500Y-103195000D01*
X143584779Y-103196144D01*
X143584779Y-103196144D01*
G37*
D17*
X143324000Y-103720000D03*
D10*
G36*
X151083779Y-103195144D02*
G01*
X151106834Y-103198563D01*
X151129443Y-103204227D01*
X151151387Y-103212079D01*
X151172457Y-103222044D01*
X151192448Y-103234026D01*
X151211168Y-103247910D01*
X151228438Y-103263562D01*
X151244090Y-103280832D01*
X151257974Y-103299552D01*
X151269956Y-103319543D01*
X151279921Y-103340613D01*
X151287773Y-103362557D01*
X151293437Y-103385166D01*
X151296856Y-103408221D01*
X151298000Y-103431500D01*
X151298000Y-104006500D01*
X151296856Y-104029779D01*
X151293437Y-104052834D01*
X151287773Y-104075443D01*
X151279921Y-104097387D01*
X151269956Y-104118457D01*
X151257974Y-104138448D01*
X151244090Y-104157168D01*
X151228438Y-104174438D01*
X151211168Y-104190090D01*
X151192448Y-104203974D01*
X151172457Y-104215956D01*
X151151387Y-104225921D01*
X151129443Y-104233773D01*
X151106834Y-104239437D01*
X151083779Y-104242856D01*
X151060500Y-104244000D01*
X150585500Y-104244000D01*
X150562221Y-104242856D01*
X150539166Y-104239437D01*
X150516557Y-104233773D01*
X150494613Y-104225921D01*
X150473543Y-104215956D01*
X150453552Y-104203974D01*
X150434832Y-104190090D01*
X150417562Y-104174438D01*
X150401910Y-104157168D01*
X150388026Y-104138448D01*
X150376044Y-104118457D01*
X150366079Y-104097387D01*
X150358227Y-104075443D01*
X150352563Y-104052834D01*
X150349144Y-104029779D01*
X150348000Y-104006500D01*
X150348000Y-103431500D01*
X150349144Y-103408221D01*
X150352563Y-103385166D01*
X150358227Y-103362557D01*
X150366079Y-103340613D01*
X150376044Y-103319543D01*
X150388026Y-103299552D01*
X150401910Y-103280832D01*
X150417562Y-103263562D01*
X150434832Y-103247910D01*
X150453552Y-103234026D01*
X150473543Y-103222044D01*
X150494613Y-103212079D01*
X150516557Y-103204227D01*
X150539166Y-103198563D01*
X150562221Y-103195144D01*
X150585500Y-103194000D01*
X151060500Y-103194000D01*
X151083779Y-103195144D01*
X151083779Y-103195144D01*
G37*
D17*
X150823000Y-103719000D03*
D10*
G36*
X151083779Y-104945144D02*
G01*
X151106834Y-104948563D01*
X151129443Y-104954227D01*
X151151387Y-104962079D01*
X151172457Y-104972044D01*
X151192448Y-104984026D01*
X151211168Y-104997910D01*
X151228438Y-105013562D01*
X151244090Y-105030832D01*
X151257974Y-105049552D01*
X151269956Y-105069543D01*
X151279921Y-105090613D01*
X151287773Y-105112557D01*
X151293437Y-105135166D01*
X151296856Y-105158221D01*
X151298000Y-105181500D01*
X151298000Y-105756500D01*
X151296856Y-105779779D01*
X151293437Y-105802834D01*
X151287773Y-105825443D01*
X151279921Y-105847387D01*
X151269956Y-105868457D01*
X151257974Y-105888448D01*
X151244090Y-105907168D01*
X151228438Y-105924438D01*
X151211168Y-105940090D01*
X151192448Y-105953974D01*
X151172457Y-105965956D01*
X151151387Y-105975921D01*
X151129443Y-105983773D01*
X151106834Y-105989437D01*
X151083779Y-105992856D01*
X151060500Y-105994000D01*
X150585500Y-105994000D01*
X150562221Y-105992856D01*
X150539166Y-105989437D01*
X150516557Y-105983773D01*
X150494613Y-105975921D01*
X150473543Y-105965956D01*
X150453552Y-105953974D01*
X150434832Y-105940090D01*
X150417562Y-105924438D01*
X150401910Y-105907168D01*
X150388026Y-105888448D01*
X150376044Y-105868457D01*
X150366079Y-105847387D01*
X150358227Y-105825443D01*
X150352563Y-105802834D01*
X150349144Y-105779779D01*
X150348000Y-105756500D01*
X150348000Y-105181500D01*
X150349144Y-105158221D01*
X150352563Y-105135166D01*
X150358227Y-105112557D01*
X150366079Y-105090613D01*
X150376044Y-105069543D01*
X150388026Y-105049552D01*
X150401910Y-105030832D01*
X150417562Y-105013562D01*
X150434832Y-104997910D01*
X150453552Y-104984026D01*
X150473543Y-104972044D01*
X150494613Y-104962079D01*
X150516557Y-104954227D01*
X150539166Y-104948563D01*
X150562221Y-104945144D01*
X150585500Y-104944000D01*
X151060500Y-104944000D01*
X151083779Y-104945144D01*
X151083779Y-104945144D01*
G37*
D17*
X150823000Y-105469000D03*
D10*
G36*
X144238779Y-86569144D02*
G01*
X144261834Y-86572563D01*
X144284443Y-86578227D01*
X144306387Y-86586079D01*
X144327457Y-86596044D01*
X144347448Y-86608026D01*
X144366168Y-86621910D01*
X144383438Y-86637562D01*
X144399090Y-86654832D01*
X144412974Y-86673552D01*
X144424956Y-86693543D01*
X144434921Y-86714613D01*
X144442773Y-86736557D01*
X144448437Y-86759166D01*
X144451856Y-86782221D01*
X144453000Y-86805500D01*
X144453000Y-87380500D01*
X144451856Y-87403779D01*
X144448437Y-87426834D01*
X144442773Y-87449443D01*
X144434921Y-87471387D01*
X144424956Y-87492457D01*
X144412974Y-87512448D01*
X144399090Y-87531168D01*
X144383438Y-87548438D01*
X144366168Y-87564090D01*
X144347448Y-87577974D01*
X144327457Y-87589956D01*
X144306387Y-87599921D01*
X144284443Y-87607773D01*
X144261834Y-87613437D01*
X144238779Y-87616856D01*
X144215500Y-87618000D01*
X143740500Y-87618000D01*
X143717221Y-87616856D01*
X143694166Y-87613437D01*
X143671557Y-87607773D01*
X143649613Y-87599921D01*
X143628543Y-87589956D01*
X143608552Y-87577974D01*
X143589832Y-87564090D01*
X143572562Y-87548438D01*
X143556910Y-87531168D01*
X143543026Y-87512448D01*
X143531044Y-87492457D01*
X143521079Y-87471387D01*
X143513227Y-87449443D01*
X143507563Y-87426834D01*
X143504144Y-87403779D01*
X143503000Y-87380500D01*
X143503000Y-86805500D01*
X143504144Y-86782221D01*
X143507563Y-86759166D01*
X143513227Y-86736557D01*
X143521079Y-86714613D01*
X143531044Y-86693543D01*
X143543026Y-86673552D01*
X143556910Y-86654832D01*
X143572562Y-86637562D01*
X143589832Y-86621910D01*
X143608552Y-86608026D01*
X143628543Y-86596044D01*
X143649613Y-86586079D01*
X143671557Y-86578227D01*
X143694166Y-86572563D01*
X143717221Y-86569144D01*
X143740500Y-86568000D01*
X144215500Y-86568000D01*
X144238779Y-86569144D01*
X144238779Y-86569144D01*
G37*
D17*
X143978000Y-87093000D03*
D10*
G36*
X144238779Y-88319144D02*
G01*
X144261834Y-88322563D01*
X144284443Y-88328227D01*
X144306387Y-88336079D01*
X144327457Y-88346044D01*
X144347448Y-88358026D01*
X144366168Y-88371910D01*
X144383438Y-88387562D01*
X144399090Y-88404832D01*
X144412974Y-88423552D01*
X144424956Y-88443543D01*
X144434921Y-88464613D01*
X144442773Y-88486557D01*
X144448437Y-88509166D01*
X144451856Y-88532221D01*
X144453000Y-88555500D01*
X144453000Y-89130500D01*
X144451856Y-89153779D01*
X144448437Y-89176834D01*
X144442773Y-89199443D01*
X144434921Y-89221387D01*
X144424956Y-89242457D01*
X144412974Y-89262448D01*
X144399090Y-89281168D01*
X144383438Y-89298438D01*
X144366168Y-89314090D01*
X144347448Y-89327974D01*
X144327457Y-89339956D01*
X144306387Y-89349921D01*
X144284443Y-89357773D01*
X144261834Y-89363437D01*
X144238779Y-89366856D01*
X144215500Y-89368000D01*
X143740500Y-89368000D01*
X143717221Y-89366856D01*
X143694166Y-89363437D01*
X143671557Y-89357773D01*
X143649613Y-89349921D01*
X143628543Y-89339956D01*
X143608552Y-89327974D01*
X143589832Y-89314090D01*
X143572562Y-89298438D01*
X143556910Y-89281168D01*
X143543026Y-89262448D01*
X143531044Y-89242457D01*
X143521079Y-89221387D01*
X143513227Y-89199443D01*
X143507563Y-89176834D01*
X143504144Y-89153779D01*
X143503000Y-89130500D01*
X143503000Y-88555500D01*
X143504144Y-88532221D01*
X143507563Y-88509166D01*
X143513227Y-88486557D01*
X143521079Y-88464613D01*
X143531044Y-88443543D01*
X143543026Y-88423552D01*
X143556910Y-88404832D01*
X143572562Y-88387562D01*
X143589832Y-88371910D01*
X143608552Y-88358026D01*
X143628543Y-88346044D01*
X143649613Y-88336079D01*
X143671557Y-88328227D01*
X143694166Y-88322563D01*
X143717221Y-88319144D01*
X143740500Y-88318000D01*
X144215500Y-88318000D01*
X144238779Y-88319144D01*
X144238779Y-88319144D01*
G37*
D17*
X143978000Y-88843000D03*
D10*
G36*
X142493779Y-90073144D02*
G01*
X142516834Y-90076563D01*
X142539443Y-90082227D01*
X142561387Y-90090079D01*
X142582457Y-90100044D01*
X142602448Y-90112026D01*
X142621168Y-90125910D01*
X142638438Y-90141562D01*
X142654090Y-90158832D01*
X142667974Y-90177552D01*
X142679956Y-90197543D01*
X142689921Y-90218613D01*
X142697773Y-90240557D01*
X142703437Y-90263166D01*
X142706856Y-90286221D01*
X142708000Y-90309500D01*
X142708000Y-90784500D01*
X142706856Y-90807779D01*
X142703437Y-90830834D01*
X142697773Y-90853443D01*
X142689921Y-90875387D01*
X142679956Y-90896457D01*
X142667974Y-90916448D01*
X142654090Y-90935168D01*
X142638438Y-90952438D01*
X142621168Y-90968090D01*
X142602448Y-90981974D01*
X142582457Y-90993956D01*
X142561387Y-91003921D01*
X142539443Y-91011773D01*
X142516834Y-91017437D01*
X142493779Y-91020856D01*
X142470500Y-91022000D01*
X141895500Y-91022000D01*
X141872221Y-91020856D01*
X141849166Y-91017437D01*
X141826557Y-91011773D01*
X141804613Y-91003921D01*
X141783543Y-90993956D01*
X141763552Y-90981974D01*
X141744832Y-90968090D01*
X141727562Y-90952438D01*
X141711910Y-90935168D01*
X141698026Y-90916448D01*
X141686044Y-90896457D01*
X141676079Y-90875387D01*
X141668227Y-90853443D01*
X141662563Y-90830834D01*
X141659144Y-90807779D01*
X141658000Y-90784500D01*
X141658000Y-90309500D01*
X141659144Y-90286221D01*
X141662563Y-90263166D01*
X141668227Y-90240557D01*
X141676079Y-90218613D01*
X141686044Y-90197543D01*
X141698026Y-90177552D01*
X141711910Y-90158832D01*
X141727562Y-90141562D01*
X141744832Y-90125910D01*
X141763552Y-90112026D01*
X141783543Y-90100044D01*
X141804613Y-90090079D01*
X141826557Y-90082227D01*
X141849166Y-90076563D01*
X141872221Y-90073144D01*
X141895500Y-90072000D01*
X142470500Y-90072000D01*
X142493779Y-90073144D01*
X142493779Y-90073144D01*
G37*
D17*
X142183000Y-90547000D03*
D10*
G36*
X144243779Y-90073144D02*
G01*
X144266834Y-90076563D01*
X144289443Y-90082227D01*
X144311387Y-90090079D01*
X144332457Y-90100044D01*
X144352448Y-90112026D01*
X144371168Y-90125910D01*
X144388438Y-90141562D01*
X144404090Y-90158832D01*
X144417974Y-90177552D01*
X144429956Y-90197543D01*
X144439921Y-90218613D01*
X144447773Y-90240557D01*
X144453437Y-90263166D01*
X144456856Y-90286221D01*
X144458000Y-90309500D01*
X144458000Y-90784500D01*
X144456856Y-90807779D01*
X144453437Y-90830834D01*
X144447773Y-90853443D01*
X144439921Y-90875387D01*
X144429956Y-90896457D01*
X144417974Y-90916448D01*
X144404090Y-90935168D01*
X144388438Y-90952438D01*
X144371168Y-90968090D01*
X144352448Y-90981974D01*
X144332457Y-90993956D01*
X144311387Y-91003921D01*
X144289443Y-91011773D01*
X144266834Y-91017437D01*
X144243779Y-91020856D01*
X144220500Y-91022000D01*
X143645500Y-91022000D01*
X143622221Y-91020856D01*
X143599166Y-91017437D01*
X143576557Y-91011773D01*
X143554613Y-91003921D01*
X143533543Y-90993956D01*
X143513552Y-90981974D01*
X143494832Y-90968090D01*
X143477562Y-90952438D01*
X143461910Y-90935168D01*
X143448026Y-90916448D01*
X143436044Y-90896457D01*
X143426079Y-90875387D01*
X143418227Y-90853443D01*
X143412563Y-90830834D01*
X143409144Y-90807779D01*
X143408000Y-90784500D01*
X143408000Y-90309500D01*
X143409144Y-90286221D01*
X143412563Y-90263166D01*
X143418227Y-90240557D01*
X143426079Y-90218613D01*
X143436044Y-90197543D01*
X143448026Y-90177552D01*
X143461910Y-90158832D01*
X143477562Y-90141562D01*
X143494832Y-90125910D01*
X143513552Y-90112026D01*
X143533543Y-90100044D01*
X143554613Y-90090079D01*
X143576557Y-90082227D01*
X143599166Y-90076563D01*
X143622221Y-90073144D01*
X143645500Y-90072000D01*
X144220500Y-90072000D01*
X144243779Y-90073144D01*
X144243779Y-90073144D01*
G37*
D17*
X143933000Y-90547000D03*
D10*
G36*
X141791779Y-103198144D02*
G01*
X141814834Y-103201563D01*
X141837443Y-103207227D01*
X141859387Y-103215079D01*
X141880457Y-103225044D01*
X141900448Y-103237026D01*
X141919168Y-103250910D01*
X141936438Y-103266562D01*
X141952090Y-103283832D01*
X141965974Y-103302552D01*
X141977956Y-103322543D01*
X141987921Y-103343613D01*
X141995773Y-103365557D01*
X142001437Y-103388166D01*
X142004856Y-103411221D01*
X142006000Y-103434500D01*
X142006000Y-104009500D01*
X142004856Y-104032779D01*
X142001437Y-104055834D01*
X141995773Y-104078443D01*
X141987921Y-104100387D01*
X141977956Y-104121457D01*
X141965974Y-104141448D01*
X141952090Y-104160168D01*
X141936438Y-104177438D01*
X141919168Y-104193090D01*
X141900448Y-104206974D01*
X141880457Y-104218956D01*
X141859387Y-104228921D01*
X141837443Y-104236773D01*
X141814834Y-104242437D01*
X141791779Y-104245856D01*
X141768500Y-104247000D01*
X141293500Y-104247000D01*
X141270221Y-104245856D01*
X141247166Y-104242437D01*
X141224557Y-104236773D01*
X141202613Y-104228921D01*
X141181543Y-104218956D01*
X141161552Y-104206974D01*
X141142832Y-104193090D01*
X141125562Y-104177438D01*
X141109910Y-104160168D01*
X141096026Y-104141448D01*
X141084044Y-104121457D01*
X141074079Y-104100387D01*
X141066227Y-104078443D01*
X141060563Y-104055834D01*
X141057144Y-104032779D01*
X141056000Y-104009500D01*
X141056000Y-103434500D01*
X141057144Y-103411221D01*
X141060563Y-103388166D01*
X141066227Y-103365557D01*
X141074079Y-103343613D01*
X141084044Y-103322543D01*
X141096026Y-103302552D01*
X141109910Y-103283832D01*
X141125562Y-103266562D01*
X141142832Y-103250910D01*
X141161552Y-103237026D01*
X141181543Y-103225044D01*
X141202613Y-103215079D01*
X141224557Y-103207227D01*
X141247166Y-103201563D01*
X141270221Y-103198144D01*
X141293500Y-103197000D01*
X141768500Y-103197000D01*
X141791779Y-103198144D01*
X141791779Y-103198144D01*
G37*
D17*
X141531000Y-103722000D03*
D10*
G36*
X141791779Y-104948144D02*
G01*
X141814834Y-104951563D01*
X141837443Y-104957227D01*
X141859387Y-104965079D01*
X141880457Y-104975044D01*
X141900448Y-104987026D01*
X141919168Y-105000910D01*
X141936438Y-105016562D01*
X141952090Y-105033832D01*
X141965974Y-105052552D01*
X141977956Y-105072543D01*
X141987921Y-105093613D01*
X141995773Y-105115557D01*
X142001437Y-105138166D01*
X142004856Y-105161221D01*
X142006000Y-105184500D01*
X142006000Y-105759500D01*
X142004856Y-105782779D01*
X142001437Y-105805834D01*
X141995773Y-105828443D01*
X141987921Y-105850387D01*
X141977956Y-105871457D01*
X141965974Y-105891448D01*
X141952090Y-105910168D01*
X141936438Y-105927438D01*
X141919168Y-105943090D01*
X141900448Y-105956974D01*
X141880457Y-105968956D01*
X141859387Y-105978921D01*
X141837443Y-105986773D01*
X141814834Y-105992437D01*
X141791779Y-105995856D01*
X141768500Y-105997000D01*
X141293500Y-105997000D01*
X141270221Y-105995856D01*
X141247166Y-105992437D01*
X141224557Y-105986773D01*
X141202613Y-105978921D01*
X141181543Y-105968956D01*
X141161552Y-105956974D01*
X141142832Y-105943090D01*
X141125562Y-105927438D01*
X141109910Y-105910168D01*
X141096026Y-105891448D01*
X141084044Y-105871457D01*
X141074079Y-105850387D01*
X141066227Y-105828443D01*
X141060563Y-105805834D01*
X141057144Y-105782779D01*
X141056000Y-105759500D01*
X141056000Y-105184500D01*
X141057144Y-105161221D01*
X141060563Y-105138166D01*
X141066227Y-105115557D01*
X141074079Y-105093613D01*
X141084044Y-105072543D01*
X141096026Y-105052552D01*
X141109910Y-105033832D01*
X141125562Y-105016562D01*
X141142832Y-105000910D01*
X141161552Y-104987026D01*
X141181543Y-104975044D01*
X141202613Y-104965079D01*
X141224557Y-104957227D01*
X141247166Y-104951563D01*
X141270221Y-104948144D01*
X141293500Y-104947000D01*
X141768500Y-104947000D01*
X141791779Y-104948144D01*
X141791779Y-104948144D01*
G37*
D17*
X141531000Y-105472000D03*
D10*
G36*
X142493779Y-91732144D02*
G01*
X142516834Y-91735563D01*
X142539443Y-91741227D01*
X142561387Y-91749079D01*
X142582457Y-91759044D01*
X142602448Y-91771026D01*
X142621168Y-91784910D01*
X142638438Y-91800562D01*
X142654090Y-91817832D01*
X142667974Y-91836552D01*
X142679956Y-91856543D01*
X142689921Y-91877613D01*
X142697773Y-91899557D01*
X142703437Y-91922166D01*
X142706856Y-91945221D01*
X142708000Y-91968500D01*
X142708000Y-92443500D01*
X142706856Y-92466779D01*
X142703437Y-92489834D01*
X142697773Y-92512443D01*
X142689921Y-92534387D01*
X142679956Y-92555457D01*
X142667974Y-92575448D01*
X142654090Y-92594168D01*
X142638438Y-92611438D01*
X142621168Y-92627090D01*
X142602448Y-92640974D01*
X142582457Y-92652956D01*
X142561387Y-92662921D01*
X142539443Y-92670773D01*
X142516834Y-92676437D01*
X142493779Y-92679856D01*
X142470500Y-92681000D01*
X141895500Y-92681000D01*
X141872221Y-92679856D01*
X141849166Y-92676437D01*
X141826557Y-92670773D01*
X141804613Y-92662921D01*
X141783543Y-92652956D01*
X141763552Y-92640974D01*
X141744832Y-92627090D01*
X141727562Y-92611438D01*
X141711910Y-92594168D01*
X141698026Y-92575448D01*
X141686044Y-92555457D01*
X141676079Y-92534387D01*
X141668227Y-92512443D01*
X141662563Y-92489834D01*
X141659144Y-92466779D01*
X141658000Y-92443500D01*
X141658000Y-91968500D01*
X141659144Y-91945221D01*
X141662563Y-91922166D01*
X141668227Y-91899557D01*
X141676079Y-91877613D01*
X141686044Y-91856543D01*
X141698026Y-91836552D01*
X141711910Y-91817832D01*
X141727562Y-91800562D01*
X141744832Y-91784910D01*
X141763552Y-91771026D01*
X141783543Y-91759044D01*
X141804613Y-91749079D01*
X141826557Y-91741227D01*
X141849166Y-91735563D01*
X141872221Y-91732144D01*
X141895500Y-91731000D01*
X142470500Y-91731000D01*
X142493779Y-91732144D01*
X142493779Y-91732144D01*
G37*
D17*
X142183000Y-92206000D03*
D10*
G36*
X144243779Y-91732144D02*
G01*
X144266834Y-91735563D01*
X144289443Y-91741227D01*
X144311387Y-91749079D01*
X144332457Y-91759044D01*
X144352448Y-91771026D01*
X144371168Y-91784910D01*
X144388438Y-91800562D01*
X144404090Y-91817832D01*
X144417974Y-91836552D01*
X144429956Y-91856543D01*
X144439921Y-91877613D01*
X144447773Y-91899557D01*
X144453437Y-91922166D01*
X144456856Y-91945221D01*
X144458000Y-91968500D01*
X144458000Y-92443500D01*
X144456856Y-92466779D01*
X144453437Y-92489834D01*
X144447773Y-92512443D01*
X144439921Y-92534387D01*
X144429956Y-92555457D01*
X144417974Y-92575448D01*
X144404090Y-92594168D01*
X144388438Y-92611438D01*
X144371168Y-92627090D01*
X144352448Y-92640974D01*
X144332457Y-92652956D01*
X144311387Y-92662921D01*
X144289443Y-92670773D01*
X144266834Y-92676437D01*
X144243779Y-92679856D01*
X144220500Y-92681000D01*
X143645500Y-92681000D01*
X143622221Y-92679856D01*
X143599166Y-92676437D01*
X143576557Y-92670773D01*
X143554613Y-92662921D01*
X143533543Y-92652956D01*
X143513552Y-92640974D01*
X143494832Y-92627090D01*
X143477562Y-92611438D01*
X143461910Y-92594168D01*
X143448026Y-92575448D01*
X143436044Y-92555457D01*
X143426079Y-92534387D01*
X143418227Y-92512443D01*
X143412563Y-92489834D01*
X143409144Y-92466779D01*
X143408000Y-92443500D01*
X143408000Y-91968500D01*
X143409144Y-91945221D01*
X143412563Y-91922166D01*
X143418227Y-91899557D01*
X143426079Y-91877613D01*
X143436044Y-91856543D01*
X143448026Y-91836552D01*
X143461910Y-91817832D01*
X143477562Y-91800562D01*
X143494832Y-91784910D01*
X143513552Y-91771026D01*
X143533543Y-91759044D01*
X143554613Y-91749079D01*
X143576557Y-91741227D01*
X143599166Y-91735563D01*
X143622221Y-91732144D01*
X143645500Y-91731000D01*
X144220500Y-91731000D01*
X144243779Y-91732144D01*
X144243779Y-91732144D01*
G37*
D17*
X143933000Y-92206000D03*
M02*
