G04 #@! TF.GenerationSoftware,KiCad,Pcbnew,(5.1.2)-1*
G04 #@! TF.CreationDate,2019-11-14T17:32:28+05:30*
G04 #@! TF.ProjectId,Frame,4672616d-652e-46b6-9963-61645f706362,rev?*
G04 #@! TF.SameCoordinates,Original*
G04 #@! TF.FileFunction,Legend,Top*
G04 #@! TF.FilePolarity,Positive*
%FSLAX46Y46*%
G04 Gerber Fmt 4.6, Leading zero omitted, Abs format (unit mm)*
G04 Created by KiCad (PCBNEW (5.1.2)-1) date 2019-11-14 17:32:28*
%MOMM*%
%LPD*%
G04 APERTURE LIST*
%ADD10C,0.200000*%
G04 APERTURE END LIST*
D10*
X134731000Y-38820571D02*
X135588142Y-38820571D01*
X135159571Y-40320571D02*
X135159571Y-38820571D01*
X136088142Y-40177714D02*
X136159571Y-40249142D01*
X136088142Y-40320571D01*
X136016714Y-40249142D01*
X136088142Y-40177714D01*
X136088142Y-40320571D01*
X136731000Y-39892000D02*
X137445285Y-39892000D01*
X136588142Y-40320571D02*
X137088142Y-38820571D01*
X137588142Y-40320571D01*
X138088142Y-40177714D02*
X138159571Y-40249142D01*
X138088142Y-40320571D01*
X138016714Y-40249142D01*
X138088142Y-40177714D01*
X138088142Y-40320571D01*
X139516714Y-40320571D02*
X138802428Y-40320571D01*
X138802428Y-38820571D01*
X140016714Y-40177714D02*
X140088142Y-40249142D01*
X140016714Y-40320571D01*
X139945285Y-40249142D01*
X140016714Y-40177714D01*
X140016714Y-40320571D01*
X140731000Y-40320571D02*
X140731000Y-38820571D01*
X141588142Y-40320571D02*
X140945285Y-39463428D01*
X141588142Y-38820571D02*
X140731000Y-39677714D01*
X142231000Y-40177714D02*
X142302428Y-40249142D01*
X142231000Y-40320571D01*
X142159571Y-40249142D01*
X142231000Y-40177714D01*
X142231000Y-40320571D01*
X144088142Y-40320571D02*
X144088142Y-38820571D01*
X144588142Y-39892000D01*
X145088142Y-38820571D01*
X145088142Y-40320571D01*
X146016714Y-40320571D02*
X145873857Y-40249142D01*
X145802428Y-40177714D01*
X145731000Y-40034857D01*
X145731000Y-39606285D01*
X145802428Y-39463428D01*
X145873857Y-39392000D01*
X146016714Y-39320571D01*
X146231000Y-39320571D01*
X146373857Y-39392000D01*
X146445285Y-39463428D01*
X146516714Y-39606285D01*
X146516714Y-40034857D01*
X146445285Y-40177714D01*
X146373857Y-40249142D01*
X146231000Y-40320571D01*
X146016714Y-40320571D01*
X146945285Y-39320571D02*
X147516714Y-39320571D01*
X147159571Y-38820571D02*
X147159571Y-40106285D01*
X147231000Y-40249142D01*
X147373857Y-40320571D01*
X147516714Y-40320571D01*
X148016714Y-40320571D02*
X148016714Y-38820571D01*
X148659571Y-40320571D02*
X148659571Y-39534857D01*
X148588142Y-39392000D01*
X148445285Y-39320571D01*
X148231000Y-39320571D01*
X148088142Y-39392000D01*
X148016714Y-39463428D01*
X149945285Y-40249142D02*
X149802428Y-40320571D01*
X149516714Y-40320571D01*
X149373857Y-40249142D01*
X149302428Y-40106285D01*
X149302428Y-39534857D01*
X149373857Y-39392000D01*
X149516714Y-39320571D01*
X149802428Y-39320571D01*
X149945285Y-39392000D01*
X150016714Y-39534857D01*
X150016714Y-39677714D01*
X149302428Y-39820571D01*
X150659571Y-40320571D02*
X150659571Y-39320571D01*
X150659571Y-39606285D02*
X150731000Y-39463428D01*
X150802428Y-39392000D01*
X150945285Y-39320571D01*
X151088142Y-39320571D01*
X153231000Y-39534857D02*
X153445285Y-39606285D01*
X153516714Y-39677714D01*
X153588142Y-39820571D01*
X153588142Y-40034857D01*
X153516714Y-40177714D01*
X153445285Y-40249142D01*
X153302428Y-40320571D01*
X152731000Y-40320571D01*
X152731000Y-38820571D01*
X153231000Y-38820571D01*
X153373857Y-38892000D01*
X153445285Y-38963428D01*
X153516714Y-39106285D01*
X153516714Y-39249142D01*
X153445285Y-39392000D01*
X153373857Y-39463428D01*
X153231000Y-39534857D01*
X152731000Y-39534857D01*
X154445285Y-40320571D02*
X154302428Y-40249142D01*
X154231000Y-40177714D01*
X154159571Y-40034857D01*
X154159571Y-39606285D01*
X154231000Y-39463428D01*
X154302428Y-39392000D01*
X154445285Y-39320571D01*
X154659571Y-39320571D01*
X154802428Y-39392000D01*
X154873857Y-39463428D01*
X154945285Y-39606285D01*
X154945285Y-40034857D01*
X154873857Y-40177714D01*
X154802428Y-40249142D01*
X154659571Y-40320571D01*
X154445285Y-40320571D01*
X156231000Y-40320571D02*
X156231000Y-39534857D01*
X156159571Y-39392000D01*
X156016714Y-39320571D01*
X155731000Y-39320571D01*
X155588142Y-39392000D01*
X156231000Y-40249142D02*
X156088142Y-40320571D01*
X155731000Y-40320571D01*
X155588142Y-40249142D01*
X155516714Y-40106285D01*
X155516714Y-39963428D01*
X155588142Y-39820571D01*
X155731000Y-39749142D01*
X156088142Y-39749142D01*
X156231000Y-39677714D01*
X156945285Y-40320571D02*
X156945285Y-39320571D01*
X156945285Y-39606285D02*
X157016714Y-39463428D01*
X157088142Y-39392000D01*
X157231000Y-39320571D01*
X157373857Y-39320571D01*
X158516714Y-40320571D02*
X158516714Y-38820571D01*
X158516714Y-40249142D02*
X158373857Y-40320571D01*
X158088142Y-40320571D01*
X157945285Y-40249142D01*
X157873857Y-40177714D01*
X157802428Y-40034857D01*
X157802428Y-39606285D01*
X157873857Y-39463428D01*
X157945285Y-39392000D01*
X158088142Y-39320571D01*
X158373857Y-39320571D01*
X158516714Y-39392000D01*
M02*
